solid OpenSCAD_Model
  facet normal 0 0 1
    outer loop
      vertex 7.02982 0.204834 3.35
      vertex 7.02982 -0.204849 3.35
      vertex 7.04999 0 3.35
    endloop
  endfacet
  facet normal 0 0 1
    outer loop
      vertex 6.97006 0.40181 3.35
      vertex 7.02982 -0.204849 3.35
      vertex 7.02982 0.204834 3.35
    endloop
  endfacet
  facet normal 0 0 1
    outer loop
      vertex 6.97006 0.40181 3.35
      vertex 6.97006 -0.401825 3.35
      vertex 7.02982 -0.204849 3.35
    endloop
  endfacet
  facet normal 0 0 1
    outer loop
      vertex 6.87303 0.583344 3.35
      vertex 6.97006 -0.401825 3.35
      vertex 6.97006 0.40181 3.35
    endloop
  endfacet
  facet normal 0 0 1
    outer loop
      vertex 6.87303 0.583344 3.35
      vertex 6.87303 -0.583359 3.35
      vertex 6.97006 -0.401825 3.35
    endloop
  endfacet
  facet normal 0 0 1
    outer loop
      vertex 6.74245 0.742447 3.35
      vertex 6.87303 -0.583359 3.35
      vertex 6.87303 0.583344 3.35
    endloop
  endfacet
  facet normal 0 0 1
    outer loop
      vertex 6.74245 0.742447 3.35
      vertex 6.74245 -0.742462 3.35
      vertex 6.87303 -0.583359 3.35
    endloop
  endfacet
  facet normal 0 0 1
    outer loop
      vertex 6.58334 0.873032 3.35
      vertex 6.74245 -0.742462 3.35
      vertex 6.74245 0.742447 3.35
    endloop
  endfacet
  facet normal 0 0 1
    outer loop
      vertex 6.58334 0.873032 3.35
      vertex 6.58334 -0.873047 3.35
      vertex 6.74245 -0.742462 3.35
    endloop
  endfacet
  facet normal 0 0 1
    outer loop
      vertex 6.40181 0.970062 3.35
      vertex 6.58334 -0.873047 3.35
      vertex 6.58334 0.873032 3.35
    endloop
  endfacet
  facet normal 0 0 1
    outer loop
      vertex 6.40181 0.970062 3.35
      vertex 6.40181 -0.970078 3.35
      vertex 6.58334 -0.873047 3.35
    endloop
  endfacet
  facet normal 0 0 1
    outer loop
      vertex 6.20483 1.02982 3.35
      vertex 6.40181 -0.970078 3.35
      vertex 6.40181 0.970062 3.35
    endloop
  endfacet
  facet normal 0 0 1
    outer loop
      vertex 6.20483 1.02982 3.35
      vertex 6.20483 -1.02983 3.35
      vertex 6.40181 -0.970078 3.35
    endloop
  endfacet
  facet normal 0 0 1
    outer loop
      vertex 6 1.04999 3.35
      vertex 6.20483 -1.02983 3.35
      vertex 6.20483 1.02982 3.35
    endloop
  endfacet
  facet normal 0 0 1
    outer loop
      vertex 6 1.04999 3.35
      vertex 6 -1.05 3.35
      vertex 6.20483 -1.02983 3.35
    endloop
  endfacet
  facet normal 0 0 1
    outer loop
      vertex 6 1.04999 3.35
      vertex 1.04999 -1.05 3.35
      vertex 6 -1.05 3.35
    endloop
  endfacet
  facet normal 0 0 1
    outer loop
      vertex -1.04999 -17.05 3.35
      vertex 1.04999 -17.05 3.35
      vertex 1.04999 -1.05 3.35
    endloop
  endfacet
  facet normal 0 0 1
    outer loop
      vertex 1.04999 -17.05 3.35
      vertex -1.04999 -17.05 3.35
      vertex 0.485031 -18.3009 3.35
    endloop
  endfacet
  facet normal 0 -0 1
    outer loop
      vertex -0.485031 -18.3009 3.35
      vertex 0.485031 -18.3009 3.35
      vertex -1.04999 -17.05 3.35
    endloop
  endfacet
  facet normal 0 0 1
    outer loop
      vertex 0.485031 -18.3009 3.35
      vertex -0.485031 -18.3009 3.35
      vertex 0.436508 -18.3917 3.35
    endloop
  endfacet
  facet normal 0 0 1
    outer loop
      vertex 0.436508 -18.3917 3.35
      vertex -0.485031 -18.3009 3.35
      vertex 0.371216 -18.4712 3.35
    endloop
  endfacet
  facet normal 0 0 1
    outer loop
      vertex 0.371216 -18.4712 3.35
      vertex -0.485031 -18.3009 3.35
      vertex 0.291672 -18.5365 3.35
    endloop
  endfacet
  facet normal 0 0 1
    outer loop
      vertex 0.291672 -18.5365 3.35
      vertex -0.485031 -18.3009 3.35
      vertex 0.200897 -18.585 3.35
    endloop
  endfacet
  facet normal 0 0 1
    outer loop
      vertex 0.200897 -18.585 3.35
      vertex -0.485031 -18.3009 3.35
      vertex 0.102417 -18.6149 3.35
    endloop
  endfacet
  facet normal 0 0 1
    outer loop
      vertex 0.102417 -18.6149 3.35
      vertex -0.485031 -18.3009 3.35
      vertex 0 -18.625 3.35
    endloop
  endfacet
  facet normal 0 0 1
    outer loop
      vertex 0 -18.625 3.35
      vertex -0.485031 -18.3009 3.35
      vertex -0.102417 -18.6149 3.35
    endloop
  endfacet
  facet normal 0 0 1
    outer loop
      vertex -0.102417 -18.6149 3.35
      vertex -0.485031 -18.3009 3.35
      vertex -0.200897 -18.585 3.35
    endloop
  endfacet
  facet normal 0 0 1
    outer loop
      vertex -0.200897 -18.585 3.35
      vertex -0.485031 -18.3009 3.35
      vertex -0.291672 -18.5365 3.35
    endloop
  endfacet
  facet normal 0 0 1
    outer loop
      vertex -0.291672 -18.5365 3.35
      vertex -0.485031 -18.3009 3.35
      vertex -0.371216 -18.4712 3.35
    endloop
  endfacet
  facet normal 0 0 1
    outer loop
      vertex -1.04999 -17.05 3.35
      vertex 1.04999 -1.05 3.35
      vertex -1.04999 -1.05 3.35
    endloop
  endfacet
  facet normal 0 0 1
    outer loop
      vertex 6 1.04999 3.35
      vertex -1.04999 -1.05 3.35
      vertex 1.04999 -1.05 3.35
    endloop
  endfacet
  facet normal -0 0 1
    outer loop
      vertex -6 1.04999 3.35
      vertex -1.04999 -1.05 3.35
      vertex 6 1.04999 3.35
    endloop
  endfacet
  facet normal 0 0 1
    outer loop
      vertex -6 1.04999 3.35
      vertex -6 -1.05 3.35
      vertex -1.04999 -1.05 3.35
    endloop
  endfacet
  facet normal -0 0 1
    outer loop
      vertex -6.20483 1.02982 3.35
      vertex -6 -1.05 3.35
      vertex -6 1.04999 3.35
    endloop
  endfacet
  facet normal 0 0 1
    outer loop
      vertex -6.20483 1.02982 3.35
      vertex -6.20483 -1.02983 3.35
      vertex -6 -1.05 3.35
    endloop
  endfacet
  facet normal -0 0 1
    outer loop
      vertex -6.40181 0.970062 3.35
      vertex -6.20483 -1.02983 3.35
      vertex -6.20483 1.02982 3.35
    endloop
  endfacet
  facet normal 0 0 1
    outer loop
      vertex -6.40181 0.970062 3.35
      vertex -6.40181 -0.970078 3.35
      vertex -6.20483 -1.02983 3.35
    endloop
  endfacet
  facet normal -0 0 1
    outer loop
      vertex -6.58334 0.873032 3.35
      vertex -6.40181 -0.970078 3.35
      vertex -6.40181 0.970062 3.35
    endloop
  endfacet
  facet normal 0 0 1
    outer loop
      vertex -6.58334 0.873032 3.35
      vertex -6.58334 -0.873047 3.35
      vertex -6.40181 -0.970078 3.35
    endloop
  endfacet
  facet normal -0 0 1
    outer loop
      vertex -6.74245 0.742447 3.35
      vertex -6.58334 -0.873047 3.35
      vertex -6.58334 0.873032 3.35
    endloop
  endfacet
  facet normal 0 0 1
    outer loop
      vertex -6.74245 0.742447 3.35
      vertex -6.74245 -0.742462 3.35
      vertex -6.58334 -0.873047 3.35
    endloop
  endfacet
  facet normal -0 0 1
    outer loop
      vertex -6.87303 0.583344 3.35
      vertex -6.74245 -0.742462 3.35
      vertex -6.74245 0.742447 3.35
    endloop
  endfacet
  facet normal 0 0 1
    outer loop
      vertex -6.87303 0.583344 3.35
      vertex -6.87303 -0.583359 3.35
      vertex -6.74245 -0.742462 3.35
    endloop
  endfacet
  facet normal -0 0 1
    outer loop
      vertex -6.97006 0.40181 3.35
      vertex -6.87303 -0.583359 3.35
      vertex -6.87303 0.583344 3.35
    endloop
  endfacet
  facet normal 0 0 1
    outer loop
      vertex -6.97006 0.40181 3.35
      vertex -6.97006 -0.401825 3.35
      vertex -6.87303 -0.583359 3.35
    endloop
  endfacet
  facet normal -0 0 1
    outer loop
      vertex -7.02982 0.204834 3.35
      vertex -6.97006 -0.401825 3.35
      vertex -6.97006 0.40181 3.35
    endloop
  endfacet
  facet normal 0 0 1
    outer loop
      vertex -7.02982 0.204834 3.35
      vertex -7.02982 -0.204849 3.35
      vertex -6.97006 -0.401825 3.35
    endloop
  endfacet
  facet normal 0 -0 1
    outer loop
      vertex -7.02982 -0.204849 3.35
      vertex -7.02982 0.204834 3.35
      vertex -7.04999 0 3.35
    endloop
  endfacet
  facet normal 0 0 1
    outer loop
      vertex -0.371216 -18.4712 3.35
      vertex -0.485031 -18.3009 3.35
      vertex -0.436508 -18.3917 3.35
    endloop
  endfacet
  facet normal 0 0 -1
    outer loop
      vertex -1.04999 -17.05 -3.35
      vertex 1.04999 -17.05 -3.35
      vertex 0.485031 -18.3009 -3.35
    endloop
  endfacet
  facet normal 0 0 -1
    outer loop
      vertex 7.02982 -0.204849 -3.35
      vertex 7.02982 0.204834 -3.35
      vertex 7.04999 0 -3.35
    endloop
  endfacet
  facet normal 0 0 -1
    outer loop
      vertex 6.97006 -0.401825 -3.35
      vertex 7.02982 0.204834 -3.35
      vertex 7.02982 -0.204849 -3.35
    endloop
  endfacet
  facet normal 0 0 -1
    outer loop
      vertex 6.97006 -0.401825 -3.35
      vertex 6.97006 0.40181 -3.35
      vertex 7.02982 0.204834 -3.35
    endloop
  endfacet
  facet normal 0 0 -1
    outer loop
      vertex 6.87303 -0.583359 -3.35
      vertex 6.97006 0.40181 -3.35
      vertex 6.97006 -0.401825 -3.35
    endloop
  endfacet
  facet normal 0 0 -1
    outer loop
      vertex 6.87303 -0.583359 -3.35
      vertex 6.87303 0.583344 -3.35
      vertex 6.97006 0.40181 -3.35
    endloop
  endfacet
  facet normal 0 0 -1
    outer loop
      vertex 6.74245 -0.742462 -3.35
      vertex 6.87303 0.583344 -3.35
      vertex 6.87303 -0.583359 -3.35
    endloop
  endfacet
  facet normal 0 0 -1
    outer loop
      vertex 6.74245 -0.742462 -3.35
      vertex 6.74245 0.742447 -3.35
      vertex 6.87303 0.583344 -3.35
    endloop
  endfacet
  facet normal 0 0 -1
    outer loop
      vertex 6.58334 -0.873047 -3.35
      vertex 6.74245 0.742447 -3.35
      vertex 6.74245 -0.742462 -3.35
    endloop
  endfacet
  facet normal 0 0 -1
    outer loop
      vertex 6.58334 -0.873047 -3.35
      vertex 6.58334 0.873032 -3.35
      vertex 6.74245 0.742447 -3.35
    endloop
  endfacet
  facet normal 0 0 -1
    outer loop
      vertex 6.40181 -0.970078 -3.35
      vertex 6.58334 0.873032 -3.35
      vertex 6.58334 -0.873047 -3.35
    endloop
  endfacet
  facet normal 0 0 -1
    outer loop
      vertex 6.40181 -0.970078 -3.35
      vertex 6.40181 0.970062 -3.35
      vertex 6.58334 0.873032 -3.35
    endloop
  endfacet
  facet normal 0 0 -1
    outer loop
      vertex 6.20483 -1.02983 -3.35
      vertex 6.40181 0.970062 -3.35
      vertex 6.40181 -0.970078 -3.35
    endloop
  endfacet
  facet normal 0 0 -1
    outer loop
      vertex 6.20483 -1.02983 -3.35
      vertex 6.20483 1.02982 -3.35
      vertex 6.40181 0.970062 -3.35
    endloop
  endfacet
  facet normal 0 0 -1
    outer loop
      vertex 6 -1.05 -3.35
      vertex 6.20483 1.02982 -3.35
      vertex 6.20483 -1.02983 -3.35
    endloop
  endfacet
  facet normal 0 0 -1
    outer loop
      vertex 6 -1.05 -3.35
      vertex 6 1.04999 -3.35
      vertex 6.20483 1.02982 -3.35
    endloop
  endfacet
  facet normal 0 0 -1
    outer loop
      vertex 1.04999 -1.05 -3.35
      vertex 6 1.04999 -3.35
      vertex 6 -1.05 -3.35
    endloop
  endfacet
  facet normal 0 0 -1
    outer loop
      vertex -0.485031 -18.3009 -3.35
      vertex 0.485031 -18.3009 -3.35
      vertex 0.436508 -18.3917 -3.35
    endloop
  endfacet
  facet normal 0 0 -1
    outer loop
      vertex -0.485031 -18.3009 -3.35
      vertex 0.436508 -18.3917 -3.35
      vertex 0.371216 -18.4712 -3.35
    endloop
  endfacet
  facet normal 0 0 -1
    outer loop
      vertex -0.485031 -18.3009 -3.35
      vertex 0.371216 -18.4712 -3.35
      vertex 0.291672 -18.5365 -3.35
    endloop
  endfacet
  facet normal 0 0 -1
    outer loop
      vertex -0.485031 -18.3009 -3.35
      vertex 0.291672 -18.5365 -3.35
      vertex 0.200897 -18.585 -3.35
    endloop
  endfacet
  facet normal 0 0 -1
    outer loop
      vertex -0.485031 -18.3009 -3.35
      vertex 0.200897 -18.585 -3.35
      vertex 0.102417 -18.6149 -3.35
    endloop
  endfacet
  facet normal 0 0 -1
    outer loop
      vertex -0.485031 -18.3009 -3.35
      vertex 0.102417 -18.6149 -3.35
      vertex 0 -18.625 -3.35
    endloop
  endfacet
  facet normal 0 0 -1
    outer loop
      vertex -0.485031 -18.3009 -3.35
      vertex 0 -18.625 -3.35
      vertex -0.102417 -18.6149 -3.35
    endloop
  endfacet
  facet normal 0 0 -1
    outer loop
      vertex -0.485031 -18.3009 -3.35
      vertex -0.102417 -18.6149 -3.35
      vertex -0.200897 -18.585 -3.35
    endloop
  endfacet
  facet normal 0 0 -1
    outer loop
      vertex -0.485031 -18.3009 -3.35
      vertex -0.200897 -18.585 -3.35
      vertex -0.291672 -18.5365 -3.35
    endloop
  endfacet
  facet normal 0 0 -1
    outer loop
      vertex -0.485031 -18.3009 -3.35
      vertex -0.291672 -18.5365 -3.35
      vertex -0.371216 -18.4712 -3.35
    endloop
  endfacet
  facet normal 0 0 -1
    outer loop
      vertex -0.485031 -18.3009 -3.35
      vertex -0.371216 -18.4712 -3.35
      vertex -0.436508 -18.3917 -3.35
    endloop
  endfacet
  facet normal 0 0 -1
    outer loop
      vertex 0.485031 -18.3009 -3.35
      vertex -0.485031 -18.3009 -3.35
      vertex -1.04999 -17.05 -3.35
    endloop
  endfacet
  facet normal 0 0 -1
    outer loop
      vertex 1.04999 -17.05 -3.35
      vertex -1.04999 -17.05 -3.35
      vertex 1.04999 -1.05 -3.35
    endloop
  endfacet
  facet normal 0 0 -1
    outer loop
      vertex -1.04999 -1.05 -3.35
      vertex 1.04999 -1.05 -3.35
      vertex -1.04999 -17.05 -3.35
    endloop
  endfacet
  facet normal 0 0 -1
    outer loop
      vertex -1.04999 -1.05 -3.35
      vertex 6 1.04999 -3.35
      vertex 1.04999 -1.05 -3.35
    endloop
  endfacet
  facet normal 0 0 -1
    outer loop
      vertex -6 1.04999 -3.35
      vertex -1.04999 -1.05 -3.35
      vertex -6 -1.05 -3.35
    endloop
  endfacet
  facet normal 0 0 -1
    outer loop
      vertex -1.04999 -1.05 -3.35
      vertex -6 1.04999 -3.35
      vertex 6 1.04999 -3.35
    endloop
  endfacet
  facet normal 0 0 -1
    outer loop
      vertex -6.20483 -1.02983 -3.35
      vertex -6 1.04999 -3.35
      vertex -6 -1.05 -3.35
    endloop
  endfacet
  facet normal 0 0 -1
    outer loop
      vertex -6.20483 -1.02983 -3.35
      vertex -6.20483 1.02982 -3.35
      vertex -6 1.04999 -3.35
    endloop
  endfacet
  facet normal 0 0 -1
    outer loop
      vertex -6.40181 -0.970078 -3.35
      vertex -6.20483 1.02982 -3.35
      vertex -6.20483 -1.02983 -3.35
    endloop
  endfacet
  facet normal 0 0 -1
    outer loop
      vertex -6.40181 -0.970078 -3.35
      vertex -6.40181 0.970062 -3.35
      vertex -6.20483 1.02982 -3.35
    endloop
  endfacet
  facet normal 0 0 -1
    outer loop
      vertex -6.58334 -0.873047 -3.35
      vertex -6.40181 0.970062 -3.35
      vertex -6.40181 -0.970078 -3.35
    endloop
  endfacet
  facet normal 0 0 -1
    outer loop
      vertex -6.58334 -0.873047 -3.35
      vertex -6.58334 0.873032 -3.35
      vertex -6.40181 0.970062 -3.35
    endloop
  endfacet
  facet normal 0 0 -1
    outer loop
      vertex -6.74245 -0.742462 -3.35
      vertex -6.58334 0.873032 -3.35
      vertex -6.58334 -0.873047 -3.35
    endloop
  endfacet
  facet normal 0 0 -1
    outer loop
      vertex -6.74245 -0.742462 -3.35
      vertex -6.74245 0.742447 -3.35
      vertex -6.58334 0.873032 -3.35
    endloop
  endfacet
  facet normal 0 0 -1
    outer loop
      vertex -6.87303 -0.583359 -3.35
      vertex -6.74245 0.742447 -3.35
      vertex -6.74245 -0.742462 -3.35
    endloop
  endfacet
  facet normal 0 0 -1
    outer loop
      vertex -6.87303 -0.583359 -3.35
      vertex -6.87303 0.583344 -3.35
      vertex -6.74245 0.742447 -3.35
    endloop
  endfacet
  facet normal 0 0 -1
    outer loop
      vertex -6.97006 -0.401825 -3.35
      vertex -6.87303 0.583344 -3.35
      vertex -6.87303 -0.583359 -3.35
    endloop
  endfacet
  facet normal 0 0 -1
    outer loop
      vertex -6.97006 -0.401825 -3.35
      vertex -6.97006 0.40181 -3.35
      vertex -6.87303 0.583344 -3.35
    endloop
  endfacet
  facet normal 0 0 -1
    outer loop
      vertex -7.02982 -0.204849 -3.35
      vertex -6.97006 0.40181 -3.35
      vertex -6.97006 -0.401825 -3.35
    endloop
  endfacet
  facet normal 0 0 -1
    outer loop
      vertex -7.02982 -0.204849 -3.35
      vertex -7.02982 0.204834 -3.35
      vertex -6.97006 0.40181 -3.35
    endloop
  endfacet
  facet normal 0 -0 -1
    outer loop
      vertex -7.02982 0.204834 -3.35
      vertex -7.02982 -0.204849 -3.35
      vertex -7.04999 0 -3.35
    endloop
  endfacet
  facet normal 0.881964 -0.471317 0
    outer loop
      vertex 0.436508 -18.3917 3.35
      vertex 0.485031 -18.3009 -3.35
      vertex 0.485031 -18.3009 3.35
    endloop
  endfacet
  facet normal 0.881964 -0.471317 0
    outer loop
      vertex 0.485031 -18.3009 -3.35
      vertex 0.436508 -18.3917 3.35
      vertex 0.436508 -18.3917 -3.35
    endloop
  endfacet
  facet normal 0.772781 -0.634672 0
    outer loop
      vertex 0.371216 -18.4712 3.35
      vertex 0.436508 -18.3917 -3.35
      vertex 0.436508 -18.3917 3.35
    endloop
  endfacet
  facet normal 0.772781 -0.634672 0
    outer loop
      vertex 0.436508 -18.3917 -3.35
      vertex 0.371216 -18.4712 3.35
      vertex 0.371216 -18.4712 -3.35
    endloop
  endfacet
  facet normal 0.634509 -0.772915 0
    outer loop
      vertex 0.291672 -18.5365 -3.35
      vertex 0.371216 -18.4712 3.35
      vertex 0.291672 -18.5365 3.35
    endloop
  endfacet
  facet normal 0.634509 -0.772915 0
    outer loop
      vertex 0.371216 -18.4712 3.35
      vertex 0.291672 -18.5365 -3.35
      vertex 0.371216 -18.4712 -3.35
    endloop
  endfacet
  facet normal 0.471244 -0.882003 0
    outer loop
      vertex 0.200897 -18.585 -3.35
      vertex 0.291672 -18.5365 3.35
      vertex 0.200897 -18.585 3.35
    endloop
  endfacet
  facet normal 0.471244 -0.882003 0
    outer loop
      vertex 0.291672 -18.5365 3.35
      vertex 0.200897 -18.585 -3.35
      vertex 0.291672 -18.5365 -3.35
    endloop
  endfacet
  facet normal 0.29052 -0.956869 0
    outer loop
      vertex 0.102417 -18.6149 -3.35
      vertex 0.200897 -18.585 3.35
      vertex 0.102417 -18.6149 3.35
    endloop
  endfacet
  facet normal 0.29052 -0.956869 0
    outer loop
      vertex 0.200897 -18.585 3.35
      vertex 0.102417 -18.6149 -3.35
      vertex 0.200897 -18.585 -3.35
    endloop
  endfacet
  facet normal 0.0981404 -0.995173 0
    outer loop
      vertex 0 -18.625 -3.35
      vertex 0.102417 -18.6149 3.35
      vertex 0 -18.625 3.35
    endloop
  endfacet
  facet normal 0.0981404 -0.995173 0
    outer loop
      vertex 0.102417 -18.6149 3.35
      vertex 0 -18.625 -3.35
      vertex 0.102417 -18.6149 -3.35
    endloop
  endfacet
  facet normal -0.0981404 -0.995173 0
    outer loop
      vertex -0.102417 -18.6149 -3.35
      vertex 0 -18.625 3.35
      vertex -0.102417 -18.6149 3.35
    endloop
  endfacet
  facet normal -0.0981404 -0.995173 -0
    outer loop
      vertex 0 -18.625 3.35
      vertex -0.102417 -18.6149 -3.35
      vertex 0 -18.625 -3.35
    endloop
  endfacet
  facet normal -0.29052 -0.956869 0
    outer loop
      vertex -0.200897 -18.585 -3.35
      vertex -0.102417 -18.6149 3.35
      vertex -0.200897 -18.585 3.35
    endloop
  endfacet
  facet normal -0.29052 -0.956869 -0
    outer loop
      vertex -0.102417 -18.6149 3.35
      vertex -0.200897 -18.585 -3.35
      vertex -0.102417 -18.6149 -3.35
    endloop
  endfacet
  facet normal -0.471244 -0.882003 0
    outer loop
      vertex -0.291672 -18.5365 -3.35
      vertex -0.200897 -18.585 3.35
      vertex -0.291672 -18.5365 3.35
    endloop
  endfacet
  facet normal -0.471244 -0.882003 -0
    outer loop
      vertex -0.200897 -18.585 3.35
      vertex -0.291672 -18.5365 -3.35
      vertex -0.200897 -18.585 -3.35
    endloop
  endfacet
  facet normal -0.634509 -0.772915 0
    outer loop
      vertex -0.371216 -18.4712 -3.35
      vertex -0.291672 -18.5365 3.35
      vertex -0.371216 -18.4712 3.35
    endloop
  endfacet
  facet normal -0.634509 -0.772915 -0
    outer loop
      vertex -0.291672 -18.5365 3.35
      vertex -0.371216 -18.4712 -3.35
      vertex -0.291672 -18.5365 -3.35
    endloop
  endfacet
  facet normal -0.772781 -0.634672 0
    outer loop
      vertex -0.371216 -18.4712 -3.35
      vertex -0.436508 -18.3917 3.35
      vertex -0.436508 -18.3917 -3.35
    endloop
  endfacet
  facet normal -0.772781 -0.634672 0
    outer loop
      vertex -0.436508 -18.3917 3.35
      vertex -0.371216 -18.4712 -3.35
      vertex -0.371216 -18.4712 3.35
    endloop
  endfacet
  facet normal -0.881964 -0.471317 0
    outer loop
      vertex -0.436508 -18.3917 -3.35
      vertex -0.485031 -18.3009 3.35
      vertex -0.485031 -18.3009 -3.35
    endloop
  endfacet
  facet normal -0.881964 -0.471317 0
    outer loop
      vertex -0.485031 -18.3009 3.35
      vertex -0.436508 -18.3917 -3.35
      vertex -0.436508 -18.3917 3.35
    endloop
  endfacet
  facet normal -0.911361 -0.411609 0
    outer loop
      vertex -0.485031 -18.3009 -3.35
      vertex -1.04999 -17.05 3.35
      vertex -1.04999 -17.05 -3.35
    endloop
  endfacet
  facet normal -0.911361 -0.411609 0
    outer loop
      vertex -1.04999 -17.05 3.35
      vertex -0.485031 -18.3009 -3.35
      vertex -0.485031 -18.3009 3.35
    endloop
  endfacet
  facet normal -1 0 0
    outer loop
      vertex -1.04999 -17.05 -3.35
      vertex -1.04999 -1.05 3.35
      vertex -1.04999 -1.05 -3.35
    endloop
  endfacet
  facet normal -1 -0 0
    outer loop
      vertex -1.04999 -1.05 3.35
      vertex -1.04999 -17.05 -3.35
      vertex -1.04999 -17.05 3.35
    endloop
  endfacet
  facet normal 0 -1 0
    outer loop
      vertex -6 -1.05 -3.35
      vertex -1.04999 -1.05 3.35
      vertex -6 -1.05 3.35
    endloop
  endfacet
  facet normal 0 -1 -0
    outer loop
      vertex -1.04999 -1.05 3.35
      vertex -6 -1.05 -3.35
      vertex -1.04999 -1.05 -3.35
    endloop
  endfacet
  facet normal -0.0979979 -0.995187 0
    outer loop
      vertex -6.20483 -1.02983 -3.35
      vertex -6 -1.05 3.35
      vertex -6.20483 -1.02983 3.35
    endloop
  endfacet
  facet normal -0.0979979 -0.995187 -0
    outer loop
      vertex -6 -1.05 3.35
      vertex -6.20483 -1.02983 -3.35
      vertex -6 -1.05 -3.35
    endloop
  endfacet
  facet normal -0.290279 -0.956942 0
    outer loop
      vertex -6.40181 -0.970078 -3.35
      vertex -6.20483 -1.02983 3.35
      vertex -6.40181 -0.970078 3.35
    endloop
  endfacet
  facet normal -0.290279 -0.956942 -0
    outer loop
      vertex -6.20483 -1.02983 3.35
      vertex -6.40181 -0.970078 -3.35
      vertex -6.20483 -1.02983 -3.35
    endloop
  endfacet
  facet normal -0.471401 -0.881919 0
    outer loop
      vertex -6.58334 -0.873047 -3.35
      vertex -6.40181 -0.970078 3.35
      vertex -6.58334 -0.873047 3.35
    endloop
  endfacet
  facet normal -0.471401 -0.881919 -0
    outer loop
      vertex -6.40181 -0.970078 3.35
      vertex -6.58334 -0.873047 -3.35
      vertex -6.40181 -0.970078 -3.35
    endloop
  endfacet
  facet normal -0.634413 -0.772994 0
    outer loop
      vertex -6.74245 -0.742462 -3.35
      vertex -6.58334 -0.873047 3.35
      vertex -6.74245 -0.742462 3.35
    endloop
  endfacet
  facet normal -0.634413 -0.772994 -0
    outer loop
      vertex -6.58334 -0.873047 3.35
      vertex -6.74245 -0.742462 -3.35
      vertex -6.58334 -0.873047 -3.35
    endloop
  endfacet
  facet normal -0.772992 -0.634415 0
    outer loop
      vertex -6.74245 -0.742462 -3.35
      vertex -6.87303 -0.583359 3.35
      vertex -6.87303 -0.583359 -3.35
    endloop
  endfacet
  facet normal -0.772992 -0.634415 0
    outer loop
      vertex -6.87303 -0.583359 3.35
      vertex -6.74245 -0.742462 -3.35
      vertex -6.74245 -0.742462 3.35
    endloop
  endfacet
  facet normal -0.881925 -0.471389 0
    outer loop
      vertex -6.87303 -0.583359 -3.35
      vertex -6.97006 -0.401825 3.35
      vertex -6.97006 -0.401825 -3.35
    endloop
  endfacet
  facet normal -0.881925 -0.471389 0
    outer loop
      vertex -6.97006 -0.401825 3.35
      vertex -6.87303 -0.583359 -3.35
      vertex -6.87303 -0.583359 3.35
    endloop
  endfacet
  facet normal -0.95693 -0.29032 0
    outer loop
      vertex -6.97006 -0.401825 -3.35
      vertex -7.02982 -0.204849 3.35
      vertex -7.02982 -0.204849 -3.35
    endloop
  endfacet
  facet normal -0.95693 -0.29032 0
    outer loop
      vertex -7.02982 -0.204849 3.35
      vertex -6.97006 -0.401825 -3.35
      vertex -6.97006 -0.401825 3.35
    endloop
  endfacet
  facet normal -0.995188 -0.0979889 0
    outer loop
      vertex -7.02982 -0.204849 -3.35
      vertex -7.04999 0 3.35
      vertex -7.04999 0 -3.35
    endloop
  endfacet
  facet normal -0.995188 -0.0979889 0
    outer loop
      vertex -7.04999 0 3.35
      vertex -7.02982 -0.204849 -3.35
      vertex -7.02982 -0.204849 3.35
    endloop
  endfacet
  facet normal -0.995187 0.097996 0
    outer loop
      vertex -7.04999 0 -3.35
      vertex -7.02982 0.204834 3.35
      vertex -7.02982 0.204834 -3.35
    endloop
  endfacet
  facet normal -0.995187 0.097996 0
    outer loop
      vertex -7.02982 0.204834 3.35
      vertex -7.04999 0 -3.35
      vertex -7.04999 0 3.35
    endloop
  endfacet
  facet normal -0.95693 0.29032 0
    outer loop
      vertex -7.02982 0.204834 -3.35
      vertex -6.97006 0.40181 3.35
      vertex -6.97006 0.40181 -3.35
    endloop
  endfacet
  facet normal -0.95693 0.29032 0
    outer loop
      vertex -6.97006 0.40181 3.35
      vertex -7.02982 0.204834 -3.35
      vertex -7.02982 0.204834 3.35
    endloop
  endfacet
  facet normal -0.881925 0.471389 0
    outer loop
      vertex -6.97006 0.40181 -3.35
      vertex -6.87303 0.583344 3.35
      vertex -6.87303 0.583344 -3.35
    endloop
  endfacet
  facet normal -0.881925 0.471389 0
    outer loop
      vertex -6.87303 0.583344 3.35
      vertex -6.97006 0.40181 -3.35
      vertex -6.97006 0.40181 3.35
    endloop
  endfacet
  facet normal -0.772992 0.634415 0
    outer loop
      vertex -6.87303 0.583344 -3.35
      vertex -6.74245 0.742447 3.35
      vertex -6.74245 0.742447 -3.35
    endloop
  endfacet
  facet normal -0.772992 0.634415 0
    outer loop
      vertex -6.74245 0.742447 3.35
      vertex -6.87303 0.583344 -3.35
      vertex -6.87303 0.583344 3.35
    endloop
  endfacet
  facet normal -0.634413 0.772994 0
    outer loop
      vertex -6.58334 0.873032 -3.35
      vertex -6.74245 0.742447 3.35
      vertex -6.58334 0.873032 3.35
    endloop
  endfacet
  facet normal -0.634413 0.772994 0
    outer loop
      vertex -6.74245 0.742447 3.35
      vertex -6.58334 0.873032 -3.35
      vertex -6.74245 0.742447 -3.35
    endloop
  endfacet
  facet normal -0.471397 0.881921 0
    outer loop
      vertex -6.40181 0.970062 -3.35
      vertex -6.58334 0.873032 3.35
      vertex -6.40181 0.970062 3.35
    endloop
  endfacet
  facet normal -0.471397 0.881921 0
    outer loop
      vertex -6.58334 0.873032 3.35
      vertex -6.40181 0.970062 -3.35
      vertex -6.58334 0.873032 -3.35
    endloop
  endfacet
  facet normal -0.290306 0.956934 0
    outer loop
      vertex -6.20483 1.02982 -3.35
      vertex -6.40181 0.970062 3.35
      vertex -6.20483 1.02982 3.35
    endloop
  endfacet
  facet normal -0.290306 0.956934 0
    outer loop
      vertex -6.40181 0.970062 3.35
      vertex -6.20483 1.02982 -3.35
      vertex -6.40181 0.970062 -3.35
    endloop
  endfacet
  facet normal -0.0979979 0.995187 0
    outer loop
      vertex -6 1.04999 -3.35
      vertex -6.20483 1.02982 3.35
      vertex -6 1.04999 3.35
    endloop
  endfacet
  facet normal -0.0979979 0.995187 0
    outer loop
      vertex -6.20483 1.02982 3.35
      vertex -6 1.04999 -3.35
      vertex -6.20483 1.02982 -3.35
    endloop
  endfacet
  facet normal 0 1 -0
    outer loop
      vertex 6 1.04999 -3.35
      vertex -6 1.04999 3.35
      vertex 6 1.04999 3.35
    endloop
  endfacet
  facet normal 0 1 0
    outer loop
      vertex -6 1.04999 3.35
      vertex 6 1.04999 -3.35
      vertex -6 1.04999 -3.35
    endloop
  endfacet
  facet normal 0.0979979 0.995187 -0
    outer loop
      vertex 6.20483 1.02982 -3.35
      vertex 6 1.04999 3.35
      vertex 6.20483 1.02982 3.35
    endloop
  endfacet
  facet normal 0.0979979 0.995187 0
    outer loop
      vertex 6 1.04999 3.35
      vertex 6.20483 1.02982 -3.35
      vertex 6 1.04999 -3.35
    endloop
  endfacet
  facet normal 0.290306 0.956934 -0
    outer loop
      vertex 6.40181 0.970062 -3.35
      vertex 6.20483 1.02982 3.35
      vertex 6.40181 0.970062 3.35
    endloop
  endfacet
  facet normal 0.290306 0.956934 0
    outer loop
      vertex 6.20483 1.02982 3.35
      vertex 6.40181 0.970062 -3.35
      vertex 6.20483 1.02982 -3.35
    endloop
  endfacet
  facet normal 0.471397 0.881921 -0
    outer loop
      vertex 6.58334 0.873032 -3.35
      vertex 6.40181 0.970062 3.35
      vertex 6.58334 0.873032 3.35
    endloop
  endfacet
  facet normal 0.471397 0.881921 0
    outer loop
      vertex 6.40181 0.970062 3.35
      vertex 6.58334 0.873032 -3.35
      vertex 6.40181 0.970062 -3.35
    endloop
  endfacet
  facet normal 0.634413 0.772994 -0
    outer loop
      vertex 6.74245 0.742447 -3.35
      vertex 6.58334 0.873032 3.35
      vertex 6.74245 0.742447 3.35
    endloop
  endfacet
  facet normal 0.634413 0.772994 0
    outer loop
      vertex 6.58334 0.873032 3.35
      vertex 6.74245 0.742447 -3.35
      vertex 6.58334 0.873032 -3.35
    endloop
  endfacet
  facet normal 0.772992 0.634415 0
    outer loop
      vertex 6.87303 0.583344 3.35
      vertex 6.74245 0.742447 -3.35
      vertex 6.74245 0.742447 3.35
    endloop
  endfacet
  facet normal 0.772992 0.634415 0
    outer loop
      vertex 6.74245 0.742447 -3.35
      vertex 6.87303 0.583344 3.35
      vertex 6.87303 0.583344 -3.35
    endloop
  endfacet
  facet normal 0.881925 0.471389 0
    outer loop
      vertex 6.97006 0.40181 3.35
      vertex 6.87303 0.583344 -3.35
      vertex 6.87303 0.583344 3.35
    endloop
  endfacet
  facet normal 0.881925 0.471389 0
    outer loop
      vertex 6.87303 0.583344 -3.35
      vertex 6.97006 0.40181 3.35
      vertex 6.97006 0.40181 -3.35
    endloop
  endfacet
  facet normal 0.95693 0.29032 0
    outer loop
      vertex 7.02982 0.204834 3.35
      vertex 6.97006 0.40181 -3.35
      vertex 6.97006 0.40181 3.35
    endloop
  endfacet
  facet normal 0.95693 0.29032 0
    outer loop
      vertex 6.97006 0.40181 -3.35
      vertex 7.02982 0.204834 3.35
      vertex 7.02982 0.204834 -3.35
    endloop
  endfacet
  facet normal 0.995187 0.097996 0
    outer loop
      vertex 7.04999 0 3.35
      vertex 7.02982 0.204834 -3.35
      vertex 7.02982 0.204834 3.35
    endloop
  endfacet
  facet normal 0.995187 0.097996 0
    outer loop
      vertex 7.02982 0.204834 -3.35
      vertex 7.04999 0 3.35
      vertex 7.04999 0 -3.35
    endloop
  endfacet
  facet normal 0.995188 -0.0979889 0
    outer loop
      vertex 7.02982 -0.204849 3.35
      vertex 7.04999 0 -3.35
      vertex 7.04999 0 3.35
    endloop
  endfacet
  facet normal 0.995188 -0.0979889 0
    outer loop
      vertex 7.04999 0 -3.35
      vertex 7.02982 -0.204849 3.35
      vertex 7.02982 -0.204849 -3.35
    endloop
  endfacet
  facet normal 0.95693 -0.29032 0
    outer loop
      vertex 6.97006 -0.401825 3.35
      vertex 7.02982 -0.204849 -3.35
      vertex 7.02982 -0.204849 3.35
    endloop
  endfacet
  facet normal 0.95693 -0.29032 0
    outer loop
      vertex 7.02982 -0.204849 -3.35
      vertex 6.97006 -0.401825 3.35
      vertex 6.97006 -0.401825 -3.35
    endloop
  endfacet
  facet normal 0.881925 -0.471389 0
    outer loop
      vertex 6.87303 -0.583359 3.35
      vertex 6.97006 -0.401825 -3.35
      vertex 6.97006 -0.401825 3.35
    endloop
  endfacet
  facet normal 0.881925 -0.471389 0
    outer loop
      vertex 6.97006 -0.401825 -3.35
      vertex 6.87303 -0.583359 3.35
      vertex 6.87303 -0.583359 -3.35
    endloop
  endfacet
  facet normal 0.772992 -0.634415 0
    outer loop
      vertex 6.74245 -0.742462 3.35
      vertex 6.87303 -0.583359 -3.35
      vertex 6.87303 -0.583359 3.35
    endloop
  endfacet
  facet normal 0.772992 -0.634415 0
    outer loop
      vertex 6.87303 -0.583359 -3.35
      vertex 6.74245 -0.742462 3.35
      vertex 6.74245 -0.742462 -3.35
    endloop
  endfacet
  facet normal 0.634413 -0.772994 0
    outer loop
      vertex 6.58334 -0.873047 -3.35
      vertex 6.74245 -0.742462 3.35
      vertex 6.58334 -0.873047 3.35
    endloop
  endfacet
  facet normal 0.634413 -0.772994 0
    outer loop
      vertex 6.74245 -0.742462 3.35
      vertex 6.58334 -0.873047 -3.35
      vertex 6.74245 -0.742462 -3.35
    endloop
  endfacet
  facet normal 0.471401 -0.881919 0
    outer loop
      vertex 6.40181 -0.970078 -3.35
      vertex 6.58334 -0.873047 3.35
      vertex 6.40181 -0.970078 3.35
    endloop
  endfacet
  facet normal 0.471401 -0.881919 0
    outer loop
      vertex 6.58334 -0.873047 3.35
      vertex 6.40181 -0.970078 -3.35
      vertex 6.58334 -0.873047 -3.35
    endloop
  endfacet
  facet normal 0.290279 -0.956942 0
    outer loop
      vertex 6.20483 -1.02983 -3.35
      vertex 6.40181 -0.970078 3.35
      vertex 6.20483 -1.02983 3.35
    endloop
  endfacet
  facet normal 0.290279 -0.956942 0
    outer loop
      vertex 6.40181 -0.970078 3.35
      vertex 6.20483 -1.02983 -3.35
      vertex 6.40181 -0.970078 -3.35
    endloop
  endfacet
  facet normal 0.0979979 -0.995187 0
    outer loop
      vertex 6 -1.05 -3.35
      vertex 6.20483 -1.02983 3.35
      vertex 6 -1.05 3.35
    endloop
  endfacet
  facet normal 0.0979979 -0.995187 0
    outer loop
      vertex 6.20483 -1.02983 3.35
      vertex 6 -1.05 -3.35
      vertex 6.20483 -1.02983 -3.35
    endloop
  endfacet
  facet normal 0 -1 0
    outer loop
      vertex 1.04999 -1.05 -3.35
      vertex 6 -1.05 3.35
      vertex 1.04999 -1.05 3.35
    endloop
  endfacet
  facet normal 0 -1 -0
    outer loop
      vertex 6 -1.05 3.35
      vertex 1.04999 -1.05 -3.35
      vertex 6 -1.05 -3.35
    endloop
  endfacet
  facet normal 1 -0 0
    outer loop
      vertex 1.04999 -17.05 3.35
      vertex 1.04999 -1.05 -3.35
      vertex 1.04999 -1.05 3.35
    endloop
  endfacet
  facet normal 1 0 0
    outer loop
      vertex 1.04999 -1.05 -3.35
      vertex 1.04999 -17.05 3.35
      vertex 1.04999 -17.05 -3.35
    endloop
  endfacet
  facet normal 0.911361 -0.411609 0
    outer loop
      vertex 0.485031 -18.3009 3.35
      vertex 1.04999 -17.05 -3.35
      vertex 1.04999 -17.05 3.35
    endloop
  endfacet
  facet normal 0.911361 -0.411609 0
    outer loop
      vertex 1.04999 -17.05 -3.35
      vertex 0.485031 -18.3009 3.35
      vertex 0.485031 -18.3009 -3.35
    endloop
  endfacet
  facet normal 0 0 1
    outer loop
      vertex -2.97018 5.20483 3.35
      vertex -2.97018 4.79515 3.35
      vertex -2.95001 5 3.35
    endloop
  endfacet
  facet normal 0 0 1
    outer loop
      vertex -3.02994 5.40181 3.35
      vertex -2.97018 4.79515 3.35
      vertex -2.97018 5.20483 3.35
    endloop
  endfacet
  facet normal 0 0 1
    outer loop
      vertex -3.02994 5.40181 3.35
      vertex -3.02994 4.59818 3.35
      vertex -2.97018 4.79515 3.35
    endloop
  endfacet
  facet normal 0 0 1
    outer loop
      vertex -3.12697 5.58334 3.35
      vertex -3.02994 4.59818 3.35
      vertex -3.02994 5.40181 3.35
    endloop
  endfacet
  facet normal 0 0 1
    outer loop
      vertex -3.12697 5.58334 3.35
      vertex -3.12697 4.41664 3.35
      vertex -3.02994 4.59818 3.35
    endloop
  endfacet
  facet normal 0 0 1
    outer loop
      vertex -3.25755 5.74245 3.35
      vertex -3.12697 4.41664 3.35
      vertex -3.12697 5.58334 3.35
    endloop
  endfacet
  facet normal 0 0 1
    outer loop
      vertex -3.25755 5.74245 3.35
      vertex -3.25755 4.25754 3.35
      vertex -3.12697 4.41664 3.35
    endloop
  endfacet
  facet normal 0 0 1
    outer loop
      vertex -3.41666 5.87303 3.35
      vertex -3.25755 4.25754 3.35
      vertex -3.25755 5.74245 3.35
    endloop
  endfacet
  facet normal 0 0 1
    outer loop
      vertex -3.41666 5.87303 3.35
      vertex -3.41666 4.12695 3.35
      vertex -3.25755 4.25754 3.35
    endloop
  endfacet
  facet normal 0 0 1
    outer loop
      vertex -3.59819 5.97006 3.35
      vertex -3.41666 4.12695 3.35
      vertex -3.41666 5.87303 3.35
    endloop
  endfacet
  facet normal 0 0 1
    outer loop
      vertex -3.59819 5.97006 3.35
      vertex -3.59819 4.02992 3.35
      vertex -3.41666 4.12695 3.35
    endloop
  endfacet
  facet normal 0 0 1
    outer loop
      vertex -3.79517 6.02982 3.35
      vertex -3.59819 4.02992 3.35
      vertex -3.59819 5.97006 3.35
    endloop
  endfacet
  facet normal 0 0 1
    outer loop
      vertex -3.79517 6.02982 3.35
      vertex -3.79517 3.97017 3.35
      vertex -3.59819 4.02992 3.35
    endloop
  endfacet
  facet normal 0 0 1
    outer loop
      vertex -4 6.04999 3.35
      vertex -3.79517 3.97017 3.35
      vertex -3.79517 6.02982 3.35
    endloop
  endfacet
  facet normal 0 0 1
    outer loop
      vertex -4 6.04999 3.35
      vertex -4 3.95 3.35
      vertex -3.79517 3.97017 3.35
    endloop
  endfacet
  facet normal 0 0 1
    outer loop
      vertex -4 6.04999 3.35
      vertex -8.95001 3.95 3.35
      vertex -4 3.95 3.35
    endloop
  endfacet
  facet normal 0 0 1
    outer loop
      vertex -11.05 -12.05 3.35
      vertex -8.95001 -12.05 3.35
      vertex -8.95001 3.95 3.35
    endloop
  endfacet
  facet normal 0 0 1
    outer loop
      vertex -8.95001 -12.05 3.35
      vertex -11.05 -12.05 3.35
      vertex -9.51497 -13.3009 3.35
    endloop
  endfacet
  facet normal 0 -0 1
    outer loop
      vertex -10.485 -13.3009 3.35
      vertex -9.51497 -13.3009 3.35
      vertex -11.05 -12.05 3.35
    endloop
  endfacet
  facet normal 0 0 1
    outer loop
      vertex -9.51497 -13.3009 3.35
      vertex -10.485 -13.3009 3.35
      vertex -9.56349 -13.3917 3.35
    endloop
  endfacet
  facet normal 0 0 1
    outer loop
      vertex -9.56349 -13.3917 3.35
      vertex -10.485 -13.3009 3.35
      vertex -9.62878 -13.4712 3.35
    endloop
  endfacet
  facet normal 0 0 1
    outer loop
      vertex -9.62878 -13.4712 3.35
      vertex -10.485 -13.3009 3.35
      vertex -9.70833 -13.5365 3.35
    endloop
  endfacet
  facet normal 0 0 1
    outer loop
      vertex -9.70833 -13.5365 3.35
      vertex -10.485 -13.3009 3.35
      vertex -9.7991 -13.585 3.35
    endloop
  endfacet
  facet normal 0 0 1
    outer loop
      vertex -9.7991 -13.585 3.35
      vertex -10.485 -13.3009 3.35
      vertex -9.89758 -13.6149 3.35
    endloop
  endfacet
  facet normal 0 0 1
    outer loop
      vertex -9.89758 -13.6149 3.35
      vertex -10.485 -13.3009 3.35
      vertex -10 -13.625 3.35
    endloop
  endfacet
  facet normal 0 0 1
    outer loop
      vertex -10 -13.625 3.35
      vertex -10.485 -13.3009 3.35
      vertex -10.1024 -13.6149 3.35
    endloop
  endfacet
  facet normal 0 0 1
    outer loop
      vertex -10.1024 -13.6149 3.35
      vertex -10.485 -13.3009 3.35
      vertex -10.2009 -13.585 3.35
    endloop
  endfacet
  facet normal 0 0 1
    outer loop
      vertex -10.2009 -13.585 3.35
      vertex -10.485 -13.3009 3.35
      vertex -10.2917 -13.5365 3.35
    endloop
  endfacet
  facet normal 0 0 1
    outer loop
      vertex -10.2917 -13.5365 3.35
      vertex -10.485 -13.3009 3.35
      vertex -10.3712 -13.4712 3.35
    endloop
  endfacet
  facet normal 0 0 1
    outer loop
      vertex -11.05 -12.05 3.35
      vertex -8.95001 3.95 3.35
      vertex -11.05 3.95 3.35
    endloop
  endfacet
  facet normal 0 0 1
    outer loop
      vertex -4 6.04999 3.35
      vertex -11.05 3.95 3.35
      vertex -8.95001 3.95 3.35
    endloop
  endfacet
  facet normal -0 0 1
    outer loop
      vertex -16 6.04999 3.35
      vertex -11.05 3.95 3.35
      vertex -4 6.04999 3.35
    endloop
  endfacet
  facet normal 0 0 1
    outer loop
      vertex -16 6.04999 3.35
      vertex -16 3.95 3.35
      vertex -11.05 3.95 3.35
    endloop
  endfacet
  facet normal -0 0 1
    outer loop
      vertex -16.2048 6.02982 3.35
      vertex -16 3.95 3.35
      vertex -16 6.04999 3.35
    endloop
  endfacet
  facet normal 0 0 1
    outer loop
      vertex -16.2048 6.02982 3.35
      vertex -16.2048 3.97017 3.35
      vertex -16 3.95 3.35
    endloop
  endfacet
  facet normal -0 0 1
    outer loop
      vertex -16.4018 5.97006 3.35
      vertex -16.2048 3.97017 3.35
      vertex -16.2048 6.02982 3.35
    endloop
  endfacet
  facet normal 0 0 1
    outer loop
      vertex -16.4018 5.97006 3.35
      vertex -16.4018 4.02992 3.35
      vertex -16.2048 3.97017 3.35
    endloop
  endfacet
  facet normal -0 0 1
    outer loop
      vertex -16.5833 5.87303 3.35
      vertex -16.4018 4.02992 3.35
      vertex -16.4018 5.97006 3.35
    endloop
  endfacet
  facet normal 0 0 1
    outer loop
      vertex -16.5833 5.87303 3.35
      vertex -16.5833 4.12695 3.35
      vertex -16.4018 4.02992 3.35
    endloop
  endfacet
  facet normal -0 0 1
    outer loop
      vertex -16.7424 5.74245 3.35
      vertex -16.5833 4.12695 3.35
      vertex -16.5833 5.87303 3.35
    endloop
  endfacet
  facet normal 0 0 1
    outer loop
      vertex -16.7424 5.74245 3.35
      vertex -16.7424 4.25754 3.35
      vertex -16.5833 4.12695 3.35
    endloop
  endfacet
  facet normal -0 0 1
    outer loop
      vertex -16.873 5.58334 3.35
      vertex -16.7424 4.25754 3.35
      vertex -16.7424 5.74245 3.35
    endloop
  endfacet
  facet normal 0 0 1
    outer loop
      vertex -16.873 5.58334 3.35
      vertex -16.873 4.41664 3.35
      vertex -16.7424 4.25754 3.35
    endloop
  endfacet
  facet normal -0 0 1
    outer loop
      vertex -16.9701 5.40181 3.35
      vertex -16.873 4.41664 3.35
      vertex -16.873 5.58334 3.35
    endloop
  endfacet
  facet normal 0 0 1
    outer loop
      vertex -16.9701 5.40181 3.35
      vertex -16.9701 4.59818 3.35
      vertex -16.873 4.41664 3.35
    endloop
  endfacet
  facet normal -0 0 1
    outer loop
      vertex -17.0298 5.20483 3.35
      vertex -16.9701 4.59818 3.35
      vertex -16.9701 5.40181 3.35
    endloop
  endfacet
  facet normal 0 0 1
    outer loop
      vertex -17.0298 5.20483 3.35
      vertex -17.0298 4.79515 3.35
      vertex -16.9701 4.59818 3.35
    endloop
  endfacet
  facet normal 0 -0 1
    outer loop
      vertex -17.0298 4.79515 3.35
      vertex -17.0298 5.20483 3.35
      vertex -17.05 5 3.35
    endloop
  endfacet
  facet normal 0 0 1
    outer loop
      vertex -10.3712 -13.4712 3.35
      vertex -10.485 -13.3009 3.35
      vertex -10.4365 -13.3917 3.35
    endloop
  endfacet
  facet normal 0 0 -1
    outer loop
      vertex -11.05 -12.05 -3.35
      vertex -8.95001 -12.05 -3.35
      vertex -9.51497 -13.3009 -3.35
    endloop
  endfacet
  facet normal 0 0 -1
    outer loop
      vertex -2.97018 4.79515 -3.35
      vertex -2.97018 5.20483 -3.35
      vertex -2.95001 5 -3.35
    endloop
  endfacet
  facet normal 0 0 -1
    outer loop
      vertex -3.02994 4.59818 -3.35
      vertex -2.97018 5.20483 -3.35
      vertex -2.97018 4.79515 -3.35
    endloop
  endfacet
  facet normal 0 0 -1
    outer loop
      vertex -3.02994 4.59818 -3.35
      vertex -3.02994 5.40181 -3.35
      vertex -2.97018 5.20483 -3.35
    endloop
  endfacet
  facet normal 0 0 -1
    outer loop
      vertex -3.12697 4.41664 -3.35
      vertex -3.02994 5.40181 -3.35
      vertex -3.02994 4.59818 -3.35
    endloop
  endfacet
  facet normal 0 0 -1
    outer loop
      vertex -3.12697 4.41664 -3.35
      vertex -3.12697 5.58334 -3.35
      vertex -3.02994 5.40181 -3.35
    endloop
  endfacet
  facet normal 0 0 -1
    outer loop
      vertex -3.25755 4.25754 -3.35
      vertex -3.12697 5.58334 -3.35
      vertex -3.12697 4.41664 -3.35
    endloop
  endfacet
  facet normal 0 0 -1
    outer loop
      vertex -3.25755 4.25754 -3.35
      vertex -3.25755 5.74245 -3.35
      vertex -3.12697 5.58334 -3.35
    endloop
  endfacet
  facet normal 0 0 -1
    outer loop
      vertex -3.41666 4.12695 -3.35
      vertex -3.25755 5.74245 -3.35
      vertex -3.25755 4.25754 -3.35
    endloop
  endfacet
  facet normal 0 0 -1
    outer loop
      vertex -3.41666 4.12695 -3.35
      vertex -3.41666 5.87303 -3.35
      vertex -3.25755 5.74245 -3.35
    endloop
  endfacet
  facet normal 0 0 -1
    outer loop
      vertex -3.59819 4.02992 -3.35
      vertex -3.41666 5.87303 -3.35
      vertex -3.41666 4.12695 -3.35
    endloop
  endfacet
  facet normal 0 0 -1
    outer loop
      vertex -3.59819 4.02992 -3.35
      vertex -3.59819 5.97006 -3.35
      vertex -3.41666 5.87303 -3.35
    endloop
  endfacet
  facet normal 0 0 -1
    outer loop
      vertex -3.79517 3.97017 -3.35
      vertex -3.59819 5.97006 -3.35
      vertex -3.59819 4.02992 -3.35
    endloop
  endfacet
  facet normal 0 0 -1
    outer loop
      vertex -3.79517 3.97017 -3.35
      vertex -3.79517 6.02982 -3.35
      vertex -3.59819 5.97006 -3.35
    endloop
  endfacet
  facet normal 0 0 -1
    outer loop
      vertex -4 3.95 -3.35
      vertex -3.79517 6.02982 -3.35
      vertex -3.79517 3.97017 -3.35
    endloop
  endfacet
  facet normal 0 0 -1
    outer loop
      vertex -4 3.95 -3.35
      vertex -4 6.04999 -3.35
      vertex -3.79517 6.02982 -3.35
    endloop
  endfacet
  facet normal 0 0 -1
    outer loop
      vertex -8.95001 3.95 -3.35
      vertex -4 6.04999 -3.35
      vertex -4 3.95 -3.35
    endloop
  endfacet
  facet normal 0 0 -1
    outer loop
      vertex -10.485 -13.3009 -3.35
      vertex -9.51497 -13.3009 -3.35
      vertex -9.56349 -13.3917 -3.35
    endloop
  endfacet
  facet normal 0 0 -1
    outer loop
      vertex -10.485 -13.3009 -3.35
      vertex -9.56349 -13.3917 -3.35
      vertex -9.62878 -13.4712 -3.35
    endloop
  endfacet
  facet normal 0 0 -1
    outer loop
      vertex -10.485 -13.3009 -3.35
      vertex -9.62878 -13.4712 -3.35
      vertex -9.70833 -13.5365 -3.35
    endloop
  endfacet
  facet normal 0 0 -1
    outer loop
      vertex -10.485 -13.3009 -3.35
      vertex -9.70833 -13.5365 -3.35
      vertex -9.7991 -13.585 -3.35
    endloop
  endfacet
  facet normal 0 0 -1
    outer loop
      vertex -10.485 -13.3009 -3.35
      vertex -9.7991 -13.585 -3.35
      vertex -9.89758 -13.6149 -3.35
    endloop
  endfacet
  facet normal 0 0 -1
    outer loop
      vertex -10.485 -13.3009 -3.35
      vertex -9.89758 -13.6149 -3.35
      vertex -10 -13.625 -3.35
    endloop
  endfacet
  facet normal 0 0 -1
    outer loop
      vertex -10.485 -13.3009 -3.35
      vertex -10 -13.625 -3.35
      vertex -10.1024 -13.6149 -3.35
    endloop
  endfacet
  facet normal 0 0 -1
    outer loop
      vertex -10.485 -13.3009 -3.35
      vertex -10.1024 -13.6149 -3.35
      vertex -10.2009 -13.585 -3.35
    endloop
  endfacet
  facet normal 0 0 -1
    outer loop
      vertex -10.485 -13.3009 -3.35
      vertex -10.2009 -13.585 -3.35
      vertex -10.2917 -13.5365 -3.35
    endloop
  endfacet
  facet normal 0 0 -1
    outer loop
      vertex -10.485 -13.3009 -3.35
      vertex -10.2917 -13.5365 -3.35
      vertex -10.3712 -13.4712 -3.35
    endloop
  endfacet
  facet normal 0 0 -1
    outer loop
      vertex -10.485 -13.3009 -3.35
      vertex -10.3712 -13.4712 -3.35
      vertex -10.4365 -13.3917 -3.35
    endloop
  endfacet
  facet normal 0 0 -1
    outer loop
      vertex -9.51497 -13.3009 -3.35
      vertex -10.485 -13.3009 -3.35
      vertex -11.05 -12.05 -3.35
    endloop
  endfacet
  facet normal 0 0 -1
    outer loop
      vertex -8.95001 -12.05 -3.35
      vertex -11.05 -12.05 -3.35
      vertex -8.95001 3.95 -3.35
    endloop
  endfacet
  facet normal 0 0 -1
    outer loop
      vertex -11.05 3.95 -3.35
      vertex -8.95001 3.95 -3.35
      vertex -11.05 -12.05 -3.35
    endloop
  endfacet
  facet normal 0 0 -1
    outer loop
      vertex -11.05 3.95 -3.35
      vertex -4 6.04999 -3.35
      vertex -8.95001 3.95 -3.35
    endloop
  endfacet
  facet normal 0 0 -1
    outer loop
      vertex -16 6.04999 -3.35
      vertex -11.05 3.95 -3.35
      vertex -16 3.95 -3.35
    endloop
  endfacet
  facet normal 0 0 -1
    outer loop
      vertex -11.05 3.95 -3.35
      vertex -16 6.04999 -3.35
      vertex -4 6.04999 -3.35
    endloop
  endfacet
  facet normal 0 0 -1
    outer loop
      vertex -16.2048 3.97017 -3.35
      vertex -16 6.04999 -3.35
      vertex -16 3.95 -3.35
    endloop
  endfacet
  facet normal 0 0 -1
    outer loop
      vertex -16.2048 3.97017 -3.35
      vertex -16.2048 6.02982 -3.35
      vertex -16 6.04999 -3.35
    endloop
  endfacet
  facet normal 0 0 -1
    outer loop
      vertex -16.4018 4.02992 -3.35
      vertex -16.2048 6.02982 -3.35
      vertex -16.2048 3.97017 -3.35
    endloop
  endfacet
  facet normal 0 0 -1
    outer loop
      vertex -16.4018 4.02992 -3.35
      vertex -16.4018 5.97006 -3.35
      vertex -16.2048 6.02982 -3.35
    endloop
  endfacet
  facet normal 0 0 -1
    outer loop
      vertex -16.5833 4.12695 -3.35
      vertex -16.4018 5.97006 -3.35
      vertex -16.4018 4.02992 -3.35
    endloop
  endfacet
  facet normal 0 0 -1
    outer loop
      vertex -16.5833 4.12695 -3.35
      vertex -16.5833 5.87303 -3.35
      vertex -16.4018 5.97006 -3.35
    endloop
  endfacet
  facet normal 0 0 -1
    outer loop
      vertex -16.7424 4.25754 -3.35
      vertex -16.5833 5.87303 -3.35
      vertex -16.5833 4.12695 -3.35
    endloop
  endfacet
  facet normal 0 0 -1
    outer loop
      vertex -16.7424 4.25754 -3.35
      vertex -16.7424 5.74245 -3.35
      vertex -16.5833 5.87303 -3.35
    endloop
  endfacet
  facet normal 0 0 -1
    outer loop
      vertex -16.873 4.41664 -3.35
      vertex -16.7424 5.74245 -3.35
      vertex -16.7424 4.25754 -3.35
    endloop
  endfacet
  facet normal 0 0 -1
    outer loop
      vertex -16.873 4.41664 -3.35
      vertex -16.873 5.58334 -3.35
      vertex -16.7424 5.74245 -3.35
    endloop
  endfacet
  facet normal 0 0 -1
    outer loop
      vertex -16.9701 4.59818 -3.35
      vertex -16.873 5.58334 -3.35
      vertex -16.873 4.41664 -3.35
    endloop
  endfacet
  facet normal 0 0 -1
    outer loop
      vertex -16.9701 4.59818 -3.35
      vertex -16.9701 5.40181 -3.35
      vertex -16.873 5.58334 -3.35
    endloop
  endfacet
  facet normal 0 0 -1
    outer loop
      vertex -17.0298 4.79515 -3.35
      vertex -16.9701 5.40181 -3.35
      vertex -16.9701 4.59818 -3.35
    endloop
  endfacet
  facet normal 0 0 -1
    outer loop
      vertex -17.0298 4.79515 -3.35
      vertex -17.0298 5.20483 -3.35
      vertex -16.9701 5.40181 -3.35
    endloop
  endfacet
  facet normal 0 -0 -1
    outer loop
      vertex -17.0298 5.20483 -3.35
      vertex -17.0298 4.79515 -3.35
      vertex -17.05 5 -3.35
    endloop
  endfacet
  facet normal 0.881976 -0.471294 0
    outer loop
      vertex -9.56349 -13.3917 3.35
      vertex -9.51497 -13.3009 -3.35
      vertex -9.51497 -13.3009 3.35
    endloop
  endfacet
  facet normal 0.881976 -0.471294 0
    outer loop
      vertex -9.51497 -13.3009 -3.35
      vertex -9.56349 -13.3917 3.35
      vertex -9.56349 -13.3917 -3.35
    endloop
  endfacet
  facet normal 0.772791 -0.634661 0
    outer loop
      vertex -9.62878 -13.4712 3.35
      vertex -9.56349 -13.3917 -3.35
      vertex -9.56349 -13.3917 3.35
    endloop
  endfacet
  facet normal 0.772791 -0.634661 0
    outer loop
      vertex -9.56349 -13.3917 -3.35
      vertex -9.62878 -13.4712 3.35
      vertex -9.62878 -13.4712 -3.35
    endloop
  endfacet
  facet normal 0.63448 -0.772939 0
    outer loop
      vertex -9.70833 -13.5365 -3.35
      vertex -9.62878 -13.4712 3.35
      vertex -9.70833 -13.5365 3.35
    endloop
  endfacet
  facet normal 0.63448 -0.772939 0
    outer loop
      vertex -9.62878 -13.4712 3.35
      vertex -9.70833 -13.5365 -3.35
      vertex -9.62878 -13.4712 -3.35
    endloop
  endfacet
  facet normal 0.471264 -0.881992 0
    outer loop
      vertex -9.7991 -13.585 -3.35
      vertex -9.70833 -13.5365 3.35
      vertex -9.7991 -13.585 3.35
    endloop
  endfacet
  facet normal 0.471264 -0.881992 0
    outer loop
      vertex -9.70833 -13.5365 3.35
      vertex -9.7991 -13.585 -3.35
      vertex -9.70833 -13.5365 -3.35
    endloop
  endfacet
  facet normal 0.29052 -0.956869 0
    outer loop
      vertex -9.89758 -13.6149 -3.35
      vertex -9.7991 -13.585 3.35
      vertex -9.89758 -13.6149 3.35
    endloop
  endfacet
  facet normal 0.29052 -0.956869 0
    outer loop
      vertex -9.7991 -13.585 3.35
      vertex -9.89758 -13.6149 -3.35
      vertex -9.7991 -13.585 -3.35
    endloop
  endfacet
  facet normal 0.0981375 -0.995173 0
    outer loop
      vertex -10 -13.625 -3.35
      vertex -9.89758 -13.6149 3.35
      vertex -10 -13.625 3.35
    endloop
  endfacet
  facet normal 0.0981375 -0.995173 0
    outer loop
      vertex -9.89758 -13.6149 3.35
      vertex -10 -13.625 -3.35
      vertex -9.89758 -13.6149 -3.35
    endloop
  endfacet
  facet normal -0.0981565 -0.995171 0
    outer loop
      vertex -10.1024 -13.6149 -3.35
      vertex -10 -13.625 3.35
      vertex -10.1024 -13.6149 3.35
    endloop
  endfacet
  facet normal -0.0981565 -0.995171 -0
    outer loop
      vertex -10 -13.625 3.35
      vertex -10.1024 -13.6149 -3.35
      vertex -10 -13.625 -3.35
    endloop
  endfacet
  facet normal -0.290466 -0.956885 0
    outer loop
      vertex -10.2009 -13.585 -3.35
      vertex -10.1024 -13.6149 3.35
      vertex -10.2009 -13.585 3.35
    endloop
  endfacet
  facet normal -0.290466 -0.956885 -0
    outer loop
      vertex -10.1024 -13.6149 3.35
      vertex -10.2009 -13.585 -3.35
      vertex -10.1024 -13.6149 -3.35
    endloop
  endfacet
  facet normal -0.471143 -0.882057 0
    outer loop
      vertex -10.2917 -13.5365 -3.35
      vertex -10.2009 -13.585 3.35
      vertex -10.2917 -13.5365 3.35
    endloop
  endfacet
  facet normal -0.471143 -0.882057 -0
    outer loop
      vertex -10.2009 -13.585 3.35
      vertex -10.2917 -13.5365 -3.35
      vertex -10.2009 -13.585 -3.35
    endloop
  endfacet
  facet normal -0.634719 -0.772743 0
    outer loop
      vertex -10.3712 -13.4712 -3.35
      vertex -10.2917 -13.5365 3.35
      vertex -10.3712 -13.4712 3.35
    endloop
  endfacet
  facet normal -0.634719 -0.772743 -0
    outer loop
      vertex -10.2917 -13.5365 3.35
      vertex -10.3712 -13.4712 -3.35
      vertex -10.2917 -13.5365 -3.35
    endloop
  endfacet
  facet normal -0.772743 -0.634719 0
    outer loop
      vertex -10.3712 -13.4712 -3.35
      vertex -10.4365 -13.3917 3.35
      vertex -10.4365 -13.3917 -3.35
    endloop
  endfacet
  facet normal -0.772743 -0.634719 0
    outer loop
      vertex -10.4365 -13.3917 3.35
      vertex -10.3712 -13.4712 -3.35
      vertex -10.3712 -13.4712 3.35
    endloop
  endfacet
  facet normal -0.882057 -0.471143 0
    outer loop
      vertex -10.4365 -13.3917 -3.35
      vertex -10.485 -13.3009 3.35
      vertex -10.485 -13.3009 -3.35
    endloop
  endfacet
  facet normal -0.882057 -0.471143 0
    outer loop
      vertex -10.485 -13.3009 3.35
      vertex -10.4365 -13.3917 -3.35
      vertex -10.4365 -13.3917 3.35
    endloop
  endfacet
  facet normal -0.911349 -0.411634 0
    outer loop
      vertex -10.485 -13.3009 -3.35
      vertex -11.05 -12.05 3.35
      vertex -11.05 -12.05 -3.35
    endloop
  endfacet
  facet normal -0.911349 -0.411634 0
    outer loop
      vertex -11.05 -12.05 3.35
      vertex -10.485 -13.3009 -3.35
      vertex -10.485 -13.3009 3.35
    endloop
  endfacet
  facet normal -1 0 0
    outer loop
      vertex -11.05 -12.05 -3.35
      vertex -11.05 3.95 3.35
      vertex -11.05 3.95 -3.35
    endloop
  endfacet
  facet normal -1 -0 0
    outer loop
      vertex -11.05 3.95 3.35
      vertex -11.05 -12.05 -3.35
      vertex -11.05 -12.05 3.35
    endloop
  endfacet
  facet normal 0 -1 0
    outer loop
      vertex -16 3.95 -3.35
      vertex -11.05 3.95 3.35
      vertex -16 3.95 3.35
    endloop
  endfacet
  facet normal 0 -1 -0
    outer loop
      vertex -11.05 3.95 3.35
      vertex -16 3.95 -3.35
      vertex -11.05 3.95 -3.35
    endloop
  endfacet
  facet normal -0.0980121 -0.995185 0
    outer loop
      vertex -16.2048 3.97017 -3.35
      vertex -16 3.95 3.35
      vertex -16.2048 3.97017 3.35
    endloop
  endfacet
  facet normal -0.0980121 -0.995185 -0
    outer loop
      vertex -16 3.95 3.35
      vertex -16.2048 3.97017 -3.35
      vertex -16 3.95 -3.35
    endloop
  endfacet
  facet normal -0.290243 -0.956953 0
    outer loop
      vertex -16.4018 4.02992 -3.35
      vertex -16.2048 3.97017 3.35
      vertex -16.4018 4.02992 3.35
    endloop
  endfacet
  facet normal -0.290243 -0.956953 -0
    outer loop
      vertex -16.2048 3.97017 3.35
      vertex -16.4018 4.02992 -3.35
      vertex -16.2048 3.97017 -3.35
    endloop
  endfacet
  facet normal -0.471458 -0.881888 0
    outer loop
      vertex -16.5833 4.12695 -3.35
      vertex -16.4018 4.02992 3.35
      vertex -16.5833 4.12695 3.35
    endloop
  endfacet
  facet normal -0.471458 -0.881888 -0
    outer loop
      vertex -16.4018 4.02992 3.35
      vertex -16.5833 4.12695 -3.35
      vertex -16.4018 4.02992 -3.35
    endloop
  endfacet
  facet normal -0.634451 -0.772963 0
    outer loop
      vertex -16.7424 4.25754 -3.35
      vertex -16.5833 4.12695 3.35
      vertex -16.7424 4.25754 3.35
    endloop
  endfacet
  facet normal -0.634451 -0.772963 -0
    outer loop
      vertex -16.5833 4.12695 3.35
      vertex -16.7424 4.25754 -3.35
      vertex -16.5833 4.12695 -3.35
    endloop
  endfacet
  facet normal -0.772939 -0.63448 0
    outer loop
      vertex -16.7424 4.25754 -3.35
      vertex -16.873 4.41664 3.35
      vertex -16.873 4.41664 -3.35
    endloop
  endfacet
  facet normal -0.772939 -0.63448 0
    outer loop
      vertex -16.873 4.41664 3.35
      vertex -16.7424 4.25754 -3.35
      vertex -16.7424 4.25754 3.35
    endloop
  endfacet
  facet normal -0.88179 -0.471642 0
    outer loop
      vertex -16.873 4.41664 -3.35
      vertex -16.9701 4.59818 3.35
      vertex -16.9701 4.59818 -3.35
    endloop
  endfacet
  facet normal -0.88179 -0.471642 0
    outer loop
      vertex -16.9701 4.59818 3.35
      vertex -16.873 4.41664 -3.35
      vertex -16.873 4.41664 3.35
    endloop
  endfacet
  facet normal -0.957008 -0.290061 0
    outer loop
      vertex -16.9701 4.59818 -3.35
      vertex -17.0298 4.79515 3.35
      vertex -17.0298 4.79515 -3.35
    endloop
  endfacet
  facet normal -0.957008 -0.290061 0
    outer loop
      vertex -17.0298 4.79515 3.35
      vertex -16.9701 4.59818 -3.35
      vertex -16.9701 4.59818 3.35
    endloop
  endfacet
  facet normal -0.995173 -0.0981328 0
    outer loop
      vertex -17.0298 4.79515 -3.35
      vertex -17.05 5 3.35
      vertex -17.05 5 -3.35
    endloop
  endfacet
  facet normal -0.995173 -0.0981328 0
    outer loop
      vertex -17.05 5 3.35
      vertex -17.0298 4.79515 -3.35
      vertex -17.0298 4.79515 3.35
    endloop
  endfacet
  facet normal -0.995172 0.0981423 0
    outer loop
      vertex -17.05 5 -3.35
      vertex -17.0298 5.20483 3.35
      vertex -17.0298 5.20483 -3.35
    endloop
  endfacet
  facet normal -0.995172 0.0981423 0
    outer loop
      vertex -17.0298 5.20483 3.35
      vertex -17.05 5 -3.35
      vertex -17.05 5 3.35
    endloop
  endfacet
  facet normal -0.957012 0.290048 0
    outer loop
      vertex -17.0298 5.20483 -3.35
      vertex -16.9701 5.40181 3.35
      vertex -16.9701 5.40181 -3.35
    endloop
  endfacet
  facet normal -0.957012 0.290048 0
    outer loop
      vertex -16.9701 5.40181 3.35
      vertex -17.0298 5.20483 -3.35
      vertex -17.0298 5.20483 3.35
    endloop
  endfacet
  facet normal -0.881779 0.471662 0
    outer loop
      vertex -16.9701 5.40181 -3.35
      vertex -16.873 5.58334 3.35
      vertex -16.873 5.58334 -3.35
    endloop
  endfacet
  facet normal -0.881779 0.471662 0
    outer loop
      vertex -16.873 5.58334 3.35
      vertex -16.9701 5.40181 -3.35
      vertex -16.9701 5.40181 3.35
    endloop
  endfacet
  facet normal -0.772959 0.634457 0
    outer loop
      vertex -16.873 5.58334 -3.35
      vertex -16.7424 5.74245 3.35
      vertex -16.7424 5.74245 -3.35
    endloop
  endfacet
  facet normal -0.772959 0.634457 0
    outer loop
      vertex -16.7424 5.74245 3.35
      vertex -16.873 5.58334 -3.35
      vertex -16.873 5.58334 3.35
    endloop
  endfacet
  facet normal -0.634422 0.772987 0
    outer loop
      vertex -16.5833 5.87303 -3.35
      vertex -16.7424 5.74245 3.35
      vertex -16.5833 5.87303 3.35
    endloop
  endfacet
  facet normal -0.634422 0.772987 0
    outer loop
      vertex -16.7424 5.74245 3.35
      vertex -16.5833 5.87303 -3.35
      vertex -16.7424 5.74245 -3.35
    endloop
  endfacet
  facet normal -0.471458 0.881888 0
    outer loop
      vertex -16.4018 5.97006 -3.35
      vertex -16.5833 5.87303 3.35
      vertex -16.4018 5.97006 3.35
    endloop
  endfacet
  facet normal -0.471458 0.881888 0
    outer loop
      vertex -16.5833 5.87303 3.35
      vertex -16.4018 5.97006 -3.35
      vertex -16.5833 5.87303 -3.35
    endloop
  endfacet
  facet normal -0.290288 0.956939 0
    outer loop
      vertex -16.2048 6.02982 -3.35
      vertex -16.4018 5.97006 3.35
      vertex -16.2048 6.02982 3.35
    endloop
  endfacet
  facet normal -0.290288 0.956939 0
    outer loop
      vertex -16.4018 5.97006 3.35
      vertex -16.2048 6.02982 -3.35
      vertex -16.4018 5.97006 -3.35
    endloop
  endfacet
  facet normal -0.0980121 0.995185 0
    outer loop
      vertex -16 6.04999 -3.35
      vertex -16.2048 6.02982 3.35
      vertex -16 6.04999 3.35
    endloop
  endfacet
  facet normal -0.0980121 0.995185 0
    outer loop
      vertex -16.2048 6.02982 3.35
      vertex -16 6.04999 -3.35
      vertex -16.2048 6.02982 -3.35
    endloop
  endfacet
  facet normal 0 1 -0
    outer loop
      vertex -4 6.04999 -3.35
      vertex -16 6.04999 3.35
      vertex -4 6.04999 3.35
    endloop
  endfacet
  facet normal 0 1 0
    outer loop
      vertex -16 6.04999 3.35
      vertex -4 6.04999 -3.35
      vertex -16 6.04999 -3.35
    endloop
  endfacet
  facet normal 0.0979979 0.995187 -0
    outer loop
      vertex -3.79517 6.02982 -3.35
      vertex -4 6.04999 3.35
      vertex -3.79517 6.02982 3.35
    endloop
  endfacet
  facet normal 0.0979979 0.995187 0
    outer loop
      vertex -4 6.04999 3.35
      vertex -3.79517 6.02982 -3.35
      vertex -4 6.04999 -3.35
    endloop
  endfacet
  facet normal 0.290315 0.956931 -0
    outer loop
      vertex -3.59819 5.97006 -3.35
      vertex -3.79517 6.02982 3.35
      vertex -3.59819 5.97006 3.35
    endloop
  endfacet
  facet normal 0.290315 0.956931 0
    outer loop
      vertex -3.79517 6.02982 3.35
      vertex -3.59819 5.97006 -3.35
      vertex -3.79517 6.02982 -3.35
    endloop
  endfacet
  facet normal 0.471397 0.881921 -0
    outer loop
      vertex -3.41666 5.87303 -3.35
      vertex -3.59819 5.97006 3.35
      vertex -3.41666 5.87303 3.35
    endloop
  endfacet
  facet normal 0.471397 0.881921 0
    outer loop
      vertex -3.59819 5.97006 3.35
      vertex -3.41666 5.87303 -3.35
      vertex -3.59819 5.97006 -3.35
    endloop
  endfacet
  facet normal 0.634399 0.773006 -0
    outer loop
      vertex -3.25755 5.74245 -3.35
      vertex -3.41666 5.87303 3.35
      vertex -3.25755 5.74245 3.35
    endloop
  endfacet
  facet normal 0.634399 0.773006 0
    outer loop
      vertex -3.41666 5.87303 3.35
      vertex -3.25755 5.74245 -3.35
      vertex -3.41666 5.87303 -3.35
    endloop
  endfacet
  facet normal 0.773006 0.634399 0
    outer loop
      vertex -3.12697 5.58334 3.35
      vertex -3.25755 5.74245 -3.35
      vertex -3.25755 5.74245 3.35
    endloop
  endfacet
  facet normal 0.773006 0.634399 0
    outer loop
      vertex -3.25755 5.74245 -3.35
      vertex -3.12697 5.58334 3.35
      vertex -3.12697 5.58334 -3.35
    endloop
  endfacet
  facet normal 0.881921 0.471397 0
    outer loop
      vertex -3.02994 5.40181 3.35
      vertex -3.12697 5.58334 -3.35
      vertex -3.12697 5.58334 3.35
    endloop
  endfacet
  facet normal 0.881921 0.471397 0
    outer loop
      vertex -3.12697 5.58334 -3.35
      vertex -3.02994 5.40181 3.35
      vertex -3.02994 5.40181 -3.35
    endloop
  endfacet
  facet normal 0.956931 0.290315 0
    outer loop
      vertex -2.97018 5.20483 3.35
      vertex -3.02994 5.40181 -3.35
      vertex -3.02994 5.40181 3.35
    endloop
  endfacet
  facet normal 0.956931 0.290315 0
    outer loop
      vertex -3.02994 5.40181 -3.35
      vertex -2.97018 5.20483 3.35
      vertex -2.97018 5.20483 -3.35
    endloop
  endfacet
  facet normal 0.995187 0.0979979 0
    outer loop
      vertex -2.95001 5 3.35
      vertex -2.97018 5.20483 -3.35
      vertex -2.97018 5.20483 3.35
    endloop
  endfacet
  facet normal 0.995187 0.0979979 0
    outer loop
      vertex -2.97018 5.20483 -3.35
      vertex -2.95001 5 3.35
      vertex -2.95001 5 -3.35
    endloop
  endfacet
  facet normal 0.995188 -0.0979884 0
    outer loop
      vertex -2.97018 4.79515 3.35
      vertex -2.95001 5 -3.35
      vertex -2.95001 5 3.35
    endloop
  endfacet
  facet normal 0.995188 -0.0979884 0
    outer loop
      vertex -2.95001 5 -3.35
      vertex -2.97018 4.79515 3.35
      vertex -2.97018 4.79515 -3.35
    endloop
  endfacet
  facet normal 0.956927 -0.290328 0
    outer loop
      vertex -3.02994 4.59818 3.35
      vertex -2.97018 4.79515 -3.35
      vertex -2.97018 4.79515 3.35
    endloop
  endfacet
  facet normal 0.956927 -0.290328 0
    outer loop
      vertex -2.97018 4.79515 -3.35
      vertex -3.02994 4.59818 3.35
      vertex -3.02994 4.59818 -3.35
    endloop
  endfacet
  facet normal 0.881932 -0.471377 0
    outer loop
      vertex -3.12697 4.41664 3.35
      vertex -3.02994 4.59818 -3.35
      vertex -3.02994 4.59818 3.35
    endloop
  endfacet
  facet normal 0.881932 -0.471377 0
    outer loop
      vertex -3.02994 4.59818 -3.35
      vertex -3.12697 4.41664 3.35
      vertex -3.12697 4.41664 -3.35
    endloop
  endfacet
  facet normal 0.772987 -0.634422 0
    outer loop
      vertex -3.25755 4.25754 3.35
      vertex -3.12697 4.41664 -3.35
      vertex -3.12697 4.41664 3.35
    endloop
  endfacet
  facet normal 0.772987 -0.634422 0
    outer loop
      vertex -3.12697 4.41664 -3.35
      vertex -3.25755 4.25754 3.35
      vertex -3.25755 4.25754 -3.35
    endloop
  endfacet
  facet normal 0.634428 -0.772982 0
    outer loop
      vertex -3.41666 4.12695 -3.35
      vertex -3.25755 4.25754 3.35
      vertex -3.41666 4.12695 3.35
    endloop
  endfacet
  facet normal 0.634428 -0.772982 0
    outer loop
      vertex -3.25755 4.25754 3.35
      vertex -3.41666 4.12695 -3.35
      vertex -3.25755 4.25754 -3.35
    endloop
  endfacet
  facet normal 0.471397 -0.881921 0
    outer loop
      vertex -3.59819 4.02992 -3.35
      vertex -3.41666 4.12695 3.35
      vertex -3.59819 4.02992 3.35
    endloop
  endfacet
  facet normal 0.471397 -0.881921 0
    outer loop
      vertex -3.41666 4.12695 3.35
      vertex -3.59819 4.02992 -3.35
      vertex -3.41666 4.12695 -3.35
    endloop
  endfacet
  facet normal 0.29027 -0.956945 0
    outer loop
      vertex -3.79517 3.97017 -3.35
      vertex -3.59819 4.02992 3.35
      vertex -3.79517 3.97017 3.35
    endloop
  endfacet
  facet normal 0.29027 -0.956945 0
    outer loop
      vertex -3.59819 4.02992 3.35
      vertex -3.79517 3.97017 -3.35
      vertex -3.59819 4.02992 -3.35
    endloop
  endfacet
  facet normal 0.0979979 -0.995187 0
    outer loop
      vertex -4 3.95 -3.35
      vertex -3.79517 3.97017 3.35
      vertex -4 3.95 3.35
    endloop
  endfacet
  facet normal 0.0979979 -0.995187 0
    outer loop
      vertex -3.79517 3.97017 3.35
      vertex -4 3.95 -3.35
      vertex -3.79517 3.97017 -3.35
    endloop
  endfacet
  facet normal 0 -1 0
    outer loop
      vertex -8.95001 3.95 -3.35
      vertex -4 3.95 3.35
      vertex -8.95001 3.95 3.35
    endloop
  endfacet
  facet normal 0 -1 -0
    outer loop
      vertex -4 3.95 3.35
      vertex -8.95001 3.95 -3.35
      vertex -4 3.95 -3.35
    endloop
  endfacet
  facet normal 1 -0 0
    outer loop
      vertex -8.95001 -12.05 3.35
      vertex -8.95001 3.95 -3.35
      vertex -8.95001 3.95 3.35
    endloop
  endfacet
  facet normal 1 0 0
    outer loop
      vertex -8.95001 3.95 -3.35
      vertex -8.95001 -12.05 3.35
      vertex -8.95001 -12.05 -3.35
    endloop
  endfacet
  facet normal 0.91136 -0.411609 0
    outer loop
      vertex -9.51497 -13.3009 3.35
      vertex -8.95001 -12.05 -3.35
      vertex -8.95001 -12.05 3.35
    endloop
  endfacet
  facet normal 0.91136 -0.411609 0
    outer loop
      vertex -8.95001 -12.05 -3.35
      vertex -9.51497 -13.3009 3.35
      vertex -9.51497 -13.3009 -3.35
    endloop
  endfacet
endsolid OpenSCAD_Model
