solid OpenSCAD_Model
  facet normal -0 0 1
    outer loop
      vertex -5.04999 7.1375 3.35
      vertex -2.95001 1 3.35
      vertex -2.95001 7.1375 3.35
    endloop
  endfacet
  facet normal 0 0 1
    outer loop
      vertex -2.95001 1 3.35
      vertex -5.04999 7.1375 3.35
      vertex -2.95001 -1 3.35
    endloop
  endfacet
  facet normal 0 0 1
    outer loop
      vertex -5.04999 7.1375 3.35
      vertex -2.95001 7.1375 3.35
      vertex -2.97018 7.34233 3.35
    endloop
  endfacet
  facet normal 0 0 1
    outer loop
      vertex -5.04999 -7.1375 3.35
      vertex -2.95001 -1 3.35
      vertex -5.04999 7.1375 3.35
    endloop
  endfacet
  facet normal 0 0 1
    outer loop
      vertex -5.04999 7.1375 3.35
      vertex -2.97018 7.34233 3.35
      vertex -3.02992 7.53931 3.35
    endloop
  endfacet
  facet normal 0 0 1
    outer loop
      vertex -2.95001 -1 3.35
      vertex -5.04999 -7.1375 3.35
      vertex -2.95001 -7.1375 3.35
    endloop
  endfacet
  facet normal 0 0 1
    outer loop
      vertex -5.04999 7.1375 3.35
      vertex -3.02992 7.53931 3.35
      vertex -3.12695 7.72084 3.35
    endloop
  endfacet
  facet normal 0 0 1
    outer loop
      vertex -2.95001 -7.1375 3.35
      vertex -5.04999 -7.1375 3.35
      vertex -2.97018 -7.34233 3.35
    endloop
  endfacet
  facet normal 0 0 1
    outer loop
      vertex -5.04999 7.1375 3.35
      vertex -3.12695 7.72084 3.35
      vertex -3.25754 7.87996 3.35
    endloop
  endfacet
  facet normal 0 0 1
    outer loop
      vertex -2.97018 -7.34233 3.35
      vertex -5.04999 -7.1375 3.35
      vertex -3.02992 -7.53931 3.35
    endloop
  endfacet
  facet normal 0 0 1
    outer loop
      vertex -5.04999 7.1375 3.35
      vertex -3.25754 7.87996 3.35
      vertex -3.41664 8.01053 3.35
    endloop
  endfacet
  facet normal 0 0 1
    outer loop
      vertex -3.02992 -7.53931 3.35
      vertex -5.04999 -7.1375 3.35
      vertex -3.12695 -7.72084 3.35
    endloop
  endfacet
  facet normal 0 0 1
    outer loop
      vertex -5.04999 7.1375 3.35
      vertex -3.41664 8.01053 3.35
      vertex -3.59818 8.10756 3.35
    endloop
  endfacet
  facet normal 0 0 1
    outer loop
      vertex -3.12695 -7.72084 3.35
      vertex -5.04999 -7.1375 3.35
      vertex -3.25754 -7.87996 3.35
    endloop
  endfacet
  facet normal 0 0 1
    outer loop
      vertex -5.04999 7.1375 3.35
      vertex -3.59818 8.10756 3.35
      vertex -3.79515 8.16731 3.35
    endloop
  endfacet
  facet normal 0 0 1
    outer loop
      vertex -3.25754 -7.87996 3.35
      vertex -5.04999 -7.1375 3.35
      vertex -3.41664 -8.01053 3.35
    endloop
  endfacet
  facet normal 0 0 1
    outer loop
      vertex -5.04999 7.1375 3.35
      vertex -3.79515 8.16731 3.35
      vertex -4 8.1875 3.35
    endloop
  endfacet
  facet normal 0 0 1
    outer loop
      vertex -3.41664 -8.01053 3.35
      vertex -5.04999 -7.1375 3.35
      vertex -3.59818 -8.10756 3.35
    endloop
  endfacet
  facet normal 0 0 1
    outer loop
      vertex -5.04999 7.1375 3.35
      vertex -4 8.1875 3.35
      vertex -4.20483 8.16731 3.35
    endloop
  endfacet
  facet normal 0 0 1
    outer loop
      vertex -3.59818 -8.10756 3.35
      vertex -5.04999 -7.1375 3.35
      vertex -3.79515 -8.16731 3.35
    endloop
  endfacet
  facet normal 0 0 1
    outer loop
      vertex -5.04999 7.1375 3.35
      vertex -4.20483 8.16731 3.35
      vertex -4.40181 8.10756 3.35
    endloop
  endfacet
  facet normal 0 0 1
    outer loop
      vertex -3.79515 -8.16731 3.35
      vertex -5.04999 -7.1375 3.35
      vertex -4 -8.1875 3.35
    endloop
  endfacet
  facet normal 0 0 1
    outer loop
      vertex -5.04999 7.1375 3.35
      vertex -4.40181 8.10756 3.35
      vertex -4.58334 8.01053 3.35
    endloop
  endfacet
  facet normal 0 0 1
    outer loop
      vertex -4 -8.1875 3.35
      vertex -5.04999 -7.1375 3.35
      vertex -4.20483 -8.16731 3.35
    endloop
  endfacet
  facet normal 0 0 1
    outer loop
      vertex -5.04999 7.1375 3.35
      vertex -4.58334 8.01053 3.35
      vertex -4.74245 7.87996 3.35
    endloop
  endfacet
  facet normal 0 0 1
    outer loop
      vertex -4.20483 -8.16731 3.35
      vertex -5.04999 -7.1375 3.35
      vertex -4.40181 -8.10756 3.35
    endloop
  endfacet
  facet normal 0 0 1
    outer loop
      vertex -5.04999 7.1375 3.35
      vertex -4.74245 7.87996 3.35
      vertex -4.87303 7.72084 3.35
    endloop
  endfacet
  facet normal 0 0 1
    outer loop
      vertex -4.40181 -8.10756 3.35
      vertex -5.04999 -7.1375 3.35
      vertex -4.58334 -8.01053 3.35
    endloop
  endfacet
  facet normal 0 0 1
    outer loop
      vertex -5.04999 7.1375 3.35
      vertex -4.87303 7.72084 3.35
      vertex -4.97006 7.53931 3.35
    endloop
  endfacet
  facet normal 0 0 1
    outer loop
      vertex -4.58334 -8.01053 3.35
      vertex -5.04999 -7.1375 3.35
      vertex -4.74245 -7.87996 3.35
    endloop
  endfacet
  facet normal 0 0 1
    outer loop
      vertex -5.04999 7.1375 3.35
      vertex -4.97006 7.53931 3.35
      vertex -5.02982 7.34233 3.35
    endloop
  endfacet
  facet normal 0 0 1
    outer loop
      vertex -4.74245 -7.87996 3.35
      vertex -5.04999 -7.1375 3.35
      vertex -4.87303 -7.72084 3.35
    endloop
  endfacet
  facet normal 0 0 1
    outer loop
      vertex -4.87303 -7.72084 3.35
      vertex -5.04999 -7.1375 3.35
      vertex -4.97006 -7.53931 3.35
    endloop
  endfacet
  facet normal 0 0 1
    outer loop
      vertex -4.97006 -7.53931 3.35
      vertex -5.04999 -7.1375 3.35
      vertex -5.02982 -7.34233 3.35
    endloop
  endfacet
  facet normal 0 0 1
    outer loop
      vertex -0.509613 0.0975342 3.35
      vertex -0.509613 -0.0975342 3.35
      vertex -0.5 0 3.35
    endloop
  endfacet
  facet normal 0 0 1
    outer loop
      vertex -0.538071 0.19133 3.35
      vertex -0.509613 -0.0975342 3.35
      vertex -0.509613 0.0975342 3.35
    endloop
  endfacet
  facet normal 0 0 1
    outer loop
      vertex -0.538071 0.19133 3.35
      vertex -0.538071 -0.19133 3.35
      vertex -0.509613 -0.0975342 3.35
    endloop
  endfacet
  facet normal 0 0 1
    outer loop
      vertex -0.584274 0.277771 3.35
      vertex -0.538071 -0.19133 3.35
      vertex -0.538071 0.19133 3.35
    endloop
  endfacet
  facet normal 0 0 1
    outer loop
      vertex -0.584274 0.277771 3.35
      vertex -0.584274 -0.277771 3.35
      vertex -0.538071 -0.19133 3.35
    endloop
  endfacet
  facet normal 0 0 1
    outer loop
      vertex -0.646454 0.353546 3.35
      vertex -0.584274 -0.277771 3.35
      vertex -0.584274 0.277771 3.35
    endloop
  endfacet
  facet normal 0 0 1
    outer loop
      vertex -0.646454 0.353546 3.35
      vertex -0.646454 -0.353546 3.35
      vertex -0.584274 -0.277771 3.35
    endloop
  endfacet
  facet normal 0 0 1
    outer loop
      vertex -0.722229 0.415726 3.35
      vertex -0.646454 -0.353546 3.35
      vertex -0.646454 0.353546 3.35
    endloop
  endfacet
  facet normal 0 0 1
    outer loop
      vertex -0.722229 0.415726 3.35
      vertex -0.722229 -0.415726 3.35
      vertex -0.646454 -0.353546 3.35
    endloop
  endfacet
  facet normal 0 0 1
    outer loop
      vertex -0.80867 0.461929 3.35
      vertex -0.722229 -0.415726 3.35
      vertex -0.722229 0.415726 3.35
    endloop
  endfacet
  facet normal 0 0 1
    outer loop
      vertex -0.80867 0.461929 3.35
      vertex -0.80867 -0.461929 3.35
      vertex -0.722229 -0.415726 3.35
    endloop
  endfacet
  facet normal 0 0 1
    outer loop
      vertex -2 1 3.35
      vertex -0.80867 -0.461929 3.35
      vertex -0.80867 0.461929 3.35
    endloop
  endfacet
  facet normal 0 0 1
    outer loop
      vertex -2 1 3.35
      vertex -2 -1 3.35
      vertex -0.80867 -0.461929 3.35
    endloop
  endfacet
  facet normal -0 0 1
    outer loop
      vertex -2.95001 1 3.35
      vertex -2 -1 3.35
      vertex -2 1 3.35
    endloop
  endfacet
  facet normal 0 0 1
    outer loop
      vertex -2 -1 3.35
      vertex -2.95001 1 3.35
      vertex -2.95001 -1 3.35
    endloop
  endfacet
  facet normal 0 0 -1
    outer loop
      vertex -5.04999 -7.1375 -3.35
      vertex -2.95001 -1 -3.35
      vertex -2.95001 -7.1375 -3.35
    endloop
  endfacet
  facet normal -0 0 -1
    outer loop
      vertex -2.95001 -1 -3.35
      vertex -5.04999 -7.1375 -3.35
      vertex -2.95001 1 -3.35
    endloop
  endfacet
  facet normal 0 0 -1
    outer loop
      vertex -5.04999 -7.1375 -3.35
      vertex -2.95001 -7.1375 -3.35
      vertex -2.97018 -7.34233 -3.35
    endloop
  endfacet
  facet normal 0 0 -1
    outer loop
      vertex -5.04999 7.1375 -3.35
      vertex -2.95001 1 -3.35
      vertex -5.04999 -7.1375 -3.35
    endloop
  endfacet
  facet normal 0 0 -1
    outer loop
      vertex -5.04999 -7.1375 -3.35
      vertex -2.97018 -7.34233 -3.35
      vertex -3.02992 -7.53931 -3.35
    endloop
  endfacet
  facet normal 0 0 -1
    outer loop
      vertex -2.95001 1 -3.35
      vertex -5.04999 7.1375 -3.35
      vertex -2.95001 7.1375 -3.35
    endloop
  endfacet
  facet normal 0 0 -1
    outer loop
      vertex -5.04999 -7.1375 -3.35
      vertex -3.02992 -7.53931 -3.35
      vertex -3.12695 -7.72084 -3.35
    endloop
  endfacet
  facet normal 0 0 -1
    outer loop
      vertex -2.95001 7.1375 -3.35
      vertex -5.04999 7.1375 -3.35
      vertex -2.97018 7.34233 -3.35
    endloop
  endfacet
  facet normal 0 0 -1
    outer loop
      vertex -5.04999 -7.1375 -3.35
      vertex -3.12695 -7.72084 -3.35
      vertex -3.25754 -7.87996 -3.35
    endloop
  endfacet
  facet normal -0 0 -1
    outer loop
      vertex -2.97018 7.34233 -3.35
      vertex -5.04999 7.1375 -3.35
      vertex -3.02992 7.53931 -3.35
    endloop
  endfacet
  facet normal 0 0 -1
    outer loop
      vertex -5.04999 -7.1375 -3.35
      vertex -3.25754 -7.87996 -3.35
      vertex -3.41664 -8.01053 -3.35
    endloop
  endfacet
  facet normal -0 0 -1
    outer loop
      vertex -3.02992 7.53931 -3.35
      vertex -5.04999 7.1375 -3.35
      vertex -3.12695 7.72084 -3.35
    endloop
  endfacet
  facet normal 0 0 -1
    outer loop
      vertex -5.04999 -7.1375 -3.35
      vertex -3.41664 -8.01053 -3.35
      vertex -3.59818 -8.10756 -3.35
    endloop
  endfacet
  facet normal -0 0 -1
    outer loop
      vertex -3.12695 7.72084 -3.35
      vertex -5.04999 7.1375 -3.35
      vertex -3.25754 7.87996 -3.35
    endloop
  endfacet
  facet normal 0 0 -1
    outer loop
      vertex -5.04999 -7.1375 -3.35
      vertex -3.59818 -8.10756 -3.35
      vertex -3.79515 -8.16731 -3.35
    endloop
  endfacet
  facet normal -0 0 -1
    outer loop
      vertex -3.25754 7.87996 -3.35
      vertex -5.04999 7.1375 -3.35
      vertex -3.41664 8.01053 -3.35
    endloop
  endfacet
  facet normal 0 0 -1
    outer loop
      vertex -5.04999 -7.1375 -3.35
      vertex -3.79515 -8.16731 -3.35
      vertex -4 -8.1875 -3.35
    endloop
  endfacet
  facet normal -0 0 -1
    outer loop
      vertex -3.41664 8.01053 -3.35
      vertex -5.04999 7.1375 -3.35
      vertex -3.59818 8.10756 -3.35
    endloop
  endfacet
  facet normal 0 0 -1
    outer loop
      vertex -5.04999 -7.1375 -3.35
      vertex -4 -8.1875 -3.35
      vertex -4.20483 -8.16731 -3.35
    endloop
  endfacet
  facet normal -0 0 -1
    outer loop
      vertex -3.59818 8.10756 -3.35
      vertex -5.04999 7.1375 -3.35
      vertex -3.79515 8.16731 -3.35
    endloop
  endfacet
  facet normal 0 0 -1
    outer loop
      vertex -5.04999 -7.1375 -3.35
      vertex -4.20483 -8.16731 -3.35
      vertex -4.40181 -8.10756 -3.35
    endloop
  endfacet
  facet normal -0 0 -1
    outer loop
      vertex -3.79515 8.16731 -3.35
      vertex -5.04999 7.1375 -3.35
      vertex -4 8.1875 -3.35
    endloop
  endfacet
  facet normal 0 0 -1
    outer loop
      vertex -5.04999 -7.1375 -3.35
      vertex -4.40181 -8.10756 -3.35
      vertex -4.58334 -8.01053 -3.35
    endloop
  endfacet
  facet normal 0 0 -1
    outer loop
      vertex -4 8.1875 -3.35
      vertex -5.04999 7.1375 -3.35
      vertex -4.20483 8.16731 -3.35
    endloop
  endfacet
  facet normal 0 0 -1
    outer loop
      vertex -5.04999 -7.1375 -3.35
      vertex -4.58334 -8.01053 -3.35
      vertex -4.74245 -7.87996 -3.35
    endloop
  endfacet
  facet normal 0 0 -1
    outer loop
      vertex -4.20483 8.16731 -3.35
      vertex -5.04999 7.1375 -3.35
      vertex -4.40181 8.10756 -3.35
    endloop
  endfacet
  facet normal 0 0 -1
    outer loop
      vertex -5.04999 -7.1375 -3.35
      vertex -4.74245 -7.87996 -3.35
      vertex -4.87303 -7.72084 -3.35
    endloop
  endfacet
  facet normal 0 0 -1
    outer loop
      vertex -4.40181 8.10756 -3.35
      vertex -5.04999 7.1375 -3.35
      vertex -4.58334 8.01053 -3.35
    endloop
  endfacet
  facet normal 0 0 -1
    outer loop
      vertex -5.04999 -7.1375 -3.35
      vertex -4.87303 -7.72084 -3.35
      vertex -4.97006 -7.53931 -3.35
    endloop
  endfacet
  facet normal 0 0 -1
    outer loop
      vertex -4.58334 8.01053 -3.35
      vertex -5.04999 7.1375 -3.35
      vertex -4.74245 7.87996 -3.35
    endloop
  endfacet
  facet normal 0 0 -1
    outer loop
      vertex -5.04999 -7.1375 -3.35
      vertex -4.97006 -7.53931 -3.35
      vertex -5.02982 -7.34233 -3.35
    endloop
  endfacet
  facet normal 0 0 -1
    outer loop
      vertex -4.74245 7.87996 -3.35
      vertex -5.04999 7.1375 -3.35
      vertex -4.87303 7.72084 -3.35
    endloop
  endfacet
  facet normal 0 0 -1
    outer loop
      vertex -4.87303 7.72084 -3.35
      vertex -5.04999 7.1375 -3.35
      vertex -4.97006 7.53931 -3.35
    endloop
  endfacet
  facet normal 0 0 -1
    outer loop
      vertex -4.97006 7.53931 -3.35
      vertex -5.04999 7.1375 -3.35
      vertex -5.02982 7.34233 -3.35
    endloop
  endfacet
  facet normal 0 0 -1
    outer loop
      vertex -0.509613 -0.0975342 -3.35
      vertex -0.509613 0.0975342 -3.35
      vertex -0.5 0 -3.35
    endloop
  endfacet
  facet normal 0 0 -1
    outer loop
      vertex -0.538071 -0.19133 -3.35
      vertex -0.509613 0.0975342 -3.35
      vertex -0.509613 -0.0975342 -3.35
    endloop
  endfacet
  facet normal 0 0 -1
    outer loop
      vertex -0.538071 -0.19133 -3.35
      vertex -0.538071 0.19133 -3.35
      vertex -0.509613 0.0975342 -3.35
    endloop
  endfacet
  facet normal 0 0 -1
    outer loop
      vertex -0.584274 -0.277771 -3.35
      vertex -0.538071 0.19133 -3.35
      vertex -0.538071 -0.19133 -3.35
    endloop
  endfacet
  facet normal 0 0 -1
    outer loop
      vertex -0.584274 -0.277771 -3.35
      vertex -0.584274 0.277771 -3.35
      vertex -0.538071 0.19133 -3.35
    endloop
  endfacet
  facet normal 0 0 -1
    outer loop
      vertex -0.646454 -0.353546 -3.35
      vertex -0.584274 0.277771 -3.35
      vertex -0.584274 -0.277771 -3.35
    endloop
  endfacet
  facet normal 0 0 -1
    outer loop
      vertex -0.646454 -0.353546 -3.35
      vertex -0.646454 0.353546 -3.35
      vertex -0.584274 0.277771 -3.35
    endloop
  endfacet
  facet normal 0 0 -1
    outer loop
      vertex -0.722229 -0.415726 -3.35
      vertex -0.646454 0.353546 -3.35
      vertex -0.646454 -0.353546 -3.35
    endloop
  endfacet
  facet normal 0 0 -1
    outer loop
      vertex -0.722229 -0.415726 -3.35
      vertex -0.722229 0.415726 -3.35
      vertex -0.646454 0.353546 -3.35
    endloop
  endfacet
  facet normal 0 0 -1
    outer loop
      vertex -0.80867 -0.461929 -3.35
      vertex -0.722229 0.415726 -3.35
      vertex -0.722229 -0.415726 -3.35
    endloop
  endfacet
  facet normal 0 0 -1
    outer loop
      vertex -0.80867 -0.461929 -3.35
      vertex -0.80867 0.461929 -3.35
      vertex -0.722229 0.415726 -3.35
    endloop
  endfacet
  facet normal 0 0 -1
    outer loop
      vertex -2 -1 -3.35
      vertex -0.80867 0.461929 -3.35
      vertex -0.80867 -0.461929 -3.35
    endloop
  endfacet
  facet normal 0 0 -1
    outer loop
      vertex -2 -1 -3.35
      vertex -2 1 -3.35
      vertex -0.80867 0.461929 -3.35
    endloop
  endfacet
  facet normal 0 0 -1
    outer loop
      vertex -2.95001 -1 -3.35
      vertex -2 1 -3.35
      vertex -2 -1 -3.35
    endloop
  endfacet
  facet normal -0 0 -1
    outer loop
      vertex -2 1 -3.35
      vertex -2.95001 -1 -3.35
      vertex -2.95001 1 -3.35
    endloop
  endfacet
  facet normal -0.956931 0.290315 0
    outer loop
      vertex -5.02982 7.34233 -3.35
      vertex -4.97006 7.53931 3.35
      vertex -4.97006 7.53931 -3.35
    endloop
  endfacet
  facet normal -0.956931 0.290315 0
    outer loop
      vertex -4.97006 7.53931 3.35
      vertex -5.02982 7.34233 -3.35
      vertex -5.02982 7.34233 3.35
    endloop
  endfacet
  facet normal -0.881921 0.471397 0
    outer loop
      vertex -4.97006 7.53931 -3.35
      vertex -4.87303 7.72084 3.35
      vertex -4.87303 7.72084 -3.35
    endloop
  endfacet
  facet normal -0.881921 0.471397 0
    outer loop
      vertex -4.87303 7.72084 3.35
      vertex -4.97006 7.53931 -3.35
      vertex -4.97006 7.53931 3.35
    endloop
  endfacet
  facet normal -0.773026 0.634375 0
    outer loop
      vertex -4.87303 7.72084 -3.35
      vertex -4.74245 7.87996 3.35
      vertex -4.74245 7.87996 -3.35
    endloop
  endfacet
  facet normal -0.773026 0.634375 0
    outer loop
      vertex -4.74245 7.87996 3.35
      vertex -4.87303 7.72084 -3.35
      vertex -4.87303 7.72084 3.35
    endloop
  endfacet
  facet normal -0.634369 0.77303 0
    outer loop
      vertex -4.58334 8.01053 -3.35
      vertex -4.74245 7.87996 3.35
      vertex -4.58334 8.01053 3.35
    endloop
  endfacet
  facet normal -0.634369 0.77303 0
    outer loop
      vertex -4.74245 7.87996 3.35
      vertex -4.58334 8.01053 -3.35
      vertex -4.74245 7.87996 -3.35
    endloop
  endfacet
  facet normal -0.471397 0.881921 0
    outer loop
      vertex -4.40181 8.10756 -3.35
      vertex -4.58334 8.01053 3.35
      vertex -4.40181 8.10756 3.35
    endloop
  endfacet
  facet normal -0.471397 0.881921 0
    outer loop
      vertex -4.58334 8.01053 3.35
      vertex -4.40181 8.10756 -3.35
      vertex -4.58334 8.01053 -3.35
    endloop
  endfacet
  facet normal -0.29027 0.956945 0
    outer loop
      vertex -4.20483 8.16731 -3.35
      vertex -4.40181 8.10756 3.35
      vertex -4.20483 8.16731 3.35
    endloop
  endfacet
  facet normal -0.29027 0.956945 0
    outer loop
      vertex -4.40181 8.10756 3.35
      vertex -4.20483 8.16731 -3.35
      vertex -4.40181 8.10756 -3.35
    endloop
  endfacet
  facet normal -0.0980942 0.995177 0
    outer loop
      vertex -4 8.1875 -3.35
      vertex -4.20483 8.16731 3.35
      vertex -4 8.1875 3.35
    endloop
  endfacet
  facet normal -0.0980942 0.995177 0
    outer loop
      vertex -4.20483 8.16731 3.35
      vertex -4 8.1875 -3.35
      vertex -4.20483 8.16731 -3.35
    endloop
  endfacet
  facet normal 0.0980847 0.995178 -0
    outer loop
      vertex -3.79515 8.16731 -3.35
      vertex -4 8.1875 3.35
      vertex -3.79515 8.16731 3.35
    endloop
  endfacet
  facet normal 0.0980847 0.995178 0
    outer loop
      vertex -4 8.1875 3.35
      vertex -3.79515 8.16731 -3.35
      vertex -4 8.1875 -3.35
    endloop
  endfacet
  facet normal 0.290284 0.956941 -0
    outer loop
      vertex -3.59818 8.10756 -3.35
      vertex -3.79515 8.16731 3.35
      vertex -3.59818 8.10756 3.35
    endloop
  endfacet
  facet normal 0.290284 0.956941 0
    outer loop
      vertex -3.79515 8.16731 3.35
      vertex -3.59818 8.10756 -3.35
      vertex -3.79515 8.16731 -3.35
    endloop
  endfacet
  facet normal 0.471377 0.881932 -0
    outer loop
      vertex -3.41664 8.01053 -3.35
      vertex -3.59818 8.10756 3.35
      vertex -3.41664 8.01053 3.35
    endloop
  endfacet
  facet normal 0.471377 0.881932 0
    outer loop
      vertex -3.59818 8.10756 3.35
      vertex -3.41664 8.01053 -3.35
      vertex -3.59818 8.10756 -3.35
    endloop
  endfacet
  facet normal 0.634393 0.77301 -0
    outer loop
      vertex -3.25754 7.87996 -3.35
      vertex -3.41664 8.01053 3.35
      vertex -3.25754 7.87996 3.35
    endloop
  endfacet
  facet normal 0.634393 0.77301 0
    outer loop
      vertex -3.41664 8.01053 3.35
      vertex -3.25754 7.87996 -3.35
      vertex -3.41664 8.01053 -3.35
    endloop
  endfacet
  facet normal 0.773002 0.634404 0
    outer loop
      vertex -3.12695 7.72084 3.35
      vertex -3.25754 7.87996 -3.35
      vertex -3.25754 7.87996 3.35
    endloop
  endfacet
  facet normal 0.773002 0.634404 0
    outer loop
      vertex -3.25754 7.87996 -3.35
      vertex -3.12695 7.72084 3.35
      vertex -3.12695 7.72084 -3.35
    endloop
  endfacet
  facet normal 0.881921 0.471397 0
    outer loop
      vertex -3.02992 7.53931 3.35
      vertex -3.12695 7.72084 -3.35
      vertex -3.12695 7.72084 3.35
    endloop
  endfacet
  facet normal 0.881921 0.471397 0
    outer loop
      vertex -3.12695 7.72084 -3.35
      vertex -3.02992 7.53931 3.35
      vertex -3.02992 7.53931 -3.35
    endloop
  endfacet
  facet normal 0.956958 0.290226 0
    outer loop
      vertex -2.97018 7.34233 3.35
      vertex -3.02992 7.53931 -3.35
      vertex -3.02992 7.53931 3.35
    endloop
  endfacet
  facet normal 0.956958 0.290226 0
    outer loop
      vertex -3.02992 7.53931 -3.35
      vertex -2.97018 7.34233 3.35
      vertex -2.97018 7.34233 -3.35
    endloop
  endfacet
  facet normal 0.995187 0.0979979 0
    outer loop
      vertex -2.95001 7.1375 3.35
      vertex -2.97018 7.34233 -3.35
      vertex -2.97018 7.34233 3.35
    endloop
  endfacet
  facet normal 0.995187 0.0979979 0
    outer loop
      vertex -2.97018 7.34233 -3.35
      vertex -2.95001 7.1375 3.35
      vertex -2.95001 7.1375 -3.35
    endloop
  endfacet
  facet normal 1 -0 0
    outer loop
      vertex -2.95001 1 3.35
      vertex -2.95001 7.1375 -3.35
      vertex -2.95001 7.1375 3.35
    endloop
  endfacet
  facet normal 1 0 0
    outer loop
      vertex -2.95001 7.1375 -3.35
      vertex -2.95001 1 3.35
      vertex -2.95001 1 -3.35
    endloop
  endfacet
  facet normal 0 1 -0
    outer loop
      vertex -2 1 -3.35
      vertex -2.95001 1 3.35
      vertex -2 1 3.35
    endloop
  endfacet
  facet normal 0 1 0
    outer loop
      vertex -2.95001 1 3.35
      vertex -2 1 -3.35
      vertex -2.95001 1 -3.35
    endloop
  endfacet
  facet normal 0.411619 0.911356 -0
    outer loop
      vertex -0.80867 0.461929 -3.35
      vertex -2 1 3.35
      vertex -0.80867 0.461929 3.35
    endloop
  endfacet
  facet normal 0.411619 0.911356 0
    outer loop
      vertex -2 1 3.35
      vertex -0.80867 0.461929 -3.35
      vertex -2 1 -3.35
    endloop
  endfacet
  facet normal 0.471391 0.881924 -0
    outer loop
      vertex -0.722229 0.415726 -3.35
      vertex -0.80867 0.461929 3.35
      vertex -0.722229 0.415726 3.35
    endloop
  endfacet
  facet normal 0.471391 0.881924 0
    outer loop
      vertex -0.80867 0.461929 3.35
      vertex -0.722229 0.415726 -3.35
      vertex -0.80867 0.461929 -3.35
    endloop
  endfacet
  facet normal 0.634351 0.773045 -0
    outer loop
      vertex -0.646454 0.353546 -3.35
      vertex -0.722229 0.415726 3.35
      vertex -0.646454 0.353546 3.35
    endloop
  endfacet
  facet normal 0.634351 0.773045 0
    outer loop
      vertex -0.722229 0.415726 3.35
      vertex -0.646454 0.353546 -3.35
      vertex -0.722229 0.415726 -3.35
    endloop
  endfacet
  facet normal 0.773045 0.634351 0
    outer loop
      vertex -0.584274 0.277771 3.35
      vertex -0.646454 0.353546 -3.35
      vertex -0.646454 0.353546 3.35
    endloop
  endfacet
  facet normal 0.773045 0.634351 0
    outer loop
      vertex -0.646454 0.353546 -3.35
      vertex -0.584274 0.277771 3.35
      vertex -0.584274 0.277771 -3.35
    endloop
  endfacet
  facet normal 0.881924 0.471391 0
    outer loop
      vertex -0.538071 0.19133 3.35
      vertex -0.584274 0.277771 -3.35
      vertex -0.584274 0.277771 3.35
    endloop
  endfacet
  facet normal 0.881924 0.471391 0
    outer loop
      vertex -0.584274 0.277771 -3.35
      vertex -0.538071 0.19133 3.35
      vertex -0.538071 0.19133 -3.35
    endloop
  endfacet
  facet normal 0.956925 0.290335 0
    outer loop
      vertex -0.509613 0.0975342 3.35
      vertex -0.538071 0.19133 -3.35
      vertex -0.538071 0.19133 3.35
    endloop
  endfacet
  facet normal 0.956925 0.290335 0
    outer loop
      vertex -0.538071 0.19133 -3.35
      vertex -0.509613 0.0975342 3.35
      vertex -0.509613 0.0975342 -3.35
    endloop
  endfacet
  facet normal 0.995178 0.098085 0
    outer loop
      vertex -0.5 0 3.35
      vertex -0.509613 0.0975342 -3.35
      vertex -0.509613 0.0975342 3.35
    endloop
  endfacet
  facet normal 0.995178 0.098085 0
    outer loop
      vertex -0.509613 0.0975342 -3.35
      vertex -0.5 0 3.35
      vertex -0.5 0 -3.35
    endloop
  endfacet
  facet normal 0.995178 -0.098085 0
    outer loop
      vertex -0.509613 -0.0975342 3.35
      vertex -0.5 0 -3.35
      vertex -0.5 0 3.35
    endloop
  endfacet
  facet normal 0.995178 -0.098085 0
    outer loop
      vertex -0.5 0 -3.35
      vertex -0.509613 -0.0975342 3.35
      vertex -0.509613 -0.0975342 -3.35
    endloop
  endfacet
  facet normal 0.956925 -0.290335 0
    outer loop
      vertex -0.538071 -0.19133 3.35
      vertex -0.509613 -0.0975342 -3.35
      vertex -0.509613 -0.0975342 3.35
    endloop
  endfacet
  facet normal 0.956925 -0.290335 0
    outer loop
      vertex -0.509613 -0.0975342 -3.35
      vertex -0.538071 -0.19133 3.35
      vertex -0.538071 -0.19133 -3.35
    endloop
  endfacet
  facet normal 0.881924 -0.471391 0
    outer loop
      vertex -0.584274 -0.277771 3.35
      vertex -0.538071 -0.19133 -3.35
      vertex -0.538071 -0.19133 3.35
    endloop
  endfacet
  facet normal 0.881924 -0.471391 0
    outer loop
      vertex -0.538071 -0.19133 -3.35
      vertex -0.584274 -0.277771 3.35
      vertex -0.584274 -0.277771 -3.35
    endloop
  endfacet
  facet normal 0.773045 -0.634351 0
    outer loop
      vertex -0.646454 -0.353546 3.35
      vertex -0.584274 -0.277771 -3.35
      vertex -0.584274 -0.277771 3.35
    endloop
  endfacet
  facet normal 0.773045 -0.634351 0
    outer loop
      vertex -0.584274 -0.277771 -3.35
      vertex -0.646454 -0.353546 3.35
      vertex -0.646454 -0.353546 -3.35
    endloop
  endfacet
  facet normal 0.634351 -0.773045 0
    outer loop
      vertex -0.722229 -0.415726 -3.35
      vertex -0.646454 -0.353546 3.35
      vertex -0.722229 -0.415726 3.35
    endloop
  endfacet
  facet normal 0.634351 -0.773045 0
    outer loop
      vertex -0.646454 -0.353546 3.35
      vertex -0.722229 -0.415726 -3.35
      vertex -0.646454 -0.353546 -3.35
    endloop
  endfacet
  facet normal 0.471391 -0.881924 0
    outer loop
      vertex -0.80867 -0.461929 -3.35
      vertex -0.722229 -0.415726 3.35
      vertex -0.80867 -0.461929 3.35
    endloop
  endfacet
  facet normal 0.471391 -0.881924 0
    outer loop
      vertex -0.722229 -0.415726 3.35
      vertex -0.80867 -0.461929 -3.35
      vertex -0.722229 -0.415726 -3.35
    endloop
  endfacet
  facet normal 0.411619 -0.911356 0
    outer loop
      vertex -2 -1 -3.35
      vertex -0.80867 -0.461929 3.35
      vertex -2 -1 3.35
    endloop
  endfacet
  facet normal 0.411619 -0.911356 0
    outer loop
      vertex -0.80867 -0.461929 3.35
      vertex -2 -1 -3.35
      vertex -0.80867 -0.461929 -3.35
    endloop
  endfacet
  facet normal 0 -1 0
    outer loop
      vertex -2.95001 -1 -3.35
      vertex -2 -1 3.35
      vertex -2.95001 -1 3.35
    endloop
  endfacet
  facet normal 0 -1 -0
    outer loop
      vertex -2 -1 3.35
      vertex -2.95001 -1 -3.35
      vertex -2 -1 -3.35
    endloop
  endfacet
  facet normal 1 -0 0
    outer loop
      vertex -2.95001 -7.1375 3.35
      vertex -2.95001 -1 -3.35
      vertex -2.95001 -1 3.35
    endloop
  endfacet
  facet normal 1 0 0
    outer loop
      vertex -2.95001 -1 -3.35
      vertex -2.95001 -7.1375 3.35
      vertex -2.95001 -7.1375 -3.35
    endloop
  endfacet
  facet normal 0.995187 -0.0979979 0
    outer loop
      vertex -2.97018 -7.34233 3.35
      vertex -2.95001 -7.1375 -3.35
      vertex -2.95001 -7.1375 3.35
    endloop
  endfacet
  facet normal 0.995187 -0.0979979 0
    outer loop
      vertex -2.95001 -7.1375 -3.35
      vertex -2.97018 -7.34233 3.35
      vertex -2.97018 -7.34233 -3.35
    endloop
  endfacet
  facet normal 0.956958 -0.290226 0
    outer loop
      vertex -3.02992 -7.53931 3.35
      vertex -2.97018 -7.34233 -3.35
      vertex -2.97018 -7.34233 3.35
    endloop
  endfacet
  facet normal 0.956958 -0.290226 0
    outer loop
      vertex -2.97018 -7.34233 -3.35
      vertex -3.02992 -7.53931 3.35
      vertex -3.02992 -7.53931 -3.35
    endloop
  endfacet
  facet normal 0.881921 -0.471397 0
    outer loop
      vertex -3.12695 -7.72084 3.35
      vertex -3.02992 -7.53931 -3.35
      vertex -3.02992 -7.53931 3.35
    endloop
  endfacet
  facet normal 0.881921 -0.471397 0
    outer loop
      vertex -3.02992 -7.53931 -3.35
      vertex -3.12695 -7.72084 3.35
      vertex -3.12695 -7.72084 -3.35
    endloop
  endfacet
  facet normal 0.773002 -0.634404 0
    outer loop
      vertex -3.25754 -7.87996 3.35
      vertex -3.12695 -7.72084 -3.35
      vertex -3.12695 -7.72084 3.35
    endloop
  endfacet
  facet normal 0.773002 -0.634404 0
    outer loop
      vertex -3.12695 -7.72084 -3.35
      vertex -3.25754 -7.87996 3.35
      vertex -3.25754 -7.87996 -3.35
    endloop
  endfacet
  facet normal 0.634393 -0.77301 0
    outer loop
      vertex -3.41664 -8.01053 -3.35
      vertex -3.25754 -7.87996 3.35
      vertex -3.41664 -8.01053 3.35
    endloop
  endfacet
  facet normal 0.634393 -0.77301 0
    outer loop
      vertex -3.25754 -7.87996 3.35
      vertex -3.41664 -8.01053 -3.35
      vertex -3.25754 -7.87996 -3.35
    endloop
  endfacet
  facet normal 0.471377 -0.881932 0
    outer loop
      vertex -3.59818 -8.10756 -3.35
      vertex -3.41664 -8.01053 3.35
      vertex -3.59818 -8.10756 3.35
    endloop
  endfacet
  facet normal 0.471377 -0.881932 0
    outer loop
      vertex -3.41664 -8.01053 3.35
      vertex -3.59818 -8.10756 -3.35
      vertex -3.41664 -8.01053 -3.35
    endloop
  endfacet
  facet normal 0.290284 -0.956941 0
    outer loop
      vertex -3.79515 -8.16731 -3.35
      vertex -3.59818 -8.10756 3.35
      vertex -3.79515 -8.16731 3.35
    endloop
  endfacet
  facet normal 0.290284 -0.956941 0
    outer loop
      vertex -3.59818 -8.10756 3.35
      vertex -3.79515 -8.16731 -3.35
      vertex -3.59818 -8.10756 -3.35
    endloop
  endfacet
  facet normal 0.0980847 -0.995178 0
    outer loop
      vertex -4 -8.1875 -3.35
      vertex -3.79515 -8.16731 3.35
      vertex -4 -8.1875 3.35
    endloop
  endfacet
  facet normal 0.0980847 -0.995178 0
    outer loop
      vertex -3.79515 -8.16731 3.35
      vertex -4 -8.1875 -3.35
      vertex -3.79515 -8.16731 -3.35
    endloop
  endfacet
  facet normal -0.0980942 -0.995177 0
    outer loop
      vertex -4.20483 -8.16731 -3.35
      vertex -4 -8.1875 3.35
      vertex -4.20483 -8.16731 3.35
    endloop
  endfacet
  facet normal -0.0980942 -0.995177 -0
    outer loop
      vertex -4 -8.1875 3.35
      vertex -4.20483 -8.16731 -3.35
      vertex -4 -8.1875 -3.35
    endloop
  endfacet
  facet normal -0.29027 -0.956945 0
    outer loop
      vertex -4.40181 -8.10756 -3.35
      vertex -4.20483 -8.16731 3.35
      vertex -4.40181 -8.10756 3.35
    endloop
  endfacet
  facet normal -0.29027 -0.956945 -0
    outer loop
      vertex -4.20483 -8.16731 3.35
      vertex -4.40181 -8.10756 -3.35
      vertex -4.20483 -8.16731 -3.35
    endloop
  endfacet
  facet normal -0.471397 -0.881921 0
    outer loop
      vertex -4.58334 -8.01053 -3.35
      vertex -4.40181 -8.10756 3.35
      vertex -4.58334 -8.01053 3.35
    endloop
  endfacet
  facet normal -0.471397 -0.881921 -0
    outer loop
      vertex -4.40181 -8.10756 3.35
      vertex -4.58334 -8.01053 -3.35
      vertex -4.40181 -8.10756 -3.35
    endloop
  endfacet
  facet normal -0.634369 -0.77303 0
    outer loop
      vertex -4.74245 -7.87996 -3.35
      vertex -4.58334 -8.01053 3.35
      vertex -4.74245 -7.87996 3.35
    endloop
  endfacet
  facet normal -0.634369 -0.77303 -0
    outer loop
      vertex -4.58334 -8.01053 3.35
      vertex -4.74245 -7.87996 -3.35
      vertex -4.58334 -8.01053 -3.35
    endloop
  endfacet
  facet normal -0.773026 -0.634375 0
    outer loop
      vertex -4.74245 -7.87996 -3.35
      vertex -4.87303 -7.72084 3.35
      vertex -4.87303 -7.72084 -3.35
    endloop
  endfacet
  facet normal -0.773026 -0.634375 0
    outer loop
      vertex -4.87303 -7.72084 3.35
      vertex -4.74245 -7.87996 -3.35
      vertex -4.74245 -7.87996 3.35
    endloop
  endfacet
  facet normal -0.881921 -0.471397 0
    outer loop
      vertex -4.87303 -7.72084 -3.35
      vertex -4.97006 -7.53931 3.35
      vertex -4.97006 -7.53931 -3.35
    endloop
  endfacet
  facet normal -0.881921 -0.471397 0
    outer loop
      vertex -4.97006 -7.53931 3.35
      vertex -4.87303 -7.72084 -3.35
      vertex -4.87303 -7.72084 3.35
    endloop
  endfacet
  facet normal -0.956931 -0.290315 0
    outer loop
      vertex -4.97006 -7.53931 -3.35
      vertex -5.02982 -7.34233 3.35
      vertex -5.02982 -7.34233 -3.35
    endloop
  endfacet
  facet normal -0.956931 -0.290315 0
    outer loop
      vertex -5.02982 -7.34233 3.35
      vertex -4.97006 -7.53931 -3.35
      vertex -4.97006 -7.53931 3.35
    endloop
  endfacet
  facet normal -0.995187 -0.0979979 0
    outer loop
      vertex -5.02982 -7.34233 -3.35
      vertex -5.04999 -7.1375 3.35
      vertex -5.04999 -7.1375 -3.35
    endloop
  endfacet
  facet normal -0.995187 -0.0979979 0
    outer loop
      vertex -5.04999 -7.1375 3.35
      vertex -5.02982 -7.34233 -3.35
      vertex -5.02982 -7.34233 3.35
    endloop
  endfacet
  facet normal -1 0 0
    outer loop
      vertex -5.04999 -7.1375 -3.35
      vertex -5.04999 7.1375 3.35
      vertex -5.04999 7.1375 -3.35
    endloop
  endfacet
  facet normal -1 -0 0
    outer loop
      vertex -5.04999 7.1375 3.35
      vertex -5.04999 -7.1375 -3.35
      vertex -5.04999 -7.1375 3.35
    endloop
  endfacet
  facet normal -0.995187 0.0979979 0
    outer loop
      vertex -5.04999 7.1375 -3.35
      vertex -5.02982 7.34233 3.35
      vertex -5.02982 7.34233 -3.35
    endloop
  endfacet
  facet normal -0.995187 0.0979979 0
    outer loop
      vertex -5.02982 7.34233 3.35
      vertex -5.04999 7.1375 -3.35
      vertex -5.04999 7.1375 3.35
    endloop
  endfacet
  facet normal -0 0 1
    outer loop
      vertex 2.95001 7.1375 3.35
      vertex 5.04999 1 3.35
      vertex 5.04999 7.1375 3.35
    endloop
  endfacet
  facet normal 0 0 1
    outer loop
      vertex 5.04999 1 3.35
      vertex 2.95001 7.1375 3.35
      vertex 5.04999 -1 3.35
    endloop
  endfacet
  facet normal 0 0 1
    outer loop
      vertex 2.95001 7.1375 3.35
      vertex 5.04999 7.1375 3.35
      vertex 5.02982 7.34233 3.35
    endloop
  endfacet
  facet normal 0 0 1
    outer loop
      vertex 2.95001 -7.1375 3.35
      vertex 5.04999 -1 3.35
      vertex 2.95001 7.1375 3.35
    endloop
  endfacet
  facet normal 0 0 1
    outer loop
      vertex 2.95001 7.1375 3.35
      vertex 5.02982 7.34233 3.35
      vertex 4.97008 7.53931 3.35
    endloop
  endfacet
  facet normal 0 0 1
    outer loop
      vertex 5.04999 -1 3.35
      vertex 2.95001 -7.1375 3.35
      vertex 5.04999 -7.1375 3.35
    endloop
  endfacet
  facet normal 0 0 1
    outer loop
      vertex 2.95001 7.1375 3.35
      vertex 4.97008 7.53931 3.35
      vertex 4.87305 7.72084 3.35
    endloop
  endfacet
  facet normal 0 0 1
    outer loop
      vertex 5.04999 -7.1375 3.35
      vertex 2.95001 -7.1375 3.35
      vertex 5.02982 -7.34233 3.35
    endloop
  endfacet
  facet normal 0 0 1
    outer loop
      vertex 2.95001 7.1375 3.35
      vertex 4.87305 7.72084 3.35
      vertex 4.74246 7.87996 3.35
    endloop
  endfacet
  facet normal 0 0 1
    outer loop
      vertex 5.02982 -7.34233 3.35
      vertex 2.95001 -7.1375 3.35
      vertex 4.97008 -7.53931 3.35
    endloop
  endfacet
  facet normal 0 0 1
    outer loop
      vertex 2.95001 7.1375 3.35
      vertex 4.74246 7.87996 3.35
      vertex 4.58336 8.01053 3.35
    endloop
  endfacet
  facet normal 0 0 1
    outer loop
      vertex 4.97008 -7.53931 3.35
      vertex 2.95001 -7.1375 3.35
      vertex 4.87305 -7.72084 3.35
    endloop
  endfacet
  facet normal 0 0 1
    outer loop
      vertex 2.95001 7.1375 3.35
      vertex 4.58336 8.01053 3.35
      vertex 4.40182 8.10756 3.35
    endloop
  endfacet
  facet normal 0 0 1
    outer loop
      vertex 4.87305 -7.72084 3.35
      vertex 2.95001 -7.1375 3.35
      vertex 4.74246 -7.87996 3.35
    endloop
  endfacet
  facet normal 0 0 1
    outer loop
      vertex 2.95001 7.1375 3.35
      vertex 4.40182 8.10756 3.35
      vertex 4.20485 8.16731 3.35
    endloop
  endfacet
  facet normal 0 0 1
    outer loop
      vertex 4.74246 -7.87996 3.35
      vertex 2.95001 -7.1375 3.35
      vertex 4.58336 -8.01053 3.35
    endloop
  endfacet
  facet normal 0 0 1
    outer loop
      vertex 2.95001 7.1375 3.35
      vertex 4.20485 8.16731 3.35
      vertex 4 8.1875 3.35
    endloop
  endfacet
  facet normal 0 0 1
    outer loop
      vertex 4.58336 -8.01053 3.35
      vertex 2.95001 -7.1375 3.35
      vertex 4.40182 -8.10756 3.35
    endloop
  endfacet
  facet normal 0 0 1
    outer loop
      vertex 2.95001 7.1375 3.35
      vertex 4 8.1875 3.35
      vertex 3.79517 8.16731 3.35
    endloop
  endfacet
  facet normal 0 0 1
    outer loop
      vertex 4.40182 -8.10756 3.35
      vertex 2.95001 -7.1375 3.35
      vertex 4.20485 -8.16731 3.35
    endloop
  endfacet
  facet normal 0 0 1
    outer loop
      vertex 2.95001 7.1375 3.35
      vertex 3.79517 8.16731 3.35
      vertex 3.59819 8.10756 3.35
    endloop
  endfacet
  facet normal 0 0 1
    outer loop
      vertex 4.20485 -8.16731 3.35
      vertex 2.95001 -7.1375 3.35
      vertex 4 -8.1875 3.35
    endloop
  endfacet
  facet normal 0 0 1
    outer loop
      vertex 2.95001 7.1375 3.35
      vertex 3.59819 8.10756 3.35
      vertex 3.41666 8.01053 3.35
    endloop
  endfacet
  facet normal 0 0 1
    outer loop
      vertex 4 -8.1875 3.35
      vertex 2.95001 -7.1375 3.35
      vertex 3.79517 -8.16731 3.35
    endloop
  endfacet
  facet normal 0 0 1
    outer loop
      vertex 2.95001 7.1375 3.35
      vertex 3.41666 8.01053 3.35
      vertex 3.25755 7.87996 3.35
    endloop
  endfacet
  facet normal 0 0 1
    outer loop
      vertex 3.79517 -8.16731 3.35
      vertex 2.95001 -7.1375 3.35
      vertex 3.59819 -8.10756 3.35
    endloop
  endfacet
  facet normal 0 0 1
    outer loop
      vertex 2.95001 7.1375 3.35
      vertex 3.25755 7.87996 3.35
      vertex 3.12697 7.72084 3.35
    endloop
  endfacet
  facet normal 0 0 1
    outer loop
      vertex 3.59819 -8.10756 3.35
      vertex 2.95001 -7.1375 3.35
      vertex 3.41666 -8.01053 3.35
    endloop
  endfacet
  facet normal 0 0 1
    outer loop
      vertex 2.95001 7.1375 3.35
      vertex 3.12697 7.72084 3.35
      vertex 3.02994 7.53931 3.35
    endloop
  endfacet
  facet normal 0 0 1
    outer loop
      vertex 3.41666 -8.01053 3.35
      vertex 2.95001 -7.1375 3.35
      vertex 3.25755 -7.87996 3.35
    endloop
  endfacet
  facet normal 0 0 1
    outer loop
      vertex 2.95001 7.1375 3.35
      vertex 3.02994 7.53931 3.35
      vertex 2.97018 7.34233 3.35
    endloop
  endfacet
  facet normal 0 0 1
    outer loop
      vertex 3.25755 -7.87996 3.35
      vertex 2.95001 -7.1375 3.35
      vertex 3.12697 -7.72084 3.35
    endloop
  endfacet
  facet normal 0 0 1
    outer loop
      vertex 3.12697 -7.72084 3.35
      vertex 2.95001 -7.1375 3.35
      vertex 3.02994 -7.53931 3.35
    endloop
  endfacet
  facet normal 0 0 1
    outer loop
      vertex 3.02994 -7.53931 3.35
      vertex 2.95001 -7.1375 3.35
      vertex 2.97018 -7.34233 3.35
    endloop
  endfacet
  facet normal 0 0 1
    outer loop
      vertex 7.49039 0.0975342 3.35
      vertex 7.49039 -0.0975342 3.35
      vertex 7.5 0 3.35
    endloop
  endfacet
  facet normal 0 0 1
    outer loop
      vertex 7.46193 0.19133 3.35
      vertex 7.49039 -0.0975342 3.35
      vertex 7.49039 0.0975342 3.35
    endloop
  endfacet
  facet normal 0 0 1
    outer loop
      vertex 7.46193 0.19133 3.35
      vertex 7.46193 -0.19133 3.35
      vertex 7.49039 -0.0975342 3.35
    endloop
  endfacet
  facet normal 0 0 1
    outer loop
      vertex 7.41573 0.277771 3.35
      vertex 7.46193 -0.19133 3.35
      vertex 7.46193 0.19133 3.35
    endloop
  endfacet
  facet normal 0 0 1
    outer loop
      vertex 7.41573 0.277771 3.35
      vertex 7.41573 -0.277771 3.35
      vertex 7.46193 -0.19133 3.35
    endloop
  endfacet
  facet normal 0 0 1
    outer loop
      vertex 7.35355 0.353546 3.35
      vertex 7.41573 -0.277771 3.35
      vertex 7.41573 0.277771 3.35
    endloop
  endfacet
  facet normal 0 0 1
    outer loop
      vertex 7.35355 0.353546 3.35
      vertex 7.35355 -0.353546 3.35
      vertex 7.41573 -0.277771 3.35
    endloop
  endfacet
  facet normal 0 0 1
    outer loop
      vertex 7.27777 0.415726 3.35
      vertex 7.35355 -0.353546 3.35
      vertex 7.35355 0.353546 3.35
    endloop
  endfacet
  facet normal 0 0 1
    outer loop
      vertex 7.27777 0.415726 3.35
      vertex 7.27777 -0.415726 3.35
      vertex 7.35355 -0.353546 3.35
    endloop
  endfacet
  facet normal 0 0 1
    outer loop
      vertex 7.19133 0.461929 3.35
      vertex 7.27777 -0.415726 3.35
      vertex 7.27777 0.415726 3.35
    endloop
  endfacet
  facet normal 0 0 1
    outer loop
      vertex 7.19133 0.461929 3.35
      vertex 7.19133 -0.461929 3.35
      vertex 7.27777 -0.415726 3.35
    endloop
  endfacet
  facet normal 0 0 1
    outer loop
      vertex 6 1 3.35
      vertex 7.19133 -0.461929 3.35
      vertex 7.19133 0.461929 3.35
    endloop
  endfacet
  facet normal 0 0 1
    outer loop
      vertex 6 1 3.35
      vertex 6 -1 3.35
      vertex 7.19133 -0.461929 3.35
    endloop
  endfacet
  facet normal -0 0 1
    outer loop
      vertex 5.04999 1 3.35
      vertex 6 -1 3.35
      vertex 6 1 3.35
    endloop
  endfacet
  facet normal 0 0 1
    outer loop
      vertex 6 -1 3.35
      vertex 5.04999 1 3.35
      vertex 5.04999 -1 3.35
    endloop
  endfacet
  facet normal 0 0 -1
    outer loop
      vertex 2.95001 -7.1375 -3.35
      vertex 5.04999 -1 -3.35
      vertex 5.04999 -7.1375 -3.35
    endloop
  endfacet
  facet normal -0 0 -1
    outer loop
      vertex 5.04999 -1 -3.35
      vertex 2.95001 -7.1375 -3.35
      vertex 5.04999 1 -3.35
    endloop
  endfacet
  facet normal 0 0 -1
    outer loop
      vertex 2.95001 -7.1375 -3.35
      vertex 5.04999 -7.1375 -3.35
      vertex 5.02982 -7.34233 -3.35
    endloop
  endfacet
  facet normal 0 0 -1
    outer loop
      vertex 2.95001 7.1375 -3.35
      vertex 5.04999 1 -3.35
      vertex 2.95001 -7.1375 -3.35
    endloop
  endfacet
  facet normal 0 0 -1
    outer loop
      vertex 2.95001 -7.1375 -3.35
      vertex 5.02982 -7.34233 -3.35
      vertex 4.97008 -7.53931 -3.35
    endloop
  endfacet
  facet normal 0 0 -1
    outer loop
      vertex 5.04999 1 -3.35
      vertex 2.95001 7.1375 -3.35
      vertex 5.04999 7.1375 -3.35
    endloop
  endfacet
  facet normal 0 0 -1
    outer loop
      vertex 2.95001 -7.1375 -3.35
      vertex 4.97008 -7.53931 -3.35
      vertex 4.87305 -7.72084 -3.35
    endloop
  endfacet
  facet normal 0 0 -1
    outer loop
      vertex 5.04999 7.1375 -3.35
      vertex 2.95001 7.1375 -3.35
      vertex 5.02982 7.34233 -3.35
    endloop
  endfacet
  facet normal 0 0 -1
    outer loop
      vertex 2.95001 -7.1375 -3.35
      vertex 4.87305 -7.72084 -3.35
      vertex 4.74246 -7.87996 -3.35
    endloop
  endfacet
  facet normal -0 0 -1
    outer loop
      vertex 5.02982 7.34233 -3.35
      vertex 2.95001 7.1375 -3.35
      vertex 4.97008 7.53931 -3.35
    endloop
  endfacet
  facet normal 0 0 -1
    outer loop
      vertex 2.95001 -7.1375 -3.35
      vertex 4.74246 -7.87996 -3.35
      vertex 4.58336 -8.01053 -3.35
    endloop
  endfacet
  facet normal -0 0 -1
    outer loop
      vertex 4.97008 7.53931 -3.35
      vertex 2.95001 7.1375 -3.35
      vertex 4.87305 7.72084 -3.35
    endloop
  endfacet
  facet normal 0 0 -1
    outer loop
      vertex 2.95001 -7.1375 -3.35
      vertex 4.58336 -8.01053 -3.35
      vertex 4.40182 -8.10756 -3.35
    endloop
  endfacet
  facet normal -0 0 -1
    outer loop
      vertex 4.87305 7.72084 -3.35
      vertex 2.95001 7.1375 -3.35
      vertex 4.74246 7.87996 -3.35
    endloop
  endfacet
  facet normal 0 0 -1
    outer loop
      vertex 2.95001 -7.1375 -3.35
      vertex 4.40182 -8.10756 -3.35
      vertex 4.20485 -8.16731 -3.35
    endloop
  endfacet
  facet normal -0 0 -1
    outer loop
      vertex 4.74246 7.87996 -3.35
      vertex 2.95001 7.1375 -3.35
      vertex 4.58336 8.01053 -3.35
    endloop
  endfacet
  facet normal 0 0 -1
    outer loop
      vertex 2.95001 -7.1375 -3.35
      vertex 4.20485 -8.16731 -3.35
      vertex 4 -8.1875 -3.35
    endloop
  endfacet
  facet normal -0 0 -1
    outer loop
      vertex 4.58336 8.01053 -3.35
      vertex 2.95001 7.1375 -3.35
      vertex 4.40182 8.10756 -3.35
    endloop
  endfacet
  facet normal 0 0 -1
    outer loop
      vertex 2.95001 -7.1375 -3.35
      vertex 4 -8.1875 -3.35
      vertex 3.79517 -8.16731 -3.35
    endloop
  endfacet
  facet normal -0 0 -1
    outer loop
      vertex 4.40182 8.10756 -3.35
      vertex 2.95001 7.1375 -3.35
      vertex 4.20485 8.16731 -3.35
    endloop
  endfacet
  facet normal 0 0 -1
    outer loop
      vertex 2.95001 -7.1375 -3.35
      vertex 3.79517 -8.16731 -3.35
      vertex 3.59819 -8.10756 -3.35
    endloop
  endfacet
  facet normal -0 0 -1
    outer loop
      vertex 4.20485 8.16731 -3.35
      vertex 2.95001 7.1375 -3.35
      vertex 4 8.1875 -3.35
    endloop
  endfacet
  facet normal 0 0 -1
    outer loop
      vertex 2.95001 -7.1375 -3.35
      vertex 3.59819 -8.10756 -3.35
      vertex 3.41666 -8.01053 -3.35
    endloop
  endfacet
  facet normal 0 0 -1
    outer loop
      vertex 4 8.1875 -3.35
      vertex 2.95001 7.1375 -3.35
      vertex 3.79517 8.16731 -3.35
    endloop
  endfacet
  facet normal 0 0 -1
    outer loop
      vertex 2.95001 -7.1375 -3.35
      vertex 3.41666 -8.01053 -3.35
      vertex 3.25755 -7.87996 -3.35
    endloop
  endfacet
  facet normal 0 0 -1
    outer loop
      vertex 3.79517 8.16731 -3.35
      vertex 2.95001 7.1375 -3.35
      vertex 3.59819 8.10756 -3.35
    endloop
  endfacet
  facet normal 0 0 -1
    outer loop
      vertex 2.95001 -7.1375 -3.35
      vertex 3.25755 -7.87996 -3.35
      vertex 3.12697 -7.72084 -3.35
    endloop
  endfacet
  facet normal 0 0 -1
    outer loop
      vertex 3.59819 8.10756 -3.35
      vertex 2.95001 7.1375 -3.35
      vertex 3.41666 8.01053 -3.35
    endloop
  endfacet
  facet normal 0 0 -1
    outer loop
      vertex 2.95001 -7.1375 -3.35
      vertex 3.12697 -7.72084 -3.35
      vertex 3.02994 -7.53931 -3.35
    endloop
  endfacet
  facet normal 0 0 -1
    outer loop
      vertex 3.41666 8.01053 -3.35
      vertex 2.95001 7.1375 -3.35
      vertex 3.25755 7.87996 -3.35
    endloop
  endfacet
  facet normal 0 0 -1
    outer loop
      vertex 2.95001 -7.1375 -3.35
      vertex 3.02994 -7.53931 -3.35
      vertex 2.97018 -7.34233 -3.35
    endloop
  endfacet
  facet normal 0 0 -1
    outer loop
      vertex 3.25755 7.87996 -3.35
      vertex 2.95001 7.1375 -3.35
      vertex 3.12697 7.72084 -3.35
    endloop
  endfacet
  facet normal 0 0 -1
    outer loop
      vertex 3.12697 7.72084 -3.35
      vertex 2.95001 7.1375 -3.35
      vertex 3.02994 7.53931 -3.35
    endloop
  endfacet
  facet normal 0 0 -1
    outer loop
      vertex 3.02994 7.53931 -3.35
      vertex 2.95001 7.1375 -3.35
      vertex 2.97018 7.34233 -3.35
    endloop
  endfacet
  facet normal 0 0 -1
    outer loop
      vertex 7.49039 -0.0975342 -3.35
      vertex 7.49039 0.0975342 -3.35
      vertex 7.5 0 -3.35
    endloop
  endfacet
  facet normal 0 0 -1
    outer loop
      vertex 7.46193 -0.19133 -3.35
      vertex 7.49039 0.0975342 -3.35
      vertex 7.49039 -0.0975342 -3.35
    endloop
  endfacet
  facet normal 0 0 -1
    outer loop
      vertex 7.46193 -0.19133 -3.35
      vertex 7.46193 0.19133 -3.35
      vertex 7.49039 0.0975342 -3.35
    endloop
  endfacet
  facet normal 0 0 -1
    outer loop
      vertex 7.41573 -0.277771 -3.35
      vertex 7.46193 0.19133 -3.35
      vertex 7.46193 -0.19133 -3.35
    endloop
  endfacet
  facet normal 0 0 -1
    outer loop
      vertex 7.41573 -0.277771 -3.35
      vertex 7.41573 0.277771 -3.35
      vertex 7.46193 0.19133 -3.35
    endloop
  endfacet
  facet normal 0 0 -1
    outer loop
      vertex 7.35355 -0.353546 -3.35
      vertex 7.41573 0.277771 -3.35
      vertex 7.41573 -0.277771 -3.35
    endloop
  endfacet
  facet normal 0 0 -1
    outer loop
      vertex 7.35355 -0.353546 -3.35
      vertex 7.35355 0.353546 -3.35
      vertex 7.41573 0.277771 -3.35
    endloop
  endfacet
  facet normal 0 0 -1
    outer loop
      vertex 7.27777 -0.415726 -3.35
      vertex 7.35355 0.353546 -3.35
      vertex 7.35355 -0.353546 -3.35
    endloop
  endfacet
  facet normal 0 0 -1
    outer loop
      vertex 7.27777 -0.415726 -3.35
      vertex 7.27777 0.415726 -3.35
      vertex 7.35355 0.353546 -3.35
    endloop
  endfacet
  facet normal 0 0 -1
    outer loop
      vertex 7.19133 -0.461929 -3.35
      vertex 7.27777 0.415726 -3.35
      vertex 7.27777 -0.415726 -3.35
    endloop
  endfacet
  facet normal 0 0 -1
    outer loop
      vertex 7.19133 -0.461929 -3.35
      vertex 7.19133 0.461929 -3.35
      vertex 7.27777 0.415726 -3.35
    endloop
  endfacet
  facet normal 0 0 -1
    outer loop
      vertex 6 -1 -3.35
      vertex 7.19133 0.461929 -3.35
      vertex 7.19133 -0.461929 -3.35
    endloop
  endfacet
  facet normal 0 0 -1
    outer loop
      vertex 6 -1 -3.35
      vertex 6 1 -3.35
      vertex 7.19133 0.461929 -3.35
    endloop
  endfacet
  facet normal 0 0 -1
    outer loop
      vertex 5.04999 -1 -3.35
      vertex 6 1 -3.35
      vertex 6 -1 -3.35
    endloop
  endfacet
  facet normal -0 0 -1
    outer loop
      vertex 6 1 -3.35
      vertex 5.04999 -1 -3.35
      vertex 5.04999 1 -3.35
    endloop
  endfacet
  facet normal -0.956931 0.290315 0
    outer loop
      vertex 2.97018 7.34233 -3.35
      vertex 3.02994 7.53931 3.35
      vertex 3.02994 7.53931 -3.35
    endloop
  endfacet
  facet normal -0.956931 0.290315 0
    outer loop
      vertex 3.02994 7.53931 3.35
      vertex 2.97018 7.34233 -3.35
      vertex 2.97018 7.34233 3.35
    endloop
  endfacet
  facet normal -0.881921 0.471397 0
    outer loop
      vertex 3.02994 7.53931 -3.35
      vertex 3.12697 7.72084 3.35
      vertex 3.12697 7.72084 -3.35
    endloop
  endfacet
  facet normal -0.881921 0.471397 0
    outer loop
      vertex 3.12697 7.72084 3.35
      vertex 3.02994 7.53931 -3.35
      vertex 3.02994 7.53931 3.35
    endloop
  endfacet
  facet normal -0.773026 0.634375 0
    outer loop
      vertex 3.12697 7.72084 -3.35
      vertex 3.25755 7.87996 3.35
      vertex 3.25755 7.87996 -3.35
    endloop
  endfacet
  facet normal -0.773026 0.634375 0
    outer loop
      vertex 3.25755 7.87996 3.35
      vertex 3.12697 7.72084 -3.35
      vertex 3.12697 7.72084 3.35
    endloop
  endfacet
  facet normal -0.634369 0.77303 0
    outer loop
      vertex 3.41666 8.01053 -3.35
      vertex 3.25755 7.87996 3.35
      vertex 3.41666 8.01053 3.35
    endloop
  endfacet
  facet normal -0.634369 0.77303 0
    outer loop
      vertex 3.25755 7.87996 3.35
      vertex 3.41666 8.01053 -3.35
      vertex 3.25755 7.87996 -3.35
    endloop
  endfacet
  facet normal -0.471397 0.881921 0
    outer loop
      vertex 3.59819 8.10756 -3.35
      vertex 3.41666 8.01053 3.35
      vertex 3.59819 8.10756 3.35
    endloop
  endfacet
  facet normal -0.471397 0.881921 0
    outer loop
      vertex 3.41666 8.01053 3.35
      vertex 3.59819 8.10756 -3.35
      vertex 3.41666 8.01053 -3.35
    endloop
  endfacet
  facet normal -0.29027 0.956945 0
    outer loop
      vertex 3.79517 8.16731 -3.35
      vertex 3.59819 8.10756 3.35
      vertex 3.79517 8.16731 3.35
    endloop
  endfacet
  facet normal -0.29027 0.956945 0
    outer loop
      vertex 3.59819 8.10756 3.35
      vertex 3.79517 8.16731 -3.35
      vertex 3.59819 8.10756 -3.35
    endloop
  endfacet
  facet normal -0.0980942 0.995177 0
    outer loop
      vertex 4 8.1875 -3.35
      vertex 3.79517 8.16731 3.35
      vertex 4 8.1875 3.35
    endloop
  endfacet
  facet normal -0.0980942 0.995177 0
    outer loop
      vertex 3.79517 8.16731 3.35
      vertex 4 8.1875 -3.35
      vertex 3.79517 8.16731 -3.35
    endloop
  endfacet
  facet normal 0.0980847 0.995178 -0
    outer loop
      vertex 4.20485 8.16731 -3.35
      vertex 4 8.1875 3.35
      vertex 4.20485 8.16731 3.35
    endloop
  endfacet
  facet normal 0.0980847 0.995178 0
    outer loop
      vertex 4 8.1875 3.35
      vertex 4.20485 8.16731 -3.35
      vertex 4 8.1875 -3.35
    endloop
  endfacet
  facet normal 0.290284 0.956941 -0
    outer loop
      vertex 4.40182 8.10756 -3.35
      vertex 4.20485 8.16731 3.35
      vertex 4.40182 8.10756 3.35
    endloop
  endfacet
  facet normal 0.290284 0.956941 0
    outer loop
      vertex 4.20485 8.16731 3.35
      vertex 4.40182 8.10756 -3.35
      vertex 4.20485 8.16731 -3.35
    endloop
  endfacet
  facet normal 0.471377 0.881932 -0
    outer loop
      vertex 4.58336 8.01053 -3.35
      vertex 4.40182 8.10756 3.35
      vertex 4.58336 8.01053 3.35
    endloop
  endfacet
  facet normal 0.471377 0.881932 0
    outer loop
      vertex 4.40182 8.10756 3.35
      vertex 4.58336 8.01053 -3.35
      vertex 4.40182 8.10756 -3.35
    endloop
  endfacet
  facet normal 0.634393 0.77301 -0
    outer loop
      vertex 4.74246 7.87996 -3.35
      vertex 4.58336 8.01053 3.35
      vertex 4.74246 7.87996 3.35
    endloop
  endfacet
  facet normal 0.634393 0.77301 0
    outer loop
      vertex 4.58336 8.01053 3.35
      vertex 4.74246 7.87996 -3.35
      vertex 4.58336 8.01053 -3.35
    endloop
  endfacet
  facet normal 0.773002 0.634404 0
    outer loop
      vertex 4.87305 7.72084 3.35
      vertex 4.74246 7.87996 -3.35
      vertex 4.74246 7.87996 3.35
    endloop
  endfacet
  facet normal 0.773002 0.634404 0
    outer loop
      vertex 4.74246 7.87996 -3.35
      vertex 4.87305 7.72084 3.35
      vertex 4.87305 7.72084 -3.35
    endloop
  endfacet
  facet normal 0.881921 0.471397 0
    outer loop
      vertex 4.97008 7.53931 3.35
      vertex 4.87305 7.72084 -3.35
      vertex 4.87305 7.72084 3.35
    endloop
  endfacet
  facet normal 0.881921 0.471397 0
    outer loop
      vertex 4.87305 7.72084 -3.35
      vertex 4.97008 7.53931 3.35
      vertex 4.97008 7.53931 -3.35
    endloop
  endfacet
  facet normal 0.956958 0.290226 0
    outer loop
      vertex 5.02982 7.34233 3.35
      vertex 4.97008 7.53931 -3.35
      vertex 4.97008 7.53931 3.35
    endloop
  endfacet
  facet normal 0.956958 0.290226 0
    outer loop
      vertex 4.97008 7.53931 -3.35
      vertex 5.02982 7.34233 3.35
      vertex 5.02982 7.34233 -3.35
    endloop
  endfacet
  facet normal 0.995187 0.0979979 0
    outer loop
      vertex 5.04999 7.1375 3.35
      vertex 5.02982 7.34233 -3.35
      vertex 5.02982 7.34233 3.35
    endloop
  endfacet
  facet normal 0.995187 0.0979979 0
    outer loop
      vertex 5.02982 7.34233 -3.35
      vertex 5.04999 7.1375 3.35
      vertex 5.04999 7.1375 -3.35
    endloop
  endfacet
  facet normal 1 -0 0
    outer loop
      vertex 5.04999 1 3.35
      vertex 5.04999 7.1375 -3.35
      vertex 5.04999 7.1375 3.35
    endloop
  endfacet
  facet normal 1 0 0
    outer loop
      vertex 5.04999 7.1375 -3.35
      vertex 5.04999 1 3.35
      vertex 5.04999 1 -3.35
    endloop
  endfacet
  facet normal 0 1 -0
    outer loop
      vertex 6 1 -3.35
      vertex 5.04999 1 3.35
      vertex 6 1 3.35
    endloop
  endfacet
  facet normal 0 1 0
    outer loop
      vertex 5.04999 1 3.35
      vertex 6 1 -3.35
      vertex 5.04999 1 -3.35
    endloop
  endfacet
  facet normal 0.411619 0.911356 -0
    outer loop
      vertex 7.19133 0.461929 -3.35
      vertex 6 1 3.35
      vertex 7.19133 0.461929 3.35
    endloop
  endfacet
  facet normal 0.411619 0.911356 0
    outer loop
      vertex 6 1 3.35
      vertex 7.19133 0.461929 -3.35
      vertex 6 1 -3.35
    endloop
  endfacet
  facet normal 0.471396 0.881922 -0
    outer loop
      vertex 7.27777 0.415726 -3.35
      vertex 7.19133 0.461929 3.35
      vertex 7.27777 0.415726 3.35
    endloop
  endfacet
  facet normal 0.471396 0.881922 0
    outer loop
      vertex 7.19133 0.461929 3.35
      vertex 7.27777 0.415726 -3.35
      vertex 7.19133 0.461929 -3.35
    endloop
  endfacet
  facet normal 0.634326 0.773066 -0
    outer loop
      vertex 7.35355 0.353546 -3.35
      vertex 7.27777 0.415726 3.35
      vertex 7.35355 0.353546 3.35
    endloop
  endfacet
  facet normal 0.634326 0.773066 0
    outer loop
      vertex 7.27777 0.415726 3.35
      vertex 7.35355 0.353546 -3.35
      vertex 7.27777 0.415726 -3.35
    endloop
  endfacet
  facet normal 0.773045 0.634351 0
    outer loop
      vertex 7.41573 0.277771 3.35
      vertex 7.35355 0.353546 -3.35
      vertex 7.35355 0.353546 3.35
    endloop
  endfacet
  facet normal 0.773045 0.634351 0
    outer loop
      vertex 7.35355 0.353546 -3.35
      vertex 7.41573 0.277771 3.35
      vertex 7.41573 0.277771 -3.35
    endloop
  endfacet
  facet normal 0.881937 0.471368 0
    outer loop
      vertex 7.46193 0.19133 3.35
      vertex 7.41573 0.277771 -3.35
      vertex 7.41573 0.277771 3.35
    endloop
  endfacet
  facet normal 0.881937 0.471368 0
    outer loop
      vertex 7.41573 0.277771 -3.35
      vertex 7.46193 0.19133 3.35
      vertex 7.46193 0.19133 -3.35
    endloop
  endfacet
  facet normal 0.956919 0.290353 0
    outer loop
      vertex 7.49039 0.0975342 3.35
      vertex 7.46193 0.19133 -3.35
      vertex 7.46193 0.19133 3.35
    endloop
  endfacet
  facet normal 0.956919 0.290353 0
    outer loop
      vertex 7.46193 0.19133 -3.35
      vertex 7.49039 0.0975342 3.35
      vertex 7.49039 0.0975342 -3.35
    endloop
  endfacet
  facet normal 0.995181 0.0980547 0
    outer loop
      vertex 7.5 0 3.35
      vertex 7.49039 0.0975342 -3.35
      vertex 7.49039 0.0975342 3.35
    endloop
  endfacet
  facet normal 0.995181 0.0980547 0
    outer loop
      vertex 7.49039 0.0975342 -3.35
      vertex 7.5 0 3.35
      vertex 7.5 0 -3.35
    endloop
  endfacet
  facet normal 0.995181 -0.0980547 0
    outer loop
      vertex 7.49039 -0.0975342 3.35
      vertex 7.5 0 -3.35
      vertex 7.5 0 3.35
    endloop
  endfacet
  facet normal 0.995181 -0.0980547 0
    outer loop
      vertex 7.5 0 -3.35
      vertex 7.49039 -0.0975342 3.35
      vertex 7.49039 -0.0975342 -3.35
    endloop
  endfacet
  facet normal 0.956919 -0.290353 0
    outer loop
      vertex 7.46193 -0.19133 3.35
      vertex 7.49039 -0.0975342 -3.35
      vertex 7.49039 -0.0975342 3.35
    endloop
  endfacet
  facet normal 0.956919 -0.290353 0
    outer loop
      vertex 7.49039 -0.0975342 -3.35
      vertex 7.46193 -0.19133 3.35
      vertex 7.46193 -0.19133 -3.35
    endloop
  endfacet
  facet normal 0.881937 -0.471368 0
    outer loop
      vertex 7.41573 -0.277771 3.35
      vertex 7.46193 -0.19133 -3.35
      vertex 7.46193 -0.19133 3.35
    endloop
  endfacet
  facet normal 0.881937 -0.471368 0
    outer loop
      vertex 7.46193 -0.19133 -3.35
      vertex 7.41573 -0.277771 3.35
      vertex 7.41573 -0.277771 -3.35
    endloop
  endfacet
  facet normal 0.773045 -0.634351 0
    outer loop
      vertex 7.35355 -0.353546 3.35
      vertex 7.41573 -0.277771 -3.35
      vertex 7.41573 -0.277771 3.35
    endloop
  endfacet
  facet normal 0.773045 -0.634351 0
    outer loop
      vertex 7.41573 -0.277771 -3.35
      vertex 7.35355 -0.353546 3.35
      vertex 7.35355 -0.353546 -3.35
    endloop
  endfacet
  facet normal 0.634326 -0.773066 0
    outer loop
      vertex 7.27777 -0.415726 -3.35
      vertex 7.35355 -0.353546 3.35
      vertex 7.27777 -0.415726 3.35
    endloop
  endfacet
  facet normal 0.634326 -0.773066 0
    outer loop
      vertex 7.35355 -0.353546 3.35
      vertex 7.27777 -0.415726 -3.35
      vertex 7.35355 -0.353546 -3.35
    endloop
  endfacet
  facet normal 0.471396 -0.881922 0
    outer loop
      vertex 7.19133 -0.461929 -3.35
      vertex 7.27777 -0.415726 3.35
      vertex 7.19133 -0.461929 3.35
    endloop
  endfacet
  facet normal 0.471396 -0.881922 0
    outer loop
      vertex 7.27777 -0.415726 3.35
      vertex 7.19133 -0.461929 -3.35
      vertex 7.27777 -0.415726 -3.35
    endloop
  endfacet
  facet normal 0.411619 -0.911356 0
    outer loop
      vertex 6 -1 -3.35
      vertex 7.19133 -0.461929 3.35
      vertex 6 -1 3.35
    endloop
  endfacet
  facet normal 0.411619 -0.911356 0
    outer loop
      vertex 7.19133 -0.461929 3.35
      vertex 6 -1 -3.35
      vertex 7.19133 -0.461929 -3.35
    endloop
  endfacet
  facet normal 0 -1 0
    outer loop
      vertex 5.04999 -1 -3.35
      vertex 6 -1 3.35
      vertex 5.04999 -1 3.35
    endloop
  endfacet
  facet normal 0 -1 -0
    outer loop
      vertex 6 -1 3.35
      vertex 5.04999 -1 -3.35
      vertex 6 -1 -3.35
    endloop
  endfacet
  facet normal 1 -0 0
    outer loop
      vertex 5.04999 -7.1375 3.35
      vertex 5.04999 -1 -3.35
      vertex 5.04999 -1 3.35
    endloop
  endfacet
  facet normal 1 0 0
    outer loop
      vertex 5.04999 -1 -3.35
      vertex 5.04999 -7.1375 3.35
      vertex 5.04999 -7.1375 -3.35
    endloop
  endfacet
  facet normal 0.995187 -0.0979979 0
    outer loop
      vertex 5.02982 -7.34233 3.35
      vertex 5.04999 -7.1375 -3.35
      vertex 5.04999 -7.1375 3.35
    endloop
  endfacet
  facet normal 0.995187 -0.0979979 0
    outer loop
      vertex 5.04999 -7.1375 -3.35
      vertex 5.02982 -7.34233 3.35
      vertex 5.02982 -7.34233 -3.35
    endloop
  endfacet
  facet normal 0.956958 -0.290226 0
    outer loop
      vertex 4.97008 -7.53931 3.35
      vertex 5.02982 -7.34233 -3.35
      vertex 5.02982 -7.34233 3.35
    endloop
  endfacet
  facet normal 0.956958 -0.290226 0
    outer loop
      vertex 5.02982 -7.34233 -3.35
      vertex 4.97008 -7.53931 3.35
      vertex 4.97008 -7.53931 -3.35
    endloop
  endfacet
  facet normal 0.881921 -0.471397 0
    outer loop
      vertex 4.87305 -7.72084 3.35
      vertex 4.97008 -7.53931 -3.35
      vertex 4.97008 -7.53931 3.35
    endloop
  endfacet
  facet normal 0.881921 -0.471397 0
    outer loop
      vertex 4.97008 -7.53931 -3.35
      vertex 4.87305 -7.72084 3.35
      vertex 4.87305 -7.72084 -3.35
    endloop
  endfacet
  facet normal 0.773002 -0.634404 0
    outer loop
      vertex 4.74246 -7.87996 3.35
      vertex 4.87305 -7.72084 -3.35
      vertex 4.87305 -7.72084 3.35
    endloop
  endfacet
  facet normal 0.773002 -0.634404 0
    outer loop
      vertex 4.87305 -7.72084 -3.35
      vertex 4.74246 -7.87996 3.35
      vertex 4.74246 -7.87996 -3.35
    endloop
  endfacet
  facet normal 0.634393 -0.77301 0
    outer loop
      vertex 4.58336 -8.01053 -3.35
      vertex 4.74246 -7.87996 3.35
      vertex 4.58336 -8.01053 3.35
    endloop
  endfacet
  facet normal 0.634393 -0.77301 0
    outer loop
      vertex 4.74246 -7.87996 3.35
      vertex 4.58336 -8.01053 -3.35
      vertex 4.74246 -7.87996 -3.35
    endloop
  endfacet
  facet normal 0.471377 -0.881932 0
    outer loop
      vertex 4.40182 -8.10756 -3.35
      vertex 4.58336 -8.01053 3.35
      vertex 4.40182 -8.10756 3.35
    endloop
  endfacet
  facet normal 0.471377 -0.881932 0
    outer loop
      vertex 4.58336 -8.01053 3.35
      vertex 4.40182 -8.10756 -3.35
      vertex 4.58336 -8.01053 -3.35
    endloop
  endfacet
  facet normal 0.290284 -0.956941 0
    outer loop
      vertex 4.20485 -8.16731 -3.35
      vertex 4.40182 -8.10756 3.35
      vertex 4.20485 -8.16731 3.35
    endloop
  endfacet
  facet normal 0.290284 -0.956941 0
    outer loop
      vertex 4.40182 -8.10756 3.35
      vertex 4.20485 -8.16731 -3.35
      vertex 4.40182 -8.10756 -3.35
    endloop
  endfacet
  facet normal 0.0980847 -0.995178 0
    outer loop
      vertex 4 -8.1875 -3.35
      vertex 4.20485 -8.16731 3.35
      vertex 4 -8.1875 3.35
    endloop
  endfacet
  facet normal 0.0980847 -0.995178 0
    outer loop
      vertex 4.20485 -8.16731 3.35
      vertex 4 -8.1875 -3.35
      vertex 4.20485 -8.16731 -3.35
    endloop
  endfacet
  facet normal -0.0980942 -0.995177 0
    outer loop
      vertex 3.79517 -8.16731 -3.35
      vertex 4 -8.1875 3.35
      vertex 3.79517 -8.16731 3.35
    endloop
  endfacet
  facet normal -0.0980942 -0.995177 -0
    outer loop
      vertex 4 -8.1875 3.35
      vertex 3.79517 -8.16731 -3.35
      vertex 4 -8.1875 -3.35
    endloop
  endfacet
  facet normal -0.29027 -0.956945 0
    outer loop
      vertex 3.59819 -8.10756 -3.35
      vertex 3.79517 -8.16731 3.35
      vertex 3.59819 -8.10756 3.35
    endloop
  endfacet
  facet normal -0.29027 -0.956945 -0
    outer loop
      vertex 3.79517 -8.16731 3.35
      vertex 3.59819 -8.10756 -3.35
      vertex 3.79517 -8.16731 -3.35
    endloop
  endfacet
  facet normal -0.471397 -0.881921 0
    outer loop
      vertex 3.41666 -8.01053 -3.35
      vertex 3.59819 -8.10756 3.35
      vertex 3.41666 -8.01053 3.35
    endloop
  endfacet
  facet normal -0.471397 -0.881921 -0
    outer loop
      vertex 3.59819 -8.10756 3.35
      vertex 3.41666 -8.01053 -3.35
      vertex 3.59819 -8.10756 -3.35
    endloop
  endfacet
  facet normal -0.634369 -0.77303 0
    outer loop
      vertex 3.25755 -7.87996 -3.35
      vertex 3.41666 -8.01053 3.35
      vertex 3.25755 -7.87996 3.35
    endloop
  endfacet
  facet normal -0.634369 -0.77303 -0
    outer loop
      vertex 3.41666 -8.01053 3.35
      vertex 3.25755 -7.87996 -3.35
      vertex 3.41666 -8.01053 -3.35
    endloop
  endfacet
  facet normal -0.773026 -0.634375 0
    outer loop
      vertex 3.25755 -7.87996 -3.35
      vertex 3.12697 -7.72084 3.35
      vertex 3.12697 -7.72084 -3.35
    endloop
  endfacet
  facet normal -0.773026 -0.634375 0
    outer loop
      vertex 3.12697 -7.72084 3.35
      vertex 3.25755 -7.87996 -3.35
      vertex 3.25755 -7.87996 3.35
    endloop
  endfacet
  facet normal -0.881921 -0.471397 0
    outer loop
      vertex 3.12697 -7.72084 -3.35
      vertex 3.02994 -7.53931 3.35
      vertex 3.02994 -7.53931 -3.35
    endloop
  endfacet
  facet normal -0.881921 -0.471397 0
    outer loop
      vertex 3.02994 -7.53931 3.35
      vertex 3.12697 -7.72084 -3.35
      vertex 3.12697 -7.72084 3.35
    endloop
  endfacet
  facet normal -0.956931 -0.290315 0
    outer loop
      vertex 3.02994 -7.53931 -3.35
      vertex 2.97018 -7.34233 3.35
      vertex 2.97018 -7.34233 -3.35
    endloop
  endfacet
  facet normal -0.956931 -0.290315 0
    outer loop
      vertex 2.97018 -7.34233 3.35
      vertex 3.02994 -7.53931 -3.35
      vertex 3.02994 -7.53931 3.35
    endloop
  endfacet
  facet normal -0.995187 -0.0979979 0
    outer loop
      vertex 2.97018 -7.34233 -3.35
      vertex 2.95001 -7.1375 3.35
      vertex 2.95001 -7.1375 -3.35
    endloop
  endfacet
  facet normal -0.995187 -0.0979979 0
    outer loop
      vertex 2.95001 -7.1375 3.35
      vertex 2.97018 -7.34233 -3.35
      vertex 2.97018 -7.34233 3.35
    endloop
  endfacet
  facet normal -1 0 0
    outer loop
      vertex 2.95001 -7.1375 -3.35
      vertex 2.95001 7.1375 3.35
      vertex 2.95001 7.1375 -3.35
    endloop
  endfacet
  facet normal -1 -0 0
    outer loop
      vertex 2.95001 7.1375 3.35
      vertex 2.95001 -7.1375 -3.35
      vertex 2.95001 -7.1375 3.35
    endloop
  endfacet
  facet normal -0.995187 0.0979979 0
    outer loop
      vertex 2.95001 7.1375 -3.35
      vertex 2.97018 7.34233 3.35
      vertex 2.97018 7.34233 -3.35
    endloop
  endfacet
  facet normal -0.995187 0.0979979 0
    outer loop
      vertex 2.97018 7.34233 3.35
      vertex 2.95001 7.1375 -3.35
      vertex 2.95001 7.1375 3.35
    endloop
  endfacet
endsolid OpenSCAD_Model
