solid OpenSCAD_Model
  facet normal 0 0 1
    outer loop
      vertex 7.07886 0.214584 3.35
      vertex 7.07886 -0.2146 3.35
      vertex 7.09999 0 3.35
    endloop
  endfacet
  facet normal 0 0 1
    outer loop
      vertex 7.01627 0.420944 3.35
      vertex 7.07886 -0.2146 3.35
      vertex 7.07886 0.214584 3.35
    endloop
  endfacet
  facet normal 0 0 1
    outer loop
      vertex 7.01627 0.420944 3.35
      vertex 7.01627 -0.420959 3.35
      vertex 7.07886 -0.2146 3.35
    endloop
  endfacet
  facet normal 0 0 1
    outer loop
      vertex 6.91461 0.611115 3.35
      vertex 7.01627 -0.420959 3.35
      vertex 7.01627 0.420944 3.35
    endloop
  endfacet
  facet normal 0 0 1
    outer loop
      vertex 6.91461 0.611115 3.35
      vertex 6.91461 -0.61113 3.35
      vertex 7.01627 -0.420959 3.35
    endloop
  endfacet
  facet normal 0 0 1
    outer loop
      vertex 6.77782 0.777817 3.35
      vertex 6.91461 -0.61113 3.35
      vertex 6.91461 0.611115 3.35
    endloop
  endfacet
  facet normal 0 0 1
    outer loop
      vertex 6.77782 0.777817 3.35
      vertex 6.77782 -0.777832 3.35
      vertex 6.91461 -0.61113 3.35
    endloop
  endfacet
  facet normal 0 0 1
    outer loop
      vertex 6.61111 0.914612 3.35
      vertex 6.77782 -0.777832 3.35
      vertex 6.77782 0.777817 3.35
    endloop
  endfacet
  facet normal 0 0 1
    outer loop
      vertex 6.61111 0.914612 3.35
      vertex 6.61111 -0.914627 3.35
      vertex 6.77782 -0.777832 3.35
    endloop
  endfacet
  facet normal 0 0 1
    outer loop
      vertex 6.42094 1.01627 3.35
      vertex 6.61111 -0.914627 3.35
      vertex 6.61111 0.914612 3.35
    endloop
  endfacet
  facet normal 0 0 1
    outer loop
      vertex 6.42094 1.01627 3.35
      vertex 6.42094 -1.01628 3.35
      vertex 6.61111 -0.914627 3.35
    endloop
  endfacet
  facet normal 0 0 1
    outer loop
      vertex 6.21458 1.07886 3.35
      vertex 6.42094 -1.01628 3.35
      vertex 6.42094 1.01627 3.35
    endloop
  endfacet
  facet normal 0 0 1
    outer loop
      vertex 6.21458 1.07886 3.35
      vertex 6.21458 -1.07887 3.35
      vertex 6.42094 -1.01628 3.35
    endloop
  endfacet
  facet normal 0 0 1
    outer loop
      vertex 6 1.09999 3.35
      vertex 6.21458 -1.07887 3.35
      vertex 6.21458 1.07886 3.35
    endloop
  endfacet
  facet normal 0 0 1
    outer loop
      vertex 6 1.09999 3.35
      vertex 6 -1.10001 3.35
      vertex 6.21458 -1.07887 3.35
    endloop
  endfacet
  facet normal 0 0 1
    outer loop
      vertex 6 1.09999 3.35
      vertex 1 -1.10001 3.35
      vertex 6 -1.10001 3.35
    endloop
  endfacet
  facet normal 0 0 1
    outer loop
      vertex -1 -17 3.35
      vertex 1 -17 3.35
      vertex 1 -1.10001 3.35
    endloop
  endfacet
  facet normal 0 0 1
    outer loop
      vertex 1 -17 3.35
      vertex -1 -17 3.35
      vertex 0.461929 -18.1913 3.35
    endloop
  endfacet
  facet normal 0 -0 1
    outer loop
      vertex -0.461929 -18.1913 3.35
      vertex 0.461929 -18.1913 3.35
      vertex -1 -17 3.35
    endloop
  endfacet
  facet normal 0 0 1
    outer loop
      vertex 0.461929 -18.1913 3.35
      vertex -0.461929 -18.1913 3.35
      vertex 0.415726 -18.2778 3.35
    endloop
  endfacet
  facet normal 0 0 1
    outer loop
      vertex 0.415726 -18.2778 3.35
      vertex -0.461929 -18.1913 3.35
      vertex 0.353546 -18.3535 3.35
    endloop
  endfacet
  facet normal 0 0 1
    outer loop
      vertex 0.353546 -18.3535 3.35
      vertex -0.461929 -18.1913 3.35
      vertex 0.277771 -18.4157 3.35
    endloop
  endfacet
  facet normal 0 0 1
    outer loop
      vertex 0.277771 -18.4157 3.35
      vertex -0.461929 -18.1913 3.35
      vertex 0.19133 -18.4619 3.35
    endloop
  endfacet
  facet normal 0 0 1
    outer loop
      vertex 0.19133 -18.4619 3.35
      vertex -0.461929 -18.1913 3.35
      vertex 0.0975342 -18.4904 3.35
    endloop
  endfacet
  facet normal 0 0 1
    outer loop
      vertex 0.0975342 -18.4904 3.35
      vertex -0.461929 -18.1913 3.35
      vertex 0 -18.5 3.35
    endloop
  endfacet
  facet normal 0 0 1
    outer loop
      vertex 0 -18.5 3.35
      vertex -0.461929 -18.1913 3.35
      vertex -0.0975342 -18.4904 3.35
    endloop
  endfacet
  facet normal 0 0 1
    outer loop
      vertex -0.0975342 -18.4904 3.35
      vertex -0.461929 -18.1913 3.35
      vertex -0.19133 -18.4619 3.35
    endloop
  endfacet
  facet normal 0 0 1
    outer loop
      vertex -0.19133 -18.4619 3.35
      vertex -0.461929 -18.1913 3.35
      vertex -0.277771 -18.4157 3.35
    endloop
  endfacet
  facet normal 0 0 1
    outer loop
      vertex -0.277771 -18.4157 3.35
      vertex -0.461929 -18.1913 3.35
      vertex -0.353546 -18.3535 3.35
    endloop
  endfacet
  facet normal 0 0 1
    outer loop
      vertex -1 -17 3.35
      vertex 1 -1.10001 3.35
      vertex -1 -1.10001 3.35
    endloop
  endfacet
  facet normal 0 0 1
    outer loop
      vertex 6 1.09999 3.35
      vertex -1 -1.10001 3.35
      vertex 1 -1.10001 3.35
    endloop
  endfacet
  facet normal -0 0 1
    outer loop
      vertex -6 1.09999 3.35
      vertex -1 -1.10001 3.35
      vertex 6 1.09999 3.35
    endloop
  endfacet
  facet normal 0 0 1
    outer loop
      vertex -6 1.09999 3.35
      vertex -6 -1.10001 3.35
      vertex -1 -1.10001 3.35
    endloop
  endfacet
  facet normal -0 0 1
    outer loop
      vertex -6.21458 1.07886 3.35
      vertex -6 -1.10001 3.35
      vertex -6 1.09999 3.35
    endloop
  endfacet
  facet normal 0 0 1
    outer loop
      vertex -6.21458 1.07886 3.35
      vertex -6.21458 -1.07887 3.35
      vertex -6 -1.10001 3.35
    endloop
  endfacet
  facet normal -0 0 1
    outer loop
      vertex -6.42094 1.01627 3.35
      vertex -6.21458 -1.07887 3.35
      vertex -6.21458 1.07886 3.35
    endloop
  endfacet
  facet normal 0 0 1
    outer loop
      vertex -6.42094 1.01627 3.35
      vertex -6.42094 -1.01628 3.35
      vertex -6.21458 -1.07887 3.35
    endloop
  endfacet
  facet normal -0 0 1
    outer loop
      vertex -6.61111 0.914612 3.35
      vertex -6.42094 -1.01628 3.35
      vertex -6.42094 1.01627 3.35
    endloop
  endfacet
  facet normal 0 0 1
    outer loop
      vertex -6.61111 0.914612 3.35
      vertex -6.61111 -0.914627 3.35
      vertex -6.42094 -1.01628 3.35
    endloop
  endfacet
  facet normal -0 0 1
    outer loop
      vertex -6.77782 0.777817 3.35
      vertex -6.61111 -0.914627 3.35
      vertex -6.61111 0.914612 3.35
    endloop
  endfacet
  facet normal 0 0 1
    outer loop
      vertex -6.77782 0.777817 3.35
      vertex -6.77782 -0.777832 3.35
      vertex -6.61111 -0.914627 3.35
    endloop
  endfacet
  facet normal -0 0 1
    outer loop
      vertex -6.91461 0.611115 3.35
      vertex -6.77782 -0.777832 3.35
      vertex -6.77782 0.777817 3.35
    endloop
  endfacet
  facet normal 0 0 1
    outer loop
      vertex -6.91461 0.611115 3.35
      vertex -6.91461 -0.61113 3.35
      vertex -6.77782 -0.777832 3.35
    endloop
  endfacet
  facet normal -0 0 1
    outer loop
      vertex -7.01627 0.420944 3.35
      vertex -6.91461 -0.61113 3.35
      vertex -6.91461 0.611115 3.35
    endloop
  endfacet
  facet normal 0 0 1
    outer loop
      vertex -7.01627 0.420944 3.35
      vertex -7.01627 -0.420959 3.35
      vertex -6.91461 -0.61113 3.35
    endloop
  endfacet
  facet normal -0 0 1
    outer loop
      vertex -7.07886 0.214584 3.35
      vertex -7.01627 -0.420959 3.35
      vertex -7.01627 0.420944 3.35
    endloop
  endfacet
  facet normal 0 0 1
    outer loop
      vertex -7.07886 0.214584 3.35
      vertex -7.07886 -0.2146 3.35
      vertex -7.01627 -0.420959 3.35
    endloop
  endfacet
  facet normal 0 -0 1
    outer loop
      vertex -7.07886 -0.2146 3.35
      vertex -7.07886 0.214584 3.35
      vertex -7.09999 0 3.35
    endloop
  endfacet
  facet normal 0 0 1
    outer loop
      vertex -0.353546 -18.3535 3.35
      vertex -0.461929 -18.1913 3.35
      vertex -0.415726 -18.2778 3.35
    endloop
  endfacet
  facet normal 0 0 -1
    outer loop
      vertex -1 -17 -3.35
      vertex 1 -17 -3.35
      vertex 0.461929 -18.1913 -3.35
    endloop
  endfacet
  facet normal 0 0 -1
    outer loop
      vertex 7.07886 -0.2146 -3.35
      vertex 7.07886 0.214584 -3.35
      vertex 7.09999 0 -3.35
    endloop
  endfacet
  facet normal 0 0 -1
    outer loop
      vertex 7.01627 -0.420959 -3.35
      vertex 7.07886 0.214584 -3.35
      vertex 7.07886 -0.2146 -3.35
    endloop
  endfacet
  facet normal 0 0 -1
    outer loop
      vertex 7.01627 -0.420959 -3.35
      vertex 7.01627 0.420944 -3.35
      vertex 7.07886 0.214584 -3.35
    endloop
  endfacet
  facet normal 0 0 -1
    outer loop
      vertex 6.91461 -0.61113 -3.35
      vertex 7.01627 0.420944 -3.35
      vertex 7.01627 -0.420959 -3.35
    endloop
  endfacet
  facet normal 0 0 -1
    outer loop
      vertex 6.91461 -0.61113 -3.35
      vertex 6.91461 0.611115 -3.35
      vertex 7.01627 0.420944 -3.35
    endloop
  endfacet
  facet normal 0 0 -1
    outer loop
      vertex 6.77782 -0.777832 -3.35
      vertex 6.91461 0.611115 -3.35
      vertex 6.91461 -0.61113 -3.35
    endloop
  endfacet
  facet normal 0 0 -1
    outer loop
      vertex 6.77782 -0.777832 -3.35
      vertex 6.77782 0.777817 -3.35
      vertex 6.91461 0.611115 -3.35
    endloop
  endfacet
  facet normal 0 0 -1
    outer loop
      vertex 6.61111 -0.914627 -3.35
      vertex 6.77782 0.777817 -3.35
      vertex 6.77782 -0.777832 -3.35
    endloop
  endfacet
  facet normal 0 0 -1
    outer loop
      vertex 6.61111 -0.914627 -3.35
      vertex 6.61111 0.914612 -3.35
      vertex 6.77782 0.777817 -3.35
    endloop
  endfacet
  facet normal 0 0 -1
    outer loop
      vertex 6.42094 -1.01628 -3.35
      vertex 6.61111 0.914612 -3.35
      vertex 6.61111 -0.914627 -3.35
    endloop
  endfacet
  facet normal 0 0 -1
    outer loop
      vertex 6.42094 -1.01628 -3.35
      vertex 6.42094 1.01627 -3.35
      vertex 6.61111 0.914612 -3.35
    endloop
  endfacet
  facet normal 0 0 -1
    outer loop
      vertex 6.21458 -1.07887 -3.35
      vertex 6.42094 1.01627 -3.35
      vertex 6.42094 -1.01628 -3.35
    endloop
  endfacet
  facet normal 0 0 -1
    outer loop
      vertex 6.21458 -1.07887 -3.35
      vertex 6.21458 1.07886 -3.35
      vertex 6.42094 1.01627 -3.35
    endloop
  endfacet
  facet normal 0 0 -1
    outer loop
      vertex 6 -1.10001 -3.35
      vertex 6.21458 1.07886 -3.35
      vertex 6.21458 -1.07887 -3.35
    endloop
  endfacet
  facet normal 0 0 -1
    outer loop
      vertex 6 -1.10001 -3.35
      vertex 6 1.09999 -3.35
      vertex 6.21458 1.07886 -3.35
    endloop
  endfacet
  facet normal 0 0 -1
    outer loop
      vertex 1 -1.10001 -3.35
      vertex 6 1.09999 -3.35
      vertex 6 -1.10001 -3.35
    endloop
  endfacet
  facet normal 0 0 -1
    outer loop
      vertex -0.461929 -18.1913 -3.35
      vertex 0.461929 -18.1913 -3.35
      vertex 0.415726 -18.2778 -3.35
    endloop
  endfacet
  facet normal 0 0 -1
    outer loop
      vertex -0.461929 -18.1913 -3.35
      vertex 0.415726 -18.2778 -3.35
      vertex 0.353546 -18.3535 -3.35
    endloop
  endfacet
  facet normal 0 0 -1
    outer loop
      vertex -0.461929 -18.1913 -3.35
      vertex 0.353546 -18.3535 -3.35
      vertex 0.277771 -18.4157 -3.35
    endloop
  endfacet
  facet normal 0 0 -1
    outer loop
      vertex -0.461929 -18.1913 -3.35
      vertex 0.277771 -18.4157 -3.35
      vertex 0.19133 -18.4619 -3.35
    endloop
  endfacet
  facet normal 0 0 -1
    outer loop
      vertex -0.461929 -18.1913 -3.35
      vertex 0.19133 -18.4619 -3.35
      vertex 0.0975342 -18.4904 -3.35
    endloop
  endfacet
  facet normal 0 0 -1
    outer loop
      vertex -0.461929 -18.1913 -3.35
      vertex 0.0975342 -18.4904 -3.35
      vertex 0 -18.5 -3.35
    endloop
  endfacet
  facet normal 0 0 -1
    outer loop
      vertex -0.461929 -18.1913 -3.35
      vertex 0 -18.5 -3.35
      vertex -0.0975342 -18.4904 -3.35
    endloop
  endfacet
  facet normal 0 0 -1
    outer loop
      vertex -0.461929 -18.1913 -3.35
      vertex -0.0975342 -18.4904 -3.35
      vertex -0.19133 -18.4619 -3.35
    endloop
  endfacet
  facet normal 0 0 -1
    outer loop
      vertex -0.461929 -18.1913 -3.35
      vertex -0.19133 -18.4619 -3.35
      vertex -0.277771 -18.4157 -3.35
    endloop
  endfacet
  facet normal 0 0 -1
    outer loop
      vertex -0.461929 -18.1913 -3.35
      vertex -0.277771 -18.4157 -3.35
      vertex -0.353546 -18.3535 -3.35
    endloop
  endfacet
  facet normal 0 0 -1
    outer loop
      vertex -0.461929 -18.1913 -3.35
      vertex -0.353546 -18.3535 -3.35
      vertex -0.415726 -18.2778 -3.35
    endloop
  endfacet
  facet normal 0 0 -1
    outer loop
      vertex 0.461929 -18.1913 -3.35
      vertex -0.461929 -18.1913 -3.35
      vertex -1 -17 -3.35
    endloop
  endfacet
  facet normal 0 0 -1
    outer loop
      vertex 1 -17 -3.35
      vertex -1 -17 -3.35
      vertex 1 -1.10001 -3.35
    endloop
  endfacet
  facet normal 0 0 -1
    outer loop
      vertex -1 -1.10001 -3.35
      vertex 1 -1.10001 -3.35
      vertex -1 -17 -3.35
    endloop
  endfacet
  facet normal 0 0 -1
    outer loop
      vertex -1 -1.10001 -3.35
      vertex 6 1.09999 -3.35
      vertex 1 -1.10001 -3.35
    endloop
  endfacet
  facet normal 0 0 -1
    outer loop
      vertex -6 1.09999 -3.35
      vertex -1 -1.10001 -3.35
      vertex -6 -1.10001 -3.35
    endloop
  endfacet
  facet normal 0 0 -1
    outer loop
      vertex -1 -1.10001 -3.35
      vertex -6 1.09999 -3.35
      vertex 6 1.09999 -3.35
    endloop
  endfacet
  facet normal 0 0 -1
    outer loop
      vertex -6.21458 -1.07887 -3.35
      vertex -6 1.09999 -3.35
      vertex -6 -1.10001 -3.35
    endloop
  endfacet
  facet normal 0 0 -1
    outer loop
      vertex -6.21458 -1.07887 -3.35
      vertex -6.21458 1.07886 -3.35
      vertex -6 1.09999 -3.35
    endloop
  endfacet
  facet normal 0 0 -1
    outer loop
      vertex -6.42094 -1.01628 -3.35
      vertex -6.21458 1.07886 -3.35
      vertex -6.21458 -1.07887 -3.35
    endloop
  endfacet
  facet normal 0 0 -1
    outer loop
      vertex -6.42094 -1.01628 -3.35
      vertex -6.42094 1.01627 -3.35
      vertex -6.21458 1.07886 -3.35
    endloop
  endfacet
  facet normal 0 0 -1
    outer loop
      vertex -6.61111 -0.914627 -3.35
      vertex -6.42094 1.01627 -3.35
      vertex -6.42094 -1.01628 -3.35
    endloop
  endfacet
  facet normal 0 0 -1
    outer loop
      vertex -6.61111 -0.914627 -3.35
      vertex -6.61111 0.914612 -3.35
      vertex -6.42094 1.01627 -3.35
    endloop
  endfacet
  facet normal 0 0 -1
    outer loop
      vertex -6.77782 -0.777832 -3.35
      vertex -6.61111 0.914612 -3.35
      vertex -6.61111 -0.914627 -3.35
    endloop
  endfacet
  facet normal 0 0 -1
    outer loop
      vertex -6.77782 -0.777832 -3.35
      vertex -6.77782 0.777817 -3.35
      vertex -6.61111 0.914612 -3.35
    endloop
  endfacet
  facet normal 0 0 -1
    outer loop
      vertex -6.91461 -0.61113 -3.35
      vertex -6.77782 0.777817 -3.35
      vertex -6.77782 -0.777832 -3.35
    endloop
  endfacet
  facet normal 0 0 -1
    outer loop
      vertex -6.91461 -0.61113 -3.35
      vertex -6.91461 0.611115 -3.35
      vertex -6.77782 0.777817 -3.35
    endloop
  endfacet
  facet normal 0 0 -1
    outer loop
      vertex -7.01627 -0.420959 -3.35
      vertex -6.91461 0.611115 -3.35
      vertex -6.91461 -0.61113 -3.35
    endloop
  endfacet
  facet normal 0 0 -1
    outer loop
      vertex -7.01627 -0.420959 -3.35
      vertex -7.01627 0.420944 -3.35
      vertex -6.91461 0.611115 -3.35
    endloop
  endfacet
  facet normal 0 0 -1
    outer loop
      vertex -7.07886 -0.2146 -3.35
      vertex -7.01627 0.420944 -3.35
      vertex -7.01627 -0.420959 -3.35
    endloop
  endfacet
  facet normal 0 0 -1
    outer loop
      vertex -7.07886 -0.2146 -3.35
      vertex -7.07886 0.214584 -3.35
      vertex -7.01627 0.420944 -3.35
    endloop
  endfacet
  facet normal 0 -0 -1
    outer loop
      vertex -7.07886 0.214584 -3.35
      vertex -7.07886 -0.2146 -3.35
      vertex -7.09999 0 -3.35
    endloop
  endfacet
  facet normal 0.882058 -0.471141 0
    outer loop
      vertex 0.415726 -18.2778 3.35
      vertex 0.461929 -18.1913 -3.35
      vertex 0.461929 -18.1913 3.35
    endloop
  endfacet
  facet normal 0.882058 -0.471141 0
    outer loop
      vertex 0.461929 -18.1913 -3.35
      vertex 0.415726 -18.2778 3.35
      vertex 0.415726 -18.2778 -3.35
    endloop
  endfacet
  facet normal 0.772737 -0.634726 0
    outer loop
      vertex 0.353546 -18.3535 3.35
      vertex 0.415726 -18.2778 -3.35
      vertex 0.415726 -18.2778 3.35
    endloop
  endfacet
  facet normal 0.772737 -0.634726 0
    outer loop
      vertex 0.415726 -18.2778 -3.35
      vertex 0.353546 -18.3535 3.35
      vertex 0.353546 -18.3535 -3.35
    endloop
  endfacet
  facet normal 0.634473 -0.772945 0
    outer loop
      vertex 0.277771 -18.4157 -3.35
      vertex 0.353546 -18.3535 3.35
      vertex 0.277771 -18.4157 3.35
    endloop
  endfacet
  facet normal 0.634473 -0.772945 0
    outer loop
      vertex 0.353546 -18.3535 3.35
      vertex 0.277771 -18.4157 -3.35
      vertex 0.353546 -18.3535 -3.35
    endloop
  endfacet
  facet normal 0.471368 -0.881937 0
    outer loop
      vertex 0.19133 -18.4619 -3.35
      vertex 0.277771 -18.4157 3.35
      vertex 0.19133 -18.4619 3.35
    endloop
  endfacet
  facet normal 0.471368 -0.881937 0
    outer loop
      vertex 0.277771 -18.4157 3.35
      vertex 0.19133 -18.4619 -3.35
      vertex 0.277771 -18.4157 -3.35
    endloop
  endfacet
  facet normal 0.290727 -0.956806 0
    outer loop
      vertex 0.0975342 -18.4904 -3.35
      vertex 0.19133 -18.4619 3.35
      vertex 0.0975342 -18.4904 3.35
    endloop
  endfacet
  facet normal 0.290727 -0.956806 0
    outer loop
      vertex 0.19133 -18.4619 3.35
      vertex 0.0975342 -18.4904 -3.35
      vertex 0.19133 -18.4619 -3.35
    endloop
  endfacet
  facet normal 0.0979537 -0.995191 0
    outer loop
      vertex 0 -18.5 -3.35
      vertex 0.0975342 -18.4904 3.35
      vertex 0 -18.5 3.35
    endloop
  endfacet
  facet normal 0.0979537 -0.995191 0
    outer loop
      vertex 0.0975342 -18.4904 3.35
      vertex 0 -18.5 -3.35
      vertex 0.0975342 -18.4904 -3.35
    endloop
  endfacet
  facet normal -0.0979537 -0.995191 0
    outer loop
      vertex -0.0975342 -18.4904 -3.35
      vertex 0 -18.5 3.35
      vertex -0.0975342 -18.4904 3.35
    endloop
  endfacet
  facet normal -0.0979537 -0.995191 -0
    outer loop
      vertex 0 -18.5 3.35
      vertex -0.0975342 -18.4904 -3.35
      vertex 0 -18.5 -3.35
    endloop
  endfacet
  facet normal -0.290727 -0.956806 0
    outer loop
      vertex -0.19133 -18.4619 -3.35
      vertex -0.0975342 -18.4904 3.35
      vertex -0.19133 -18.4619 3.35
    endloop
  endfacet
  facet normal -0.290727 -0.956806 -0
    outer loop
      vertex -0.0975342 -18.4904 3.35
      vertex -0.19133 -18.4619 -3.35
      vertex -0.0975342 -18.4904 -3.35
    endloop
  endfacet
  facet normal -0.471368 -0.881937 0
    outer loop
      vertex -0.277771 -18.4157 -3.35
      vertex -0.19133 -18.4619 3.35
      vertex -0.277771 -18.4157 3.35
    endloop
  endfacet
  facet normal -0.471368 -0.881937 -0
    outer loop
      vertex -0.19133 -18.4619 3.35
      vertex -0.277771 -18.4157 -3.35
      vertex -0.19133 -18.4619 -3.35
    endloop
  endfacet
  facet normal -0.634473 -0.772945 0
    outer loop
      vertex -0.353546 -18.3535 -3.35
      vertex -0.277771 -18.4157 3.35
      vertex -0.353546 -18.3535 3.35
    endloop
  endfacet
  facet normal -0.634473 -0.772945 -0
    outer loop
      vertex -0.277771 -18.4157 3.35
      vertex -0.353546 -18.3535 -3.35
      vertex -0.277771 -18.4157 -3.35
    endloop
  endfacet
  facet normal -0.772737 -0.634726 0
    outer loop
      vertex -0.353546 -18.3535 -3.35
      vertex -0.415726 -18.2778 3.35
      vertex -0.415726 -18.2778 -3.35
    endloop
  endfacet
  facet normal -0.772737 -0.634726 0
    outer loop
      vertex -0.415726 -18.2778 3.35
      vertex -0.353546 -18.3535 -3.35
      vertex -0.353546 -18.3535 3.35
    endloop
  endfacet
  facet normal -0.882058 -0.471141 0
    outer loop
      vertex -0.415726 -18.2778 -3.35
      vertex -0.461929 -18.1913 3.35
      vertex -0.461929 -18.1913 -3.35
    endloop
  endfacet
  facet normal -0.882058 -0.471141 0
    outer loop
      vertex -0.461929 -18.1913 3.35
      vertex -0.415726 -18.2778 -3.35
      vertex -0.415726 -18.2778 3.35
    endloop
  endfacet
  facet normal -0.911352 -0.411628 0
    outer loop
      vertex -0.461929 -18.1913 -3.35
      vertex -1 -17 3.35
      vertex -1 -17 -3.35
    endloop
  endfacet
  facet normal -0.911352 -0.411628 0
    outer loop
      vertex -1 -17 3.35
      vertex -0.461929 -18.1913 -3.35
      vertex -0.461929 -18.1913 3.35
    endloop
  endfacet
  facet normal -1 0 0
    outer loop
      vertex -1 -17 -3.35
      vertex -1 -1.10001 3.35
      vertex -1 -1.10001 -3.35
    endloop
  endfacet
  facet normal -1 -0 0
    outer loop
      vertex -1 -1.10001 3.35
      vertex -1 -17 -3.35
      vertex -1 -17 3.35
    endloop
  endfacet
  facet normal 0 -1 0
    outer loop
      vertex -6 -1.10001 -3.35
      vertex -1 -1.10001 3.35
      vertex -6 -1.10001 3.35
    endloop
  endfacet
  facet normal 0 -1 -0
    outer loop
      vertex -1 -1.10001 3.35
      vertex -6 -1.10001 -3.35
      vertex -1 -1.10001 -3.35
    endloop
  endfacet
  facet normal -0.0980434 -0.995182 0
    outer loop
      vertex -6.21458 -1.07887 -3.35
      vertex -6 -1.10001 3.35
      vertex -6.21458 -1.07887 3.35
    endloop
  endfacet
  facet normal -0.0980434 -0.995182 -0
    outer loop
      vertex -6 -1.10001 3.35
      vertex -6.21458 -1.07887 -3.35
      vertex -6 -1.10001 -3.35
    endloop
  endfacet
  facet normal -0.290248 -0.956951 0
    outer loop
      vertex -6.42094 -1.01628 -3.35
      vertex -6.21458 -1.07887 3.35
      vertex -6.42094 -1.01628 3.35
    endloop
  endfacet
  facet normal -0.290248 -0.956951 -0
    outer loop
      vertex -6.21458 -1.07887 3.35
      vertex -6.42094 -1.01628 -3.35
      vertex -6.21458 -1.07887 -3.35
    endloop
  endfacet
  facet normal -0.471415 -0.881912 0
    outer loop
      vertex -6.61111 -0.914627 -3.35
      vertex -6.42094 -1.01628 3.35
      vertex -6.61111 -0.914627 3.35
    endloop
  endfacet
  facet normal -0.471415 -0.881912 -0
    outer loop
      vertex -6.42094 -1.01628 3.35
      vertex -6.61111 -0.914627 -3.35
      vertex -6.42094 -1.01628 -3.35
    endloop
  endfacet
  facet normal -0.634337 -0.773057 0
    outer loop
      vertex -6.77782 -0.777832 -3.35
      vertex -6.61111 -0.914627 3.35
      vertex -6.77782 -0.777832 3.35
    endloop
  endfacet
  facet normal -0.634337 -0.773057 -0
    outer loop
      vertex -6.61111 -0.914627 3.35
      vertex -6.77782 -0.777832 -3.35
      vertex -6.61111 -0.914627 -3.35
    endloop
  endfacet
  facet normal -0.773053 -0.634341 0
    outer loop
      vertex -6.77782 -0.777832 -3.35
      vertex -6.91461 -0.61113 3.35
      vertex -6.91461 -0.61113 -3.35
    endloop
  endfacet
  facet normal -0.773053 -0.634341 0
    outer loop
      vertex -6.91461 -0.61113 3.35
      vertex -6.77782 -0.777832 -3.35
      vertex -6.77782 -0.777832 3.35
    endloop
  endfacet
  facet normal -0.881899 -0.471438 0
    outer loop
      vertex -6.91461 -0.61113 -3.35
      vertex -7.01627 -0.420959 3.35
      vertex -7.01627 -0.420959 -3.35
    endloop
  endfacet
  facet normal -0.881899 -0.471438 0
    outer loop
      vertex -7.01627 -0.420959 3.35
      vertex -6.91461 -0.61113 -3.35
      vertex -6.91461 -0.61113 3.35
    endloop
  endfacet
  facet normal -0.956951 -0.290249 0
    outer loop
      vertex -7.01627 -0.420959 -3.35
      vertex -7.07886 -0.2146 3.35
      vertex -7.07886 -0.2146 -3.35
    endloop
  endfacet
  facet normal -0.956951 -0.290249 0
    outer loop
      vertex -7.07886 -0.2146 3.35
      vertex -7.01627 -0.420959 -3.35
      vertex -7.01627 -0.420959 3.35
    endloop
  endfacet
  facet normal -0.995188 -0.0979884 0
    outer loop
      vertex -7.07886 -0.2146 -3.35
      vertex -7.09999 0 3.35
      vertex -7.09999 0 -3.35
    endloop
  endfacet
  facet normal -0.995188 -0.0979884 0
    outer loop
      vertex -7.09999 0 3.35
      vertex -7.07886 -0.2146 -3.35
      vertex -7.07886 -0.2146 3.35
    endloop
  endfacet
  facet normal -0.995187 0.0979956 0
    outer loop
      vertex -7.09999 0 -3.35
      vertex -7.07886 0.214584 3.35
      vertex -7.07886 0.214584 -3.35
    endloop
  endfacet
  facet normal -0.995187 0.0979956 0
    outer loop
      vertex -7.07886 0.214584 3.35
      vertex -7.09999 0 -3.35
      vertex -7.09999 0 3.35
    endloop
  endfacet
  facet normal -0.956951 0.290248 0
    outer loop
      vertex -7.07886 0.214584 -3.35
      vertex -7.01627 0.420944 3.35
      vertex -7.01627 0.420944 -3.35
    endloop
  endfacet
  facet normal -0.956951 0.290248 0
    outer loop
      vertex -7.01627 0.420944 3.35
      vertex -7.07886 0.214584 -3.35
      vertex -7.07886 0.214584 3.35
    endloop
  endfacet
  facet normal -0.881899 0.471438 0
    outer loop
      vertex -7.01627 0.420944 -3.35
      vertex -6.91461 0.611115 3.35
      vertex -6.91461 0.611115 -3.35
    endloop
  endfacet
  facet normal -0.881899 0.471438 0
    outer loop
      vertex -6.91461 0.611115 3.35
      vertex -7.01627 0.420944 -3.35
      vertex -7.01627 0.420944 3.35
    endloop
  endfacet
  facet normal -0.773053 0.634341 0
    outer loop
      vertex -6.91461 0.611115 -3.35
      vertex -6.77782 0.777817 3.35
      vertex -6.77782 0.777817 -3.35
    endloop
  endfacet
  facet normal -0.773053 0.634341 0
    outer loop
      vertex -6.77782 0.777817 3.35
      vertex -6.91461 0.611115 -3.35
      vertex -6.91461 0.611115 3.35
    endloop
  endfacet
  facet normal -0.634337 0.773057 0
    outer loop
      vertex -6.61111 0.914612 -3.35
      vertex -6.77782 0.777817 3.35
      vertex -6.61111 0.914612 3.35
    endloop
  endfacet
  facet normal -0.634337 0.773057 0
    outer loop
      vertex -6.77782 0.777817 3.35
      vertex -6.61111 0.914612 -3.35
      vertex -6.77782 0.777817 -3.35
    endloop
  endfacet
  facet normal -0.471433 0.881902 0
    outer loop
      vertex -6.42094 1.01627 -3.35
      vertex -6.61111 0.914612 3.35
      vertex -6.42094 1.01627 3.35
    endloop
  endfacet
  facet normal -0.471433 0.881902 0
    outer loop
      vertex -6.61111 0.914612 3.35
      vertex -6.42094 1.01627 -3.35
      vertex -6.61111 0.914612 -3.35
    endloop
  endfacet
  facet normal -0.290248 0.956951 0
    outer loop
      vertex -6.21458 1.07886 -3.35
      vertex -6.42094 1.01627 3.35
      vertex -6.21458 1.07886 3.35
    endloop
  endfacet
  facet normal -0.290248 0.956951 0
    outer loop
      vertex -6.42094 1.01627 3.35
      vertex -6.21458 1.07886 -3.35
      vertex -6.42094 1.01627 -3.35
    endloop
  endfacet
  facet normal -0.0979975 0.995187 0
    outer loop
      vertex -6 1.09999 -3.35
      vertex -6.21458 1.07886 3.35
      vertex -6 1.09999 3.35
    endloop
  endfacet
  facet normal -0.0979975 0.995187 0
    outer loop
      vertex -6.21458 1.07886 3.35
      vertex -6 1.09999 -3.35
      vertex -6.21458 1.07886 -3.35
    endloop
  endfacet
  facet normal 0 1 -0
    outer loop
      vertex 6 1.09999 -3.35
      vertex -6 1.09999 3.35
      vertex 6 1.09999 3.35
    endloop
  endfacet
  facet normal 0 1 0
    outer loop
      vertex -6 1.09999 3.35
      vertex 6 1.09999 -3.35
      vertex -6 1.09999 -3.35
    endloop
  endfacet
  facet normal 0.0979975 0.995187 -0
    outer loop
      vertex 6.21458 1.07886 -3.35
      vertex 6 1.09999 3.35
      vertex 6.21458 1.07886 3.35
    endloop
  endfacet
  facet normal 0.0979975 0.995187 0
    outer loop
      vertex 6 1.09999 3.35
      vertex 6.21458 1.07886 -3.35
      vertex 6 1.09999 -3.35
    endloop
  endfacet
  facet normal 0.290248 0.956951 -0
    outer loop
      vertex 6.42094 1.01627 -3.35
      vertex 6.21458 1.07886 3.35
      vertex 6.42094 1.01627 3.35
    endloop
  endfacet
  facet normal 0.290248 0.956951 0
    outer loop
      vertex 6.21458 1.07886 3.35
      vertex 6.42094 1.01627 -3.35
      vertex 6.21458 1.07886 -3.35
    endloop
  endfacet
  facet normal 0.471433 0.881902 -0
    outer loop
      vertex 6.61111 0.914612 -3.35
      vertex 6.42094 1.01627 3.35
      vertex 6.61111 0.914612 3.35
    endloop
  endfacet
  facet normal 0.471433 0.881902 0
    outer loop
      vertex 6.42094 1.01627 3.35
      vertex 6.61111 0.914612 -3.35
      vertex 6.42094 1.01627 -3.35
    endloop
  endfacet
  facet normal 0.634337 0.773057 -0
    outer loop
      vertex 6.77782 0.777817 -3.35
      vertex 6.61111 0.914612 3.35
      vertex 6.77782 0.777817 3.35
    endloop
  endfacet
  facet normal 0.634337 0.773057 0
    outer loop
      vertex 6.61111 0.914612 3.35
      vertex 6.77782 0.777817 -3.35
      vertex 6.61111 0.914612 -3.35
    endloop
  endfacet
  facet normal 0.773053 0.634341 0
    outer loop
      vertex 6.91461 0.611115 3.35
      vertex 6.77782 0.777817 -3.35
      vertex 6.77782 0.777817 3.35
    endloop
  endfacet
  facet normal 0.773053 0.634341 0
    outer loop
      vertex 6.77782 0.777817 -3.35
      vertex 6.91461 0.611115 3.35
      vertex 6.91461 0.611115 -3.35
    endloop
  endfacet
  facet normal 0.881899 0.471438 0
    outer loop
      vertex 7.01627 0.420944 3.35
      vertex 6.91461 0.611115 -3.35
      vertex 6.91461 0.611115 3.35
    endloop
  endfacet
  facet normal 0.881899 0.471438 0
    outer loop
      vertex 6.91461 0.611115 -3.35
      vertex 7.01627 0.420944 3.35
      vertex 7.01627 0.420944 -3.35
    endloop
  endfacet
  facet normal 0.956951 0.290248 0
    outer loop
      vertex 7.07886 0.214584 3.35
      vertex 7.01627 0.420944 -3.35
      vertex 7.01627 0.420944 3.35
    endloop
  endfacet
  facet normal 0.956951 0.290248 0
    outer loop
      vertex 7.01627 0.420944 -3.35
      vertex 7.07886 0.214584 3.35
      vertex 7.07886 0.214584 -3.35
    endloop
  endfacet
  facet normal 0.995187 0.0979956 0
    outer loop
      vertex 7.09999 0 3.35
      vertex 7.07886 0.214584 -3.35
      vertex 7.07886 0.214584 3.35
    endloop
  endfacet
  facet normal 0.995187 0.0979956 0
    outer loop
      vertex 7.07886 0.214584 -3.35
      vertex 7.09999 0 3.35
      vertex 7.09999 0 -3.35
    endloop
  endfacet
  facet normal 0.995188 -0.0979884 0
    outer loop
      vertex 7.07886 -0.2146 3.35
      vertex 7.09999 0 -3.35
      vertex 7.09999 0 3.35
    endloop
  endfacet
  facet normal 0.995188 -0.0979884 0
    outer loop
      vertex 7.09999 0 -3.35
      vertex 7.07886 -0.2146 3.35
      vertex 7.07886 -0.2146 -3.35
    endloop
  endfacet
  facet normal 0.956951 -0.290249 0
    outer loop
      vertex 7.01627 -0.420959 3.35
      vertex 7.07886 -0.2146 -3.35
      vertex 7.07886 -0.2146 3.35
    endloop
  endfacet
  facet normal 0.956951 -0.290249 0
    outer loop
      vertex 7.07886 -0.2146 -3.35
      vertex 7.01627 -0.420959 3.35
      vertex 7.01627 -0.420959 -3.35
    endloop
  endfacet
  facet normal 0.881899 -0.471438 0
    outer loop
      vertex 6.91461 -0.61113 3.35
      vertex 7.01627 -0.420959 -3.35
      vertex 7.01627 -0.420959 3.35
    endloop
  endfacet
  facet normal 0.881899 -0.471438 0
    outer loop
      vertex 7.01627 -0.420959 -3.35
      vertex 6.91461 -0.61113 3.35
      vertex 6.91461 -0.61113 -3.35
    endloop
  endfacet
  facet normal 0.773053 -0.634341 0
    outer loop
      vertex 6.77782 -0.777832 3.35
      vertex 6.91461 -0.61113 -3.35
      vertex 6.91461 -0.61113 3.35
    endloop
  endfacet
  facet normal 0.773053 -0.634341 0
    outer loop
      vertex 6.91461 -0.61113 -3.35
      vertex 6.77782 -0.777832 3.35
      vertex 6.77782 -0.777832 -3.35
    endloop
  endfacet
  facet normal 0.634337 -0.773057 0
    outer loop
      vertex 6.61111 -0.914627 -3.35
      vertex 6.77782 -0.777832 3.35
      vertex 6.61111 -0.914627 3.35
    endloop
  endfacet
  facet normal 0.634337 -0.773057 0
    outer loop
      vertex 6.77782 -0.777832 3.35
      vertex 6.61111 -0.914627 -3.35
      vertex 6.77782 -0.777832 -3.35
    endloop
  endfacet
  facet normal 0.471415 -0.881912 0
    outer loop
      vertex 6.42094 -1.01628 -3.35
      vertex 6.61111 -0.914627 3.35
      vertex 6.42094 -1.01628 3.35
    endloop
  endfacet
  facet normal 0.471415 -0.881912 0
    outer loop
      vertex 6.61111 -0.914627 3.35
      vertex 6.42094 -1.01628 -3.35
      vertex 6.61111 -0.914627 -3.35
    endloop
  endfacet
  facet normal 0.290248 -0.956951 0
    outer loop
      vertex 6.21458 -1.07887 -3.35
      vertex 6.42094 -1.01628 3.35
      vertex 6.21458 -1.07887 3.35
    endloop
  endfacet
  facet normal 0.290248 -0.956951 0
    outer loop
      vertex 6.42094 -1.01628 3.35
      vertex 6.21458 -1.07887 -3.35
      vertex 6.42094 -1.01628 -3.35
    endloop
  endfacet
  facet normal 0.0980434 -0.995182 0
    outer loop
      vertex 6 -1.10001 -3.35
      vertex 6.21458 -1.07887 3.35
      vertex 6 -1.10001 3.35
    endloop
  endfacet
  facet normal 0.0980434 -0.995182 0
    outer loop
      vertex 6.21458 -1.07887 3.35
      vertex 6 -1.10001 -3.35
      vertex 6.21458 -1.07887 -3.35
    endloop
  endfacet
  facet normal 0 -1 0
    outer loop
      vertex 1 -1.10001 -3.35
      vertex 6 -1.10001 3.35
      vertex 1 -1.10001 3.35
    endloop
  endfacet
  facet normal 0 -1 -0
    outer loop
      vertex 6 -1.10001 3.35
      vertex 1 -1.10001 -3.35
      vertex 6 -1.10001 -3.35
    endloop
  endfacet
  facet normal 1 -0 0
    outer loop
      vertex 1 -17 3.35
      vertex 1 -1.10001 -3.35
      vertex 1 -1.10001 3.35
    endloop
  endfacet
  facet normal 1 0 0
    outer loop
      vertex 1 -1.10001 -3.35
      vertex 1 -17 3.35
      vertex 1 -17 -3.35
    endloop
  endfacet
  facet normal 0.911352 -0.411628 0
    outer loop
      vertex 0.461929 -18.1913 3.35
      vertex 1 -17 -3.35
      vertex 1 -17 3.35
    endloop
  endfacet
  facet normal 0.911352 -0.411628 0
    outer loop
      vertex 1 -17 -3.35
      vertex 0.461929 -18.1913 3.35
      vertex 0.461929 -18.1913 -3.35
    endloop
  endfacet
  facet normal 0 0 1
    outer loop
      vertex -2.92114 5.21458 3.35
      vertex -2.92114 4.7854 3.35
      vertex -2.90001 5 3.35
    endloop
  endfacet
  facet normal 0 0 1
    outer loop
      vertex -2.98373 5.42094 3.35
      vertex -2.92114 4.7854 3.35
      vertex -2.92114 5.21458 3.35
    endloop
  endfacet
  facet normal 0 0 1
    outer loop
      vertex -2.98373 5.42094 3.35
      vertex -2.98373 4.57904 3.35
      vertex -2.92114 4.7854 3.35
    endloop
  endfacet
  facet normal 0 0 1
    outer loop
      vertex -3.08539 5.61111 3.35
      vertex -2.98373 4.57904 3.35
      vertex -2.98373 5.42094 3.35
    endloop
  endfacet
  facet normal 0 0 1
    outer loop
      vertex -3.08539 5.61111 3.35
      vertex -3.08539 4.38887 3.35
      vertex -2.98373 4.57904 3.35
    endloop
  endfacet
  facet normal 0 0 1
    outer loop
      vertex -3.22218 5.77782 3.35
      vertex -3.08539 4.38887 3.35
      vertex -3.08539 5.61111 3.35
    endloop
  endfacet
  facet normal 0 0 1
    outer loop
      vertex -3.22218 5.77782 3.35
      vertex -3.22218 4.22217 3.35
      vertex -3.08539 4.38887 3.35
    endloop
  endfacet
  facet normal 0 0 1
    outer loop
      vertex -3.38889 5.91461 3.35
      vertex -3.22218 4.22217 3.35
      vertex -3.22218 5.77782 3.35
    endloop
  endfacet
  facet normal 0 0 1
    outer loop
      vertex -3.38889 5.91461 3.35
      vertex -3.38889 4.08537 3.35
      vertex -3.22218 4.22217 3.35
    endloop
  endfacet
  facet normal 0 0 1
    outer loop
      vertex -3.57906 6.01627 3.35
      vertex -3.38889 4.08537 3.35
      vertex -3.38889 5.91461 3.35
    endloop
  endfacet
  facet normal 0 0 1
    outer loop
      vertex -3.57906 6.01627 3.35
      vertex -3.57906 3.98372 3.35
      vertex -3.38889 4.08537 3.35
    endloop
  endfacet
  facet normal 0 0 1
    outer loop
      vertex -3.78542 6.07886 3.35
      vertex -3.57906 3.98372 3.35
      vertex -3.57906 6.01627 3.35
    endloop
  endfacet
  facet normal 0 0 1
    outer loop
      vertex -3.78542 6.07886 3.35
      vertex -3.78542 3.92113 3.35
      vertex -3.57906 3.98372 3.35
    endloop
  endfacet
  facet normal 0 0 1
    outer loop
      vertex -4 6.09999 3.35
      vertex -3.78542 3.92113 3.35
      vertex -3.78542 6.07886 3.35
    endloop
  endfacet
  facet normal 0 0 1
    outer loop
      vertex -4 6.09999 3.35
      vertex -4 3.89999 3.35
      vertex -3.78542 3.92113 3.35
    endloop
  endfacet
  facet normal 0 0 1
    outer loop
      vertex -4 6.09999 3.35
      vertex -9 3.89999 3.35
      vertex -4 3.89999 3.35
    endloop
  endfacet
  facet normal 0 0 1
    outer loop
      vertex -11 -12 3.35
      vertex -9 -12 3.35
      vertex -9 3.89999 3.35
    endloop
  endfacet
  facet normal 0 0 1
    outer loop
      vertex -9 -12 3.35
      vertex -11 -12 3.35
      vertex -9.53807 -13.1913 3.35
    endloop
  endfacet
  facet normal 0 -0 1
    outer loop
      vertex -10.4619 -13.1913 3.35
      vertex -9.53807 -13.1913 3.35
      vertex -11 -12 3.35
    endloop
  endfacet
  facet normal 0 0 1
    outer loop
      vertex -9.53807 -13.1913 3.35
      vertex -10.4619 -13.1913 3.35
      vertex -9.58427 -13.2778 3.35
    endloop
  endfacet
  facet normal 0 0 1
    outer loop
      vertex -9.58427 -13.2778 3.35
      vertex -10.4619 -13.1913 3.35
      vertex -9.64645 -13.3535 3.35
    endloop
  endfacet
  facet normal 0 0 1
    outer loop
      vertex -9.64645 -13.3535 3.35
      vertex -10.4619 -13.1913 3.35
      vertex -9.72223 -13.4157 3.35
    endloop
  endfacet
  facet normal 0 0 1
    outer loop
      vertex -9.72223 -13.4157 3.35
      vertex -10.4619 -13.1913 3.35
      vertex -9.80867 -13.4619 3.35
    endloop
  endfacet
  facet normal 0 0 1
    outer loop
      vertex -9.80867 -13.4619 3.35
      vertex -10.4619 -13.1913 3.35
      vertex -9.90247 -13.4904 3.35
    endloop
  endfacet
  facet normal 0 0 1
    outer loop
      vertex -9.90247 -13.4904 3.35
      vertex -10.4619 -13.1913 3.35
      vertex -10 -13.5 3.35
    endloop
  endfacet
  facet normal 0 0 1
    outer loop
      vertex -10 -13.5 3.35
      vertex -10.4619 -13.1913 3.35
      vertex -10.0975 -13.4904 3.35
    endloop
  endfacet
  facet normal 0 0 1
    outer loop
      vertex -10.0975 -13.4904 3.35
      vertex -10.4619 -13.1913 3.35
      vertex -10.1913 -13.4619 3.35
    endloop
  endfacet
  facet normal 0 0 1
    outer loop
      vertex -10.1913 -13.4619 3.35
      vertex -10.4619 -13.1913 3.35
      vertex -10.2778 -13.4157 3.35
    endloop
  endfacet
  facet normal 0 0 1
    outer loop
      vertex -10.2778 -13.4157 3.35
      vertex -10.4619 -13.1913 3.35
      vertex -10.3535 -13.3535 3.35
    endloop
  endfacet
  facet normal 0 0 1
    outer loop
      vertex -11 -12 3.35
      vertex -9 3.89999 3.35
      vertex -11 3.89999 3.35
    endloop
  endfacet
  facet normal 0 0 1
    outer loop
      vertex -4 6.09999 3.35
      vertex -11 3.89999 3.35
      vertex -9 3.89999 3.35
    endloop
  endfacet
  facet normal -0 0 1
    outer loop
      vertex -16 6.09999 3.35
      vertex -11 3.89999 3.35
      vertex -4 6.09999 3.35
    endloop
  endfacet
  facet normal 0 0 1
    outer loop
      vertex -16 6.09999 3.35
      vertex -16 3.89999 3.35
      vertex -11 3.89999 3.35
    endloop
  endfacet
  facet normal -0 0 1
    outer loop
      vertex -16.2146 6.07886 3.35
      vertex -16 3.89999 3.35
      vertex -16 6.09999 3.35
    endloop
  endfacet
  facet normal 0 0 1
    outer loop
      vertex -16.2146 6.07886 3.35
      vertex -16.2146 3.92113 3.35
      vertex -16 3.89999 3.35
    endloop
  endfacet
  facet normal -0 0 1
    outer loop
      vertex -16.4209 6.01627 3.35
      vertex -16.2146 3.92113 3.35
      vertex -16.2146 6.07886 3.35
    endloop
  endfacet
  facet normal 0 0 1
    outer loop
      vertex -16.4209 6.01627 3.35
      vertex -16.4209 3.98372 3.35
      vertex -16.2146 3.92113 3.35
    endloop
  endfacet
  facet normal -0 0 1
    outer loop
      vertex -16.6111 5.91461 3.35
      vertex -16.4209 3.98372 3.35
      vertex -16.4209 6.01627 3.35
    endloop
  endfacet
  facet normal 0 0 1
    outer loop
      vertex -16.6111 5.91461 3.35
      vertex -16.6111 4.08537 3.35
      vertex -16.4209 3.98372 3.35
    endloop
  endfacet
  facet normal -0 0 1
    outer loop
      vertex -16.7778 5.77782 3.35
      vertex -16.6111 4.08537 3.35
      vertex -16.6111 5.91461 3.35
    endloop
  endfacet
  facet normal 0 0 1
    outer loop
      vertex -16.7778 5.77782 3.35
      vertex -16.7778 4.22217 3.35
      vertex -16.6111 4.08537 3.35
    endloop
  endfacet
  facet normal -0 0 1
    outer loop
      vertex -16.9146 5.61111 3.35
      vertex -16.7778 4.22217 3.35
      vertex -16.7778 5.77782 3.35
    endloop
  endfacet
  facet normal 0 0 1
    outer loop
      vertex -16.9146 5.61111 3.35
      vertex -16.9146 4.38887 3.35
      vertex -16.7778 4.22217 3.35
    endloop
  endfacet
  facet normal -0 0 1
    outer loop
      vertex -17.0163 5.42094 3.35
      vertex -16.9146 4.38887 3.35
      vertex -16.9146 5.61111 3.35
    endloop
  endfacet
  facet normal 0 0 1
    outer loop
      vertex -17.0163 5.42094 3.35
      vertex -17.0163 4.57904 3.35
      vertex -16.9146 4.38887 3.35
    endloop
  endfacet
  facet normal -0 0 1
    outer loop
      vertex -17.0789 5.21458 3.35
      vertex -17.0163 4.57904 3.35
      vertex -17.0163 5.42094 3.35
    endloop
  endfacet
  facet normal 0 0 1
    outer loop
      vertex -17.0789 5.21458 3.35
      vertex -17.0789 4.7854 3.35
      vertex -17.0163 4.57904 3.35
    endloop
  endfacet
  facet normal 0 -0 1
    outer loop
      vertex -17.0789 4.7854 3.35
      vertex -17.0789 5.21458 3.35
      vertex -17.1 5 3.35
    endloop
  endfacet
  facet normal 0 0 1
    outer loop
      vertex -10.3535 -13.3535 3.35
      vertex -10.4619 -13.1913 3.35
      vertex -10.4157 -13.2778 3.35
    endloop
  endfacet
  facet normal 0 0 -1
    outer loop
      vertex -11 -12 -3.35
      vertex -9 -12 -3.35
      vertex -9.53807 -13.1913 -3.35
    endloop
  endfacet
  facet normal 0 0 -1
    outer loop
      vertex -2.92114 4.7854 -3.35
      vertex -2.92114 5.21458 -3.35
      vertex -2.90001 5 -3.35
    endloop
  endfacet
  facet normal 0 0 -1
    outer loop
      vertex -2.98373 4.57904 -3.35
      vertex -2.92114 5.21458 -3.35
      vertex -2.92114 4.7854 -3.35
    endloop
  endfacet
  facet normal 0 0 -1
    outer loop
      vertex -2.98373 4.57904 -3.35
      vertex -2.98373 5.42094 -3.35
      vertex -2.92114 5.21458 -3.35
    endloop
  endfacet
  facet normal 0 0 -1
    outer loop
      vertex -3.08539 4.38887 -3.35
      vertex -2.98373 5.42094 -3.35
      vertex -2.98373 4.57904 -3.35
    endloop
  endfacet
  facet normal 0 0 -1
    outer loop
      vertex -3.08539 4.38887 -3.35
      vertex -3.08539 5.61111 -3.35
      vertex -2.98373 5.42094 -3.35
    endloop
  endfacet
  facet normal 0 0 -1
    outer loop
      vertex -3.22218 4.22217 -3.35
      vertex -3.08539 5.61111 -3.35
      vertex -3.08539 4.38887 -3.35
    endloop
  endfacet
  facet normal 0 0 -1
    outer loop
      vertex -3.22218 4.22217 -3.35
      vertex -3.22218 5.77782 -3.35
      vertex -3.08539 5.61111 -3.35
    endloop
  endfacet
  facet normal 0 0 -1
    outer loop
      vertex -3.38889 4.08537 -3.35
      vertex -3.22218 5.77782 -3.35
      vertex -3.22218 4.22217 -3.35
    endloop
  endfacet
  facet normal 0 0 -1
    outer loop
      vertex -3.38889 4.08537 -3.35
      vertex -3.38889 5.91461 -3.35
      vertex -3.22218 5.77782 -3.35
    endloop
  endfacet
  facet normal 0 0 -1
    outer loop
      vertex -3.57906 3.98372 -3.35
      vertex -3.38889 5.91461 -3.35
      vertex -3.38889 4.08537 -3.35
    endloop
  endfacet
  facet normal 0 0 -1
    outer loop
      vertex -3.57906 3.98372 -3.35
      vertex -3.57906 6.01627 -3.35
      vertex -3.38889 5.91461 -3.35
    endloop
  endfacet
  facet normal 0 0 -1
    outer loop
      vertex -3.78542 3.92113 -3.35
      vertex -3.57906 6.01627 -3.35
      vertex -3.57906 3.98372 -3.35
    endloop
  endfacet
  facet normal 0 0 -1
    outer loop
      vertex -3.78542 3.92113 -3.35
      vertex -3.78542 6.07886 -3.35
      vertex -3.57906 6.01627 -3.35
    endloop
  endfacet
  facet normal 0 0 -1
    outer loop
      vertex -4 3.89999 -3.35
      vertex -3.78542 6.07886 -3.35
      vertex -3.78542 3.92113 -3.35
    endloop
  endfacet
  facet normal 0 0 -1
    outer loop
      vertex -4 3.89999 -3.35
      vertex -4 6.09999 -3.35
      vertex -3.78542 6.07886 -3.35
    endloop
  endfacet
  facet normal 0 0 -1
    outer loop
      vertex -9 3.89999 -3.35
      vertex -4 6.09999 -3.35
      vertex -4 3.89999 -3.35
    endloop
  endfacet
  facet normal 0 0 -1
    outer loop
      vertex -10.4619 -13.1913 -3.35
      vertex -9.53807 -13.1913 -3.35
      vertex -9.58427 -13.2778 -3.35
    endloop
  endfacet
  facet normal 0 0 -1
    outer loop
      vertex -10.4619 -13.1913 -3.35
      vertex -9.58427 -13.2778 -3.35
      vertex -9.64645 -13.3535 -3.35
    endloop
  endfacet
  facet normal 0 0 -1
    outer loop
      vertex -10.4619 -13.1913 -3.35
      vertex -9.64645 -13.3535 -3.35
      vertex -9.72223 -13.4157 -3.35
    endloop
  endfacet
  facet normal 0 0 -1
    outer loop
      vertex -10.4619 -13.1913 -3.35
      vertex -9.72223 -13.4157 -3.35
      vertex -9.80867 -13.4619 -3.35
    endloop
  endfacet
  facet normal 0 0 -1
    outer loop
      vertex -10.4619 -13.1913 -3.35
      vertex -9.80867 -13.4619 -3.35
      vertex -9.90247 -13.4904 -3.35
    endloop
  endfacet
  facet normal 0 0 -1
    outer loop
      vertex -10.4619 -13.1913 -3.35
      vertex -9.90247 -13.4904 -3.35
      vertex -10 -13.5 -3.35
    endloop
  endfacet
  facet normal 0 0 -1
    outer loop
      vertex -10.4619 -13.1913 -3.35
      vertex -10 -13.5 -3.35
      vertex -10.0975 -13.4904 -3.35
    endloop
  endfacet
  facet normal 0 0 -1
    outer loop
      vertex -10.4619 -13.1913 -3.35
      vertex -10.0975 -13.4904 -3.35
      vertex -10.1913 -13.4619 -3.35
    endloop
  endfacet
  facet normal 0 0 -1
    outer loop
      vertex -10.4619 -13.1913 -3.35
      vertex -10.1913 -13.4619 -3.35
      vertex -10.2778 -13.4157 -3.35
    endloop
  endfacet
  facet normal 0 0 -1
    outer loop
      vertex -10.4619 -13.1913 -3.35
      vertex -10.2778 -13.4157 -3.35
      vertex -10.3535 -13.3535 -3.35
    endloop
  endfacet
  facet normal 0 0 -1
    outer loop
      vertex -10.4619 -13.1913 -3.35
      vertex -10.3535 -13.3535 -3.35
      vertex -10.4157 -13.2778 -3.35
    endloop
  endfacet
  facet normal 0 0 -1
    outer loop
      vertex -9.53807 -13.1913 -3.35
      vertex -10.4619 -13.1913 -3.35
      vertex -11 -12 -3.35
    endloop
  endfacet
  facet normal 0 0 -1
    outer loop
      vertex -9 -12 -3.35
      vertex -11 -12 -3.35
      vertex -9 3.89999 -3.35
    endloop
  endfacet
  facet normal 0 0 -1
    outer loop
      vertex -11 3.89999 -3.35
      vertex -9 3.89999 -3.35
      vertex -11 -12 -3.35
    endloop
  endfacet
  facet normal 0 0 -1
    outer loop
      vertex -11 3.89999 -3.35
      vertex -4 6.09999 -3.35
      vertex -9 3.89999 -3.35
    endloop
  endfacet
  facet normal 0 0 -1
    outer loop
      vertex -16 6.09999 -3.35
      vertex -11 3.89999 -3.35
      vertex -16 3.89999 -3.35
    endloop
  endfacet
  facet normal 0 0 -1
    outer loop
      vertex -11 3.89999 -3.35
      vertex -16 6.09999 -3.35
      vertex -4 6.09999 -3.35
    endloop
  endfacet
  facet normal 0 0 -1
    outer loop
      vertex -16.2146 3.92113 -3.35
      vertex -16 6.09999 -3.35
      vertex -16 3.89999 -3.35
    endloop
  endfacet
  facet normal 0 0 -1
    outer loop
      vertex -16.2146 3.92113 -3.35
      vertex -16.2146 6.07886 -3.35
      vertex -16 6.09999 -3.35
    endloop
  endfacet
  facet normal 0 0 -1
    outer loop
      vertex -16.4209 3.98372 -3.35
      vertex -16.2146 6.07886 -3.35
      vertex -16.2146 3.92113 -3.35
    endloop
  endfacet
  facet normal 0 0 -1
    outer loop
      vertex -16.4209 3.98372 -3.35
      vertex -16.4209 6.01627 -3.35
      vertex -16.2146 6.07886 -3.35
    endloop
  endfacet
  facet normal 0 0 -1
    outer loop
      vertex -16.6111 4.08537 -3.35
      vertex -16.4209 6.01627 -3.35
      vertex -16.4209 3.98372 -3.35
    endloop
  endfacet
  facet normal 0 0 -1
    outer loop
      vertex -16.6111 4.08537 -3.35
      vertex -16.6111 5.91461 -3.35
      vertex -16.4209 6.01627 -3.35
    endloop
  endfacet
  facet normal 0 0 -1
    outer loop
      vertex -16.7778 4.22217 -3.35
      vertex -16.6111 5.91461 -3.35
      vertex -16.6111 4.08537 -3.35
    endloop
  endfacet
  facet normal 0 0 -1
    outer loop
      vertex -16.7778 4.22217 -3.35
      vertex -16.7778 5.77782 -3.35
      vertex -16.6111 5.91461 -3.35
    endloop
  endfacet
  facet normal 0 0 -1
    outer loop
      vertex -16.9146 4.38887 -3.35
      vertex -16.7778 5.77782 -3.35
      vertex -16.7778 4.22217 -3.35
    endloop
  endfacet
  facet normal 0 0 -1
    outer loop
      vertex -16.9146 4.38887 -3.35
      vertex -16.9146 5.61111 -3.35
      vertex -16.7778 5.77782 -3.35
    endloop
  endfacet
  facet normal 0 0 -1
    outer loop
      vertex -17.0163 4.57904 -3.35
      vertex -16.9146 5.61111 -3.35
      vertex -16.9146 4.38887 -3.35
    endloop
  endfacet
  facet normal 0 0 -1
    outer loop
      vertex -17.0163 4.57904 -3.35
      vertex -17.0163 5.42094 -3.35
      vertex -16.9146 5.61111 -3.35
    endloop
  endfacet
  facet normal 0 0 -1
    outer loop
      vertex -17.0789 4.7854 -3.35
      vertex -17.0163 5.42094 -3.35
      vertex -17.0163 4.57904 -3.35
    endloop
  endfacet
  facet normal 0 0 -1
    outer loop
      vertex -17.0789 4.7854 -3.35
      vertex -17.0789 5.21458 -3.35
      vertex -17.0163 5.42094 -3.35
    endloop
  endfacet
  facet normal 0 -0 -1
    outer loop
      vertex -17.0789 5.21458 -3.35
      vertex -17.0789 4.7854 -3.35
      vertex -17.1 5 -3.35
    endloop
  endfacet
  facet normal 0.882071 -0.471117 0
    outer loop
      vertex -9.58427 -13.2778 3.35
      vertex -9.53807 -13.1913 -3.35
      vertex -9.53807 -13.1913 3.35
    endloop
  endfacet
  facet normal 0.882071 -0.471117 0
    outer loop
      vertex -9.53807 -13.1913 -3.35
      vertex -9.58427 -13.2778 3.35
      vertex -9.58427 -13.2778 -3.35
    endloop
  endfacet
  facet normal 0.772737 -0.634726 0
    outer loop
      vertex -9.64645 -13.3535 3.35
      vertex -9.58427 -13.2778 -3.35
      vertex -9.58427 -13.2778 3.35
    endloop
  endfacet
  facet normal 0.772737 -0.634726 0
    outer loop
      vertex -9.58427 -13.2778 -3.35
      vertex -9.64645 -13.3535 3.35
      vertex -9.64645 -13.3535 -3.35
    endloop
  endfacet
  facet normal 0.634448 -0.772966 0
    outer loop
      vertex -9.72223 -13.4157 -3.35
      vertex -9.64645 -13.3535 3.35
      vertex -9.72223 -13.4157 3.35
    endloop
  endfacet
  facet normal 0.634448 -0.772966 0
    outer loop
      vertex -9.64645 -13.3535 3.35
      vertex -9.72223 -13.4157 -3.35
      vertex -9.64645 -13.3535 -3.35
    endloop
  endfacet
  facet normal 0.471372 -0.881935 0
    outer loop
      vertex -9.80867 -13.4619 -3.35
      vertex -9.72223 -13.4157 3.35
      vertex -9.80867 -13.4619 3.35
    endloop
  endfacet
  facet normal 0.471372 -0.881935 0
    outer loop
      vertex -9.72223 -13.4157 3.35
      vertex -9.80867 -13.4619 -3.35
      vertex -9.72223 -13.4157 -3.35
    endloop
  endfacet
  facet normal 0.290715 -0.95681 0
    outer loop
      vertex -9.90247 -13.4904 -3.35
      vertex -9.80867 -13.4619 3.35
      vertex -9.90247 -13.4904 3.35
    endloop
  endfacet
  facet normal 0.290715 -0.95681 0
    outer loop
      vertex -9.80867 -13.4619 3.35
      vertex -9.90247 -13.4904 -3.35
      vertex -9.80867 -13.4619 -3.35
    endloop
  endfacet
  facet normal 0.0979579 -0.995191 0
    outer loop
      vertex -10 -13.5 -3.35
      vertex -9.90247 -13.4904 3.35
      vertex -10 -13.5 3.35
    endloop
  endfacet
  facet normal 0.0979579 -0.995191 0
    outer loop
      vertex -9.90247 -13.4904 3.35
      vertex -10 -13.5 -3.35
      vertex -9.90247 -13.4904 -3.35
    endloop
  endfacet
  facet normal -0.0979877 -0.995188 0
    outer loop
      vertex -10.0975 -13.4904 -3.35
      vertex -10 -13.5 3.35
      vertex -10.0975 -13.4904 3.35
    endloop
  endfacet
  facet normal -0.0979877 -0.995188 -0
    outer loop
      vertex -10 -13.5 3.35
      vertex -10.0975 -13.4904 -3.35
      vertex -10 -13.5 -3.35
    endloop
  endfacet
  facet normal -0.290715 -0.95681 0
    outer loop
      vertex -10.1913 -13.4619 -3.35
      vertex -10.0975 -13.4904 3.35
      vertex -10.1913 -13.4619 3.35
    endloop
  endfacet
  facet normal -0.290715 -0.95681 -0
    outer loop
      vertex -10.0975 -13.4904 3.35
      vertex -10.1913 -13.4619 -3.35
      vertex -10.0975 -13.4904 -3.35
    endloop
  endfacet
  facet normal -0.471117 -0.882071 0
    outer loop
      vertex -10.2778 -13.4157 -3.35
      vertex -10.1913 -13.4619 3.35
      vertex -10.2778 -13.4157 3.35
    endloop
  endfacet
  facet normal -0.471117 -0.882071 -0
    outer loop
      vertex -10.1913 -13.4619 3.35
      vertex -10.2778 -13.4157 -3.35
      vertex -10.1913 -13.4619 -3.35
    endloop
  endfacet
  facet normal -0.634848 -0.772637 0
    outer loop
      vertex -10.3535 -13.3535 -3.35
      vertex -10.2778 -13.4157 3.35
      vertex -10.3535 -13.3535 3.35
    endloop
  endfacet
  facet normal -0.634848 -0.772637 -0
    outer loop
      vertex -10.2778 -13.4157 3.35
      vertex -10.3535 -13.3535 -3.35
      vertex -10.2778 -13.4157 -3.35
    endloop
  endfacet
  facet normal -0.772637 -0.634848 0
    outer loop
      vertex -10.3535 -13.3535 -3.35
      vertex -10.4157 -13.2778 3.35
      vertex -10.4157 -13.2778 -3.35
    endloop
  endfacet
  facet normal -0.772637 -0.634848 0
    outer loop
      vertex -10.4157 -13.2778 3.35
      vertex -10.3535 -13.3535 -3.35
      vertex -10.3535 -13.3535 3.35
    endloop
  endfacet
  facet normal -0.882071 -0.471117 0
    outer loop
      vertex -10.4157 -13.2778 -3.35
      vertex -10.4619 -13.1913 3.35
      vertex -10.4619 -13.1913 -3.35
    endloop
  endfacet
  facet normal -0.882071 -0.471117 0
    outer loop
      vertex -10.4619 -13.1913 3.35
      vertex -10.4157 -13.2778 -3.35
      vertex -10.4157 -13.2778 3.35
    endloop
  endfacet
  facet normal -0.911344 -0.411646 0
    outer loop
      vertex -10.4619 -13.1913 -3.35
      vertex -11 -12 3.35
      vertex -11 -12 -3.35
    endloop
  endfacet
  facet normal -0.911344 -0.411646 0
    outer loop
      vertex -11 -12 3.35
      vertex -10.4619 -13.1913 -3.35
      vertex -10.4619 -13.1913 3.35
    endloop
  endfacet
  facet normal -1 0 0
    outer loop
      vertex -11 -12 -3.35
      vertex -11 3.89999 3.35
      vertex -11 3.89999 -3.35
    endloop
  endfacet
  facet normal -1 -0 0
    outer loop
      vertex -11 3.89999 3.35
      vertex -11 -12 -3.35
      vertex -11 -12 3.35
    endloop
  endfacet
  facet normal 0 -1 0
    outer loop
      vertex -16 3.89999 -3.35
      vertex -11 3.89999 3.35
      vertex -16 3.89999 3.35
    endloop
  endfacet
  facet normal 0 -1 -0
    outer loop
      vertex -11 3.89999 3.35
      vertex -16 3.89999 -3.35
      vertex -11 3.89999 -3.35
    endloop
  endfacet
  facet normal -0.0980343 -0.995183 0
    outer loop
      vertex -16.2146 3.92113 -3.35
      vertex -16 3.89999 3.35
      vertex -16.2146 3.92113 3.35
    endloop
  endfacet
  facet normal -0.0980343 -0.995183 -0
    outer loop
      vertex -16 3.89999 3.35
      vertex -16.2146 3.92113 -3.35
      vertex -16 3.89999 -3.35
    endloop
  endfacet
  facet normal -0.290325 -0.956928 0
    outer loop
      vertex -16.4209 3.98372 -3.35
      vertex -16.2146 3.92113 3.35
      vertex -16.4209 3.98372 3.35
    endloop
  endfacet
  facet normal -0.290325 -0.956928 -0
    outer loop
      vertex -16.2146 3.92113 3.35
      vertex -16.4209 3.98372 -3.35
      vertex -16.2146 3.92113 -3.35
    endloop
  endfacet
  facet normal -0.471346 -0.881948 0
    outer loop
      vertex -16.6111 4.08537 -3.35
      vertex -16.4209 3.98372 3.35
      vertex -16.6111 4.08537 3.35
    endloop
  endfacet
  facet normal -0.471346 -0.881948 -0
    outer loop
      vertex -16.4209 3.98372 3.35
      vertex -16.6111 4.08537 -3.35
      vertex -16.4209 3.98372 -3.35
    endloop
  endfacet
  facet normal -0.634373 -0.773027 0
    outer loop
      vertex -16.7778 4.22217 -3.35
      vertex -16.6111 4.08537 3.35
      vertex -16.7778 4.22217 3.35
    endloop
  endfacet
  facet normal -0.634373 -0.773027 -0
    outer loop
      vertex -16.6111 4.08537 3.35
      vertex -16.7778 4.22217 -3.35
      vertex -16.6111 4.08537 -3.35
    endloop
  endfacet
  facet normal -0.773027 -0.634373 0
    outer loop
      vertex -16.7778 4.22217 -3.35
      vertex -16.9146 4.38887 3.35
      vertex -16.9146 4.38887 -3.35
    endloop
  endfacet
  facet normal -0.773027 -0.634373 0
    outer loop
      vertex -16.9146 4.38887 3.35
      vertex -16.7778 4.22217 -3.35
      vertex -16.7778 4.22217 3.35
    endloop
  endfacet
  facet normal -0.881821 -0.471584 0
    outer loop
      vertex -16.9146 4.38887 -3.35
      vertex -17.0163 4.57904 3.35
      vertex -17.0163 4.57904 -3.35
    endloop
  endfacet
  facet normal -0.881821 -0.471584 0
    outer loop
      vertex -17.0163 4.57904 3.35
      vertex -16.9146 4.38887 -3.35
      vertex -16.9146 4.38887 3.35
    endloop
  endfacet
  facet normal -0.956939 -0.290291 0
    outer loop
      vertex -17.0163 4.57904 -3.35
      vertex -17.0789 4.7854 3.35
      vertex -17.0789 4.7854 -3.35
    endloop
  endfacet
  facet normal -0.956939 -0.290291 0
    outer loop
      vertex -17.0789 4.7854 3.35
      vertex -17.0163 4.57904 -3.35
      vertex -17.0163 4.57904 3.35
    endloop
  endfacet
  facet normal -0.995201 -0.0978506 0
    outer loop
      vertex -17.0789 4.7854 -3.35
      vertex -17.1 5 3.35
      vertex -17.1 5 -3.35
    endloop
  endfacet
  facet normal -0.995201 -0.0978506 0
    outer loop
      vertex -17.1 5 3.35
      vertex -17.0789 4.7854 -3.35
      vertex -17.0789 4.7854 3.35
    endloop
  endfacet
  facet normal -0.9952 0.0978597 0
    outer loop
      vertex -17.1 5 -3.35
      vertex -17.0789 5.21458 3.35
      vertex -17.0789 5.21458 -3.35
    endloop
  endfacet
  facet normal -0.9952 0.0978597 0
    outer loop
      vertex -17.0789 5.21458 3.35
      vertex -17.1 5 -3.35
      vertex -17.1 5 3.35
    endloop
  endfacet
  facet normal -0.956939 0.290291 0
    outer loop
      vertex -17.0789 5.21458 -3.35
      vertex -17.0163 5.42094 3.35
      vertex -17.0163 5.42094 -3.35
    endloop
  endfacet
  facet normal -0.956939 0.290291 0
    outer loop
      vertex -17.0163 5.42094 3.35
      vertex -17.0789 5.21458 -3.35
      vertex -17.0789 5.21458 3.35
    endloop
  endfacet
  facet normal -0.881821 0.471584 0
    outer loop
      vertex -17.0163 5.42094 -3.35
      vertex -16.9146 5.61111 3.35
      vertex -16.9146 5.61111 -3.35
    endloop
  endfacet
  facet normal -0.881821 0.471584 0
    outer loop
      vertex -16.9146 5.61111 3.35
      vertex -17.0163 5.42094 -3.35
      vertex -17.0163 5.42094 3.35
    endloop
  endfacet
  facet normal -0.773045 0.634351 0
    outer loop
      vertex -16.9146 5.61111 -3.35
      vertex -16.7778 5.77782 3.35
      vertex -16.7778 5.77782 -3.35
    endloop
  endfacet
  facet normal -0.773045 0.634351 0
    outer loop
      vertex -16.7778 5.77782 3.35
      vertex -16.9146 5.61111 -3.35
      vertex -16.9146 5.61111 3.35
    endloop
  endfacet
  facet normal -0.634346 0.773049 0
    outer loop
      vertex -16.6111 5.91461 -3.35
      vertex -16.7778 5.77782 3.35
      vertex -16.6111 5.91461 3.35
    endloop
  endfacet
  facet normal -0.634346 0.773049 0
    outer loop
      vertex -16.7778 5.77782 3.35
      vertex -16.6111 5.91461 -3.35
      vertex -16.7778 5.77782 -3.35
    endloop
  endfacet
  facet normal -0.471382 0.881929 0
    outer loop
      vertex -16.4209 6.01627 -3.35
      vertex -16.6111 5.91461 3.35
      vertex -16.4209 6.01627 3.35
    endloop
  endfacet
  facet normal -0.471382 0.881929 0
    outer loop
      vertex -16.6111 5.91461 3.35
      vertex -16.4209 6.01627 -3.35
      vertex -16.6111 5.91461 -3.35
    endloop
  endfacet
  facet normal -0.290325 0.956928 0
    outer loop
      vertex -16.2146 6.07886 -3.35
      vertex -16.4209 6.01627 3.35
      vertex -16.2146 6.07886 3.35
    endloop
  endfacet
  facet normal -0.290325 0.956928 0
    outer loop
      vertex -16.4209 6.01627 3.35
      vertex -16.2146 6.07886 -3.35
      vertex -16.4209 6.01627 -3.35
    endloop
  endfacet
  facet normal -0.0979884 0.995188 0
    outer loop
      vertex -16 6.09999 -3.35
      vertex -16.2146 6.07886 3.35
      vertex -16 6.09999 3.35
    endloop
  endfacet
  facet normal -0.0979884 0.995188 0
    outer loop
      vertex -16.2146 6.07886 3.35
      vertex -16 6.09999 -3.35
      vertex -16.2146 6.07886 -3.35
    endloop
  endfacet
  facet normal 0 1 -0
    outer loop
      vertex -4 6.09999 -3.35
      vertex -16 6.09999 3.35
      vertex -4 6.09999 3.35
    endloop
  endfacet
  facet normal 0 1 0
    outer loop
      vertex -16 6.09999 3.35
      vertex -4 6.09999 -3.35
      vertex -16 6.09999 -3.35
    endloop
  endfacet
  facet normal 0.0979975 0.995187 -0
    outer loop
      vertex -3.78542 6.07886 -3.35
      vertex -4 6.09999 3.35
      vertex -3.78542 6.07886 3.35
    endloop
  endfacet
  facet normal 0.0979975 0.995187 0
    outer loop
      vertex -4 6.09999 3.35
      vertex -3.78542 6.07886 -3.35
      vertex -4 6.09999 -3.35
    endloop
  endfacet
  facet normal 0.290248 0.956951 -0
    outer loop
      vertex -3.57906 6.01627 -3.35
      vertex -3.78542 6.07886 3.35
      vertex -3.57906 6.01627 3.35
    endloop
  endfacet
  facet normal 0.290248 0.956951 0
    outer loop
      vertex -3.78542 6.07886 3.35
      vertex -3.57906 6.01627 -3.35
      vertex -3.78542 6.07886 -3.35
    endloop
  endfacet
  facet normal 0.47144 0.881898 -0
    outer loop
      vertex -3.38889 5.91461 -3.35
      vertex -3.57906 6.01627 3.35
      vertex -3.38889 5.91461 3.35
    endloop
  endfacet
  facet normal 0.47144 0.881898 0
    outer loop
      vertex -3.57906 6.01627 3.35
      vertex -3.38889 5.91461 -3.35
      vertex -3.57906 6.01627 -3.35
    endloop
  endfacet
  facet normal 0.634323 0.773068 -0
    outer loop
      vertex -3.22218 5.77782 -3.35
      vertex -3.38889 5.91461 3.35
      vertex -3.22218 5.77782 3.35
    endloop
  endfacet
  facet normal 0.634323 0.773068 0
    outer loop
      vertex -3.38889 5.91461 3.35
      vertex -3.22218 5.77782 -3.35
      vertex -3.38889 5.91461 -3.35
    endloop
  endfacet
  facet normal 0.773068 0.634323 0
    outer loop
      vertex -3.08539 5.61111 3.35
      vertex -3.22218 5.77782 -3.35
      vertex -3.22218 5.77782 3.35
    endloop
  endfacet
  facet normal 0.773068 0.634323 0
    outer loop
      vertex -3.22218 5.77782 -3.35
      vertex -3.08539 5.61111 3.35
      vertex -3.08539 5.61111 -3.35
    endloop
  endfacet
  facet normal 0.881898 0.47144 0
    outer loop
      vertex -2.98373 5.42094 3.35
      vertex -3.08539 5.61111 -3.35
      vertex -3.08539 5.61111 3.35
    endloop
  endfacet
  facet normal 0.881898 0.47144 0
    outer loop
      vertex -3.08539 5.61111 -3.35
      vertex -2.98373 5.42094 3.35
      vertex -2.98373 5.42094 -3.35
    endloop
  endfacet
  facet normal 0.956951 0.290248 0
    outer loop
      vertex -2.92114 5.21458 3.35
      vertex -2.98373 5.42094 -3.35
      vertex -2.98373 5.42094 3.35
    endloop
  endfacet
  facet normal 0.956951 0.290248 0
    outer loop
      vertex -2.98373 5.42094 -3.35
      vertex -2.92114 5.21458 3.35
      vertex -2.92114 5.21458 -3.35
    endloop
  endfacet
  facet normal 0.995187 0.0979975 0
    outer loop
      vertex -2.90001 5 3.35
      vertex -2.92114 5.21458 -3.35
      vertex -2.92114 5.21458 3.35
    endloop
  endfacet
  facet normal 0.995187 0.0979975 0
    outer loop
      vertex -2.92114 5.21458 -3.35
      vertex -2.90001 5 3.35
      vertex -2.90001 5 -3.35
    endloop
  endfacet
  facet normal 0.995188 -0.0979884 0
    outer loop
      vertex -2.92114 4.7854 3.35
      vertex -2.90001 5 -3.35
      vertex -2.90001 5 3.35
    endloop
  endfacet
  facet normal 0.995188 -0.0979884 0
    outer loop
      vertex -2.90001 5 -3.35
      vertex -2.92114 4.7854 3.35
      vertex -2.92114 4.7854 -3.35
    endloop
  endfacet
  facet normal 0.956951 -0.290248 0
    outer loop
      vertex -2.98373 4.57904 3.35
      vertex -2.92114 4.7854 -3.35
      vertex -2.92114 4.7854 3.35
    endloop
  endfacet
  facet normal 0.956951 -0.290248 0
    outer loop
      vertex -2.92114 4.7854 -3.35
      vertex -2.98373 4.57904 3.35
      vertex -2.98373 4.57904 -3.35
    endloop
  endfacet
  facet normal 0.881898 -0.47144 0
    outer loop
      vertex -3.08539 4.38887 3.35
      vertex -2.98373 4.57904 -3.35
      vertex -2.98373 4.57904 3.35
    endloop
  endfacet
  facet normal 0.881898 -0.47144 0
    outer loop
      vertex -2.98373 4.57904 -3.35
      vertex -3.08539 4.38887 3.35
      vertex -3.08539 4.38887 -3.35
    endloop
  endfacet
  facet normal 0.773049 -0.634346 0
    outer loop
      vertex -3.22218 4.22217 3.35
      vertex -3.08539 4.38887 -3.35
      vertex -3.08539 4.38887 3.35
    endloop
  endfacet
  facet normal 0.773049 -0.634346 0
    outer loop
      vertex -3.08539 4.38887 -3.35
      vertex -3.22218 4.22217 3.35
      vertex -3.22218 4.22217 -3.35
    endloop
  endfacet
  facet normal 0.634351 -0.773045 0
    outer loop
      vertex -3.38889 4.08537 -3.35
      vertex -3.22218 4.22217 3.35
      vertex -3.38889 4.08537 3.35
    endloop
  endfacet
  facet normal 0.634351 -0.773045 0
    outer loop
      vertex -3.22218 4.22217 3.35
      vertex -3.38889 4.08537 -3.35
      vertex -3.22218 4.22217 -3.35
    endloop
  endfacet
  facet normal 0.471404 -0.881917 0
    outer loop
      vertex -3.57906 3.98372 -3.35
      vertex -3.38889 4.08537 3.35
      vertex -3.57906 3.98372 3.35
    endloop
  endfacet
  facet normal 0.471404 -0.881917 0
    outer loop
      vertex -3.38889 4.08537 3.35
      vertex -3.57906 3.98372 -3.35
      vertex -3.38889 4.08537 -3.35
    endloop
  endfacet
  facet normal 0.290248 -0.956951 0
    outer loop
      vertex -3.78542 3.92113 -3.35
      vertex -3.57906 3.98372 3.35
      vertex -3.78542 3.92113 3.35
    endloop
  endfacet
  facet normal 0.290248 -0.956951 0
    outer loop
      vertex -3.57906 3.98372 3.35
      vertex -3.78542 3.92113 -3.35
      vertex -3.57906 3.98372 -3.35
    endloop
  endfacet
  facet normal 0.0980434 -0.995182 0
    outer loop
      vertex -4 3.89999 -3.35
      vertex -3.78542 3.92113 3.35
      vertex -4 3.89999 3.35
    endloop
  endfacet
  facet normal 0.0980434 -0.995182 0
    outer loop
      vertex -3.78542 3.92113 3.35
      vertex -4 3.89999 -3.35
      vertex -3.78542 3.92113 -3.35
    endloop
  endfacet
  facet normal 0 -1 0
    outer loop
      vertex -9 3.89999 -3.35
      vertex -4 3.89999 3.35
      vertex -9 3.89999 3.35
    endloop
  endfacet
  facet normal 0 -1 -0
    outer loop
      vertex -4 3.89999 3.35
      vertex -9 3.89999 -3.35
      vertex -4 3.89999 -3.35
    endloop
  endfacet
  facet normal 1 -0 0
    outer loop
      vertex -9 -12 3.35
      vertex -9 3.89999 -3.35
      vertex -9 3.89999 3.35
    endloop
  endfacet
  facet normal 1 0 0
    outer loop
      vertex -9 3.89999 -3.35
      vertex -9 -12 3.35
      vertex -9 -12 -3.35
    endloop
  endfacet
  facet normal 0.911352 -0.411627 0
    outer loop
      vertex -9.53807 -13.1913 3.35
      vertex -9 -12 -3.35
      vertex -9 -12 3.35
    endloop
  endfacet
  facet normal 0.911352 -0.411627 0
    outer loop
      vertex -9 -12 -3.35
      vertex -9.53807 -13.1913 3.35
      vertex -9.53807 -13.1913 -3.35
    endloop
  endfacet
endsolid OpenSCAD_Model
