solid OpenSCAD_Model
  facet normal -0 0 1
    outer loop
      vertex -5.2 7.1375 3.35
      vertex -2.8 1 3.35
      vertex -2.8 7.1375 3.35
    endloop
  endfacet
  facet normal 0 0 1
    outer loop
      vertex -2.8 1 3.35
      vertex -5.2 7.1375 3.35
      vertex -2.8 -1 3.35
    endloop
  endfacet
  facet normal 0 0 1
    outer loop
      vertex -5.2 7.1375 3.35
      vertex -2.8 7.1375 3.35
      vertex -2.82306 7.3716 3.35
    endloop
  endfacet
  facet normal 0 0 1
    outer loop
      vertex -5.2 -7.1375 3.35
      vertex -2.8 -1 3.35
      vertex -5.2 7.1375 3.35
    endloop
  endfacet
  facet normal 0 0 1
    outer loop
      vertex -5.2 7.1375 3.35
      vertex -2.82306 7.3716 3.35
      vertex -2.89136 7.59671 3.35
    endloop
  endfacet
  facet normal 0 0 1
    outer loop
      vertex -2.8 -1 3.35
      vertex -5.2 -7.1375 3.35
      vertex -2.8 -7.1375 3.35
    endloop
  endfacet
  facet normal 0 0 1
    outer loop
      vertex -5.2 7.1375 3.35
      vertex -2.89136 7.59671 3.35
      vertex -3.00223 7.80418 3.35
    endloop
  endfacet
  facet normal 0 0 1
    outer loop
      vertex -2.8 -7.1375 3.35
      vertex -5.2 -7.1375 3.35
      vertex -2.82306 -7.3716 3.35
    endloop
  endfacet
  facet normal 0 0 1
    outer loop
      vertex -5.2 7.1375 3.35
      vertex -3.00223 7.80418 3.35
      vertex -3.15146 7.98602 3.35
    endloop
  endfacet
  facet normal 0 0 1
    outer loop
      vertex -2.82306 -7.3716 3.35
      vertex -5.2 -7.1375 3.35
      vertex -2.89136 -7.59671 3.35
    endloop
  endfacet
  facet normal 0 0 1
    outer loop
      vertex -5.2 7.1375 3.35
      vertex -3.15146 7.98602 3.35
      vertex -3.33331 8.13525 3.35
    endloop
  endfacet
  facet normal 0 0 1
    outer loop
      vertex -2.89136 -7.59671 3.35
      vertex -5.2 -7.1375 3.35
      vertex -3.00223 -7.80418 3.35
    endloop
  endfacet
  facet normal 0 0 1
    outer loop
      vertex -5.2 7.1375 3.35
      vertex -3.33331 8.13525 3.35
      vertex -3.54077 8.24615 3.35
    endloop
  endfacet
  facet normal 0 0 1
    outer loop
      vertex -3.00223 -7.80418 3.35
      vertex -5.2 -7.1375 3.35
      vertex -3.15146 -7.98602 3.35
    endloop
  endfacet
  facet normal 0 0 1
    outer loop
      vertex -5.2 7.1375 3.35
      vertex -3.54077 8.24615 3.35
      vertex -3.76588 8.31444 3.35
    endloop
  endfacet
  facet normal 0 0 1
    outer loop
      vertex -3.15146 -7.98602 3.35
      vertex -5.2 -7.1375 3.35
      vertex -3.33331 -8.13525 3.35
    endloop
  endfacet
  facet normal 0 0 1
    outer loop
      vertex -5.2 7.1375 3.35
      vertex -3.76588 8.31444 3.35
      vertex -4 8.33749 3.35
    endloop
  endfacet
  facet normal 0 0 1
    outer loop
      vertex -3.33331 -8.13525 3.35
      vertex -5.2 -7.1375 3.35
      vertex -3.54077 -8.24615 3.35
    endloop
  endfacet
  facet normal 0 0 1
    outer loop
      vertex -5.2 7.1375 3.35
      vertex -4 8.33749 3.35
      vertex -4.2341 8.31444 3.35
    endloop
  endfacet
  facet normal 0 0 1
    outer loop
      vertex -3.54077 -8.24615 3.35
      vertex -5.2 -7.1375 3.35
      vertex -3.76588 -8.31444 3.35
    endloop
  endfacet
  facet normal 0 0 1
    outer loop
      vertex -5.2 7.1375 3.35
      vertex -4.2341 8.31444 3.35
      vertex -4.45921 8.24615 3.35
    endloop
  endfacet
  facet normal 0 0 1
    outer loop
      vertex -3.76588 -8.31444 3.35
      vertex -5.2 -7.1375 3.35
      vertex -4 -8.33749 3.35
    endloop
  endfacet
  facet normal 0 0 1
    outer loop
      vertex -5.2 7.1375 3.35
      vertex -4.45921 8.24615 3.35
      vertex -4.66667 8.13525 3.35
    endloop
  endfacet
  facet normal 0 0 1
    outer loop
      vertex -4 -8.33749 3.35
      vertex -5.2 -7.1375 3.35
      vertex -4.2341 -8.31444 3.35
    endloop
  endfacet
  facet normal 0 0 1
    outer loop
      vertex -5.2 7.1375 3.35
      vertex -4.66667 8.13525 3.35
      vertex -4.84853 7.98602 3.35
    endloop
  endfacet
  facet normal 0 0 1
    outer loop
      vertex -4.2341 -8.31444 3.35
      vertex -5.2 -7.1375 3.35
      vertex -4.45921 -8.24615 3.35
    endloop
  endfacet
  facet normal 0 0 1
    outer loop
      vertex -5.2 7.1375 3.35
      vertex -4.84853 7.98602 3.35
      vertex -4.99776 7.80418 3.35
    endloop
  endfacet
  facet normal 0 0 1
    outer loop
      vertex -4.45921 -8.24615 3.35
      vertex -5.2 -7.1375 3.35
      vertex -4.66667 -8.13525 3.35
    endloop
  endfacet
  facet normal 0 0 1
    outer loop
      vertex -5.2 7.1375 3.35
      vertex -4.99776 7.80418 3.35
      vertex -5.10864 7.59671 3.35
    endloop
  endfacet
  facet normal 0 0 1
    outer loop
      vertex -4.66667 -8.13525 3.35
      vertex -5.2 -7.1375 3.35
      vertex -4.84853 -7.98602 3.35
    endloop
  endfacet
  facet normal 0 0 1
    outer loop
      vertex -5.2 7.1375 3.35
      vertex -5.10864 7.59671 3.35
      vertex -5.17694 7.3716 3.35
    endloop
  endfacet
  facet normal 0 0 1
    outer loop
      vertex -4.84853 -7.98602 3.35
      vertex -5.2 -7.1375 3.35
      vertex -4.99776 -7.80418 3.35
    endloop
  endfacet
  facet normal 0 0 1
    outer loop
      vertex -4.99776 -7.80418 3.35
      vertex -5.2 -7.1375 3.35
      vertex -5.10864 -7.59671 3.35
    endloop
  endfacet
  facet normal 0 0 1
    outer loop
      vertex -5.10864 -7.59671 3.35
      vertex -5.2 -7.1375 3.35
      vertex -5.17694 -7.3716 3.35
    endloop
  endfacet
  facet normal 0 0 1
    outer loop
      vertex -0.509613 0.0975342 3.35
      vertex -0.509613 -0.0975342 3.35
      vertex -0.5 0 3.35
    endloop
  endfacet
  facet normal 0 0 1
    outer loop
      vertex -0.538071 0.19133 3.35
      vertex -0.509613 -0.0975342 3.35
      vertex -0.509613 0.0975342 3.35
    endloop
  endfacet
  facet normal 0 0 1
    outer loop
      vertex -0.538071 0.19133 3.35
      vertex -0.538071 -0.19133 3.35
      vertex -0.509613 -0.0975342 3.35
    endloop
  endfacet
  facet normal 0 0 1
    outer loop
      vertex -0.584274 0.277771 3.35
      vertex -0.538071 -0.19133 3.35
      vertex -0.538071 0.19133 3.35
    endloop
  endfacet
  facet normal 0 0 1
    outer loop
      vertex -0.584274 0.277771 3.35
      vertex -0.584274 -0.277771 3.35
      vertex -0.538071 -0.19133 3.35
    endloop
  endfacet
  facet normal 0 0 1
    outer loop
      vertex -0.646454 0.353546 3.35
      vertex -0.584274 -0.277771 3.35
      vertex -0.584274 0.277771 3.35
    endloop
  endfacet
  facet normal 0 0 1
    outer loop
      vertex -0.646454 0.353546 3.35
      vertex -0.646454 -0.353546 3.35
      vertex -0.584274 -0.277771 3.35
    endloop
  endfacet
  facet normal 0 0 1
    outer loop
      vertex -0.722229 0.415726 3.35
      vertex -0.646454 -0.353546 3.35
      vertex -0.646454 0.353546 3.35
    endloop
  endfacet
  facet normal 0 0 1
    outer loop
      vertex -0.722229 0.415726 3.35
      vertex -0.722229 -0.415726 3.35
      vertex -0.646454 -0.353546 3.35
    endloop
  endfacet
  facet normal 0 0 1
    outer loop
      vertex -0.80867 0.461929 3.35
      vertex -0.722229 -0.415726 3.35
      vertex -0.722229 0.415726 3.35
    endloop
  endfacet
  facet normal 0 0 1
    outer loop
      vertex -0.80867 0.461929 3.35
      vertex -0.80867 -0.461929 3.35
      vertex -0.722229 -0.415726 3.35
    endloop
  endfacet
  facet normal 0 0 1
    outer loop
      vertex -2 1 3.35
      vertex -0.80867 -0.461929 3.35
      vertex -0.80867 0.461929 3.35
    endloop
  endfacet
  facet normal 0 0 1
    outer loop
      vertex -2 1 3.35
      vertex -2 -1 3.35
      vertex -0.80867 -0.461929 3.35
    endloop
  endfacet
  facet normal -0 0 1
    outer loop
      vertex -2.8 1 3.35
      vertex -2 -1 3.35
      vertex -2 1 3.35
    endloop
  endfacet
  facet normal 0 0 1
    outer loop
      vertex -2 -1 3.35
      vertex -2.8 1 3.35
      vertex -2.8 -1 3.35
    endloop
  endfacet
  facet normal 0 0 -1
    outer loop
      vertex -5.2 -7.1375 -3.35
      vertex -2.8 -1 -3.35
      vertex -2.8 -7.1375 -3.35
    endloop
  endfacet
  facet normal -0 0 -1
    outer loop
      vertex -2.8 -1 -3.35
      vertex -5.2 -7.1375 -3.35
      vertex -2.8 1 -3.35
    endloop
  endfacet
  facet normal 0 0 -1
    outer loop
      vertex -5.2 -7.1375 -3.35
      vertex -2.8 -7.1375 -3.35
      vertex -2.82306 -7.3716 -3.35
    endloop
  endfacet
  facet normal 0 0 -1
    outer loop
      vertex -5.2 7.1375 -3.35
      vertex -2.8 1 -3.35
      vertex -5.2 -7.1375 -3.35
    endloop
  endfacet
  facet normal 0 0 -1
    outer loop
      vertex -5.2 -7.1375 -3.35
      vertex -2.82306 -7.3716 -3.35
      vertex -2.89136 -7.59671 -3.35
    endloop
  endfacet
  facet normal 0 0 -1
    outer loop
      vertex -2.8 1 -3.35
      vertex -5.2 7.1375 -3.35
      vertex -2.8 7.1375 -3.35
    endloop
  endfacet
  facet normal 0 0 -1
    outer loop
      vertex -5.2 -7.1375 -3.35
      vertex -2.89136 -7.59671 -3.35
      vertex -3.00223 -7.80418 -3.35
    endloop
  endfacet
  facet normal 0 0 -1
    outer loop
      vertex -2.8 7.1375 -3.35
      vertex -5.2 7.1375 -3.35
      vertex -2.82306 7.3716 -3.35
    endloop
  endfacet
  facet normal 0 0 -1
    outer loop
      vertex -5.2 -7.1375 -3.35
      vertex -3.00223 -7.80418 -3.35
      vertex -3.15146 -7.98602 -3.35
    endloop
  endfacet
  facet normal -0 0 -1
    outer loop
      vertex -2.82306 7.3716 -3.35
      vertex -5.2 7.1375 -3.35
      vertex -2.89136 7.59671 -3.35
    endloop
  endfacet
  facet normal 0 0 -1
    outer loop
      vertex -5.2 -7.1375 -3.35
      vertex -3.15146 -7.98602 -3.35
      vertex -3.33331 -8.13525 -3.35
    endloop
  endfacet
  facet normal -0 0 -1
    outer loop
      vertex -2.89136 7.59671 -3.35
      vertex -5.2 7.1375 -3.35
      vertex -3.00223 7.80418 -3.35
    endloop
  endfacet
  facet normal 0 0 -1
    outer loop
      vertex -5.2 -7.1375 -3.35
      vertex -3.33331 -8.13525 -3.35
      vertex -3.54077 -8.24615 -3.35
    endloop
  endfacet
  facet normal -0 0 -1
    outer loop
      vertex -3.00223 7.80418 -3.35
      vertex -5.2 7.1375 -3.35
      vertex -3.15146 7.98602 -3.35
    endloop
  endfacet
  facet normal 0 0 -1
    outer loop
      vertex -5.2 -7.1375 -3.35
      vertex -3.54077 -8.24615 -3.35
      vertex -3.76588 -8.31444 -3.35
    endloop
  endfacet
  facet normal -0 0 -1
    outer loop
      vertex -3.15146 7.98602 -3.35
      vertex -5.2 7.1375 -3.35
      vertex -3.33331 8.13525 -3.35
    endloop
  endfacet
  facet normal 0 0 -1
    outer loop
      vertex -5.2 -7.1375 -3.35
      vertex -3.76588 -8.31444 -3.35
      vertex -4 -8.33749 -3.35
    endloop
  endfacet
  facet normal -0 0 -1
    outer loop
      vertex -3.33331 8.13525 -3.35
      vertex -5.2 7.1375 -3.35
      vertex -3.54077 8.24615 -3.35
    endloop
  endfacet
  facet normal 0 0 -1
    outer loop
      vertex -5.2 -7.1375 -3.35
      vertex -4 -8.33749 -3.35
      vertex -4.2341 -8.31444 -3.35
    endloop
  endfacet
  facet normal -0 0 -1
    outer loop
      vertex -3.54077 8.24615 -3.35
      vertex -5.2 7.1375 -3.35
      vertex -3.76588 8.31444 -3.35
    endloop
  endfacet
  facet normal 0 0 -1
    outer loop
      vertex -5.2 -7.1375 -3.35
      vertex -4.2341 -8.31444 -3.35
      vertex -4.45921 -8.24615 -3.35
    endloop
  endfacet
  facet normal -0 0 -1
    outer loop
      vertex -3.76588 8.31444 -3.35
      vertex -5.2 7.1375 -3.35
      vertex -4 8.33749 -3.35
    endloop
  endfacet
  facet normal 0 0 -1
    outer loop
      vertex -5.2 -7.1375 -3.35
      vertex -4.45921 -8.24615 -3.35
      vertex -4.66667 -8.13525 -3.35
    endloop
  endfacet
  facet normal 0 0 -1
    outer loop
      vertex -4 8.33749 -3.35
      vertex -5.2 7.1375 -3.35
      vertex -4.2341 8.31444 -3.35
    endloop
  endfacet
  facet normal 0 0 -1
    outer loop
      vertex -5.2 -7.1375 -3.35
      vertex -4.66667 -8.13525 -3.35
      vertex -4.84853 -7.98602 -3.35
    endloop
  endfacet
  facet normal 0 0 -1
    outer loop
      vertex -4.2341 8.31444 -3.35
      vertex -5.2 7.1375 -3.35
      vertex -4.45921 8.24615 -3.35
    endloop
  endfacet
  facet normal 0 0 -1
    outer loop
      vertex -5.2 -7.1375 -3.35
      vertex -4.84853 -7.98602 -3.35
      vertex -4.99776 -7.80418 -3.35
    endloop
  endfacet
  facet normal 0 0 -1
    outer loop
      vertex -4.45921 8.24615 -3.35
      vertex -5.2 7.1375 -3.35
      vertex -4.66667 8.13525 -3.35
    endloop
  endfacet
  facet normal 0 0 -1
    outer loop
      vertex -5.2 -7.1375 -3.35
      vertex -4.99776 -7.80418 -3.35
      vertex -5.10864 -7.59671 -3.35
    endloop
  endfacet
  facet normal 0 0 -1
    outer loop
      vertex -4.66667 8.13525 -3.35
      vertex -5.2 7.1375 -3.35
      vertex -4.84853 7.98602 -3.35
    endloop
  endfacet
  facet normal 0 0 -1
    outer loop
      vertex -5.2 -7.1375 -3.35
      vertex -5.10864 -7.59671 -3.35
      vertex -5.17694 -7.3716 -3.35
    endloop
  endfacet
  facet normal 0 0 -1
    outer loop
      vertex -4.84853 7.98602 -3.35
      vertex -5.2 7.1375 -3.35
      vertex -4.99776 7.80418 -3.35
    endloop
  endfacet
  facet normal 0 0 -1
    outer loop
      vertex -4.99776 7.80418 -3.35
      vertex -5.2 7.1375 -3.35
      vertex -5.10864 7.59671 -3.35
    endloop
  endfacet
  facet normal 0 0 -1
    outer loop
      vertex -5.10864 7.59671 -3.35
      vertex -5.2 7.1375 -3.35
      vertex -5.17694 7.3716 -3.35
    endloop
  endfacet
  facet normal 0 0 -1
    outer loop
      vertex -0.509613 -0.0975342 -3.35
      vertex -0.509613 0.0975342 -3.35
      vertex -0.5 0 -3.35
    endloop
  endfacet
  facet normal 0 0 -1
    outer loop
      vertex -0.538071 -0.19133 -3.35
      vertex -0.509613 0.0975342 -3.35
      vertex -0.509613 -0.0975342 -3.35
    endloop
  endfacet
  facet normal 0 0 -1
    outer loop
      vertex -0.538071 -0.19133 -3.35
      vertex -0.538071 0.19133 -3.35
      vertex -0.509613 0.0975342 -3.35
    endloop
  endfacet
  facet normal 0 0 -1
    outer loop
      vertex -0.584274 -0.277771 -3.35
      vertex -0.538071 0.19133 -3.35
      vertex -0.538071 -0.19133 -3.35
    endloop
  endfacet
  facet normal 0 0 -1
    outer loop
      vertex -0.584274 -0.277771 -3.35
      vertex -0.584274 0.277771 -3.35
      vertex -0.538071 0.19133 -3.35
    endloop
  endfacet
  facet normal 0 0 -1
    outer loop
      vertex -0.646454 -0.353546 -3.35
      vertex -0.584274 0.277771 -3.35
      vertex -0.584274 -0.277771 -3.35
    endloop
  endfacet
  facet normal 0 0 -1
    outer loop
      vertex -0.646454 -0.353546 -3.35
      vertex -0.646454 0.353546 -3.35
      vertex -0.584274 0.277771 -3.35
    endloop
  endfacet
  facet normal 0 0 -1
    outer loop
      vertex -0.722229 -0.415726 -3.35
      vertex -0.646454 0.353546 -3.35
      vertex -0.646454 -0.353546 -3.35
    endloop
  endfacet
  facet normal 0 0 -1
    outer loop
      vertex -0.722229 -0.415726 -3.35
      vertex -0.722229 0.415726 -3.35
      vertex -0.646454 0.353546 -3.35
    endloop
  endfacet
  facet normal 0 0 -1
    outer loop
      vertex -0.80867 -0.461929 -3.35
      vertex -0.722229 0.415726 -3.35
      vertex -0.722229 -0.415726 -3.35
    endloop
  endfacet
  facet normal 0 0 -1
    outer loop
      vertex -0.80867 -0.461929 -3.35
      vertex -0.80867 0.461929 -3.35
      vertex -0.722229 0.415726 -3.35
    endloop
  endfacet
  facet normal 0 0 -1
    outer loop
      vertex -2 -1 -3.35
      vertex -0.80867 0.461929 -3.35
      vertex -0.80867 -0.461929 -3.35
    endloop
  endfacet
  facet normal 0 0 -1
    outer loop
      vertex -2 -1 -3.35
      vertex -2 1 -3.35
      vertex -0.80867 0.461929 -3.35
    endloop
  endfacet
  facet normal 0 0 -1
    outer loop
      vertex -2.8 -1 -3.35
      vertex -2 1 -3.35
      vertex -2 -1 -3.35
    endloop
  endfacet
  facet normal -0 0 -1
    outer loop
      vertex -2 1 -3.35
      vertex -2.8 -1 -3.35
      vertex -2.8 1 -3.35
    endloop
  endfacet
  facet normal -0.956924 0.290338 0
    outer loop
      vertex -5.17694 7.3716 -3.35
      vertex -5.10864 7.59671 3.35
      vertex -5.10864 7.59671 -3.35
    endloop
  endfacet
  facet normal -0.956924 0.290338 0
    outer loop
      vertex -5.10864 7.59671 3.35
      vertex -5.17694 7.3716 -3.35
      vertex -5.17694 7.3716 3.35
    endloop
  endfacet
  facet normal -0.881948 0.471347 0
    outer loop
      vertex -5.10864 7.59671 -3.35
      vertex -4.99776 7.80418 3.35
      vertex -4.99776 7.80418 -3.35
    endloop
  endfacet
  facet normal -0.881948 0.471347 0
    outer loop
      vertex -4.99776 7.80418 3.35
      vertex -5.10864 7.59671 -3.35
      vertex -5.10864 7.59671 3.35
    endloop
  endfacet
  facet normal -0.773015 0.634388 0
    outer loop
      vertex -4.99776 7.80418 -3.35
      vertex -4.84853 7.98602 3.35
      vertex -4.84853 7.98602 -3.35
    endloop
  endfacet
  facet normal -0.773015 0.634388 0
    outer loop
      vertex -4.84853 7.98602 3.35
      vertex -4.99776 7.80418 -3.35
      vertex -4.99776 7.80418 3.35
    endloop
  endfacet
  facet normal -0.634346 0.773049 0
    outer loop
      vertex -4.66667 8.13525 -3.35
      vertex -4.84853 7.98602 3.35
      vertex -4.66667 8.13525 3.35
    endloop
  endfacet
  facet normal -0.634346 0.773049 0
    outer loop
      vertex -4.84853 7.98602 3.35
      vertex -4.66667 8.13525 -3.35
      vertex -4.84853 7.98602 -3.35
    endloop
  endfacet
  facet normal -0.471431 0.881903 0
    outer loop
      vertex -4.45921 8.24615 -3.35
      vertex -4.66667 8.13525 3.35
      vertex -4.45921 8.24615 3.35
    endloop
  endfacet
  facet normal -0.471431 0.881903 0
    outer loop
      vertex -4.66667 8.13525 3.35
      vertex -4.45921 8.24615 -3.35
      vertex -4.66667 8.13525 -3.35
    endloop
  endfacet
  facet normal -0.290299 0.956936 0
    outer loop
      vertex -4.2341 8.31444 -3.35
      vertex -4.45921 8.24615 3.35
      vertex -4.2341 8.31444 3.35
    endloop
  endfacet
  facet normal -0.290299 0.956936 0
    outer loop
      vertex -4.45921 8.24615 3.35
      vertex -4.2341 8.31444 -3.35
      vertex -4.45921 8.24615 -3.35
    endloop
  endfacet
  facet normal -0.0979884 0.995188 0
    outer loop
      vertex -4 8.33749 -3.35
      vertex -4.2341 8.31444 3.35
      vertex -4 8.33749 3.35
    endloop
  endfacet
  facet normal -0.0979884 0.995188 0
    outer loop
      vertex -4.2341 8.31444 3.35
      vertex -4 8.33749 -3.35
      vertex -4.2341 8.31444 -3.35
    endloop
  endfacet
  facet normal 0.0979801 0.995188 -0
    outer loop
      vertex -3.76588 8.31444 -3.35
      vertex -4 8.33749 3.35
      vertex -3.76588 8.31444 3.35
    endloop
  endfacet
  facet normal 0.0979801 0.995188 0
    outer loop
      vertex -4 8.33749 3.35
      vertex -3.76588 8.31444 -3.35
      vertex -4 8.33749 -3.35
    endloop
  endfacet
  facet normal 0.290299 0.956936 -0
    outer loop
      vertex -3.54077 8.24615 -3.35
      vertex -3.76588 8.31444 3.35
      vertex -3.54077 8.24615 3.35
    endloop
  endfacet
  facet normal 0.290299 0.956936 0
    outer loop
      vertex -3.76588 8.31444 3.35
      vertex -3.54077 8.24615 -3.35
      vertex -3.76588 8.31444 -3.35
    endloop
  endfacet
  facet normal 0.471431 0.881903 -0
    outer loop
      vertex -3.33331 8.13525 -3.35
      vertex -3.54077 8.24615 3.35
      vertex -3.33331 8.13525 3.35
    endloop
  endfacet
  facet normal 0.471431 0.881903 0
    outer loop
      vertex -3.54077 8.24615 3.35
      vertex -3.33331 8.13525 -3.35
      vertex -3.54077 8.24615 -3.35
    endloop
  endfacet
  facet normal 0.634367 0.773032 -0
    outer loop
      vertex -3.15146 7.98602 -3.35
      vertex -3.33331 8.13525 3.35
      vertex -3.15146 7.98602 3.35
    endloop
  endfacet
  facet normal 0.634367 0.773032 0
    outer loop
      vertex -3.33331 8.13525 3.35
      vertex -3.15146 7.98602 -3.35
      vertex -3.33331 8.13525 -3.35
    endloop
  endfacet
  facet normal 0.773015 0.634388 0
    outer loop
      vertex -3.00223 7.80418 3.35
      vertex -3.15146 7.98602 -3.35
      vertex -3.15146 7.98602 3.35
    endloop
  endfacet
  facet normal 0.773015 0.634388 0
    outer loop
      vertex -3.15146 7.98602 -3.35
      vertex -3.00223 7.80418 3.35
      vertex -3.00223 7.80418 -3.35
    endloop
  endfacet
  facet normal 0.881965 0.471314 0
    outer loop
      vertex -2.89136 7.59671 3.35
      vertex -3.00223 7.80418 -3.35
      vertex -3.00223 7.80418 3.35
    endloop
  endfacet
  facet normal 0.881965 0.471314 0
    outer loop
      vertex -3.00223 7.80418 -3.35
      vertex -2.89136 7.59671 3.35
      vertex -2.89136 7.59671 -3.35
    endloop
  endfacet
  facet normal 0.956924 0.290338 0
    outer loop
      vertex -2.82306 7.3716 3.35
      vertex -2.89136 7.59671 -3.35
      vertex -2.89136 7.59671 3.35
    endloop
  endfacet
  facet normal 0.956924 0.290338 0
    outer loop
      vertex -2.89136 7.59671 -3.35
      vertex -2.82306 7.3716 3.35
      vertex -2.82306 7.3716 -3.35
    endloop
  endfacet
  facet normal 0.995183 0.0980305 0
    outer loop
      vertex -2.8 7.1375 3.35
      vertex -2.82306 7.3716 -3.35
      vertex -2.82306 7.3716 3.35
    endloop
  endfacet
  facet normal 0.995183 0.0980305 0
    outer loop
      vertex -2.82306 7.3716 -3.35
      vertex -2.8 7.1375 3.35
      vertex -2.8 7.1375 -3.35
    endloop
  endfacet
  facet normal 1 -0 0
    outer loop
      vertex -2.8 1 3.35
      vertex -2.8 7.1375 -3.35
      vertex -2.8 7.1375 3.35
    endloop
  endfacet
  facet normal 1 0 0
    outer loop
      vertex -2.8 7.1375 -3.35
      vertex -2.8 1 3.35
      vertex -2.8 1 -3.35
    endloop
  endfacet
  facet normal 0 1 -0
    outer loop
      vertex -2 1 -3.35
      vertex -2.8 1 3.35
      vertex -2 1 3.35
    endloop
  endfacet
  facet normal 0 1 0
    outer loop
      vertex -2.8 1 3.35
      vertex -2 1 -3.35
      vertex -2.8 1 -3.35
    endloop
  endfacet
  facet normal 0.411619 0.911356 -0
    outer loop
      vertex -0.80867 0.461929 -3.35
      vertex -2 1 3.35
      vertex -0.80867 0.461929 3.35
    endloop
  endfacet
  facet normal 0.411619 0.911356 0
    outer loop
      vertex -2 1 3.35
      vertex -0.80867 0.461929 -3.35
      vertex -2 1 -3.35
    endloop
  endfacet
  facet normal 0.471391 0.881924 -0
    outer loop
      vertex -0.722229 0.415726 -3.35
      vertex -0.80867 0.461929 3.35
      vertex -0.722229 0.415726 3.35
    endloop
  endfacet
  facet normal 0.471391 0.881924 0
    outer loop
      vertex -0.80867 0.461929 3.35
      vertex -0.722229 0.415726 -3.35
      vertex -0.80867 0.461929 -3.35
    endloop
  endfacet
  facet normal 0.634351 0.773045 -0
    outer loop
      vertex -0.646454 0.353546 -3.35
      vertex -0.722229 0.415726 3.35
      vertex -0.646454 0.353546 3.35
    endloop
  endfacet
  facet normal 0.634351 0.773045 0
    outer loop
      vertex -0.722229 0.415726 3.35
      vertex -0.646454 0.353546 -3.35
      vertex -0.722229 0.415726 -3.35
    endloop
  endfacet
  facet normal 0.773045 0.634351 0
    outer loop
      vertex -0.584274 0.277771 3.35
      vertex -0.646454 0.353546 -3.35
      vertex -0.646454 0.353546 3.35
    endloop
  endfacet
  facet normal 0.773045 0.634351 0
    outer loop
      vertex -0.646454 0.353546 -3.35
      vertex -0.584274 0.277771 3.35
      vertex -0.584274 0.277771 -3.35
    endloop
  endfacet
  facet normal 0.881924 0.471391 0
    outer loop
      vertex -0.538071 0.19133 3.35
      vertex -0.584274 0.277771 -3.35
      vertex -0.584274 0.277771 3.35
    endloop
  endfacet
  facet normal 0.881924 0.471391 0
    outer loop
      vertex -0.584274 0.277771 -3.35
      vertex -0.538071 0.19133 3.35
      vertex -0.538071 0.19133 -3.35
    endloop
  endfacet
  facet normal 0.956925 0.290335 0
    outer loop
      vertex -0.509613 0.0975342 3.35
      vertex -0.538071 0.19133 -3.35
      vertex -0.538071 0.19133 3.35
    endloop
  endfacet
  facet normal 0.956925 0.290335 0
    outer loop
      vertex -0.538071 0.19133 -3.35
      vertex -0.509613 0.0975342 3.35
      vertex -0.509613 0.0975342 -3.35
    endloop
  endfacet
  facet normal 0.995178 0.098085 0
    outer loop
      vertex -0.5 0 3.35
      vertex -0.509613 0.0975342 -3.35
      vertex -0.509613 0.0975342 3.35
    endloop
  endfacet
  facet normal 0.995178 0.098085 0
    outer loop
      vertex -0.509613 0.0975342 -3.35
      vertex -0.5 0 3.35
      vertex -0.5 0 -3.35
    endloop
  endfacet
  facet normal 0.995178 -0.098085 0
    outer loop
      vertex -0.509613 -0.0975342 3.35
      vertex -0.5 0 -3.35
      vertex -0.5 0 3.35
    endloop
  endfacet
  facet normal 0.995178 -0.098085 0
    outer loop
      vertex -0.5 0 -3.35
      vertex -0.509613 -0.0975342 3.35
      vertex -0.509613 -0.0975342 -3.35
    endloop
  endfacet
  facet normal 0.956925 -0.290335 0
    outer loop
      vertex -0.538071 -0.19133 3.35
      vertex -0.509613 -0.0975342 -3.35
      vertex -0.509613 -0.0975342 3.35
    endloop
  endfacet
  facet normal 0.956925 -0.290335 0
    outer loop
      vertex -0.509613 -0.0975342 -3.35
      vertex -0.538071 -0.19133 3.35
      vertex -0.538071 -0.19133 -3.35
    endloop
  endfacet
  facet normal 0.881924 -0.471391 0
    outer loop
      vertex -0.584274 -0.277771 3.35
      vertex -0.538071 -0.19133 -3.35
      vertex -0.538071 -0.19133 3.35
    endloop
  endfacet
  facet normal 0.881924 -0.471391 0
    outer loop
      vertex -0.538071 -0.19133 -3.35
      vertex -0.584274 -0.277771 3.35
      vertex -0.584274 -0.277771 -3.35
    endloop
  endfacet
  facet normal 0.773045 -0.634351 0
    outer loop
      vertex -0.646454 -0.353546 3.35
      vertex -0.584274 -0.277771 -3.35
      vertex -0.584274 -0.277771 3.35
    endloop
  endfacet
  facet normal 0.773045 -0.634351 0
    outer loop
      vertex -0.584274 -0.277771 -3.35
      vertex -0.646454 -0.353546 3.35
      vertex -0.646454 -0.353546 -3.35
    endloop
  endfacet
  facet normal 0.634351 -0.773045 0
    outer loop
      vertex -0.722229 -0.415726 -3.35
      vertex -0.646454 -0.353546 3.35
      vertex -0.722229 -0.415726 3.35
    endloop
  endfacet
  facet normal 0.634351 -0.773045 0
    outer loop
      vertex -0.646454 -0.353546 3.35
      vertex -0.722229 -0.415726 -3.35
      vertex -0.646454 -0.353546 -3.35
    endloop
  endfacet
  facet normal 0.471391 -0.881924 0
    outer loop
      vertex -0.80867 -0.461929 -3.35
      vertex -0.722229 -0.415726 3.35
      vertex -0.80867 -0.461929 3.35
    endloop
  endfacet
  facet normal 0.471391 -0.881924 0
    outer loop
      vertex -0.722229 -0.415726 3.35
      vertex -0.80867 -0.461929 -3.35
      vertex -0.722229 -0.415726 -3.35
    endloop
  endfacet
  facet normal 0.411619 -0.911356 0
    outer loop
      vertex -2 -1 -3.35
      vertex -0.80867 -0.461929 3.35
      vertex -2 -1 3.35
    endloop
  endfacet
  facet normal 0.411619 -0.911356 0
    outer loop
      vertex -0.80867 -0.461929 3.35
      vertex -2 -1 -3.35
      vertex -0.80867 -0.461929 -3.35
    endloop
  endfacet
  facet normal 0 -1 0
    outer loop
      vertex -2.8 -1 -3.35
      vertex -2 -1 3.35
      vertex -2.8 -1 3.35
    endloop
  endfacet
  facet normal 0 -1 -0
    outer loop
      vertex -2 -1 3.35
      vertex -2.8 -1 -3.35
      vertex -2 -1 -3.35
    endloop
  endfacet
  facet normal 1 -0 0
    outer loop
      vertex -2.8 -7.1375 3.35
      vertex -2.8 -1 -3.35
      vertex -2.8 -1 3.35
    endloop
  endfacet
  facet normal 1 0 0
    outer loop
      vertex -2.8 -1 -3.35
      vertex -2.8 -7.1375 3.35
      vertex -2.8 -7.1375 -3.35
    endloop
  endfacet
  facet normal 0.995183 -0.0980305 0
    outer loop
      vertex -2.82306 -7.3716 3.35
      vertex -2.8 -7.1375 -3.35
      vertex -2.8 -7.1375 3.35
    endloop
  endfacet
  facet normal 0.995183 -0.0980305 0
    outer loop
      vertex -2.8 -7.1375 -3.35
      vertex -2.82306 -7.3716 3.35
      vertex -2.82306 -7.3716 -3.35
    endloop
  endfacet
  facet normal 0.956924 -0.290338 0
    outer loop
      vertex -2.89136 -7.59671 3.35
      vertex -2.82306 -7.3716 -3.35
      vertex -2.82306 -7.3716 3.35
    endloop
  endfacet
  facet normal 0.956924 -0.290338 0
    outer loop
      vertex -2.82306 -7.3716 -3.35
      vertex -2.89136 -7.59671 3.35
      vertex -2.89136 -7.59671 -3.35
    endloop
  endfacet
  facet normal 0.881965 -0.471314 0
    outer loop
      vertex -3.00223 -7.80418 3.35
      vertex -2.89136 -7.59671 -3.35
      vertex -2.89136 -7.59671 3.35
    endloop
  endfacet
  facet normal 0.881965 -0.471314 0
    outer loop
      vertex -2.89136 -7.59671 -3.35
      vertex -3.00223 -7.80418 3.35
      vertex -3.00223 -7.80418 -3.35
    endloop
  endfacet
  facet normal 0.773015 -0.634388 0
    outer loop
      vertex -3.15146 -7.98602 3.35
      vertex -3.00223 -7.80418 -3.35
      vertex -3.00223 -7.80418 3.35
    endloop
  endfacet
  facet normal 0.773015 -0.634388 0
    outer loop
      vertex -3.00223 -7.80418 -3.35
      vertex -3.15146 -7.98602 3.35
      vertex -3.15146 -7.98602 -3.35
    endloop
  endfacet
  facet normal 0.634367 -0.773032 0
    outer loop
      vertex -3.33331 -8.13525 -3.35
      vertex -3.15146 -7.98602 3.35
      vertex -3.33331 -8.13525 3.35
    endloop
  endfacet
  facet normal 0.634367 -0.773032 0
    outer loop
      vertex -3.15146 -7.98602 3.35
      vertex -3.33331 -8.13525 -3.35
      vertex -3.15146 -7.98602 -3.35
    endloop
  endfacet
  facet normal 0.471431 -0.881903 0
    outer loop
      vertex -3.54077 -8.24615 -3.35
      vertex -3.33331 -8.13525 3.35
      vertex -3.54077 -8.24615 3.35
    endloop
  endfacet
  facet normal 0.471431 -0.881903 0
    outer loop
      vertex -3.33331 -8.13525 3.35
      vertex -3.54077 -8.24615 -3.35
      vertex -3.33331 -8.13525 -3.35
    endloop
  endfacet
  facet normal 0.290299 -0.956936 0
    outer loop
      vertex -3.76588 -8.31444 -3.35
      vertex -3.54077 -8.24615 3.35
      vertex -3.76588 -8.31444 3.35
    endloop
  endfacet
  facet normal 0.290299 -0.956936 0
    outer loop
      vertex -3.54077 -8.24615 3.35
      vertex -3.76588 -8.31444 -3.35
      vertex -3.54077 -8.24615 -3.35
    endloop
  endfacet
  facet normal 0.0979801 -0.995188 0
    outer loop
      vertex -4 -8.33749 -3.35
      vertex -3.76588 -8.31444 3.35
      vertex -4 -8.33749 3.35
    endloop
  endfacet
  facet normal 0.0979801 -0.995188 0
    outer loop
      vertex -3.76588 -8.31444 3.35
      vertex -4 -8.33749 -3.35
      vertex -3.76588 -8.31444 -3.35
    endloop
  endfacet
  facet normal -0.0979884 -0.995188 0
    outer loop
      vertex -4.2341 -8.31444 -3.35
      vertex -4 -8.33749 3.35
      vertex -4.2341 -8.31444 3.35
    endloop
  endfacet
  facet normal -0.0979884 -0.995188 -0
    outer loop
      vertex -4 -8.33749 3.35
      vertex -4.2341 -8.31444 -3.35
      vertex -4 -8.33749 -3.35
    endloop
  endfacet
  facet normal -0.290299 -0.956936 0
    outer loop
      vertex -4.45921 -8.24615 -3.35
      vertex -4.2341 -8.31444 3.35
      vertex -4.45921 -8.24615 3.35
    endloop
  endfacet
  facet normal -0.290299 -0.956936 -0
    outer loop
      vertex -4.2341 -8.31444 3.35
      vertex -4.45921 -8.24615 -3.35
      vertex -4.2341 -8.31444 -3.35
    endloop
  endfacet
  facet normal -0.471431 -0.881903 0
    outer loop
      vertex -4.66667 -8.13525 -3.35
      vertex -4.45921 -8.24615 3.35
      vertex -4.66667 -8.13525 3.35
    endloop
  endfacet
  facet normal -0.471431 -0.881903 -0
    outer loop
      vertex -4.45921 -8.24615 3.35
      vertex -4.66667 -8.13525 -3.35
      vertex -4.45921 -8.24615 -3.35
    endloop
  endfacet
  facet normal -0.634346 -0.773049 0
    outer loop
      vertex -4.84853 -7.98602 -3.35
      vertex -4.66667 -8.13525 3.35
      vertex -4.84853 -7.98602 3.35
    endloop
  endfacet
  facet normal -0.634346 -0.773049 -0
    outer loop
      vertex -4.66667 -8.13525 3.35
      vertex -4.84853 -7.98602 -3.35
      vertex -4.66667 -8.13525 -3.35
    endloop
  endfacet
  facet normal -0.773015 -0.634388 0
    outer loop
      vertex -4.84853 -7.98602 -3.35
      vertex -4.99776 -7.80418 3.35
      vertex -4.99776 -7.80418 -3.35
    endloop
  endfacet
  facet normal -0.773015 -0.634388 0
    outer loop
      vertex -4.99776 -7.80418 3.35
      vertex -4.84853 -7.98602 -3.35
      vertex -4.84853 -7.98602 3.35
    endloop
  endfacet
  facet normal -0.881948 -0.471347 0
    outer loop
      vertex -4.99776 -7.80418 -3.35
      vertex -5.10864 -7.59671 3.35
      vertex -5.10864 -7.59671 -3.35
    endloop
  endfacet
  facet normal -0.881948 -0.471347 0
    outer loop
      vertex -5.10864 -7.59671 3.35
      vertex -4.99776 -7.80418 -3.35
      vertex -4.99776 -7.80418 3.35
    endloop
  endfacet
  facet normal -0.956924 -0.290338 0
    outer loop
      vertex -5.10864 -7.59671 -3.35
      vertex -5.17694 -7.3716 3.35
      vertex -5.17694 -7.3716 -3.35
    endloop
  endfacet
  facet normal -0.956924 -0.290338 0
    outer loop
      vertex -5.17694 -7.3716 3.35
      vertex -5.10864 -7.59671 -3.35
      vertex -5.10864 -7.59671 3.35
    endloop
  endfacet
  facet normal -0.995183 -0.0980305 0
    outer loop
      vertex -5.17694 -7.3716 -3.35
      vertex -5.2 -7.1375 3.35
      vertex -5.2 -7.1375 -3.35
    endloop
  endfacet
  facet normal -0.995183 -0.0980305 0
    outer loop
      vertex -5.2 -7.1375 3.35
      vertex -5.17694 -7.3716 -3.35
      vertex -5.17694 -7.3716 3.35
    endloop
  endfacet
  facet normal -1 0 0
    outer loop
      vertex -5.2 -7.1375 -3.35
      vertex -5.2 7.1375 3.35
      vertex -5.2 7.1375 -3.35
    endloop
  endfacet
  facet normal -1 -0 0
    outer loop
      vertex -5.2 7.1375 3.35
      vertex -5.2 -7.1375 -3.35
      vertex -5.2 -7.1375 3.35
    endloop
  endfacet
  facet normal -0.995183 0.0980305 0
    outer loop
      vertex -5.2 7.1375 -3.35
      vertex -5.17694 7.3716 3.35
      vertex -5.17694 7.3716 -3.35
    endloop
  endfacet
  facet normal -0.995183 0.0980305 0
    outer loop
      vertex -5.17694 7.3716 3.35
      vertex -5.2 7.1375 -3.35
      vertex -5.2 7.1375 3.35
    endloop
  endfacet
  facet normal -0 0 1
    outer loop
      vertex 2.8 7.1375 3.35
      vertex 5.2 1 3.35
      vertex 5.2 7.1375 3.35
    endloop
  endfacet
  facet normal 0 0 1
    outer loop
      vertex 5.2 1 3.35
      vertex 2.8 7.1375 3.35
      vertex 5.2 -1 3.35
    endloop
  endfacet
  facet normal 0 0 1
    outer loop
      vertex 2.8 7.1375 3.35
      vertex 5.2 7.1375 3.35
      vertex 5.17694 7.3716 3.35
    endloop
  endfacet
  facet normal 0 0 1
    outer loop
      vertex 2.8 -7.1375 3.35
      vertex 5.2 -1 3.35
      vertex 2.8 7.1375 3.35
    endloop
  endfacet
  facet normal 0 0 1
    outer loop
      vertex 2.8 7.1375 3.35
      vertex 5.17694 7.3716 3.35
      vertex 5.10864 7.59671 3.35
    endloop
  endfacet
  facet normal 0 0 1
    outer loop
      vertex 5.2 -1 3.35
      vertex 2.8 -7.1375 3.35
      vertex 5.2 -7.1375 3.35
    endloop
  endfacet
  facet normal 0 0 1
    outer loop
      vertex 2.8 7.1375 3.35
      vertex 5.10864 7.59671 3.35
      vertex 4.99777 7.80418 3.35
    endloop
  endfacet
  facet normal 0 0 1
    outer loop
      vertex 5.2 -7.1375 3.35
      vertex 2.8 -7.1375 3.35
      vertex 5.17694 -7.3716 3.35
    endloop
  endfacet
  facet normal 0 0 1
    outer loop
      vertex 2.8 7.1375 3.35
      vertex 4.99777 7.80418 3.35
      vertex 4.84854 7.98602 3.35
    endloop
  endfacet
  facet normal 0 0 1
    outer loop
      vertex 5.17694 -7.3716 3.35
      vertex 2.8 -7.1375 3.35
      vertex 5.10864 -7.59671 3.35
    endloop
  endfacet
  facet normal 0 0 1
    outer loop
      vertex 2.8 7.1375 3.35
      vertex 4.84854 7.98602 3.35
      vertex 4.66669 8.13525 3.35
    endloop
  endfacet
  facet normal 0 0 1
    outer loop
      vertex 5.10864 -7.59671 3.35
      vertex 2.8 -7.1375 3.35
      vertex 4.99777 -7.80418 3.35
    endloop
  endfacet
  facet normal 0 0 1
    outer loop
      vertex 2.8 7.1375 3.35
      vertex 4.66669 8.13525 3.35
      vertex 4.45923 8.24615 3.35
    endloop
  endfacet
  facet normal 0 0 1
    outer loop
      vertex 4.99777 -7.80418 3.35
      vertex 2.8 -7.1375 3.35
      vertex 4.84854 -7.98602 3.35
    endloop
  endfacet
  facet normal 0 0 1
    outer loop
      vertex 2.8 7.1375 3.35
      vertex 4.45923 8.24615 3.35
      vertex 4.23412 8.31444 3.35
    endloop
  endfacet
  facet normal 0 0 1
    outer loop
      vertex 4.84854 -7.98602 3.35
      vertex 2.8 -7.1375 3.35
      vertex 4.66669 -8.13525 3.35
    endloop
  endfacet
  facet normal 0 0 1
    outer loop
      vertex 2.8 7.1375 3.35
      vertex 4.23412 8.31444 3.35
      vertex 4 8.33749 3.35
    endloop
  endfacet
  facet normal 0 0 1
    outer loop
      vertex 4.66669 -8.13525 3.35
      vertex 2.8 -7.1375 3.35
      vertex 4.45923 -8.24615 3.35
    endloop
  endfacet
  facet normal 0 0 1
    outer loop
      vertex 2.8 7.1375 3.35
      vertex 4 8.33749 3.35
      vertex 3.7659 8.31444 3.35
    endloop
  endfacet
  facet normal 0 0 1
    outer loop
      vertex 4.45923 -8.24615 3.35
      vertex 2.8 -7.1375 3.35
      vertex 4.23412 -8.31444 3.35
    endloop
  endfacet
  facet normal 0 0 1
    outer loop
      vertex 2.8 7.1375 3.35
      vertex 3.7659 8.31444 3.35
      vertex 3.54079 8.24615 3.35
    endloop
  endfacet
  facet normal 0 0 1
    outer loop
      vertex 4.23412 -8.31444 3.35
      vertex 2.8 -7.1375 3.35
      vertex 4 -8.33749 3.35
    endloop
  endfacet
  facet normal 0 0 1
    outer loop
      vertex 2.8 7.1375 3.35
      vertex 3.54079 8.24615 3.35
      vertex 3.33333 8.13525 3.35
    endloop
  endfacet
  facet normal 0 0 1
    outer loop
      vertex 4 -8.33749 3.35
      vertex 2.8 -7.1375 3.35
      vertex 3.7659 -8.31444 3.35
    endloop
  endfacet
  facet normal 0 0 1
    outer loop
      vertex 2.8 7.1375 3.35
      vertex 3.33333 8.13525 3.35
      vertex 3.15147 7.98602 3.35
    endloop
  endfacet
  facet normal 0 0 1
    outer loop
      vertex 3.7659 -8.31444 3.35
      vertex 2.8 -7.1375 3.35
      vertex 3.54079 -8.24615 3.35
    endloop
  endfacet
  facet normal 0 0 1
    outer loop
      vertex 2.8 7.1375 3.35
      vertex 3.15147 7.98602 3.35
      vertex 3.00224 7.80418 3.35
    endloop
  endfacet
  facet normal 0 0 1
    outer loop
      vertex 3.54079 -8.24615 3.35
      vertex 2.8 -7.1375 3.35
      vertex 3.33333 -8.13525 3.35
    endloop
  endfacet
  facet normal 0 0 1
    outer loop
      vertex 2.8 7.1375 3.35
      vertex 3.00224 7.80418 3.35
      vertex 2.89136 7.59671 3.35
    endloop
  endfacet
  facet normal 0 0 1
    outer loop
      vertex 3.33333 -8.13525 3.35
      vertex 2.8 -7.1375 3.35
      vertex 3.15147 -7.98602 3.35
    endloop
  endfacet
  facet normal 0 0 1
    outer loop
      vertex 2.8 7.1375 3.35
      vertex 2.89136 7.59671 3.35
      vertex 2.82306 7.3716 3.35
    endloop
  endfacet
  facet normal 0 0 1
    outer loop
      vertex 3.15147 -7.98602 3.35
      vertex 2.8 -7.1375 3.35
      vertex 3.00224 -7.80418 3.35
    endloop
  endfacet
  facet normal 0 0 1
    outer loop
      vertex 3.00224 -7.80418 3.35
      vertex 2.8 -7.1375 3.35
      vertex 2.89136 -7.59671 3.35
    endloop
  endfacet
  facet normal 0 0 1
    outer loop
      vertex 2.89136 -7.59671 3.35
      vertex 2.8 -7.1375 3.35
      vertex 2.82306 -7.3716 3.35
    endloop
  endfacet
  facet normal 0 0 1
    outer loop
      vertex 7.49039 0.0975342 3.35
      vertex 7.49039 -0.0975342 3.35
      vertex 7.5 0 3.35
    endloop
  endfacet
  facet normal 0 0 1
    outer loop
      vertex 7.46193 0.19133 3.35
      vertex 7.49039 -0.0975342 3.35
      vertex 7.49039 0.0975342 3.35
    endloop
  endfacet
  facet normal 0 0 1
    outer loop
      vertex 7.46193 0.19133 3.35
      vertex 7.46193 -0.19133 3.35
      vertex 7.49039 -0.0975342 3.35
    endloop
  endfacet
  facet normal 0 0 1
    outer loop
      vertex 7.41573 0.277771 3.35
      vertex 7.46193 -0.19133 3.35
      vertex 7.46193 0.19133 3.35
    endloop
  endfacet
  facet normal 0 0 1
    outer loop
      vertex 7.41573 0.277771 3.35
      vertex 7.41573 -0.277771 3.35
      vertex 7.46193 -0.19133 3.35
    endloop
  endfacet
  facet normal 0 0 1
    outer loop
      vertex 7.35355 0.353546 3.35
      vertex 7.41573 -0.277771 3.35
      vertex 7.41573 0.277771 3.35
    endloop
  endfacet
  facet normal 0 0 1
    outer loop
      vertex 7.35355 0.353546 3.35
      vertex 7.35355 -0.353546 3.35
      vertex 7.41573 -0.277771 3.35
    endloop
  endfacet
  facet normal 0 0 1
    outer loop
      vertex 7.27777 0.415726 3.35
      vertex 7.35355 -0.353546 3.35
      vertex 7.35355 0.353546 3.35
    endloop
  endfacet
  facet normal 0 0 1
    outer loop
      vertex 7.27777 0.415726 3.35
      vertex 7.27777 -0.415726 3.35
      vertex 7.35355 -0.353546 3.35
    endloop
  endfacet
  facet normal 0 0 1
    outer loop
      vertex 7.19133 0.461929 3.35
      vertex 7.27777 -0.415726 3.35
      vertex 7.27777 0.415726 3.35
    endloop
  endfacet
  facet normal 0 0 1
    outer loop
      vertex 7.19133 0.461929 3.35
      vertex 7.19133 -0.461929 3.35
      vertex 7.27777 -0.415726 3.35
    endloop
  endfacet
  facet normal 0 0 1
    outer loop
      vertex 6 1 3.35
      vertex 7.19133 -0.461929 3.35
      vertex 7.19133 0.461929 3.35
    endloop
  endfacet
  facet normal 0 0 1
    outer loop
      vertex 6 1 3.35
      vertex 6 -1 3.35
      vertex 7.19133 -0.461929 3.35
    endloop
  endfacet
  facet normal -0 0 1
    outer loop
      vertex 5.2 1 3.35
      vertex 6 -1 3.35
      vertex 6 1 3.35
    endloop
  endfacet
  facet normal 0 0 1
    outer loop
      vertex 6 -1 3.35
      vertex 5.2 1 3.35
      vertex 5.2 -1 3.35
    endloop
  endfacet
  facet normal 0 0 -1
    outer loop
      vertex 2.8 -7.1375 -3.35
      vertex 5.2 -1 -3.35
      vertex 5.2 -7.1375 -3.35
    endloop
  endfacet
  facet normal -0 0 -1
    outer loop
      vertex 5.2 -1 -3.35
      vertex 2.8 -7.1375 -3.35
      vertex 5.2 1 -3.35
    endloop
  endfacet
  facet normal 0 0 -1
    outer loop
      vertex 2.8 -7.1375 -3.35
      vertex 5.2 -7.1375 -3.35
      vertex 5.17694 -7.3716 -3.35
    endloop
  endfacet
  facet normal 0 0 -1
    outer loop
      vertex 2.8 7.1375 -3.35
      vertex 5.2 1 -3.35
      vertex 2.8 -7.1375 -3.35
    endloop
  endfacet
  facet normal 0 0 -1
    outer loop
      vertex 2.8 -7.1375 -3.35
      vertex 5.17694 -7.3716 -3.35
      vertex 5.10864 -7.59671 -3.35
    endloop
  endfacet
  facet normal 0 0 -1
    outer loop
      vertex 5.2 1 -3.35
      vertex 2.8 7.1375 -3.35
      vertex 5.2 7.1375 -3.35
    endloop
  endfacet
  facet normal 0 0 -1
    outer loop
      vertex 2.8 -7.1375 -3.35
      vertex 5.10864 -7.59671 -3.35
      vertex 4.99777 -7.80418 -3.35
    endloop
  endfacet
  facet normal 0 0 -1
    outer loop
      vertex 5.2 7.1375 -3.35
      vertex 2.8 7.1375 -3.35
      vertex 5.17694 7.3716 -3.35
    endloop
  endfacet
  facet normal 0 0 -1
    outer loop
      vertex 2.8 -7.1375 -3.35
      vertex 4.99777 -7.80418 -3.35
      vertex 4.84854 -7.98602 -3.35
    endloop
  endfacet
  facet normal -0 0 -1
    outer loop
      vertex 5.17694 7.3716 -3.35
      vertex 2.8 7.1375 -3.35
      vertex 5.10864 7.59671 -3.35
    endloop
  endfacet
  facet normal 0 0 -1
    outer loop
      vertex 2.8 -7.1375 -3.35
      vertex 4.84854 -7.98602 -3.35
      vertex 4.66669 -8.13525 -3.35
    endloop
  endfacet
  facet normal -0 0 -1
    outer loop
      vertex 5.10864 7.59671 -3.35
      vertex 2.8 7.1375 -3.35
      vertex 4.99777 7.80418 -3.35
    endloop
  endfacet
  facet normal 0 0 -1
    outer loop
      vertex 2.8 -7.1375 -3.35
      vertex 4.66669 -8.13525 -3.35
      vertex 4.45923 -8.24615 -3.35
    endloop
  endfacet
  facet normal -0 0 -1
    outer loop
      vertex 4.99777 7.80418 -3.35
      vertex 2.8 7.1375 -3.35
      vertex 4.84854 7.98602 -3.35
    endloop
  endfacet
  facet normal 0 0 -1
    outer loop
      vertex 2.8 -7.1375 -3.35
      vertex 4.45923 -8.24615 -3.35
      vertex 4.23412 -8.31444 -3.35
    endloop
  endfacet
  facet normal -0 0 -1
    outer loop
      vertex 4.84854 7.98602 -3.35
      vertex 2.8 7.1375 -3.35
      vertex 4.66669 8.13525 -3.35
    endloop
  endfacet
  facet normal 0 0 -1
    outer loop
      vertex 2.8 -7.1375 -3.35
      vertex 4.23412 -8.31444 -3.35
      vertex 4 -8.33749 -3.35
    endloop
  endfacet
  facet normal -0 0 -1
    outer loop
      vertex 4.66669 8.13525 -3.35
      vertex 2.8 7.1375 -3.35
      vertex 4.45923 8.24615 -3.35
    endloop
  endfacet
  facet normal 0 0 -1
    outer loop
      vertex 2.8 -7.1375 -3.35
      vertex 4 -8.33749 -3.35
      vertex 3.7659 -8.31444 -3.35
    endloop
  endfacet
  facet normal -0 0 -1
    outer loop
      vertex 4.45923 8.24615 -3.35
      vertex 2.8 7.1375 -3.35
      vertex 4.23412 8.31444 -3.35
    endloop
  endfacet
  facet normal 0 0 -1
    outer loop
      vertex 2.8 -7.1375 -3.35
      vertex 3.7659 -8.31444 -3.35
      vertex 3.54079 -8.24615 -3.35
    endloop
  endfacet
  facet normal -0 0 -1
    outer loop
      vertex 4.23412 8.31444 -3.35
      vertex 2.8 7.1375 -3.35
      vertex 4 8.33749 -3.35
    endloop
  endfacet
  facet normal 0 0 -1
    outer loop
      vertex 2.8 -7.1375 -3.35
      vertex 3.54079 -8.24615 -3.35
      vertex 3.33333 -8.13525 -3.35
    endloop
  endfacet
  facet normal 0 0 -1
    outer loop
      vertex 4 8.33749 -3.35
      vertex 2.8 7.1375 -3.35
      vertex 3.7659 8.31444 -3.35
    endloop
  endfacet
  facet normal 0 0 -1
    outer loop
      vertex 2.8 -7.1375 -3.35
      vertex 3.33333 -8.13525 -3.35
      vertex 3.15147 -7.98602 -3.35
    endloop
  endfacet
  facet normal 0 0 -1
    outer loop
      vertex 3.7659 8.31444 -3.35
      vertex 2.8 7.1375 -3.35
      vertex 3.54079 8.24615 -3.35
    endloop
  endfacet
  facet normal 0 0 -1
    outer loop
      vertex 2.8 -7.1375 -3.35
      vertex 3.15147 -7.98602 -3.35
      vertex 3.00224 -7.80418 -3.35
    endloop
  endfacet
  facet normal 0 0 -1
    outer loop
      vertex 3.54079 8.24615 -3.35
      vertex 2.8 7.1375 -3.35
      vertex 3.33333 8.13525 -3.35
    endloop
  endfacet
  facet normal 0 0 -1
    outer loop
      vertex 2.8 -7.1375 -3.35
      vertex 3.00224 -7.80418 -3.35
      vertex 2.89136 -7.59671 -3.35
    endloop
  endfacet
  facet normal 0 0 -1
    outer loop
      vertex 3.33333 8.13525 -3.35
      vertex 2.8 7.1375 -3.35
      vertex 3.15147 7.98602 -3.35
    endloop
  endfacet
  facet normal 0 0 -1
    outer loop
      vertex 2.8 -7.1375 -3.35
      vertex 2.89136 -7.59671 -3.35
      vertex 2.82306 -7.3716 -3.35
    endloop
  endfacet
  facet normal 0 0 -1
    outer loop
      vertex 3.15147 7.98602 -3.35
      vertex 2.8 7.1375 -3.35
      vertex 3.00224 7.80418 -3.35
    endloop
  endfacet
  facet normal 0 0 -1
    outer loop
      vertex 3.00224 7.80418 -3.35
      vertex 2.8 7.1375 -3.35
      vertex 2.89136 7.59671 -3.35
    endloop
  endfacet
  facet normal 0 0 -1
    outer loop
      vertex 2.89136 7.59671 -3.35
      vertex 2.8 7.1375 -3.35
      vertex 2.82306 7.3716 -3.35
    endloop
  endfacet
  facet normal 0 0 -1
    outer loop
      vertex 7.49039 -0.0975342 -3.35
      vertex 7.49039 0.0975342 -3.35
      vertex 7.5 0 -3.35
    endloop
  endfacet
  facet normal 0 0 -1
    outer loop
      vertex 7.46193 -0.19133 -3.35
      vertex 7.49039 0.0975342 -3.35
      vertex 7.49039 -0.0975342 -3.35
    endloop
  endfacet
  facet normal 0 0 -1
    outer loop
      vertex 7.46193 -0.19133 -3.35
      vertex 7.46193 0.19133 -3.35
      vertex 7.49039 0.0975342 -3.35
    endloop
  endfacet
  facet normal 0 0 -1
    outer loop
      vertex 7.41573 -0.277771 -3.35
      vertex 7.46193 0.19133 -3.35
      vertex 7.46193 -0.19133 -3.35
    endloop
  endfacet
  facet normal 0 0 -1
    outer loop
      vertex 7.41573 -0.277771 -3.35
      vertex 7.41573 0.277771 -3.35
      vertex 7.46193 0.19133 -3.35
    endloop
  endfacet
  facet normal 0 0 -1
    outer loop
      vertex 7.35355 -0.353546 -3.35
      vertex 7.41573 0.277771 -3.35
      vertex 7.41573 -0.277771 -3.35
    endloop
  endfacet
  facet normal 0 0 -1
    outer loop
      vertex 7.35355 -0.353546 -3.35
      vertex 7.35355 0.353546 -3.35
      vertex 7.41573 0.277771 -3.35
    endloop
  endfacet
  facet normal 0 0 -1
    outer loop
      vertex 7.27777 -0.415726 -3.35
      vertex 7.35355 0.353546 -3.35
      vertex 7.35355 -0.353546 -3.35
    endloop
  endfacet
  facet normal 0 0 -1
    outer loop
      vertex 7.27777 -0.415726 -3.35
      vertex 7.27777 0.415726 -3.35
      vertex 7.35355 0.353546 -3.35
    endloop
  endfacet
  facet normal 0 0 -1
    outer loop
      vertex 7.19133 -0.461929 -3.35
      vertex 7.27777 0.415726 -3.35
      vertex 7.27777 -0.415726 -3.35
    endloop
  endfacet
  facet normal 0 0 -1
    outer loop
      vertex 7.19133 -0.461929 -3.35
      vertex 7.19133 0.461929 -3.35
      vertex 7.27777 0.415726 -3.35
    endloop
  endfacet
  facet normal 0 0 -1
    outer loop
      vertex 6 -1 -3.35
      vertex 7.19133 0.461929 -3.35
      vertex 7.19133 -0.461929 -3.35
    endloop
  endfacet
  facet normal 0 0 -1
    outer loop
      vertex 6 -1 -3.35
      vertex 6 1 -3.35
      vertex 7.19133 0.461929 -3.35
    endloop
  endfacet
  facet normal 0 0 -1
    outer loop
      vertex 5.2 -1 -3.35
      vertex 6 1 -3.35
      vertex 6 -1 -3.35
    endloop
  endfacet
  facet normal -0 0 -1
    outer loop
      vertex 6 1 -3.35
      vertex 5.2 -1 -3.35
      vertex 5.2 1 -3.35
    endloop
  endfacet
  facet normal -0.956924 0.290338 0
    outer loop
      vertex 2.82306 7.3716 -3.35
      vertex 2.89136 7.59671 3.35
      vertex 2.89136 7.59671 -3.35
    endloop
  endfacet
  facet normal -0.956924 0.290338 0
    outer loop
      vertex 2.89136 7.59671 3.35
      vertex 2.82306 7.3716 -3.35
      vertex 2.82306 7.3716 3.35
    endloop
  endfacet
  facet normal -0.881948 0.471347 0
    outer loop
      vertex 2.89136 7.59671 -3.35
      vertex 3.00224 7.80418 3.35
      vertex 3.00224 7.80418 -3.35
    endloop
  endfacet
  facet normal -0.881948 0.471347 0
    outer loop
      vertex 3.00224 7.80418 3.35
      vertex 2.89136 7.59671 -3.35
      vertex 2.89136 7.59671 3.35
    endloop
  endfacet
  facet normal -0.773015 0.634388 0
    outer loop
      vertex 3.00224 7.80418 -3.35
      vertex 3.15147 7.98602 3.35
      vertex 3.15147 7.98602 -3.35
    endloop
  endfacet
  facet normal -0.773015 0.634388 0
    outer loop
      vertex 3.15147 7.98602 3.35
      vertex 3.00224 7.80418 -3.35
      vertex 3.00224 7.80418 3.35
    endloop
  endfacet
  facet normal -0.634346 0.773049 0
    outer loop
      vertex 3.33333 8.13525 -3.35
      vertex 3.15147 7.98602 3.35
      vertex 3.33333 8.13525 3.35
    endloop
  endfacet
  facet normal -0.634346 0.773049 0
    outer loop
      vertex 3.15147 7.98602 3.35
      vertex 3.33333 8.13525 -3.35
      vertex 3.15147 7.98602 -3.35
    endloop
  endfacet
  facet normal -0.471431 0.881903 0
    outer loop
      vertex 3.54079 8.24615 -3.35
      vertex 3.33333 8.13525 3.35
      vertex 3.54079 8.24615 3.35
    endloop
  endfacet
  facet normal -0.471431 0.881903 0
    outer loop
      vertex 3.33333 8.13525 3.35
      vertex 3.54079 8.24615 -3.35
      vertex 3.33333 8.13525 -3.35
    endloop
  endfacet
  facet normal -0.290299 0.956936 0
    outer loop
      vertex 3.7659 8.31444 -3.35
      vertex 3.54079 8.24615 3.35
      vertex 3.7659 8.31444 3.35
    endloop
  endfacet
  facet normal -0.290299 0.956936 0
    outer loop
      vertex 3.54079 8.24615 3.35
      vertex 3.7659 8.31444 -3.35
      vertex 3.54079 8.24615 -3.35
    endloop
  endfacet
  facet normal -0.0979884 0.995188 0
    outer loop
      vertex 4 8.33749 -3.35
      vertex 3.7659 8.31444 3.35
      vertex 4 8.33749 3.35
    endloop
  endfacet
  facet normal -0.0979884 0.995188 0
    outer loop
      vertex 3.7659 8.31444 3.35
      vertex 4 8.33749 -3.35
      vertex 3.7659 8.31444 -3.35
    endloop
  endfacet
  facet normal 0.0979801 0.995188 -0
    outer loop
      vertex 4.23412 8.31444 -3.35
      vertex 4 8.33749 3.35
      vertex 4.23412 8.31444 3.35
    endloop
  endfacet
  facet normal 0.0979801 0.995188 0
    outer loop
      vertex 4 8.33749 3.35
      vertex 4.23412 8.31444 -3.35
      vertex 4 8.33749 -3.35
    endloop
  endfacet
  facet normal 0.290299 0.956936 -0
    outer loop
      vertex 4.45923 8.24615 -3.35
      vertex 4.23412 8.31444 3.35
      vertex 4.45923 8.24615 3.35
    endloop
  endfacet
  facet normal 0.290299 0.956936 0
    outer loop
      vertex 4.23412 8.31444 3.35
      vertex 4.45923 8.24615 -3.35
      vertex 4.23412 8.31444 -3.35
    endloop
  endfacet
  facet normal 0.471431 0.881903 -0
    outer loop
      vertex 4.66669 8.13525 -3.35
      vertex 4.45923 8.24615 3.35
      vertex 4.66669 8.13525 3.35
    endloop
  endfacet
  facet normal 0.471431 0.881903 0
    outer loop
      vertex 4.45923 8.24615 3.35
      vertex 4.66669 8.13525 -3.35
      vertex 4.45923 8.24615 -3.35
    endloop
  endfacet
  facet normal 0.634367 0.773032 -0
    outer loop
      vertex 4.84854 7.98602 -3.35
      vertex 4.66669 8.13525 3.35
      vertex 4.84854 7.98602 3.35
    endloop
  endfacet
  facet normal 0.634367 0.773032 0
    outer loop
      vertex 4.66669 8.13525 3.35
      vertex 4.84854 7.98602 -3.35
      vertex 4.66669 8.13525 -3.35
    endloop
  endfacet
  facet normal 0.773015 0.634388 0
    outer loop
      vertex 4.99777 7.80418 3.35
      vertex 4.84854 7.98602 -3.35
      vertex 4.84854 7.98602 3.35
    endloop
  endfacet
  facet normal 0.773015 0.634388 0
    outer loop
      vertex 4.84854 7.98602 -3.35
      vertex 4.99777 7.80418 3.35
      vertex 4.99777 7.80418 -3.35
    endloop
  endfacet
  facet normal 0.881965 0.471314 0
    outer loop
      vertex 5.10864 7.59671 3.35
      vertex 4.99777 7.80418 -3.35
      vertex 4.99777 7.80418 3.35
    endloop
  endfacet
  facet normal 0.881965 0.471314 0
    outer loop
      vertex 4.99777 7.80418 -3.35
      vertex 5.10864 7.59671 3.35
      vertex 5.10864 7.59671 -3.35
    endloop
  endfacet
  facet normal 0.956924 0.290338 0
    outer loop
      vertex 5.17694 7.3716 3.35
      vertex 5.10864 7.59671 -3.35
      vertex 5.10864 7.59671 3.35
    endloop
  endfacet
  facet normal 0.956924 0.290338 0
    outer loop
      vertex 5.10864 7.59671 -3.35
      vertex 5.17694 7.3716 3.35
      vertex 5.17694 7.3716 -3.35
    endloop
  endfacet
  facet normal 0.995183 0.0980305 0
    outer loop
      vertex 5.2 7.1375 3.35
      vertex 5.17694 7.3716 -3.35
      vertex 5.17694 7.3716 3.35
    endloop
  endfacet
  facet normal 0.995183 0.0980305 0
    outer loop
      vertex 5.17694 7.3716 -3.35
      vertex 5.2 7.1375 3.35
      vertex 5.2 7.1375 -3.35
    endloop
  endfacet
  facet normal 1 -0 0
    outer loop
      vertex 5.2 1 3.35
      vertex 5.2 7.1375 -3.35
      vertex 5.2 7.1375 3.35
    endloop
  endfacet
  facet normal 1 0 0
    outer loop
      vertex 5.2 7.1375 -3.35
      vertex 5.2 1 3.35
      vertex 5.2 1 -3.35
    endloop
  endfacet
  facet normal 0 1 -0
    outer loop
      vertex 6 1 -3.35
      vertex 5.2 1 3.35
      vertex 6 1 3.35
    endloop
  endfacet
  facet normal 0 1 0
    outer loop
      vertex 5.2 1 3.35
      vertex 6 1 -3.35
      vertex 5.2 1 -3.35
    endloop
  endfacet
  facet normal 0.411619 0.911356 -0
    outer loop
      vertex 7.19133 0.461929 -3.35
      vertex 6 1 3.35
      vertex 7.19133 0.461929 3.35
    endloop
  endfacet
  facet normal 0.411619 0.911356 0
    outer loop
      vertex 6 1 3.35
      vertex 7.19133 0.461929 -3.35
      vertex 6 1 -3.35
    endloop
  endfacet
  facet normal 0.471396 0.881922 -0
    outer loop
      vertex 7.27777 0.415726 -3.35
      vertex 7.19133 0.461929 3.35
      vertex 7.27777 0.415726 3.35
    endloop
  endfacet
  facet normal 0.471396 0.881922 0
    outer loop
      vertex 7.19133 0.461929 3.35
      vertex 7.27777 0.415726 -3.35
      vertex 7.19133 0.461929 -3.35
    endloop
  endfacet
  facet normal 0.634326 0.773066 -0
    outer loop
      vertex 7.35355 0.353546 -3.35
      vertex 7.27777 0.415726 3.35
      vertex 7.35355 0.353546 3.35
    endloop
  endfacet
  facet normal 0.634326 0.773066 0
    outer loop
      vertex 7.27777 0.415726 3.35
      vertex 7.35355 0.353546 -3.35
      vertex 7.27777 0.415726 -3.35
    endloop
  endfacet
  facet normal 0.773045 0.634351 0
    outer loop
      vertex 7.41573 0.277771 3.35
      vertex 7.35355 0.353546 -3.35
      vertex 7.35355 0.353546 3.35
    endloop
  endfacet
  facet normal 0.773045 0.634351 0
    outer loop
      vertex 7.35355 0.353546 -3.35
      vertex 7.41573 0.277771 3.35
      vertex 7.41573 0.277771 -3.35
    endloop
  endfacet
  facet normal 0.881937 0.471368 0
    outer loop
      vertex 7.46193 0.19133 3.35
      vertex 7.41573 0.277771 -3.35
      vertex 7.41573 0.277771 3.35
    endloop
  endfacet
  facet normal 0.881937 0.471368 0
    outer loop
      vertex 7.41573 0.277771 -3.35
      vertex 7.46193 0.19133 3.35
      vertex 7.46193 0.19133 -3.35
    endloop
  endfacet
  facet normal 0.956919 0.290353 0
    outer loop
      vertex 7.49039 0.0975342 3.35
      vertex 7.46193 0.19133 -3.35
      vertex 7.46193 0.19133 3.35
    endloop
  endfacet
  facet normal 0.956919 0.290353 0
    outer loop
      vertex 7.46193 0.19133 -3.35
      vertex 7.49039 0.0975342 3.35
      vertex 7.49039 0.0975342 -3.35
    endloop
  endfacet
  facet normal 0.995181 0.0980547 0
    outer loop
      vertex 7.5 0 3.35
      vertex 7.49039 0.0975342 -3.35
      vertex 7.49039 0.0975342 3.35
    endloop
  endfacet
  facet normal 0.995181 0.0980547 0
    outer loop
      vertex 7.49039 0.0975342 -3.35
      vertex 7.5 0 3.35
      vertex 7.5 0 -3.35
    endloop
  endfacet
  facet normal 0.995181 -0.0980547 0
    outer loop
      vertex 7.49039 -0.0975342 3.35
      vertex 7.5 0 -3.35
      vertex 7.5 0 3.35
    endloop
  endfacet
  facet normal 0.995181 -0.0980547 0
    outer loop
      vertex 7.5 0 -3.35
      vertex 7.49039 -0.0975342 3.35
      vertex 7.49039 -0.0975342 -3.35
    endloop
  endfacet
  facet normal 0.956919 -0.290353 0
    outer loop
      vertex 7.46193 -0.19133 3.35
      vertex 7.49039 -0.0975342 -3.35
      vertex 7.49039 -0.0975342 3.35
    endloop
  endfacet
  facet normal 0.956919 -0.290353 0
    outer loop
      vertex 7.49039 -0.0975342 -3.35
      vertex 7.46193 -0.19133 3.35
      vertex 7.46193 -0.19133 -3.35
    endloop
  endfacet
  facet normal 0.881937 -0.471368 0
    outer loop
      vertex 7.41573 -0.277771 3.35
      vertex 7.46193 -0.19133 -3.35
      vertex 7.46193 -0.19133 3.35
    endloop
  endfacet
  facet normal 0.881937 -0.471368 0
    outer loop
      vertex 7.46193 -0.19133 -3.35
      vertex 7.41573 -0.277771 3.35
      vertex 7.41573 -0.277771 -3.35
    endloop
  endfacet
  facet normal 0.773045 -0.634351 0
    outer loop
      vertex 7.35355 -0.353546 3.35
      vertex 7.41573 -0.277771 -3.35
      vertex 7.41573 -0.277771 3.35
    endloop
  endfacet
  facet normal 0.773045 -0.634351 0
    outer loop
      vertex 7.41573 -0.277771 -3.35
      vertex 7.35355 -0.353546 3.35
      vertex 7.35355 -0.353546 -3.35
    endloop
  endfacet
  facet normal 0.634326 -0.773066 0
    outer loop
      vertex 7.27777 -0.415726 -3.35
      vertex 7.35355 -0.353546 3.35
      vertex 7.27777 -0.415726 3.35
    endloop
  endfacet
  facet normal 0.634326 -0.773066 0
    outer loop
      vertex 7.35355 -0.353546 3.35
      vertex 7.27777 -0.415726 -3.35
      vertex 7.35355 -0.353546 -3.35
    endloop
  endfacet
  facet normal 0.471396 -0.881922 0
    outer loop
      vertex 7.19133 -0.461929 -3.35
      vertex 7.27777 -0.415726 3.35
      vertex 7.19133 -0.461929 3.35
    endloop
  endfacet
  facet normal 0.471396 -0.881922 0
    outer loop
      vertex 7.27777 -0.415726 3.35
      vertex 7.19133 -0.461929 -3.35
      vertex 7.27777 -0.415726 -3.35
    endloop
  endfacet
  facet normal 0.411619 -0.911356 0
    outer loop
      vertex 6 -1 -3.35
      vertex 7.19133 -0.461929 3.35
      vertex 6 -1 3.35
    endloop
  endfacet
  facet normal 0.411619 -0.911356 0
    outer loop
      vertex 7.19133 -0.461929 3.35
      vertex 6 -1 -3.35
      vertex 7.19133 -0.461929 -3.35
    endloop
  endfacet
  facet normal 0 -1 0
    outer loop
      vertex 5.2 -1 -3.35
      vertex 6 -1 3.35
      vertex 5.2 -1 3.35
    endloop
  endfacet
  facet normal 0 -1 -0
    outer loop
      vertex 6 -1 3.35
      vertex 5.2 -1 -3.35
      vertex 6 -1 -3.35
    endloop
  endfacet
  facet normal 1 -0 0
    outer loop
      vertex 5.2 -7.1375 3.35
      vertex 5.2 -1 -3.35
      vertex 5.2 -1 3.35
    endloop
  endfacet
  facet normal 1 0 0
    outer loop
      vertex 5.2 -1 -3.35
      vertex 5.2 -7.1375 3.35
      vertex 5.2 -7.1375 -3.35
    endloop
  endfacet
  facet normal 0.995183 -0.0980305 0
    outer loop
      vertex 5.17694 -7.3716 3.35
      vertex 5.2 -7.1375 -3.35
      vertex 5.2 -7.1375 3.35
    endloop
  endfacet
  facet normal 0.995183 -0.0980305 0
    outer loop
      vertex 5.2 -7.1375 -3.35
      vertex 5.17694 -7.3716 3.35
      vertex 5.17694 -7.3716 -3.35
    endloop
  endfacet
  facet normal 0.956924 -0.290338 0
    outer loop
      vertex 5.10864 -7.59671 3.35
      vertex 5.17694 -7.3716 -3.35
      vertex 5.17694 -7.3716 3.35
    endloop
  endfacet
  facet normal 0.956924 -0.290338 0
    outer loop
      vertex 5.17694 -7.3716 -3.35
      vertex 5.10864 -7.59671 3.35
      vertex 5.10864 -7.59671 -3.35
    endloop
  endfacet
  facet normal 0.881965 -0.471314 0
    outer loop
      vertex 4.99777 -7.80418 3.35
      vertex 5.10864 -7.59671 -3.35
      vertex 5.10864 -7.59671 3.35
    endloop
  endfacet
  facet normal 0.881965 -0.471314 0
    outer loop
      vertex 5.10864 -7.59671 -3.35
      vertex 4.99777 -7.80418 3.35
      vertex 4.99777 -7.80418 -3.35
    endloop
  endfacet
  facet normal 0.773015 -0.634388 0
    outer loop
      vertex 4.84854 -7.98602 3.35
      vertex 4.99777 -7.80418 -3.35
      vertex 4.99777 -7.80418 3.35
    endloop
  endfacet
  facet normal 0.773015 -0.634388 0
    outer loop
      vertex 4.99777 -7.80418 -3.35
      vertex 4.84854 -7.98602 3.35
      vertex 4.84854 -7.98602 -3.35
    endloop
  endfacet
  facet normal 0.634367 -0.773032 0
    outer loop
      vertex 4.66669 -8.13525 -3.35
      vertex 4.84854 -7.98602 3.35
      vertex 4.66669 -8.13525 3.35
    endloop
  endfacet
  facet normal 0.634367 -0.773032 0
    outer loop
      vertex 4.84854 -7.98602 3.35
      vertex 4.66669 -8.13525 -3.35
      vertex 4.84854 -7.98602 -3.35
    endloop
  endfacet
  facet normal 0.471431 -0.881903 0
    outer loop
      vertex 4.45923 -8.24615 -3.35
      vertex 4.66669 -8.13525 3.35
      vertex 4.45923 -8.24615 3.35
    endloop
  endfacet
  facet normal 0.471431 -0.881903 0
    outer loop
      vertex 4.66669 -8.13525 3.35
      vertex 4.45923 -8.24615 -3.35
      vertex 4.66669 -8.13525 -3.35
    endloop
  endfacet
  facet normal 0.290299 -0.956936 0
    outer loop
      vertex 4.23412 -8.31444 -3.35
      vertex 4.45923 -8.24615 3.35
      vertex 4.23412 -8.31444 3.35
    endloop
  endfacet
  facet normal 0.290299 -0.956936 0
    outer loop
      vertex 4.45923 -8.24615 3.35
      vertex 4.23412 -8.31444 -3.35
      vertex 4.45923 -8.24615 -3.35
    endloop
  endfacet
  facet normal 0.0979801 -0.995188 0
    outer loop
      vertex 4 -8.33749 -3.35
      vertex 4.23412 -8.31444 3.35
      vertex 4 -8.33749 3.35
    endloop
  endfacet
  facet normal 0.0979801 -0.995188 0
    outer loop
      vertex 4.23412 -8.31444 3.35
      vertex 4 -8.33749 -3.35
      vertex 4.23412 -8.31444 -3.35
    endloop
  endfacet
  facet normal -0.0979884 -0.995188 0
    outer loop
      vertex 3.7659 -8.31444 -3.35
      vertex 4 -8.33749 3.35
      vertex 3.7659 -8.31444 3.35
    endloop
  endfacet
  facet normal -0.0979884 -0.995188 -0
    outer loop
      vertex 4 -8.33749 3.35
      vertex 3.7659 -8.31444 -3.35
      vertex 4 -8.33749 -3.35
    endloop
  endfacet
  facet normal -0.290299 -0.956936 0
    outer loop
      vertex 3.54079 -8.24615 -3.35
      vertex 3.7659 -8.31444 3.35
      vertex 3.54079 -8.24615 3.35
    endloop
  endfacet
  facet normal -0.290299 -0.956936 -0
    outer loop
      vertex 3.7659 -8.31444 3.35
      vertex 3.54079 -8.24615 -3.35
      vertex 3.7659 -8.31444 -3.35
    endloop
  endfacet
  facet normal -0.471431 -0.881903 0
    outer loop
      vertex 3.33333 -8.13525 -3.35
      vertex 3.54079 -8.24615 3.35
      vertex 3.33333 -8.13525 3.35
    endloop
  endfacet
  facet normal -0.471431 -0.881903 -0
    outer loop
      vertex 3.54079 -8.24615 3.35
      vertex 3.33333 -8.13525 -3.35
      vertex 3.54079 -8.24615 -3.35
    endloop
  endfacet
  facet normal -0.634346 -0.773049 0
    outer loop
      vertex 3.15147 -7.98602 -3.35
      vertex 3.33333 -8.13525 3.35
      vertex 3.15147 -7.98602 3.35
    endloop
  endfacet
  facet normal -0.634346 -0.773049 -0
    outer loop
      vertex 3.33333 -8.13525 3.35
      vertex 3.15147 -7.98602 -3.35
      vertex 3.33333 -8.13525 -3.35
    endloop
  endfacet
  facet normal -0.773015 -0.634388 0
    outer loop
      vertex 3.15147 -7.98602 -3.35
      vertex 3.00224 -7.80418 3.35
      vertex 3.00224 -7.80418 -3.35
    endloop
  endfacet
  facet normal -0.773015 -0.634388 0
    outer loop
      vertex 3.00224 -7.80418 3.35
      vertex 3.15147 -7.98602 -3.35
      vertex 3.15147 -7.98602 3.35
    endloop
  endfacet
  facet normal -0.881948 -0.471347 0
    outer loop
      vertex 3.00224 -7.80418 -3.35
      vertex 2.89136 -7.59671 3.35
      vertex 2.89136 -7.59671 -3.35
    endloop
  endfacet
  facet normal -0.881948 -0.471347 0
    outer loop
      vertex 2.89136 -7.59671 3.35
      vertex 3.00224 -7.80418 -3.35
      vertex 3.00224 -7.80418 3.35
    endloop
  endfacet
  facet normal -0.956924 -0.290338 0
    outer loop
      vertex 2.89136 -7.59671 -3.35
      vertex 2.82306 -7.3716 3.35
      vertex 2.82306 -7.3716 -3.35
    endloop
  endfacet
  facet normal -0.956924 -0.290338 0
    outer loop
      vertex 2.82306 -7.3716 3.35
      vertex 2.89136 -7.59671 -3.35
      vertex 2.89136 -7.59671 3.35
    endloop
  endfacet
  facet normal -0.995183 -0.0980305 0
    outer loop
      vertex 2.82306 -7.3716 -3.35
      vertex 2.8 -7.1375 3.35
      vertex 2.8 -7.1375 -3.35
    endloop
  endfacet
  facet normal -0.995183 -0.0980305 0
    outer loop
      vertex 2.8 -7.1375 3.35
      vertex 2.82306 -7.3716 -3.35
      vertex 2.82306 -7.3716 3.35
    endloop
  endfacet
  facet normal -1 0 0
    outer loop
      vertex 2.8 -7.1375 -3.35
      vertex 2.8 7.1375 3.35
      vertex 2.8 7.1375 -3.35
    endloop
  endfacet
  facet normal -1 -0 0
    outer loop
      vertex 2.8 7.1375 3.35
      vertex 2.8 -7.1375 -3.35
      vertex 2.8 -7.1375 3.35
    endloop
  endfacet
  facet normal -0.995183 0.0980305 0
    outer loop
      vertex 2.8 7.1375 -3.35
      vertex 2.82306 7.3716 3.35
      vertex 2.82306 7.3716 -3.35
    endloop
  endfacet
  facet normal -0.995183 0.0980305 0
    outer loop
      vertex 2.82306 7.3716 3.35
      vertex 2.8 7.1375 -3.35
      vertex 2.8 7.1375 3.35
    endloop
  endfacet
endsolid OpenSCAD_Model
