solid OpenSCAD_Model
  facet normal 0 0 1
    outer loop
      vertex 6.98077 0.195084 3.35
      vertex 6.98077 -0.195099 3.35
      vertex 7 0 3.35
    endloop
  endfacet
  facet normal 0 0 1
    outer loop
      vertex 6.92387 0.382675 3.35
      vertex 6.98077 -0.195099 3.35
      vertex 6.98077 0.195084 3.35
    endloop
  endfacet
  facet normal 0 0 1
    outer loop
      vertex 6.92387 0.382675 3.35
      vertex 6.92387 -0.38269 3.35
      vertex 6.98077 -0.195099 3.35
    endloop
  endfacet
  facet normal 0 0 1
    outer loop
      vertex 6.83147 0.555557 3.35
      vertex 6.92387 -0.38269 3.35
      vertex 6.92387 0.382675 3.35
    endloop
  endfacet
  facet normal 0 0 1
    outer loop
      vertex 6.83147 0.555557 3.35
      vertex 6.83147 -0.555573 3.35
      vertex 6.92387 -0.38269 3.35
    endloop
  endfacet
  facet normal 0 0 1
    outer loop
      vertex 6.70709 0.707092 3.35
      vertex 6.83147 -0.555573 3.35
      vertex 6.83147 0.555557 3.35
    endloop
  endfacet
  facet normal 0 0 1
    outer loop
      vertex 6.70709 0.707092 3.35
      vertex 6.70709 -0.707108 3.35
      vertex 6.83147 -0.555573 3.35
    endloop
  endfacet
  facet normal 0 0 1
    outer loop
      vertex 6.55556 0.831467 3.35
      vertex 6.70709 -0.707108 3.35
      vertex 6.70709 0.707092 3.35
    endloop
  endfacet
  facet normal 0 0 1
    outer loop
      vertex 6.55556 0.831467 3.35
      vertex 6.55556 -0.831482 3.35
      vertex 6.70709 -0.707108 3.35
    endloop
  endfacet
  facet normal 0 0 1
    outer loop
      vertex 6.38268 0.923874 3.35
      vertex 6.55556 -0.831482 3.35
      vertex 6.55556 0.831467 3.35
    endloop
  endfacet
  facet normal 0 0 1
    outer loop
      vertex 6.38268 0.923874 3.35
      vertex 6.38268 -0.923889 3.35
      vertex 6.55556 -0.831482 3.35
    endloop
  endfacet
  facet normal 0 0 1
    outer loop
      vertex 6.19508 0.980774 3.35
      vertex 6.38268 -0.923889 3.35
      vertex 6.38268 0.923874 3.35
    endloop
  endfacet
  facet normal 0 0 1
    outer loop
      vertex 6.19508 0.980774 3.35
      vertex 6.19508 -0.980789 3.35
      vertex 6.38268 -0.923889 3.35
    endloop
  endfacet
  facet normal 0 0 1
    outer loop
      vertex 6 1 3.35
      vertex 6.19508 -0.980789 3.35
      vertex 6.19508 0.980774 3.35
    endloop
  endfacet
  facet normal 0 0 1
    outer loop
      vertex 6 1 3.35
      vertex 6 -1 3.35
      vertex 6.19508 -0.980789 3.35
    endloop
  endfacet
  facet normal 0 0 1
    outer loop
      vertex 6 1 3.35
      vertex 1 -1 3.35
      vertex 6 -1 3.35
    endloop
  endfacet
  facet normal 0 0 1
    outer loop
      vertex -1 -17 3.35
      vertex 1 -17 3.35
      vertex 1 -1 3.35
    endloop
  endfacet
  facet normal 0 0 1
    outer loop
      vertex 1 -17 3.35
      vertex -1 -17 3.35
      vertex 0.461929 -18.1913 3.35
    endloop
  endfacet
  facet normal 0 -0 1
    outer loop
      vertex -0.461929 -18.1913 3.35
      vertex 0.461929 -18.1913 3.35
      vertex -1 -17 3.35
    endloop
  endfacet
  facet normal 0 0 1
    outer loop
      vertex 0.461929 -18.1913 3.35
      vertex -0.461929 -18.1913 3.35
      vertex 0.415726 -18.2778 3.35
    endloop
  endfacet
  facet normal 0 0 1
    outer loop
      vertex 0.415726 -18.2778 3.35
      vertex -0.461929 -18.1913 3.35
      vertex 0.353546 -18.3535 3.35
    endloop
  endfacet
  facet normal 0 0 1
    outer loop
      vertex 0.353546 -18.3535 3.35
      vertex -0.461929 -18.1913 3.35
      vertex 0.277771 -18.4157 3.35
    endloop
  endfacet
  facet normal 0 0 1
    outer loop
      vertex 0.277771 -18.4157 3.35
      vertex -0.461929 -18.1913 3.35
      vertex 0.19133 -18.4619 3.35
    endloop
  endfacet
  facet normal 0 0 1
    outer loop
      vertex 0.19133 -18.4619 3.35
      vertex -0.461929 -18.1913 3.35
      vertex 0.0975342 -18.4904 3.35
    endloop
  endfacet
  facet normal 0 0 1
    outer loop
      vertex 0.0975342 -18.4904 3.35
      vertex -0.461929 -18.1913 3.35
      vertex 0 -18.5 3.35
    endloop
  endfacet
  facet normal 0 0 1
    outer loop
      vertex 0 -18.5 3.35
      vertex -0.461929 -18.1913 3.35
      vertex -0.0975342 -18.4904 3.35
    endloop
  endfacet
  facet normal 0 0 1
    outer loop
      vertex -0.0975342 -18.4904 3.35
      vertex -0.461929 -18.1913 3.35
      vertex -0.19133 -18.4619 3.35
    endloop
  endfacet
  facet normal 0 0 1
    outer loop
      vertex -0.19133 -18.4619 3.35
      vertex -0.461929 -18.1913 3.35
      vertex -0.277771 -18.4157 3.35
    endloop
  endfacet
  facet normal 0 0 1
    outer loop
      vertex -0.277771 -18.4157 3.35
      vertex -0.461929 -18.1913 3.35
      vertex -0.353546 -18.3535 3.35
    endloop
  endfacet
  facet normal 0 0 1
    outer loop
      vertex -1 -17 3.35
      vertex 1 -1 3.35
      vertex -1 -1 3.35
    endloop
  endfacet
  facet normal 0 0 1
    outer loop
      vertex 6 1 3.35
      vertex -1 -1 3.35
      vertex 1 -1 3.35
    endloop
  endfacet
  facet normal -0 0 1
    outer loop
      vertex -6 1 3.35
      vertex -1 -1 3.35
      vertex 6 1 3.35
    endloop
  endfacet
  facet normal 0 0 1
    outer loop
      vertex -6 1 3.35
      vertex -6 -1 3.35
      vertex -1 -1 3.35
    endloop
  endfacet
  facet normal -0 0 1
    outer loop
      vertex -6.19508 0.980774 3.35
      vertex -6 -1 3.35
      vertex -6 1 3.35
    endloop
  endfacet
  facet normal 0 0 1
    outer loop
      vertex -6.19508 0.980774 3.35
      vertex -6.19508 -0.980789 3.35
      vertex -6 -1 3.35
    endloop
  endfacet
  facet normal -0 0 1
    outer loop
      vertex -6.38268 0.923874 3.35
      vertex -6.19508 -0.980789 3.35
      vertex -6.19508 0.980774 3.35
    endloop
  endfacet
  facet normal 0 0 1
    outer loop
      vertex -6.38268 0.923874 3.35
      vertex -6.38268 -0.923889 3.35
      vertex -6.19508 -0.980789 3.35
    endloop
  endfacet
  facet normal -0 0 1
    outer loop
      vertex -6.55556 0.831467 3.35
      vertex -6.38268 -0.923889 3.35
      vertex -6.38268 0.923874 3.35
    endloop
  endfacet
  facet normal 0 0 1
    outer loop
      vertex -6.55556 0.831467 3.35
      vertex -6.55556 -0.831482 3.35
      vertex -6.38268 -0.923889 3.35
    endloop
  endfacet
  facet normal -0 0 1
    outer loop
      vertex -6.70709 0.707092 3.35
      vertex -6.55556 -0.831482 3.35
      vertex -6.55556 0.831467 3.35
    endloop
  endfacet
  facet normal 0 0 1
    outer loop
      vertex -6.70709 0.707092 3.35
      vertex -6.70709 -0.707108 3.35
      vertex -6.55556 -0.831482 3.35
    endloop
  endfacet
  facet normal -0 0 1
    outer loop
      vertex -6.83147 0.555557 3.35
      vertex -6.70709 -0.707108 3.35
      vertex -6.70709 0.707092 3.35
    endloop
  endfacet
  facet normal 0 0 1
    outer loop
      vertex -6.83147 0.555557 3.35
      vertex -6.83147 -0.555573 3.35
      vertex -6.70709 -0.707108 3.35
    endloop
  endfacet
  facet normal -0 0 1
    outer loop
      vertex -6.92387 0.382675 3.35
      vertex -6.83147 -0.555573 3.35
      vertex -6.83147 0.555557 3.35
    endloop
  endfacet
  facet normal 0 0 1
    outer loop
      vertex -6.92387 0.382675 3.35
      vertex -6.92387 -0.38269 3.35
      vertex -6.83147 -0.555573 3.35
    endloop
  endfacet
  facet normal -0 0 1
    outer loop
      vertex -6.98077 0.195084 3.35
      vertex -6.92387 -0.38269 3.35
      vertex -6.92387 0.382675 3.35
    endloop
  endfacet
  facet normal 0 0 1
    outer loop
      vertex -6.98077 0.195084 3.35
      vertex -6.98077 -0.195099 3.35
      vertex -6.92387 -0.38269 3.35
    endloop
  endfacet
  facet normal 0 -0 1
    outer loop
      vertex -6.98077 -0.195099 3.35
      vertex -6.98077 0.195084 3.35
      vertex -7 0 3.35
    endloop
  endfacet
  facet normal 0 0 1
    outer loop
      vertex -0.353546 -18.3535 3.35
      vertex -0.461929 -18.1913 3.35
      vertex -0.415726 -18.2778 3.35
    endloop
  endfacet
  facet normal 0 0 -1
    outer loop
      vertex -1 -17 -3.35
      vertex 1 -17 -3.35
      vertex 0.461929 -18.1913 -3.35
    endloop
  endfacet
  facet normal 0 0 -1
    outer loop
      vertex 6.98077 -0.195099 -3.35
      vertex 6.98077 0.195084 -3.35
      vertex 7 0 -3.35
    endloop
  endfacet
  facet normal 0 0 -1
    outer loop
      vertex 6.92387 -0.38269 -3.35
      vertex 6.98077 0.195084 -3.35
      vertex 6.98077 -0.195099 -3.35
    endloop
  endfacet
  facet normal 0 0 -1
    outer loop
      vertex 6.92387 -0.38269 -3.35
      vertex 6.92387 0.382675 -3.35
      vertex 6.98077 0.195084 -3.35
    endloop
  endfacet
  facet normal 0 0 -1
    outer loop
      vertex 6.83147 -0.555573 -3.35
      vertex 6.92387 0.382675 -3.35
      vertex 6.92387 -0.38269 -3.35
    endloop
  endfacet
  facet normal 0 0 -1
    outer loop
      vertex 6.83147 -0.555573 -3.35
      vertex 6.83147 0.555557 -3.35
      vertex 6.92387 0.382675 -3.35
    endloop
  endfacet
  facet normal 0 0 -1
    outer loop
      vertex 6.70709 -0.707108 -3.35
      vertex 6.83147 0.555557 -3.35
      vertex 6.83147 -0.555573 -3.35
    endloop
  endfacet
  facet normal 0 0 -1
    outer loop
      vertex 6.70709 -0.707108 -3.35
      vertex 6.70709 0.707092 -3.35
      vertex 6.83147 0.555557 -3.35
    endloop
  endfacet
  facet normal 0 0 -1
    outer loop
      vertex 6.55556 -0.831482 -3.35
      vertex 6.70709 0.707092 -3.35
      vertex 6.70709 -0.707108 -3.35
    endloop
  endfacet
  facet normal 0 0 -1
    outer loop
      vertex 6.55556 -0.831482 -3.35
      vertex 6.55556 0.831467 -3.35
      vertex 6.70709 0.707092 -3.35
    endloop
  endfacet
  facet normal 0 0 -1
    outer loop
      vertex 6.38268 -0.923889 -3.35
      vertex 6.55556 0.831467 -3.35
      vertex 6.55556 -0.831482 -3.35
    endloop
  endfacet
  facet normal 0 0 -1
    outer loop
      vertex 6.38268 -0.923889 -3.35
      vertex 6.38268 0.923874 -3.35
      vertex 6.55556 0.831467 -3.35
    endloop
  endfacet
  facet normal 0 0 -1
    outer loop
      vertex 6.19508 -0.980789 -3.35
      vertex 6.38268 0.923874 -3.35
      vertex 6.38268 -0.923889 -3.35
    endloop
  endfacet
  facet normal 0 0 -1
    outer loop
      vertex 6.19508 -0.980789 -3.35
      vertex 6.19508 0.980774 -3.35
      vertex 6.38268 0.923874 -3.35
    endloop
  endfacet
  facet normal 0 0 -1
    outer loop
      vertex 6 -1 -3.35
      vertex 6.19508 0.980774 -3.35
      vertex 6.19508 -0.980789 -3.35
    endloop
  endfacet
  facet normal 0 0 -1
    outer loop
      vertex 6 -1 -3.35
      vertex 6 1 -3.35
      vertex 6.19508 0.980774 -3.35
    endloop
  endfacet
  facet normal 0 0 -1
    outer loop
      vertex 1 -1 -3.35
      vertex 6 1 -3.35
      vertex 6 -1 -3.35
    endloop
  endfacet
  facet normal 0 0 -1
    outer loop
      vertex -0.461929 -18.1913 -3.35
      vertex 0.461929 -18.1913 -3.35
      vertex 0.415726 -18.2778 -3.35
    endloop
  endfacet
  facet normal 0 0 -1
    outer loop
      vertex -0.461929 -18.1913 -3.35
      vertex 0.415726 -18.2778 -3.35
      vertex 0.353546 -18.3535 -3.35
    endloop
  endfacet
  facet normal 0 0 -1
    outer loop
      vertex -0.461929 -18.1913 -3.35
      vertex 0.353546 -18.3535 -3.35
      vertex 0.277771 -18.4157 -3.35
    endloop
  endfacet
  facet normal 0 0 -1
    outer loop
      vertex -0.461929 -18.1913 -3.35
      vertex 0.277771 -18.4157 -3.35
      vertex 0.19133 -18.4619 -3.35
    endloop
  endfacet
  facet normal 0 0 -1
    outer loop
      vertex -0.461929 -18.1913 -3.35
      vertex 0.19133 -18.4619 -3.35
      vertex 0.0975342 -18.4904 -3.35
    endloop
  endfacet
  facet normal 0 0 -1
    outer loop
      vertex -0.461929 -18.1913 -3.35
      vertex 0.0975342 -18.4904 -3.35
      vertex 0 -18.5 -3.35
    endloop
  endfacet
  facet normal 0 0 -1
    outer loop
      vertex -0.461929 -18.1913 -3.35
      vertex 0 -18.5 -3.35
      vertex -0.0975342 -18.4904 -3.35
    endloop
  endfacet
  facet normal 0 0 -1
    outer loop
      vertex -0.461929 -18.1913 -3.35
      vertex -0.0975342 -18.4904 -3.35
      vertex -0.19133 -18.4619 -3.35
    endloop
  endfacet
  facet normal 0 0 -1
    outer loop
      vertex -0.461929 -18.1913 -3.35
      vertex -0.19133 -18.4619 -3.35
      vertex -0.277771 -18.4157 -3.35
    endloop
  endfacet
  facet normal 0 0 -1
    outer loop
      vertex -0.461929 -18.1913 -3.35
      vertex -0.277771 -18.4157 -3.35
      vertex -0.353546 -18.3535 -3.35
    endloop
  endfacet
  facet normal 0 0 -1
    outer loop
      vertex -0.461929 -18.1913 -3.35
      vertex -0.353546 -18.3535 -3.35
      vertex -0.415726 -18.2778 -3.35
    endloop
  endfacet
  facet normal 0 0 -1
    outer loop
      vertex 0.461929 -18.1913 -3.35
      vertex -0.461929 -18.1913 -3.35
      vertex -1 -17 -3.35
    endloop
  endfacet
  facet normal 0 0 -1
    outer loop
      vertex 1 -17 -3.35
      vertex -1 -17 -3.35
      vertex 1 -1 -3.35
    endloop
  endfacet
  facet normal 0 0 -1
    outer loop
      vertex -1 -1 -3.35
      vertex 1 -1 -3.35
      vertex -1 -17 -3.35
    endloop
  endfacet
  facet normal 0 0 -1
    outer loop
      vertex -1 -1 -3.35
      vertex 6 1 -3.35
      vertex 1 -1 -3.35
    endloop
  endfacet
  facet normal 0 0 -1
    outer loop
      vertex -6 1 -3.35
      vertex -1 -1 -3.35
      vertex -6 -1 -3.35
    endloop
  endfacet
  facet normal 0 0 -1
    outer loop
      vertex -1 -1 -3.35
      vertex -6 1 -3.35
      vertex 6 1 -3.35
    endloop
  endfacet
  facet normal 0 0 -1
    outer loop
      vertex -6.19508 -0.980789 -3.35
      vertex -6 1 -3.35
      vertex -6 -1 -3.35
    endloop
  endfacet
  facet normal 0 0 -1
    outer loop
      vertex -6.19508 -0.980789 -3.35
      vertex -6.19508 0.980774 -3.35
      vertex -6 1 -3.35
    endloop
  endfacet
  facet normal 0 0 -1
    outer loop
      vertex -6.38268 -0.923889 -3.35
      vertex -6.19508 0.980774 -3.35
      vertex -6.19508 -0.980789 -3.35
    endloop
  endfacet
  facet normal 0 0 -1
    outer loop
      vertex -6.38268 -0.923889 -3.35
      vertex -6.38268 0.923874 -3.35
      vertex -6.19508 0.980774 -3.35
    endloop
  endfacet
  facet normal 0 0 -1
    outer loop
      vertex -6.55556 -0.831482 -3.35
      vertex -6.38268 0.923874 -3.35
      vertex -6.38268 -0.923889 -3.35
    endloop
  endfacet
  facet normal 0 0 -1
    outer loop
      vertex -6.55556 -0.831482 -3.35
      vertex -6.55556 0.831467 -3.35
      vertex -6.38268 0.923874 -3.35
    endloop
  endfacet
  facet normal 0 0 -1
    outer loop
      vertex -6.70709 -0.707108 -3.35
      vertex -6.55556 0.831467 -3.35
      vertex -6.55556 -0.831482 -3.35
    endloop
  endfacet
  facet normal 0 0 -1
    outer loop
      vertex -6.70709 -0.707108 -3.35
      vertex -6.70709 0.707092 -3.35
      vertex -6.55556 0.831467 -3.35
    endloop
  endfacet
  facet normal 0 0 -1
    outer loop
      vertex -6.83147 -0.555573 -3.35
      vertex -6.70709 0.707092 -3.35
      vertex -6.70709 -0.707108 -3.35
    endloop
  endfacet
  facet normal 0 0 -1
    outer loop
      vertex -6.83147 -0.555573 -3.35
      vertex -6.83147 0.555557 -3.35
      vertex -6.70709 0.707092 -3.35
    endloop
  endfacet
  facet normal 0 0 -1
    outer loop
      vertex -6.92387 -0.38269 -3.35
      vertex -6.83147 0.555557 -3.35
      vertex -6.83147 -0.555573 -3.35
    endloop
  endfacet
  facet normal 0 0 -1
    outer loop
      vertex -6.92387 -0.38269 -3.35
      vertex -6.92387 0.382675 -3.35
      vertex -6.83147 0.555557 -3.35
    endloop
  endfacet
  facet normal 0 0 -1
    outer loop
      vertex -6.98077 -0.195099 -3.35
      vertex -6.92387 0.382675 -3.35
      vertex -6.92387 -0.38269 -3.35
    endloop
  endfacet
  facet normal 0 0 -1
    outer loop
      vertex -6.98077 -0.195099 -3.35
      vertex -6.98077 0.195084 -3.35
      vertex -6.92387 0.382675 -3.35
    endloop
  endfacet
  facet normal 0 -0 -1
    outer loop
      vertex -6.98077 0.195084 -3.35
      vertex -6.98077 -0.195099 -3.35
      vertex -7 0 -3.35
    endloop
  endfacet
  facet normal 0.882058 -0.471141 0
    outer loop
      vertex 0.415726 -18.2778 3.35
      vertex 0.461929 -18.1913 -3.35
      vertex 0.461929 -18.1913 3.35
    endloop
  endfacet
  facet normal 0.882058 -0.471141 0
    outer loop
      vertex 0.461929 -18.1913 -3.35
      vertex 0.415726 -18.2778 3.35
      vertex 0.415726 -18.2778 -3.35
    endloop
  endfacet
  facet normal 0.772737 -0.634726 0
    outer loop
      vertex 0.353546 -18.3535 3.35
      vertex 0.415726 -18.2778 -3.35
      vertex 0.415726 -18.2778 3.35
    endloop
  endfacet
  facet normal 0.772737 -0.634726 0
    outer loop
      vertex 0.415726 -18.2778 -3.35
      vertex 0.353546 -18.3535 3.35
      vertex 0.353546 -18.3535 -3.35
    endloop
  endfacet
  facet normal 0.634473 -0.772945 0
    outer loop
      vertex 0.277771 -18.4157 -3.35
      vertex 0.353546 -18.3535 3.35
      vertex 0.277771 -18.4157 3.35
    endloop
  endfacet
  facet normal 0.634473 -0.772945 0
    outer loop
      vertex 0.353546 -18.3535 3.35
      vertex 0.277771 -18.4157 -3.35
      vertex 0.353546 -18.3535 -3.35
    endloop
  endfacet
  facet normal 0.471368 -0.881937 0
    outer loop
      vertex 0.19133 -18.4619 -3.35
      vertex 0.277771 -18.4157 3.35
      vertex 0.19133 -18.4619 3.35
    endloop
  endfacet
  facet normal 0.471368 -0.881937 0
    outer loop
      vertex 0.277771 -18.4157 3.35
      vertex 0.19133 -18.4619 -3.35
      vertex 0.277771 -18.4157 -3.35
    endloop
  endfacet
  facet normal 0.290727 -0.956806 0
    outer loop
      vertex 0.0975342 -18.4904 -3.35
      vertex 0.19133 -18.4619 3.35
      vertex 0.0975342 -18.4904 3.35
    endloop
  endfacet
  facet normal 0.290727 -0.956806 0
    outer loop
      vertex 0.19133 -18.4619 3.35
      vertex 0.0975342 -18.4904 -3.35
      vertex 0.19133 -18.4619 -3.35
    endloop
  endfacet
  facet normal 0.0979537 -0.995191 0
    outer loop
      vertex 0 -18.5 -3.35
      vertex 0.0975342 -18.4904 3.35
      vertex 0 -18.5 3.35
    endloop
  endfacet
  facet normal 0.0979537 -0.995191 0
    outer loop
      vertex 0.0975342 -18.4904 3.35
      vertex 0 -18.5 -3.35
      vertex 0.0975342 -18.4904 -3.35
    endloop
  endfacet
  facet normal -0.0979537 -0.995191 0
    outer loop
      vertex -0.0975342 -18.4904 -3.35
      vertex 0 -18.5 3.35
      vertex -0.0975342 -18.4904 3.35
    endloop
  endfacet
  facet normal -0.0979537 -0.995191 -0
    outer loop
      vertex 0 -18.5 3.35
      vertex -0.0975342 -18.4904 -3.35
      vertex 0 -18.5 -3.35
    endloop
  endfacet
  facet normal -0.290727 -0.956806 0
    outer loop
      vertex -0.19133 -18.4619 -3.35
      vertex -0.0975342 -18.4904 3.35
      vertex -0.19133 -18.4619 3.35
    endloop
  endfacet
  facet normal -0.290727 -0.956806 -0
    outer loop
      vertex -0.0975342 -18.4904 3.35
      vertex -0.19133 -18.4619 -3.35
      vertex -0.0975342 -18.4904 -3.35
    endloop
  endfacet
  facet normal -0.471368 -0.881937 0
    outer loop
      vertex -0.277771 -18.4157 -3.35
      vertex -0.19133 -18.4619 3.35
      vertex -0.277771 -18.4157 3.35
    endloop
  endfacet
  facet normal -0.471368 -0.881937 -0
    outer loop
      vertex -0.19133 -18.4619 3.35
      vertex -0.277771 -18.4157 -3.35
      vertex -0.19133 -18.4619 -3.35
    endloop
  endfacet
  facet normal -0.634473 -0.772945 0
    outer loop
      vertex -0.353546 -18.3535 -3.35
      vertex -0.277771 -18.4157 3.35
      vertex -0.353546 -18.3535 3.35
    endloop
  endfacet
  facet normal -0.634473 -0.772945 -0
    outer loop
      vertex -0.277771 -18.4157 3.35
      vertex -0.353546 -18.3535 -3.35
      vertex -0.277771 -18.4157 -3.35
    endloop
  endfacet
  facet normal -0.772737 -0.634726 0
    outer loop
      vertex -0.353546 -18.3535 -3.35
      vertex -0.415726 -18.2778 3.35
      vertex -0.415726 -18.2778 -3.35
    endloop
  endfacet
  facet normal -0.772737 -0.634726 0
    outer loop
      vertex -0.415726 -18.2778 3.35
      vertex -0.353546 -18.3535 -3.35
      vertex -0.353546 -18.3535 3.35
    endloop
  endfacet
  facet normal -0.882058 -0.471141 0
    outer loop
      vertex -0.415726 -18.2778 -3.35
      vertex -0.461929 -18.1913 3.35
      vertex -0.461929 -18.1913 -3.35
    endloop
  endfacet
  facet normal -0.882058 -0.471141 0
    outer loop
      vertex -0.461929 -18.1913 3.35
      vertex -0.415726 -18.2778 -3.35
      vertex -0.415726 -18.2778 3.35
    endloop
  endfacet
  facet normal -0.911352 -0.411628 0
    outer loop
      vertex -0.461929 -18.1913 -3.35
      vertex -1 -17 3.35
      vertex -1 -17 -3.35
    endloop
  endfacet
  facet normal -0.911352 -0.411628 0
    outer loop
      vertex -1 -17 3.35
      vertex -0.461929 -18.1913 -3.35
      vertex -0.461929 -18.1913 3.35
    endloop
  endfacet
  facet normal -1 0 0
    outer loop
      vertex -1 -17 -3.35
      vertex -1 -1 3.35
      vertex -1 -1 -3.35
    endloop
  endfacet
  facet normal -1 -0 0
    outer loop
      vertex -1 -1 3.35
      vertex -1 -17 -3.35
      vertex -1 -17 3.35
    endloop
  endfacet
  facet normal 0 -1 0
    outer loop
      vertex -6 -1 -3.35
      vertex -1 -1 3.35
      vertex -6 -1 3.35
    endloop
  endfacet
  facet normal 0 -1 -0
    outer loop
      vertex -1 -1 3.35
      vertex -6 -1 -3.35
      vertex -1 -1 -3.35
    endloop
  endfacet
  facet normal -0.0980035 -0.995186 0
    outer loop
      vertex -6.19508 -0.980789 -3.35
      vertex -6 -1 3.35
      vertex -6.19508 -0.980789 3.35
    endloop
  endfacet
  facet normal -0.0980035 -0.995186 -0
    outer loop
      vertex -6 -1 3.35
      vertex -6.19508 -0.980789 -3.35
      vertex -6 -1 -3.35
    endloop
  endfacet
  facet normal -0.290248 -0.956951 0
    outer loop
      vertex -6.38268 -0.923889 -3.35
      vertex -6.19508 -0.980789 3.35
      vertex -6.38268 -0.923889 3.35
    endloop
  endfacet
  facet normal -0.290248 -0.956951 -0
    outer loop
      vertex -6.19508 -0.980789 3.35
      vertex -6.38268 -0.923889 -3.35
      vertex -6.19508 -0.980789 -3.35
    endloop
  endfacet
  facet normal -0.4714 -0.88192 0
    outer loop
      vertex -6.55556 -0.831482 -3.35
      vertex -6.38268 -0.923889 3.35
      vertex -6.55556 -0.831482 3.35
    endloop
  endfacet
  facet normal -0.4714 -0.88192 -0
    outer loop
      vertex -6.38268 -0.923889 3.35
      vertex -6.55556 -0.831482 -3.35
      vertex -6.38268 -0.923889 -3.35
    endloop
  endfacet
  facet normal -0.634444 -0.772969 0
    outer loop
      vertex -6.70709 -0.707108 -3.35
      vertex -6.55556 -0.831482 3.35
      vertex -6.70709 -0.707108 3.35
    endloop
  endfacet
  facet normal -0.634444 -0.772969 -0
    outer loop
      vertex -6.55556 -0.831482 3.35
      vertex -6.70709 -0.707108 -3.35
      vertex -6.55556 -0.831482 -3.35
    endloop
  endfacet
  facet normal -0.772964 -0.634449 0
    outer loop
      vertex -6.70709 -0.707108 -3.35
      vertex -6.83147 -0.555573 3.35
      vertex -6.83147 -0.555573 -3.35
    endloop
  endfacet
  facet normal -0.772964 -0.634449 0
    outer loop
      vertex -6.83147 -0.555573 3.35
      vertex -6.70709 -0.707108 -3.35
      vertex -6.70709 -0.707108 3.35
    endloop
  endfacet
  facet normal -0.881938 -0.471365 0
    outer loop
      vertex -6.83147 -0.555573 -3.35
      vertex -6.92387 -0.38269 3.35
      vertex -6.92387 -0.38269 -3.35
    endloop
  endfacet
  facet normal -0.881938 -0.471365 0
    outer loop
      vertex -6.92387 -0.38269 3.35
      vertex -6.83147 -0.555573 -3.35
      vertex -6.83147 -0.555573 3.35
    endloop
  endfacet
  facet normal -0.956948 -0.290261 0
    outer loop
      vertex -6.92387 -0.38269 -3.35
      vertex -6.98077 -0.195099 3.35
      vertex -6.98077 -0.195099 -3.35
    endloop
  endfacet
  facet normal -0.956948 -0.290261 0
    outer loop
      vertex -6.98077 -0.195099 3.35
      vertex -6.92387 -0.38269 -3.35
      vertex -6.92387 -0.38269 3.35
    endloop
  endfacet
  facet normal -0.995178 -0.09809 0
    outer loop
      vertex -6.98077 -0.195099 -3.35
      vertex -7 0 3.35
      vertex -7 0 -3.35
    endloop
  endfacet
  facet normal -0.995178 -0.09809 0
    outer loop
      vertex -7 0 3.35
      vertex -6.98077 -0.195099 -3.35
      vertex -6.98077 -0.195099 3.35
    endloop
  endfacet
  facet normal -0.995177 0.0980975 0
    outer loop
      vertex -7 0 -3.35
      vertex -6.98077 0.195084 3.35
      vertex -6.98077 0.195084 -3.35
    endloop
  endfacet
  facet normal -0.995177 0.0980975 0
    outer loop
      vertex -6.98077 0.195084 3.35
      vertex -7 0 -3.35
      vertex -7 0 3.35
    endloop
  endfacet
  facet normal -0.956948 0.290261 0
    outer loop
      vertex -6.98077 0.195084 -3.35
      vertex -6.92387 0.382675 3.35
      vertex -6.92387 0.382675 -3.35
    endloop
  endfacet
  facet normal -0.956948 0.290261 0
    outer loop
      vertex -6.92387 0.382675 3.35
      vertex -6.98077 0.195084 -3.35
      vertex -6.98077 0.195084 3.35
    endloop
  endfacet
  facet normal -0.881937 0.471368 0
    outer loop
      vertex -6.92387 0.382675 -3.35
      vertex -6.83147 0.555557 3.35
      vertex -6.83147 0.555557 -3.35
    endloop
  endfacet
  facet normal -0.881937 0.471368 0
    outer loop
      vertex -6.83147 0.555557 3.35
      vertex -6.92387 0.382675 -3.35
      vertex -6.92387 0.382675 3.35
    endloop
  endfacet
  facet normal -0.772964 0.634449 0
    outer loop
      vertex -6.83147 0.555557 -3.35
      vertex -6.70709 0.707092 3.35
      vertex -6.70709 0.707092 -3.35
    endloop
  endfacet
  facet normal -0.772964 0.634449 0
    outer loop
      vertex -6.70709 0.707092 3.35
      vertex -6.83147 0.555557 -3.35
      vertex -6.83147 0.555557 3.35
    endloop
  endfacet
  facet normal -0.634447 0.772967 0
    outer loop
      vertex -6.55556 0.831467 -3.35
      vertex -6.70709 0.707092 3.35
      vertex -6.55556 0.831467 3.35
    endloop
  endfacet
  facet normal -0.634447 0.772967 0
    outer loop
      vertex -6.70709 0.707092 3.35
      vertex -6.55556 0.831467 -3.35
      vertex -6.70709 0.707092 -3.35
    endloop
  endfacet
  facet normal -0.4714 0.88192 0
    outer loop
      vertex -6.38268 0.923874 -3.35
      vertex -6.55556 0.831467 3.35
      vertex -6.38268 0.923874 3.35
    endloop
  endfacet
  facet normal -0.4714 0.88192 0
    outer loop
      vertex -6.55556 0.831467 3.35
      vertex -6.38268 0.923874 -3.35
      vertex -6.55556 0.831467 -3.35
    endloop
  endfacet
  facet normal -0.290248 0.956951 0
    outer loop
      vertex -6.19508 0.980774 -3.35
      vertex -6.38268 0.923874 3.35
      vertex -6.19508 0.980774 3.35
    endloop
  endfacet
  facet normal -0.290248 0.956951 0
    outer loop
      vertex -6.38268 0.923874 3.35
      vertex -6.19508 0.980774 -3.35
      vertex -6.38268 0.923874 -3.35
    endloop
  endfacet
  facet normal -0.0980793 0.995179 0
    outer loop
      vertex -6 1 -3.35
      vertex -6.19508 0.980774 3.35
      vertex -6 1 3.35
    endloop
  endfacet
  facet normal -0.0980793 0.995179 0
    outer loop
      vertex -6.19508 0.980774 3.35
      vertex -6 1 -3.35
      vertex -6.19508 0.980774 -3.35
    endloop
  endfacet
  facet normal 0 1 -0
    outer loop
      vertex 6 1 -3.35
      vertex -6 1 3.35
      vertex 6 1 3.35
    endloop
  endfacet
  facet normal 0 1 0
    outer loop
      vertex -6 1 3.35
      vertex 6 1 -3.35
      vertex -6 1 -3.35
    endloop
  endfacet
  facet normal 0.0980793 0.995179 -0
    outer loop
      vertex 6.19508 0.980774 -3.35
      vertex 6 1 3.35
      vertex 6.19508 0.980774 3.35
    endloop
  endfacet
  facet normal 0.0980793 0.995179 0
    outer loop
      vertex 6 1 3.35
      vertex 6.19508 0.980774 -3.35
      vertex 6 1 -3.35
    endloop
  endfacet
  facet normal 0.290248 0.956951 -0
    outer loop
      vertex 6.38268 0.923874 -3.35
      vertex 6.19508 0.980774 3.35
      vertex 6.38268 0.923874 3.35
    endloop
  endfacet
  facet normal 0.290248 0.956951 0
    outer loop
      vertex 6.19508 0.980774 3.35
      vertex 6.38268 0.923874 -3.35
      vertex 6.19508 0.980774 -3.35
    endloop
  endfacet
  facet normal 0.4714 0.88192 -0
    outer loop
      vertex 6.55556 0.831467 -3.35
      vertex 6.38268 0.923874 3.35
      vertex 6.55556 0.831467 3.35
    endloop
  endfacet
  facet normal 0.4714 0.88192 0
    outer loop
      vertex 6.38268 0.923874 3.35
      vertex 6.55556 0.831467 -3.35
      vertex 6.38268 0.923874 -3.35
    endloop
  endfacet
  facet normal 0.634447 0.772967 -0
    outer loop
      vertex 6.70709 0.707092 -3.35
      vertex 6.55556 0.831467 3.35
      vertex 6.70709 0.707092 3.35
    endloop
  endfacet
  facet normal 0.634447 0.772967 0
    outer loop
      vertex 6.55556 0.831467 3.35
      vertex 6.70709 0.707092 -3.35
      vertex 6.55556 0.831467 -3.35
    endloop
  endfacet
  facet normal 0.772964 0.634449 0
    outer loop
      vertex 6.83147 0.555557 3.35
      vertex 6.70709 0.707092 -3.35
      vertex 6.70709 0.707092 3.35
    endloop
  endfacet
  facet normal 0.772964 0.634449 0
    outer loop
      vertex 6.70709 0.707092 -3.35
      vertex 6.83147 0.555557 3.35
      vertex 6.83147 0.555557 -3.35
    endloop
  endfacet
  facet normal 0.881937 0.471368 0
    outer loop
      vertex 6.92387 0.382675 3.35
      vertex 6.83147 0.555557 -3.35
      vertex 6.83147 0.555557 3.35
    endloop
  endfacet
  facet normal 0.881937 0.471368 0
    outer loop
      vertex 6.83147 0.555557 -3.35
      vertex 6.92387 0.382675 3.35
      vertex 6.92387 0.382675 -3.35
    endloop
  endfacet
  facet normal 0.956948 0.290261 0
    outer loop
      vertex 6.98077 0.195084 3.35
      vertex 6.92387 0.382675 -3.35
      vertex 6.92387 0.382675 3.35
    endloop
  endfacet
  facet normal 0.956948 0.290261 0
    outer loop
      vertex 6.92387 0.382675 -3.35
      vertex 6.98077 0.195084 3.35
      vertex 6.98077 0.195084 -3.35
    endloop
  endfacet
  facet normal 0.995177 0.0980975 0
    outer loop
      vertex 7 0 3.35
      vertex 6.98077 0.195084 -3.35
      vertex 6.98077 0.195084 3.35
    endloop
  endfacet
  facet normal 0.995177 0.0980975 0
    outer loop
      vertex 6.98077 0.195084 -3.35
      vertex 7 0 3.35
      vertex 7 0 -3.35
    endloop
  endfacet
  facet normal 0.995178 -0.09809 0
    outer loop
      vertex 6.98077 -0.195099 3.35
      vertex 7 0 -3.35
      vertex 7 0 3.35
    endloop
  endfacet
  facet normal 0.995178 -0.09809 0
    outer loop
      vertex 7 0 -3.35
      vertex 6.98077 -0.195099 3.35
      vertex 6.98077 -0.195099 -3.35
    endloop
  endfacet
  facet normal 0.956948 -0.290261 0
    outer loop
      vertex 6.92387 -0.38269 3.35
      vertex 6.98077 -0.195099 -3.35
      vertex 6.98077 -0.195099 3.35
    endloop
  endfacet
  facet normal 0.956948 -0.290261 0
    outer loop
      vertex 6.98077 -0.195099 -3.35
      vertex 6.92387 -0.38269 3.35
      vertex 6.92387 -0.38269 -3.35
    endloop
  endfacet
  facet normal 0.881938 -0.471365 0
    outer loop
      vertex 6.83147 -0.555573 3.35
      vertex 6.92387 -0.38269 -3.35
      vertex 6.92387 -0.38269 3.35
    endloop
  endfacet
  facet normal 0.881938 -0.471365 0
    outer loop
      vertex 6.92387 -0.38269 -3.35
      vertex 6.83147 -0.555573 3.35
      vertex 6.83147 -0.555573 -3.35
    endloop
  endfacet
  facet normal 0.772964 -0.634449 0
    outer loop
      vertex 6.70709 -0.707108 3.35
      vertex 6.83147 -0.555573 -3.35
      vertex 6.83147 -0.555573 3.35
    endloop
  endfacet
  facet normal 0.772964 -0.634449 0
    outer loop
      vertex 6.83147 -0.555573 -3.35
      vertex 6.70709 -0.707108 3.35
      vertex 6.70709 -0.707108 -3.35
    endloop
  endfacet
  facet normal 0.634444 -0.772969 0
    outer loop
      vertex 6.55556 -0.831482 -3.35
      vertex 6.70709 -0.707108 3.35
      vertex 6.55556 -0.831482 3.35
    endloop
  endfacet
  facet normal 0.634444 -0.772969 0
    outer loop
      vertex 6.70709 -0.707108 3.35
      vertex 6.55556 -0.831482 -3.35
      vertex 6.70709 -0.707108 -3.35
    endloop
  endfacet
  facet normal 0.4714 -0.88192 0
    outer loop
      vertex 6.38268 -0.923889 -3.35
      vertex 6.55556 -0.831482 3.35
      vertex 6.38268 -0.923889 3.35
    endloop
  endfacet
  facet normal 0.4714 -0.88192 0
    outer loop
      vertex 6.55556 -0.831482 3.35
      vertex 6.38268 -0.923889 -3.35
      vertex 6.55556 -0.831482 -3.35
    endloop
  endfacet
  facet normal 0.290248 -0.956951 0
    outer loop
      vertex 6.19508 -0.980789 -3.35
      vertex 6.38268 -0.923889 3.35
      vertex 6.19508 -0.980789 3.35
    endloop
  endfacet
  facet normal 0.290248 -0.956951 0
    outer loop
      vertex 6.38268 -0.923889 3.35
      vertex 6.19508 -0.980789 -3.35
      vertex 6.38268 -0.923889 -3.35
    endloop
  endfacet
  facet normal 0.0980035 -0.995186 0
    outer loop
      vertex 6 -1 -3.35
      vertex 6.19508 -0.980789 3.35
      vertex 6 -1 3.35
    endloop
  endfacet
  facet normal 0.0980035 -0.995186 0
    outer loop
      vertex 6.19508 -0.980789 3.35
      vertex 6 -1 -3.35
      vertex 6.19508 -0.980789 -3.35
    endloop
  endfacet
  facet normal 0 -1 0
    outer loop
      vertex 1 -1 -3.35
      vertex 6 -1 3.35
      vertex 1 -1 3.35
    endloop
  endfacet
  facet normal 0 -1 -0
    outer loop
      vertex 6 -1 3.35
      vertex 1 -1 -3.35
      vertex 6 -1 -3.35
    endloop
  endfacet
  facet normal 1 -0 0
    outer loop
      vertex 1 -17 3.35
      vertex 1 -1 -3.35
      vertex 1 -1 3.35
    endloop
  endfacet
  facet normal 1 0 0
    outer loop
      vertex 1 -1 -3.35
      vertex 1 -17 3.35
      vertex 1 -17 -3.35
    endloop
  endfacet
  facet normal 0.911352 -0.411628 0
    outer loop
      vertex 0.461929 -18.1913 3.35
      vertex 1 -17 -3.35
      vertex 1 -17 3.35
    endloop
  endfacet
  facet normal 0.911352 -0.411628 0
    outer loop
      vertex 1 -17 -3.35
      vertex 0.461929 -18.1913 3.35
      vertex 0.461929 -18.1913 -3.35
    endloop
  endfacet
  facet normal 0 0 1
    outer loop
      vertex -3.01923 5.19508 3.35
      vertex -3.01923 4.8049 3.35
      vertex -3 5 3.35
    endloop
  endfacet
  facet normal 0 0 1
    outer loop
      vertex -3.07613 5.38268 3.35
      vertex -3.01923 4.8049 3.35
      vertex -3.01923 5.19508 3.35
    endloop
  endfacet
  facet normal 0 0 1
    outer loop
      vertex -3.07613 5.38268 3.35
      vertex -3.07613 4.61731 3.35
      vertex -3.01923 4.8049 3.35
    endloop
  endfacet
  facet normal 0 0 1
    outer loop
      vertex -3.16853 5.55556 3.35
      vertex -3.07613 4.61731 3.35
      vertex -3.07613 5.38268 3.35
    endloop
  endfacet
  facet normal 0 0 1
    outer loop
      vertex -3.16853 5.55556 3.35
      vertex -3.16853 4.44443 3.35
      vertex -3.07613 4.61731 3.35
    endloop
  endfacet
  facet normal 0 0 1
    outer loop
      vertex -3.29291 5.70709 3.35
      vertex -3.16853 4.44443 3.35
      vertex -3.16853 5.55556 3.35
    endloop
  endfacet
  facet normal 0 0 1
    outer loop
      vertex -3.29291 5.70709 3.35
      vertex -3.29291 4.29289 3.35
      vertex -3.16853 4.44443 3.35
    endloop
  endfacet
  facet normal 0 0 1
    outer loop
      vertex -3.44444 5.83147 3.35
      vertex -3.29291 4.29289 3.35
      vertex -3.29291 5.70709 3.35
    endloop
  endfacet
  facet normal 0 0 1
    outer loop
      vertex -3.44444 5.83147 3.35
      vertex -3.44444 4.16852 3.35
      vertex -3.29291 4.29289 3.35
    endloop
  endfacet
  facet normal 0 0 1
    outer loop
      vertex -3.61732 5.92387 3.35
      vertex -3.44444 4.16852 3.35
      vertex -3.44444 5.83147 3.35
    endloop
  endfacet
  facet normal 0 0 1
    outer loop
      vertex -3.61732 5.92387 3.35
      vertex -3.61732 4.07611 3.35
      vertex -3.44444 4.16852 3.35
    endloop
  endfacet
  facet normal 0 0 1
    outer loop
      vertex -3.80492 5.98077 3.35
      vertex -3.61732 4.07611 3.35
      vertex -3.61732 5.92387 3.35
    endloop
  endfacet
  facet normal 0 0 1
    outer loop
      vertex -3.80492 5.98077 3.35
      vertex -3.80492 4.01921 3.35
      vertex -3.61732 4.07611 3.35
    endloop
  endfacet
  facet normal 0 0 1
    outer loop
      vertex -4 6 3.35
      vertex -3.80492 4.01921 3.35
      vertex -3.80492 5.98077 3.35
    endloop
  endfacet
  facet normal 0 0 1
    outer loop
      vertex -4 6 3.35
      vertex -4 4 3.35
      vertex -3.80492 4.01921 3.35
    endloop
  endfacet
  facet normal 0 0 1
    outer loop
      vertex -4 6 3.35
      vertex -9 4 3.35
      vertex -4 4 3.35
    endloop
  endfacet
  facet normal 0 0 1
    outer loop
      vertex -11 -12 3.35
      vertex -9 -12 3.35
      vertex -9 4 3.35
    endloop
  endfacet
  facet normal 0 0 1
    outer loop
      vertex -9 -12 3.35
      vertex -11 -12 3.35
      vertex -9.53807 -13.1913 3.35
    endloop
  endfacet
  facet normal 0 -0 1
    outer loop
      vertex -10.4619 -13.1913 3.35
      vertex -9.53807 -13.1913 3.35
      vertex -11 -12 3.35
    endloop
  endfacet
  facet normal 0 0 1
    outer loop
      vertex -9.53807 -13.1913 3.35
      vertex -10.4619 -13.1913 3.35
      vertex -9.58427 -13.2778 3.35
    endloop
  endfacet
  facet normal 0 0 1
    outer loop
      vertex -9.58427 -13.2778 3.35
      vertex -10.4619 -13.1913 3.35
      vertex -9.64645 -13.3535 3.35
    endloop
  endfacet
  facet normal 0 0 1
    outer loop
      vertex -9.64645 -13.3535 3.35
      vertex -10.4619 -13.1913 3.35
      vertex -9.72223 -13.4157 3.35
    endloop
  endfacet
  facet normal 0 0 1
    outer loop
      vertex -9.72223 -13.4157 3.35
      vertex -10.4619 -13.1913 3.35
      vertex -9.80867 -13.4619 3.35
    endloop
  endfacet
  facet normal 0 0 1
    outer loop
      vertex -9.80867 -13.4619 3.35
      vertex -10.4619 -13.1913 3.35
      vertex -9.90247 -13.4904 3.35
    endloop
  endfacet
  facet normal 0 0 1
    outer loop
      vertex -9.90247 -13.4904 3.35
      vertex -10.4619 -13.1913 3.35
      vertex -10 -13.5 3.35
    endloop
  endfacet
  facet normal 0 0 1
    outer loop
      vertex -10 -13.5 3.35
      vertex -10.4619 -13.1913 3.35
      vertex -10.0975 -13.4904 3.35
    endloop
  endfacet
  facet normal 0 0 1
    outer loop
      vertex -10.0975 -13.4904 3.35
      vertex -10.4619 -13.1913 3.35
      vertex -10.1913 -13.4619 3.35
    endloop
  endfacet
  facet normal 0 0 1
    outer loop
      vertex -10.1913 -13.4619 3.35
      vertex -10.4619 -13.1913 3.35
      vertex -10.2778 -13.4157 3.35
    endloop
  endfacet
  facet normal 0 0 1
    outer loop
      vertex -10.2778 -13.4157 3.35
      vertex -10.4619 -13.1913 3.35
      vertex -10.3535 -13.3535 3.35
    endloop
  endfacet
  facet normal 0 0 1
    outer loop
      vertex -11 -12 3.35
      vertex -9 4 3.35
      vertex -11 4 3.35
    endloop
  endfacet
  facet normal 0 0 1
    outer loop
      vertex -4 6 3.35
      vertex -11 4 3.35
      vertex -9 4 3.35
    endloop
  endfacet
  facet normal -0 0 1
    outer loop
      vertex -16 6 3.35
      vertex -11 4 3.35
      vertex -4 6 3.35
    endloop
  endfacet
  facet normal 0 0 1
    outer loop
      vertex -16 6 3.35
      vertex -16 4 3.35
      vertex -11 4 3.35
    endloop
  endfacet
  facet normal -0 0 1
    outer loop
      vertex -16.1951 5.98077 3.35
      vertex -16 4 3.35
      vertex -16 6 3.35
    endloop
  endfacet
  facet normal 0 0 1
    outer loop
      vertex -16.1951 5.98077 3.35
      vertex -16.1951 4.01921 3.35
      vertex -16 4 3.35
    endloop
  endfacet
  facet normal -0 0 1
    outer loop
      vertex -16.3827 5.92387 3.35
      vertex -16.1951 4.01921 3.35
      vertex -16.1951 5.98077 3.35
    endloop
  endfacet
  facet normal 0 0 1
    outer loop
      vertex -16.3827 5.92387 3.35
      vertex -16.3827 4.07611 3.35
      vertex -16.1951 4.01921 3.35
    endloop
  endfacet
  facet normal -0 0 1
    outer loop
      vertex -16.5556 5.83147 3.35
      vertex -16.3827 4.07611 3.35
      vertex -16.3827 5.92387 3.35
    endloop
  endfacet
  facet normal 0 0 1
    outer loop
      vertex -16.5556 5.83147 3.35
      vertex -16.5556 4.16852 3.35
      vertex -16.3827 4.07611 3.35
    endloop
  endfacet
  facet normal -0 0 1
    outer loop
      vertex -16.7071 5.70709 3.35
      vertex -16.5556 4.16852 3.35
      vertex -16.5556 5.83147 3.35
    endloop
  endfacet
  facet normal 0 0 1
    outer loop
      vertex -16.7071 5.70709 3.35
      vertex -16.7071 4.29289 3.35
      vertex -16.5556 4.16852 3.35
    endloop
  endfacet
  facet normal -0 0 1
    outer loop
      vertex -16.8315 5.55556 3.35
      vertex -16.7071 4.29289 3.35
      vertex -16.7071 5.70709 3.35
    endloop
  endfacet
  facet normal 0 0 1
    outer loop
      vertex -16.8315 5.55556 3.35
      vertex -16.8315 4.44443 3.35
      vertex -16.7071 4.29289 3.35
    endloop
  endfacet
  facet normal -0 0 1
    outer loop
      vertex -16.9239 5.38268 3.35
      vertex -16.8315 4.44443 3.35
      vertex -16.8315 5.55556 3.35
    endloop
  endfacet
  facet normal 0 0 1
    outer loop
      vertex -16.9239 5.38268 3.35
      vertex -16.9239 4.61731 3.35
      vertex -16.8315 4.44443 3.35
    endloop
  endfacet
  facet normal -0 0 1
    outer loop
      vertex -16.9808 5.19508 3.35
      vertex -16.9239 4.61731 3.35
      vertex -16.9239 5.38268 3.35
    endloop
  endfacet
  facet normal 0 0 1
    outer loop
      vertex -16.9808 5.19508 3.35
      vertex -16.9808 4.8049 3.35
      vertex -16.9239 4.61731 3.35
    endloop
  endfacet
  facet normal 0 -0 1
    outer loop
      vertex -16.9808 4.8049 3.35
      vertex -16.9808 5.19508 3.35
      vertex -17 5 3.35
    endloop
  endfacet
  facet normal 0 0 1
    outer loop
      vertex -10.3535 -13.3535 3.35
      vertex -10.4619 -13.1913 3.35
      vertex -10.4157 -13.2778 3.35
    endloop
  endfacet
  facet normal 0 0 -1
    outer loop
      vertex -11 -12 -3.35
      vertex -9 -12 -3.35
      vertex -9.53807 -13.1913 -3.35
    endloop
  endfacet
  facet normal 0 0 -1
    outer loop
      vertex -3.01923 4.8049 -3.35
      vertex -3.01923 5.19508 -3.35
      vertex -3 5 -3.35
    endloop
  endfacet
  facet normal 0 0 -1
    outer loop
      vertex -3.07613 4.61731 -3.35
      vertex -3.01923 5.19508 -3.35
      vertex -3.01923 4.8049 -3.35
    endloop
  endfacet
  facet normal 0 0 -1
    outer loop
      vertex -3.07613 4.61731 -3.35
      vertex -3.07613 5.38268 -3.35
      vertex -3.01923 5.19508 -3.35
    endloop
  endfacet
  facet normal 0 0 -1
    outer loop
      vertex -3.16853 4.44443 -3.35
      vertex -3.07613 5.38268 -3.35
      vertex -3.07613 4.61731 -3.35
    endloop
  endfacet
  facet normal 0 0 -1
    outer loop
      vertex -3.16853 4.44443 -3.35
      vertex -3.16853 5.55556 -3.35
      vertex -3.07613 5.38268 -3.35
    endloop
  endfacet
  facet normal 0 0 -1
    outer loop
      vertex -3.29291 4.29289 -3.35
      vertex -3.16853 5.55556 -3.35
      vertex -3.16853 4.44443 -3.35
    endloop
  endfacet
  facet normal 0 0 -1
    outer loop
      vertex -3.29291 4.29289 -3.35
      vertex -3.29291 5.70709 -3.35
      vertex -3.16853 5.55556 -3.35
    endloop
  endfacet
  facet normal 0 0 -1
    outer loop
      vertex -3.44444 4.16852 -3.35
      vertex -3.29291 5.70709 -3.35
      vertex -3.29291 4.29289 -3.35
    endloop
  endfacet
  facet normal 0 0 -1
    outer loop
      vertex -3.44444 4.16852 -3.35
      vertex -3.44444 5.83147 -3.35
      vertex -3.29291 5.70709 -3.35
    endloop
  endfacet
  facet normal 0 0 -1
    outer loop
      vertex -3.61732 4.07611 -3.35
      vertex -3.44444 5.83147 -3.35
      vertex -3.44444 4.16852 -3.35
    endloop
  endfacet
  facet normal 0 0 -1
    outer loop
      vertex -3.61732 4.07611 -3.35
      vertex -3.61732 5.92387 -3.35
      vertex -3.44444 5.83147 -3.35
    endloop
  endfacet
  facet normal 0 0 -1
    outer loop
      vertex -3.80492 4.01921 -3.35
      vertex -3.61732 5.92387 -3.35
      vertex -3.61732 4.07611 -3.35
    endloop
  endfacet
  facet normal 0 0 -1
    outer loop
      vertex -3.80492 4.01921 -3.35
      vertex -3.80492 5.98077 -3.35
      vertex -3.61732 5.92387 -3.35
    endloop
  endfacet
  facet normal 0 0 -1
    outer loop
      vertex -4 4 -3.35
      vertex -3.80492 5.98077 -3.35
      vertex -3.80492 4.01921 -3.35
    endloop
  endfacet
  facet normal 0 0 -1
    outer loop
      vertex -4 4 -3.35
      vertex -4 6 -3.35
      vertex -3.80492 5.98077 -3.35
    endloop
  endfacet
  facet normal 0 0 -1
    outer loop
      vertex -9 4 -3.35
      vertex -4 6 -3.35
      vertex -4 4 -3.35
    endloop
  endfacet
  facet normal 0 0 -1
    outer loop
      vertex -10.4619 -13.1913 -3.35
      vertex -9.53807 -13.1913 -3.35
      vertex -9.58427 -13.2778 -3.35
    endloop
  endfacet
  facet normal 0 0 -1
    outer loop
      vertex -10.4619 -13.1913 -3.35
      vertex -9.58427 -13.2778 -3.35
      vertex -9.64645 -13.3535 -3.35
    endloop
  endfacet
  facet normal 0 0 -1
    outer loop
      vertex -10.4619 -13.1913 -3.35
      vertex -9.64645 -13.3535 -3.35
      vertex -9.72223 -13.4157 -3.35
    endloop
  endfacet
  facet normal 0 0 -1
    outer loop
      vertex -10.4619 -13.1913 -3.35
      vertex -9.72223 -13.4157 -3.35
      vertex -9.80867 -13.4619 -3.35
    endloop
  endfacet
  facet normal 0 0 -1
    outer loop
      vertex -10.4619 -13.1913 -3.35
      vertex -9.80867 -13.4619 -3.35
      vertex -9.90247 -13.4904 -3.35
    endloop
  endfacet
  facet normal 0 0 -1
    outer loop
      vertex -10.4619 -13.1913 -3.35
      vertex -9.90247 -13.4904 -3.35
      vertex -10 -13.5 -3.35
    endloop
  endfacet
  facet normal 0 0 -1
    outer loop
      vertex -10.4619 -13.1913 -3.35
      vertex -10 -13.5 -3.35
      vertex -10.0975 -13.4904 -3.35
    endloop
  endfacet
  facet normal 0 0 -1
    outer loop
      vertex -10.4619 -13.1913 -3.35
      vertex -10.0975 -13.4904 -3.35
      vertex -10.1913 -13.4619 -3.35
    endloop
  endfacet
  facet normal 0 0 -1
    outer loop
      vertex -10.4619 -13.1913 -3.35
      vertex -10.1913 -13.4619 -3.35
      vertex -10.2778 -13.4157 -3.35
    endloop
  endfacet
  facet normal 0 0 -1
    outer loop
      vertex -10.4619 -13.1913 -3.35
      vertex -10.2778 -13.4157 -3.35
      vertex -10.3535 -13.3535 -3.35
    endloop
  endfacet
  facet normal 0 0 -1
    outer loop
      vertex -10.4619 -13.1913 -3.35
      vertex -10.3535 -13.3535 -3.35
      vertex -10.4157 -13.2778 -3.35
    endloop
  endfacet
  facet normal 0 0 -1
    outer loop
      vertex -9.53807 -13.1913 -3.35
      vertex -10.4619 -13.1913 -3.35
      vertex -11 -12 -3.35
    endloop
  endfacet
  facet normal 0 0 -1
    outer loop
      vertex -9 -12 -3.35
      vertex -11 -12 -3.35
      vertex -9 4 -3.35
    endloop
  endfacet
  facet normal 0 0 -1
    outer loop
      vertex -11 4 -3.35
      vertex -9 4 -3.35
      vertex -11 -12 -3.35
    endloop
  endfacet
  facet normal 0 0 -1
    outer loop
      vertex -11 4 -3.35
      vertex -4 6 -3.35
      vertex -9 4 -3.35
    endloop
  endfacet
  facet normal 0 0 -1
    outer loop
      vertex -16 6 -3.35
      vertex -11 4 -3.35
      vertex -16 4 -3.35
    endloop
  endfacet
  facet normal 0 0 -1
    outer loop
      vertex -11 4 -3.35
      vertex -16 6 -3.35
      vertex -4 6 -3.35
    endloop
  endfacet
  facet normal 0 0 -1
    outer loop
      vertex -16.1951 4.01921 -3.35
      vertex -16 6 -3.35
      vertex -16 4 -3.35
    endloop
  endfacet
  facet normal 0 0 -1
    outer loop
      vertex -16.1951 4.01921 -3.35
      vertex -16.1951 5.98077 -3.35
      vertex -16 6 -3.35
    endloop
  endfacet
  facet normal 0 0 -1
    outer loop
      vertex -16.3827 4.07611 -3.35
      vertex -16.1951 5.98077 -3.35
      vertex -16.1951 4.01921 -3.35
    endloop
  endfacet
  facet normal 0 0 -1
    outer loop
      vertex -16.3827 4.07611 -3.35
      vertex -16.3827 5.92387 -3.35
      vertex -16.1951 5.98077 -3.35
    endloop
  endfacet
  facet normal 0 0 -1
    outer loop
      vertex -16.5556 4.16852 -3.35
      vertex -16.3827 5.92387 -3.35
      vertex -16.3827 4.07611 -3.35
    endloop
  endfacet
  facet normal 0 0 -1
    outer loop
      vertex -16.5556 4.16852 -3.35
      vertex -16.5556 5.83147 -3.35
      vertex -16.3827 5.92387 -3.35
    endloop
  endfacet
  facet normal 0 0 -1
    outer loop
      vertex -16.7071 4.29289 -3.35
      vertex -16.5556 5.83147 -3.35
      vertex -16.5556 4.16852 -3.35
    endloop
  endfacet
  facet normal 0 0 -1
    outer loop
      vertex -16.7071 4.29289 -3.35
      vertex -16.7071 5.70709 -3.35
      vertex -16.5556 5.83147 -3.35
    endloop
  endfacet
  facet normal 0 0 -1
    outer loop
      vertex -16.8315 4.44443 -3.35
      vertex -16.7071 5.70709 -3.35
      vertex -16.7071 4.29289 -3.35
    endloop
  endfacet
  facet normal 0 0 -1
    outer loop
      vertex -16.8315 4.44443 -3.35
      vertex -16.8315 5.55556 -3.35
      vertex -16.7071 5.70709 -3.35
    endloop
  endfacet
  facet normal 0 0 -1
    outer loop
      vertex -16.9239 4.61731 -3.35
      vertex -16.8315 5.55556 -3.35
      vertex -16.8315 4.44443 -3.35
    endloop
  endfacet
  facet normal 0 0 -1
    outer loop
      vertex -16.9239 4.61731 -3.35
      vertex -16.9239 5.38268 -3.35
      vertex -16.8315 5.55556 -3.35
    endloop
  endfacet
  facet normal 0 0 -1
    outer loop
      vertex -16.9808 4.8049 -3.35
      vertex -16.9239 5.38268 -3.35
      vertex -16.9239 4.61731 -3.35
    endloop
  endfacet
  facet normal 0 0 -1
    outer loop
      vertex -16.9808 4.8049 -3.35
      vertex -16.9808 5.19508 -3.35
      vertex -16.9239 5.38268 -3.35
    endloop
  endfacet
  facet normal 0 -0 -1
    outer loop
      vertex -16.9808 5.19508 -3.35
      vertex -16.9808 4.8049 -3.35
      vertex -17 5 -3.35
    endloop
  endfacet
  facet normal 0.882071 -0.471117 0
    outer loop
      vertex -9.58427 -13.2778 3.35
      vertex -9.53807 -13.1913 -3.35
      vertex -9.53807 -13.1913 3.35
    endloop
  endfacet
  facet normal 0.882071 -0.471117 0
    outer loop
      vertex -9.53807 -13.1913 -3.35
      vertex -9.58427 -13.2778 3.35
      vertex -9.58427 -13.2778 -3.35
    endloop
  endfacet
  facet normal 0.772737 -0.634726 0
    outer loop
      vertex -9.64645 -13.3535 3.35
      vertex -9.58427 -13.2778 -3.35
      vertex -9.58427 -13.2778 3.35
    endloop
  endfacet
  facet normal 0.772737 -0.634726 0
    outer loop
      vertex -9.58427 -13.2778 -3.35
      vertex -9.64645 -13.3535 3.35
      vertex -9.64645 -13.3535 -3.35
    endloop
  endfacet
  facet normal 0.634448 -0.772966 0
    outer loop
      vertex -9.72223 -13.4157 -3.35
      vertex -9.64645 -13.3535 3.35
      vertex -9.72223 -13.4157 3.35
    endloop
  endfacet
  facet normal 0.634448 -0.772966 0
    outer loop
      vertex -9.64645 -13.3535 3.35
      vertex -9.72223 -13.4157 -3.35
      vertex -9.64645 -13.3535 -3.35
    endloop
  endfacet
  facet normal 0.471372 -0.881935 0
    outer loop
      vertex -9.80867 -13.4619 -3.35
      vertex -9.72223 -13.4157 3.35
      vertex -9.80867 -13.4619 3.35
    endloop
  endfacet
  facet normal 0.471372 -0.881935 0
    outer loop
      vertex -9.72223 -13.4157 3.35
      vertex -9.80867 -13.4619 -3.35
      vertex -9.72223 -13.4157 -3.35
    endloop
  endfacet
  facet normal 0.290715 -0.95681 0
    outer loop
      vertex -9.90247 -13.4904 -3.35
      vertex -9.80867 -13.4619 3.35
      vertex -9.90247 -13.4904 3.35
    endloop
  endfacet
  facet normal 0.290715 -0.95681 0
    outer loop
      vertex -9.80867 -13.4619 3.35
      vertex -9.90247 -13.4904 -3.35
      vertex -9.80867 -13.4619 -3.35
    endloop
  endfacet
  facet normal 0.0979579 -0.995191 0
    outer loop
      vertex -10 -13.5 -3.35
      vertex -9.90247 -13.4904 3.35
      vertex -10 -13.5 3.35
    endloop
  endfacet
  facet normal 0.0979579 -0.995191 0
    outer loop
      vertex -9.90247 -13.4904 3.35
      vertex -10 -13.5 -3.35
      vertex -9.90247 -13.4904 -3.35
    endloop
  endfacet
  facet normal -0.0979877 -0.995188 0
    outer loop
      vertex -10.0975 -13.4904 -3.35
      vertex -10 -13.5 3.35
      vertex -10.0975 -13.4904 3.35
    endloop
  endfacet
  facet normal -0.0979877 -0.995188 -0
    outer loop
      vertex -10 -13.5 3.35
      vertex -10.0975 -13.4904 -3.35
      vertex -10 -13.5 -3.35
    endloop
  endfacet
  facet normal -0.290715 -0.95681 0
    outer loop
      vertex -10.1913 -13.4619 -3.35
      vertex -10.0975 -13.4904 3.35
      vertex -10.1913 -13.4619 3.35
    endloop
  endfacet
  facet normal -0.290715 -0.95681 -0
    outer loop
      vertex -10.0975 -13.4904 3.35
      vertex -10.1913 -13.4619 -3.35
      vertex -10.0975 -13.4904 -3.35
    endloop
  endfacet
  facet normal -0.471117 -0.882071 0
    outer loop
      vertex -10.2778 -13.4157 -3.35
      vertex -10.1913 -13.4619 3.35
      vertex -10.2778 -13.4157 3.35
    endloop
  endfacet
  facet normal -0.471117 -0.882071 -0
    outer loop
      vertex -10.1913 -13.4619 3.35
      vertex -10.2778 -13.4157 -3.35
      vertex -10.1913 -13.4619 -3.35
    endloop
  endfacet
  facet normal -0.634848 -0.772637 0
    outer loop
      vertex -10.3535 -13.3535 -3.35
      vertex -10.2778 -13.4157 3.35
      vertex -10.3535 -13.3535 3.35
    endloop
  endfacet
  facet normal -0.634848 -0.772637 -0
    outer loop
      vertex -10.2778 -13.4157 3.35
      vertex -10.3535 -13.3535 -3.35
      vertex -10.2778 -13.4157 -3.35
    endloop
  endfacet
  facet normal -0.772637 -0.634848 0
    outer loop
      vertex -10.3535 -13.3535 -3.35
      vertex -10.4157 -13.2778 3.35
      vertex -10.4157 -13.2778 -3.35
    endloop
  endfacet
  facet normal -0.772637 -0.634848 0
    outer loop
      vertex -10.4157 -13.2778 3.35
      vertex -10.3535 -13.3535 -3.35
      vertex -10.3535 -13.3535 3.35
    endloop
  endfacet
  facet normal -0.882071 -0.471117 0
    outer loop
      vertex -10.4157 -13.2778 -3.35
      vertex -10.4619 -13.1913 3.35
      vertex -10.4619 -13.1913 -3.35
    endloop
  endfacet
  facet normal -0.882071 -0.471117 0
    outer loop
      vertex -10.4619 -13.1913 3.35
      vertex -10.4157 -13.2778 -3.35
      vertex -10.4157 -13.2778 3.35
    endloop
  endfacet
  facet normal -0.911344 -0.411646 0
    outer loop
      vertex -10.4619 -13.1913 -3.35
      vertex -11 -12 3.35
      vertex -11 -12 -3.35
    endloop
  endfacet
  facet normal -0.911344 -0.411646 0
    outer loop
      vertex -11 -12 3.35
      vertex -10.4619 -13.1913 -3.35
      vertex -10.4619 -13.1913 3.35
    endloop
  endfacet
  facet normal -1 0 0
    outer loop
      vertex -11 -12 -3.35
      vertex -11 4 3.35
      vertex -11 4 -3.35
    endloop
  endfacet
  facet normal -1 -0 0
    outer loop
      vertex -11 4 3.35
      vertex -11 -12 -3.35
      vertex -11 -12 3.35
    endloop
  endfacet
  facet normal 0 -1 0
    outer loop
      vertex -16 4 -3.35
      vertex -11 4 3.35
      vertex -16 4 3.35
    endloop
  endfacet
  facet normal 0 -1 -0
    outer loop
      vertex -11 4 3.35
      vertex -16 4 -3.35
      vertex -11 4 -3.35
    endloop
  endfacet
  facet normal -0.0979885 -0.995188 0
    outer loop
      vertex -16.1951 4.01921 -3.35
      vertex -16 4 3.35
      vertex -16.1951 4.01921 3.35
    endloop
  endfacet
  facet normal -0.0979885 -0.995188 -0
    outer loop
      vertex -16 4 3.35
      vertex -16.1951 4.01921 -3.35
      vertex -16 4 -3.35
    endloop
  endfacet
  facet normal -0.290248 -0.956951 0
    outer loop
      vertex -16.3827 4.07611 -3.35
      vertex -16.1951 4.01921 3.35
      vertex -16.3827 4.07611 3.35
    endloop
  endfacet
  facet normal -0.290248 -0.956951 -0
    outer loop
      vertex -16.1951 4.01921 3.35
      vertex -16.3827 4.07611 -3.35
      vertex -16.1951 4.01921 -3.35
    endloop
  endfacet
  facet normal -0.471369 -0.881936 0
    outer loop
      vertex -16.5556 4.16852 -3.35
      vertex -16.3827 4.07611 3.35
      vertex -16.5556 4.16852 3.35
    endloop
  endfacet
  facet normal -0.471369 -0.881936 -0
    outer loop
      vertex -16.3827 4.07611 3.35
      vertex -16.5556 4.16852 -3.35
      vertex -16.3827 4.07611 -3.35
    endloop
  endfacet
  facet normal -0.634507 -0.772917 0
    outer loop
      vertex -16.7071 4.29289 -3.35
      vertex -16.5556 4.16852 3.35
      vertex -16.7071 4.29289 3.35
    endloop
  endfacet
  facet normal -0.634507 -0.772917 -0
    outer loop
      vertex -16.5556 4.16852 3.35
      vertex -16.7071 4.29289 -3.35
      vertex -16.5556 4.16852 -3.35
    endloop
  endfacet
  facet normal -0.772925 -0.634498 0
    outer loop
      vertex -16.7071 4.29289 -3.35
      vertex -16.8315 4.44443 3.35
      vertex -16.8315 4.44443 -3.35
    endloop
  endfacet
  facet normal -0.772925 -0.634498 0
    outer loop
      vertex -16.8315 4.44443 3.35
      vertex -16.7071 4.29289 -3.35
      vertex -16.7071 4.29289 3.35
    endloop
  endfacet
  facet normal -0.881935 -0.471372 0
    outer loop
      vertex -16.8315 4.44443 -3.35
      vertex -16.9239 4.61731 3.35
      vertex -16.9239 4.61731 -3.35
    endloop
  endfacet
  facet normal -0.881935 -0.471372 0
    outer loop
      vertex -16.9239 4.61731 3.35
      vertex -16.8315 4.44443 -3.35
      vertex -16.8315 4.44443 3.35
    endloop
  endfacet
  facet normal -0.956947 -0.290262 0
    outer loop
      vertex -16.9239 4.61731 -3.35
      vertex -16.9808 4.8049 3.35
      vertex -16.9808 4.8049 -3.35
    endloop
  endfacet
  facet normal -0.956947 -0.290262 0
    outer loop
      vertex -16.9808 4.8049 3.35
      vertex -16.9239 4.61731 -3.35
      vertex -16.9239 4.61731 3.35
    endloop
  endfacet
  facet normal -0.995193 -0.097938 0
    outer loop
      vertex -16.9808 4.8049 -3.35
      vertex -17 5 3.35
      vertex -17 5 -3.35
    endloop
  endfacet
  facet normal -0.995193 -0.097938 0
    outer loop
      vertex -17 5 3.35
      vertex -16.9808 4.8049 -3.35
      vertex -16.9808 4.8049 3.35
    endloop
  endfacet
  facet normal -0.995192 0.0979479 0
    outer loop
      vertex -17 5 -3.35
      vertex -16.9808 5.19508 3.35
      vertex -16.9808 5.19508 -3.35
    endloop
  endfacet
  facet normal -0.995192 0.0979479 0
    outer loop
      vertex -16.9808 5.19508 3.35
      vertex -17 5 -3.35
      vertex -17 5 3.35
    endloop
  endfacet
  facet normal -0.956951 0.290248 0
    outer loop
      vertex -16.9808 5.19508 -3.35
      vertex -16.9239 5.38268 3.35
      vertex -16.9239 5.38268 -3.35
    endloop
  endfacet
  facet normal -0.956951 0.290248 0
    outer loop
      vertex -16.9239 5.38268 3.35
      vertex -16.9808 5.19508 -3.35
      vertex -16.9808 5.19508 3.35
    endloop
  endfacet
  facet normal -0.881935 0.471372 0
    outer loop
      vertex -16.9239 5.38268 -3.35
      vertex -16.8315 5.55556 3.35
      vertex -16.8315 5.55556 -3.35
    endloop
  endfacet
  facet normal -0.881935 0.471372 0
    outer loop
      vertex -16.8315 5.55556 3.35
      vertex -16.9239 5.38268 -3.35
      vertex -16.9239 5.38268 3.35
    endloop
  endfacet
  facet normal -0.772904 0.634523 0
    outer loop
      vertex -16.8315 5.55556 -3.35
      vertex -16.7071 5.70709 3.35
      vertex -16.7071 5.70709 -3.35
    endloop
  endfacet
  facet normal -0.772904 0.634523 0
    outer loop
      vertex -16.7071 5.70709 3.35
      vertex -16.8315 5.55556 -3.35
      vertex -16.8315 5.55556 3.35
    endloop
  endfacet
  facet normal -0.634537 0.772892 0
    outer loop
      vertex -16.5556 5.83147 -3.35
      vertex -16.7071 5.70709 3.35
      vertex -16.5556 5.83147 3.35
    endloop
  endfacet
  facet normal -0.634537 0.772892 0
    outer loop
      vertex -16.7071 5.70709 3.35
      vertex -16.5556 5.83147 -3.35
      vertex -16.7071 5.70709 -3.35
    endloop
  endfacet
  facet normal -0.471329 0.881957 0
    outer loop
      vertex -16.3827 5.92387 -3.35
      vertex -16.5556 5.83147 3.35
      vertex -16.3827 5.92387 3.35
    endloop
  endfacet
  facet normal -0.471329 0.881957 0
    outer loop
      vertex -16.5556 5.83147 3.35
      vertex -16.3827 5.92387 -3.35
      vertex -16.5556 5.83147 -3.35
    endloop
  endfacet
  facet normal -0.290248 0.956951 0
    outer loop
      vertex -16.1951 5.98077 -3.35
      vertex -16.3827 5.92387 3.35
      vertex -16.1951 5.98077 3.35
    endloop
  endfacet
  facet normal -0.290248 0.956951 0
    outer loop
      vertex -16.3827 5.92387 3.35
      vertex -16.1951 5.98077 -3.35
      vertex -16.3827 5.92387 -3.35
    endloop
  endfacet
  facet normal -0.0980895 0.995178 0
    outer loop
      vertex -16 6 -3.35
      vertex -16.1951 5.98077 3.35
      vertex -16 6 3.35
    endloop
  endfacet
  facet normal -0.0980895 0.995178 0
    outer loop
      vertex -16.1951 5.98077 3.35
      vertex -16 6 -3.35
      vertex -16.1951 5.98077 -3.35
    endloop
  endfacet
  facet normal 0 1 -0
    outer loop
      vertex -4 6 -3.35
      vertex -16 6 3.35
      vertex -4 6 3.35
    endloop
  endfacet
  facet normal 0 1 0
    outer loop
      vertex -16 6 3.35
      vertex -4 6 -3.35
      vertex -16 6 -3.35
    endloop
  endfacet
  facet normal 0.0980995 0.995177 -0
    outer loop
      vertex -3.80492 5.98077 -3.35
      vertex -4 6 3.35
      vertex -3.80492 5.98077 3.35
    endloop
  endfacet
  facet normal 0.0980995 0.995177 0
    outer loop
      vertex -4 6 3.35
      vertex -3.80492 5.98077 -3.35
      vertex -4 6 -3.35
    endloop
  endfacet
  facet normal 0.290248 0.956951 -0
    outer loop
      vertex -3.61732 5.92387 -3.35
      vertex -3.80492 5.98077 3.35
      vertex -3.61732 5.92387 3.35
    endloop
  endfacet
  facet normal 0.290248 0.956951 0
    outer loop
      vertex -3.80492 5.98077 3.35
      vertex -3.61732 5.92387 -3.35
      vertex -3.80492 5.98077 -3.35
    endloop
  endfacet
  facet normal 0.471372 0.881935 -0
    outer loop
      vertex -3.44444 5.83147 -3.35
      vertex -3.61732 5.92387 3.35
      vertex -3.44444 5.83147 3.35
    endloop
  endfacet
  facet normal 0.471372 0.881935 0
    outer loop
      vertex -3.61732 5.92387 3.35
      vertex -3.44444 5.83147 -3.35
      vertex -3.61732 5.92387 -3.35
    endloop
  endfacet
  facet normal 0.634462 0.772954 -0
    outer loop
      vertex -3.29291 5.70709 -3.35
      vertex -3.44444 5.83147 3.35
      vertex -3.29291 5.70709 3.35
    endloop
  endfacet
  facet normal 0.634462 0.772954 0
    outer loop
      vertex -3.44444 5.83147 3.35
      vertex -3.29291 5.70709 -3.35
      vertex -3.44444 5.83147 -3.35
    endloop
  endfacet
  facet normal 0.772954 0.634462 0
    outer loop
      vertex -3.16853 5.55556 3.35
      vertex -3.29291 5.70709 -3.35
      vertex -3.29291 5.70709 3.35
    endloop
  endfacet
  facet normal 0.772954 0.634462 0
    outer loop
      vertex -3.29291 5.70709 -3.35
      vertex -3.16853 5.55556 3.35
      vertex -3.16853 5.55556 -3.35
    endloop
  endfacet
  facet normal 0.881935 0.471372 0
    outer loop
      vertex -3.07613 5.38268 3.35
      vertex -3.16853 5.55556 -3.35
      vertex -3.16853 5.55556 3.35
    endloop
  endfacet
  facet normal 0.881935 0.471372 0
    outer loop
      vertex -3.16853 5.55556 -3.35
      vertex -3.07613 5.38268 3.35
      vertex -3.07613 5.38268 -3.35
    endloop
  endfacet
  facet normal 0.956951 0.290248 0
    outer loop
      vertex -3.01923 5.19508 3.35
      vertex -3.07613 5.38268 -3.35
      vertex -3.07613 5.38268 3.35
    endloop
  endfacet
  facet normal 0.956951 0.290248 0
    outer loop
      vertex -3.07613 5.38268 -3.35
      vertex -3.01923 5.19508 3.35
      vertex -3.01923 5.19508 -3.35
    endloop
  endfacet
  facet normal 0.995177 0.0980995 0
    outer loop
      vertex -3 5 3.35
      vertex -3.01923 5.19508 -3.35
      vertex -3.01923 5.19508 3.35
    endloop
  endfacet
  facet normal 0.995177 0.0980995 0
    outer loop
      vertex -3.01923 5.19508 -3.35
      vertex -3 5 3.35
      vertex -3 5 -3.35
    endloop
  endfacet
  facet normal 0.995178 -0.0980895 0
    outer loop
      vertex -3.01923 4.8049 3.35
      vertex -3 5 -3.35
      vertex -3 5 3.35
    endloop
  endfacet
  facet normal 0.995178 -0.0980895 0
    outer loop
      vertex -3 5 -3.35
      vertex -3.01923 4.8049 3.35
      vertex -3.01923 4.8049 -3.35
    endloop
  endfacet
  facet normal 0.956947 -0.290262 0
    outer loop
      vertex -3.07613 4.61731 3.35
      vertex -3.01923 4.8049 -3.35
      vertex -3.01923 4.8049 3.35
    endloop
  endfacet
  facet normal 0.956947 -0.290262 0
    outer loop
      vertex -3.01923 4.8049 -3.35
      vertex -3.07613 4.61731 3.35
      vertex -3.07613 4.61731 -3.35
    endloop
  endfacet
  facet normal 0.881935 -0.471372 0
    outer loop
      vertex -3.16853 4.44443 3.35
      vertex -3.07613 4.61731 -3.35
      vertex -3.07613 4.61731 3.35
    endloop
  endfacet
  facet normal 0.881935 -0.471372 0
    outer loop
      vertex -3.07613 4.61731 -3.35
      vertex -3.16853 4.44443 3.35
      vertex -3.16853 4.44443 -3.35
    endloop
  endfacet
  facet normal 0.772975 -0.634437 0
    outer loop
      vertex -3.29291 4.29289 3.35
      vertex -3.16853 4.44443 -3.35
      vertex -3.16853 4.44443 3.35
    endloop
  endfacet
  facet normal 0.772975 -0.634437 0
    outer loop
      vertex -3.16853 4.44443 -3.35
      vertex -3.29291 4.29289 3.35
      vertex -3.29291 4.29289 -3.35
    endloop
  endfacet
  facet normal 0.634432 -0.772979 0
    outer loop
      vertex -3.44444 4.16852 -3.35
      vertex -3.29291 4.29289 3.35
      vertex -3.44444 4.16852 3.35
    endloop
  endfacet
  facet normal 0.634432 -0.772979 0
    outer loop
      vertex -3.29291 4.29289 3.35
      vertex -3.44444 4.16852 -3.35
      vertex -3.29291 4.29289 -3.35
    endloop
  endfacet
  facet normal 0.471411 -0.881913 0
    outer loop
      vertex -3.61732 4.07611 -3.35
      vertex -3.44444 4.16852 3.35
      vertex -3.61732 4.07611 3.35
    endloop
  endfacet
  facet normal 0.471411 -0.881913 0
    outer loop
      vertex -3.44444 4.16852 3.35
      vertex -3.61732 4.07611 -3.35
      vertex -3.44444 4.16852 -3.35
    endloop
  endfacet
  facet normal 0.290248 -0.956951 0
    outer loop
      vertex -3.80492 4.01921 -3.35
      vertex -3.61732 4.07611 3.35
      vertex -3.80492 4.01921 3.35
    endloop
  endfacet
  facet normal 0.290248 -0.956951 0
    outer loop
      vertex -3.61732 4.07611 3.35
      vertex -3.80492 4.01921 -3.35
      vertex -3.61732 4.07611 -3.35
    endloop
  endfacet
  facet normal 0.0979984 -0.995187 0
    outer loop
      vertex -4 4 -3.35
      vertex -3.80492 4.01921 3.35
      vertex -4 4 3.35
    endloop
  endfacet
  facet normal 0.0979984 -0.995187 0
    outer loop
      vertex -3.80492 4.01921 3.35
      vertex -4 4 -3.35
      vertex -3.80492 4.01921 -3.35
    endloop
  endfacet
  facet normal 0 -1 0
    outer loop
      vertex -9 4 -3.35
      vertex -4 4 3.35
      vertex -9 4 3.35
    endloop
  endfacet
  facet normal 0 -1 -0
    outer loop
      vertex -4 4 3.35
      vertex -9 4 -3.35
      vertex -4 4 -3.35
    endloop
  endfacet
  facet normal 1 -0 0
    outer loop
      vertex -9 -12 3.35
      vertex -9 4 -3.35
      vertex -9 4 3.35
    endloop
  endfacet
  facet normal 1 0 0
    outer loop
      vertex -9 4 -3.35
      vertex -9 -12 3.35
      vertex -9 -12 -3.35
    endloop
  endfacet
  facet normal 0.911352 -0.411627 0
    outer loop
      vertex -9.53807 -13.1913 3.35
      vertex -9 -12 -3.35
      vertex -9 -12 3.35
    endloop
  endfacet
  facet normal 0.911352 -0.411627 0
    outer loop
      vertex -9 -12 -3.35
      vertex -9.53807 -13.1913 3.35
      vertex -9.53807 -13.1913 -3.35
    endloop
  endfacet
endsolid OpenSCAD_Model
