solid OpenSCAD_Model
  facet normal 0 -0 1
    outer loop
      vertex 0.332581 -11.8222 3.35
      vertex 0.369537 -11.7531 3.35
      vertex 0.282837 -11.8828 3.35
    endloop
  endfacet
  facet normal 0 -0 1
    outer loop
      vertex -0.153061 -11.9695 3.35
      vertex 0.153061 -11.9695 3.35
      vertex -0.282837 -11.8828 3.35
    endloop
  endfacet
  facet normal 0 0 1
    outer loop
      vertex 0.153061 -11.9695 3.35
      vertex 0.222214 -11.9326 3.35
      vertex 0.282837 -11.8828 3.35
    endloop
  endfacet
  facet normal 0 0 1
    outer loop
      vertex 5.66516 0.444443 3.35
      vertex 5.44444 -0.665176 3.35
      vertex 5.66516 -0.444458 3.35
    endloop
  endfacet
  facet normal 0 -0 1
    outer loop
      vertex 0 -12 3.35
      vertex 0.0780334 -11.9923 3.35
      vertex -0.0780334 -11.9923 3.35
    endloop
  endfacet
  facet normal 0 -0 1
    outer loop
      vertex -0.0780334 -11.9923 3.35
      vertex 0.0780334 -11.9923 3.35
      vertex -0.153061 -11.9695 3.35
    endloop
  endfacet
  facet normal -0 0 1
    outer loop
      vertex -0.153061 -11.9695 3.35
      vertex 0.0780334 -11.9923 3.35
      vertex 0.153061 -11.9695 3.35
    endloop
  endfacet
  facet normal -0 0 1
    outer loop
      vertex -0.282837 -11.8828 3.35
      vertex 0.153061 -11.9695 3.35
      vertex 0.282837 -11.8828 3.35
    endloop
  endfacet
  facet normal 0 0 1
    outer loop
      vertex -0.282837 -11.8828 3.35
      vertex -0.222214 -11.9326 3.35
      vertex -0.153061 -11.9695 3.35
    endloop
  endfacet
  facet normal 0 0 1
    outer loop
      vertex -0.369537 -11.7531 3.35
      vertex -0.282837 -11.8828 3.35
      vertex 0.282837 -11.8828 3.35
    endloop
  endfacet
  facet normal 0 0 1
    outer loop
      vertex -0.369537 -11.7531 3.35
      vertex -0.332581 -11.8222 3.35
      vertex -0.282837 -11.8828 3.35
    endloop
  endfacet
  facet normal 0 0 1
    outer loop
      vertex 0.369537 -11.7531 3.35
      vertex -0.369537 -11.7531 3.35
      vertex 0.282837 -11.8828 3.35
    endloop
  endfacet
  facet normal 0 0 1
    outer loop
      vertex 0.369537 -11.7531 3.35
      vertex -0.799988 -10.8 3.35
      vertex -0.369537 -11.7531 3.35
    endloop
  endfacet
  facet normal 0 -0 1
    outer loop
      vertex 0.369537 -11.7531 3.35
      vertex 0.799988 -10.8 3.35
      vertex -0.799988 -10.8 3.35
    endloop
  endfacet
  facet normal 0 0 1
    outer loop
      vertex -0.799988 -10.8 3.35
      vertex 0.799988 -0.800003 3.35
      vertex -0.799988 -0.800003 3.35
    endloop
  endfacet
  facet normal 0 0 1
    outer loop
      vertex 5.56567 0.565674 3.35
      vertex 5.44444 0.665161 3.35
      vertex 5.66516 0.444443 3.35
    endloop
  endfacet
  facet normal 0 0 1
    outer loop
      vertex -5 -0.800003 3.35
      vertex -5.30614 -0.739105 3.35
      vertex -5.15607 -0.784637 3.35
    endloop
  endfacet
  facet normal 0 0 1
    outer loop
      vertex -5 -0.800003 3.35
      vertex -5.44444 -0.665176 3.35
      vertex -5.30614 -0.739105 3.35
    endloop
  endfacet
  facet normal 0 0 1
    outer loop
      vertex -5.66516 -0.444458 3.35
      vertex -5.56567 -0.565689 3.35
      vertex -5.44444 -0.665176 3.35
    endloop
  endfacet
  facet normal 0 0 1
    outer loop
      vertex -5.79999 0 3.35
      vertex -5.66516 0.444443 3.35
      vertex -5.73909 0.306137 3.35
    endloop
  endfacet
  facet normal 0 0 1
    outer loop
      vertex -5.79999 0 3.35
      vertex -5.73909 -0.306152 3.35
      vertex -5.66516 -0.444458 3.35
    endloop
  endfacet
  facet normal 0 0 1
    outer loop
      vertex -5.79999 0 3.35
      vertex -5.78462 -0.156082 3.35
      vertex -5.73909 -0.306152 3.35
    endloop
  endfacet
  facet normal -0 0 1
    outer loop
      vertex -5.79999 0 3.35
      vertex -5.66516 -0.444458 3.35
      vertex -5.66516 0.444443 3.35
    endloop
  endfacet
  facet normal 0 0 1
    outer loop
      vertex -5.73909 0.306137 3.35
      vertex -5.78462 0.156067 3.35
      vertex -5.79999 0 3.35
    endloop
  endfacet
  facet normal -0 0 1
    outer loop
      vertex -5.66516 0.444443 3.35
      vertex -5.66516 -0.444458 3.35
      vertex -5.44444 0.665161 3.35
    endloop
  endfacet
  facet normal 0 0 1
    outer loop
      vertex -5.44444 0.665161 3.35
      vertex -5.66516 -0.444458 3.35
      vertex -5.44444 -0.665176 3.35
    endloop
  endfacet
  facet normal 0 0 1
    outer loop
      vertex -5.44444 0.665161 3.35
      vertex -5.56567 0.565674 3.35
      vertex -5.66516 0.444443 3.35
    endloop
  endfacet
  facet normal 0 0 1
    outer loop
      vertex -5 0.799988 3.35
      vertex -5.44444 0.665161 3.35
      vertex -5.44444 -0.665176 3.35
    endloop
  endfacet
  facet normal 0 0 1
    outer loop
      vertex -5 0.799988 3.35
      vertex -5.30614 0.73909 3.35
      vertex -5.44444 0.665161 3.35
    endloop
  endfacet
  facet normal 0 0 1
    outer loop
      vertex -5 0.799988 3.35
      vertex -5.15607 0.784622 3.35
      vertex -5.30614 0.73909 3.35
    endloop
  endfacet
  facet normal 0 -0 1
    outer loop
      vertex -5 -0.800003 3.35
      vertex -5 0.799988 3.35
      vertex -5.44444 -0.665176 3.35
    endloop
  endfacet
  facet normal 0 0 1
    outer loop
      vertex -5 -0.800003 3.35
      vertex -0.799988 -0.800003 3.35
      vertex -5 0.799988 3.35
    endloop
  endfacet
  facet normal -0 0 1
    outer loop
      vertex -5 0.799988 3.35
      vertex 0.799988 -0.800003 3.35
      vertex 5 0.799988 3.35
    endloop
  endfacet
  facet normal 0 0 1
    outer loop
      vertex 5 0.799988 3.35
      vertex 5.30614 0.73909 3.35
      vertex 5.15607 0.784622 3.35
    endloop
  endfacet
  facet normal 0 0 1
    outer loop
      vertex 5 0.799988 3.35
      vertex 5.44444 0.665161 3.35
      vertex 5.30614 0.73909 3.35
    endloop
  endfacet
  facet normal 0 0 1
    outer loop
      vertex 5.66516 0.444443 3.35
      vertex 5.66516 -0.444458 3.35
      vertex 5.79999 0 3.35
    endloop
  endfacet
  facet normal 0 0 1
    outer loop
      vertex 5.73909 0.306137 3.35
      vertex 5.66516 0.444443 3.35
      vertex 5.79999 0 3.35
    endloop
  endfacet
  facet normal 0 0 1
    outer loop
      vertex 5.78462 0.156067 3.35
      vertex 5.73909 0.306137 3.35
      vertex 5.79999 0 3.35
    endloop
  endfacet
  facet normal 0 0 1
    outer loop
      vertex 5.79999 0 3.35
      vertex 5.66516 -0.444458 3.35
      vertex 5.73909 -0.306152 3.35
    endloop
  endfacet
  facet normal 0 -0 1
    outer loop
      vertex 5.78462 -0.156082 3.35
      vertex 5.79999 0 3.35
      vertex 5.73909 -0.306152 3.35
    endloop
  endfacet
  facet normal 0 0 1
    outer loop
      vertex 5.44444 0.665161 3.35
      vertex 5.44444 -0.665176 3.35
      vertex 5.66516 0.444443 3.35
    endloop
  endfacet
  facet normal 0 0 1
    outer loop
      vertex 5.66516 -0.444458 3.35
      vertex 5.44444 -0.665176 3.35
      vertex 5.56567 -0.565689 3.35
    endloop
  endfacet
  facet normal 0 0 1
    outer loop
      vertex 5.44444 0.665161 3.35
      vertex 5 -0.800003 3.35
      vertex 5.44444 -0.665176 3.35
    endloop
  endfacet
  facet normal 0 0 1
    outer loop
      vertex 5.44444 -0.665176 3.35
      vertex 5 -0.800003 3.35
      vertex 5.30614 -0.739105 3.35
    endloop
  endfacet
  facet normal 0 0 1
    outer loop
      vertex 5.30614 -0.739105 3.35
      vertex 5 -0.800003 3.35
      vertex 5.15607 -0.784637 3.35
    endloop
  endfacet
  facet normal 0 0 1
    outer loop
      vertex 5.44444 0.665161 3.35
      vertex 5 0.799988 3.35
      vertex 5 -0.800003 3.35
    endloop
  endfacet
  facet normal 0 -0 1
    outer loop
      vertex 0.799988 -10.8 3.35
      vertex 0.799988 -0.800003 3.35
      vertex -0.799988 -10.8 3.35
    endloop
  endfacet
  facet normal 0 -0 1
    outer loop
      vertex 5 -0.800003 3.35
      vertex 5 0.799988 3.35
      vertex 0.799988 -0.800003 3.35
    endloop
  endfacet
  facet normal 0 0 1
    outer loop
      vertex 0.799988 -0.800003 3.35
      vertex -5 0.799988 3.35
      vertex -0.799988 -0.800003 3.35
    endloop
  endfacet
  facet normal 0 0 -1
    outer loop
      vertex 0.282837 -11.8828 -3.35
      vertex 0.369537 -11.7531 -3.35
      vertex 0.332581 -11.8222 -3.35
    endloop
  endfacet
  facet normal 0 0 -1
    outer loop
      vertex -0.282837 -11.8828 -3.35
      vertex 0.153061 -11.9695 -3.35
      vertex -0.153061 -11.9695 -3.35
    endloop
  endfacet
  facet normal 0 0 -1
    outer loop
      vertex 0.282837 -11.8828 -3.35
      vertex 0.222214 -11.9326 -3.35
      vertex 0.153061 -11.9695 -3.35
    endloop
  endfacet
  facet normal -0 0 -1
    outer loop
      vertex 5.66516 -0.444458 -3.35
      vertex 5.44444 -0.665176 -3.35
      vertex 5.66516 0.444443 -3.35
    endloop
  endfacet
  facet normal 0 0 -1
    outer loop
      vertex -0.0780334 -11.9923 -3.35
      vertex 0.0780334 -11.9923 -3.35
      vertex 0 -12 -3.35
    endloop
  endfacet
  facet normal 0 0 -1
    outer loop
      vertex -0.153061 -11.9695 -3.35
      vertex 0.0780334 -11.9923 -3.35
      vertex -0.0780334 -11.9923 -3.35
    endloop
  endfacet
  facet normal -0 0 -1
    outer loop
      vertex 0.153061 -11.9695 -3.35
      vertex 0.0780334 -11.9923 -3.35
      vertex -0.153061 -11.9695 -3.35
    endloop
  endfacet
  facet normal -0 0 -1
    outer loop
      vertex 0.282837 -11.8828 -3.35
      vertex 0.153061 -11.9695 -3.35
      vertex -0.282837 -11.8828 -3.35
    endloop
  endfacet
  facet normal 0 0 -1
    outer loop
      vertex -0.153061 -11.9695 -3.35
      vertex -0.222214 -11.9326 -3.35
      vertex -0.282837 -11.8828 -3.35
    endloop
  endfacet
  facet normal 0 0 -1
    outer loop
      vertex 0.282837 -11.8828 -3.35
      vertex -0.282837 -11.8828 -3.35
      vertex -0.369537 -11.7531 -3.35
    endloop
  endfacet
  facet normal 0 0 -1
    outer loop
      vertex -0.282837 -11.8828 -3.35
      vertex -0.332581 -11.8222 -3.35
      vertex -0.369537 -11.7531 -3.35
    endloop
  endfacet
  facet normal 0 0 -1
    outer loop
      vertex 0.282837 -11.8828 -3.35
      vertex -0.369537 -11.7531 -3.35
      vertex 0.369537 -11.7531 -3.35
    endloop
  endfacet
  facet normal 0 0 -1
    outer loop
      vertex -0.369537 -11.7531 -3.35
      vertex -0.799988 -10.8 -3.35
      vertex 0.369537 -11.7531 -3.35
    endloop
  endfacet
  facet normal 0 0 -1
    outer loop
      vertex -0.799988 -10.8 -3.35
      vertex 0.799988 -10.8 -3.35
      vertex 0.369537 -11.7531 -3.35
    endloop
  endfacet
  facet normal 0 0 -1
    outer loop
      vertex -0.799988 -0.800003 -3.35
      vertex 0.799988 -0.800003 -3.35
      vertex -0.799988 -10.8 -3.35
    endloop
  endfacet
  facet normal 0 0 -1
    outer loop
      vertex 5.66516 0.444443 -3.35
      vertex 5.44444 0.665161 -3.35
      vertex 5.56567 0.565674 -3.35
    endloop
  endfacet
  facet normal 0 0 -1
    outer loop
      vertex -5.15607 -0.784637 -3.35
      vertex -5.30614 -0.739105 -3.35
      vertex -5 -0.800003 -3.35
    endloop
  endfacet
  facet normal 0 0 -1
    outer loop
      vertex -5.30614 -0.739105 -3.35
      vertex -5.44444 -0.665176 -3.35
      vertex -5 -0.800003 -3.35
    endloop
  endfacet
  facet normal 0 0 -1
    outer loop
      vertex -5.44444 -0.665176 -3.35
      vertex -5.56567 -0.565689 -3.35
      vertex -5.66516 -0.444458 -3.35
    endloop
  endfacet
  facet normal 0 -0 -1
    outer loop
      vertex -5.73909 0.306137 -3.35
      vertex -5.66516 0.444443 -3.35
      vertex -5.79999 0 -3.35
    endloop
  endfacet
  facet normal 0 0 -1
    outer loop
      vertex -5.66516 -0.444458 -3.35
      vertex -5.73909 -0.306152 -3.35
      vertex -5.79999 0 -3.35
    endloop
  endfacet
  facet normal 0 0 -1
    outer loop
      vertex -5.73909 -0.306152 -3.35
      vertex -5.78462 -0.156082 -3.35
      vertex -5.79999 0 -3.35
    endloop
  endfacet
  facet normal 0 -0 -1
    outer loop
      vertex -5.66516 0.444443 -3.35
      vertex -5.66516 -0.444458 -3.35
      vertex -5.79999 0 -3.35
    endloop
  endfacet
  facet normal 0 0 -1
    outer loop
      vertex -5.79999 0 -3.35
      vertex -5.78462 0.156067 -3.35
      vertex -5.73909 0.306137 -3.35
    endloop
  endfacet
  facet normal 0 0 -1
    outer loop
      vertex -5.44444 0.665161 -3.35
      vertex -5.66516 -0.444458 -3.35
      vertex -5.66516 0.444443 -3.35
    endloop
  endfacet
  facet normal 0 0 -1
    outer loop
      vertex -5.44444 -0.665176 -3.35
      vertex -5.66516 -0.444458 -3.35
      vertex -5.44444 0.665161 -3.35
    endloop
  endfacet
  facet normal 0 0 -1
    outer loop
      vertex -5.66516 0.444443 -3.35
      vertex -5.56567 0.565674 -3.35
      vertex -5.44444 0.665161 -3.35
    endloop
  endfacet
  facet normal 0 0 -1
    outer loop
      vertex -5.44444 -0.665176 -3.35
      vertex -5.44444 0.665161 -3.35
      vertex -5 0.799988 -3.35
    endloop
  endfacet
  facet normal 0 0 -1
    outer loop
      vertex -5.44444 0.665161 -3.35
      vertex -5.30614 0.73909 -3.35
      vertex -5 0.799988 -3.35
    endloop
  endfacet
  facet normal 0 0 -1
    outer loop
      vertex -5.30614 0.73909 -3.35
      vertex -5.15607 0.784622 -3.35
      vertex -5 0.799988 -3.35
    endloop
  endfacet
  facet normal 0 0 -1
    outer loop
      vertex -5.44444 -0.665176 -3.35
      vertex -5 0.799988 -3.35
      vertex -5 -0.800003 -3.35
    endloop
  endfacet
  facet normal 0 0 -1
    outer loop
      vertex -5 0.799988 -3.35
      vertex -0.799988 -0.800003 -3.35
      vertex -5 -0.800003 -3.35
    endloop
  endfacet
  facet normal -0 0 -1
    outer loop
      vertex 5 0.799988 -3.35
      vertex 0.799988 -0.800003 -3.35
      vertex -5 0.799988 -3.35
    endloop
  endfacet
  facet normal -0 -0 -1
    outer loop
      vertex 5.15607 0.784622 -3.35
      vertex 5.30614 0.73909 -3.35
      vertex 5 0.799988 -3.35
    endloop
  endfacet
  facet normal -0 -0 -1
    outer loop
      vertex 5.30614 0.73909 -3.35
      vertex 5.44444 0.665161 -3.35
      vertex 5 0.799988 -3.35
    endloop
  endfacet
  facet normal -0 0 -1
    outer loop
      vertex 5.79999 0 -3.35
      vertex 5.66516 -0.444458 -3.35
      vertex 5.66516 0.444443 -3.35
    endloop
  endfacet
  facet normal 0 0 -1
    outer loop
      vertex 5.79999 0 -3.35
      vertex 5.66516 0.444443 -3.35
      vertex 5.73909 0.306137 -3.35
    endloop
  endfacet
  facet normal 0 0 -1
    outer loop
      vertex 5.79999 0 -3.35
      vertex 5.73909 0.306137 -3.35
      vertex 5.78462 0.156067 -3.35
    endloop
  endfacet
  facet normal -0 0 -1
    outer loop
      vertex 5.73909 -0.306152 -3.35
      vertex 5.66516 -0.444458 -3.35
      vertex 5.79999 0 -3.35
    endloop
  endfacet
  facet normal 0 0 -1
    outer loop
      vertex 5.73909 -0.306152 -3.35
      vertex 5.79999 0 -3.35
      vertex 5.78462 -0.156082 -3.35
    endloop
  endfacet
  facet normal -0 0 -1
    outer loop
      vertex 5.66516 0.444443 -3.35
      vertex 5.44444 -0.665176 -3.35
      vertex 5.44444 0.665161 -3.35
    endloop
  endfacet
  facet normal -0 0 -1
    outer loop
      vertex 5.56567 -0.565689 -3.35
      vertex 5.44444 -0.665176 -3.35
      vertex 5.66516 -0.444458 -3.35
    endloop
  endfacet
  facet normal -0 0 -1
    outer loop
      vertex 5.44444 -0.665176 -3.35
      vertex 5 -0.800003 -3.35
      vertex 5.44444 0.665161 -3.35
    endloop
  endfacet
  facet normal -0 0 -1
    outer loop
      vertex 5.30614 -0.739105 -3.35
      vertex 5 -0.800003 -3.35
      vertex 5.44444 -0.665176 -3.35
    endloop
  endfacet
  facet normal -0 0 -1
    outer loop
      vertex 5.15607 -0.784637 -3.35
      vertex 5 -0.800003 -3.35
      vertex 5.30614 -0.739105 -3.35
    endloop
  endfacet
  facet normal 0 0 -1
    outer loop
      vertex 5 -0.800003 -3.35
      vertex 5 0.799988 -3.35
      vertex 5.44444 0.665161 -3.35
    endloop
  endfacet
  facet normal 0 0 -1
    outer loop
      vertex -0.799988 -10.8 -3.35
      vertex 0.799988 -0.800003 -3.35
      vertex 0.799988 -10.8 -3.35
    endloop
  endfacet
  facet normal 0 0 -1
    outer loop
      vertex 0.799988 -0.800003 -3.35
      vertex 5 0.799988 -3.35
      vertex 5 -0.800003 -3.35
    endloop
  endfacet
  facet normal 0 0 -1
    outer loop
      vertex -0.799988 -0.800003 -3.35
      vertex -5 0.799988 -3.35
      vertex 0.799988 -0.800003 -3.35
    endloop
  endfacet
  facet normal 0.881808 -0.471608 0
    outer loop
      vertex 0.332581 -11.8222 3.35
      vertex 0.369537 -11.7531 -3.35
      vertex 0.369537 -11.7531 3.35
    endloop
  endfacet
  facet normal 0.881808 -0.471608 0
    outer loop
      vertex 0.332581 -11.8222 3.35
      vertex 0.332581 -11.8222 -3.35
      vertex 0.369537 -11.7531 -3.35
    endloop
  endfacet
  facet normal 0.772942 -0.634476 0
    outer loop
      vertex 0.282837 -11.8828 3.35
      vertex 0.332581 -11.8222 -3.35
      vertex 0.332581 -11.8222 3.35
    endloop
  endfacet
  facet normal 0.772942 -0.634476 0
    outer loop
      vertex 0.282837 -11.8828 3.35
      vertex 0.282837 -11.8828 -3.35
      vertex 0.332581 -11.8222 -3.35
    endloop
  endfacet
  facet normal 0.634759 -0.77271 0
    outer loop
      vertex 0.222214 -11.9326 3.35
      vertex 0.282837 -11.8828 -3.35
      vertex 0.282837 -11.8828 3.35
    endloop
  endfacet
  facet normal 0.634759 -0.77271 0
    outer loop
      vertex 0.222214 -11.9326 3.35
      vertex 0.222214 -11.9326 -3.35
      vertex 0.282837 -11.8828 -3.35
    endloop
  endfacet
  facet normal 0.470771 -0.882255 0
    outer loop
      vertex 0.153061 -11.9695 3.35
      vertex 0.222214 -11.9326 -3.35
      vertex 0.222214 -11.9326 3.35
    endloop
  endfacet
  facet normal 0.470771 -0.882255 0
    outer loop
      vertex 0.153061 -11.9695 3.35
      vertex 0.153061 -11.9695 -3.35
      vertex 0.222214 -11.9326 -3.35
    endloop
  endfacet
  facet normal 0.290759 -0.956796 0
    outer loop
      vertex 0.0780334 -11.9923 3.35
      vertex 0.153061 -11.9695 -3.35
      vertex 0.153061 -11.9695 3.35
    endloop
  endfacet
  facet normal 0.290759 -0.956796 0
    outer loop
      vertex 0.0780334 -11.9923 3.35
      vertex 0.0780334 -11.9923 -3.35
      vertex 0.153061 -11.9695 -3.35
    endloop
  endfacet
  facet normal 0.0981988 -0.995167 0
    outer loop
      vertex 0 -12 3.35
      vertex 0.0780334 -11.9923 -3.35
      vertex 0.0780334 -11.9923 3.35
    endloop
  endfacet
  facet normal 0.0981988 -0.995167 0
    outer loop
      vertex 0 -12 3.35
      vertex 0 -12 -3.35
      vertex 0.0780334 -11.9923 -3.35
    endloop
  endfacet
  facet normal -0.0981988 -0.995167 0
    outer loop
      vertex -0.0780334 -11.9923 3.35
      vertex 0 -12 -3.35
      vertex 0 -12 3.35
    endloop
  endfacet
  facet normal -0.0981988 -0.995167 -0
    outer loop
      vertex -0.0780334 -11.9923 3.35
      vertex -0.0780334 -11.9923 -3.35
      vertex 0 -12 -3.35
    endloop
  endfacet
  facet normal -0.290759 -0.956796 0
    outer loop
      vertex -0.153061 -11.9695 3.35
      vertex -0.0780334 -11.9923 -3.35
      vertex -0.0780334 -11.9923 3.35
    endloop
  endfacet
  facet normal -0.290759 -0.956796 -0
    outer loop
      vertex -0.153061 -11.9695 3.35
      vertex -0.153061 -11.9695 -3.35
      vertex -0.0780334 -11.9923 -3.35
    endloop
  endfacet
  facet normal -0.470771 -0.882255 0
    outer loop
      vertex -0.222214 -11.9326 3.35
      vertex -0.153061 -11.9695 -3.35
      vertex -0.153061 -11.9695 3.35
    endloop
  endfacet
  facet normal -0.470771 -0.882255 -0
    outer loop
      vertex -0.222214 -11.9326 3.35
      vertex -0.222214 -11.9326 -3.35
      vertex -0.153061 -11.9695 -3.35
    endloop
  endfacet
  facet normal -0.634759 -0.77271 0
    outer loop
      vertex -0.282837 -11.8828 3.35
      vertex -0.222214 -11.9326 -3.35
      vertex -0.222214 -11.9326 3.35
    endloop
  endfacet
  facet normal -0.634759 -0.77271 -0
    outer loop
      vertex -0.282837 -11.8828 3.35
      vertex -0.282837 -11.8828 -3.35
      vertex -0.222214 -11.9326 -3.35
    endloop
  endfacet
  facet normal -0.772942 -0.634476 0
    outer loop
      vertex -0.332581 -11.8222 3.35
      vertex -0.282837 -11.8828 -3.35
      vertex -0.282837 -11.8828 3.35
    endloop
  endfacet
  facet normal -0.772942 -0.634476 -0
    outer loop
      vertex -0.332581 -11.8222 3.35
      vertex -0.332581 -11.8222 -3.35
      vertex -0.282837 -11.8828 -3.35
    endloop
  endfacet
  facet normal -0.881808 -0.471608 0
    outer loop
      vertex -0.369537 -11.7531 3.35
      vertex -0.332581 -11.8222 -3.35
      vertex -0.332581 -11.8222 3.35
    endloop
  endfacet
  facet normal -0.881808 -0.471608 -0
    outer loop
      vertex -0.369537 -11.7531 3.35
      vertex -0.369537 -11.7531 -3.35
      vertex -0.332581 -11.8222 -3.35
    endloop
  endfacet
  facet normal -0.911364 -0.411602 0
    outer loop
      vertex -0.799988 -10.8 3.35
      vertex -0.369537 -11.7531 -3.35
      vertex -0.369537 -11.7531 3.35
    endloop
  endfacet
  facet normal -0.911364 -0.411602 -0
    outer loop
      vertex -0.799988 -10.8 3.35
      vertex -0.799988 -10.8 -3.35
      vertex -0.369537 -11.7531 -3.35
    endloop
  endfacet
  facet normal -1 -0 0
    outer loop
      vertex -0.799988 -0.800003 3.35
      vertex -0.799988 -10.8 -3.35
      vertex -0.799988 -10.8 3.35
    endloop
  endfacet
  facet normal -1 0 -0
    outer loop
      vertex -0.799988 -0.800003 3.35
      vertex -0.799988 -0.800003 -3.35
      vertex -0.799988 -10.8 -3.35
    endloop
  endfacet
  facet normal 0 -1 0
    outer loop
      vertex -5 -0.800003 3.35
      vertex -0.799988 -0.800003 -3.35
      vertex -0.799988 -0.800003 3.35
    endloop
  endfacet
  facet normal 0 -1 0
    outer loop
      vertex -5 -0.800003 3.35
      vertex -5 -0.800003 -3.35
      vertex -0.799988 -0.800003 -3.35
    endloop
  endfacet
  facet normal -0.0979821 -0.995188 0
    outer loop
      vertex -5.15607 -0.784637 3.35
      vertex -5 -0.800003 -3.35
      vertex -5 -0.800003 3.35
    endloop
  endfacet
  facet normal -0.0979821 -0.995188 -0
    outer loop
      vertex -5.15607 -0.784637 3.35
      vertex -5.15607 -0.784637 -3.35
      vertex -5 -0.800003 -3.35
    endloop
  endfacet
  facet normal -0.290336 -0.956925 0
    outer loop
      vertex -5.30614 -0.739105 3.35
      vertex -5.15607 -0.784637 -3.35
      vertex -5.15607 -0.784637 3.35
    endloop
  endfacet
  facet normal -0.290336 -0.956925 -0
    outer loop
      vertex -5.30614 -0.739105 3.35
      vertex -5.30614 -0.739105 -3.35
      vertex -5.15607 -0.784637 -3.35
    endloop
  endfacet
  facet normal -0.471427 -0.881905 0
    outer loop
      vertex -5.44444 -0.665176 3.35
      vertex -5.30614 -0.739105 -3.35
      vertex -5.30614 -0.739105 3.35
    endloop
  endfacet
  facet normal -0.471427 -0.881905 -0
    outer loop
      vertex -5.44444 -0.665176 3.35
      vertex -5.44444 -0.665176 -3.35
      vertex -5.30614 -0.739105 -3.35
    endloop
  endfacet
  facet normal -0.634378 -0.773023 0
    outer loop
      vertex -5.56567 -0.565689 3.35
      vertex -5.44444 -0.665176 -3.35
      vertex -5.44444 -0.665176 3.35
    endloop
  endfacet
  facet normal -0.634378 -0.773023 -0
    outer loop
      vertex -5.56567 -0.565689 3.35
      vertex -5.56567 -0.565689 -3.35
      vertex -5.44444 -0.665176 -3.35
    endloop
  endfacet
  facet normal -0.773016 -0.634387 0
    outer loop
      vertex -5.66516 -0.444458 3.35
      vertex -5.56567 -0.565689 -3.35
      vertex -5.56567 -0.565689 3.35
    endloop
  endfacet
  facet normal -0.773016 -0.634387 -0
    outer loop
      vertex -5.66516 -0.444458 3.35
      vertex -5.66516 -0.444458 -3.35
      vertex -5.56567 -0.565689 -3.35
    endloop
  endfacet
  facet normal -0.881911 -0.471416 0
    outer loop
      vertex -5.73909 -0.306152 3.35
      vertex -5.66516 -0.444458 -3.35
      vertex -5.66516 -0.444458 3.35
    endloop
  endfacet
  facet normal -0.881911 -0.471416 -0
    outer loop
      vertex -5.73909 -0.306152 3.35
      vertex -5.73909 -0.306152 -3.35
      vertex -5.66516 -0.444458 -3.35
    endloop
  endfacet
  facet normal -0.956928 -0.290324 0
    outer loop
      vertex -5.78462 -0.156082 3.35
      vertex -5.73909 -0.306152 -3.35
      vertex -5.73909 -0.306152 3.35
    endloop
  endfacet
  facet normal -0.956928 -0.290324 -0
    outer loop
      vertex -5.78462 -0.156082 3.35
      vertex -5.78462 -0.156082 -3.35
      vertex -5.73909 -0.306152 -3.35
    endloop
  endfacet
  facet normal -0.995186 -0.0979999 0
    outer loop
      vertex -5.79999 0 3.35
      vertex -5.78462 -0.156082 -3.35
      vertex -5.78462 -0.156082 3.35
    endloop
  endfacet
  facet normal -0.995186 -0.0979999 -0
    outer loop
      vertex -5.79999 0 3.35
      vertex -5.79999 0 -3.35
      vertex -5.78462 -0.156082 -3.35
    endloop
  endfacet
  facet normal -0.995186 0.0980092 0
    outer loop
      vertex -5.78462 0.156067 3.35
      vertex -5.79999 0 -3.35
      vertex -5.79999 0 3.35
    endloop
  endfacet
  facet normal -0.995186 0.0980092 0
    outer loop
      vertex -5.78462 0.156067 3.35
      vertex -5.78462 0.156067 -3.35
      vertex -5.79999 0 -3.35
    endloop
  endfacet
  facet normal -0.956928 0.290324 0
    outer loop
      vertex -5.73909 0.306137 3.35
      vertex -5.78462 0.156067 -3.35
      vertex -5.78462 0.156067 3.35
    endloop
  endfacet
  facet normal -0.956928 0.290324 0
    outer loop
      vertex -5.73909 0.306137 3.35
      vertex -5.73909 0.306137 -3.35
      vertex -5.78462 0.156067 -3.35
    endloop
  endfacet
  facet normal -0.881911 0.471416 0
    outer loop
      vertex -5.66516 0.444443 3.35
      vertex -5.73909 0.306137 -3.35
      vertex -5.73909 0.306137 3.35
    endloop
  endfacet
  facet normal -0.881911 0.471416 0
    outer loop
      vertex -5.66516 0.444443 3.35
      vertex -5.66516 0.444443 -3.35
      vertex -5.73909 0.306137 -3.35
    endloop
  endfacet
  facet normal -0.773016 0.634387 0
    outer loop
      vertex -5.56567 0.565674 3.35
      vertex -5.66516 0.444443 -3.35
      vertex -5.66516 0.444443 3.35
    endloop
  endfacet
  facet normal -0.773016 0.634387 0
    outer loop
      vertex -5.56567 0.565674 3.35
      vertex -5.56567 0.565674 -3.35
      vertex -5.66516 0.444443 -3.35
    endloop
  endfacet
  facet normal -0.634378 0.773023 0
    outer loop
      vertex -5.44444 0.665161 3.35
      vertex -5.56567 0.565674 -3.35
      vertex -5.56567 0.565674 3.35
    endloop
  endfacet
  facet normal -0.634378 0.773023 0
    outer loop
      vertex -5.44444 0.665161 3.35
      vertex -5.44444 0.665161 -3.35
      vertex -5.56567 0.565674 -3.35
    endloop
  endfacet
  facet normal -0.471427 0.881905 0
    outer loop
      vertex -5.30614 0.73909 3.35
      vertex -5.44444 0.665161 -3.35
      vertex -5.44444 0.665161 3.35
    endloop
  endfacet
  facet normal -0.471427 0.881905 0
    outer loop
      vertex -5.30614 0.73909 3.35
      vertex -5.30614 0.73909 -3.35
      vertex -5.44444 0.665161 -3.35
    endloop
  endfacet
  facet normal -0.290336 0.956925 0
    outer loop
      vertex -5.15607 0.784622 3.35
      vertex -5.30614 0.73909 -3.35
      vertex -5.30614 0.73909 3.35
    endloop
  endfacet
  facet normal -0.290336 0.956925 0
    outer loop
      vertex -5.15607 0.784622 3.35
      vertex -5.15607 0.784622 -3.35
      vertex -5.30614 0.73909 -3.35
    endloop
  endfacet
  facet normal -0.0979821 0.995188 0
    outer loop
      vertex -5 0.799988 3.35
      vertex -5.15607 0.784622 -3.35
      vertex -5.15607 0.784622 3.35
    endloop
  endfacet
  facet normal -0.0979821 0.995188 0
    outer loop
      vertex -5 0.799988 3.35
      vertex -5 0.799988 -3.35
      vertex -5.15607 0.784622 -3.35
    endloop
  endfacet
  facet normal 0 1 0
    outer loop
      vertex 5 0.799988 3.35
      vertex -5 0.799988 -3.35
      vertex -5 0.799988 3.35
    endloop
  endfacet
  facet normal 0 1 0
    outer loop
      vertex 5 0.799988 3.35
      vertex 5 0.799988 -3.35
      vertex -5 0.799988 -3.35
    endloop
  endfacet
  facet normal 0.0979821 0.995188 0
    outer loop
      vertex 5.15607 0.784622 3.35
      vertex 5 0.799988 -3.35
      vertex 5 0.799988 3.35
    endloop
  endfacet
  facet normal 0.0979821 0.995188 0
    outer loop
      vertex 5.15607 0.784622 3.35
      vertex 5.15607 0.784622 -3.35
      vertex 5 0.799988 -3.35
    endloop
  endfacet
  facet normal 0.290336 0.956925 0
    outer loop
      vertex 5.30614 0.73909 3.35
      vertex 5.15607 0.784622 -3.35
      vertex 5.15607 0.784622 3.35
    endloop
  endfacet
  facet normal 0.290336 0.956925 0
    outer loop
      vertex 5.30614 0.73909 3.35
      vertex 5.30614 0.73909 -3.35
      vertex 5.15607 0.784622 -3.35
    endloop
  endfacet
  facet normal 0.471427 0.881905 0
    outer loop
      vertex 5.44444 0.665161 3.35
      vertex 5.30614 0.73909 -3.35
      vertex 5.30614 0.73909 3.35
    endloop
  endfacet
  facet normal 0.471427 0.881905 0
    outer loop
      vertex 5.44444 0.665161 3.35
      vertex 5.44444 0.665161 -3.35
      vertex 5.30614 0.73909 -3.35
    endloop
  endfacet
  facet normal 0.634378 0.773023 0
    outer loop
      vertex 5.56567 0.565674 3.35
      vertex 5.44444 0.665161 -3.35
      vertex 5.44444 0.665161 3.35
    endloop
  endfacet
  facet normal 0.634378 0.773023 0
    outer loop
      vertex 5.56567 0.565674 3.35
      vertex 5.56567 0.565674 -3.35
      vertex 5.44444 0.665161 -3.35
    endloop
  endfacet
  facet normal 0.773016 0.634387 0
    outer loop
      vertex 5.66516 0.444443 3.35
      vertex 5.56567 0.565674 -3.35
      vertex 5.56567 0.565674 3.35
    endloop
  endfacet
  facet normal 0.773016 0.634387 0
    outer loop
      vertex 5.66516 0.444443 3.35
      vertex 5.66516 0.444443 -3.35
      vertex 5.56567 0.565674 -3.35
    endloop
  endfacet
  facet normal 0.881911 0.471416 0
    outer loop
      vertex 5.73909 0.306137 3.35
      vertex 5.66516 0.444443 -3.35
      vertex 5.66516 0.444443 3.35
    endloop
  endfacet
  facet normal 0.881911 0.471416 0
    outer loop
      vertex 5.73909 0.306137 3.35
      vertex 5.73909 0.306137 -3.35
      vertex 5.66516 0.444443 -3.35
    endloop
  endfacet
  facet normal 0.956928 0.290324 0
    outer loop
      vertex 5.78462 0.156067 3.35
      vertex 5.73909 0.306137 -3.35
      vertex 5.73909 0.306137 3.35
    endloop
  endfacet
  facet normal 0.956928 0.290324 0
    outer loop
      vertex 5.78462 0.156067 3.35
      vertex 5.78462 0.156067 -3.35
      vertex 5.73909 0.306137 -3.35
    endloop
  endfacet
  facet normal 0.995186 0.0980092 0
    outer loop
      vertex 5.79999 0 3.35
      vertex 5.78462 0.156067 -3.35
      vertex 5.78462 0.156067 3.35
    endloop
  endfacet
  facet normal 0.995186 0.0980092 0
    outer loop
      vertex 5.79999 0 3.35
      vertex 5.79999 0 -3.35
      vertex 5.78462 0.156067 -3.35
    endloop
  endfacet
  facet normal 0.995186 -0.0979999 0
    outer loop
      vertex 5.78462 -0.156082 3.35
      vertex 5.79999 0 -3.35
      vertex 5.79999 0 3.35
    endloop
  endfacet
  facet normal 0.995186 -0.0979999 0
    outer loop
      vertex 5.78462 -0.156082 3.35
      vertex 5.78462 -0.156082 -3.35
      vertex 5.79999 0 -3.35
    endloop
  endfacet
  facet normal 0.956928 -0.290324 0
    outer loop
      vertex 5.73909 -0.306152 3.35
      vertex 5.78462 -0.156082 -3.35
      vertex 5.78462 -0.156082 3.35
    endloop
  endfacet
  facet normal 0.956928 -0.290324 0
    outer loop
      vertex 5.73909 -0.306152 3.35
      vertex 5.73909 -0.306152 -3.35
      vertex 5.78462 -0.156082 -3.35
    endloop
  endfacet
  facet normal 0.881911 -0.471416 0
    outer loop
      vertex 5.66516 -0.444458 3.35
      vertex 5.73909 -0.306152 -3.35
      vertex 5.73909 -0.306152 3.35
    endloop
  endfacet
  facet normal 0.881911 -0.471416 0
    outer loop
      vertex 5.66516 -0.444458 3.35
      vertex 5.66516 -0.444458 -3.35
      vertex 5.73909 -0.306152 -3.35
    endloop
  endfacet
  facet normal 0.773016 -0.634387 0
    outer loop
      vertex 5.56567 -0.565689 3.35
      vertex 5.66516 -0.444458 -3.35
      vertex 5.66516 -0.444458 3.35
    endloop
  endfacet
  facet normal 0.773016 -0.634387 0
    outer loop
      vertex 5.56567 -0.565689 3.35
      vertex 5.56567 -0.565689 -3.35
      vertex 5.66516 -0.444458 -3.35
    endloop
  endfacet
  facet normal 0.634378 -0.773023 0
    outer loop
      vertex 5.44444 -0.665176 3.35
      vertex 5.56567 -0.565689 -3.35
      vertex 5.56567 -0.565689 3.35
    endloop
  endfacet
  facet normal 0.634378 -0.773023 0
    outer loop
      vertex 5.44444 -0.665176 3.35
      vertex 5.44444 -0.665176 -3.35
      vertex 5.56567 -0.565689 -3.35
    endloop
  endfacet
  facet normal 0.471427 -0.881905 0
    outer loop
      vertex 5.30614 -0.739105 3.35
      vertex 5.44444 -0.665176 -3.35
      vertex 5.44444 -0.665176 3.35
    endloop
  endfacet
  facet normal 0.471427 -0.881905 0
    outer loop
      vertex 5.30614 -0.739105 3.35
      vertex 5.30614 -0.739105 -3.35
      vertex 5.44444 -0.665176 -3.35
    endloop
  endfacet
  facet normal 0.290336 -0.956925 0
    outer loop
      vertex 5.15607 -0.784637 3.35
      vertex 5.30614 -0.739105 -3.35
      vertex 5.30614 -0.739105 3.35
    endloop
  endfacet
  facet normal 0.290336 -0.956925 0
    outer loop
      vertex 5.15607 -0.784637 3.35
      vertex 5.15607 -0.784637 -3.35
      vertex 5.30614 -0.739105 -3.35
    endloop
  endfacet
  facet normal 0.0979821 -0.995188 0
    outer loop
      vertex 5 -0.800003 3.35
      vertex 5.15607 -0.784637 -3.35
      vertex 5.15607 -0.784637 3.35
    endloop
  endfacet
  facet normal 0.0979821 -0.995188 0
    outer loop
      vertex 5 -0.800003 3.35
      vertex 5 -0.800003 -3.35
      vertex 5.15607 -0.784637 -3.35
    endloop
  endfacet
  facet normal 0 -1 0
    outer loop
      vertex 0.799988 -0.800003 3.35
      vertex 5 -0.800003 -3.35
      vertex 5 -0.800003 3.35
    endloop
  endfacet
  facet normal 0 -1 0
    outer loop
      vertex 0.799988 -0.800003 3.35
      vertex 0.799988 -0.800003 -3.35
      vertex 5 -0.800003 -3.35
    endloop
  endfacet
  facet normal 1 -0 0
    outer loop
      vertex 0.799988 -10.8 3.35
      vertex 0.799988 -0.800003 -3.35
      vertex 0.799988 -0.800003 3.35
    endloop
  endfacet
  facet normal 1 0 0
    outer loop
      vertex 0.799988 -10.8 3.35
      vertex 0.799988 -10.8 -3.35
      vertex 0.799988 -0.800003 -3.35
    endloop
  endfacet
  facet normal 0.911364 -0.411602 0
    outer loop
      vertex 0.369537 -11.7531 3.35
      vertex 0.799988 -10.8 -3.35
      vertex 0.799988 -10.8 3.35
    endloop
  endfacet
  facet normal 0.911364 -0.411602 0
    outer loop
      vertex 0.369537 -11.7531 3.35
      vertex 0.369537 -11.7531 -3.35
      vertex 0.799988 -10.8 -3.35
    endloop
  endfacet
endsolid OpenSCAD_Model
