solid OpenSCAD_Model
  facet normal -0 0 1
    outer loop
      vertex -5.09999 7.1375 3.35
      vertex -2.90001 1 3.35
      vertex -2.90001 7.1375 3.35
    endloop
  endfacet
  facet normal 0 0 1
    outer loop
      vertex -2.90001 1 3.35
      vertex -5.09999 7.1375 3.35
      vertex -2.90001 -1 3.35
    endloop
  endfacet
  facet normal 0 0 1
    outer loop
      vertex -5.09999 7.1375 3.35
      vertex -2.90001 7.1375 3.35
      vertex -2.92114 7.3521 3.35
    endloop
  endfacet
  facet normal 0 0 1
    outer loop
      vertex -5.09999 -7.1375 3.35
      vertex -2.90001 -1 3.35
      vertex -5.09999 7.1375 3.35
    endloop
  endfacet
  facet normal 0 0 1
    outer loop
      vertex -5.09999 7.1375 3.35
      vertex -2.92114 7.3521 3.35
      vertex -2.98373 7.55844 3.35
    endloop
  endfacet
  facet normal 0 0 1
    outer loop
      vertex -2.90001 -1 3.35
      vertex -5.09999 -7.1375 3.35
      vertex -2.90001 -7.1375 3.35
    endloop
  endfacet
  facet normal 0 0 1
    outer loop
      vertex -5.09999 7.1375 3.35
      vertex -2.98373 7.55844 3.35
      vertex -3.08537 7.74863 3.35
    endloop
  endfacet
  facet normal 0 0 1
    outer loop
      vertex -2.90001 -7.1375 3.35
      vertex -5.09999 -7.1375 3.35
      vertex -2.92114 -7.3521 3.35
    endloop
  endfacet
  facet normal 0 0 1
    outer loop
      vertex -5.09999 7.1375 3.35
      vertex -3.08537 7.74863 3.35
      vertex -3.22217 7.91531 3.35
    endloop
  endfacet
  facet normal 0 0 1
    outer loop
      vertex -2.92114 -7.3521 3.35
      vertex -5.09999 -7.1375 3.35
      vertex -2.98373 -7.55844 3.35
    endloop
  endfacet
  facet normal 0 0 1
    outer loop
      vertex -5.09999 7.1375 3.35
      vertex -3.22217 7.91531 3.35
      vertex -3.38887 8.05211 3.35
    endloop
  endfacet
  facet normal 0 0 1
    outer loop
      vertex -2.98373 -7.55844 3.35
      vertex -5.09999 -7.1375 3.35
      vertex -3.08537 -7.74863 3.35
    endloop
  endfacet
  facet normal 0 0 1
    outer loop
      vertex -5.09999 7.1375 3.35
      vertex -3.38887 8.05211 3.35
      vertex -3.57904 8.15376 3.35
    endloop
  endfacet
  facet normal 0 0 1
    outer loop
      vertex -3.08537 -7.74863 3.35
      vertex -5.09999 -7.1375 3.35
      vertex -3.22217 -7.91531 3.35
    endloop
  endfacet
  facet normal 0 0 1
    outer loop
      vertex -5.09999 7.1375 3.35
      vertex -3.57904 8.15376 3.35
      vertex -3.7854 8.21635 3.35
    endloop
  endfacet
  facet normal 0 0 1
    outer loop
      vertex -3.22217 -7.91531 3.35
      vertex -5.09999 -7.1375 3.35
      vertex -3.38887 -8.05211 3.35
    endloop
  endfacet
  facet normal 0 0 1
    outer loop
      vertex -5.09999 7.1375 3.35
      vertex -3.7854 8.21635 3.35
      vertex -4 8.23749 3.35
    endloop
  endfacet
  facet normal 0 0 1
    outer loop
      vertex -3.38887 -8.05211 3.35
      vertex -5.09999 -7.1375 3.35
      vertex -3.57904 -8.15376 3.35
    endloop
  endfacet
  facet normal 0 0 1
    outer loop
      vertex -5.09999 7.1375 3.35
      vertex -4 8.23749 3.35
      vertex -4.21458 8.21635 3.35
    endloop
  endfacet
  facet normal 0 0 1
    outer loop
      vertex -3.57904 -8.15376 3.35
      vertex -5.09999 -7.1375 3.35
      vertex -3.7854 -8.21635 3.35
    endloop
  endfacet
  facet normal 0 0 1
    outer loop
      vertex -5.09999 7.1375 3.35
      vertex -4.21458 8.21635 3.35
      vertex -4.42094 8.15376 3.35
    endloop
  endfacet
  facet normal 0 0 1
    outer loop
      vertex -3.7854 -8.21635 3.35
      vertex -5.09999 -7.1375 3.35
      vertex -4 -8.23749 3.35
    endloop
  endfacet
  facet normal 0 0 1
    outer loop
      vertex -5.09999 7.1375 3.35
      vertex -4.42094 8.15376 3.35
      vertex -4.61111 8.05211 3.35
    endloop
  endfacet
  facet normal 0 0 1
    outer loop
      vertex -4 -8.23749 3.35
      vertex -5.09999 -7.1375 3.35
      vertex -4.21458 -8.21635 3.35
    endloop
  endfacet
  facet normal 0 0 1
    outer loop
      vertex -5.09999 7.1375 3.35
      vertex -4.61111 8.05211 3.35
      vertex -4.77782 7.91531 3.35
    endloop
  endfacet
  facet normal 0 0 1
    outer loop
      vertex -4.21458 -8.21635 3.35
      vertex -5.09999 -7.1375 3.35
      vertex -4.42094 -8.15376 3.35
    endloop
  endfacet
  facet normal 0 0 1
    outer loop
      vertex -5.09999 7.1375 3.35
      vertex -4.77782 7.91531 3.35
      vertex -4.91461 7.74863 3.35
    endloop
  endfacet
  facet normal 0 0 1
    outer loop
      vertex -4.42094 -8.15376 3.35
      vertex -5.09999 -7.1375 3.35
      vertex -4.61111 -8.05211 3.35
    endloop
  endfacet
  facet normal 0 0 1
    outer loop
      vertex -5.09999 7.1375 3.35
      vertex -4.91461 7.74863 3.35
      vertex -5.01627 7.55844 3.35
    endloop
  endfacet
  facet normal 0 0 1
    outer loop
      vertex -4.61111 -8.05211 3.35
      vertex -5.09999 -7.1375 3.35
      vertex -4.77782 -7.91531 3.35
    endloop
  endfacet
  facet normal 0 0 1
    outer loop
      vertex -5.09999 7.1375 3.35
      vertex -5.01627 7.55844 3.35
      vertex -5.07886 7.3521 3.35
    endloop
  endfacet
  facet normal 0 0 1
    outer loop
      vertex -4.77782 -7.91531 3.35
      vertex -5.09999 -7.1375 3.35
      vertex -4.91461 -7.74863 3.35
    endloop
  endfacet
  facet normal 0 0 1
    outer loop
      vertex -4.91461 -7.74863 3.35
      vertex -5.09999 -7.1375 3.35
      vertex -5.01627 -7.55844 3.35
    endloop
  endfacet
  facet normal 0 0 1
    outer loop
      vertex -5.01627 -7.55844 3.35
      vertex -5.09999 -7.1375 3.35
      vertex -5.07886 -7.3521 3.35
    endloop
  endfacet
  facet normal 0 0 1
    outer loop
      vertex -0.509613 0.0975342 3.35
      vertex -0.509613 -0.0975342 3.35
      vertex -0.5 0 3.35
    endloop
  endfacet
  facet normal 0 0 1
    outer loop
      vertex -0.538071 0.19133 3.35
      vertex -0.509613 -0.0975342 3.35
      vertex -0.509613 0.0975342 3.35
    endloop
  endfacet
  facet normal 0 0 1
    outer loop
      vertex -0.538071 0.19133 3.35
      vertex -0.538071 -0.19133 3.35
      vertex -0.509613 -0.0975342 3.35
    endloop
  endfacet
  facet normal 0 0 1
    outer loop
      vertex -0.584274 0.277771 3.35
      vertex -0.538071 -0.19133 3.35
      vertex -0.538071 0.19133 3.35
    endloop
  endfacet
  facet normal 0 0 1
    outer loop
      vertex -0.584274 0.277771 3.35
      vertex -0.584274 -0.277771 3.35
      vertex -0.538071 -0.19133 3.35
    endloop
  endfacet
  facet normal 0 0 1
    outer loop
      vertex -0.646454 0.353546 3.35
      vertex -0.584274 -0.277771 3.35
      vertex -0.584274 0.277771 3.35
    endloop
  endfacet
  facet normal 0 0 1
    outer loop
      vertex -0.646454 0.353546 3.35
      vertex -0.646454 -0.353546 3.35
      vertex -0.584274 -0.277771 3.35
    endloop
  endfacet
  facet normal 0 0 1
    outer loop
      vertex -0.722229 0.415726 3.35
      vertex -0.646454 -0.353546 3.35
      vertex -0.646454 0.353546 3.35
    endloop
  endfacet
  facet normal 0 0 1
    outer loop
      vertex -0.722229 0.415726 3.35
      vertex -0.722229 -0.415726 3.35
      vertex -0.646454 -0.353546 3.35
    endloop
  endfacet
  facet normal 0 0 1
    outer loop
      vertex -0.80867 0.461929 3.35
      vertex -0.722229 -0.415726 3.35
      vertex -0.722229 0.415726 3.35
    endloop
  endfacet
  facet normal 0 0 1
    outer loop
      vertex -0.80867 0.461929 3.35
      vertex -0.80867 -0.461929 3.35
      vertex -0.722229 -0.415726 3.35
    endloop
  endfacet
  facet normal 0 0 1
    outer loop
      vertex -2 1 3.35
      vertex -0.80867 -0.461929 3.35
      vertex -0.80867 0.461929 3.35
    endloop
  endfacet
  facet normal 0 0 1
    outer loop
      vertex -2 1 3.35
      vertex -2 -1 3.35
      vertex -0.80867 -0.461929 3.35
    endloop
  endfacet
  facet normal -0 0 1
    outer loop
      vertex -2.90001 1 3.35
      vertex -2 -1 3.35
      vertex -2 1 3.35
    endloop
  endfacet
  facet normal 0 0 1
    outer loop
      vertex -2 -1 3.35
      vertex -2.90001 1 3.35
      vertex -2.90001 -1 3.35
    endloop
  endfacet
  facet normal 0 0 -1
    outer loop
      vertex -5.09999 -7.1375 -3.35
      vertex -2.90001 -1 -3.35
      vertex -2.90001 -7.1375 -3.35
    endloop
  endfacet
  facet normal -0 0 -1
    outer loop
      vertex -2.90001 -1 -3.35
      vertex -5.09999 -7.1375 -3.35
      vertex -2.90001 1 -3.35
    endloop
  endfacet
  facet normal 0 0 -1
    outer loop
      vertex -5.09999 -7.1375 -3.35
      vertex -2.90001 -7.1375 -3.35
      vertex -2.92114 -7.3521 -3.35
    endloop
  endfacet
  facet normal 0 0 -1
    outer loop
      vertex -5.09999 7.1375 -3.35
      vertex -2.90001 1 -3.35
      vertex -5.09999 -7.1375 -3.35
    endloop
  endfacet
  facet normal 0 0 -1
    outer loop
      vertex -5.09999 -7.1375 -3.35
      vertex -2.92114 -7.3521 -3.35
      vertex -2.98373 -7.55844 -3.35
    endloop
  endfacet
  facet normal 0 0 -1
    outer loop
      vertex -2.90001 1 -3.35
      vertex -5.09999 7.1375 -3.35
      vertex -2.90001 7.1375 -3.35
    endloop
  endfacet
  facet normal 0 0 -1
    outer loop
      vertex -5.09999 -7.1375 -3.35
      vertex -2.98373 -7.55844 -3.35
      vertex -3.08537 -7.74863 -3.35
    endloop
  endfacet
  facet normal 0 0 -1
    outer loop
      vertex -2.90001 7.1375 -3.35
      vertex -5.09999 7.1375 -3.35
      vertex -2.92114 7.3521 -3.35
    endloop
  endfacet
  facet normal 0 0 -1
    outer loop
      vertex -5.09999 -7.1375 -3.35
      vertex -3.08537 -7.74863 -3.35
      vertex -3.22217 -7.91531 -3.35
    endloop
  endfacet
  facet normal -0 0 -1
    outer loop
      vertex -2.92114 7.3521 -3.35
      vertex -5.09999 7.1375 -3.35
      vertex -2.98373 7.55844 -3.35
    endloop
  endfacet
  facet normal 0 0 -1
    outer loop
      vertex -5.09999 -7.1375 -3.35
      vertex -3.22217 -7.91531 -3.35
      vertex -3.38887 -8.05211 -3.35
    endloop
  endfacet
  facet normal -0 0 -1
    outer loop
      vertex -2.98373 7.55844 -3.35
      vertex -5.09999 7.1375 -3.35
      vertex -3.08537 7.74863 -3.35
    endloop
  endfacet
  facet normal 0 0 -1
    outer loop
      vertex -5.09999 -7.1375 -3.35
      vertex -3.38887 -8.05211 -3.35
      vertex -3.57904 -8.15376 -3.35
    endloop
  endfacet
  facet normal -0 0 -1
    outer loop
      vertex -3.08537 7.74863 -3.35
      vertex -5.09999 7.1375 -3.35
      vertex -3.22217 7.91531 -3.35
    endloop
  endfacet
  facet normal 0 0 -1
    outer loop
      vertex -5.09999 -7.1375 -3.35
      vertex -3.57904 -8.15376 -3.35
      vertex -3.7854 -8.21635 -3.35
    endloop
  endfacet
  facet normal -0 0 -1
    outer loop
      vertex -3.22217 7.91531 -3.35
      vertex -5.09999 7.1375 -3.35
      vertex -3.38887 8.05211 -3.35
    endloop
  endfacet
  facet normal 0 0 -1
    outer loop
      vertex -5.09999 -7.1375 -3.35
      vertex -3.7854 -8.21635 -3.35
      vertex -4 -8.23749 -3.35
    endloop
  endfacet
  facet normal -0 0 -1
    outer loop
      vertex -3.38887 8.05211 -3.35
      vertex -5.09999 7.1375 -3.35
      vertex -3.57904 8.15376 -3.35
    endloop
  endfacet
  facet normal 0 0 -1
    outer loop
      vertex -5.09999 -7.1375 -3.35
      vertex -4 -8.23749 -3.35
      vertex -4.21458 -8.21635 -3.35
    endloop
  endfacet
  facet normal -0 0 -1
    outer loop
      vertex -3.57904 8.15376 -3.35
      vertex -5.09999 7.1375 -3.35
      vertex -3.7854 8.21635 -3.35
    endloop
  endfacet
  facet normal 0 0 -1
    outer loop
      vertex -5.09999 -7.1375 -3.35
      vertex -4.21458 -8.21635 -3.35
      vertex -4.42094 -8.15376 -3.35
    endloop
  endfacet
  facet normal -0 0 -1
    outer loop
      vertex -3.7854 8.21635 -3.35
      vertex -5.09999 7.1375 -3.35
      vertex -4 8.23749 -3.35
    endloop
  endfacet
  facet normal 0 0 -1
    outer loop
      vertex -5.09999 -7.1375 -3.35
      vertex -4.42094 -8.15376 -3.35
      vertex -4.61111 -8.05211 -3.35
    endloop
  endfacet
  facet normal 0 0 -1
    outer loop
      vertex -4 8.23749 -3.35
      vertex -5.09999 7.1375 -3.35
      vertex -4.21458 8.21635 -3.35
    endloop
  endfacet
  facet normal 0 0 -1
    outer loop
      vertex -5.09999 -7.1375 -3.35
      vertex -4.61111 -8.05211 -3.35
      vertex -4.77782 -7.91531 -3.35
    endloop
  endfacet
  facet normal 0 0 -1
    outer loop
      vertex -4.21458 8.21635 -3.35
      vertex -5.09999 7.1375 -3.35
      vertex -4.42094 8.15376 -3.35
    endloop
  endfacet
  facet normal 0 0 -1
    outer loop
      vertex -5.09999 -7.1375 -3.35
      vertex -4.77782 -7.91531 -3.35
      vertex -4.91461 -7.74863 -3.35
    endloop
  endfacet
  facet normal 0 0 -1
    outer loop
      vertex -4.42094 8.15376 -3.35
      vertex -5.09999 7.1375 -3.35
      vertex -4.61111 8.05211 -3.35
    endloop
  endfacet
  facet normal 0 0 -1
    outer loop
      vertex -5.09999 -7.1375 -3.35
      vertex -4.91461 -7.74863 -3.35
      vertex -5.01627 -7.55844 -3.35
    endloop
  endfacet
  facet normal 0 0 -1
    outer loop
      vertex -4.61111 8.05211 -3.35
      vertex -5.09999 7.1375 -3.35
      vertex -4.77782 7.91531 -3.35
    endloop
  endfacet
  facet normal 0 0 -1
    outer loop
      vertex -5.09999 -7.1375 -3.35
      vertex -5.01627 -7.55844 -3.35
      vertex -5.07886 -7.3521 -3.35
    endloop
  endfacet
  facet normal 0 0 -1
    outer loop
      vertex -4.77782 7.91531 -3.35
      vertex -5.09999 7.1375 -3.35
      vertex -4.91461 7.74863 -3.35
    endloop
  endfacet
  facet normal 0 0 -1
    outer loop
      vertex -4.91461 7.74863 -3.35
      vertex -5.09999 7.1375 -3.35
      vertex -5.01627 7.55844 -3.35
    endloop
  endfacet
  facet normal 0 0 -1
    outer loop
      vertex -5.01627 7.55844 -3.35
      vertex -5.09999 7.1375 -3.35
      vertex -5.07886 7.3521 -3.35
    endloop
  endfacet
  facet normal 0 0 -1
    outer loop
      vertex -0.509613 -0.0975342 -3.35
      vertex -0.509613 0.0975342 -3.35
      vertex -0.5 0 -3.35
    endloop
  endfacet
  facet normal 0 0 -1
    outer loop
      vertex -0.538071 -0.19133 -3.35
      vertex -0.509613 0.0975342 -3.35
      vertex -0.509613 -0.0975342 -3.35
    endloop
  endfacet
  facet normal 0 0 -1
    outer loop
      vertex -0.538071 -0.19133 -3.35
      vertex -0.538071 0.19133 -3.35
      vertex -0.509613 0.0975342 -3.35
    endloop
  endfacet
  facet normal 0 0 -1
    outer loop
      vertex -0.584274 -0.277771 -3.35
      vertex -0.538071 0.19133 -3.35
      vertex -0.538071 -0.19133 -3.35
    endloop
  endfacet
  facet normal 0 0 -1
    outer loop
      vertex -0.584274 -0.277771 -3.35
      vertex -0.584274 0.277771 -3.35
      vertex -0.538071 0.19133 -3.35
    endloop
  endfacet
  facet normal 0 0 -1
    outer loop
      vertex -0.646454 -0.353546 -3.35
      vertex -0.584274 0.277771 -3.35
      vertex -0.584274 -0.277771 -3.35
    endloop
  endfacet
  facet normal 0 0 -1
    outer loop
      vertex -0.646454 -0.353546 -3.35
      vertex -0.646454 0.353546 -3.35
      vertex -0.584274 0.277771 -3.35
    endloop
  endfacet
  facet normal 0 0 -1
    outer loop
      vertex -0.722229 -0.415726 -3.35
      vertex -0.646454 0.353546 -3.35
      vertex -0.646454 -0.353546 -3.35
    endloop
  endfacet
  facet normal 0 0 -1
    outer loop
      vertex -0.722229 -0.415726 -3.35
      vertex -0.722229 0.415726 -3.35
      vertex -0.646454 0.353546 -3.35
    endloop
  endfacet
  facet normal 0 0 -1
    outer loop
      vertex -0.80867 -0.461929 -3.35
      vertex -0.722229 0.415726 -3.35
      vertex -0.722229 -0.415726 -3.35
    endloop
  endfacet
  facet normal 0 0 -1
    outer loop
      vertex -0.80867 -0.461929 -3.35
      vertex -0.80867 0.461929 -3.35
      vertex -0.722229 0.415726 -3.35
    endloop
  endfacet
  facet normal 0 0 -1
    outer loop
      vertex -2 -1 -3.35
      vertex -0.80867 0.461929 -3.35
      vertex -0.80867 -0.461929 -3.35
    endloop
  endfacet
  facet normal 0 0 -1
    outer loop
      vertex -2 -1 -3.35
      vertex -2 1 -3.35
      vertex -0.80867 0.461929 -3.35
    endloop
  endfacet
  facet normal 0 0 -1
    outer loop
      vertex -2.90001 -1 -3.35
      vertex -2 1 -3.35
      vertex -2 -1 -3.35
    endloop
  endfacet
  facet normal -0 0 -1
    outer loop
      vertex -2 1 -3.35
      vertex -2.90001 -1 -3.35
      vertex -2.90001 1 -3.35
    endloop
  endfacet
  facet normal -0.956944 0.290274 0
    outer loop
      vertex -5.07886 7.3521 -3.35
      vertex -5.01627 7.55844 3.35
      vertex -5.01627 7.55844 -3.35
    endloop
  endfacet
  facet normal -0.956944 0.290274 0
    outer loop
      vertex -5.01627 7.55844 3.35
      vertex -5.07886 7.3521 -3.35
      vertex -5.07886 7.3521 3.35
    endloop
  endfacet
  facet normal -0.881919 0.471402 0
    outer loop
      vertex -5.01627 7.55844 -3.35
      vertex -4.91461 7.74863 3.35
      vertex -4.91461 7.74863 -3.35
    endloop
  endfacet
  facet normal -0.881919 0.471402 0
    outer loop
      vertex -4.91461 7.74863 3.35
      vertex -5.01627 7.55844 -3.35
      vertex -5.01627 7.55844 3.35
    endloop
  endfacet
  facet normal -0.773012 0.634391 0
    outer loop
      vertex -4.91461 7.74863 -3.35
      vertex -4.77782 7.91531 3.35
      vertex -4.77782 7.91531 -3.35
    endloop
  endfacet
  facet normal -0.773012 0.634391 0
    outer loop
      vertex -4.77782 7.91531 3.35
      vertex -4.91461 7.74863 -3.35
      vertex -4.91461 7.74863 3.35
    endloop
  endfacet
  facet normal -0.634351 0.773045 0
    outer loop
      vertex -4.61111 8.05211 -3.35
      vertex -4.77782 7.91531 3.35
      vertex -4.61111 8.05211 3.35
    endloop
  endfacet
  facet normal -0.634351 0.773045 0
    outer loop
      vertex -4.77782 7.91531 3.35
      vertex -4.61111 8.05211 -3.35
      vertex -4.77782 7.91531 -3.35
    endloop
  endfacet
  facet normal -0.471404 0.881917 0
    outer loop
      vertex -4.42094 8.15376 -3.35
      vertex -4.61111 8.05211 3.35
      vertex -4.42094 8.15376 3.35
    endloop
  endfacet
  facet normal -0.471404 0.881917 0
    outer loop
      vertex -4.61111 8.05211 3.35
      vertex -4.42094 8.15376 -3.35
      vertex -4.61111 8.05211 -3.35
    endloop
  endfacet
  facet normal -0.290248 0.956951 0
    outer loop
      vertex -4.21458 8.21635 -3.35
      vertex -4.42094 8.15376 3.35
      vertex -4.21458 8.21635 3.35
    endloop
  endfacet
  facet normal -0.290248 0.956951 0
    outer loop
      vertex -4.42094 8.15376 3.35
      vertex -4.21458 8.21635 -3.35
      vertex -4.42094 8.15376 -3.35
    endloop
  endfacet
  facet normal -0.0980434 0.995182 0
    outer loop
      vertex -4 8.23749 -3.35
      vertex -4.21458 8.21635 3.35
      vertex -4 8.23749 3.35
    endloop
  endfacet
  facet normal -0.0980434 0.995182 0
    outer loop
      vertex -4.21458 8.21635 3.35
      vertex -4 8.23749 -3.35
      vertex -4.21458 8.21635 -3.35
    endloop
  endfacet
  facet normal 0.0980343 0.995183 -0
    outer loop
      vertex -3.7854 8.21635 -3.35
      vertex -4 8.23749 3.35
      vertex -3.7854 8.21635 3.35
    endloop
  endfacet
  facet normal 0.0980343 0.995183 0
    outer loop
      vertex -4 8.23749 3.35
      vertex -3.7854 8.21635 -3.35
      vertex -4 8.23749 -3.35
    endloop
  endfacet
  facet normal 0.290248 0.956951 -0
    outer loop
      vertex -3.57904 8.15376 -3.35
      vertex -3.7854 8.21635 3.35
      vertex -3.57904 8.15376 3.35
    endloop
  endfacet
  facet normal 0.290248 0.956951 0
    outer loop
      vertex -3.7854 8.21635 3.35
      vertex -3.57904 8.15376 -3.35
      vertex -3.7854 8.21635 -3.35
    endloop
  endfacet
  facet normal 0.471404 0.881917 -0
    outer loop
      vertex -3.38887 8.05211 -3.35
      vertex -3.57904 8.15376 3.35
      vertex -3.38887 8.05211 3.35
    endloop
  endfacet
  facet normal 0.471404 0.881917 0
    outer loop
      vertex -3.57904 8.15376 3.35
      vertex -3.38887 8.05211 -3.35
      vertex -3.57904 8.15376 -3.35
    endloop
  endfacet
  facet normal 0.634373 0.773027 -0
    outer loop
      vertex -3.22217 7.91531 -3.35
      vertex -3.38887 8.05211 3.35
      vertex -3.22217 7.91531 3.35
    endloop
  endfacet
  facet normal 0.634373 0.773027 0
    outer loop
      vertex -3.38887 8.05211 3.35
      vertex -3.22217 7.91531 -3.35
      vertex -3.38887 8.05211 -3.35
    endloop
  endfacet
  facet normal 0.772989 0.634419 0
    outer loop
      vertex -3.08537 7.74863 3.35
      vertex -3.22217 7.91531 -3.35
      vertex -3.22217 7.91531 3.35
    endloop
  endfacet
  facet normal 0.772989 0.634419 0
    outer loop
      vertex -3.22217 7.91531 -3.35
      vertex -3.08537 7.74863 3.35
      vertex -3.08537 7.74863 -3.35
    endloop
  endfacet
  facet normal 0.881957 0.471329 0
    outer loop
      vertex -2.98373 7.55844 3.35
      vertex -3.08537 7.74863 -3.35
      vertex -3.08537 7.74863 3.35
    endloop
  endfacet
  facet normal 0.881957 0.471329 0
    outer loop
      vertex -3.08537 7.74863 -3.35
      vertex -2.98373 7.55844 3.35
      vertex -2.98373 7.55844 -3.35
    endloop
  endfacet
  facet normal 0.956944 0.290274 0
    outer loop
      vertex -2.92114 7.3521 3.35
      vertex -2.98373 7.55844 -3.35
      vertex -2.98373 7.55844 3.35
    endloop
  endfacet
  facet normal 0.956944 0.290274 0
    outer loop
      vertex -2.98373 7.55844 -3.35
      vertex -2.92114 7.3521 3.35
      vertex -2.92114 7.3521 -3.35
    endloop
  endfacet
  facet normal 0.995188 0.0979884 0
    outer loop
      vertex -2.90001 7.1375 3.35
      vertex -2.92114 7.3521 -3.35
      vertex -2.92114 7.3521 3.35
    endloop
  endfacet
  facet normal 0.995188 0.0979884 0
    outer loop
      vertex -2.92114 7.3521 -3.35
      vertex -2.90001 7.1375 3.35
      vertex -2.90001 7.1375 -3.35
    endloop
  endfacet
  facet normal 1 -0 0
    outer loop
      vertex -2.90001 1 3.35
      vertex -2.90001 7.1375 -3.35
      vertex -2.90001 7.1375 3.35
    endloop
  endfacet
  facet normal 1 0 0
    outer loop
      vertex -2.90001 7.1375 -3.35
      vertex -2.90001 1 3.35
      vertex -2.90001 1 -3.35
    endloop
  endfacet
  facet normal 0 1 -0
    outer loop
      vertex -2 1 -3.35
      vertex -2.90001 1 3.35
      vertex -2 1 3.35
    endloop
  endfacet
  facet normal 0 1 0
    outer loop
      vertex -2.90001 1 3.35
      vertex -2 1 -3.35
      vertex -2.90001 1 -3.35
    endloop
  endfacet
  facet normal 0.411619 0.911356 -0
    outer loop
      vertex -0.80867 0.461929 -3.35
      vertex -2 1 3.35
      vertex -0.80867 0.461929 3.35
    endloop
  endfacet
  facet normal 0.411619 0.911356 0
    outer loop
      vertex -2 1 3.35
      vertex -0.80867 0.461929 -3.35
      vertex -2 1 -3.35
    endloop
  endfacet
  facet normal 0.471391 0.881924 -0
    outer loop
      vertex -0.722229 0.415726 -3.35
      vertex -0.80867 0.461929 3.35
      vertex -0.722229 0.415726 3.35
    endloop
  endfacet
  facet normal 0.471391 0.881924 0
    outer loop
      vertex -0.80867 0.461929 3.35
      vertex -0.722229 0.415726 -3.35
      vertex -0.80867 0.461929 -3.35
    endloop
  endfacet
  facet normal 0.634351 0.773045 -0
    outer loop
      vertex -0.646454 0.353546 -3.35
      vertex -0.722229 0.415726 3.35
      vertex -0.646454 0.353546 3.35
    endloop
  endfacet
  facet normal 0.634351 0.773045 0
    outer loop
      vertex -0.722229 0.415726 3.35
      vertex -0.646454 0.353546 -3.35
      vertex -0.722229 0.415726 -3.35
    endloop
  endfacet
  facet normal 0.773045 0.634351 0
    outer loop
      vertex -0.584274 0.277771 3.35
      vertex -0.646454 0.353546 -3.35
      vertex -0.646454 0.353546 3.35
    endloop
  endfacet
  facet normal 0.773045 0.634351 0
    outer loop
      vertex -0.646454 0.353546 -3.35
      vertex -0.584274 0.277771 3.35
      vertex -0.584274 0.277771 -3.35
    endloop
  endfacet
  facet normal 0.881924 0.471391 0
    outer loop
      vertex -0.538071 0.19133 3.35
      vertex -0.584274 0.277771 -3.35
      vertex -0.584274 0.277771 3.35
    endloop
  endfacet
  facet normal 0.881924 0.471391 0
    outer loop
      vertex -0.584274 0.277771 -3.35
      vertex -0.538071 0.19133 3.35
      vertex -0.538071 0.19133 -3.35
    endloop
  endfacet
  facet normal 0.956925 0.290335 0
    outer loop
      vertex -0.509613 0.0975342 3.35
      vertex -0.538071 0.19133 -3.35
      vertex -0.538071 0.19133 3.35
    endloop
  endfacet
  facet normal 0.956925 0.290335 0
    outer loop
      vertex -0.538071 0.19133 -3.35
      vertex -0.509613 0.0975342 3.35
      vertex -0.509613 0.0975342 -3.35
    endloop
  endfacet
  facet normal 0.995178 0.098085 0
    outer loop
      vertex -0.5 0 3.35
      vertex -0.509613 0.0975342 -3.35
      vertex -0.509613 0.0975342 3.35
    endloop
  endfacet
  facet normal 0.995178 0.098085 0
    outer loop
      vertex -0.509613 0.0975342 -3.35
      vertex -0.5 0 3.35
      vertex -0.5 0 -3.35
    endloop
  endfacet
  facet normal 0.995178 -0.098085 0
    outer loop
      vertex -0.509613 -0.0975342 3.35
      vertex -0.5 0 -3.35
      vertex -0.5 0 3.35
    endloop
  endfacet
  facet normal 0.995178 -0.098085 0
    outer loop
      vertex -0.5 0 -3.35
      vertex -0.509613 -0.0975342 3.35
      vertex -0.509613 -0.0975342 -3.35
    endloop
  endfacet
  facet normal 0.956925 -0.290335 0
    outer loop
      vertex -0.538071 -0.19133 3.35
      vertex -0.509613 -0.0975342 -3.35
      vertex -0.509613 -0.0975342 3.35
    endloop
  endfacet
  facet normal 0.956925 -0.290335 0
    outer loop
      vertex -0.509613 -0.0975342 -3.35
      vertex -0.538071 -0.19133 3.35
      vertex -0.538071 -0.19133 -3.35
    endloop
  endfacet
  facet normal 0.881924 -0.471391 0
    outer loop
      vertex -0.584274 -0.277771 3.35
      vertex -0.538071 -0.19133 -3.35
      vertex -0.538071 -0.19133 3.35
    endloop
  endfacet
  facet normal 0.881924 -0.471391 0
    outer loop
      vertex -0.538071 -0.19133 -3.35
      vertex -0.584274 -0.277771 3.35
      vertex -0.584274 -0.277771 -3.35
    endloop
  endfacet
  facet normal 0.773045 -0.634351 0
    outer loop
      vertex -0.646454 -0.353546 3.35
      vertex -0.584274 -0.277771 -3.35
      vertex -0.584274 -0.277771 3.35
    endloop
  endfacet
  facet normal 0.773045 -0.634351 0
    outer loop
      vertex -0.584274 -0.277771 -3.35
      vertex -0.646454 -0.353546 3.35
      vertex -0.646454 -0.353546 -3.35
    endloop
  endfacet
  facet normal 0.634351 -0.773045 0
    outer loop
      vertex -0.722229 -0.415726 -3.35
      vertex -0.646454 -0.353546 3.35
      vertex -0.722229 -0.415726 3.35
    endloop
  endfacet
  facet normal 0.634351 -0.773045 0
    outer loop
      vertex -0.646454 -0.353546 3.35
      vertex -0.722229 -0.415726 -3.35
      vertex -0.646454 -0.353546 -3.35
    endloop
  endfacet
  facet normal 0.471391 -0.881924 0
    outer loop
      vertex -0.80867 -0.461929 -3.35
      vertex -0.722229 -0.415726 3.35
      vertex -0.80867 -0.461929 3.35
    endloop
  endfacet
  facet normal 0.471391 -0.881924 0
    outer loop
      vertex -0.722229 -0.415726 3.35
      vertex -0.80867 -0.461929 -3.35
      vertex -0.722229 -0.415726 -3.35
    endloop
  endfacet
  facet normal 0.411619 -0.911356 0
    outer loop
      vertex -2 -1 -3.35
      vertex -0.80867 -0.461929 3.35
      vertex -2 -1 3.35
    endloop
  endfacet
  facet normal 0.411619 -0.911356 0
    outer loop
      vertex -0.80867 -0.461929 3.35
      vertex -2 -1 -3.35
      vertex -0.80867 -0.461929 -3.35
    endloop
  endfacet
  facet normal 0 -1 0
    outer loop
      vertex -2.90001 -1 -3.35
      vertex -2 -1 3.35
      vertex -2.90001 -1 3.35
    endloop
  endfacet
  facet normal 0 -1 -0
    outer loop
      vertex -2 -1 3.35
      vertex -2.90001 -1 -3.35
      vertex -2 -1 -3.35
    endloop
  endfacet
  facet normal 1 -0 0
    outer loop
      vertex -2.90001 -7.1375 3.35
      vertex -2.90001 -1 -3.35
      vertex -2.90001 -1 3.35
    endloop
  endfacet
  facet normal 1 0 0
    outer loop
      vertex -2.90001 -1 -3.35
      vertex -2.90001 -7.1375 3.35
      vertex -2.90001 -7.1375 -3.35
    endloop
  endfacet
  facet normal 0.995188 -0.0979884 0
    outer loop
      vertex -2.92114 -7.3521 3.35
      vertex -2.90001 -7.1375 -3.35
      vertex -2.90001 -7.1375 3.35
    endloop
  endfacet
  facet normal 0.995188 -0.0979884 0
    outer loop
      vertex -2.90001 -7.1375 -3.35
      vertex -2.92114 -7.3521 3.35
      vertex -2.92114 -7.3521 -3.35
    endloop
  endfacet
  facet normal 0.956944 -0.290274 0
    outer loop
      vertex -2.98373 -7.55844 3.35
      vertex -2.92114 -7.3521 -3.35
      vertex -2.92114 -7.3521 3.35
    endloop
  endfacet
  facet normal 0.956944 -0.290274 0
    outer loop
      vertex -2.92114 -7.3521 -3.35
      vertex -2.98373 -7.55844 3.35
      vertex -2.98373 -7.55844 -3.35
    endloop
  endfacet
  facet normal 0.881957 -0.471329 0
    outer loop
      vertex -3.08537 -7.74863 3.35
      vertex -2.98373 -7.55844 -3.35
      vertex -2.98373 -7.55844 3.35
    endloop
  endfacet
  facet normal 0.881957 -0.471329 0
    outer loop
      vertex -2.98373 -7.55844 -3.35
      vertex -3.08537 -7.74863 3.35
      vertex -3.08537 -7.74863 -3.35
    endloop
  endfacet
  facet normal 0.772989 -0.634419 0
    outer loop
      vertex -3.22217 -7.91531 3.35
      vertex -3.08537 -7.74863 -3.35
      vertex -3.08537 -7.74863 3.35
    endloop
  endfacet
  facet normal 0.772989 -0.634419 0
    outer loop
      vertex -3.08537 -7.74863 -3.35
      vertex -3.22217 -7.91531 3.35
      vertex -3.22217 -7.91531 -3.35
    endloop
  endfacet
  facet normal 0.634373 -0.773027 0
    outer loop
      vertex -3.38887 -8.05211 -3.35
      vertex -3.22217 -7.91531 3.35
      vertex -3.38887 -8.05211 3.35
    endloop
  endfacet
  facet normal 0.634373 -0.773027 0
    outer loop
      vertex -3.22217 -7.91531 3.35
      vertex -3.38887 -8.05211 -3.35
      vertex -3.22217 -7.91531 -3.35
    endloop
  endfacet
  facet normal 0.471404 -0.881917 0
    outer loop
      vertex -3.57904 -8.15376 -3.35
      vertex -3.38887 -8.05211 3.35
      vertex -3.57904 -8.15376 3.35
    endloop
  endfacet
  facet normal 0.471404 -0.881917 0
    outer loop
      vertex -3.38887 -8.05211 3.35
      vertex -3.57904 -8.15376 -3.35
      vertex -3.38887 -8.05211 -3.35
    endloop
  endfacet
  facet normal 0.290248 -0.956951 0
    outer loop
      vertex -3.7854 -8.21635 -3.35
      vertex -3.57904 -8.15376 3.35
      vertex -3.7854 -8.21635 3.35
    endloop
  endfacet
  facet normal 0.290248 -0.956951 0
    outer loop
      vertex -3.57904 -8.15376 3.35
      vertex -3.7854 -8.21635 -3.35
      vertex -3.57904 -8.15376 -3.35
    endloop
  endfacet
  facet normal 0.0980343 -0.995183 0
    outer loop
      vertex -4 -8.23749 -3.35
      vertex -3.7854 -8.21635 3.35
      vertex -4 -8.23749 3.35
    endloop
  endfacet
  facet normal 0.0980343 -0.995183 0
    outer loop
      vertex -3.7854 -8.21635 3.35
      vertex -4 -8.23749 -3.35
      vertex -3.7854 -8.21635 -3.35
    endloop
  endfacet
  facet normal -0.0980434 -0.995182 0
    outer loop
      vertex -4.21458 -8.21635 -3.35
      vertex -4 -8.23749 3.35
      vertex -4.21458 -8.21635 3.35
    endloop
  endfacet
  facet normal -0.0980434 -0.995182 -0
    outer loop
      vertex -4 -8.23749 3.35
      vertex -4.21458 -8.21635 -3.35
      vertex -4 -8.23749 -3.35
    endloop
  endfacet
  facet normal -0.290248 -0.956951 0
    outer loop
      vertex -4.42094 -8.15376 -3.35
      vertex -4.21458 -8.21635 3.35
      vertex -4.42094 -8.15376 3.35
    endloop
  endfacet
  facet normal -0.290248 -0.956951 -0
    outer loop
      vertex -4.21458 -8.21635 3.35
      vertex -4.42094 -8.15376 -3.35
      vertex -4.21458 -8.21635 -3.35
    endloop
  endfacet
  facet normal -0.471404 -0.881917 0
    outer loop
      vertex -4.61111 -8.05211 -3.35
      vertex -4.42094 -8.15376 3.35
      vertex -4.61111 -8.05211 3.35
    endloop
  endfacet
  facet normal -0.471404 -0.881917 -0
    outer loop
      vertex -4.42094 -8.15376 3.35
      vertex -4.61111 -8.05211 -3.35
      vertex -4.42094 -8.15376 -3.35
    endloop
  endfacet
  facet normal -0.634351 -0.773045 0
    outer loop
      vertex -4.77782 -7.91531 -3.35
      vertex -4.61111 -8.05211 3.35
      vertex -4.77782 -7.91531 3.35
    endloop
  endfacet
  facet normal -0.634351 -0.773045 -0
    outer loop
      vertex -4.61111 -8.05211 3.35
      vertex -4.77782 -7.91531 -3.35
      vertex -4.61111 -8.05211 -3.35
    endloop
  endfacet
  facet normal -0.773012 -0.634391 0
    outer loop
      vertex -4.77782 -7.91531 -3.35
      vertex -4.91461 -7.74863 3.35
      vertex -4.91461 -7.74863 -3.35
    endloop
  endfacet
  facet normal -0.773012 -0.634391 0
    outer loop
      vertex -4.91461 -7.74863 3.35
      vertex -4.77782 -7.91531 -3.35
      vertex -4.77782 -7.91531 3.35
    endloop
  endfacet
  facet normal -0.881919 -0.471402 0
    outer loop
      vertex -4.91461 -7.74863 -3.35
      vertex -5.01627 -7.55844 3.35
      vertex -5.01627 -7.55844 -3.35
    endloop
  endfacet
  facet normal -0.881919 -0.471402 0
    outer loop
      vertex -5.01627 -7.55844 3.35
      vertex -4.91461 -7.74863 -3.35
      vertex -4.91461 -7.74863 3.35
    endloop
  endfacet
  facet normal -0.956944 -0.290274 0
    outer loop
      vertex -5.01627 -7.55844 -3.35
      vertex -5.07886 -7.3521 3.35
      vertex -5.07886 -7.3521 -3.35
    endloop
  endfacet
  facet normal -0.956944 -0.290274 0
    outer loop
      vertex -5.07886 -7.3521 3.35
      vertex -5.01627 -7.55844 -3.35
      vertex -5.01627 -7.55844 3.35
    endloop
  endfacet
  facet normal -0.995188 -0.0979884 0
    outer loop
      vertex -5.07886 -7.3521 -3.35
      vertex -5.09999 -7.1375 3.35
      vertex -5.09999 -7.1375 -3.35
    endloop
  endfacet
  facet normal -0.995188 -0.0979884 0
    outer loop
      vertex -5.09999 -7.1375 3.35
      vertex -5.07886 -7.3521 -3.35
      vertex -5.07886 -7.3521 3.35
    endloop
  endfacet
  facet normal -1 0 0
    outer loop
      vertex -5.09999 -7.1375 -3.35
      vertex -5.09999 7.1375 3.35
      vertex -5.09999 7.1375 -3.35
    endloop
  endfacet
  facet normal -1 -0 0
    outer loop
      vertex -5.09999 7.1375 3.35
      vertex -5.09999 -7.1375 -3.35
      vertex -5.09999 -7.1375 3.35
    endloop
  endfacet
  facet normal -0.995188 0.0979884 0
    outer loop
      vertex -5.09999 7.1375 -3.35
      vertex -5.07886 7.3521 3.35
      vertex -5.07886 7.3521 -3.35
    endloop
  endfacet
  facet normal -0.995188 0.0979884 0
    outer loop
      vertex -5.07886 7.3521 3.35
      vertex -5.09999 7.1375 -3.35
      vertex -5.09999 7.1375 3.35
    endloop
  endfacet
  facet normal -0 0 1
    outer loop
      vertex 2.90001 7.1375 3.35
      vertex 5.09999 1 3.35
      vertex 5.09999 7.1375 3.35
    endloop
  endfacet
  facet normal 0 0 1
    outer loop
      vertex 5.09999 1 3.35
      vertex 2.90001 7.1375 3.35
      vertex 5.09999 -1 3.35
    endloop
  endfacet
  facet normal 0 0 1
    outer loop
      vertex 2.90001 7.1375 3.35
      vertex 5.09999 7.1375 3.35
      vertex 5.07886 7.3521 3.35
    endloop
  endfacet
  facet normal 0 0 1
    outer loop
      vertex 2.90001 -7.1375 3.35
      vertex 5.09999 -1 3.35
      vertex 2.90001 7.1375 3.35
    endloop
  endfacet
  facet normal 0 0 1
    outer loop
      vertex 2.90001 7.1375 3.35
      vertex 5.07886 7.3521 3.35
      vertex 5.01627 7.55844 3.35
    endloop
  endfacet
  facet normal 0 0 1
    outer loop
      vertex 5.09999 -1 3.35
      vertex 2.90001 -7.1375 3.35
      vertex 5.09999 -7.1375 3.35
    endloop
  endfacet
  facet normal 0 0 1
    outer loop
      vertex 2.90001 7.1375 3.35
      vertex 5.01627 7.55844 3.35
      vertex 4.91463 7.74863 3.35
    endloop
  endfacet
  facet normal 0 0 1
    outer loop
      vertex 5.09999 -7.1375 3.35
      vertex 2.90001 -7.1375 3.35
      vertex 5.07886 -7.3521 3.35
    endloop
  endfacet
  facet normal 0 0 1
    outer loop
      vertex 2.90001 7.1375 3.35
      vertex 4.91463 7.74863 3.35
      vertex 4.77783 7.91531 3.35
    endloop
  endfacet
  facet normal 0 0 1
    outer loop
      vertex 5.07886 -7.3521 3.35
      vertex 2.90001 -7.1375 3.35
      vertex 5.01627 -7.55844 3.35
    endloop
  endfacet
  facet normal 0 0 1
    outer loop
      vertex 2.90001 7.1375 3.35
      vertex 4.77783 7.91531 3.35
      vertex 4.61113 8.05211 3.35
    endloop
  endfacet
  facet normal 0 0 1
    outer loop
      vertex 5.01627 -7.55844 3.35
      vertex 2.90001 -7.1375 3.35
      vertex 4.91463 -7.74863 3.35
    endloop
  endfacet
  facet normal 0 0 1
    outer loop
      vertex 2.90001 7.1375 3.35
      vertex 4.61113 8.05211 3.35
      vertex 4.42096 8.15376 3.35
    endloop
  endfacet
  facet normal 0 0 1
    outer loop
      vertex 4.91463 -7.74863 3.35
      vertex 2.90001 -7.1375 3.35
      vertex 4.77783 -7.91531 3.35
    endloop
  endfacet
  facet normal 0 0 1
    outer loop
      vertex 2.90001 7.1375 3.35
      vertex 4.42096 8.15376 3.35
      vertex 4.2146 8.21635 3.35
    endloop
  endfacet
  facet normal 0 0 1
    outer loop
      vertex 4.77783 -7.91531 3.35
      vertex 2.90001 -7.1375 3.35
      vertex 4.61113 -8.05211 3.35
    endloop
  endfacet
  facet normal 0 0 1
    outer loop
      vertex 2.90001 7.1375 3.35
      vertex 4.2146 8.21635 3.35
      vertex 4 8.23749 3.35
    endloop
  endfacet
  facet normal 0 0 1
    outer loop
      vertex 4.61113 -8.05211 3.35
      vertex 2.90001 -7.1375 3.35
      vertex 4.42096 -8.15376 3.35
    endloop
  endfacet
  facet normal 0 0 1
    outer loop
      vertex 2.90001 7.1375 3.35
      vertex 4 8.23749 3.35
      vertex 3.78542 8.21635 3.35
    endloop
  endfacet
  facet normal 0 0 1
    outer loop
      vertex 4.42096 -8.15376 3.35
      vertex 2.90001 -7.1375 3.35
      vertex 4.2146 -8.21635 3.35
    endloop
  endfacet
  facet normal 0 0 1
    outer loop
      vertex 2.90001 7.1375 3.35
      vertex 3.78542 8.21635 3.35
      vertex 3.57906 8.15376 3.35
    endloop
  endfacet
  facet normal 0 0 1
    outer loop
      vertex 4.2146 -8.21635 3.35
      vertex 2.90001 -7.1375 3.35
      vertex 4 -8.23749 3.35
    endloop
  endfacet
  facet normal 0 0 1
    outer loop
      vertex 2.90001 7.1375 3.35
      vertex 3.57906 8.15376 3.35
      vertex 3.38889 8.05211 3.35
    endloop
  endfacet
  facet normal 0 0 1
    outer loop
      vertex 4 -8.23749 3.35
      vertex 2.90001 -7.1375 3.35
      vertex 3.78542 -8.21635 3.35
    endloop
  endfacet
  facet normal 0 0 1
    outer loop
      vertex 2.90001 7.1375 3.35
      vertex 3.38889 8.05211 3.35
      vertex 3.22218 7.91531 3.35
    endloop
  endfacet
  facet normal 0 0 1
    outer loop
      vertex 3.78542 -8.21635 3.35
      vertex 2.90001 -7.1375 3.35
      vertex 3.57906 -8.15376 3.35
    endloop
  endfacet
  facet normal 0 0 1
    outer loop
      vertex 2.90001 7.1375 3.35
      vertex 3.22218 7.91531 3.35
      vertex 3.08539 7.74863 3.35
    endloop
  endfacet
  facet normal 0 0 1
    outer loop
      vertex 3.57906 -8.15376 3.35
      vertex 2.90001 -7.1375 3.35
      vertex 3.38889 -8.05211 3.35
    endloop
  endfacet
  facet normal 0 0 1
    outer loop
      vertex 2.90001 7.1375 3.35
      vertex 3.08539 7.74863 3.35
      vertex 2.98373 7.55844 3.35
    endloop
  endfacet
  facet normal 0 0 1
    outer loop
      vertex 3.38889 -8.05211 3.35
      vertex 2.90001 -7.1375 3.35
      vertex 3.22218 -7.91531 3.35
    endloop
  endfacet
  facet normal 0 0 1
    outer loop
      vertex 2.90001 7.1375 3.35
      vertex 2.98373 7.55844 3.35
      vertex 2.92114 7.3521 3.35
    endloop
  endfacet
  facet normal 0 0 1
    outer loop
      vertex 3.22218 -7.91531 3.35
      vertex 2.90001 -7.1375 3.35
      vertex 3.08539 -7.74863 3.35
    endloop
  endfacet
  facet normal 0 0 1
    outer loop
      vertex 3.08539 -7.74863 3.35
      vertex 2.90001 -7.1375 3.35
      vertex 2.98373 -7.55844 3.35
    endloop
  endfacet
  facet normal 0 0 1
    outer loop
      vertex 2.98373 -7.55844 3.35
      vertex 2.90001 -7.1375 3.35
      vertex 2.92114 -7.3521 3.35
    endloop
  endfacet
  facet normal 0 0 1
    outer loop
      vertex 7.49039 0.0975342 3.35
      vertex 7.49039 -0.0975342 3.35
      vertex 7.5 0 3.35
    endloop
  endfacet
  facet normal 0 0 1
    outer loop
      vertex 7.46193 0.19133 3.35
      vertex 7.49039 -0.0975342 3.35
      vertex 7.49039 0.0975342 3.35
    endloop
  endfacet
  facet normal 0 0 1
    outer loop
      vertex 7.46193 0.19133 3.35
      vertex 7.46193 -0.19133 3.35
      vertex 7.49039 -0.0975342 3.35
    endloop
  endfacet
  facet normal 0 0 1
    outer loop
      vertex 7.41573 0.277771 3.35
      vertex 7.46193 -0.19133 3.35
      vertex 7.46193 0.19133 3.35
    endloop
  endfacet
  facet normal 0 0 1
    outer loop
      vertex 7.41573 0.277771 3.35
      vertex 7.41573 -0.277771 3.35
      vertex 7.46193 -0.19133 3.35
    endloop
  endfacet
  facet normal 0 0 1
    outer loop
      vertex 7.35355 0.353546 3.35
      vertex 7.41573 -0.277771 3.35
      vertex 7.41573 0.277771 3.35
    endloop
  endfacet
  facet normal 0 0 1
    outer loop
      vertex 7.35355 0.353546 3.35
      vertex 7.35355 -0.353546 3.35
      vertex 7.41573 -0.277771 3.35
    endloop
  endfacet
  facet normal 0 0 1
    outer loop
      vertex 7.27777 0.415726 3.35
      vertex 7.35355 -0.353546 3.35
      vertex 7.35355 0.353546 3.35
    endloop
  endfacet
  facet normal 0 0 1
    outer loop
      vertex 7.27777 0.415726 3.35
      vertex 7.27777 -0.415726 3.35
      vertex 7.35355 -0.353546 3.35
    endloop
  endfacet
  facet normal 0 0 1
    outer loop
      vertex 7.19133 0.461929 3.35
      vertex 7.27777 -0.415726 3.35
      vertex 7.27777 0.415726 3.35
    endloop
  endfacet
  facet normal 0 0 1
    outer loop
      vertex 7.19133 0.461929 3.35
      vertex 7.19133 -0.461929 3.35
      vertex 7.27777 -0.415726 3.35
    endloop
  endfacet
  facet normal 0 0 1
    outer loop
      vertex 6 1 3.35
      vertex 7.19133 -0.461929 3.35
      vertex 7.19133 0.461929 3.35
    endloop
  endfacet
  facet normal 0 0 1
    outer loop
      vertex 6 1 3.35
      vertex 6 -1 3.35
      vertex 7.19133 -0.461929 3.35
    endloop
  endfacet
  facet normal -0 0 1
    outer loop
      vertex 5.09999 1 3.35
      vertex 6 -1 3.35
      vertex 6 1 3.35
    endloop
  endfacet
  facet normal 0 0 1
    outer loop
      vertex 6 -1 3.35
      vertex 5.09999 1 3.35
      vertex 5.09999 -1 3.35
    endloop
  endfacet
  facet normal 0 0 -1
    outer loop
      vertex 2.90001 -7.1375 -3.35
      vertex 5.09999 -1 -3.35
      vertex 5.09999 -7.1375 -3.35
    endloop
  endfacet
  facet normal -0 0 -1
    outer loop
      vertex 5.09999 -1 -3.35
      vertex 2.90001 -7.1375 -3.35
      vertex 5.09999 1 -3.35
    endloop
  endfacet
  facet normal 0 0 -1
    outer loop
      vertex 2.90001 -7.1375 -3.35
      vertex 5.09999 -7.1375 -3.35
      vertex 5.07886 -7.3521 -3.35
    endloop
  endfacet
  facet normal 0 0 -1
    outer loop
      vertex 2.90001 7.1375 -3.35
      vertex 5.09999 1 -3.35
      vertex 2.90001 -7.1375 -3.35
    endloop
  endfacet
  facet normal 0 0 -1
    outer loop
      vertex 2.90001 -7.1375 -3.35
      vertex 5.07886 -7.3521 -3.35
      vertex 5.01627 -7.55844 -3.35
    endloop
  endfacet
  facet normal 0 0 -1
    outer loop
      vertex 5.09999 1 -3.35
      vertex 2.90001 7.1375 -3.35
      vertex 5.09999 7.1375 -3.35
    endloop
  endfacet
  facet normal 0 0 -1
    outer loop
      vertex 2.90001 -7.1375 -3.35
      vertex 5.01627 -7.55844 -3.35
      vertex 4.91463 -7.74863 -3.35
    endloop
  endfacet
  facet normal 0 0 -1
    outer loop
      vertex 5.09999 7.1375 -3.35
      vertex 2.90001 7.1375 -3.35
      vertex 5.07886 7.3521 -3.35
    endloop
  endfacet
  facet normal 0 0 -1
    outer loop
      vertex 2.90001 -7.1375 -3.35
      vertex 4.91463 -7.74863 -3.35
      vertex 4.77783 -7.91531 -3.35
    endloop
  endfacet
  facet normal -0 0 -1
    outer loop
      vertex 5.07886 7.3521 -3.35
      vertex 2.90001 7.1375 -3.35
      vertex 5.01627 7.55844 -3.35
    endloop
  endfacet
  facet normal 0 0 -1
    outer loop
      vertex 2.90001 -7.1375 -3.35
      vertex 4.77783 -7.91531 -3.35
      vertex 4.61113 -8.05211 -3.35
    endloop
  endfacet
  facet normal -0 0 -1
    outer loop
      vertex 5.01627 7.55844 -3.35
      vertex 2.90001 7.1375 -3.35
      vertex 4.91463 7.74863 -3.35
    endloop
  endfacet
  facet normal 0 0 -1
    outer loop
      vertex 2.90001 -7.1375 -3.35
      vertex 4.61113 -8.05211 -3.35
      vertex 4.42096 -8.15376 -3.35
    endloop
  endfacet
  facet normal -0 0 -1
    outer loop
      vertex 4.91463 7.74863 -3.35
      vertex 2.90001 7.1375 -3.35
      vertex 4.77783 7.91531 -3.35
    endloop
  endfacet
  facet normal 0 0 -1
    outer loop
      vertex 2.90001 -7.1375 -3.35
      vertex 4.42096 -8.15376 -3.35
      vertex 4.2146 -8.21635 -3.35
    endloop
  endfacet
  facet normal -0 0 -1
    outer loop
      vertex 4.77783 7.91531 -3.35
      vertex 2.90001 7.1375 -3.35
      vertex 4.61113 8.05211 -3.35
    endloop
  endfacet
  facet normal 0 0 -1
    outer loop
      vertex 2.90001 -7.1375 -3.35
      vertex 4.2146 -8.21635 -3.35
      vertex 4 -8.23749 -3.35
    endloop
  endfacet
  facet normal -0 0 -1
    outer loop
      vertex 4.61113 8.05211 -3.35
      vertex 2.90001 7.1375 -3.35
      vertex 4.42096 8.15376 -3.35
    endloop
  endfacet
  facet normal 0 0 -1
    outer loop
      vertex 2.90001 -7.1375 -3.35
      vertex 4 -8.23749 -3.35
      vertex 3.78542 -8.21635 -3.35
    endloop
  endfacet
  facet normal -0 0 -1
    outer loop
      vertex 4.42096 8.15376 -3.35
      vertex 2.90001 7.1375 -3.35
      vertex 4.2146 8.21635 -3.35
    endloop
  endfacet
  facet normal 0 0 -1
    outer loop
      vertex 2.90001 -7.1375 -3.35
      vertex 3.78542 -8.21635 -3.35
      vertex 3.57906 -8.15376 -3.35
    endloop
  endfacet
  facet normal -0 0 -1
    outer loop
      vertex 4.2146 8.21635 -3.35
      vertex 2.90001 7.1375 -3.35
      vertex 4 8.23749 -3.35
    endloop
  endfacet
  facet normal 0 0 -1
    outer loop
      vertex 2.90001 -7.1375 -3.35
      vertex 3.57906 -8.15376 -3.35
      vertex 3.38889 -8.05211 -3.35
    endloop
  endfacet
  facet normal 0 0 -1
    outer loop
      vertex 4 8.23749 -3.35
      vertex 2.90001 7.1375 -3.35
      vertex 3.78542 8.21635 -3.35
    endloop
  endfacet
  facet normal 0 0 -1
    outer loop
      vertex 2.90001 -7.1375 -3.35
      vertex 3.38889 -8.05211 -3.35
      vertex 3.22218 -7.91531 -3.35
    endloop
  endfacet
  facet normal 0 0 -1
    outer loop
      vertex 3.78542 8.21635 -3.35
      vertex 2.90001 7.1375 -3.35
      vertex 3.57906 8.15376 -3.35
    endloop
  endfacet
  facet normal 0 0 -1
    outer loop
      vertex 2.90001 -7.1375 -3.35
      vertex 3.22218 -7.91531 -3.35
      vertex 3.08539 -7.74863 -3.35
    endloop
  endfacet
  facet normal 0 0 -1
    outer loop
      vertex 3.57906 8.15376 -3.35
      vertex 2.90001 7.1375 -3.35
      vertex 3.38889 8.05211 -3.35
    endloop
  endfacet
  facet normal 0 0 -1
    outer loop
      vertex 2.90001 -7.1375 -3.35
      vertex 3.08539 -7.74863 -3.35
      vertex 2.98373 -7.55844 -3.35
    endloop
  endfacet
  facet normal 0 0 -1
    outer loop
      vertex 3.38889 8.05211 -3.35
      vertex 2.90001 7.1375 -3.35
      vertex 3.22218 7.91531 -3.35
    endloop
  endfacet
  facet normal 0 0 -1
    outer loop
      vertex 2.90001 -7.1375 -3.35
      vertex 2.98373 -7.55844 -3.35
      vertex 2.92114 -7.3521 -3.35
    endloop
  endfacet
  facet normal 0 0 -1
    outer loop
      vertex 3.22218 7.91531 -3.35
      vertex 2.90001 7.1375 -3.35
      vertex 3.08539 7.74863 -3.35
    endloop
  endfacet
  facet normal 0 0 -1
    outer loop
      vertex 3.08539 7.74863 -3.35
      vertex 2.90001 7.1375 -3.35
      vertex 2.98373 7.55844 -3.35
    endloop
  endfacet
  facet normal 0 0 -1
    outer loop
      vertex 2.98373 7.55844 -3.35
      vertex 2.90001 7.1375 -3.35
      vertex 2.92114 7.3521 -3.35
    endloop
  endfacet
  facet normal 0 0 -1
    outer loop
      vertex 7.49039 -0.0975342 -3.35
      vertex 7.49039 0.0975342 -3.35
      vertex 7.5 0 -3.35
    endloop
  endfacet
  facet normal 0 0 -1
    outer loop
      vertex 7.46193 -0.19133 -3.35
      vertex 7.49039 0.0975342 -3.35
      vertex 7.49039 -0.0975342 -3.35
    endloop
  endfacet
  facet normal 0 0 -1
    outer loop
      vertex 7.46193 -0.19133 -3.35
      vertex 7.46193 0.19133 -3.35
      vertex 7.49039 0.0975342 -3.35
    endloop
  endfacet
  facet normal 0 0 -1
    outer loop
      vertex 7.41573 -0.277771 -3.35
      vertex 7.46193 0.19133 -3.35
      vertex 7.46193 -0.19133 -3.35
    endloop
  endfacet
  facet normal 0 0 -1
    outer loop
      vertex 7.41573 -0.277771 -3.35
      vertex 7.41573 0.277771 -3.35
      vertex 7.46193 0.19133 -3.35
    endloop
  endfacet
  facet normal 0 0 -1
    outer loop
      vertex 7.35355 -0.353546 -3.35
      vertex 7.41573 0.277771 -3.35
      vertex 7.41573 -0.277771 -3.35
    endloop
  endfacet
  facet normal 0 0 -1
    outer loop
      vertex 7.35355 -0.353546 -3.35
      vertex 7.35355 0.353546 -3.35
      vertex 7.41573 0.277771 -3.35
    endloop
  endfacet
  facet normal 0 0 -1
    outer loop
      vertex 7.27777 -0.415726 -3.35
      vertex 7.35355 0.353546 -3.35
      vertex 7.35355 -0.353546 -3.35
    endloop
  endfacet
  facet normal 0 0 -1
    outer loop
      vertex 7.27777 -0.415726 -3.35
      vertex 7.27777 0.415726 -3.35
      vertex 7.35355 0.353546 -3.35
    endloop
  endfacet
  facet normal 0 0 -1
    outer loop
      vertex 7.19133 -0.461929 -3.35
      vertex 7.27777 0.415726 -3.35
      vertex 7.27777 -0.415726 -3.35
    endloop
  endfacet
  facet normal 0 0 -1
    outer loop
      vertex 7.19133 -0.461929 -3.35
      vertex 7.19133 0.461929 -3.35
      vertex 7.27777 0.415726 -3.35
    endloop
  endfacet
  facet normal 0 0 -1
    outer loop
      vertex 6 -1 -3.35
      vertex 7.19133 0.461929 -3.35
      vertex 7.19133 -0.461929 -3.35
    endloop
  endfacet
  facet normal 0 0 -1
    outer loop
      vertex 6 -1 -3.35
      vertex 6 1 -3.35
      vertex 7.19133 0.461929 -3.35
    endloop
  endfacet
  facet normal 0 0 -1
    outer loop
      vertex 5.09999 -1 -3.35
      vertex 6 1 -3.35
      vertex 6 -1 -3.35
    endloop
  endfacet
  facet normal -0 0 -1
    outer loop
      vertex 6 1 -3.35
      vertex 5.09999 -1 -3.35
      vertex 5.09999 1 -3.35
    endloop
  endfacet
  facet normal -0.956944 0.290274 0
    outer loop
      vertex 2.92114 7.3521 -3.35
      vertex 2.98373 7.55844 3.35
      vertex 2.98373 7.55844 -3.35
    endloop
  endfacet
  facet normal -0.956944 0.290274 0
    outer loop
      vertex 2.98373 7.55844 3.35
      vertex 2.92114 7.3521 -3.35
      vertex 2.92114 7.3521 3.35
    endloop
  endfacet
  facet normal -0.881919 0.471402 0
    outer loop
      vertex 2.98373 7.55844 -3.35
      vertex 3.08539 7.74863 3.35
      vertex 3.08539 7.74863 -3.35
    endloop
  endfacet
  facet normal -0.881919 0.471402 0
    outer loop
      vertex 3.08539 7.74863 3.35
      vertex 2.98373 7.55844 -3.35
      vertex 2.98373 7.55844 3.35
    endloop
  endfacet
  facet normal -0.773012 0.634391 0
    outer loop
      vertex 3.08539 7.74863 -3.35
      vertex 3.22218 7.91531 3.35
      vertex 3.22218 7.91531 -3.35
    endloop
  endfacet
  facet normal -0.773012 0.634391 0
    outer loop
      vertex 3.22218 7.91531 3.35
      vertex 3.08539 7.74863 -3.35
      vertex 3.08539 7.74863 3.35
    endloop
  endfacet
  facet normal -0.634351 0.773045 0
    outer loop
      vertex 3.38889 8.05211 -3.35
      vertex 3.22218 7.91531 3.35
      vertex 3.38889 8.05211 3.35
    endloop
  endfacet
  facet normal -0.634351 0.773045 0
    outer loop
      vertex 3.22218 7.91531 3.35
      vertex 3.38889 8.05211 -3.35
      vertex 3.22218 7.91531 -3.35
    endloop
  endfacet
  facet normal -0.471404 0.881917 0
    outer loop
      vertex 3.57906 8.15376 -3.35
      vertex 3.38889 8.05211 3.35
      vertex 3.57906 8.15376 3.35
    endloop
  endfacet
  facet normal -0.471404 0.881917 0
    outer loop
      vertex 3.38889 8.05211 3.35
      vertex 3.57906 8.15376 -3.35
      vertex 3.38889 8.05211 -3.35
    endloop
  endfacet
  facet normal -0.290248 0.956951 0
    outer loop
      vertex 3.78542 8.21635 -3.35
      vertex 3.57906 8.15376 3.35
      vertex 3.78542 8.21635 3.35
    endloop
  endfacet
  facet normal -0.290248 0.956951 0
    outer loop
      vertex 3.57906 8.15376 3.35
      vertex 3.78542 8.21635 -3.35
      vertex 3.57906 8.15376 -3.35
    endloop
  endfacet
  facet normal -0.0980434 0.995182 0
    outer loop
      vertex 4 8.23749 -3.35
      vertex 3.78542 8.21635 3.35
      vertex 4 8.23749 3.35
    endloop
  endfacet
  facet normal -0.0980434 0.995182 0
    outer loop
      vertex 3.78542 8.21635 3.35
      vertex 4 8.23749 -3.35
      vertex 3.78542 8.21635 -3.35
    endloop
  endfacet
  facet normal 0.0980343 0.995183 -0
    outer loop
      vertex 4.2146 8.21635 -3.35
      vertex 4 8.23749 3.35
      vertex 4.2146 8.21635 3.35
    endloop
  endfacet
  facet normal 0.0980343 0.995183 0
    outer loop
      vertex 4 8.23749 3.35
      vertex 4.2146 8.21635 -3.35
      vertex 4 8.23749 -3.35
    endloop
  endfacet
  facet normal 0.290248 0.956951 -0
    outer loop
      vertex 4.42096 8.15376 -3.35
      vertex 4.2146 8.21635 3.35
      vertex 4.42096 8.15376 3.35
    endloop
  endfacet
  facet normal 0.290248 0.956951 0
    outer loop
      vertex 4.2146 8.21635 3.35
      vertex 4.42096 8.15376 -3.35
      vertex 4.2146 8.21635 -3.35
    endloop
  endfacet
  facet normal 0.471404 0.881917 -0
    outer loop
      vertex 4.61113 8.05211 -3.35
      vertex 4.42096 8.15376 3.35
      vertex 4.61113 8.05211 3.35
    endloop
  endfacet
  facet normal 0.471404 0.881917 0
    outer loop
      vertex 4.42096 8.15376 3.35
      vertex 4.61113 8.05211 -3.35
      vertex 4.42096 8.15376 -3.35
    endloop
  endfacet
  facet normal 0.634373 0.773027 -0
    outer loop
      vertex 4.77783 7.91531 -3.35
      vertex 4.61113 8.05211 3.35
      vertex 4.77783 7.91531 3.35
    endloop
  endfacet
  facet normal 0.634373 0.773027 0
    outer loop
      vertex 4.61113 8.05211 3.35
      vertex 4.77783 7.91531 -3.35
      vertex 4.61113 8.05211 -3.35
    endloop
  endfacet
  facet normal 0.772989 0.634419 0
    outer loop
      vertex 4.91463 7.74863 3.35
      vertex 4.77783 7.91531 -3.35
      vertex 4.77783 7.91531 3.35
    endloop
  endfacet
  facet normal 0.772989 0.634419 0
    outer loop
      vertex 4.77783 7.91531 -3.35
      vertex 4.91463 7.74863 3.35
      vertex 4.91463 7.74863 -3.35
    endloop
  endfacet
  facet normal 0.881957 0.471329 0
    outer loop
      vertex 5.01627 7.55844 3.35
      vertex 4.91463 7.74863 -3.35
      vertex 4.91463 7.74863 3.35
    endloop
  endfacet
  facet normal 0.881957 0.471329 0
    outer loop
      vertex 4.91463 7.74863 -3.35
      vertex 5.01627 7.55844 3.35
      vertex 5.01627 7.55844 -3.35
    endloop
  endfacet
  facet normal 0.956944 0.290274 0
    outer loop
      vertex 5.07886 7.3521 3.35
      vertex 5.01627 7.55844 -3.35
      vertex 5.01627 7.55844 3.35
    endloop
  endfacet
  facet normal 0.956944 0.290274 0
    outer loop
      vertex 5.01627 7.55844 -3.35
      vertex 5.07886 7.3521 3.35
      vertex 5.07886 7.3521 -3.35
    endloop
  endfacet
  facet normal 0.995188 0.0979884 0
    outer loop
      vertex 5.09999 7.1375 3.35
      vertex 5.07886 7.3521 -3.35
      vertex 5.07886 7.3521 3.35
    endloop
  endfacet
  facet normal 0.995188 0.0979884 0
    outer loop
      vertex 5.07886 7.3521 -3.35
      vertex 5.09999 7.1375 3.35
      vertex 5.09999 7.1375 -3.35
    endloop
  endfacet
  facet normal 1 -0 0
    outer loop
      vertex 5.09999 1 3.35
      vertex 5.09999 7.1375 -3.35
      vertex 5.09999 7.1375 3.35
    endloop
  endfacet
  facet normal 1 0 0
    outer loop
      vertex 5.09999 7.1375 -3.35
      vertex 5.09999 1 3.35
      vertex 5.09999 1 -3.35
    endloop
  endfacet
  facet normal 0 1 -0
    outer loop
      vertex 6 1 -3.35
      vertex 5.09999 1 3.35
      vertex 6 1 3.35
    endloop
  endfacet
  facet normal 0 1 0
    outer loop
      vertex 5.09999 1 3.35
      vertex 6 1 -3.35
      vertex 5.09999 1 -3.35
    endloop
  endfacet
  facet normal 0.411619 0.911356 -0
    outer loop
      vertex 7.19133 0.461929 -3.35
      vertex 6 1 3.35
      vertex 7.19133 0.461929 3.35
    endloop
  endfacet
  facet normal 0.411619 0.911356 0
    outer loop
      vertex 6 1 3.35
      vertex 7.19133 0.461929 -3.35
      vertex 6 1 -3.35
    endloop
  endfacet
  facet normal 0.471396 0.881922 -0
    outer loop
      vertex 7.27777 0.415726 -3.35
      vertex 7.19133 0.461929 3.35
      vertex 7.27777 0.415726 3.35
    endloop
  endfacet
  facet normal 0.471396 0.881922 0
    outer loop
      vertex 7.19133 0.461929 3.35
      vertex 7.27777 0.415726 -3.35
      vertex 7.19133 0.461929 -3.35
    endloop
  endfacet
  facet normal 0.634326 0.773066 -0
    outer loop
      vertex 7.35355 0.353546 -3.35
      vertex 7.27777 0.415726 3.35
      vertex 7.35355 0.353546 3.35
    endloop
  endfacet
  facet normal 0.634326 0.773066 0
    outer loop
      vertex 7.27777 0.415726 3.35
      vertex 7.35355 0.353546 -3.35
      vertex 7.27777 0.415726 -3.35
    endloop
  endfacet
  facet normal 0.773045 0.634351 0
    outer loop
      vertex 7.41573 0.277771 3.35
      vertex 7.35355 0.353546 -3.35
      vertex 7.35355 0.353546 3.35
    endloop
  endfacet
  facet normal 0.773045 0.634351 0
    outer loop
      vertex 7.35355 0.353546 -3.35
      vertex 7.41573 0.277771 3.35
      vertex 7.41573 0.277771 -3.35
    endloop
  endfacet
  facet normal 0.881937 0.471368 0
    outer loop
      vertex 7.46193 0.19133 3.35
      vertex 7.41573 0.277771 -3.35
      vertex 7.41573 0.277771 3.35
    endloop
  endfacet
  facet normal 0.881937 0.471368 0
    outer loop
      vertex 7.41573 0.277771 -3.35
      vertex 7.46193 0.19133 3.35
      vertex 7.46193 0.19133 -3.35
    endloop
  endfacet
  facet normal 0.956919 0.290353 0
    outer loop
      vertex 7.49039 0.0975342 3.35
      vertex 7.46193 0.19133 -3.35
      vertex 7.46193 0.19133 3.35
    endloop
  endfacet
  facet normal 0.956919 0.290353 0
    outer loop
      vertex 7.46193 0.19133 -3.35
      vertex 7.49039 0.0975342 3.35
      vertex 7.49039 0.0975342 -3.35
    endloop
  endfacet
  facet normal 0.995181 0.0980547 0
    outer loop
      vertex 7.5 0 3.35
      vertex 7.49039 0.0975342 -3.35
      vertex 7.49039 0.0975342 3.35
    endloop
  endfacet
  facet normal 0.995181 0.0980547 0
    outer loop
      vertex 7.49039 0.0975342 -3.35
      vertex 7.5 0 3.35
      vertex 7.5 0 -3.35
    endloop
  endfacet
  facet normal 0.995181 -0.0980547 0
    outer loop
      vertex 7.49039 -0.0975342 3.35
      vertex 7.5 0 -3.35
      vertex 7.5 0 3.35
    endloop
  endfacet
  facet normal 0.995181 -0.0980547 0
    outer loop
      vertex 7.5 0 -3.35
      vertex 7.49039 -0.0975342 3.35
      vertex 7.49039 -0.0975342 -3.35
    endloop
  endfacet
  facet normal 0.956919 -0.290353 0
    outer loop
      vertex 7.46193 -0.19133 3.35
      vertex 7.49039 -0.0975342 -3.35
      vertex 7.49039 -0.0975342 3.35
    endloop
  endfacet
  facet normal 0.956919 -0.290353 0
    outer loop
      vertex 7.49039 -0.0975342 -3.35
      vertex 7.46193 -0.19133 3.35
      vertex 7.46193 -0.19133 -3.35
    endloop
  endfacet
  facet normal 0.881937 -0.471368 0
    outer loop
      vertex 7.41573 -0.277771 3.35
      vertex 7.46193 -0.19133 -3.35
      vertex 7.46193 -0.19133 3.35
    endloop
  endfacet
  facet normal 0.881937 -0.471368 0
    outer loop
      vertex 7.46193 -0.19133 -3.35
      vertex 7.41573 -0.277771 3.35
      vertex 7.41573 -0.277771 -3.35
    endloop
  endfacet
  facet normal 0.773045 -0.634351 0
    outer loop
      vertex 7.35355 -0.353546 3.35
      vertex 7.41573 -0.277771 -3.35
      vertex 7.41573 -0.277771 3.35
    endloop
  endfacet
  facet normal 0.773045 -0.634351 0
    outer loop
      vertex 7.41573 -0.277771 -3.35
      vertex 7.35355 -0.353546 3.35
      vertex 7.35355 -0.353546 -3.35
    endloop
  endfacet
  facet normal 0.634326 -0.773066 0
    outer loop
      vertex 7.27777 -0.415726 -3.35
      vertex 7.35355 -0.353546 3.35
      vertex 7.27777 -0.415726 3.35
    endloop
  endfacet
  facet normal 0.634326 -0.773066 0
    outer loop
      vertex 7.35355 -0.353546 3.35
      vertex 7.27777 -0.415726 -3.35
      vertex 7.35355 -0.353546 -3.35
    endloop
  endfacet
  facet normal 0.471396 -0.881922 0
    outer loop
      vertex 7.19133 -0.461929 -3.35
      vertex 7.27777 -0.415726 3.35
      vertex 7.19133 -0.461929 3.35
    endloop
  endfacet
  facet normal 0.471396 -0.881922 0
    outer loop
      vertex 7.27777 -0.415726 3.35
      vertex 7.19133 -0.461929 -3.35
      vertex 7.27777 -0.415726 -3.35
    endloop
  endfacet
  facet normal 0.411619 -0.911356 0
    outer loop
      vertex 6 -1 -3.35
      vertex 7.19133 -0.461929 3.35
      vertex 6 -1 3.35
    endloop
  endfacet
  facet normal 0.411619 -0.911356 0
    outer loop
      vertex 7.19133 -0.461929 3.35
      vertex 6 -1 -3.35
      vertex 7.19133 -0.461929 -3.35
    endloop
  endfacet
  facet normal 0 -1 0
    outer loop
      vertex 5.09999 -1 -3.35
      vertex 6 -1 3.35
      vertex 5.09999 -1 3.35
    endloop
  endfacet
  facet normal 0 -1 -0
    outer loop
      vertex 6 -1 3.35
      vertex 5.09999 -1 -3.35
      vertex 6 -1 -3.35
    endloop
  endfacet
  facet normal 1 -0 0
    outer loop
      vertex 5.09999 -7.1375 3.35
      vertex 5.09999 -1 -3.35
      vertex 5.09999 -1 3.35
    endloop
  endfacet
  facet normal 1 0 0
    outer loop
      vertex 5.09999 -1 -3.35
      vertex 5.09999 -7.1375 3.35
      vertex 5.09999 -7.1375 -3.35
    endloop
  endfacet
  facet normal 0.995188 -0.0979884 0
    outer loop
      vertex 5.07886 -7.3521 3.35
      vertex 5.09999 -7.1375 -3.35
      vertex 5.09999 -7.1375 3.35
    endloop
  endfacet
  facet normal 0.995188 -0.0979884 0
    outer loop
      vertex 5.09999 -7.1375 -3.35
      vertex 5.07886 -7.3521 3.35
      vertex 5.07886 -7.3521 -3.35
    endloop
  endfacet
  facet normal 0.956944 -0.290274 0
    outer loop
      vertex 5.01627 -7.55844 3.35
      vertex 5.07886 -7.3521 -3.35
      vertex 5.07886 -7.3521 3.35
    endloop
  endfacet
  facet normal 0.956944 -0.290274 0
    outer loop
      vertex 5.07886 -7.3521 -3.35
      vertex 5.01627 -7.55844 3.35
      vertex 5.01627 -7.55844 -3.35
    endloop
  endfacet
  facet normal 0.881957 -0.471329 0
    outer loop
      vertex 4.91463 -7.74863 3.35
      vertex 5.01627 -7.55844 -3.35
      vertex 5.01627 -7.55844 3.35
    endloop
  endfacet
  facet normal 0.881957 -0.471329 0
    outer loop
      vertex 5.01627 -7.55844 -3.35
      vertex 4.91463 -7.74863 3.35
      vertex 4.91463 -7.74863 -3.35
    endloop
  endfacet
  facet normal 0.772989 -0.634419 0
    outer loop
      vertex 4.77783 -7.91531 3.35
      vertex 4.91463 -7.74863 -3.35
      vertex 4.91463 -7.74863 3.35
    endloop
  endfacet
  facet normal 0.772989 -0.634419 0
    outer loop
      vertex 4.91463 -7.74863 -3.35
      vertex 4.77783 -7.91531 3.35
      vertex 4.77783 -7.91531 -3.35
    endloop
  endfacet
  facet normal 0.634373 -0.773027 0
    outer loop
      vertex 4.61113 -8.05211 -3.35
      vertex 4.77783 -7.91531 3.35
      vertex 4.61113 -8.05211 3.35
    endloop
  endfacet
  facet normal 0.634373 -0.773027 0
    outer loop
      vertex 4.77783 -7.91531 3.35
      vertex 4.61113 -8.05211 -3.35
      vertex 4.77783 -7.91531 -3.35
    endloop
  endfacet
  facet normal 0.471404 -0.881917 0
    outer loop
      vertex 4.42096 -8.15376 -3.35
      vertex 4.61113 -8.05211 3.35
      vertex 4.42096 -8.15376 3.35
    endloop
  endfacet
  facet normal 0.471404 -0.881917 0
    outer loop
      vertex 4.61113 -8.05211 3.35
      vertex 4.42096 -8.15376 -3.35
      vertex 4.61113 -8.05211 -3.35
    endloop
  endfacet
  facet normal 0.290248 -0.956951 0
    outer loop
      vertex 4.2146 -8.21635 -3.35
      vertex 4.42096 -8.15376 3.35
      vertex 4.2146 -8.21635 3.35
    endloop
  endfacet
  facet normal 0.290248 -0.956951 0
    outer loop
      vertex 4.42096 -8.15376 3.35
      vertex 4.2146 -8.21635 -3.35
      vertex 4.42096 -8.15376 -3.35
    endloop
  endfacet
  facet normal 0.0980343 -0.995183 0
    outer loop
      vertex 4 -8.23749 -3.35
      vertex 4.2146 -8.21635 3.35
      vertex 4 -8.23749 3.35
    endloop
  endfacet
  facet normal 0.0980343 -0.995183 0
    outer loop
      vertex 4.2146 -8.21635 3.35
      vertex 4 -8.23749 -3.35
      vertex 4.2146 -8.21635 -3.35
    endloop
  endfacet
  facet normal -0.0980434 -0.995182 0
    outer loop
      vertex 3.78542 -8.21635 -3.35
      vertex 4 -8.23749 3.35
      vertex 3.78542 -8.21635 3.35
    endloop
  endfacet
  facet normal -0.0980434 -0.995182 -0
    outer loop
      vertex 4 -8.23749 3.35
      vertex 3.78542 -8.21635 -3.35
      vertex 4 -8.23749 -3.35
    endloop
  endfacet
  facet normal -0.290248 -0.956951 0
    outer loop
      vertex 3.57906 -8.15376 -3.35
      vertex 3.78542 -8.21635 3.35
      vertex 3.57906 -8.15376 3.35
    endloop
  endfacet
  facet normal -0.290248 -0.956951 -0
    outer loop
      vertex 3.78542 -8.21635 3.35
      vertex 3.57906 -8.15376 -3.35
      vertex 3.78542 -8.21635 -3.35
    endloop
  endfacet
  facet normal -0.471404 -0.881917 0
    outer loop
      vertex 3.38889 -8.05211 -3.35
      vertex 3.57906 -8.15376 3.35
      vertex 3.38889 -8.05211 3.35
    endloop
  endfacet
  facet normal -0.471404 -0.881917 -0
    outer loop
      vertex 3.57906 -8.15376 3.35
      vertex 3.38889 -8.05211 -3.35
      vertex 3.57906 -8.15376 -3.35
    endloop
  endfacet
  facet normal -0.634351 -0.773045 0
    outer loop
      vertex 3.22218 -7.91531 -3.35
      vertex 3.38889 -8.05211 3.35
      vertex 3.22218 -7.91531 3.35
    endloop
  endfacet
  facet normal -0.634351 -0.773045 -0
    outer loop
      vertex 3.38889 -8.05211 3.35
      vertex 3.22218 -7.91531 -3.35
      vertex 3.38889 -8.05211 -3.35
    endloop
  endfacet
  facet normal -0.773012 -0.634391 0
    outer loop
      vertex 3.22218 -7.91531 -3.35
      vertex 3.08539 -7.74863 3.35
      vertex 3.08539 -7.74863 -3.35
    endloop
  endfacet
  facet normal -0.773012 -0.634391 0
    outer loop
      vertex 3.08539 -7.74863 3.35
      vertex 3.22218 -7.91531 -3.35
      vertex 3.22218 -7.91531 3.35
    endloop
  endfacet
  facet normal -0.881919 -0.471402 0
    outer loop
      vertex 3.08539 -7.74863 -3.35
      vertex 2.98373 -7.55844 3.35
      vertex 2.98373 -7.55844 -3.35
    endloop
  endfacet
  facet normal -0.881919 -0.471402 0
    outer loop
      vertex 2.98373 -7.55844 3.35
      vertex 3.08539 -7.74863 -3.35
      vertex 3.08539 -7.74863 3.35
    endloop
  endfacet
  facet normal -0.956944 -0.290274 0
    outer loop
      vertex 2.98373 -7.55844 -3.35
      vertex 2.92114 -7.3521 3.35
      vertex 2.92114 -7.3521 -3.35
    endloop
  endfacet
  facet normal -0.956944 -0.290274 0
    outer loop
      vertex 2.92114 -7.3521 3.35
      vertex 2.98373 -7.55844 -3.35
      vertex 2.98373 -7.55844 3.35
    endloop
  endfacet
  facet normal -0.995188 -0.0979884 0
    outer loop
      vertex 2.92114 -7.3521 -3.35
      vertex 2.90001 -7.1375 3.35
      vertex 2.90001 -7.1375 -3.35
    endloop
  endfacet
  facet normal -0.995188 -0.0979884 0
    outer loop
      vertex 2.90001 -7.1375 3.35
      vertex 2.92114 -7.3521 -3.35
      vertex 2.92114 -7.3521 3.35
    endloop
  endfacet
  facet normal -1 0 0
    outer loop
      vertex 2.90001 -7.1375 -3.35
      vertex 2.90001 7.1375 3.35
      vertex 2.90001 7.1375 -3.35
    endloop
  endfacet
  facet normal -1 -0 0
    outer loop
      vertex 2.90001 7.1375 3.35
      vertex 2.90001 -7.1375 -3.35
      vertex 2.90001 -7.1375 3.35
    endloop
  endfacet
  facet normal -0.995188 0.0979884 0
    outer loop
      vertex 2.90001 7.1375 -3.35
      vertex 2.92114 7.3521 3.35
      vertex 2.92114 7.3521 -3.35
    endloop
  endfacet
  facet normal -0.995188 0.0979884 0
    outer loop
      vertex 2.92114 7.3521 3.35
      vertex 2.90001 7.1375 -3.35
      vertex 2.90001 7.1375 3.35
    endloop
  endfacet
endsolid OpenSCAD_Model
