solid OpenSCAD_Model
  facet normal -0 0 1
    outer loop
      vertex -5 7.1375 3.35
      vertex -3 1 3.35
      vertex -3 7.1375 3.35
    endloop
  endfacet
  facet normal 0 0 1
    outer loop
      vertex -3 1 3.35
      vertex -5 7.1375 3.35
      vertex -3 -1 3.35
    endloop
  endfacet
  facet normal 0 0 1
    outer loop
      vertex -5 7.1375 3.35
      vertex -3 7.1375 3.35
      vertex -3.01921 7.33258 3.35
    endloop
  endfacet
  facet normal 0 0 1
    outer loop
      vertex -5 -7.1375 3.35
      vertex -3 -1 3.35
      vertex -5 7.1375 3.35
    endloop
  endfacet
  facet normal 0 0 1
    outer loop
      vertex -5 7.1375 3.35
      vertex -3.01921 7.33258 3.35
      vertex -3.07611 7.52017 3.35
    endloop
  endfacet
  facet normal 0 0 1
    outer loop
      vertex -3 -1 3.35
      vertex -5 -7.1375 3.35
      vertex -3 -7.1375 3.35
    endloop
  endfacet
  facet normal 0 0 1
    outer loop
      vertex -5 7.1375 3.35
      vertex -3.07611 7.52017 3.35
      vertex -3.16852 7.69307 3.35
    endloop
  endfacet
  facet normal 0 0 1
    outer loop
      vertex -3 -7.1375 3.35
      vertex -5 -7.1375 3.35
      vertex -3.01921 -7.33258 3.35
    endloop
  endfacet
  facet normal 0 0 1
    outer loop
      vertex -5 7.1375 3.35
      vertex -3.16852 7.69307 3.35
      vertex -3.29289 7.8446 3.35
    endloop
  endfacet
  facet normal 0 0 1
    outer loop
      vertex -3.01921 -7.33258 3.35
      vertex -5 -7.1375 3.35
      vertex -3.07611 -7.52017 3.35
    endloop
  endfacet
  facet normal 0 0 1
    outer loop
      vertex -5 7.1375 3.35
      vertex -3.29289 7.8446 3.35
      vertex -3.44443 7.96896 3.35
    endloop
  endfacet
  facet normal 0 0 1
    outer loop
      vertex -3.07611 -7.52017 3.35
      vertex -5 -7.1375 3.35
      vertex -3.16852 -7.69307 3.35
    endloop
  endfacet
  facet normal 0 0 1
    outer loop
      vertex -5 7.1375 3.35
      vertex -3.44443 7.96896 3.35
      vertex -3.61731 8.06137 3.35
    endloop
  endfacet
  facet normal 0 0 1
    outer loop
      vertex -3.16852 -7.69307 3.35
      vertex -5 -7.1375 3.35
      vertex -3.29289 -7.8446 3.35
    endloop
  endfacet
  facet normal 0 0 1
    outer loop
      vertex -5 7.1375 3.35
      vertex -3.61731 8.06137 3.35
      vertex -3.8049 8.11827 3.35
    endloop
  endfacet
  facet normal 0 0 1
    outer loop
      vertex -3.29289 -7.8446 3.35
      vertex -5 -7.1375 3.35
      vertex -3.44443 -7.96896 3.35
    endloop
  endfacet
  facet normal 0 0 1
    outer loop
      vertex -5 7.1375 3.35
      vertex -3.8049 8.11827 3.35
      vertex -4 8.1375 3.35
    endloop
  endfacet
  facet normal 0 0 1
    outer loop
      vertex -3.44443 -7.96896 3.35
      vertex -5 -7.1375 3.35
      vertex -3.61731 -8.06137 3.35
    endloop
  endfacet
  facet normal 0 0 1
    outer loop
      vertex -5 7.1375 3.35
      vertex -4 8.1375 3.35
      vertex -4.19508 8.11827 3.35
    endloop
  endfacet
  facet normal 0 0 1
    outer loop
      vertex -3.61731 -8.06137 3.35
      vertex -5 -7.1375 3.35
      vertex -3.8049 -8.11827 3.35
    endloop
  endfacet
  facet normal 0 0 1
    outer loop
      vertex -5 7.1375 3.35
      vertex -4.19508 8.11827 3.35
      vertex -4.38268 8.06137 3.35
    endloop
  endfacet
  facet normal 0 0 1
    outer loop
      vertex -3.8049 -8.11827 3.35
      vertex -5 -7.1375 3.35
      vertex -4 -8.1375 3.35
    endloop
  endfacet
  facet normal 0 0 1
    outer loop
      vertex -5 7.1375 3.35
      vertex -4.38268 8.06137 3.35
      vertex -4.55556 7.96896 3.35
    endloop
  endfacet
  facet normal 0 0 1
    outer loop
      vertex -4 -8.1375 3.35
      vertex -5 -7.1375 3.35
      vertex -4.19508 -8.11827 3.35
    endloop
  endfacet
  facet normal 0 0 1
    outer loop
      vertex -5 7.1375 3.35
      vertex -4.55556 7.96896 3.35
      vertex -4.70709 7.8446 3.35
    endloop
  endfacet
  facet normal 0 0 1
    outer loop
      vertex -4.19508 -8.11827 3.35
      vertex -5 -7.1375 3.35
      vertex -4.38268 -8.06137 3.35
    endloop
  endfacet
  facet normal 0 0 1
    outer loop
      vertex -5 7.1375 3.35
      vertex -4.70709 7.8446 3.35
      vertex -4.83147 7.69307 3.35
    endloop
  endfacet
  facet normal 0 0 1
    outer loop
      vertex -4.38268 -8.06137 3.35
      vertex -5 -7.1375 3.35
      vertex -4.55556 -7.96896 3.35
    endloop
  endfacet
  facet normal 0 0 1
    outer loop
      vertex -5 7.1375 3.35
      vertex -4.83147 7.69307 3.35
      vertex -4.92387 7.52017 3.35
    endloop
  endfacet
  facet normal 0 0 1
    outer loop
      vertex -4.55556 -7.96896 3.35
      vertex -5 -7.1375 3.35
      vertex -4.70709 -7.8446 3.35
    endloop
  endfacet
  facet normal 0 0 1
    outer loop
      vertex -5 7.1375 3.35
      vertex -4.92387 7.52017 3.35
      vertex -4.98077 7.33258 3.35
    endloop
  endfacet
  facet normal 0 0 1
    outer loop
      vertex -4.70709 -7.8446 3.35
      vertex -5 -7.1375 3.35
      vertex -4.83147 -7.69307 3.35
    endloop
  endfacet
  facet normal 0 0 1
    outer loop
      vertex -4.83147 -7.69307 3.35
      vertex -5 -7.1375 3.35
      vertex -4.92387 -7.52017 3.35
    endloop
  endfacet
  facet normal 0 0 1
    outer loop
      vertex -4.92387 -7.52017 3.35
      vertex -5 -7.1375 3.35
      vertex -4.98077 -7.33258 3.35
    endloop
  endfacet
  facet normal 0 0 1
    outer loop
      vertex 0.990387 0.0975342 3.35
      vertex 0.990387 -0.0975342 3.35
      vertex 1 0 3.35
    endloop
  endfacet
  facet normal 0 0 1
    outer loop
      vertex 0.961929 0.19133 3.35
      vertex 0.990387 -0.0975342 3.35
      vertex 0.990387 0.0975342 3.35
    endloop
  endfacet
  facet normal 0 0 1
    outer loop
      vertex 0.961929 0.19133 3.35
      vertex 0.961929 -0.19133 3.35
      vertex 0.990387 -0.0975342 3.35
    endloop
  endfacet
  facet normal 0 0 1
    outer loop
      vertex 0.915726 0.277771 3.35
      vertex 0.961929 -0.19133 3.35
      vertex 0.961929 0.19133 3.35
    endloop
  endfacet
  facet normal 0 0 1
    outer loop
      vertex 0.915726 0.277771 3.35
      vertex 0.915726 -0.277771 3.35
      vertex 0.961929 -0.19133 3.35
    endloop
  endfacet
  facet normal 0 0 1
    outer loop
      vertex 0.853546 0.353546 3.35
      vertex 0.915726 -0.277771 3.35
      vertex 0.915726 0.277771 3.35
    endloop
  endfacet
  facet normal 0 0 1
    outer loop
      vertex 0.853546 0.353546 3.35
      vertex 0.853546 -0.353546 3.35
      vertex 0.915726 -0.277771 3.35
    endloop
  endfacet
  facet normal 0 0 1
    outer loop
      vertex 0.777771 0.415726 3.35
      vertex 0.853546 -0.353546 3.35
      vertex 0.853546 0.353546 3.35
    endloop
  endfacet
  facet normal 0 0 1
    outer loop
      vertex 0.777771 0.415726 3.35
      vertex 0.777771 -0.415726 3.35
      vertex 0.853546 -0.353546 3.35
    endloop
  endfacet
  facet normal 0 0 1
    outer loop
      vertex 0.69133 0.461929 3.35
      vertex 0.777771 -0.415726 3.35
      vertex 0.777771 0.415726 3.35
    endloop
  endfacet
  facet normal 0 0 1
    outer loop
      vertex 0.69133 0.461929 3.35
      vertex 0.69133 -0.461929 3.35
      vertex 0.777771 -0.415726 3.35
    endloop
  endfacet
  facet normal 0 0 1
    outer loop
      vertex -0.5 1 3.35
      vertex 0.69133 -0.461929 3.35
      vertex 0.69133 0.461929 3.35
    endloop
  endfacet
  facet normal 0 0 1
    outer loop
      vertex -0.5 1 3.35
      vertex -0.5 -1 3.35
      vertex 0.69133 -0.461929 3.35
    endloop
  endfacet
  facet normal -0 0 1
    outer loop
      vertex -3 1 3.35
      vertex -0.5 -1 3.35
      vertex -0.5 1 3.35
    endloop
  endfacet
  facet normal 0 0 1
    outer loop
      vertex -0.5 -1 3.35
      vertex -3 1 3.35
      vertex -3 -1 3.35
    endloop
  endfacet
  facet normal 0 0 -1
    outer loop
      vertex -5 -7.1375 -3.35
      vertex -3 -1 -3.35
      vertex -3 -7.1375 -3.35
    endloop
  endfacet
  facet normal -0 0 -1
    outer loop
      vertex -3 -1 -3.35
      vertex -5 -7.1375 -3.35
      vertex -3 1 -3.35
    endloop
  endfacet
  facet normal 0 0 -1
    outer loop
      vertex -5 -7.1375 -3.35
      vertex -3 -7.1375 -3.35
      vertex -3.01921 -7.33258 -3.35
    endloop
  endfacet
  facet normal 0 0 -1
    outer loop
      vertex -5 7.1375 -3.35
      vertex -3 1 -3.35
      vertex -5 -7.1375 -3.35
    endloop
  endfacet
  facet normal 0 0 -1
    outer loop
      vertex -5 -7.1375 -3.35
      vertex -3.01921 -7.33258 -3.35
      vertex -3.07611 -7.52017 -3.35
    endloop
  endfacet
  facet normal 0 0 -1
    outer loop
      vertex -3 1 -3.35
      vertex -5 7.1375 -3.35
      vertex -3 7.1375 -3.35
    endloop
  endfacet
  facet normal 0 0 -1
    outer loop
      vertex -5 -7.1375 -3.35
      vertex -3.07611 -7.52017 -3.35
      vertex -3.16852 -7.69307 -3.35
    endloop
  endfacet
  facet normal 0 0 -1
    outer loop
      vertex -3 7.1375 -3.35
      vertex -5 7.1375 -3.35
      vertex -3.01921 7.33258 -3.35
    endloop
  endfacet
  facet normal 0 0 -1
    outer loop
      vertex -5 -7.1375 -3.35
      vertex -3.16852 -7.69307 -3.35
      vertex -3.29289 -7.8446 -3.35
    endloop
  endfacet
  facet normal -0 0 -1
    outer loop
      vertex -3.01921 7.33258 -3.35
      vertex -5 7.1375 -3.35
      vertex -3.07611 7.52017 -3.35
    endloop
  endfacet
  facet normal 0 0 -1
    outer loop
      vertex -5 -7.1375 -3.35
      vertex -3.29289 -7.8446 -3.35
      vertex -3.44443 -7.96896 -3.35
    endloop
  endfacet
  facet normal -0 0 -1
    outer loop
      vertex -3.07611 7.52017 -3.35
      vertex -5 7.1375 -3.35
      vertex -3.16852 7.69307 -3.35
    endloop
  endfacet
  facet normal 0 0 -1
    outer loop
      vertex -5 -7.1375 -3.35
      vertex -3.44443 -7.96896 -3.35
      vertex -3.61731 -8.06137 -3.35
    endloop
  endfacet
  facet normal -0 0 -1
    outer loop
      vertex -3.16852 7.69307 -3.35
      vertex -5 7.1375 -3.35
      vertex -3.29289 7.8446 -3.35
    endloop
  endfacet
  facet normal 0 0 -1
    outer loop
      vertex -5 -7.1375 -3.35
      vertex -3.61731 -8.06137 -3.35
      vertex -3.8049 -8.11827 -3.35
    endloop
  endfacet
  facet normal -0 0 -1
    outer loop
      vertex -3.29289 7.8446 -3.35
      vertex -5 7.1375 -3.35
      vertex -3.44443 7.96896 -3.35
    endloop
  endfacet
  facet normal 0 0 -1
    outer loop
      vertex -5 -7.1375 -3.35
      vertex -3.8049 -8.11827 -3.35
      vertex -4 -8.1375 -3.35
    endloop
  endfacet
  facet normal -0 0 -1
    outer loop
      vertex -3.44443 7.96896 -3.35
      vertex -5 7.1375 -3.35
      vertex -3.61731 8.06137 -3.35
    endloop
  endfacet
  facet normal 0 0 -1
    outer loop
      vertex -5 -7.1375 -3.35
      vertex -4 -8.1375 -3.35
      vertex -4.19508 -8.11827 -3.35
    endloop
  endfacet
  facet normal -0 0 -1
    outer loop
      vertex -3.61731 8.06137 -3.35
      vertex -5 7.1375 -3.35
      vertex -3.8049 8.11827 -3.35
    endloop
  endfacet
  facet normal 0 0 -1
    outer loop
      vertex -5 -7.1375 -3.35
      vertex -4.19508 -8.11827 -3.35
      vertex -4.38268 -8.06137 -3.35
    endloop
  endfacet
  facet normal -0 0 -1
    outer loop
      vertex -3.8049 8.11827 -3.35
      vertex -5 7.1375 -3.35
      vertex -4 8.1375 -3.35
    endloop
  endfacet
  facet normal 0 0 -1
    outer loop
      vertex -5 -7.1375 -3.35
      vertex -4.38268 -8.06137 -3.35
      vertex -4.55556 -7.96896 -3.35
    endloop
  endfacet
  facet normal 0 0 -1
    outer loop
      vertex -4 8.1375 -3.35
      vertex -5 7.1375 -3.35
      vertex -4.19508 8.11827 -3.35
    endloop
  endfacet
  facet normal 0 0 -1
    outer loop
      vertex -5 -7.1375 -3.35
      vertex -4.55556 -7.96896 -3.35
      vertex -4.70709 -7.8446 -3.35
    endloop
  endfacet
  facet normal 0 0 -1
    outer loop
      vertex -4.19508 8.11827 -3.35
      vertex -5 7.1375 -3.35
      vertex -4.38268 8.06137 -3.35
    endloop
  endfacet
  facet normal 0 0 -1
    outer loop
      vertex -5 -7.1375 -3.35
      vertex -4.70709 -7.8446 -3.35
      vertex -4.83147 -7.69307 -3.35
    endloop
  endfacet
  facet normal 0 0 -1
    outer loop
      vertex -4.38268 8.06137 -3.35
      vertex -5 7.1375 -3.35
      vertex -4.55556 7.96896 -3.35
    endloop
  endfacet
  facet normal 0 0 -1
    outer loop
      vertex -5 -7.1375 -3.35
      vertex -4.83147 -7.69307 -3.35
      vertex -4.92387 -7.52017 -3.35
    endloop
  endfacet
  facet normal 0 0 -1
    outer loop
      vertex -4.55556 7.96896 -3.35
      vertex -5 7.1375 -3.35
      vertex -4.70709 7.8446 -3.35
    endloop
  endfacet
  facet normal 0 0 -1
    outer loop
      vertex -5 -7.1375 -3.35
      vertex -4.92387 -7.52017 -3.35
      vertex -4.98077 -7.33258 -3.35
    endloop
  endfacet
  facet normal 0 0 -1
    outer loop
      vertex -4.70709 7.8446 -3.35
      vertex -5 7.1375 -3.35
      vertex -4.83147 7.69307 -3.35
    endloop
  endfacet
  facet normal 0 0 -1
    outer loop
      vertex -4.83147 7.69307 -3.35
      vertex -5 7.1375 -3.35
      vertex -4.92387 7.52017 -3.35
    endloop
  endfacet
  facet normal 0 0 -1
    outer loop
      vertex -4.92387 7.52017 -3.35
      vertex -5 7.1375 -3.35
      vertex -4.98077 7.33258 -3.35
    endloop
  endfacet
  facet normal 0 0 -1
    outer loop
      vertex 0.990387 -0.0975342 -3.35
      vertex 0.990387 0.0975342 -3.35
      vertex 1 0 -3.35
    endloop
  endfacet
  facet normal 0 0 -1
    outer loop
      vertex 0.961929 -0.19133 -3.35
      vertex 0.990387 0.0975342 -3.35
      vertex 0.990387 -0.0975342 -3.35
    endloop
  endfacet
  facet normal 0 0 -1
    outer loop
      vertex 0.961929 -0.19133 -3.35
      vertex 0.961929 0.19133 -3.35
      vertex 0.990387 0.0975342 -3.35
    endloop
  endfacet
  facet normal 0 0 -1
    outer loop
      vertex 0.915726 -0.277771 -3.35
      vertex 0.961929 0.19133 -3.35
      vertex 0.961929 -0.19133 -3.35
    endloop
  endfacet
  facet normal 0 0 -1
    outer loop
      vertex 0.915726 -0.277771 -3.35
      vertex 0.915726 0.277771 -3.35
      vertex 0.961929 0.19133 -3.35
    endloop
  endfacet
  facet normal 0 0 -1
    outer loop
      vertex 0.853546 -0.353546 -3.35
      vertex 0.915726 0.277771 -3.35
      vertex 0.915726 -0.277771 -3.35
    endloop
  endfacet
  facet normal 0 0 -1
    outer loop
      vertex 0.853546 -0.353546 -3.35
      vertex 0.853546 0.353546 -3.35
      vertex 0.915726 0.277771 -3.35
    endloop
  endfacet
  facet normal 0 0 -1
    outer loop
      vertex 0.777771 -0.415726 -3.35
      vertex 0.853546 0.353546 -3.35
      vertex 0.853546 -0.353546 -3.35
    endloop
  endfacet
  facet normal 0 0 -1
    outer loop
      vertex 0.777771 -0.415726 -3.35
      vertex 0.777771 0.415726 -3.35
      vertex 0.853546 0.353546 -3.35
    endloop
  endfacet
  facet normal 0 0 -1
    outer loop
      vertex 0.69133 -0.461929 -3.35
      vertex 0.777771 0.415726 -3.35
      vertex 0.777771 -0.415726 -3.35
    endloop
  endfacet
  facet normal 0 0 -1
    outer loop
      vertex 0.69133 -0.461929 -3.35
      vertex 0.69133 0.461929 -3.35
      vertex 0.777771 0.415726 -3.35
    endloop
  endfacet
  facet normal 0 0 -1
    outer loop
      vertex -0.5 -1 -3.35
      vertex 0.69133 0.461929 -3.35
      vertex 0.69133 -0.461929 -3.35
    endloop
  endfacet
  facet normal 0 0 -1
    outer loop
      vertex -0.5 -1 -3.35
      vertex -0.5 1 -3.35
      vertex 0.69133 0.461929 -3.35
    endloop
  endfacet
  facet normal 0 0 -1
    outer loop
      vertex -3 -1 -3.35
      vertex -0.5 1 -3.35
      vertex -0.5 -1 -3.35
    endloop
  endfacet
  facet normal -0 0 -1
    outer loop
      vertex -0.5 1 -3.35
      vertex -3 -1 -3.35
      vertex -3 1 -3.35
    endloop
  endfacet
  facet normal 0.471391 0.881924 -0
    outer loop
      vertex 0.777771 0.415726 -3.35
      vertex 0.69133 0.461929 3.35
      vertex 0.777771 0.415726 3.35
    endloop
  endfacet
  facet normal 0.471391 0.881924 0
    outer loop
      vertex 0.69133 0.461929 3.35
      vertex 0.777771 0.415726 -3.35
      vertex 0.69133 0.461929 -3.35
    endloop
  endfacet
  facet normal 0.634351 0.773045 -0
    outer loop
      vertex 0.853546 0.353546 -3.35
      vertex 0.777771 0.415726 3.35
      vertex 0.853546 0.353546 3.35
    endloop
  endfacet
  facet normal 0.634351 0.773045 0
    outer loop
      vertex 0.777771 0.415726 3.35
      vertex 0.853546 0.353546 -3.35
      vertex 0.777771 0.415726 -3.35
    endloop
  endfacet
  facet normal 0.773045 0.634351 0
    outer loop
      vertex 0.915726 0.277771 3.35
      vertex 0.853546 0.353546 -3.35
      vertex 0.853546 0.353546 3.35
    endloop
  endfacet
  facet normal 0.773045 0.634351 0
    outer loop
      vertex 0.853546 0.353546 -3.35
      vertex 0.915726 0.277771 3.35
      vertex 0.915726 0.277771 -3.35
    endloop
  endfacet
  facet normal 0.881924 0.471391 0
    outer loop
      vertex 0.961929 0.19133 3.35
      vertex 0.915726 0.277771 -3.35
      vertex 0.915726 0.277771 3.35
    endloop
  endfacet
  facet normal 0.881924 0.471391 0
    outer loop
      vertex 0.915726 0.277771 -3.35
      vertex 0.961929 0.19133 3.35
      vertex 0.961929 0.19133 -3.35
    endloop
  endfacet
  facet normal 0.956925 0.290335 0
    outer loop
      vertex 0.990387 0.0975342 3.35
      vertex 0.961929 0.19133 -3.35
      vertex 0.961929 0.19133 3.35
    endloop
  endfacet
  facet normal 0.956925 0.290335 0
    outer loop
      vertex 0.961929 0.19133 -3.35
      vertex 0.990387 0.0975342 3.35
      vertex 0.990387 0.0975342 -3.35
    endloop
  endfacet
  facet normal 0.995178 0.098085 0
    outer loop
      vertex 1 0 3.35
      vertex 0.990387 0.0975342 -3.35
      vertex 0.990387 0.0975342 3.35
    endloop
  endfacet
  facet normal 0.995178 0.098085 0
    outer loop
      vertex 0.990387 0.0975342 -3.35
      vertex 1 0 3.35
      vertex 1 0 -3.35
    endloop
  endfacet
  facet normal 0.995178 -0.098085 0
    outer loop
      vertex 0.990387 -0.0975342 3.35
      vertex 1 0 -3.35
      vertex 1 0 3.35
    endloop
  endfacet
  facet normal 0.995178 -0.098085 0
    outer loop
      vertex 1 0 -3.35
      vertex 0.990387 -0.0975342 3.35
      vertex 0.990387 -0.0975342 -3.35
    endloop
  endfacet
  facet normal 0.956925 -0.290335 0
    outer loop
      vertex 0.961929 -0.19133 3.35
      vertex 0.990387 -0.0975342 -3.35
      vertex 0.990387 -0.0975342 3.35
    endloop
  endfacet
  facet normal 0.956925 -0.290335 0
    outer loop
      vertex 0.990387 -0.0975342 -3.35
      vertex 0.961929 -0.19133 3.35
      vertex 0.961929 -0.19133 -3.35
    endloop
  endfacet
  facet normal 0.881924 -0.471391 0
    outer loop
      vertex 0.915726 -0.277771 3.35
      vertex 0.961929 -0.19133 -3.35
      vertex 0.961929 -0.19133 3.35
    endloop
  endfacet
  facet normal 0.881924 -0.471391 0
    outer loop
      vertex 0.961929 -0.19133 -3.35
      vertex 0.915726 -0.277771 3.35
      vertex 0.915726 -0.277771 -3.35
    endloop
  endfacet
  facet normal 0.773045 -0.634351 0
    outer loop
      vertex 0.853546 -0.353546 3.35
      vertex 0.915726 -0.277771 -3.35
      vertex 0.915726 -0.277771 3.35
    endloop
  endfacet
  facet normal 0.773045 -0.634351 0
    outer loop
      vertex 0.915726 -0.277771 -3.35
      vertex 0.853546 -0.353546 3.35
      vertex 0.853546 -0.353546 -3.35
    endloop
  endfacet
  facet normal 0.634351 -0.773045 0
    outer loop
      vertex 0.777771 -0.415726 -3.35
      vertex 0.853546 -0.353546 3.35
      vertex 0.777771 -0.415726 3.35
    endloop
  endfacet
  facet normal 0.634351 -0.773045 0
    outer loop
      vertex 0.853546 -0.353546 3.35
      vertex 0.777771 -0.415726 -3.35
      vertex 0.853546 -0.353546 -3.35
    endloop
  endfacet
  facet normal 0.471391 -0.881924 0
    outer loop
      vertex 0.69133 -0.461929 -3.35
      vertex 0.777771 -0.415726 3.35
      vertex 0.69133 -0.461929 3.35
    endloop
  endfacet
  facet normal 0.471391 -0.881924 0
    outer loop
      vertex 0.777771 -0.415726 3.35
      vertex 0.69133 -0.461929 -3.35
      vertex 0.777771 -0.415726 -3.35
    endloop
  endfacet
  facet normal 0.411619 -0.911356 0
    outer loop
      vertex -0.5 -1 -3.35
      vertex 0.69133 -0.461929 3.35
      vertex -0.5 -1 3.35
    endloop
  endfacet
  facet normal 0.411619 -0.911356 0
    outer loop
      vertex 0.69133 -0.461929 3.35
      vertex -0.5 -1 -3.35
      vertex 0.69133 -0.461929 -3.35
    endloop
  endfacet
  facet normal 0 -1 0
    outer loop
      vertex -3 -1 -3.35
      vertex -0.5 -1 3.35
      vertex -3 -1 3.35
    endloop
  endfacet
  facet normal 0 -1 -0
    outer loop
      vertex -0.5 -1 3.35
      vertex -3 -1 -3.35
      vertex -0.5 -1 -3.35
    endloop
  endfacet
  facet normal 1 -0 0
    outer loop
      vertex -3 -7.1375 3.35
      vertex -3 -1 -3.35
      vertex -3 -1 3.35
    endloop
  endfacet
  facet normal 1 0 0
    outer loop
      vertex -3 -1 -3.35
      vertex -3 -7.1375 3.35
      vertex -3 -7.1375 -3.35
    endloop
  endfacet
  facet normal 0.995187 -0.0979984 0
    outer loop
      vertex -3.01921 -7.33258 3.35
      vertex -3 -7.1375 -3.35
      vertex -3 -7.1375 3.35
    endloop
  endfacet
  facet normal 0.995187 -0.0979984 0
    outer loop
      vertex -3 -7.1375 -3.35
      vertex -3.01921 -7.33258 3.35
      vertex -3.01921 -7.33258 -3.35
    endloop
  endfacet
  facet normal 0.956947 -0.290262 0
    outer loop
      vertex -3.07611 -7.52017 3.35
      vertex -3.01921 -7.33258 -3.35
      vertex -3.01921 -7.33258 3.35
    endloop
  endfacet
  facet normal 0.956947 -0.290262 0
    outer loop
      vertex -3.01921 -7.33258 -3.35
      vertex -3.07611 -7.52017 3.35
      vertex -3.07611 -7.52017 -3.35
    endloop
  endfacet
  facet normal 0.881936 -0.471369 0
    outer loop
      vertex -3.16852 -7.69307 3.35
      vertex -3.07611 -7.52017 -3.35
      vertex -3.07611 -7.52017 3.35
    endloop
  endfacet
  facet normal 0.881936 -0.471369 0
    outer loop
      vertex -3.07611 -7.52017 -3.35
      vertex -3.16852 -7.69307 3.35
      vertex -3.16852 -7.69307 -3.35
    endloop
  endfacet
  facet normal 0.772979 -0.634432 0
    outer loop
      vertex -3.29289 -7.8446 3.35
      vertex -3.16852 -7.69307 -3.35
      vertex -3.16852 -7.69307 3.35
    endloop
  endfacet
  facet normal 0.772979 -0.634432 0
    outer loop
      vertex -3.16852 -7.69307 -3.35
      vertex -3.29289 -7.8446 3.35
      vertex -3.29289 -7.8446 -3.35
    endloop
  endfacet
  facet normal 0.634376 -0.773025 0
    outer loop
      vertex -3.44443 -7.96896 -3.35
      vertex -3.29289 -7.8446 3.35
      vertex -3.44443 -7.96896 3.35
    endloop
  endfacet
  facet normal 0.634376 -0.773025 0
    outer loop
      vertex -3.29289 -7.8446 3.35
      vertex -3.44443 -7.96896 -3.35
      vertex -3.29289 -7.8446 -3.35
    endloop
  endfacet
  facet normal 0.471411 -0.881913 0
    outer loop
      vertex -3.61731 -8.06137 -3.35
      vertex -3.44443 -7.96896 3.35
      vertex -3.61731 -8.06137 3.35
    endloop
  endfacet
  facet normal 0.471411 -0.881913 0
    outer loop
      vertex -3.44443 -7.96896 3.35
      vertex -3.61731 -8.06137 -3.35
      vertex -3.44443 -7.96896 -3.35
    endloop
  endfacet
  facet normal 0.290262 -0.956947 0
    outer loop
      vertex -3.8049 -8.11827 -3.35
      vertex -3.61731 -8.06137 3.35
      vertex -3.8049 -8.11827 3.35
    endloop
  endfacet
  facet normal 0.290262 -0.956947 0
    outer loop
      vertex -3.61731 -8.06137 3.35
      vertex -3.8049 -8.11827 -3.35
      vertex -3.61731 -8.06137 -3.35
    endloop
  endfacet
  facet normal 0.0980895 -0.995178 0
    outer loop
      vertex -4 -8.1375 -3.35
      vertex -3.8049 -8.11827 3.35
      vertex -4 -8.1375 3.35
    endloop
  endfacet
  facet normal 0.0980895 -0.995178 0
    outer loop
      vertex -3.8049 -8.11827 3.35
      vertex -4 -8.1375 -3.35
      vertex -3.8049 -8.11827 -3.35
    endloop
  endfacet
  facet normal -0.0980995 -0.995177 0
    outer loop
      vertex -4.19508 -8.11827 -3.35
      vertex -4 -8.1375 3.35
      vertex -4.19508 -8.11827 3.35
    endloop
  endfacet
  facet normal -0.0980995 -0.995177 -0
    outer loop
      vertex -4 -8.1375 3.35
      vertex -4.19508 -8.11827 -3.35
      vertex -4 -8.1375 -3.35
    endloop
  endfacet
  facet normal -0.290248 -0.956951 0
    outer loop
      vertex -4.38268 -8.06137 -3.35
      vertex -4.19508 -8.11827 3.35
      vertex -4.38268 -8.06137 3.35
    endloop
  endfacet
  facet normal -0.290248 -0.956951 -0
    outer loop
      vertex -4.19508 -8.11827 3.35
      vertex -4.38268 -8.06137 -3.35
      vertex -4.19508 -8.11827 -3.35
    endloop
  endfacet
  facet normal -0.471411 -0.881913 0
    outer loop
      vertex -4.55556 -7.96896 -3.35
      vertex -4.38268 -8.06137 3.35
      vertex -4.55556 -7.96896 3.35
    endloop
  endfacet
  facet normal -0.471411 -0.881913 -0
    outer loop
      vertex -4.38268 -8.06137 3.35
      vertex -4.55556 -7.96896 -3.35
      vertex -4.38268 -8.06137 -3.35
    endloop
  endfacet
  facet normal -0.634401 -0.773004 0
    outer loop
      vertex -4.70709 -7.8446 -3.35
      vertex -4.55556 -7.96896 3.35
      vertex -4.70709 -7.8446 3.35
    endloop
  endfacet
  facet normal -0.634401 -0.773004 -0
    outer loop
      vertex -4.55556 -7.96896 3.35
      vertex -4.70709 -7.8446 -3.35
      vertex -4.55556 -7.96896 -3.35
    endloop
  endfacet
  facet normal -0.772954 -0.634462 0
    outer loop
      vertex -4.70709 -7.8446 -3.35
      vertex -4.83147 -7.69307 3.35
      vertex -4.83147 -7.69307 -3.35
    endloop
  endfacet
  facet normal -0.772954 -0.634462 0
    outer loop
      vertex -4.83147 -7.69307 3.35
      vertex -4.70709 -7.8446 -3.35
      vertex -4.70709 -7.8446 3.35
    endloop
  endfacet
  facet normal -0.881957 -0.471329 0
    outer loop
      vertex -4.83147 -7.69307 -3.35
      vertex -4.92387 -7.52017 3.35
      vertex -4.92387 -7.52017 -3.35
    endloop
  endfacet
  facet normal -0.881957 -0.471329 0
    outer loop
      vertex -4.92387 -7.52017 3.35
      vertex -4.83147 -7.69307 -3.35
      vertex -4.83147 -7.69307 3.35
    endloop
  endfacet
  facet normal -0.956947 -0.290262 0
    outer loop
      vertex -4.92387 -7.52017 -3.35
      vertex -4.98077 -7.33258 3.35
      vertex -4.98077 -7.33258 -3.35
    endloop
  endfacet
  facet normal -0.956947 -0.290262 0
    outer loop
      vertex -4.98077 -7.33258 3.35
      vertex -4.92387 -7.52017 -3.35
      vertex -4.92387 -7.52017 3.35
    endloop
  endfacet
  facet normal -0.995177 -0.0980995 0
    outer loop
      vertex -4.98077 -7.33258 -3.35
      vertex -5 -7.1375 3.35
      vertex -5 -7.1375 -3.35
    endloop
  endfacet
  facet normal -0.995177 -0.0980995 0
    outer loop
      vertex -5 -7.1375 3.35
      vertex -4.98077 -7.33258 -3.35
      vertex -4.98077 -7.33258 3.35
    endloop
  endfacet
  facet normal -1 0 0
    outer loop
      vertex -5 -7.1375 -3.35
      vertex -5 7.1375 3.35
      vertex -5 7.1375 -3.35
    endloop
  endfacet
  facet normal -1 -0 0
    outer loop
      vertex -5 7.1375 3.35
      vertex -5 -7.1375 -3.35
      vertex -5 -7.1375 3.35
    endloop
  endfacet
  facet normal -0.995177 0.0980995 0
    outer loop
      vertex -5 7.1375 -3.35
      vertex -4.98077 7.33258 3.35
      vertex -4.98077 7.33258 -3.35
    endloop
  endfacet
  facet normal -0.995177 0.0980995 0
    outer loop
      vertex -4.98077 7.33258 3.35
      vertex -5 7.1375 -3.35
      vertex -5 7.1375 3.35
    endloop
  endfacet
  facet normal -0.956947 0.290262 0
    outer loop
      vertex -4.98077 7.33258 -3.35
      vertex -4.92387 7.52017 3.35
      vertex -4.92387 7.52017 -3.35
    endloop
  endfacet
  facet normal -0.956947 0.290262 0
    outer loop
      vertex -4.92387 7.52017 3.35
      vertex -4.98077 7.33258 -3.35
      vertex -4.98077 7.33258 3.35
    endloop
  endfacet
  facet normal -0.881957 0.471329 0
    outer loop
      vertex -4.92387 7.52017 -3.35
      vertex -4.83147 7.69307 3.35
      vertex -4.83147 7.69307 -3.35
    endloop
  endfacet
  facet normal -0.881957 0.471329 0
    outer loop
      vertex -4.83147 7.69307 3.35
      vertex -4.92387 7.52017 -3.35
      vertex -4.92387 7.52017 3.35
    endloop
  endfacet
  facet normal -0.772954 0.634462 0
    outer loop
      vertex -4.83147 7.69307 -3.35
      vertex -4.70709 7.8446 3.35
      vertex -4.70709 7.8446 -3.35
    endloop
  endfacet
  facet normal -0.772954 0.634462 0
    outer loop
      vertex -4.70709 7.8446 3.35
      vertex -4.83147 7.69307 -3.35
      vertex -4.83147 7.69307 3.35
    endloop
  endfacet
  facet normal -0.634401 0.773004 0
    outer loop
      vertex -4.55556 7.96896 -3.35
      vertex -4.70709 7.8446 3.35
      vertex -4.55556 7.96896 3.35
    endloop
  endfacet
  facet normal -0.634401 0.773004 0
    outer loop
      vertex -4.70709 7.8446 3.35
      vertex -4.55556 7.96896 -3.35
      vertex -4.70709 7.8446 -3.35
    endloop
  endfacet
  facet normal -0.471411 0.881913 0
    outer loop
      vertex -4.38268 8.06137 -3.35
      vertex -4.55556 7.96896 3.35
      vertex -4.38268 8.06137 3.35
    endloop
  endfacet
  facet normal -0.471411 0.881913 0
    outer loop
      vertex -4.55556 7.96896 3.35
      vertex -4.38268 8.06137 -3.35
      vertex -4.55556 7.96896 -3.35
    endloop
  endfacet
  facet normal -0.290248 0.956951 0
    outer loop
      vertex -4.19508 8.11827 -3.35
      vertex -4.38268 8.06137 3.35
      vertex -4.19508 8.11827 3.35
    endloop
  endfacet
  facet normal -0.290248 0.956951 0
    outer loop
      vertex -4.38268 8.06137 3.35
      vertex -4.19508 8.11827 -3.35
      vertex -4.38268 8.06137 -3.35
    endloop
  endfacet
  facet normal -0.0980995 0.995177 0
    outer loop
      vertex -4 8.1375 -3.35
      vertex -4.19508 8.11827 3.35
      vertex -4 8.1375 3.35
    endloop
  endfacet
  facet normal -0.0980995 0.995177 0
    outer loop
      vertex -4.19508 8.11827 3.35
      vertex -4 8.1375 -3.35
      vertex -4.19508 8.11827 -3.35
    endloop
  endfacet
  facet normal 0.0980895 0.995178 -0
    outer loop
      vertex -3.8049 8.11827 -3.35
      vertex -4 8.1375 3.35
      vertex -3.8049 8.11827 3.35
    endloop
  endfacet
  facet normal 0.0980895 0.995178 0
    outer loop
      vertex -4 8.1375 3.35
      vertex -3.8049 8.11827 -3.35
      vertex -4 8.1375 -3.35
    endloop
  endfacet
  facet normal 0.290262 0.956947 -0
    outer loop
      vertex -3.61731 8.06137 -3.35
      vertex -3.8049 8.11827 3.35
      vertex -3.61731 8.06137 3.35
    endloop
  endfacet
  facet normal 0.290262 0.956947 0
    outer loop
      vertex -3.8049 8.11827 3.35
      vertex -3.61731 8.06137 -3.35
      vertex -3.8049 8.11827 -3.35
    endloop
  endfacet
  facet normal 0.471411 0.881913 -0
    outer loop
      vertex -3.44443 7.96896 -3.35
      vertex -3.61731 8.06137 3.35
      vertex -3.44443 7.96896 3.35
    endloop
  endfacet
  facet normal 0.471411 0.881913 0
    outer loop
      vertex -3.61731 8.06137 3.35
      vertex -3.44443 7.96896 -3.35
      vertex -3.61731 8.06137 -3.35
    endloop
  endfacet
  facet normal 0.634376 0.773025 -0
    outer loop
      vertex -3.29289 7.8446 -3.35
      vertex -3.44443 7.96896 3.35
      vertex -3.29289 7.8446 3.35
    endloop
  endfacet
  facet normal 0.634376 0.773025 0
    outer loop
      vertex -3.44443 7.96896 3.35
      vertex -3.29289 7.8446 -3.35
      vertex -3.44443 7.96896 -3.35
    endloop
  endfacet
  facet normal 0.772979 0.634432 0
    outer loop
      vertex -3.16852 7.69307 3.35
      vertex -3.29289 7.8446 -3.35
      vertex -3.29289 7.8446 3.35
    endloop
  endfacet
  facet normal 0.772979 0.634432 0
    outer loop
      vertex -3.29289 7.8446 -3.35
      vertex -3.16852 7.69307 3.35
      vertex -3.16852 7.69307 -3.35
    endloop
  endfacet
  facet normal 0.881936 0.471369 0
    outer loop
      vertex -3.07611 7.52017 3.35
      vertex -3.16852 7.69307 -3.35
      vertex -3.16852 7.69307 3.35
    endloop
  endfacet
  facet normal 0.881936 0.471369 0
    outer loop
      vertex -3.16852 7.69307 -3.35
      vertex -3.07611 7.52017 3.35
      vertex -3.07611 7.52017 -3.35
    endloop
  endfacet
  facet normal 0.956947 0.290262 0
    outer loop
      vertex -3.01921 7.33258 3.35
      vertex -3.07611 7.52017 -3.35
      vertex -3.07611 7.52017 3.35
    endloop
  endfacet
  facet normal 0.956947 0.290262 0
    outer loop
      vertex -3.07611 7.52017 -3.35
      vertex -3.01921 7.33258 3.35
      vertex -3.01921 7.33258 -3.35
    endloop
  endfacet
  facet normal 0.995187 0.0979984 0
    outer loop
      vertex -3 7.1375 3.35
      vertex -3.01921 7.33258 -3.35
      vertex -3.01921 7.33258 3.35
    endloop
  endfacet
  facet normal 0.995187 0.0979984 0
    outer loop
      vertex -3.01921 7.33258 -3.35
      vertex -3 7.1375 3.35
      vertex -3 7.1375 -3.35
    endloop
  endfacet
  facet normal 1 -0 0
    outer loop
      vertex -3 1 3.35
      vertex -3 7.1375 -3.35
      vertex -3 7.1375 3.35
    endloop
  endfacet
  facet normal 1 0 0
    outer loop
      vertex -3 7.1375 -3.35
      vertex -3 1 3.35
      vertex -3 1 -3.35
    endloop
  endfacet
  facet normal 0 1 -0
    outer loop
      vertex -0.5 1 -3.35
      vertex -3 1 3.35
      vertex -0.5 1 3.35
    endloop
  endfacet
  facet normal 0 1 0
    outer loop
      vertex -3 1 3.35
      vertex -0.5 1 -3.35
      vertex -3 1 -3.35
    endloop
  endfacet
  facet normal 0.411619 0.911356 -0
    outer loop
      vertex 0.69133 0.461929 -3.35
      vertex -0.5 1 3.35
      vertex 0.69133 0.461929 3.35
    endloop
  endfacet
  facet normal 0.411619 0.911356 0
    outer loop
      vertex -0.5 1 3.35
      vertex 0.69133 0.461929 -3.35
      vertex -0.5 1 -3.35
    endloop
  endfacet
  facet normal -0 0 1
    outer loop
      vertex 3 7.1375 3.35
      vertex 5 1 3.35
      vertex 5 7.1375 3.35
    endloop
  endfacet
  facet normal 0 0 1
    outer loop
      vertex 5 1 3.35
      vertex 3 7.1375 3.35
      vertex 5 -1 3.35
    endloop
  endfacet
  facet normal 0 0 1
    outer loop
      vertex 3 7.1375 3.35
      vertex 5 7.1375 3.35
      vertex 4.98079 7.33258 3.35
    endloop
  endfacet
  facet normal 0 0 1
    outer loop
      vertex 3 -7.1375 3.35
      vertex 5 -1 3.35
      vertex 3 7.1375 3.35
    endloop
  endfacet
  facet normal 0 0 1
    outer loop
      vertex 3 7.1375 3.35
      vertex 4.98079 7.33258 3.35
      vertex 4.92389 7.52017 3.35
    endloop
  endfacet
  facet normal 0 0 1
    outer loop
      vertex 5 -1 3.35
      vertex 3 -7.1375 3.35
      vertex 5 -7.1375 3.35
    endloop
  endfacet
  facet normal 0 0 1
    outer loop
      vertex 3 7.1375 3.35
      vertex 4.92389 7.52017 3.35
      vertex 4.83148 7.69307 3.35
    endloop
  endfacet
  facet normal 0 0 1
    outer loop
      vertex 5 -7.1375 3.35
      vertex 3 -7.1375 3.35
      vertex 4.98079 -7.33258 3.35
    endloop
  endfacet
  facet normal 0 0 1
    outer loop
      vertex 3 7.1375 3.35
      vertex 4.83148 7.69307 3.35
      vertex 4.70711 7.8446 3.35
    endloop
  endfacet
  facet normal 0 0 1
    outer loop
      vertex 4.98079 -7.33258 3.35
      vertex 3 -7.1375 3.35
      vertex 4.92389 -7.52017 3.35
    endloop
  endfacet
  facet normal 0 0 1
    outer loop
      vertex 3 7.1375 3.35
      vertex 4.70711 7.8446 3.35
      vertex 4.55557 7.96896 3.35
    endloop
  endfacet
  facet normal 0 0 1
    outer loop
      vertex 4.92389 -7.52017 3.35
      vertex 3 -7.1375 3.35
      vertex 4.83148 -7.69307 3.35
    endloop
  endfacet
  facet normal 0 0 1
    outer loop
      vertex 3 7.1375 3.35
      vertex 4.55557 7.96896 3.35
      vertex 4.38269 8.06137 3.35
    endloop
  endfacet
  facet normal 0 0 1
    outer loop
      vertex 4.83148 -7.69307 3.35
      vertex 3 -7.1375 3.35
      vertex 4.70711 -7.8446 3.35
    endloop
  endfacet
  facet normal 0 0 1
    outer loop
      vertex 3 7.1375 3.35
      vertex 4.38269 8.06137 3.35
      vertex 4.1951 8.11827 3.35
    endloop
  endfacet
  facet normal 0 0 1
    outer loop
      vertex 4.70711 -7.8446 3.35
      vertex 3 -7.1375 3.35
      vertex 4.55557 -7.96896 3.35
    endloop
  endfacet
  facet normal 0 0 1
    outer loop
      vertex 3 7.1375 3.35
      vertex 4.1951 8.11827 3.35
      vertex 4 8.1375 3.35
    endloop
  endfacet
  facet normal 0 0 1
    outer loop
      vertex 4.55557 -7.96896 3.35
      vertex 3 -7.1375 3.35
      vertex 4.38269 -8.06137 3.35
    endloop
  endfacet
  facet normal 0 0 1
    outer loop
      vertex 3 7.1375 3.35
      vertex 4 8.1375 3.35
      vertex 3.80492 8.11827 3.35
    endloop
  endfacet
  facet normal 0 0 1
    outer loop
      vertex 4.38269 -8.06137 3.35
      vertex 3 -7.1375 3.35
      vertex 4.1951 -8.11827 3.35
    endloop
  endfacet
  facet normal 0 0 1
    outer loop
      vertex 3 7.1375 3.35
      vertex 3.80492 8.11827 3.35
      vertex 3.61732 8.06137 3.35
    endloop
  endfacet
  facet normal 0 0 1
    outer loop
      vertex 4.1951 -8.11827 3.35
      vertex 3 -7.1375 3.35
      vertex 4 -8.1375 3.35
    endloop
  endfacet
  facet normal 0 0 1
    outer loop
      vertex 3 7.1375 3.35
      vertex 3.61732 8.06137 3.35
      vertex 3.44444 7.96896 3.35
    endloop
  endfacet
  facet normal 0 0 1
    outer loop
      vertex 4 -8.1375 3.35
      vertex 3 -7.1375 3.35
      vertex 3.80492 -8.11827 3.35
    endloop
  endfacet
  facet normal 0 0 1
    outer loop
      vertex 3 7.1375 3.35
      vertex 3.44444 7.96896 3.35
      vertex 3.29291 7.8446 3.35
    endloop
  endfacet
  facet normal 0 0 1
    outer loop
      vertex 3.80492 -8.11827 3.35
      vertex 3 -7.1375 3.35
      vertex 3.61732 -8.06137 3.35
    endloop
  endfacet
  facet normal 0 0 1
    outer loop
      vertex 3 7.1375 3.35
      vertex 3.29291 7.8446 3.35
      vertex 3.16853 7.69307 3.35
    endloop
  endfacet
  facet normal 0 0 1
    outer loop
      vertex 3.61732 -8.06137 3.35
      vertex 3 -7.1375 3.35
      vertex 3.44444 -7.96896 3.35
    endloop
  endfacet
  facet normal 0 0 1
    outer loop
      vertex 3 7.1375 3.35
      vertex 3.16853 7.69307 3.35
      vertex 3.07613 7.52017 3.35
    endloop
  endfacet
  facet normal 0 0 1
    outer loop
      vertex 3.44444 -7.96896 3.35
      vertex 3 -7.1375 3.35
      vertex 3.29291 -7.8446 3.35
    endloop
  endfacet
  facet normal 0 0 1
    outer loop
      vertex 3 7.1375 3.35
      vertex 3.07613 7.52017 3.35
      vertex 3.01923 7.33258 3.35
    endloop
  endfacet
  facet normal 0 0 1
    outer loop
      vertex 3.29291 -7.8446 3.35
      vertex 3 -7.1375 3.35
      vertex 3.16853 -7.69307 3.35
    endloop
  endfacet
  facet normal 0 0 1
    outer loop
      vertex 3.16853 -7.69307 3.35
      vertex 3 -7.1375 3.35
      vertex 3.07613 -7.52017 3.35
    endloop
  endfacet
  facet normal 0 0 1
    outer loop
      vertex 3.07613 -7.52017 3.35
      vertex 3 -7.1375 3.35
      vertex 3.01923 -7.33258 3.35
    endloop
  endfacet
  facet normal 0 0 1
    outer loop
      vertex 8.99039 0.0975342 3.35
      vertex 8.99039 -0.0975342 3.35
      vertex 9 0 3.35
    endloop
  endfacet
  facet normal 0 0 1
    outer loop
      vertex 8.96193 0.19133 3.35
      vertex 8.99039 -0.0975342 3.35
      vertex 8.99039 0.0975342 3.35
    endloop
  endfacet
  facet normal 0 0 1
    outer loop
      vertex 8.96193 0.19133 3.35
      vertex 8.96193 -0.19133 3.35
      vertex 8.99039 -0.0975342 3.35
    endloop
  endfacet
  facet normal 0 0 1
    outer loop
      vertex 8.91573 0.277771 3.35
      vertex 8.96193 -0.19133 3.35
      vertex 8.96193 0.19133 3.35
    endloop
  endfacet
  facet normal 0 0 1
    outer loop
      vertex 8.91573 0.277771 3.35
      vertex 8.91573 -0.277771 3.35
      vertex 8.96193 -0.19133 3.35
    endloop
  endfacet
  facet normal 0 0 1
    outer loop
      vertex 8.85355 0.353546 3.35
      vertex 8.91573 -0.277771 3.35
      vertex 8.91573 0.277771 3.35
    endloop
  endfacet
  facet normal 0 0 1
    outer loop
      vertex 8.85355 0.353546 3.35
      vertex 8.85355 -0.353546 3.35
      vertex 8.91573 -0.277771 3.35
    endloop
  endfacet
  facet normal 0 0 1
    outer loop
      vertex 8.77777 0.415726 3.35
      vertex 8.85355 -0.353546 3.35
      vertex 8.85355 0.353546 3.35
    endloop
  endfacet
  facet normal 0 0 1
    outer loop
      vertex 8.77777 0.415726 3.35
      vertex 8.77777 -0.415726 3.35
      vertex 8.85355 -0.353546 3.35
    endloop
  endfacet
  facet normal 0 0 1
    outer loop
      vertex 8.69133 0.461929 3.35
      vertex 8.77777 -0.415726 3.35
      vertex 8.77777 0.415726 3.35
    endloop
  endfacet
  facet normal 0 0 1
    outer loop
      vertex 8.69133 0.461929 3.35
      vertex 8.69133 -0.461929 3.35
      vertex 8.77777 -0.415726 3.35
    endloop
  endfacet
  facet normal 0 0 1
    outer loop
      vertex 7.5 1 3.35
      vertex 8.69133 -0.461929 3.35
      vertex 8.69133 0.461929 3.35
    endloop
  endfacet
  facet normal 0 0 1
    outer loop
      vertex 7.5 1 3.35
      vertex 7.5 -1 3.35
      vertex 8.69133 -0.461929 3.35
    endloop
  endfacet
  facet normal -0 0 1
    outer loop
      vertex 5 1 3.35
      vertex 7.5 -1 3.35
      vertex 7.5 1 3.35
    endloop
  endfacet
  facet normal 0 0 1
    outer loop
      vertex 7.5 -1 3.35
      vertex 5 1 3.35
      vertex 5 -1 3.35
    endloop
  endfacet
  facet normal 0 0 -1
    outer loop
      vertex 3 -7.1375 -3.35
      vertex 5 -1 -3.35
      vertex 5 -7.1375 -3.35
    endloop
  endfacet
  facet normal -0 0 -1
    outer loop
      vertex 5 -1 -3.35
      vertex 3 -7.1375 -3.35
      vertex 5 1 -3.35
    endloop
  endfacet
  facet normal 0 0 -1
    outer loop
      vertex 3 -7.1375 -3.35
      vertex 5 -7.1375 -3.35
      vertex 4.98079 -7.33258 -3.35
    endloop
  endfacet
  facet normal 0 0 -1
    outer loop
      vertex 3 7.1375 -3.35
      vertex 5 1 -3.35
      vertex 3 -7.1375 -3.35
    endloop
  endfacet
  facet normal 0 0 -1
    outer loop
      vertex 3 -7.1375 -3.35
      vertex 4.98079 -7.33258 -3.35
      vertex 4.92389 -7.52017 -3.35
    endloop
  endfacet
  facet normal 0 0 -1
    outer loop
      vertex 5 1 -3.35
      vertex 3 7.1375 -3.35
      vertex 5 7.1375 -3.35
    endloop
  endfacet
  facet normal 0 0 -1
    outer loop
      vertex 3 -7.1375 -3.35
      vertex 4.92389 -7.52017 -3.35
      vertex 4.83148 -7.69307 -3.35
    endloop
  endfacet
  facet normal 0 0 -1
    outer loop
      vertex 5 7.1375 -3.35
      vertex 3 7.1375 -3.35
      vertex 4.98079 7.33258 -3.35
    endloop
  endfacet
  facet normal 0 0 -1
    outer loop
      vertex 3 -7.1375 -3.35
      vertex 4.83148 -7.69307 -3.35
      vertex 4.70711 -7.8446 -3.35
    endloop
  endfacet
  facet normal -0 0 -1
    outer loop
      vertex 4.98079 7.33258 -3.35
      vertex 3 7.1375 -3.35
      vertex 4.92389 7.52017 -3.35
    endloop
  endfacet
  facet normal 0 0 -1
    outer loop
      vertex 3 -7.1375 -3.35
      vertex 4.70711 -7.8446 -3.35
      vertex 4.55557 -7.96896 -3.35
    endloop
  endfacet
  facet normal -0 0 -1
    outer loop
      vertex 4.92389 7.52017 -3.35
      vertex 3 7.1375 -3.35
      vertex 4.83148 7.69307 -3.35
    endloop
  endfacet
  facet normal 0 0 -1
    outer loop
      vertex 3 -7.1375 -3.35
      vertex 4.55557 -7.96896 -3.35
      vertex 4.38269 -8.06137 -3.35
    endloop
  endfacet
  facet normal -0 0 -1
    outer loop
      vertex 4.83148 7.69307 -3.35
      vertex 3 7.1375 -3.35
      vertex 4.70711 7.8446 -3.35
    endloop
  endfacet
  facet normal 0 0 -1
    outer loop
      vertex 3 -7.1375 -3.35
      vertex 4.38269 -8.06137 -3.35
      vertex 4.1951 -8.11827 -3.35
    endloop
  endfacet
  facet normal -0 0 -1
    outer loop
      vertex 4.70711 7.8446 -3.35
      vertex 3 7.1375 -3.35
      vertex 4.55557 7.96896 -3.35
    endloop
  endfacet
  facet normal 0 0 -1
    outer loop
      vertex 3 -7.1375 -3.35
      vertex 4.1951 -8.11827 -3.35
      vertex 4 -8.1375 -3.35
    endloop
  endfacet
  facet normal -0 0 -1
    outer loop
      vertex 4.55557 7.96896 -3.35
      vertex 3 7.1375 -3.35
      vertex 4.38269 8.06137 -3.35
    endloop
  endfacet
  facet normal 0 0 -1
    outer loop
      vertex 3 -7.1375 -3.35
      vertex 4 -8.1375 -3.35
      vertex 3.80492 -8.11827 -3.35
    endloop
  endfacet
  facet normal -0 0 -1
    outer loop
      vertex 4.38269 8.06137 -3.35
      vertex 3 7.1375 -3.35
      vertex 4.1951 8.11827 -3.35
    endloop
  endfacet
  facet normal 0 0 -1
    outer loop
      vertex 3 -7.1375 -3.35
      vertex 3.80492 -8.11827 -3.35
      vertex 3.61732 -8.06137 -3.35
    endloop
  endfacet
  facet normal -0 0 -1
    outer loop
      vertex 4.1951 8.11827 -3.35
      vertex 3 7.1375 -3.35
      vertex 4 8.1375 -3.35
    endloop
  endfacet
  facet normal 0 0 -1
    outer loop
      vertex 3 -7.1375 -3.35
      vertex 3.61732 -8.06137 -3.35
      vertex 3.44444 -7.96896 -3.35
    endloop
  endfacet
  facet normal 0 0 -1
    outer loop
      vertex 4 8.1375 -3.35
      vertex 3 7.1375 -3.35
      vertex 3.80492 8.11827 -3.35
    endloop
  endfacet
  facet normal 0 0 -1
    outer loop
      vertex 3 -7.1375 -3.35
      vertex 3.44444 -7.96896 -3.35
      vertex 3.29291 -7.8446 -3.35
    endloop
  endfacet
  facet normal 0 0 -1
    outer loop
      vertex 3.80492 8.11827 -3.35
      vertex 3 7.1375 -3.35
      vertex 3.61732 8.06137 -3.35
    endloop
  endfacet
  facet normal 0 0 -1
    outer loop
      vertex 3 -7.1375 -3.35
      vertex 3.29291 -7.8446 -3.35
      vertex 3.16853 -7.69307 -3.35
    endloop
  endfacet
  facet normal 0 0 -1
    outer loop
      vertex 3.61732 8.06137 -3.35
      vertex 3 7.1375 -3.35
      vertex 3.44444 7.96896 -3.35
    endloop
  endfacet
  facet normal 0 0 -1
    outer loop
      vertex 3 -7.1375 -3.35
      vertex 3.16853 -7.69307 -3.35
      vertex 3.07613 -7.52017 -3.35
    endloop
  endfacet
  facet normal 0 0 -1
    outer loop
      vertex 3.44444 7.96896 -3.35
      vertex 3 7.1375 -3.35
      vertex 3.29291 7.8446 -3.35
    endloop
  endfacet
  facet normal 0 0 -1
    outer loop
      vertex 3 -7.1375 -3.35
      vertex 3.07613 -7.52017 -3.35
      vertex 3.01923 -7.33258 -3.35
    endloop
  endfacet
  facet normal 0 0 -1
    outer loop
      vertex 3.29291 7.8446 -3.35
      vertex 3 7.1375 -3.35
      vertex 3.16853 7.69307 -3.35
    endloop
  endfacet
  facet normal 0 0 -1
    outer loop
      vertex 3.16853 7.69307 -3.35
      vertex 3 7.1375 -3.35
      vertex 3.07613 7.52017 -3.35
    endloop
  endfacet
  facet normal 0 0 -1
    outer loop
      vertex 3.07613 7.52017 -3.35
      vertex 3 7.1375 -3.35
      vertex 3.01923 7.33258 -3.35
    endloop
  endfacet
  facet normal 0 0 -1
    outer loop
      vertex 8.99039 -0.0975342 -3.35
      vertex 8.99039 0.0975342 -3.35
      vertex 9 0 -3.35
    endloop
  endfacet
  facet normal 0 0 -1
    outer loop
      vertex 8.96193 -0.19133 -3.35
      vertex 8.99039 0.0975342 -3.35
      vertex 8.99039 -0.0975342 -3.35
    endloop
  endfacet
  facet normal 0 0 -1
    outer loop
      vertex 8.96193 -0.19133 -3.35
      vertex 8.96193 0.19133 -3.35
      vertex 8.99039 0.0975342 -3.35
    endloop
  endfacet
  facet normal 0 0 -1
    outer loop
      vertex 8.91573 -0.277771 -3.35
      vertex 8.96193 0.19133 -3.35
      vertex 8.96193 -0.19133 -3.35
    endloop
  endfacet
  facet normal 0 0 -1
    outer loop
      vertex 8.91573 -0.277771 -3.35
      vertex 8.91573 0.277771 -3.35
      vertex 8.96193 0.19133 -3.35
    endloop
  endfacet
  facet normal 0 0 -1
    outer loop
      vertex 8.85355 -0.353546 -3.35
      vertex 8.91573 0.277771 -3.35
      vertex 8.91573 -0.277771 -3.35
    endloop
  endfacet
  facet normal 0 0 -1
    outer loop
      vertex 8.85355 -0.353546 -3.35
      vertex 8.85355 0.353546 -3.35
      vertex 8.91573 0.277771 -3.35
    endloop
  endfacet
  facet normal 0 0 -1
    outer loop
      vertex 8.77777 -0.415726 -3.35
      vertex 8.85355 0.353546 -3.35
      vertex 8.85355 -0.353546 -3.35
    endloop
  endfacet
  facet normal 0 0 -1
    outer loop
      vertex 8.77777 -0.415726 -3.35
      vertex 8.77777 0.415726 -3.35
      vertex 8.85355 0.353546 -3.35
    endloop
  endfacet
  facet normal 0 0 -1
    outer loop
      vertex 8.69133 -0.461929 -3.35
      vertex 8.77777 0.415726 -3.35
      vertex 8.77777 -0.415726 -3.35
    endloop
  endfacet
  facet normal 0 0 -1
    outer loop
      vertex 8.69133 -0.461929 -3.35
      vertex 8.69133 0.461929 -3.35
      vertex 8.77777 0.415726 -3.35
    endloop
  endfacet
  facet normal 0 0 -1
    outer loop
      vertex 7.5 -1 -3.35
      vertex 8.69133 0.461929 -3.35
      vertex 8.69133 -0.461929 -3.35
    endloop
  endfacet
  facet normal 0 0 -1
    outer loop
      vertex 7.5 -1 -3.35
      vertex 7.5 1 -3.35
      vertex 8.69133 0.461929 -3.35
    endloop
  endfacet
  facet normal 0 0 -1
    outer loop
      vertex 5 -1 -3.35
      vertex 7.5 1 -3.35
      vertex 7.5 -1 -3.35
    endloop
  endfacet
  facet normal -0 0 -1
    outer loop
      vertex 7.5 1 -3.35
      vertex 5 -1 -3.35
      vertex 5 1 -3.35
    endloop
  endfacet
  facet normal 0.471396 0.881922 -0
    outer loop
      vertex 8.77777 0.415726 -3.35
      vertex 8.69133 0.461929 3.35
      vertex 8.77777 0.415726 3.35
    endloop
  endfacet
  facet normal 0.471396 0.881922 0
    outer loop
      vertex 8.69133 0.461929 3.35
      vertex 8.77777 0.415726 -3.35
      vertex 8.69133 0.461929 -3.35
    endloop
  endfacet
  facet normal 0.634326 0.773066 -0
    outer loop
      vertex 8.85355 0.353546 -3.35
      vertex 8.77777 0.415726 3.35
      vertex 8.85355 0.353546 3.35
    endloop
  endfacet
  facet normal 0.634326 0.773066 0
    outer loop
      vertex 8.77777 0.415726 3.35
      vertex 8.85355 0.353546 -3.35
      vertex 8.77777 0.415726 -3.35
    endloop
  endfacet
  facet normal 0.773045 0.634351 0
    outer loop
      vertex 8.91573 0.277771 3.35
      vertex 8.85355 0.353546 -3.35
      vertex 8.85355 0.353546 3.35
    endloop
  endfacet
  facet normal 0.773045 0.634351 0
    outer loop
      vertex 8.85355 0.353546 -3.35
      vertex 8.91573 0.277771 3.35
      vertex 8.91573 0.277771 -3.35
    endloop
  endfacet
  facet normal 0.881937 0.471368 0
    outer loop
      vertex 8.96193 0.19133 3.35
      vertex 8.91573 0.277771 -3.35
      vertex 8.91573 0.277771 3.35
    endloop
  endfacet
  facet normal 0.881937 0.471368 0
    outer loop
      vertex 8.91573 0.277771 -3.35
      vertex 8.96193 0.19133 3.35
      vertex 8.96193 0.19133 -3.35
    endloop
  endfacet
  facet normal 0.956919 0.290353 0
    outer loop
      vertex 8.99039 0.0975342 3.35
      vertex 8.96193 0.19133 -3.35
      vertex 8.96193 0.19133 3.35
    endloop
  endfacet
  facet normal 0.956919 0.290353 0
    outer loop
      vertex 8.96193 0.19133 -3.35
      vertex 8.99039 0.0975342 3.35
      vertex 8.99039 0.0975342 -3.35
    endloop
  endfacet
  facet normal 0.995181 0.0980547 0
    outer loop
      vertex 9 0 3.35
      vertex 8.99039 0.0975342 -3.35
      vertex 8.99039 0.0975342 3.35
    endloop
  endfacet
  facet normal 0.995181 0.0980547 0
    outer loop
      vertex 8.99039 0.0975342 -3.35
      vertex 9 0 3.35
      vertex 9 0 -3.35
    endloop
  endfacet
  facet normal 0.995181 -0.0980547 0
    outer loop
      vertex 8.99039 -0.0975342 3.35
      vertex 9 0 -3.35
      vertex 9 0 3.35
    endloop
  endfacet
  facet normal 0.995181 -0.0980547 0
    outer loop
      vertex 9 0 -3.35
      vertex 8.99039 -0.0975342 3.35
      vertex 8.99039 -0.0975342 -3.35
    endloop
  endfacet
  facet normal 0.956919 -0.290353 0
    outer loop
      vertex 8.96193 -0.19133 3.35
      vertex 8.99039 -0.0975342 -3.35
      vertex 8.99039 -0.0975342 3.35
    endloop
  endfacet
  facet normal 0.956919 -0.290353 0
    outer loop
      vertex 8.99039 -0.0975342 -3.35
      vertex 8.96193 -0.19133 3.35
      vertex 8.96193 -0.19133 -3.35
    endloop
  endfacet
  facet normal 0.881937 -0.471368 0
    outer loop
      vertex 8.91573 -0.277771 3.35
      vertex 8.96193 -0.19133 -3.35
      vertex 8.96193 -0.19133 3.35
    endloop
  endfacet
  facet normal 0.881937 -0.471368 0
    outer loop
      vertex 8.96193 -0.19133 -3.35
      vertex 8.91573 -0.277771 3.35
      vertex 8.91573 -0.277771 -3.35
    endloop
  endfacet
  facet normal 0.773045 -0.634351 0
    outer loop
      vertex 8.85355 -0.353546 3.35
      vertex 8.91573 -0.277771 -3.35
      vertex 8.91573 -0.277771 3.35
    endloop
  endfacet
  facet normal 0.773045 -0.634351 0
    outer loop
      vertex 8.91573 -0.277771 -3.35
      vertex 8.85355 -0.353546 3.35
      vertex 8.85355 -0.353546 -3.35
    endloop
  endfacet
  facet normal 0.634326 -0.773066 0
    outer loop
      vertex 8.77777 -0.415726 -3.35
      vertex 8.85355 -0.353546 3.35
      vertex 8.77777 -0.415726 3.35
    endloop
  endfacet
  facet normal 0.634326 -0.773066 0
    outer loop
      vertex 8.85355 -0.353546 3.35
      vertex 8.77777 -0.415726 -3.35
      vertex 8.85355 -0.353546 -3.35
    endloop
  endfacet
  facet normal 0.471396 -0.881922 0
    outer loop
      vertex 8.69133 -0.461929 -3.35
      vertex 8.77777 -0.415726 3.35
      vertex 8.69133 -0.461929 3.35
    endloop
  endfacet
  facet normal 0.471396 -0.881922 0
    outer loop
      vertex 8.77777 -0.415726 3.35
      vertex 8.69133 -0.461929 -3.35
      vertex 8.77777 -0.415726 -3.35
    endloop
  endfacet
  facet normal 0.411619 -0.911356 0
    outer loop
      vertex 7.5 -1 -3.35
      vertex 8.69133 -0.461929 3.35
      vertex 7.5 -1 3.35
    endloop
  endfacet
  facet normal 0.411619 -0.911356 0
    outer loop
      vertex 8.69133 -0.461929 3.35
      vertex 7.5 -1 -3.35
      vertex 8.69133 -0.461929 -3.35
    endloop
  endfacet
  facet normal 0 -1 0
    outer loop
      vertex 5 -1 -3.35
      vertex 7.5 -1 3.35
      vertex 5 -1 3.35
    endloop
  endfacet
  facet normal 0 -1 -0
    outer loop
      vertex 7.5 -1 3.35
      vertex 5 -1 -3.35
      vertex 7.5 -1 -3.35
    endloop
  endfacet
  facet normal 1 -0 0
    outer loop
      vertex 5 -7.1375 3.35
      vertex 5 -1 -3.35
      vertex 5 -1 3.35
    endloop
  endfacet
  facet normal 1 0 0
    outer loop
      vertex 5 -1 -3.35
      vertex 5 -7.1375 3.35
      vertex 5 -7.1375 -3.35
    endloop
  endfacet
  facet normal 0.995187 -0.0979984 0
    outer loop
      vertex 4.98079 -7.33258 3.35
      vertex 5 -7.1375 -3.35
      vertex 5 -7.1375 3.35
    endloop
  endfacet
  facet normal 0.995187 -0.0979984 0
    outer loop
      vertex 5 -7.1375 -3.35
      vertex 4.98079 -7.33258 3.35
      vertex 4.98079 -7.33258 -3.35
    endloop
  endfacet
  facet normal 0.956947 -0.290262 0
    outer loop
      vertex 4.92389 -7.52017 3.35
      vertex 4.98079 -7.33258 -3.35
      vertex 4.98079 -7.33258 3.35
    endloop
  endfacet
  facet normal 0.956947 -0.290262 0
    outer loop
      vertex 4.98079 -7.33258 -3.35
      vertex 4.92389 -7.52017 3.35
      vertex 4.92389 -7.52017 -3.35
    endloop
  endfacet
  facet normal 0.881936 -0.471369 0
    outer loop
      vertex 4.83148 -7.69307 3.35
      vertex 4.92389 -7.52017 -3.35
      vertex 4.92389 -7.52017 3.35
    endloop
  endfacet
  facet normal 0.881936 -0.471369 0
    outer loop
      vertex 4.92389 -7.52017 -3.35
      vertex 4.83148 -7.69307 3.35
      vertex 4.83148 -7.69307 -3.35
    endloop
  endfacet
  facet normal 0.772979 -0.634432 0
    outer loop
      vertex 4.70711 -7.8446 3.35
      vertex 4.83148 -7.69307 -3.35
      vertex 4.83148 -7.69307 3.35
    endloop
  endfacet
  facet normal 0.772979 -0.634432 0
    outer loop
      vertex 4.83148 -7.69307 -3.35
      vertex 4.70711 -7.8446 3.35
      vertex 4.70711 -7.8446 -3.35
    endloop
  endfacet
  facet normal 0.634376 -0.773025 0
    outer loop
      vertex 4.55557 -7.96896 -3.35
      vertex 4.70711 -7.8446 3.35
      vertex 4.55557 -7.96896 3.35
    endloop
  endfacet
  facet normal 0.634376 -0.773025 0
    outer loop
      vertex 4.70711 -7.8446 3.35
      vertex 4.55557 -7.96896 -3.35
      vertex 4.70711 -7.8446 -3.35
    endloop
  endfacet
  facet normal 0.471411 -0.881913 0
    outer loop
      vertex 4.38269 -8.06137 -3.35
      vertex 4.55557 -7.96896 3.35
      vertex 4.38269 -8.06137 3.35
    endloop
  endfacet
  facet normal 0.471411 -0.881913 0
    outer loop
      vertex 4.55557 -7.96896 3.35
      vertex 4.38269 -8.06137 -3.35
      vertex 4.55557 -7.96896 -3.35
    endloop
  endfacet
  facet normal 0.290262 -0.956947 0
    outer loop
      vertex 4.1951 -8.11827 -3.35
      vertex 4.38269 -8.06137 3.35
      vertex 4.1951 -8.11827 3.35
    endloop
  endfacet
  facet normal 0.290262 -0.956947 0
    outer loop
      vertex 4.38269 -8.06137 3.35
      vertex 4.1951 -8.11827 -3.35
      vertex 4.38269 -8.06137 -3.35
    endloop
  endfacet
  facet normal 0.0980895 -0.995178 0
    outer loop
      vertex 4 -8.1375 -3.35
      vertex 4.1951 -8.11827 3.35
      vertex 4 -8.1375 3.35
    endloop
  endfacet
  facet normal 0.0980895 -0.995178 0
    outer loop
      vertex 4.1951 -8.11827 3.35
      vertex 4 -8.1375 -3.35
      vertex 4.1951 -8.11827 -3.35
    endloop
  endfacet
  facet normal -0.0980995 -0.995177 0
    outer loop
      vertex 3.80492 -8.11827 -3.35
      vertex 4 -8.1375 3.35
      vertex 3.80492 -8.11827 3.35
    endloop
  endfacet
  facet normal -0.0980995 -0.995177 -0
    outer loop
      vertex 4 -8.1375 3.35
      vertex 3.80492 -8.11827 -3.35
      vertex 4 -8.1375 -3.35
    endloop
  endfacet
  facet normal -0.290248 -0.956951 0
    outer loop
      vertex 3.61732 -8.06137 -3.35
      vertex 3.80492 -8.11827 3.35
      vertex 3.61732 -8.06137 3.35
    endloop
  endfacet
  facet normal -0.290248 -0.956951 -0
    outer loop
      vertex 3.80492 -8.11827 3.35
      vertex 3.61732 -8.06137 -3.35
      vertex 3.80492 -8.11827 -3.35
    endloop
  endfacet
  facet normal -0.471411 -0.881913 0
    outer loop
      vertex 3.44444 -7.96896 -3.35
      vertex 3.61732 -8.06137 3.35
      vertex 3.44444 -7.96896 3.35
    endloop
  endfacet
  facet normal -0.471411 -0.881913 -0
    outer loop
      vertex 3.61732 -8.06137 3.35
      vertex 3.44444 -7.96896 -3.35
      vertex 3.61732 -8.06137 -3.35
    endloop
  endfacet
  facet normal -0.634401 -0.773004 0
    outer loop
      vertex 3.29291 -7.8446 -3.35
      vertex 3.44444 -7.96896 3.35
      vertex 3.29291 -7.8446 3.35
    endloop
  endfacet
  facet normal -0.634401 -0.773004 -0
    outer loop
      vertex 3.44444 -7.96896 3.35
      vertex 3.29291 -7.8446 -3.35
      vertex 3.44444 -7.96896 -3.35
    endloop
  endfacet
  facet normal -0.772954 -0.634462 0
    outer loop
      vertex 3.29291 -7.8446 -3.35
      vertex 3.16853 -7.69307 3.35
      vertex 3.16853 -7.69307 -3.35
    endloop
  endfacet
  facet normal -0.772954 -0.634462 0
    outer loop
      vertex 3.16853 -7.69307 3.35
      vertex 3.29291 -7.8446 -3.35
      vertex 3.29291 -7.8446 3.35
    endloop
  endfacet
  facet normal -0.881957 -0.471329 0
    outer loop
      vertex 3.16853 -7.69307 -3.35
      vertex 3.07613 -7.52017 3.35
      vertex 3.07613 -7.52017 -3.35
    endloop
  endfacet
  facet normal -0.881957 -0.471329 0
    outer loop
      vertex 3.07613 -7.52017 3.35
      vertex 3.16853 -7.69307 -3.35
      vertex 3.16853 -7.69307 3.35
    endloop
  endfacet
  facet normal -0.956947 -0.290262 0
    outer loop
      vertex 3.07613 -7.52017 -3.35
      vertex 3.01923 -7.33258 3.35
      vertex 3.01923 -7.33258 -3.35
    endloop
  endfacet
  facet normal -0.956947 -0.290262 0
    outer loop
      vertex 3.01923 -7.33258 3.35
      vertex 3.07613 -7.52017 -3.35
      vertex 3.07613 -7.52017 3.35
    endloop
  endfacet
  facet normal -0.995177 -0.0980995 0
    outer loop
      vertex 3.01923 -7.33258 -3.35
      vertex 3 -7.1375 3.35
      vertex 3 -7.1375 -3.35
    endloop
  endfacet
  facet normal -0.995177 -0.0980995 0
    outer loop
      vertex 3 -7.1375 3.35
      vertex 3.01923 -7.33258 -3.35
      vertex 3.01923 -7.33258 3.35
    endloop
  endfacet
  facet normal -1 0 0
    outer loop
      vertex 3 -7.1375 -3.35
      vertex 3 7.1375 3.35
      vertex 3 7.1375 -3.35
    endloop
  endfacet
  facet normal -1 -0 0
    outer loop
      vertex 3 7.1375 3.35
      vertex 3 -7.1375 -3.35
      vertex 3 -7.1375 3.35
    endloop
  endfacet
  facet normal -0.995177 0.0980995 0
    outer loop
      vertex 3 7.1375 -3.35
      vertex 3.01923 7.33258 3.35
      vertex 3.01923 7.33258 -3.35
    endloop
  endfacet
  facet normal -0.995177 0.0980995 0
    outer loop
      vertex 3.01923 7.33258 3.35
      vertex 3 7.1375 -3.35
      vertex 3 7.1375 3.35
    endloop
  endfacet
  facet normal -0.956947 0.290262 0
    outer loop
      vertex 3.01923 7.33258 -3.35
      vertex 3.07613 7.52017 3.35
      vertex 3.07613 7.52017 -3.35
    endloop
  endfacet
  facet normal -0.956947 0.290262 0
    outer loop
      vertex 3.07613 7.52017 3.35
      vertex 3.01923 7.33258 -3.35
      vertex 3.01923 7.33258 3.35
    endloop
  endfacet
  facet normal -0.881957 0.471329 0
    outer loop
      vertex 3.07613 7.52017 -3.35
      vertex 3.16853 7.69307 3.35
      vertex 3.16853 7.69307 -3.35
    endloop
  endfacet
  facet normal -0.881957 0.471329 0
    outer loop
      vertex 3.16853 7.69307 3.35
      vertex 3.07613 7.52017 -3.35
      vertex 3.07613 7.52017 3.35
    endloop
  endfacet
  facet normal -0.772954 0.634462 0
    outer loop
      vertex 3.16853 7.69307 -3.35
      vertex 3.29291 7.8446 3.35
      vertex 3.29291 7.8446 -3.35
    endloop
  endfacet
  facet normal -0.772954 0.634462 0
    outer loop
      vertex 3.29291 7.8446 3.35
      vertex 3.16853 7.69307 -3.35
      vertex 3.16853 7.69307 3.35
    endloop
  endfacet
  facet normal -0.634401 0.773004 0
    outer loop
      vertex 3.44444 7.96896 -3.35
      vertex 3.29291 7.8446 3.35
      vertex 3.44444 7.96896 3.35
    endloop
  endfacet
  facet normal -0.634401 0.773004 0
    outer loop
      vertex 3.29291 7.8446 3.35
      vertex 3.44444 7.96896 -3.35
      vertex 3.29291 7.8446 -3.35
    endloop
  endfacet
  facet normal -0.471411 0.881913 0
    outer loop
      vertex 3.61732 8.06137 -3.35
      vertex 3.44444 7.96896 3.35
      vertex 3.61732 8.06137 3.35
    endloop
  endfacet
  facet normal -0.471411 0.881913 0
    outer loop
      vertex 3.44444 7.96896 3.35
      vertex 3.61732 8.06137 -3.35
      vertex 3.44444 7.96896 -3.35
    endloop
  endfacet
  facet normal -0.290248 0.956951 0
    outer loop
      vertex 3.80492 8.11827 -3.35
      vertex 3.61732 8.06137 3.35
      vertex 3.80492 8.11827 3.35
    endloop
  endfacet
  facet normal -0.290248 0.956951 0
    outer loop
      vertex 3.61732 8.06137 3.35
      vertex 3.80492 8.11827 -3.35
      vertex 3.61732 8.06137 -3.35
    endloop
  endfacet
  facet normal -0.0980995 0.995177 0
    outer loop
      vertex 4 8.1375 -3.35
      vertex 3.80492 8.11827 3.35
      vertex 4 8.1375 3.35
    endloop
  endfacet
  facet normal -0.0980995 0.995177 0
    outer loop
      vertex 3.80492 8.11827 3.35
      vertex 4 8.1375 -3.35
      vertex 3.80492 8.11827 -3.35
    endloop
  endfacet
  facet normal 0.0980895 0.995178 -0
    outer loop
      vertex 4.1951 8.11827 -3.35
      vertex 4 8.1375 3.35
      vertex 4.1951 8.11827 3.35
    endloop
  endfacet
  facet normal 0.0980895 0.995178 0
    outer loop
      vertex 4 8.1375 3.35
      vertex 4.1951 8.11827 -3.35
      vertex 4 8.1375 -3.35
    endloop
  endfacet
  facet normal 0.290262 0.956947 -0
    outer loop
      vertex 4.38269 8.06137 -3.35
      vertex 4.1951 8.11827 3.35
      vertex 4.38269 8.06137 3.35
    endloop
  endfacet
  facet normal 0.290262 0.956947 0
    outer loop
      vertex 4.1951 8.11827 3.35
      vertex 4.38269 8.06137 -3.35
      vertex 4.1951 8.11827 -3.35
    endloop
  endfacet
  facet normal 0.471411 0.881913 -0
    outer loop
      vertex 4.55557 7.96896 -3.35
      vertex 4.38269 8.06137 3.35
      vertex 4.55557 7.96896 3.35
    endloop
  endfacet
  facet normal 0.471411 0.881913 0
    outer loop
      vertex 4.38269 8.06137 3.35
      vertex 4.55557 7.96896 -3.35
      vertex 4.38269 8.06137 -3.35
    endloop
  endfacet
  facet normal 0.634376 0.773025 -0
    outer loop
      vertex 4.70711 7.8446 -3.35
      vertex 4.55557 7.96896 3.35
      vertex 4.70711 7.8446 3.35
    endloop
  endfacet
  facet normal 0.634376 0.773025 0
    outer loop
      vertex 4.55557 7.96896 3.35
      vertex 4.70711 7.8446 -3.35
      vertex 4.55557 7.96896 -3.35
    endloop
  endfacet
  facet normal 0.772979 0.634432 0
    outer loop
      vertex 4.83148 7.69307 3.35
      vertex 4.70711 7.8446 -3.35
      vertex 4.70711 7.8446 3.35
    endloop
  endfacet
  facet normal 0.772979 0.634432 0
    outer loop
      vertex 4.70711 7.8446 -3.35
      vertex 4.83148 7.69307 3.35
      vertex 4.83148 7.69307 -3.35
    endloop
  endfacet
  facet normal 0.881936 0.471369 0
    outer loop
      vertex 4.92389 7.52017 3.35
      vertex 4.83148 7.69307 -3.35
      vertex 4.83148 7.69307 3.35
    endloop
  endfacet
  facet normal 0.881936 0.471369 0
    outer loop
      vertex 4.83148 7.69307 -3.35
      vertex 4.92389 7.52017 3.35
      vertex 4.92389 7.52017 -3.35
    endloop
  endfacet
  facet normal 0.956947 0.290262 0
    outer loop
      vertex 4.98079 7.33258 3.35
      vertex 4.92389 7.52017 -3.35
      vertex 4.92389 7.52017 3.35
    endloop
  endfacet
  facet normal 0.956947 0.290262 0
    outer loop
      vertex 4.92389 7.52017 -3.35
      vertex 4.98079 7.33258 3.35
      vertex 4.98079 7.33258 -3.35
    endloop
  endfacet
  facet normal 0.995187 0.0979984 0
    outer loop
      vertex 5 7.1375 3.35
      vertex 4.98079 7.33258 -3.35
      vertex 4.98079 7.33258 3.35
    endloop
  endfacet
  facet normal 0.995187 0.0979984 0
    outer loop
      vertex 4.98079 7.33258 -3.35
      vertex 5 7.1375 3.35
      vertex 5 7.1375 -3.35
    endloop
  endfacet
  facet normal 1 -0 0
    outer loop
      vertex 5 1 3.35
      vertex 5 7.1375 -3.35
      vertex 5 7.1375 3.35
    endloop
  endfacet
  facet normal 1 0 0
    outer loop
      vertex 5 7.1375 -3.35
      vertex 5 1 3.35
      vertex 5 1 -3.35
    endloop
  endfacet
  facet normal 0 1 -0
    outer loop
      vertex 7.5 1 -3.35
      vertex 5 1 3.35
      vertex 7.5 1 3.35
    endloop
  endfacet
  facet normal 0 1 0
    outer loop
      vertex 5 1 3.35
      vertex 7.5 1 -3.35
      vertex 5 1 -3.35
    endloop
  endfacet
  facet normal 0.411619 0.911356 -0
    outer loop
      vertex 8.69133 0.461929 -3.35
      vertex 7.5 1 3.35
      vertex 8.69133 0.461929 3.35
    endloop
  endfacet
  facet normal 0.411619 0.911356 0
    outer loop
      vertex 7.5 1 3.35
      vertex 8.69133 0.461929 -3.35
      vertex 7.5 1 -3.35
    endloop
  endfacet
endsolid OpenSCAD_Model
