solid OpenSCAD_Model
  facet normal 0 0 1
    outer loop
      vertex 7.02982 0.204834 3.35
      vertex 7.02982 -0.204849 3.35
      vertex 7.04999 0 3.35
    endloop
  endfacet
  facet normal 0 0 1
    outer loop
      vertex 6.97006 0.40181 3.35
      vertex 7.02982 -0.204849 3.35
      vertex 7.02982 0.204834 3.35
    endloop
  endfacet
  facet normal 0 0 1
    outer loop
      vertex 6.97006 0.40181 3.35
      vertex 6.97006 -0.401825 3.35
      vertex 7.02982 -0.204849 3.35
    endloop
  endfacet
  facet normal 0 0 1
    outer loop
      vertex 6.87303 0.583344 3.35
      vertex 6.97006 -0.401825 3.35
      vertex 6.97006 0.40181 3.35
    endloop
  endfacet
  facet normal 0 0 1
    outer loop
      vertex 6.87303 0.583344 3.35
      vertex 6.87303 -0.583359 3.35
      vertex 6.97006 -0.401825 3.35
    endloop
  endfacet
  facet normal 0 0 1
    outer loop
      vertex 6.74245 0.742447 3.35
      vertex 6.87303 -0.583359 3.35
      vertex 6.87303 0.583344 3.35
    endloop
  endfacet
  facet normal 0 0 1
    outer loop
      vertex 6.74245 0.742447 3.35
      vertex 6.74245 -0.742462 3.35
      vertex 6.87303 -0.583359 3.35
    endloop
  endfacet
  facet normal 0 0 1
    outer loop
      vertex 6.58334 0.873032 3.35
      vertex 6.74245 -0.742462 3.35
      vertex 6.74245 0.742447 3.35
    endloop
  endfacet
  facet normal 0 0 1
    outer loop
      vertex 6.58334 0.873032 3.35
      vertex 6.58334 -0.873047 3.35
      vertex 6.74245 -0.742462 3.35
    endloop
  endfacet
  facet normal 0 0 1
    outer loop
      vertex 6.40181 0.970062 3.35
      vertex 6.58334 -0.873047 3.35
      vertex 6.58334 0.873032 3.35
    endloop
  endfacet
  facet normal 0 0 1
    outer loop
      vertex 6.40181 0.970062 3.35
      vertex 6.40181 -0.970078 3.35
      vertex 6.58334 -0.873047 3.35
    endloop
  endfacet
  facet normal 0 0 1
    outer loop
      vertex 6.20483 1.02982 3.35
      vertex 6.40181 -0.970078 3.35
      vertex 6.40181 0.970062 3.35
    endloop
  endfacet
  facet normal 0 0 1
    outer loop
      vertex 6.20483 1.02982 3.35
      vertex 6.20483 -1.02983 3.35
      vertex 6.40181 -0.970078 3.35
    endloop
  endfacet
  facet normal 0 0 1
    outer loop
      vertex 6 1.04999 3.35
      vertex 6.20483 -1.02983 3.35
      vertex 6.20483 1.02982 3.35
    endloop
  endfacet
  facet normal 0 0 1
    outer loop
      vertex 6 1.04999 3.35
      vertex 6 -1.05 3.35
      vertex 6.20483 -1.02983 3.35
    endloop
  endfacet
  facet normal 0 0 1
    outer loop
      vertex 6 1.04999 3.35
      vertex 1 -1.05 3.35
      vertex 6 -1.05 3.35
    endloop
  endfacet
  facet normal 0 0 1
    outer loop
      vertex -1 -17 3.35
      vertex 1 -17 3.35
      vertex 1 -1.05 3.35
    endloop
  endfacet
  facet normal 0 0 1
    outer loop
      vertex 1 -17 3.35
      vertex -1 -17 3.35
      vertex 0.461929 -18.1913 3.35
    endloop
  endfacet
  facet normal 0 -0 1
    outer loop
      vertex -0.461929 -18.1913 3.35
      vertex 0.461929 -18.1913 3.35
      vertex -1 -17 3.35
    endloop
  endfacet
  facet normal 0 0 1
    outer loop
      vertex 0.461929 -18.1913 3.35
      vertex -0.461929 -18.1913 3.35
      vertex 0.415726 -18.2778 3.35
    endloop
  endfacet
  facet normal 0 0 1
    outer loop
      vertex 0.415726 -18.2778 3.35
      vertex -0.461929 -18.1913 3.35
      vertex 0.353546 -18.3535 3.35
    endloop
  endfacet
  facet normal 0 0 1
    outer loop
      vertex 0.353546 -18.3535 3.35
      vertex -0.461929 -18.1913 3.35
      vertex 0.277771 -18.4157 3.35
    endloop
  endfacet
  facet normal 0 0 1
    outer loop
      vertex 0.277771 -18.4157 3.35
      vertex -0.461929 -18.1913 3.35
      vertex 0.19133 -18.4619 3.35
    endloop
  endfacet
  facet normal 0 0 1
    outer loop
      vertex 0.19133 -18.4619 3.35
      vertex -0.461929 -18.1913 3.35
      vertex 0.0975342 -18.4904 3.35
    endloop
  endfacet
  facet normal 0 0 1
    outer loop
      vertex 0.0975342 -18.4904 3.35
      vertex -0.461929 -18.1913 3.35
      vertex 0 -18.5 3.35
    endloop
  endfacet
  facet normal 0 0 1
    outer loop
      vertex 0 -18.5 3.35
      vertex -0.461929 -18.1913 3.35
      vertex -0.0975342 -18.4904 3.35
    endloop
  endfacet
  facet normal 0 0 1
    outer loop
      vertex -0.0975342 -18.4904 3.35
      vertex -0.461929 -18.1913 3.35
      vertex -0.19133 -18.4619 3.35
    endloop
  endfacet
  facet normal 0 0 1
    outer loop
      vertex -0.19133 -18.4619 3.35
      vertex -0.461929 -18.1913 3.35
      vertex -0.277771 -18.4157 3.35
    endloop
  endfacet
  facet normal 0 0 1
    outer loop
      vertex -0.277771 -18.4157 3.35
      vertex -0.461929 -18.1913 3.35
      vertex -0.353546 -18.3535 3.35
    endloop
  endfacet
  facet normal 0 0 1
    outer loop
      vertex -1 -17 3.35
      vertex 1 -1.05 3.35
      vertex -1 -1.05 3.35
    endloop
  endfacet
  facet normal 0 0 1
    outer loop
      vertex 6 1.04999 3.35
      vertex -1 -1.05 3.35
      vertex 1 -1.05 3.35
    endloop
  endfacet
  facet normal -0 0 1
    outer loop
      vertex -6 1.04999 3.35
      vertex -1 -1.05 3.35
      vertex 6 1.04999 3.35
    endloop
  endfacet
  facet normal 0 0 1
    outer loop
      vertex -6 1.04999 3.35
      vertex -6 -1.05 3.35
      vertex -1 -1.05 3.35
    endloop
  endfacet
  facet normal -0 0 1
    outer loop
      vertex -6.20483 1.02982 3.35
      vertex -6 -1.05 3.35
      vertex -6 1.04999 3.35
    endloop
  endfacet
  facet normal 0 0 1
    outer loop
      vertex -6.20483 1.02982 3.35
      vertex -6.20483 -1.02983 3.35
      vertex -6 -1.05 3.35
    endloop
  endfacet
  facet normal -0 0 1
    outer loop
      vertex -6.40181 0.970062 3.35
      vertex -6.20483 -1.02983 3.35
      vertex -6.20483 1.02982 3.35
    endloop
  endfacet
  facet normal 0 0 1
    outer loop
      vertex -6.40181 0.970062 3.35
      vertex -6.40181 -0.970078 3.35
      vertex -6.20483 -1.02983 3.35
    endloop
  endfacet
  facet normal -0 0 1
    outer loop
      vertex -6.58334 0.873032 3.35
      vertex -6.40181 -0.970078 3.35
      vertex -6.40181 0.970062 3.35
    endloop
  endfacet
  facet normal 0 0 1
    outer loop
      vertex -6.58334 0.873032 3.35
      vertex -6.58334 -0.873047 3.35
      vertex -6.40181 -0.970078 3.35
    endloop
  endfacet
  facet normal -0 0 1
    outer loop
      vertex -6.74245 0.742447 3.35
      vertex -6.58334 -0.873047 3.35
      vertex -6.58334 0.873032 3.35
    endloop
  endfacet
  facet normal 0 0 1
    outer loop
      vertex -6.74245 0.742447 3.35
      vertex -6.74245 -0.742462 3.35
      vertex -6.58334 -0.873047 3.35
    endloop
  endfacet
  facet normal -0 0 1
    outer loop
      vertex -6.87303 0.583344 3.35
      vertex -6.74245 -0.742462 3.35
      vertex -6.74245 0.742447 3.35
    endloop
  endfacet
  facet normal 0 0 1
    outer loop
      vertex -6.87303 0.583344 3.35
      vertex -6.87303 -0.583359 3.35
      vertex -6.74245 -0.742462 3.35
    endloop
  endfacet
  facet normal -0 0 1
    outer loop
      vertex -6.97006 0.40181 3.35
      vertex -6.87303 -0.583359 3.35
      vertex -6.87303 0.583344 3.35
    endloop
  endfacet
  facet normal 0 0 1
    outer loop
      vertex -6.97006 0.40181 3.35
      vertex -6.97006 -0.401825 3.35
      vertex -6.87303 -0.583359 3.35
    endloop
  endfacet
  facet normal -0 0 1
    outer loop
      vertex -7.02982 0.204834 3.35
      vertex -6.97006 -0.401825 3.35
      vertex -6.97006 0.40181 3.35
    endloop
  endfacet
  facet normal 0 0 1
    outer loop
      vertex -7.02982 0.204834 3.35
      vertex -7.02982 -0.204849 3.35
      vertex -6.97006 -0.401825 3.35
    endloop
  endfacet
  facet normal 0 -0 1
    outer loop
      vertex -7.02982 -0.204849 3.35
      vertex -7.02982 0.204834 3.35
      vertex -7.04999 0 3.35
    endloop
  endfacet
  facet normal 0 0 1
    outer loop
      vertex -0.353546 -18.3535 3.35
      vertex -0.461929 -18.1913 3.35
      vertex -0.415726 -18.2778 3.35
    endloop
  endfacet
  facet normal 0 0 -1
    outer loop
      vertex -1 -17 -3.35
      vertex 1 -17 -3.35
      vertex 0.461929 -18.1913 -3.35
    endloop
  endfacet
  facet normal 0 0 -1
    outer loop
      vertex 7.02982 -0.204849 -3.35
      vertex 7.02982 0.204834 -3.35
      vertex 7.04999 0 -3.35
    endloop
  endfacet
  facet normal 0 0 -1
    outer loop
      vertex 6.97006 -0.401825 -3.35
      vertex 7.02982 0.204834 -3.35
      vertex 7.02982 -0.204849 -3.35
    endloop
  endfacet
  facet normal 0 0 -1
    outer loop
      vertex 6.97006 -0.401825 -3.35
      vertex 6.97006 0.40181 -3.35
      vertex 7.02982 0.204834 -3.35
    endloop
  endfacet
  facet normal 0 0 -1
    outer loop
      vertex 6.87303 -0.583359 -3.35
      vertex 6.97006 0.40181 -3.35
      vertex 6.97006 -0.401825 -3.35
    endloop
  endfacet
  facet normal 0 0 -1
    outer loop
      vertex 6.87303 -0.583359 -3.35
      vertex 6.87303 0.583344 -3.35
      vertex 6.97006 0.40181 -3.35
    endloop
  endfacet
  facet normal 0 0 -1
    outer loop
      vertex 6.74245 -0.742462 -3.35
      vertex 6.87303 0.583344 -3.35
      vertex 6.87303 -0.583359 -3.35
    endloop
  endfacet
  facet normal 0 0 -1
    outer loop
      vertex 6.74245 -0.742462 -3.35
      vertex 6.74245 0.742447 -3.35
      vertex 6.87303 0.583344 -3.35
    endloop
  endfacet
  facet normal 0 0 -1
    outer loop
      vertex 6.58334 -0.873047 -3.35
      vertex 6.74245 0.742447 -3.35
      vertex 6.74245 -0.742462 -3.35
    endloop
  endfacet
  facet normal 0 0 -1
    outer loop
      vertex 6.58334 -0.873047 -3.35
      vertex 6.58334 0.873032 -3.35
      vertex 6.74245 0.742447 -3.35
    endloop
  endfacet
  facet normal 0 0 -1
    outer loop
      vertex 6.40181 -0.970078 -3.35
      vertex 6.58334 0.873032 -3.35
      vertex 6.58334 -0.873047 -3.35
    endloop
  endfacet
  facet normal 0 0 -1
    outer loop
      vertex 6.40181 -0.970078 -3.35
      vertex 6.40181 0.970062 -3.35
      vertex 6.58334 0.873032 -3.35
    endloop
  endfacet
  facet normal 0 0 -1
    outer loop
      vertex 6.20483 -1.02983 -3.35
      vertex 6.40181 0.970062 -3.35
      vertex 6.40181 -0.970078 -3.35
    endloop
  endfacet
  facet normal 0 0 -1
    outer loop
      vertex 6.20483 -1.02983 -3.35
      vertex 6.20483 1.02982 -3.35
      vertex 6.40181 0.970062 -3.35
    endloop
  endfacet
  facet normal 0 0 -1
    outer loop
      vertex 6 -1.05 -3.35
      vertex 6.20483 1.02982 -3.35
      vertex 6.20483 -1.02983 -3.35
    endloop
  endfacet
  facet normal 0 0 -1
    outer loop
      vertex 6 -1.05 -3.35
      vertex 6 1.04999 -3.35
      vertex 6.20483 1.02982 -3.35
    endloop
  endfacet
  facet normal 0 0 -1
    outer loop
      vertex 1 -1.05 -3.35
      vertex 6 1.04999 -3.35
      vertex 6 -1.05 -3.35
    endloop
  endfacet
  facet normal 0 0 -1
    outer loop
      vertex -0.461929 -18.1913 -3.35
      vertex 0.461929 -18.1913 -3.35
      vertex 0.415726 -18.2778 -3.35
    endloop
  endfacet
  facet normal 0 0 -1
    outer loop
      vertex -0.461929 -18.1913 -3.35
      vertex 0.415726 -18.2778 -3.35
      vertex 0.353546 -18.3535 -3.35
    endloop
  endfacet
  facet normal 0 0 -1
    outer loop
      vertex -0.461929 -18.1913 -3.35
      vertex 0.353546 -18.3535 -3.35
      vertex 0.277771 -18.4157 -3.35
    endloop
  endfacet
  facet normal 0 0 -1
    outer loop
      vertex -0.461929 -18.1913 -3.35
      vertex 0.277771 -18.4157 -3.35
      vertex 0.19133 -18.4619 -3.35
    endloop
  endfacet
  facet normal 0 0 -1
    outer loop
      vertex -0.461929 -18.1913 -3.35
      vertex 0.19133 -18.4619 -3.35
      vertex 0.0975342 -18.4904 -3.35
    endloop
  endfacet
  facet normal 0 0 -1
    outer loop
      vertex -0.461929 -18.1913 -3.35
      vertex 0.0975342 -18.4904 -3.35
      vertex 0 -18.5 -3.35
    endloop
  endfacet
  facet normal 0 0 -1
    outer loop
      vertex -0.461929 -18.1913 -3.35
      vertex 0 -18.5 -3.35
      vertex -0.0975342 -18.4904 -3.35
    endloop
  endfacet
  facet normal 0 0 -1
    outer loop
      vertex -0.461929 -18.1913 -3.35
      vertex -0.0975342 -18.4904 -3.35
      vertex -0.19133 -18.4619 -3.35
    endloop
  endfacet
  facet normal 0 0 -1
    outer loop
      vertex -0.461929 -18.1913 -3.35
      vertex -0.19133 -18.4619 -3.35
      vertex -0.277771 -18.4157 -3.35
    endloop
  endfacet
  facet normal 0 0 -1
    outer loop
      vertex -0.461929 -18.1913 -3.35
      vertex -0.277771 -18.4157 -3.35
      vertex -0.353546 -18.3535 -3.35
    endloop
  endfacet
  facet normal 0 0 -1
    outer loop
      vertex -0.461929 -18.1913 -3.35
      vertex -0.353546 -18.3535 -3.35
      vertex -0.415726 -18.2778 -3.35
    endloop
  endfacet
  facet normal 0 0 -1
    outer loop
      vertex 0.461929 -18.1913 -3.35
      vertex -0.461929 -18.1913 -3.35
      vertex -1 -17 -3.35
    endloop
  endfacet
  facet normal 0 0 -1
    outer loop
      vertex 1 -17 -3.35
      vertex -1 -17 -3.35
      vertex 1 -1.05 -3.35
    endloop
  endfacet
  facet normal 0 0 -1
    outer loop
      vertex -1 -1.05 -3.35
      vertex 1 -1.05 -3.35
      vertex -1 -17 -3.35
    endloop
  endfacet
  facet normal 0 0 -1
    outer loop
      vertex -1 -1.05 -3.35
      vertex 6 1.04999 -3.35
      vertex 1 -1.05 -3.35
    endloop
  endfacet
  facet normal 0 0 -1
    outer loop
      vertex -6 1.04999 -3.35
      vertex -1 -1.05 -3.35
      vertex -6 -1.05 -3.35
    endloop
  endfacet
  facet normal 0 0 -1
    outer loop
      vertex -1 -1.05 -3.35
      vertex -6 1.04999 -3.35
      vertex 6 1.04999 -3.35
    endloop
  endfacet
  facet normal 0 0 -1
    outer loop
      vertex -6.20483 -1.02983 -3.35
      vertex -6 1.04999 -3.35
      vertex -6 -1.05 -3.35
    endloop
  endfacet
  facet normal 0 0 -1
    outer loop
      vertex -6.20483 -1.02983 -3.35
      vertex -6.20483 1.02982 -3.35
      vertex -6 1.04999 -3.35
    endloop
  endfacet
  facet normal 0 0 -1
    outer loop
      vertex -6.40181 -0.970078 -3.35
      vertex -6.20483 1.02982 -3.35
      vertex -6.20483 -1.02983 -3.35
    endloop
  endfacet
  facet normal 0 0 -1
    outer loop
      vertex -6.40181 -0.970078 -3.35
      vertex -6.40181 0.970062 -3.35
      vertex -6.20483 1.02982 -3.35
    endloop
  endfacet
  facet normal 0 0 -1
    outer loop
      vertex -6.58334 -0.873047 -3.35
      vertex -6.40181 0.970062 -3.35
      vertex -6.40181 -0.970078 -3.35
    endloop
  endfacet
  facet normal 0 0 -1
    outer loop
      vertex -6.58334 -0.873047 -3.35
      vertex -6.58334 0.873032 -3.35
      vertex -6.40181 0.970062 -3.35
    endloop
  endfacet
  facet normal 0 0 -1
    outer loop
      vertex -6.74245 -0.742462 -3.35
      vertex -6.58334 0.873032 -3.35
      vertex -6.58334 -0.873047 -3.35
    endloop
  endfacet
  facet normal 0 0 -1
    outer loop
      vertex -6.74245 -0.742462 -3.35
      vertex -6.74245 0.742447 -3.35
      vertex -6.58334 0.873032 -3.35
    endloop
  endfacet
  facet normal 0 0 -1
    outer loop
      vertex -6.87303 -0.583359 -3.35
      vertex -6.74245 0.742447 -3.35
      vertex -6.74245 -0.742462 -3.35
    endloop
  endfacet
  facet normal 0 0 -1
    outer loop
      vertex -6.87303 -0.583359 -3.35
      vertex -6.87303 0.583344 -3.35
      vertex -6.74245 0.742447 -3.35
    endloop
  endfacet
  facet normal 0 0 -1
    outer loop
      vertex -6.97006 -0.401825 -3.35
      vertex -6.87303 0.583344 -3.35
      vertex -6.87303 -0.583359 -3.35
    endloop
  endfacet
  facet normal 0 0 -1
    outer loop
      vertex -6.97006 -0.401825 -3.35
      vertex -6.97006 0.40181 -3.35
      vertex -6.87303 0.583344 -3.35
    endloop
  endfacet
  facet normal 0 0 -1
    outer loop
      vertex -7.02982 -0.204849 -3.35
      vertex -6.97006 0.40181 -3.35
      vertex -6.97006 -0.401825 -3.35
    endloop
  endfacet
  facet normal 0 0 -1
    outer loop
      vertex -7.02982 -0.204849 -3.35
      vertex -7.02982 0.204834 -3.35
      vertex -6.97006 0.40181 -3.35
    endloop
  endfacet
  facet normal 0 -0 -1
    outer loop
      vertex -7.02982 0.204834 -3.35
      vertex -7.02982 -0.204849 -3.35
      vertex -7.04999 0 -3.35
    endloop
  endfacet
  facet normal 0.882058 -0.471141 0
    outer loop
      vertex 0.415726 -18.2778 3.35
      vertex 0.461929 -18.1913 -3.35
      vertex 0.461929 -18.1913 3.35
    endloop
  endfacet
  facet normal 0.882058 -0.471141 0
    outer loop
      vertex 0.461929 -18.1913 -3.35
      vertex 0.415726 -18.2778 3.35
      vertex 0.415726 -18.2778 -3.35
    endloop
  endfacet
  facet normal 0.772737 -0.634726 0
    outer loop
      vertex 0.353546 -18.3535 3.35
      vertex 0.415726 -18.2778 -3.35
      vertex 0.415726 -18.2778 3.35
    endloop
  endfacet
  facet normal 0.772737 -0.634726 0
    outer loop
      vertex 0.415726 -18.2778 -3.35
      vertex 0.353546 -18.3535 3.35
      vertex 0.353546 -18.3535 -3.35
    endloop
  endfacet
  facet normal 0.634473 -0.772945 0
    outer loop
      vertex 0.277771 -18.4157 -3.35
      vertex 0.353546 -18.3535 3.35
      vertex 0.277771 -18.4157 3.35
    endloop
  endfacet
  facet normal 0.634473 -0.772945 0
    outer loop
      vertex 0.353546 -18.3535 3.35
      vertex 0.277771 -18.4157 -3.35
      vertex 0.353546 -18.3535 -3.35
    endloop
  endfacet
  facet normal 0.471368 -0.881937 0
    outer loop
      vertex 0.19133 -18.4619 -3.35
      vertex 0.277771 -18.4157 3.35
      vertex 0.19133 -18.4619 3.35
    endloop
  endfacet
  facet normal 0.471368 -0.881937 0
    outer loop
      vertex 0.277771 -18.4157 3.35
      vertex 0.19133 -18.4619 -3.35
      vertex 0.277771 -18.4157 -3.35
    endloop
  endfacet
  facet normal 0.290727 -0.956806 0
    outer loop
      vertex 0.0975342 -18.4904 -3.35
      vertex 0.19133 -18.4619 3.35
      vertex 0.0975342 -18.4904 3.35
    endloop
  endfacet
  facet normal 0.290727 -0.956806 0
    outer loop
      vertex 0.19133 -18.4619 3.35
      vertex 0.0975342 -18.4904 -3.35
      vertex 0.19133 -18.4619 -3.35
    endloop
  endfacet
  facet normal 0.0979537 -0.995191 0
    outer loop
      vertex 0 -18.5 -3.35
      vertex 0.0975342 -18.4904 3.35
      vertex 0 -18.5 3.35
    endloop
  endfacet
  facet normal 0.0979537 -0.995191 0
    outer loop
      vertex 0.0975342 -18.4904 3.35
      vertex 0 -18.5 -3.35
      vertex 0.0975342 -18.4904 -3.35
    endloop
  endfacet
  facet normal -0.0979537 -0.995191 0
    outer loop
      vertex -0.0975342 -18.4904 -3.35
      vertex 0 -18.5 3.35
      vertex -0.0975342 -18.4904 3.35
    endloop
  endfacet
  facet normal -0.0979537 -0.995191 -0
    outer loop
      vertex 0 -18.5 3.35
      vertex -0.0975342 -18.4904 -3.35
      vertex 0 -18.5 -3.35
    endloop
  endfacet
  facet normal -0.290727 -0.956806 0
    outer loop
      vertex -0.19133 -18.4619 -3.35
      vertex -0.0975342 -18.4904 3.35
      vertex -0.19133 -18.4619 3.35
    endloop
  endfacet
  facet normal -0.290727 -0.956806 -0
    outer loop
      vertex -0.0975342 -18.4904 3.35
      vertex -0.19133 -18.4619 -3.35
      vertex -0.0975342 -18.4904 -3.35
    endloop
  endfacet
  facet normal -0.471368 -0.881937 0
    outer loop
      vertex -0.277771 -18.4157 -3.35
      vertex -0.19133 -18.4619 3.35
      vertex -0.277771 -18.4157 3.35
    endloop
  endfacet
  facet normal -0.471368 -0.881937 -0
    outer loop
      vertex -0.19133 -18.4619 3.35
      vertex -0.277771 -18.4157 -3.35
      vertex -0.19133 -18.4619 -3.35
    endloop
  endfacet
  facet normal -0.634473 -0.772945 0
    outer loop
      vertex -0.353546 -18.3535 -3.35
      vertex -0.277771 -18.4157 3.35
      vertex -0.353546 -18.3535 3.35
    endloop
  endfacet
  facet normal -0.634473 -0.772945 -0
    outer loop
      vertex -0.277771 -18.4157 3.35
      vertex -0.353546 -18.3535 -3.35
      vertex -0.277771 -18.4157 -3.35
    endloop
  endfacet
  facet normal -0.772737 -0.634726 0
    outer loop
      vertex -0.353546 -18.3535 -3.35
      vertex -0.415726 -18.2778 3.35
      vertex -0.415726 -18.2778 -3.35
    endloop
  endfacet
  facet normal -0.772737 -0.634726 0
    outer loop
      vertex -0.415726 -18.2778 3.35
      vertex -0.353546 -18.3535 -3.35
      vertex -0.353546 -18.3535 3.35
    endloop
  endfacet
  facet normal -0.882058 -0.471141 0
    outer loop
      vertex -0.415726 -18.2778 -3.35
      vertex -0.461929 -18.1913 3.35
      vertex -0.461929 -18.1913 -3.35
    endloop
  endfacet
  facet normal -0.882058 -0.471141 0
    outer loop
      vertex -0.461929 -18.1913 3.35
      vertex -0.415726 -18.2778 -3.35
      vertex -0.415726 -18.2778 3.35
    endloop
  endfacet
  facet normal -0.911352 -0.411628 0
    outer loop
      vertex -0.461929 -18.1913 -3.35
      vertex -1 -17 3.35
      vertex -1 -17 -3.35
    endloop
  endfacet
  facet normal -0.911352 -0.411628 0
    outer loop
      vertex -1 -17 3.35
      vertex -0.461929 -18.1913 -3.35
      vertex -0.461929 -18.1913 3.35
    endloop
  endfacet
  facet normal -1 0 0
    outer loop
      vertex -1 -17 -3.35
      vertex -1 -1.05 3.35
      vertex -1 -1.05 -3.35
    endloop
  endfacet
  facet normal -1 -0 0
    outer loop
      vertex -1 -1.05 3.35
      vertex -1 -17 -3.35
      vertex -1 -17 3.35
    endloop
  endfacet
  facet normal 0 -1 0
    outer loop
      vertex -6 -1.05 -3.35
      vertex -1 -1.05 3.35
      vertex -6 -1.05 3.35
    endloop
  endfacet
  facet normal 0 -1 -0
    outer loop
      vertex -1 -1.05 3.35
      vertex -6 -1.05 -3.35
      vertex -1 -1.05 -3.35
    endloop
  endfacet
  facet normal -0.0979979 -0.995187 0
    outer loop
      vertex -6.20483 -1.02983 -3.35
      vertex -6 -1.05 3.35
      vertex -6.20483 -1.02983 3.35
    endloop
  endfacet
  facet normal -0.0979979 -0.995187 -0
    outer loop
      vertex -6 -1.05 3.35
      vertex -6.20483 -1.02983 -3.35
      vertex -6 -1.05 -3.35
    endloop
  endfacet
  facet normal -0.290279 -0.956942 0
    outer loop
      vertex -6.40181 -0.970078 -3.35
      vertex -6.20483 -1.02983 3.35
      vertex -6.40181 -0.970078 3.35
    endloop
  endfacet
  facet normal -0.290279 -0.956942 -0
    outer loop
      vertex -6.20483 -1.02983 3.35
      vertex -6.40181 -0.970078 -3.35
      vertex -6.20483 -1.02983 -3.35
    endloop
  endfacet
  facet normal -0.471401 -0.881919 0
    outer loop
      vertex -6.58334 -0.873047 -3.35
      vertex -6.40181 -0.970078 3.35
      vertex -6.58334 -0.873047 3.35
    endloop
  endfacet
  facet normal -0.471401 -0.881919 -0
    outer loop
      vertex -6.40181 -0.970078 3.35
      vertex -6.58334 -0.873047 -3.35
      vertex -6.40181 -0.970078 -3.35
    endloop
  endfacet
  facet normal -0.634413 -0.772994 0
    outer loop
      vertex -6.74245 -0.742462 -3.35
      vertex -6.58334 -0.873047 3.35
      vertex -6.74245 -0.742462 3.35
    endloop
  endfacet
  facet normal -0.634413 -0.772994 -0
    outer loop
      vertex -6.58334 -0.873047 3.35
      vertex -6.74245 -0.742462 -3.35
      vertex -6.58334 -0.873047 -3.35
    endloop
  endfacet
  facet normal -0.772992 -0.634415 0
    outer loop
      vertex -6.74245 -0.742462 -3.35
      vertex -6.87303 -0.583359 3.35
      vertex -6.87303 -0.583359 -3.35
    endloop
  endfacet
  facet normal -0.772992 -0.634415 0
    outer loop
      vertex -6.87303 -0.583359 3.35
      vertex -6.74245 -0.742462 -3.35
      vertex -6.74245 -0.742462 3.35
    endloop
  endfacet
  facet normal -0.881925 -0.471389 0
    outer loop
      vertex -6.87303 -0.583359 -3.35
      vertex -6.97006 -0.401825 3.35
      vertex -6.97006 -0.401825 -3.35
    endloop
  endfacet
  facet normal -0.881925 -0.471389 0
    outer loop
      vertex -6.97006 -0.401825 3.35
      vertex -6.87303 -0.583359 -3.35
      vertex -6.87303 -0.583359 3.35
    endloop
  endfacet
  facet normal -0.95693 -0.29032 0
    outer loop
      vertex -6.97006 -0.401825 -3.35
      vertex -7.02982 -0.204849 3.35
      vertex -7.02982 -0.204849 -3.35
    endloop
  endfacet
  facet normal -0.95693 -0.29032 0
    outer loop
      vertex -7.02982 -0.204849 3.35
      vertex -6.97006 -0.401825 -3.35
      vertex -6.97006 -0.401825 3.35
    endloop
  endfacet
  facet normal -0.995188 -0.0979889 0
    outer loop
      vertex -7.02982 -0.204849 -3.35
      vertex -7.04999 0 3.35
      vertex -7.04999 0 -3.35
    endloop
  endfacet
  facet normal -0.995188 -0.0979889 0
    outer loop
      vertex -7.04999 0 3.35
      vertex -7.02982 -0.204849 -3.35
      vertex -7.02982 -0.204849 3.35
    endloop
  endfacet
  facet normal -0.995187 0.097996 0
    outer loop
      vertex -7.04999 0 -3.35
      vertex -7.02982 0.204834 3.35
      vertex -7.02982 0.204834 -3.35
    endloop
  endfacet
  facet normal -0.995187 0.097996 0
    outer loop
      vertex -7.02982 0.204834 3.35
      vertex -7.04999 0 -3.35
      vertex -7.04999 0 3.35
    endloop
  endfacet
  facet normal -0.95693 0.29032 0
    outer loop
      vertex -7.02982 0.204834 -3.35
      vertex -6.97006 0.40181 3.35
      vertex -6.97006 0.40181 -3.35
    endloop
  endfacet
  facet normal -0.95693 0.29032 0
    outer loop
      vertex -6.97006 0.40181 3.35
      vertex -7.02982 0.204834 -3.35
      vertex -7.02982 0.204834 3.35
    endloop
  endfacet
  facet normal -0.881925 0.471389 0
    outer loop
      vertex -6.97006 0.40181 -3.35
      vertex -6.87303 0.583344 3.35
      vertex -6.87303 0.583344 -3.35
    endloop
  endfacet
  facet normal -0.881925 0.471389 0
    outer loop
      vertex -6.87303 0.583344 3.35
      vertex -6.97006 0.40181 -3.35
      vertex -6.97006 0.40181 3.35
    endloop
  endfacet
  facet normal -0.772992 0.634415 0
    outer loop
      vertex -6.87303 0.583344 -3.35
      vertex -6.74245 0.742447 3.35
      vertex -6.74245 0.742447 -3.35
    endloop
  endfacet
  facet normal -0.772992 0.634415 0
    outer loop
      vertex -6.74245 0.742447 3.35
      vertex -6.87303 0.583344 -3.35
      vertex -6.87303 0.583344 3.35
    endloop
  endfacet
  facet normal -0.634413 0.772994 0
    outer loop
      vertex -6.58334 0.873032 -3.35
      vertex -6.74245 0.742447 3.35
      vertex -6.58334 0.873032 3.35
    endloop
  endfacet
  facet normal -0.634413 0.772994 0
    outer loop
      vertex -6.74245 0.742447 3.35
      vertex -6.58334 0.873032 -3.35
      vertex -6.74245 0.742447 -3.35
    endloop
  endfacet
  facet normal -0.471397 0.881921 0
    outer loop
      vertex -6.40181 0.970062 -3.35
      vertex -6.58334 0.873032 3.35
      vertex -6.40181 0.970062 3.35
    endloop
  endfacet
  facet normal -0.471397 0.881921 0
    outer loop
      vertex -6.58334 0.873032 3.35
      vertex -6.40181 0.970062 -3.35
      vertex -6.58334 0.873032 -3.35
    endloop
  endfacet
  facet normal -0.290306 0.956934 0
    outer loop
      vertex -6.20483 1.02982 -3.35
      vertex -6.40181 0.970062 3.35
      vertex -6.20483 1.02982 3.35
    endloop
  endfacet
  facet normal -0.290306 0.956934 0
    outer loop
      vertex -6.40181 0.970062 3.35
      vertex -6.20483 1.02982 -3.35
      vertex -6.40181 0.970062 -3.35
    endloop
  endfacet
  facet normal -0.0979979 0.995187 0
    outer loop
      vertex -6 1.04999 -3.35
      vertex -6.20483 1.02982 3.35
      vertex -6 1.04999 3.35
    endloop
  endfacet
  facet normal -0.0979979 0.995187 0
    outer loop
      vertex -6.20483 1.02982 3.35
      vertex -6 1.04999 -3.35
      vertex -6.20483 1.02982 -3.35
    endloop
  endfacet
  facet normal 0 1 -0
    outer loop
      vertex 6 1.04999 -3.35
      vertex -6 1.04999 3.35
      vertex 6 1.04999 3.35
    endloop
  endfacet
  facet normal 0 1 0
    outer loop
      vertex -6 1.04999 3.35
      vertex 6 1.04999 -3.35
      vertex -6 1.04999 -3.35
    endloop
  endfacet
  facet normal 0.0979979 0.995187 -0
    outer loop
      vertex 6.20483 1.02982 -3.35
      vertex 6 1.04999 3.35
      vertex 6.20483 1.02982 3.35
    endloop
  endfacet
  facet normal 0.0979979 0.995187 0
    outer loop
      vertex 6 1.04999 3.35
      vertex 6.20483 1.02982 -3.35
      vertex 6 1.04999 -3.35
    endloop
  endfacet
  facet normal 0.290306 0.956934 -0
    outer loop
      vertex 6.40181 0.970062 -3.35
      vertex 6.20483 1.02982 3.35
      vertex 6.40181 0.970062 3.35
    endloop
  endfacet
  facet normal 0.290306 0.956934 0
    outer loop
      vertex 6.20483 1.02982 3.35
      vertex 6.40181 0.970062 -3.35
      vertex 6.20483 1.02982 -3.35
    endloop
  endfacet
  facet normal 0.471397 0.881921 -0
    outer loop
      vertex 6.58334 0.873032 -3.35
      vertex 6.40181 0.970062 3.35
      vertex 6.58334 0.873032 3.35
    endloop
  endfacet
  facet normal 0.471397 0.881921 0
    outer loop
      vertex 6.40181 0.970062 3.35
      vertex 6.58334 0.873032 -3.35
      vertex 6.40181 0.970062 -3.35
    endloop
  endfacet
  facet normal 0.634413 0.772994 -0
    outer loop
      vertex 6.74245 0.742447 -3.35
      vertex 6.58334 0.873032 3.35
      vertex 6.74245 0.742447 3.35
    endloop
  endfacet
  facet normal 0.634413 0.772994 0
    outer loop
      vertex 6.58334 0.873032 3.35
      vertex 6.74245 0.742447 -3.35
      vertex 6.58334 0.873032 -3.35
    endloop
  endfacet
  facet normal 0.772992 0.634415 0
    outer loop
      vertex 6.87303 0.583344 3.35
      vertex 6.74245 0.742447 -3.35
      vertex 6.74245 0.742447 3.35
    endloop
  endfacet
  facet normal 0.772992 0.634415 0
    outer loop
      vertex 6.74245 0.742447 -3.35
      vertex 6.87303 0.583344 3.35
      vertex 6.87303 0.583344 -3.35
    endloop
  endfacet
  facet normal 0.881925 0.471389 0
    outer loop
      vertex 6.97006 0.40181 3.35
      vertex 6.87303 0.583344 -3.35
      vertex 6.87303 0.583344 3.35
    endloop
  endfacet
  facet normal 0.881925 0.471389 0
    outer loop
      vertex 6.87303 0.583344 -3.35
      vertex 6.97006 0.40181 3.35
      vertex 6.97006 0.40181 -3.35
    endloop
  endfacet
  facet normal 0.95693 0.29032 0
    outer loop
      vertex 7.02982 0.204834 3.35
      vertex 6.97006 0.40181 -3.35
      vertex 6.97006 0.40181 3.35
    endloop
  endfacet
  facet normal 0.95693 0.29032 0
    outer loop
      vertex 6.97006 0.40181 -3.35
      vertex 7.02982 0.204834 3.35
      vertex 7.02982 0.204834 -3.35
    endloop
  endfacet
  facet normal 0.995187 0.097996 0
    outer loop
      vertex 7.04999 0 3.35
      vertex 7.02982 0.204834 -3.35
      vertex 7.02982 0.204834 3.35
    endloop
  endfacet
  facet normal 0.995187 0.097996 0
    outer loop
      vertex 7.02982 0.204834 -3.35
      vertex 7.04999 0 3.35
      vertex 7.04999 0 -3.35
    endloop
  endfacet
  facet normal 0.995188 -0.0979889 0
    outer loop
      vertex 7.02982 -0.204849 3.35
      vertex 7.04999 0 -3.35
      vertex 7.04999 0 3.35
    endloop
  endfacet
  facet normal 0.995188 -0.0979889 0
    outer loop
      vertex 7.04999 0 -3.35
      vertex 7.02982 -0.204849 3.35
      vertex 7.02982 -0.204849 -3.35
    endloop
  endfacet
  facet normal 0.95693 -0.29032 0
    outer loop
      vertex 6.97006 -0.401825 3.35
      vertex 7.02982 -0.204849 -3.35
      vertex 7.02982 -0.204849 3.35
    endloop
  endfacet
  facet normal 0.95693 -0.29032 0
    outer loop
      vertex 7.02982 -0.204849 -3.35
      vertex 6.97006 -0.401825 3.35
      vertex 6.97006 -0.401825 -3.35
    endloop
  endfacet
  facet normal 0.881925 -0.471389 0
    outer loop
      vertex 6.87303 -0.583359 3.35
      vertex 6.97006 -0.401825 -3.35
      vertex 6.97006 -0.401825 3.35
    endloop
  endfacet
  facet normal 0.881925 -0.471389 0
    outer loop
      vertex 6.97006 -0.401825 -3.35
      vertex 6.87303 -0.583359 3.35
      vertex 6.87303 -0.583359 -3.35
    endloop
  endfacet
  facet normal 0.772992 -0.634415 0
    outer loop
      vertex 6.74245 -0.742462 3.35
      vertex 6.87303 -0.583359 -3.35
      vertex 6.87303 -0.583359 3.35
    endloop
  endfacet
  facet normal 0.772992 -0.634415 0
    outer loop
      vertex 6.87303 -0.583359 -3.35
      vertex 6.74245 -0.742462 3.35
      vertex 6.74245 -0.742462 -3.35
    endloop
  endfacet
  facet normal 0.634413 -0.772994 0
    outer loop
      vertex 6.58334 -0.873047 -3.35
      vertex 6.74245 -0.742462 3.35
      vertex 6.58334 -0.873047 3.35
    endloop
  endfacet
  facet normal 0.634413 -0.772994 0
    outer loop
      vertex 6.74245 -0.742462 3.35
      vertex 6.58334 -0.873047 -3.35
      vertex 6.74245 -0.742462 -3.35
    endloop
  endfacet
  facet normal 0.471401 -0.881919 0
    outer loop
      vertex 6.40181 -0.970078 -3.35
      vertex 6.58334 -0.873047 3.35
      vertex 6.40181 -0.970078 3.35
    endloop
  endfacet
  facet normal 0.471401 -0.881919 0
    outer loop
      vertex 6.58334 -0.873047 3.35
      vertex 6.40181 -0.970078 -3.35
      vertex 6.58334 -0.873047 -3.35
    endloop
  endfacet
  facet normal 0.290279 -0.956942 0
    outer loop
      vertex 6.20483 -1.02983 -3.35
      vertex 6.40181 -0.970078 3.35
      vertex 6.20483 -1.02983 3.35
    endloop
  endfacet
  facet normal 0.290279 -0.956942 0
    outer loop
      vertex 6.40181 -0.970078 3.35
      vertex 6.20483 -1.02983 -3.35
      vertex 6.40181 -0.970078 -3.35
    endloop
  endfacet
  facet normal 0.0979979 -0.995187 0
    outer loop
      vertex 6 -1.05 -3.35
      vertex 6.20483 -1.02983 3.35
      vertex 6 -1.05 3.35
    endloop
  endfacet
  facet normal 0.0979979 -0.995187 0
    outer loop
      vertex 6.20483 -1.02983 3.35
      vertex 6 -1.05 -3.35
      vertex 6.20483 -1.02983 -3.35
    endloop
  endfacet
  facet normal 0 -1 0
    outer loop
      vertex 1 -1.05 -3.35
      vertex 6 -1.05 3.35
      vertex 1 -1.05 3.35
    endloop
  endfacet
  facet normal 0 -1 -0
    outer loop
      vertex 6 -1.05 3.35
      vertex 1 -1.05 -3.35
      vertex 6 -1.05 -3.35
    endloop
  endfacet
  facet normal 1 -0 0
    outer loop
      vertex 1 -17 3.35
      vertex 1 -1.05 -3.35
      vertex 1 -1.05 3.35
    endloop
  endfacet
  facet normal 1 0 0
    outer loop
      vertex 1 -1.05 -3.35
      vertex 1 -17 3.35
      vertex 1 -17 -3.35
    endloop
  endfacet
  facet normal 0.911352 -0.411628 0
    outer loop
      vertex 0.461929 -18.1913 3.35
      vertex 1 -17 -3.35
      vertex 1 -17 3.35
    endloop
  endfacet
  facet normal 0.911352 -0.411628 0
    outer loop
      vertex 1 -17 -3.35
      vertex 0.461929 -18.1913 3.35
      vertex 0.461929 -18.1913 -3.35
    endloop
  endfacet
  facet normal 0 0 1
    outer loop
      vertex -2.97018 5.20483 3.35
      vertex -2.97018 4.79515 3.35
      vertex -2.95001 5 3.35
    endloop
  endfacet
  facet normal 0 0 1
    outer loop
      vertex -3.02994 5.40181 3.35
      vertex -2.97018 4.79515 3.35
      vertex -2.97018 5.20483 3.35
    endloop
  endfacet
  facet normal 0 0 1
    outer loop
      vertex -3.02994 5.40181 3.35
      vertex -3.02994 4.59818 3.35
      vertex -2.97018 4.79515 3.35
    endloop
  endfacet
  facet normal 0 0 1
    outer loop
      vertex -3.12697 5.58334 3.35
      vertex -3.02994 4.59818 3.35
      vertex -3.02994 5.40181 3.35
    endloop
  endfacet
  facet normal 0 0 1
    outer loop
      vertex -3.12697 5.58334 3.35
      vertex -3.12697 4.41664 3.35
      vertex -3.02994 4.59818 3.35
    endloop
  endfacet
  facet normal 0 0 1
    outer loop
      vertex -3.25755 5.74245 3.35
      vertex -3.12697 4.41664 3.35
      vertex -3.12697 5.58334 3.35
    endloop
  endfacet
  facet normal 0 0 1
    outer loop
      vertex -3.25755 5.74245 3.35
      vertex -3.25755 4.25754 3.35
      vertex -3.12697 4.41664 3.35
    endloop
  endfacet
  facet normal 0 0 1
    outer loop
      vertex -3.41666 5.87303 3.35
      vertex -3.25755 4.25754 3.35
      vertex -3.25755 5.74245 3.35
    endloop
  endfacet
  facet normal 0 0 1
    outer loop
      vertex -3.41666 5.87303 3.35
      vertex -3.41666 4.12695 3.35
      vertex -3.25755 4.25754 3.35
    endloop
  endfacet
  facet normal 0 0 1
    outer loop
      vertex -3.59819 5.97006 3.35
      vertex -3.41666 4.12695 3.35
      vertex -3.41666 5.87303 3.35
    endloop
  endfacet
  facet normal 0 0 1
    outer loop
      vertex -3.59819 5.97006 3.35
      vertex -3.59819 4.02992 3.35
      vertex -3.41666 4.12695 3.35
    endloop
  endfacet
  facet normal 0 0 1
    outer loop
      vertex -3.79517 6.02982 3.35
      vertex -3.59819 4.02992 3.35
      vertex -3.59819 5.97006 3.35
    endloop
  endfacet
  facet normal 0 0 1
    outer loop
      vertex -3.79517 6.02982 3.35
      vertex -3.79517 3.97017 3.35
      vertex -3.59819 4.02992 3.35
    endloop
  endfacet
  facet normal 0 0 1
    outer loop
      vertex -4 6.04999 3.35
      vertex -3.79517 3.97017 3.35
      vertex -3.79517 6.02982 3.35
    endloop
  endfacet
  facet normal 0 0 1
    outer loop
      vertex -4 6.04999 3.35
      vertex -4 3.95 3.35
      vertex -3.79517 3.97017 3.35
    endloop
  endfacet
  facet normal 0 0 1
    outer loop
      vertex -4 6.04999 3.35
      vertex -9 3.95 3.35
      vertex -4 3.95 3.35
    endloop
  endfacet
  facet normal 0 0 1
    outer loop
      vertex -11 -12 3.35
      vertex -9 -12 3.35
      vertex -9 3.95 3.35
    endloop
  endfacet
  facet normal 0 0 1
    outer loop
      vertex -9 -12 3.35
      vertex -11 -12 3.35
      vertex -9.53807 -13.1913 3.35
    endloop
  endfacet
  facet normal 0 -0 1
    outer loop
      vertex -10.4619 -13.1913 3.35
      vertex -9.53807 -13.1913 3.35
      vertex -11 -12 3.35
    endloop
  endfacet
  facet normal 0 0 1
    outer loop
      vertex -9.53807 -13.1913 3.35
      vertex -10.4619 -13.1913 3.35
      vertex -9.58427 -13.2778 3.35
    endloop
  endfacet
  facet normal 0 0 1
    outer loop
      vertex -9.58427 -13.2778 3.35
      vertex -10.4619 -13.1913 3.35
      vertex -9.64645 -13.3535 3.35
    endloop
  endfacet
  facet normal 0 0 1
    outer loop
      vertex -9.64645 -13.3535 3.35
      vertex -10.4619 -13.1913 3.35
      vertex -9.72223 -13.4157 3.35
    endloop
  endfacet
  facet normal 0 0 1
    outer loop
      vertex -9.72223 -13.4157 3.35
      vertex -10.4619 -13.1913 3.35
      vertex -9.80867 -13.4619 3.35
    endloop
  endfacet
  facet normal 0 0 1
    outer loop
      vertex -9.80867 -13.4619 3.35
      vertex -10.4619 -13.1913 3.35
      vertex -9.90247 -13.4904 3.35
    endloop
  endfacet
  facet normal 0 0 1
    outer loop
      vertex -9.90247 -13.4904 3.35
      vertex -10.4619 -13.1913 3.35
      vertex -10 -13.5 3.35
    endloop
  endfacet
  facet normal 0 0 1
    outer loop
      vertex -10 -13.5 3.35
      vertex -10.4619 -13.1913 3.35
      vertex -10.0975 -13.4904 3.35
    endloop
  endfacet
  facet normal 0 0 1
    outer loop
      vertex -10.0975 -13.4904 3.35
      vertex -10.4619 -13.1913 3.35
      vertex -10.1913 -13.4619 3.35
    endloop
  endfacet
  facet normal 0 0 1
    outer loop
      vertex -10.1913 -13.4619 3.35
      vertex -10.4619 -13.1913 3.35
      vertex -10.2778 -13.4157 3.35
    endloop
  endfacet
  facet normal 0 0 1
    outer loop
      vertex -10.2778 -13.4157 3.35
      vertex -10.4619 -13.1913 3.35
      vertex -10.3535 -13.3535 3.35
    endloop
  endfacet
  facet normal 0 0 1
    outer loop
      vertex -11 -12 3.35
      vertex -9 3.95 3.35
      vertex -11 3.95 3.35
    endloop
  endfacet
  facet normal 0 0 1
    outer loop
      vertex -4 6.04999 3.35
      vertex -11 3.95 3.35
      vertex -9 3.95 3.35
    endloop
  endfacet
  facet normal -0 0 1
    outer loop
      vertex -16 6.04999 3.35
      vertex -11 3.95 3.35
      vertex -4 6.04999 3.35
    endloop
  endfacet
  facet normal 0 0 1
    outer loop
      vertex -16 6.04999 3.35
      vertex -16 3.95 3.35
      vertex -11 3.95 3.35
    endloop
  endfacet
  facet normal -0 0 1
    outer loop
      vertex -16.2048 6.02982 3.35
      vertex -16 3.95 3.35
      vertex -16 6.04999 3.35
    endloop
  endfacet
  facet normal 0 0 1
    outer loop
      vertex -16.2048 6.02982 3.35
      vertex -16.2048 3.97017 3.35
      vertex -16 3.95 3.35
    endloop
  endfacet
  facet normal -0 0 1
    outer loop
      vertex -16.4018 5.97006 3.35
      vertex -16.2048 3.97017 3.35
      vertex -16.2048 6.02982 3.35
    endloop
  endfacet
  facet normal 0 0 1
    outer loop
      vertex -16.4018 5.97006 3.35
      vertex -16.4018 4.02992 3.35
      vertex -16.2048 3.97017 3.35
    endloop
  endfacet
  facet normal -0 0 1
    outer loop
      vertex -16.5833 5.87303 3.35
      vertex -16.4018 4.02992 3.35
      vertex -16.4018 5.97006 3.35
    endloop
  endfacet
  facet normal 0 0 1
    outer loop
      vertex -16.5833 5.87303 3.35
      vertex -16.5833 4.12695 3.35
      vertex -16.4018 4.02992 3.35
    endloop
  endfacet
  facet normal -0 0 1
    outer loop
      vertex -16.7424 5.74245 3.35
      vertex -16.5833 4.12695 3.35
      vertex -16.5833 5.87303 3.35
    endloop
  endfacet
  facet normal 0 0 1
    outer loop
      vertex -16.7424 5.74245 3.35
      vertex -16.7424 4.25754 3.35
      vertex -16.5833 4.12695 3.35
    endloop
  endfacet
  facet normal -0 0 1
    outer loop
      vertex -16.873 5.58334 3.35
      vertex -16.7424 4.25754 3.35
      vertex -16.7424 5.74245 3.35
    endloop
  endfacet
  facet normal 0 0 1
    outer loop
      vertex -16.873 5.58334 3.35
      vertex -16.873 4.41664 3.35
      vertex -16.7424 4.25754 3.35
    endloop
  endfacet
  facet normal -0 0 1
    outer loop
      vertex -16.9701 5.40181 3.35
      vertex -16.873 4.41664 3.35
      vertex -16.873 5.58334 3.35
    endloop
  endfacet
  facet normal 0 0 1
    outer loop
      vertex -16.9701 5.40181 3.35
      vertex -16.9701 4.59818 3.35
      vertex -16.873 4.41664 3.35
    endloop
  endfacet
  facet normal -0 0 1
    outer loop
      vertex -17.0298 5.20483 3.35
      vertex -16.9701 4.59818 3.35
      vertex -16.9701 5.40181 3.35
    endloop
  endfacet
  facet normal 0 0 1
    outer loop
      vertex -17.0298 5.20483 3.35
      vertex -17.0298 4.79515 3.35
      vertex -16.9701 4.59818 3.35
    endloop
  endfacet
  facet normal 0 -0 1
    outer loop
      vertex -17.0298 4.79515 3.35
      vertex -17.0298 5.20483 3.35
      vertex -17.05 5 3.35
    endloop
  endfacet
  facet normal 0 0 1
    outer loop
      vertex -10.3535 -13.3535 3.35
      vertex -10.4619 -13.1913 3.35
      vertex -10.4157 -13.2778 3.35
    endloop
  endfacet
  facet normal 0 0 -1
    outer loop
      vertex -11 -12 -3.35
      vertex -9 -12 -3.35
      vertex -9.53807 -13.1913 -3.35
    endloop
  endfacet
  facet normal 0 0 -1
    outer loop
      vertex -2.97018 4.79515 -3.35
      vertex -2.97018 5.20483 -3.35
      vertex -2.95001 5 -3.35
    endloop
  endfacet
  facet normal 0 0 -1
    outer loop
      vertex -3.02994 4.59818 -3.35
      vertex -2.97018 5.20483 -3.35
      vertex -2.97018 4.79515 -3.35
    endloop
  endfacet
  facet normal 0 0 -1
    outer loop
      vertex -3.02994 4.59818 -3.35
      vertex -3.02994 5.40181 -3.35
      vertex -2.97018 5.20483 -3.35
    endloop
  endfacet
  facet normal 0 0 -1
    outer loop
      vertex -3.12697 4.41664 -3.35
      vertex -3.02994 5.40181 -3.35
      vertex -3.02994 4.59818 -3.35
    endloop
  endfacet
  facet normal 0 0 -1
    outer loop
      vertex -3.12697 4.41664 -3.35
      vertex -3.12697 5.58334 -3.35
      vertex -3.02994 5.40181 -3.35
    endloop
  endfacet
  facet normal 0 0 -1
    outer loop
      vertex -3.25755 4.25754 -3.35
      vertex -3.12697 5.58334 -3.35
      vertex -3.12697 4.41664 -3.35
    endloop
  endfacet
  facet normal 0 0 -1
    outer loop
      vertex -3.25755 4.25754 -3.35
      vertex -3.25755 5.74245 -3.35
      vertex -3.12697 5.58334 -3.35
    endloop
  endfacet
  facet normal 0 0 -1
    outer loop
      vertex -3.41666 4.12695 -3.35
      vertex -3.25755 5.74245 -3.35
      vertex -3.25755 4.25754 -3.35
    endloop
  endfacet
  facet normal 0 0 -1
    outer loop
      vertex -3.41666 4.12695 -3.35
      vertex -3.41666 5.87303 -3.35
      vertex -3.25755 5.74245 -3.35
    endloop
  endfacet
  facet normal 0 0 -1
    outer loop
      vertex -3.59819 4.02992 -3.35
      vertex -3.41666 5.87303 -3.35
      vertex -3.41666 4.12695 -3.35
    endloop
  endfacet
  facet normal 0 0 -1
    outer loop
      vertex -3.59819 4.02992 -3.35
      vertex -3.59819 5.97006 -3.35
      vertex -3.41666 5.87303 -3.35
    endloop
  endfacet
  facet normal 0 0 -1
    outer loop
      vertex -3.79517 3.97017 -3.35
      vertex -3.59819 5.97006 -3.35
      vertex -3.59819 4.02992 -3.35
    endloop
  endfacet
  facet normal 0 0 -1
    outer loop
      vertex -3.79517 3.97017 -3.35
      vertex -3.79517 6.02982 -3.35
      vertex -3.59819 5.97006 -3.35
    endloop
  endfacet
  facet normal 0 0 -1
    outer loop
      vertex -4 3.95 -3.35
      vertex -3.79517 6.02982 -3.35
      vertex -3.79517 3.97017 -3.35
    endloop
  endfacet
  facet normal 0 0 -1
    outer loop
      vertex -4 3.95 -3.35
      vertex -4 6.04999 -3.35
      vertex -3.79517 6.02982 -3.35
    endloop
  endfacet
  facet normal 0 0 -1
    outer loop
      vertex -9 3.95 -3.35
      vertex -4 6.04999 -3.35
      vertex -4 3.95 -3.35
    endloop
  endfacet
  facet normal 0 0 -1
    outer loop
      vertex -10.4619 -13.1913 -3.35
      vertex -9.53807 -13.1913 -3.35
      vertex -9.58427 -13.2778 -3.35
    endloop
  endfacet
  facet normal 0 0 -1
    outer loop
      vertex -10.4619 -13.1913 -3.35
      vertex -9.58427 -13.2778 -3.35
      vertex -9.64645 -13.3535 -3.35
    endloop
  endfacet
  facet normal 0 0 -1
    outer loop
      vertex -10.4619 -13.1913 -3.35
      vertex -9.64645 -13.3535 -3.35
      vertex -9.72223 -13.4157 -3.35
    endloop
  endfacet
  facet normal 0 0 -1
    outer loop
      vertex -10.4619 -13.1913 -3.35
      vertex -9.72223 -13.4157 -3.35
      vertex -9.80867 -13.4619 -3.35
    endloop
  endfacet
  facet normal 0 0 -1
    outer loop
      vertex -10.4619 -13.1913 -3.35
      vertex -9.80867 -13.4619 -3.35
      vertex -9.90247 -13.4904 -3.35
    endloop
  endfacet
  facet normal 0 0 -1
    outer loop
      vertex -10.4619 -13.1913 -3.35
      vertex -9.90247 -13.4904 -3.35
      vertex -10 -13.5 -3.35
    endloop
  endfacet
  facet normal 0 0 -1
    outer loop
      vertex -10.4619 -13.1913 -3.35
      vertex -10 -13.5 -3.35
      vertex -10.0975 -13.4904 -3.35
    endloop
  endfacet
  facet normal 0 0 -1
    outer loop
      vertex -10.4619 -13.1913 -3.35
      vertex -10.0975 -13.4904 -3.35
      vertex -10.1913 -13.4619 -3.35
    endloop
  endfacet
  facet normal 0 0 -1
    outer loop
      vertex -10.4619 -13.1913 -3.35
      vertex -10.1913 -13.4619 -3.35
      vertex -10.2778 -13.4157 -3.35
    endloop
  endfacet
  facet normal 0 0 -1
    outer loop
      vertex -10.4619 -13.1913 -3.35
      vertex -10.2778 -13.4157 -3.35
      vertex -10.3535 -13.3535 -3.35
    endloop
  endfacet
  facet normal 0 0 -1
    outer loop
      vertex -10.4619 -13.1913 -3.35
      vertex -10.3535 -13.3535 -3.35
      vertex -10.4157 -13.2778 -3.35
    endloop
  endfacet
  facet normal 0 0 -1
    outer loop
      vertex -9.53807 -13.1913 -3.35
      vertex -10.4619 -13.1913 -3.35
      vertex -11 -12 -3.35
    endloop
  endfacet
  facet normal 0 0 -1
    outer loop
      vertex -9 -12 -3.35
      vertex -11 -12 -3.35
      vertex -9 3.95 -3.35
    endloop
  endfacet
  facet normal 0 0 -1
    outer loop
      vertex -11 3.95 -3.35
      vertex -9 3.95 -3.35
      vertex -11 -12 -3.35
    endloop
  endfacet
  facet normal 0 0 -1
    outer loop
      vertex -11 3.95 -3.35
      vertex -4 6.04999 -3.35
      vertex -9 3.95 -3.35
    endloop
  endfacet
  facet normal 0 0 -1
    outer loop
      vertex -16 6.04999 -3.35
      vertex -11 3.95 -3.35
      vertex -16 3.95 -3.35
    endloop
  endfacet
  facet normal 0 0 -1
    outer loop
      vertex -11 3.95 -3.35
      vertex -16 6.04999 -3.35
      vertex -4 6.04999 -3.35
    endloop
  endfacet
  facet normal 0 0 -1
    outer loop
      vertex -16.2048 3.97017 -3.35
      vertex -16 6.04999 -3.35
      vertex -16 3.95 -3.35
    endloop
  endfacet
  facet normal 0 0 -1
    outer loop
      vertex -16.2048 3.97017 -3.35
      vertex -16.2048 6.02982 -3.35
      vertex -16 6.04999 -3.35
    endloop
  endfacet
  facet normal 0 0 -1
    outer loop
      vertex -16.4018 4.02992 -3.35
      vertex -16.2048 6.02982 -3.35
      vertex -16.2048 3.97017 -3.35
    endloop
  endfacet
  facet normal 0 0 -1
    outer loop
      vertex -16.4018 4.02992 -3.35
      vertex -16.4018 5.97006 -3.35
      vertex -16.2048 6.02982 -3.35
    endloop
  endfacet
  facet normal 0 0 -1
    outer loop
      vertex -16.5833 4.12695 -3.35
      vertex -16.4018 5.97006 -3.35
      vertex -16.4018 4.02992 -3.35
    endloop
  endfacet
  facet normal 0 0 -1
    outer loop
      vertex -16.5833 4.12695 -3.35
      vertex -16.5833 5.87303 -3.35
      vertex -16.4018 5.97006 -3.35
    endloop
  endfacet
  facet normal 0 0 -1
    outer loop
      vertex -16.7424 4.25754 -3.35
      vertex -16.5833 5.87303 -3.35
      vertex -16.5833 4.12695 -3.35
    endloop
  endfacet
  facet normal 0 0 -1
    outer loop
      vertex -16.7424 4.25754 -3.35
      vertex -16.7424 5.74245 -3.35
      vertex -16.5833 5.87303 -3.35
    endloop
  endfacet
  facet normal 0 0 -1
    outer loop
      vertex -16.873 4.41664 -3.35
      vertex -16.7424 5.74245 -3.35
      vertex -16.7424 4.25754 -3.35
    endloop
  endfacet
  facet normal 0 0 -1
    outer loop
      vertex -16.873 4.41664 -3.35
      vertex -16.873 5.58334 -3.35
      vertex -16.7424 5.74245 -3.35
    endloop
  endfacet
  facet normal 0 0 -1
    outer loop
      vertex -16.9701 4.59818 -3.35
      vertex -16.873 5.58334 -3.35
      vertex -16.873 4.41664 -3.35
    endloop
  endfacet
  facet normal 0 0 -1
    outer loop
      vertex -16.9701 4.59818 -3.35
      vertex -16.9701 5.40181 -3.35
      vertex -16.873 5.58334 -3.35
    endloop
  endfacet
  facet normal 0 0 -1
    outer loop
      vertex -17.0298 4.79515 -3.35
      vertex -16.9701 5.40181 -3.35
      vertex -16.9701 4.59818 -3.35
    endloop
  endfacet
  facet normal 0 0 -1
    outer loop
      vertex -17.0298 4.79515 -3.35
      vertex -17.0298 5.20483 -3.35
      vertex -16.9701 5.40181 -3.35
    endloop
  endfacet
  facet normal 0 -0 -1
    outer loop
      vertex -17.0298 5.20483 -3.35
      vertex -17.0298 4.79515 -3.35
      vertex -17.05 5 -3.35
    endloop
  endfacet
  facet normal 0.882071 -0.471117 0
    outer loop
      vertex -9.58427 -13.2778 3.35
      vertex -9.53807 -13.1913 -3.35
      vertex -9.53807 -13.1913 3.35
    endloop
  endfacet
  facet normal 0.882071 -0.471117 0
    outer loop
      vertex -9.53807 -13.1913 -3.35
      vertex -9.58427 -13.2778 3.35
      vertex -9.58427 -13.2778 -3.35
    endloop
  endfacet
  facet normal 0.772737 -0.634726 0
    outer loop
      vertex -9.64645 -13.3535 3.35
      vertex -9.58427 -13.2778 -3.35
      vertex -9.58427 -13.2778 3.35
    endloop
  endfacet
  facet normal 0.772737 -0.634726 0
    outer loop
      vertex -9.58427 -13.2778 -3.35
      vertex -9.64645 -13.3535 3.35
      vertex -9.64645 -13.3535 -3.35
    endloop
  endfacet
  facet normal 0.634448 -0.772966 0
    outer loop
      vertex -9.72223 -13.4157 -3.35
      vertex -9.64645 -13.3535 3.35
      vertex -9.72223 -13.4157 3.35
    endloop
  endfacet
  facet normal 0.634448 -0.772966 0
    outer loop
      vertex -9.64645 -13.3535 3.35
      vertex -9.72223 -13.4157 -3.35
      vertex -9.64645 -13.3535 -3.35
    endloop
  endfacet
  facet normal 0.471372 -0.881935 0
    outer loop
      vertex -9.80867 -13.4619 -3.35
      vertex -9.72223 -13.4157 3.35
      vertex -9.80867 -13.4619 3.35
    endloop
  endfacet
  facet normal 0.471372 -0.881935 0
    outer loop
      vertex -9.72223 -13.4157 3.35
      vertex -9.80867 -13.4619 -3.35
      vertex -9.72223 -13.4157 -3.35
    endloop
  endfacet
  facet normal 0.290715 -0.95681 0
    outer loop
      vertex -9.90247 -13.4904 -3.35
      vertex -9.80867 -13.4619 3.35
      vertex -9.90247 -13.4904 3.35
    endloop
  endfacet
  facet normal 0.290715 -0.95681 0
    outer loop
      vertex -9.80867 -13.4619 3.35
      vertex -9.90247 -13.4904 -3.35
      vertex -9.80867 -13.4619 -3.35
    endloop
  endfacet
  facet normal 0.0979579 -0.995191 0
    outer loop
      vertex -10 -13.5 -3.35
      vertex -9.90247 -13.4904 3.35
      vertex -10 -13.5 3.35
    endloop
  endfacet
  facet normal 0.0979579 -0.995191 0
    outer loop
      vertex -9.90247 -13.4904 3.35
      vertex -10 -13.5 -3.35
      vertex -9.90247 -13.4904 -3.35
    endloop
  endfacet
  facet normal -0.0979877 -0.995188 0
    outer loop
      vertex -10.0975 -13.4904 -3.35
      vertex -10 -13.5 3.35
      vertex -10.0975 -13.4904 3.35
    endloop
  endfacet
  facet normal -0.0979877 -0.995188 -0
    outer loop
      vertex -10 -13.5 3.35
      vertex -10.0975 -13.4904 -3.35
      vertex -10 -13.5 -3.35
    endloop
  endfacet
  facet normal -0.290715 -0.95681 0
    outer loop
      vertex -10.1913 -13.4619 -3.35
      vertex -10.0975 -13.4904 3.35
      vertex -10.1913 -13.4619 3.35
    endloop
  endfacet
  facet normal -0.290715 -0.95681 -0
    outer loop
      vertex -10.0975 -13.4904 3.35
      vertex -10.1913 -13.4619 -3.35
      vertex -10.0975 -13.4904 -3.35
    endloop
  endfacet
  facet normal -0.471117 -0.882071 0
    outer loop
      vertex -10.2778 -13.4157 -3.35
      vertex -10.1913 -13.4619 3.35
      vertex -10.2778 -13.4157 3.35
    endloop
  endfacet
  facet normal -0.471117 -0.882071 -0
    outer loop
      vertex -10.1913 -13.4619 3.35
      vertex -10.2778 -13.4157 -3.35
      vertex -10.1913 -13.4619 -3.35
    endloop
  endfacet
  facet normal -0.634848 -0.772637 0
    outer loop
      vertex -10.3535 -13.3535 -3.35
      vertex -10.2778 -13.4157 3.35
      vertex -10.3535 -13.3535 3.35
    endloop
  endfacet
  facet normal -0.634848 -0.772637 -0
    outer loop
      vertex -10.2778 -13.4157 3.35
      vertex -10.3535 -13.3535 -3.35
      vertex -10.2778 -13.4157 -3.35
    endloop
  endfacet
  facet normal -0.772637 -0.634848 0
    outer loop
      vertex -10.3535 -13.3535 -3.35
      vertex -10.4157 -13.2778 3.35
      vertex -10.4157 -13.2778 -3.35
    endloop
  endfacet
  facet normal -0.772637 -0.634848 0
    outer loop
      vertex -10.4157 -13.2778 3.35
      vertex -10.3535 -13.3535 -3.35
      vertex -10.3535 -13.3535 3.35
    endloop
  endfacet
  facet normal -0.882071 -0.471117 0
    outer loop
      vertex -10.4157 -13.2778 -3.35
      vertex -10.4619 -13.1913 3.35
      vertex -10.4619 -13.1913 -3.35
    endloop
  endfacet
  facet normal -0.882071 -0.471117 0
    outer loop
      vertex -10.4619 -13.1913 3.35
      vertex -10.4157 -13.2778 -3.35
      vertex -10.4157 -13.2778 3.35
    endloop
  endfacet
  facet normal -0.911344 -0.411646 0
    outer loop
      vertex -10.4619 -13.1913 -3.35
      vertex -11 -12 3.35
      vertex -11 -12 -3.35
    endloop
  endfacet
  facet normal -0.911344 -0.411646 0
    outer loop
      vertex -11 -12 3.35
      vertex -10.4619 -13.1913 -3.35
      vertex -10.4619 -13.1913 3.35
    endloop
  endfacet
  facet normal -1 0 0
    outer loop
      vertex -11 -12 -3.35
      vertex -11 3.95 3.35
      vertex -11 3.95 -3.35
    endloop
  endfacet
  facet normal -1 -0 0
    outer loop
      vertex -11 3.95 3.35
      vertex -11 -12 -3.35
      vertex -11 -12 3.35
    endloop
  endfacet
  facet normal 0 -1 0
    outer loop
      vertex -16 3.95 -3.35
      vertex -11 3.95 3.35
      vertex -16 3.95 3.35
    endloop
  endfacet
  facet normal 0 -1 -0
    outer loop
      vertex -11 3.95 3.35
      vertex -16 3.95 -3.35
      vertex -11 3.95 -3.35
    endloop
  endfacet
  facet normal -0.0980121 -0.995185 0
    outer loop
      vertex -16.2048 3.97017 -3.35
      vertex -16 3.95 3.35
      vertex -16.2048 3.97017 3.35
    endloop
  endfacet
  facet normal -0.0980121 -0.995185 -0
    outer loop
      vertex -16 3.95 3.35
      vertex -16.2048 3.97017 -3.35
      vertex -16 3.95 -3.35
    endloop
  endfacet
  facet normal -0.290243 -0.956953 0
    outer loop
      vertex -16.4018 4.02992 -3.35
      vertex -16.2048 3.97017 3.35
      vertex -16.4018 4.02992 3.35
    endloop
  endfacet
  facet normal -0.290243 -0.956953 -0
    outer loop
      vertex -16.2048 3.97017 3.35
      vertex -16.4018 4.02992 -3.35
      vertex -16.2048 3.97017 -3.35
    endloop
  endfacet
  facet normal -0.471458 -0.881888 0
    outer loop
      vertex -16.5833 4.12695 -3.35
      vertex -16.4018 4.02992 3.35
      vertex -16.5833 4.12695 3.35
    endloop
  endfacet
  facet normal -0.471458 -0.881888 -0
    outer loop
      vertex -16.4018 4.02992 3.35
      vertex -16.5833 4.12695 -3.35
      vertex -16.4018 4.02992 -3.35
    endloop
  endfacet
  facet normal -0.634451 -0.772963 0
    outer loop
      vertex -16.7424 4.25754 -3.35
      vertex -16.5833 4.12695 3.35
      vertex -16.7424 4.25754 3.35
    endloop
  endfacet
  facet normal -0.634451 -0.772963 -0
    outer loop
      vertex -16.5833 4.12695 3.35
      vertex -16.7424 4.25754 -3.35
      vertex -16.5833 4.12695 -3.35
    endloop
  endfacet
  facet normal -0.772939 -0.63448 0
    outer loop
      vertex -16.7424 4.25754 -3.35
      vertex -16.873 4.41664 3.35
      vertex -16.873 4.41664 -3.35
    endloop
  endfacet
  facet normal -0.772939 -0.63448 0
    outer loop
      vertex -16.873 4.41664 3.35
      vertex -16.7424 4.25754 -3.35
      vertex -16.7424 4.25754 3.35
    endloop
  endfacet
  facet normal -0.88179 -0.471642 0
    outer loop
      vertex -16.873 4.41664 -3.35
      vertex -16.9701 4.59818 3.35
      vertex -16.9701 4.59818 -3.35
    endloop
  endfacet
  facet normal -0.88179 -0.471642 0
    outer loop
      vertex -16.9701 4.59818 3.35
      vertex -16.873 4.41664 -3.35
      vertex -16.873 4.41664 3.35
    endloop
  endfacet
  facet normal -0.957008 -0.290061 0
    outer loop
      vertex -16.9701 4.59818 -3.35
      vertex -17.0298 4.79515 3.35
      vertex -17.0298 4.79515 -3.35
    endloop
  endfacet
  facet normal -0.957008 -0.290061 0
    outer loop
      vertex -17.0298 4.79515 3.35
      vertex -16.9701 4.59818 -3.35
      vertex -16.9701 4.59818 3.35
    endloop
  endfacet
  facet normal -0.995173 -0.0981328 0
    outer loop
      vertex -17.0298 4.79515 -3.35
      vertex -17.05 5 3.35
      vertex -17.05 5 -3.35
    endloop
  endfacet
  facet normal -0.995173 -0.0981328 0
    outer loop
      vertex -17.05 5 3.35
      vertex -17.0298 4.79515 -3.35
      vertex -17.0298 4.79515 3.35
    endloop
  endfacet
  facet normal -0.995172 0.0981423 0
    outer loop
      vertex -17.05 5 -3.35
      vertex -17.0298 5.20483 3.35
      vertex -17.0298 5.20483 -3.35
    endloop
  endfacet
  facet normal -0.995172 0.0981423 0
    outer loop
      vertex -17.0298 5.20483 3.35
      vertex -17.05 5 -3.35
      vertex -17.05 5 3.35
    endloop
  endfacet
  facet normal -0.957012 0.290048 0
    outer loop
      vertex -17.0298 5.20483 -3.35
      vertex -16.9701 5.40181 3.35
      vertex -16.9701 5.40181 -3.35
    endloop
  endfacet
  facet normal -0.957012 0.290048 0
    outer loop
      vertex -16.9701 5.40181 3.35
      vertex -17.0298 5.20483 -3.35
      vertex -17.0298 5.20483 3.35
    endloop
  endfacet
  facet normal -0.881779 0.471662 0
    outer loop
      vertex -16.9701 5.40181 -3.35
      vertex -16.873 5.58334 3.35
      vertex -16.873 5.58334 -3.35
    endloop
  endfacet
  facet normal -0.881779 0.471662 0
    outer loop
      vertex -16.873 5.58334 3.35
      vertex -16.9701 5.40181 -3.35
      vertex -16.9701 5.40181 3.35
    endloop
  endfacet
  facet normal -0.772959 0.634457 0
    outer loop
      vertex -16.873 5.58334 -3.35
      vertex -16.7424 5.74245 3.35
      vertex -16.7424 5.74245 -3.35
    endloop
  endfacet
  facet normal -0.772959 0.634457 0
    outer loop
      vertex -16.7424 5.74245 3.35
      vertex -16.873 5.58334 -3.35
      vertex -16.873 5.58334 3.35
    endloop
  endfacet
  facet normal -0.634422 0.772987 0
    outer loop
      vertex -16.5833 5.87303 -3.35
      vertex -16.7424 5.74245 3.35
      vertex -16.5833 5.87303 3.35
    endloop
  endfacet
  facet normal -0.634422 0.772987 0
    outer loop
      vertex -16.7424 5.74245 3.35
      vertex -16.5833 5.87303 -3.35
      vertex -16.7424 5.74245 -3.35
    endloop
  endfacet
  facet normal -0.471458 0.881888 0
    outer loop
      vertex -16.4018 5.97006 -3.35
      vertex -16.5833 5.87303 3.35
      vertex -16.4018 5.97006 3.35
    endloop
  endfacet
  facet normal -0.471458 0.881888 0
    outer loop
      vertex -16.5833 5.87303 3.35
      vertex -16.4018 5.97006 -3.35
      vertex -16.5833 5.87303 -3.35
    endloop
  endfacet
  facet normal -0.290288 0.956939 0
    outer loop
      vertex -16.2048 6.02982 -3.35
      vertex -16.4018 5.97006 3.35
      vertex -16.2048 6.02982 3.35
    endloop
  endfacet
  facet normal -0.290288 0.956939 0
    outer loop
      vertex -16.4018 5.97006 3.35
      vertex -16.2048 6.02982 -3.35
      vertex -16.4018 5.97006 -3.35
    endloop
  endfacet
  facet normal -0.0980121 0.995185 0
    outer loop
      vertex -16 6.04999 -3.35
      vertex -16.2048 6.02982 3.35
      vertex -16 6.04999 3.35
    endloop
  endfacet
  facet normal -0.0980121 0.995185 0
    outer loop
      vertex -16.2048 6.02982 3.35
      vertex -16 6.04999 -3.35
      vertex -16.2048 6.02982 -3.35
    endloop
  endfacet
  facet normal 0 1 -0
    outer loop
      vertex -4 6.04999 -3.35
      vertex -16 6.04999 3.35
      vertex -4 6.04999 3.35
    endloop
  endfacet
  facet normal 0 1 0
    outer loop
      vertex -16 6.04999 3.35
      vertex -4 6.04999 -3.35
      vertex -16 6.04999 -3.35
    endloop
  endfacet
  facet normal 0.0979979 0.995187 -0
    outer loop
      vertex -3.79517 6.02982 -3.35
      vertex -4 6.04999 3.35
      vertex -3.79517 6.02982 3.35
    endloop
  endfacet
  facet normal 0.0979979 0.995187 0
    outer loop
      vertex -4 6.04999 3.35
      vertex -3.79517 6.02982 -3.35
      vertex -4 6.04999 -3.35
    endloop
  endfacet
  facet normal 0.290315 0.956931 -0
    outer loop
      vertex -3.59819 5.97006 -3.35
      vertex -3.79517 6.02982 3.35
      vertex -3.59819 5.97006 3.35
    endloop
  endfacet
  facet normal 0.290315 0.956931 0
    outer loop
      vertex -3.79517 6.02982 3.35
      vertex -3.59819 5.97006 -3.35
      vertex -3.79517 6.02982 -3.35
    endloop
  endfacet
  facet normal 0.471397 0.881921 -0
    outer loop
      vertex -3.41666 5.87303 -3.35
      vertex -3.59819 5.97006 3.35
      vertex -3.41666 5.87303 3.35
    endloop
  endfacet
  facet normal 0.471397 0.881921 0
    outer loop
      vertex -3.59819 5.97006 3.35
      vertex -3.41666 5.87303 -3.35
      vertex -3.59819 5.97006 -3.35
    endloop
  endfacet
  facet normal 0.634399 0.773006 -0
    outer loop
      vertex -3.25755 5.74245 -3.35
      vertex -3.41666 5.87303 3.35
      vertex -3.25755 5.74245 3.35
    endloop
  endfacet
  facet normal 0.634399 0.773006 0
    outer loop
      vertex -3.41666 5.87303 3.35
      vertex -3.25755 5.74245 -3.35
      vertex -3.41666 5.87303 -3.35
    endloop
  endfacet
  facet normal 0.773006 0.634399 0
    outer loop
      vertex -3.12697 5.58334 3.35
      vertex -3.25755 5.74245 -3.35
      vertex -3.25755 5.74245 3.35
    endloop
  endfacet
  facet normal 0.773006 0.634399 0
    outer loop
      vertex -3.25755 5.74245 -3.35
      vertex -3.12697 5.58334 3.35
      vertex -3.12697 5.58334 -3.35
    endloop
  endfacet
  facet normal 0.881921 0.471397 0
    outer loop
      vertex -3.02994 5.40181 3.35
      vertex -3.12697 5.58334 -3.35
      vertex -3.12697 5.58334 3.35
    endloop
  endfacet
  facet normal 0.881921 0.471397 0
    outer loop
      vertex -3.12697 5.58334 -3.35
      vertex -3.02994 5.40181 3.35
      vertex -3.02994 5.40181 -3.35
    endloop
  endfacet
  facet normal 0.956931 0.290315 0
    outer loop
      vertex -2.97018 5.20483 3.35
      vertex -3.02994 5.40181 -3.35
      vertex -3.02994 5.40181 3.35
    endloop
  endfacet
  facet normal 0.956931 0.290315 0
    outer loop
      vertex -3.02994 5.40181 -3.35
      vertex -2.97018 5.20483 3.35
      vertex -2.97018 5.20483 -3.35
    endloop
  endfacet
  facet normal 0.995187 0.0979979 0
    outer loop
      vertex -2.95001 5 3.35
      vertex -2.97018 5.20483 -3.35
      vertex -2.97018 5.20483 3.35
    endloop
  endfacet
  facet normal 0.995187 0.0979979 0
    outer loop
      vertex -2.97018 5.20483 -3.35
      vertex -2.95001 5 3.35
      vertex -2.95001 5 -3.35
    endloop
  endfacet
  facet normal 0.995188 -0.0979884 0
    outer loop
      vertex -2.97018 4.79515 3.35
      vertex -2.95001 5 -3.35
      vertex -2.95001 5 3.35
    endloop
  endfacet
  facet normal 0.995188 -0.0979884 0
    outer loop
      vertex -2.95001 5 -3.35
      vertex -2.97018 4.79515 3.35
      vertex -2.97018 4.79515 -3.35
    endloop
  endfacet
  facet normal 0.956927 -0.290328 0
    outer loop
      vertex -3.02994 4.59818 3.35
      vertex -2.97018 4.79515 -3.35
      vertex -2.97018 4.79515 3.35
    endloop
  endfacet
  facet normal 0.956927 -0.290328 0
    outer loop
      vertex -2.97018 4.79515 -3.35
      vertex -3.02994 4.59818 3.35
      vertex -3.02994 4.59818 -3.35
    endloop
  endfacet
  facet normal 0.881932 -0.471377 0
    outer loop
      vertex -3.12697 4.41664 3.35
      vertex -3.02994 4.59818 -3.35
      vertex -3.02994 4.59818 3.35
    endloop
  endfacet
  facet normal 0.881932 -0.471377 0
    outer loop
      vertex -3.02994 4.59818 -3.35
      vertex -3.12697 4.41664 3.35
      vertex -3.12697 4.41664 -3.35
    endloop
  endfacet
  facet normal 0.772987 -0.634422 0
    outer loop
      vertex -3.25755 4.25754 3.35
      vertex -3.12697 4.41664 -3.35
      vertex -3.12697 4.41664 3.35
    endloop
  endfacet
  facet normal 0.772987 -0.634422 0
    outer loop
      vertex -3.12697 4.41664 -3.35
      vertex -3.25755 4.25754 3.35
      vertex -3.25755 4.25754 -3.35
    endloop
  endfacet
  facet normal 0.634428 -0.772982 0
    outer loop
      vertex -3.41666 4.12695 -3.35
      vertex -3.25755 4.25754 3.35
      vertex -3.41666 4.12695 3.35
    endloop
  endfacet
  facet normal 0.634428 -0.772982 0
    outer loop
      vertex -3.25755 4.25754 3.35
      vertex -3.41666 4.12695 -3.35
      vertex -3.25755 4.25754 -3.35
    endloop
  endfacet
  facet normal 0.471397 -0.881921 0
    outer loop
      vertex -3.59819 4.02992 -3.35
      vertex -3.41666 4.12695 3.35
      vertex -3.59819 4.02992 3.35
    endloop
  endfacet
  facet normal 0.471397 -0.881921 0
    outer loop
      vertex -3.41666 4.12695 3.35
      vertex -3.59819 4.02992 -3.35
      vertex -3.41666 4.12695 -3.35
    endloop
  endfacet
  facet normal 0.29027 -0.956945 0
    outer loop
      vertex -3.79517 3.97017 -3.35
      vertex -3.59819 4.02992 3.35
      vertex -3.79517 3.97017 3.35
    endloop
  endfacet
  facet normal 0.29027 -0.956945 0
    outer loop
      vertex -3.59819 4.02992 3.35
      vertex -3.79517 3.97017 -3.35
      vertex -3.59819 4.02992 -3.35
    endloop
  endfacet
  facet normal 0.0979979 -0.995187 0
    outer loop
      vertex -4 3.95 -3.35
      vertex -3.79517 3.97017 3.35
      vertex -4 3.95 3.35
    endloop
  endfacet
  facet normal 0.0979979 -0.995187 0
    outer loop
      vertex -3.79517 3.97017 3.35
      vertex -4 3.95 -3.35
      vertex -3.79517 3.97017 -3.35
    endloop
  endfacet
  facet normal 0 -1 0
    outer loop
      vertex -9 3.95 -3.35
      vertex -4 3.95 3.35
      vertex -9 3.95 3.35
    endloop
  endfacet
  facet normal 0 -1 -0
    outer loop
      vertex -4 3.95 3.35
      vertex -9 3.95 -3.35
      vertex -4 3.95 -3.35
    endloop
  endfacet
  facet normal 1 -0 0
    outer loop
      vertex -9 -12 3.35
      vertex -9 3.95 -3.35
      vertex -9 3.95 3.35
    endloop
  endfacet
  facet normal 1 0 0
    outer loop
      vertex -9 3.95 -3.35
      vertex -9 -12 3.35
      vertex -9 -12 -3.35
    endloop
  endfacet
  facet normal 0.911352 -0.411627 0
    outer loop
      vertex -9.53807 -13.1913 3.35
      vertex -9 -12 -3.35
      vertex -9 -12 3.35
    endloop
  endfacet
  facet normal 0.911352 -0.411627 0
    outer loop
      vertex -9 -12 -3.35
      vertex -9.53807 -13.1913 3.35
      vertex -9.53807 -13.1913 -3.35
    endloop
  endfacet
endsolid OpenSCAD_Model
