solid OpenSCAD_Model
  facet normal 0 -1 0
    outer loop
      vertex -41.3 -17.775 -1.4
      vertex 34.6 -17.775 -1
      vertex -41.3 -17.775 -1
    endloop
  endfacet
  facet normal 0 -1 -0
    outer loop
      vertex 34.6 -17.775 -1
      vertex -41.3 -17.775 -1.4
      vertex 34.6 -17.775 -1.4
    endloop
  endfacet
  facet normal 0 1 -0
    outer loop
      vertex 34.6 0 -1.4
      vertex -41.3 0 -1
      vertex 34.6 0 -1
    endloop
  endfacet
  facet normal 0 1 0
    outer loop
      vertex -41.3 0 -1
      vertex 34.6 0 -1.4
      vertex -41.3 0 -1.4
    endloop
  endfacet
  facet normal 0 0 -1
    outer loop
      vertex -41.3 -17.775 -1.4
      vertex 34.6 0 -1.4
      vertex 34.6 -17.775 -1.4
    endloop
  endfacet
  facet normal -0 0 -1
    outer loop
      vertex 34.6 0 -1.4
      vertex -41.3 -17.775 -1.4
      vertex -41.3 0 -1.4
    endloop
  endfacet
  facet normal 1 -0 0
    outer loop
      vertex 34.6 -17.775 -1
      vertex 34.6 0 -1.4
      vertex 34.6 0 -1
    endloop
  endfacet
  facet normal 1 0 0
    outer loop
      vertex 34.6 0 -1.4
      vertex 34.6 -17.775 -1
      vertex 34.6 -17.775 -1.4
    endloop
  endfacet
  facet normal -0 0 1
    outer loop
      vertex -41.3 0 -1
      vertex 34.6 -17.775 -1
      vertex 34.6 0 -1
    endloop
  endfacet
  facet normal 0 0 1
    outer loop
      vertex 34.6 -17.775 -1
      vertex -41.3 0 -1
      vertex -41.3 -17.775 -1
    endloop
  endfacet
  facet normal -1 0 0
    outer loop
      vertex -41.3 -17.775 -1.4
      vertex -41.3 0 -1
      vertex -41.3 0 -1.4
    endloop
  endfacet
  facet normal -1 -0 0
    outer loop
      vertex -41.3 0 -1
      vertex -41.3 -17.775 -1.4
      vertex -41.3 -17.775 -1
    endloop
  endfacet
endsolid OpenSCAD_Model
