solid OpenSCAD_Model
  facet normal -0 0 1
    outer loop
      vertex -5.14999 7.1375 3.35
      vertex -2.85001 1.09999 3.35
      vertex -2.85001 7.1375 3.35
    endloop
  endfacet
  facet normal 0 0 1
    outer loop
      vertex -2.85001 1.09999 3.35
      vertex -5.14999 7.1375 3.35
      vertex -2.85001 -1.09999 3.35
    endloop
  endfacet
  facet normal 0 0 1
    outer loop
      vertex -5.14999 7.1375 3.35
      vertex -2.85001 7.1375 3.35
      vertex -2.8721 7.36185 3.35
    endloop
  endfacet
  facet normal 0 0 1
    outer loop
      vertex -5.14999 -7.1375 3.35
      vertex -2.85001 -1.09999 3.35
      vertex -5.14999 7.1375 3.35
    endloop
  endfacet
  facet normal 0 0 1
    outer loop
      vertex -5.14999 7.1375 3.35
      vertex -2.8721 7.36185 3.35
      vertex -2.93755 7.57758 3.35
    endloop
  endfacet
  facet normal 0 0 1
    outer loop
      vertex -2.85001 -1.09999 3.35
      vertex -5.14999 -7.1375 3.35
      vertex -2.85001 -7.1375 3.35
    endloop
  endfacet
  facet normal 0 0 1
    outer loop
      vertex -5.14999 7.1375 3.35
      vertex -2.93755 7.57758 3.35
      vertex -3.04381 7.7764 3.35
    endloop
  endfacet
  facet normal 0 0 1
    outer loop
      vertex -2.85001 -7.1375 3.35
      vertex -5.14999 -7.1375 3.35
      vertex -2.8721 -7.36185 3.35
    endloop
  endfacet
  facet normal 0 0 1
    outer loop
      vertex -5.14999 7.1375 3.35
      vertex -3.04381 7.7764 3.35
      vertex -3.18681 7.95067 3.35
    endloop
  endfacet
  facet normal 0 0 1
    outer loop
      vertex -2.8721 -7.36185 3.35
      vertex -5.14999 -7.1375 3.35
      vertex -2.93755 -7.57758 3.35
    endloop
  endfacet
  facet normal 0 0 1
    outer loop
      vertex -5.14999 7.1375 3.35
      vertex -3.18681 7.95067 3.35
      vertex -3.36108 8.09369 3.35
    endloop
  endfacet
  facet normal 0 0 1
    outer loop
      vertex -2.93755 -7.57758 3.35
      vertex -5.14999 -7.1375 3.35
      vertex -3.04381 -7.7764 3.35
    endloop
  endfacet
  facet normal 0 0 1
    outer loop
      vertex -5.14999 7.1375 3.35
      vertex -3.36108 8.09369 3.35
      vertex -3.55991 8.19995 3.35
    endloop
  endfacet
  facet normal 0 0 1
    outer loop
      vertex -3.04381 -7.7764 3.35
      vertex -5.14999 -7.1375 3.35
      vertex -3.18681 -7.95067 3.35
    endloop
  endfacet
  facet normal 0 0 1
    outer loop
      vertex -5.14999 7.1375 3.35
      vertex -3.55991 8.19995 3.35
      vertex -3.77563 8.2654 3.35
    endloop
  endfacet
  facet normal 0 0 1
    outer loop
      vertex -3.18681 -7.95067 3.35
      vertex -5.14999 -7.1375 3.35
      vertex -3.36108 -8.09369 3.35
    endloop
  endfacet
  facet normal 0 0 1
    outer loop
      vertex -5.14999 7.1375 3.35
      vertex -3.77563 8.2654 3.35
      vertex -4 8.28749 3.35
    endloop
  endfacet
  facet normal 0 0 1
    outer loop
      vertex -3.36108 -8.09369 3.35
      vertex -5.14999 -7.1375 3.35
      vertex -3.55991 -8.19995 3.35
    endloop
  endfacet
  facet normal 0 0 1
    outer loop
      vertex -5.14999 7.1375 3.35
      vertex -4 8.28749 3.35
      vertex -4.22435 8.2654 3.35
    endloop
  endfacet
  facet normal 0 0 1
    outer loop
      vertex -3.55991 -8.19995 3.35
      vertex -5.14999 -7.1375 3.35
      vertex -3.77563 -8.2654 3.35
    endloop
  endfacet
  facet normal 0 0 1
    outer loop
      vertex -5.14999 7.1375 3.35
      vertex -4.22435 8.2654 3.35
      vertex -4.44008 8.19995 3.35
    endloop
  endfacet
  facet normal 0 0 1
    outer loop
      vertex -3.77563 -8.2654 3.35
      vertex -5.14999 -7.1375 3.35
      vertex -4 -8.28749 3.35
    endloop
  endfacet
  facet normal 0 0 1
    outer loop
      vertex -5.14999 7.1375 3.35
      vertex -4.44008 8.19995 3.35
      vertex -4.6389 8.09369 3.35
    endloop
  endfacet
  facet normal 0 0 1
    outer loop
      vertex -4 -8.28749 3.35
      vertex -5.14999 -7.1375 3.35
      vertex -4.22435 -8.2654 3.35
    endloop
  endfacet
  facet normal 0 0 1
    outer loop
      vertex -5.14999 7.1375 3.35
      vertex -4.6389 8.09369 3.35
      vertex -4.81317 7.95067 3.35
    endloop
  endfacet
  facet normal 0 0 1
    outer loop
      vertex -4.22435 -8.2654 3.35
      vertex -5.14999 -7.1375 3.35
      vertex -4.44008 -8.19995 3.35
    endloop
  endfacet
  facet normal 0 0 1
    outer loop
      vertex -5.14999 7.1375 3.35
      vertex -4.81317 7.95067 3.35
      vertex -4.95618 7.7764 3.35
    endloop
  endfacet
  facet normal 0 0 1
    outer loop
      vertex -4.44008 -8.19995 3.35
      vertex -5.14999 -7.1375 3.35
      vertex -4.6389 -8.09369 3.35
    endloop
  endfacet
  facet normal 0 0 1
    outer loop
      vertex -5.14999 7.1375 3.35
      vertex -4.95618 7.7764 3.35
      vertex -5.06245 7.57758 3.35
    endloop
  endfacet
  facet normal 0 0 1
    outer loop
      vertex -4.6389 -8.09369 3.35
      vertex -5.14999 -7.1375 3.35
      vertex -4.81317 -7.95067 3.35
    endloop
  endfacet
  facet normal 0 0 1
    outer loop
      vertex -5.14999 7.1375 3.35
      vertex -5.06245 7.57758 3.35
      vertex -5.1279 7.36185 3.35
    endloop
  endfacet
  facet normal 0 0 1
    outer loop
      vertex -4.81317 -7.95067 3.35
      vertex -5.14999 -7.1375 3.35
      vertex -4.95618 -7.7764 3.35
    endloop
  endfacet
  facet normal 0 0 1
    outer loop
      vertex -4.95618 -7.7764 3.35
      vertex -5.14999 -7.1375 3.35
      vertex -5.06245 -7.57758 3.35
    endloop
  endfacet
  facet normal 0 0 1
    outer loop
      vertex -5.06245 -7.57758 3.35
      vertex -5.14999 -7.1375 3.35
      vertex -5.1279 -7.36185 3.35
    endloop
  endfacet
  facet normal 0 0 1
    outer loop
      vertex -0.260574 0.107285 3.35
      vertex -0.260574 -0.107285 3.35
      vertex -0.25 0 3.35
    endloop
  endfacet
  facet normal 0 0 1
    outer loop
      vertex -0.29187 0.210464 3.35
      vertex -0.260574 -0.107285 3.35
      vertex -0.260574 0.107285 3.35
    endloop
  endfacet
  facet normal 0 0 1
    outer loop
      vertex -0.29187 0.210464 3.35
      vertex -0.29187 -0.210464 3.35
      vertex -0.260574 -0.107285 3.35
    endloop
  endfacet
  facet normal 0 0 1
    outer loop
      vertex -0.342697 0.305557 3.35
      vertex -0.29187 -0.210464 3.35
      vertex -0.29187 0.210464 3.35
    endloop
  endfacet
  facet normal 0 0 1
    outer loop
      vertex -0.342697 0.305557 3.35
      vertex -0.342697 -0.305557 3.35
      vertex -0.29187 -0.210464 3.35
    endloop
  endfacet
  facet normal 0 0 1
    outer loop
      vertex -0.411102 0.388901 3.35
      vertex -0.342697 -0.305557 3.35
      vertex -0.342697 0.305557 3.35
    endloop
  endfacet
  facet normal 0 0 1
    outer loop
      vertex -0.411102 0.388901 3.35
      vertex -0.411102 -0.388901 3.35
      vertex -0.342697 -0.305557 3.35
    endloop
  endfacet
  facet normal 0 0 1
    outer loop
      vertex -0.494446 0.457306 3.35
      vertex -0.411102 -0.388901 3.35
      vertex -0.411102 0.388901 3.35
    endloop
  endfacet
  facet normal 0 0 1
    outer loop
      vertex -0.494446 0.457306 3.35
      vertex -0.494446 -0.457306 3.35
      vertex -0.411102 -0.388901 3.35
    endloop
  endfacet
  facet normal 0 0 1
    outer loop
      vertex -0.589539 0.508133 3.35
      vertex -0.494446 -0.457306 3.35
      vertex -0.494446 0.457306 3.35
    endloop
  endfacet
  facet normal 0 0 1
    outer loop
      vertex -0.589539 0.508133 3.35
      vertex -0.589539 -0.508133 3.35
      vertex -0.494446 -0.457306 3.35
    endloop
  endfacet
  facet normal 0 0 1
    outer loop
      vertex -1.90001 1.09999 3.35
      vertex -0.589539 -0.508133 3.35
      vertex -0.589539 0.508133 3.35
    endloop
  endfacet
  facet normal 0 0 1
    outer loop
      vertex -1.90001 1.09999 3.35
      vertex -1.90001 -1.09999 3.35
      vertex -0.589539 -0.508133 3.35
    endloop
  endfacet
  facet normal -0 0 1
    outer loop
      vertex -2.85001 1.09999 3.35
      vertex -1.90001 -1.09999 3.35
      vertex -1.90001 1.09999 3.35
    endloop
  endfacet
  facet normal 0 0 1
    outer loop
      vertex -1.90001 -1.09999 3.35
      vertex -2.85001 1.09999 3.35
      vertex -2.85001 -1.09999 3.35
    endloop
  endfacet
  facet normal 0 0 -1
    outer loop
      vertex -5.14999 -7.1375 -3.35
      vertex -2.85001 -1.09999 -3.35
      vertex -2.85001 -7.1375 -3.35
    endloop
  endfacet
  facet normal -0 0 -1
    outer loop
      vertex -2.85001 -1.09999 -3.35
      vertex -5.14999 -7.1375 -3.35
      vertex -2.85001 1.09999 -3.35
    endloop
  endfacet
  facet normal 0 0 -1
    outer loop
      vertex -5.14999 -7.1375 -3.35
      vertex -2.85001 -7.1375 -3.35
      vertex -2.8721 -7.36185 -3.35
    endloop
  endfacet
  facet normal 0 0 -1
    outer loop
      vertex -5.14999 7.1375 -3.35
      vertex -2.85001 1.09999 -3.35
      vertex -5.14999 -7.1375 -3.35
    endloop
  endfacet
  facet normal 0 0 -1
    outer loop
      vertex -5.14999 -7.1375 -3.35
      vertex -2.8721 -7.36185 -3.35
      vertex -2.93755 -7.57758 -3.35
    endloop
  endfacet
  facet normal 0 0 -1
    outer loop
      vertex -2.85001 1.09999 -3.35
      vertex -5.14999 7.1375 -3.35
      vertex -2.85001 7.1375 -3.35
    endloop
  endfacet
  facet normal 0 0 -1
    outer loop
      vertex -5.14999 -7.1375 -3.35
      vertex -2.93755 -7.57758 -3.35
      vertex -3.04381 -7.7764 -3.35
    endloop
  endfacet
  facet normal 0 0 -1
    outer loop
      vertex -2.85001 7.1375 -3.35
      vertex -5.14999 7.1375 -3.35
      vertex -2.8721 7.36185 -3.35
    endloop
  endfacet
  facet normal 0 0 -1
    outer loop
      vertex -5.14999 -7.1375 -3.35
      vertex -3.04381 -7.7764 -3.35
      vertex -3.18681 -7.95067 -3.35
    endloop
  endfacet
  facet normal -0 0 -1
    outer loop
      vertex -2.8721 7.36185 -3.35
      vertex -5.14999 7.1375 -3.35
      vertex -2.93755 7.57758 -3.35
    endloop
  endfacet
  facet normal 0 0 -1
    outer loop
      vertex -5.14999 -7.1375 -3.35
      vertex -3.18681 -7.95067 -3.35
      vertex -3.36108 -8.09369 -3.35
    endloop
  endfacet
  facet normal -0 0 -1
    outer loop
      vertex -2.93755 7.57758 -3.35
      vertex -5.14999 7.1375 -3.35
      vertex -3.04381 7.7764 -3.35
    endloop
  endfacet
  facet normal 0 0 -1
    outer loop
      vertex -5.14999 -7.1375 -3.35
      vertex -3.36108 -8.09369 -3.35
      vertex -3.55991 -8.19995 -3.35
    endloop
  endfacet
  facet normal -0 0 -1
    outer loop
      vertex -3.04381 7.7764 -3.35
      vertex -5.14999 7.1375 -3.35
      vertex -3.18681 7.95067 -3.35
    endloop
  endfacet
  facet normal 0 0 -1
    outer loop
      vertex -5.14999 -7.1375 -3.35
      vertex -3.55991 -8.19995 -3.35
      vertex -3.77563 -8.2654 -3.35
    endloop
  endfacet
  facet normal -0 0 -1
    outer loop
      vertex -3.18681 7.95067 -3.35
      vertex -5.14999 7.1375 -3.35
      vertex -3.36108 8.09369 -3.35
    endloop
  endfacet
  facet normal 0 0 -1
    outer loop
      vertex -5.14999 -7.1375 -3.35
      vertex -3.77563 -8.2654 -3.35
      vertex -4 -8.28749 -3.35
    endloop
  endfacet
  facet normal -0 0 -1
    outer loop
      vertex -3.36108 8.09369 -3.35
      vertex -5.14999 7.1375 -3.35
      vertex -3.55991 8.19995 -3.35
    endloop
  endfacet
  facet normal 0 0 -1
    outer loop
      vertex -5.14999 -7.1375 -3.35
      vertex -4 -8.28749 -3.35
      vertex -4.22435 -8.2654 -3.35
    endloop
  endfacet
  facet normal -0 0 -1
    outer loop
      vertex -3.55991 8.19995 -3.35
      vertex -5.14999 7.1375 -3.35
      vertex -3.77563 8.2654 -3.35
    endloop
  endfacet
  facet normal 0 0 -1
    outer loop
      vertex -5.14999 -7.1375 -3.35
      vertex -4.22435 -8.2654 -3.35
      vertex -4.44008 -8.19995 -3.35
    endloop
  endfacet
  facet normal -0 0 -1
    outer loop
      vertex -3.77563 8.2654 -3.35
      vertex -5.14999 7.1375 -3.35
      vertex -4 8.28749 -3.35
    endloop
  endfacet
  facet normal 0 0 -1
    outer loop
      vertex -5.14999 -7.1375 -3.35
      vertex -4.44008 -8.19995 -3.35
      vertex -4.6389 -8.09369 -3.35
    endloop
  endfacet
  facet normal 0 0 -1
    outer loop
      vertex -4 8.28749 -3.35
      vertex -5.14999 7.1375 -3.35
      vertex -4.22435 8.2654 -3.35
    endloop
  endfacet
  facet normal 0 0 -1
    outer loop
      vertex -5.14999 -7.1375 -3.35
      vertex -4.6389 -8.09369 -3.35
      vertex -4.81317 -7.95067 -3.35
    endloop
  endfacet
  facet normal 0 0 -1
    outer loop
      vertex -4.22435 8.2654 -3.35
      vertex -5.14999 7.1375 -3.35
      vertex -4.44008 8.19995 -3.35
    endloop
  endfacet
  facet normal 0 0 -1
    outer loop
      vertex -5.14999 -7.1375 -3.35
      vertex -4.81317 -7.95067 -3.35
      vertex -4.95618 -7.7764 -3.35
    endloop
  endfacet
  facet normal 0 0 -1
    outer loop
      vertex -4.44008 8.19995 -3.35
      vertex -5.14999 7.1375 -3.35
      vertex -4.6389 8.09369 -3.35
    endloop
  endfacet
  facet normal 0 0 -1
    outer loop
      vertex -5.14999 -7.1375 -3.35
      vertex -4.95618 -7.7764 -3.35
      vertex -5.06245 -7.57758 -3.35
    endloop
  endfacet
  facet normal 0 0 -1
    outer loop
      vertex -4.6389 8.09369 -3.35
      vertex -5.14999 7.1375 -3.35
      vertex -4.81317 7.95067 -3.35
    endloop
  endfacet
  facet normal 0 0 -1
    outer loop
      vertex -5.14999 -7.1375 -3.35
      vertex -5.06245 -7.57758 -3.35
      vertex -5.1279 -7.36185 -3.35
    endloop
  endfacet
  facet normal 0 0 -1
    outer loop
      vertex -4.81317 7.95067 -3.35
      vertex -5.14999 7.1375 -3.35
      vertex -4.95618 7.7764 -3.35
    endloop
  endfacet
  facet normal 0 0 -1
    outer loop
      vertex -4.95618 7.7764 -3.35
      vertex -5.14999 7.1375 -3.35
      vertex -5.06245 7.57758 -3.35
    endloop
  endfacet
  facet normal 0 0 -1
    outer loop
      vertex -5.06245 7.57758 -3.35
      vertex -5.14999 7.1375 -3.35
      vertex -5.1279 7.36185 -3.35
    endloop
  endfacet
  facet normal 0 0 -1
    outer loop
      vertex -0.260574 -0.107285 -3.35
      vertex -0.260574 0.107285 -3.35
      vertex -0.25 0 -3.35
    endloop
  endfacet
  facet normal 0 0 -1
    outer loop
      vertex -0.29187 -0.210464 -3.35
      vertex -0.260574 0.107285 -3.35
      vertex -0.260574 -0.107285 -3.35
    endloop
  endfacet
  facet normal 0 0 -1
    outer loop
      vertex -0.29187 -0.210464 -3.35
      vertex -0.29187 0.210464 -3.35
      vertex -0.260574 0.107285 -3.35
    endloop
  endfacet
  facet normal 0 0 -1
    outer loop
      vertex -0.342697 -0.305557 -3.35
      vertex -0.29187 0.210464 -3.35
      vertex -0.29187 -0.210464 -3.35
    endloop
  endfacet
  facet normal 0 0 -1
    outer loop
      vertex -0.342697 -0.305557 -3.35
      vertex -0.342697 0.305557 -3.35
      vertex -0.29187 0.210464 -3.35
    endloop
  endfacet
  facet normal 0 0 -1
    outer loop
      vertex -0.411102 -0.388901 -3.35
      vertex -0.342697 0.305557 -3.35
      vertex -0.342697 -0.305557 -3.35
    endloop
  endfacet
  facet normal 0 0 -1
    outer loop
      vertex -0.411102 -0.388901 -3.35
      vertex -0.411102 0.388901 -3.35
      vertex -0.342697 0.305557 -3.35
    endloop
  endfacet
  facet normal 0 0 -1
    outer loop
      vertex -0.494446 -0.457306 -3.35
      vertex -0.411102 0.388901 -3.35
      vertex -0.411102 -0.388901 -3.35
    endloop
  endfacet
  facet normal 0 0 -1
    outer loop
      vertex -0.494446 -0.457306 -3.35
      vertex -0.494446 0.457306 -3.35
      vertex -0.411102 0.388901 -3.35
    endloop
  endfacet
  facet normal 0 0 -1
    outer loop
      vertex -0.589539 -0.508133 -3.35
      vertex -0.494446 0.457306 -3.35
      vertex -0.494446 -0.457306 -3.35
    endloop
  endfacet
  facet normal 0 0 -1
    outer loop
      vertex -0.589539 -0.508133 -3.35
      vertex -0.589539 0.508133 -3.35
      vertex -0.494446 0.457306 -3.35
    endloop
  endfacet
  facet normal 0 0 -1
    outer loop
      vertex -1.90001 -1.09999 -3.35
      vertex -0.589539 0.508133 -3.35
      vertex -0.589539 -0.508133 -3.35
    endloop
  endfacet
  facet normal 0 0 -1
    outer loop
      vertex -1.90001 -1.09999 -3.35
      vertex -1.90001 1.09999 -3.35
      vertex -0.589539 0.508133 -3.35
    endloop
  endfacet
  facet normal 0 0 -1
    outer loop
      vertex -2.85001 -1.09999 -3.35
      vertex -1.90001 1.09999 -3.35
      vertex -1.90001 -1.09999 -3.35
    endloop
  endfacet
  facet normal -0 0 -1
    outer loop
      vertex -1.90001 1.09999 -3.35
      vertex -2.85001 -1.09999 -3.35
      vertex -2.85001 1.09999 -3.35
    endloop
  endfacet
  facet normal -0.956929 0.290321 0
    outer loop
      vertex -5.1279 7.36185 -3.35
      vertex -5.06245 7.57758 3.35
      vertex -5.06245 7.57758 -3.35
    endloop
  endfacet
  facet normal -0.956929 0.290321 0
    outer loop
      vertex -5.06245 7.57758 3.35
      vertex -5.1279 7.36185 -3.35
      vertex -5.1279 7.36185 3.35
    endloop
  endfacet
  facet normal -0.881924 0.471392 0
    outer loop
      vertex -5.06245 7.57758 -3.35
      vertex -4.95618 7.7764 3.35
      vertex -4.95618 7.7764 -3.35
    endloop
  endfacet
  facet normal -0.881924 0.471392 0
    outer loop
      vertex -4.95618 7.7764 3.35
      vertex -5.06245 7.57758 -3.35
      vertex -5.06245 7.57758 3.35
    endloop
  endfacet
  facet normal -0.773032 0.634368 0
    outer loop
      vertex -4.95618 7.7764 -3.35
      vertex -4.81317 7.95067 3.35
      vertex -4.81317 7.95067 -3.35
    endloop
  endfacet
  facet normal -0.773032 0.634368 0
    outer loop
      vertex -4.81317 7.95067 3.35
      vertex -4.95618 7.7764 -3.35
      vertex -4.95618 7.7764 3.35
    endloop
  endfacet
  facet normal -0.634394 0.77301 0
    outer loop
      vertex -4.6389 8.09369 -3.35
      vertex -4.81317 7.95067 3.35
      vertex -4.6389 8.09369 3.35
    endloop
  endfacet
  facet normal -0.634394 0.77301 0
    outer loop
      vertex -4.81317 7.95067 3.35
      vertex -4.6389 8.09369 -3.35
      vertex -4.81317 7.95067 -3.35
    endloop
  endfacet
  facet normal -0.471357 0.881942 0
    outer loop
      vertex -4.44008 8.19995 -3.35
      vertex -4.6389 8.09369 3.35
      vertex -4.44008 8.19995 3.35
    endloop
  endfacet
  facet normal -0.471357 0.881942 0
    outer loop
      vertex -4.6389 8.09369 3.35
      vertex -4.44008 8.19995 -3.35
      vertex -4.6389 8.09369 -3.35
    endloop
  endfacet
  facet normal -0.290321 0.956929 0
    outer loop
      vertex -4.22435 8.2654 -3.35
      vertex -4.44008 8.19995 3.35
      vertex -4.22435 8.2654 3.35
    endloop
  endfacet
  facet normal -0.290321 0.956929 0
    outer loop
      vertex -4.44008 8.19995 3.35
      vertex -4.22435 8.2654 -3.35
      vertex -4.44008 8.19995 -3.35
    endloop
  endfacet
  facet normal -0.0979884 0.995188 0
    outer loop
      vertex -4 8.28749 -3.35
      vertex -4.22435 8.2654 3.35
      vertex -4 8.28749 3.35
    endloop
  endfacet
  facet normal -0.0979884 0.995188 0
    outer loop
      vertex -4.22435 8.2654 3.35
      vertex -4 8.28749 -3.35
      vertex -4.22435 8.2654 -3.35
    endloop
  endfacet
  facet normal 0.0979797 0.995188 -0
    outer loop
      vertex -3.77563 8.2654 -3.35
      vertex -4 8.28749 3.35
      vertex -3.77563 8.2654 3.35
    endloop
  endfacet
  facet normal 0.0979797 0.995188 0
    outer loop
      vertex -4 8.28749 3.35
      vertex -3.77563 8.2654 -3.35
      vertex -4 8.28749 -3.35
    endloop
  endfacet
  facet normal 0.290334 0.956925 -0
    outer loop
      vertex -3.55991 8.19995 -3.35
      vertex -3.77563 8.2654 3.35
      vertex -3.55991 8.19995 3.35
    endloop
  endfacet
  facet normal 0.290334 0.956925 0
    outer loop
      vertex -3.77563 8.2654 3.35
      vertex -3.55991 8.19995 -3.35
      vertex -3.77563 8.2654 -3.35
    endloop
  endfacet
  facet normal 0.471339 0.881952 -0
    outer loop
      vertex -3.36108 8.09369 -3.35
      vertex -3.55991 8.19995 3.35
      vertex -3.36108 8.09369 3.35
    endloop
  endfacet
  facet normal 0.471339 0.881952 0
    outer loop
      vertex -3.55991 8.19995 3.35
      vertex -3.36108 8.09369 -3.35
      vertex -3.55991 8.19995 -3.35
    endloop
  endfacet
  facet normal 0.634394 0.77301 -0
    outer loop
      vertex -3.18681 7.95067 -3.35
      vertex -3.36108 8.09369 3.35
      vertex -3.18681 7.95067 3.35
    endloop
  endfacet
  facet normal 0.634394 0.77301 0
    outer loop
      vertex -3.36108 8.09369 3.35
      vertex -3.18681 7.95067 -3.35
      vertex -3.36108 8.09369 -3.35
    endloop
  endfacet
  facet normal 0.773053 0.634341 0
    outer loop
      vertex -3.04381 7.7764 3.35
      vertex -3.18681 7.95067 -3.35
      vertex -3.18681 7.95067 3.35
    endloop
  endfacet
  facet normal 0.773053 0.634341 0
    outer loop
      vertex -3.18681 7.95067 -3.35
      vertex -3.04381 7.7764 3.35
      vertex -3.04381 7.7764 -3.35
    endloop
  endfacet
  facet normal 0.881942 0.471357 0
    outer loop
      vertex -2.93755 7.57758 3.35
      vertex -3.04381 7.7764 -3.35
      vertex -3.04381 7.7764 3.35
    endloop
  endfacet
  facet normal 0.881942 0.471357 0
    outer loop
      vertex -3.04381 7.7764 -3.35
      vertex -2.93755 7.57758 3.35
      vertex -2.93755 7.57758 -3.35
    endloop
  endfacet
  facet normal 0.956929 0.290321 0
    outer loop
      vertex -2.8721 7.36185 3.35
      vertex -2.93755 7.57758 -3.35
      vertex -2.93755 7.57758 3.35
    endloop
  endfacet
  facet normal 0.956929 0.290321 0
    outer loop
      vertex -2.93755 7.57758 -3.35
      vertex -2.8721 7.36185 3.35
      vertex -2.8721 7.36185 -3.35
    endloop
  endfacet
  facet normal 0.995188 0.0979884 0
    outer loop
      vertex -2.85001 7.1375 3.35
      vertex -2.8721 7.36185 -3.35
      vertex -2.8721 7.36185 3.35
    endloop
  endfacet
  facet normal 0.995188 0.0979884 0
    outer loop
      vertex -2.8721 7.36185 -3.35
      vertex -2.85001 7.1375 3.35
      vertex -2.85001 7.1375 -3.35
    endloop
  endfacet
  facet normal 1 -0 0
    outer loop
      vertex -2.85001 1.09999 3.35
      vertex -2.85001 7.1375 -3.35
      vertex -2.85001 7.1375 3.35
    endloop
  endfacet
  facet normal 1 0 0
    outer loop
      vertex -2.85001 7.1375 -3.35
      vertex -2.85001 1.09999 3.35
      vertex -2.85001 1.09999 -3.35
    endloop
  endfacet
  facet normal 0 1 -0
    outer loop
      vertex -1.90001 1.09999 -3.35
      vertex -2.85001 1.09999 3.35
      vertex -1.90001 1.09999 3.35
    endloop
  endfacet
  facet normal 0 1 0
    outer loop
      vertex -2.85001 1.09999 3.35
      vertex -1.90001 1.09999 -3.35
      vertex -2.85001 1.09999 -3.35
    endloop
  endfacet
  facet normal 0.411605 0.911362 -0
    outer loop
      vertex -0.589539 0.508133 -3.35
      vertex -1.90001 1.09999 3.35
      vertex -0.589539 0.508133 3.35
    endloop
  endfacet
  facet normal 0.411605 0.911362 0
    outer loop
      vertex -1.90001 1.09999 3.35
      vertex -0.589539 0.508133 -3.35
      vertex -1.90001 1.09999 -3.35
    endloop
  endfacet
  facet normal 0.471388 0.881926 -0
    outer loop
      vertex -0.494446 0.457306 -3.35
      vertex -0.589539 0.508133 3.35
      vertex -0.494446 0.457306 3.35
    endloop
  endfacet
  facet normal 0.471388 0.881926 0
    outer loop
      vertex -0.589539 0.508133 3.35
      vertex -0.494446 0.457306 -3.35
      vertex -0.589539 0.508133 -3.35
    endloop
  endfacet
  facet normal 0.634428 0.772982 -0
    outer loop
      vertex -0.411102 0.388901 -3.35
      vertex -0.494446 0.457306 3.35
      vertex -0.411102 0.388901 3.35
    endloop
  endfacet
  facet normal 0.634428 0.772982 0
    outer loop
      vertex -0.494446 0.457306 3.35
      vertex -0.411102 0.388901 -3.35
      vertex -0.494446 0.457306 -3.35
    endloop
  endfacet
  facet normal 0.772982 0.634428 0
    outer loop
      vertex -0.342697 0.305557 3.35
      vertex -0.411102 0.388901 -3.35
      vertex -0.411102 0.388901 3.35
    endloop
  endfacet
  facet normal 0.772982 0.634428 0
    outer loop
      vertex -0.411102 0.388901 -3.35
      vertex -0.342697 0.305557 3.35
      vertex -0.342697 0.305557 -3.35
    endloop
  endfacet
  facet normal 0.881926 0.471388 0
    outer loop
      vertex -0.29187 0.210464 3.35
      vertex -0.342697 0.305557 -3.35
      vertex -0.342697 0.305557 3.35
    endloop
  endfacet
  facet normal 0.881926 0.471388 0
    outer loop
      vertex -0.342697 0.305557 -3.35
      vertex -0.29187 0.210464 3.35
      vertex -0.29187 0.210464 -3.35
    endloop
  endfacet
  facet normal 0.956948 0.290259 0
    outer loop
      vertex -0.260574 0.107285 3.35
      vertex -0.29187 0.210464 -3.35
      vertex -0.29187 0.210464 3.35
    endloop
  endfacet
  facet normal 0.956948 0.290259 0
    outer loop
      vertex -0.29187 0.210464 -3.35
      vertex -0.260574 0.107285 3.35
      vertex -0.260574 0.107285 -3.35
    endloop
  endfacet
  facet normal 0.995178 0.0980847 0
    outer loop
      vertex -0.25 0 3.35
      vertex -0.260574 0.107285 -3.35
      vertex -0.260574 0.107285 3.35
    endloop
  endfacet
  facet normal 0.995178 0.0980847 0
    outer loop
      vertex -0.260574 0.107285 -3.35
      vertex -0.25 0 3.35
      vertex -0.25 0 -3.35
    endloop
  endfacet
  facet normal 0.995178 -0.0980847 0
    outer loop
      vertex -0.260574 -0.107285 3.35
      vertex -0.25 0 -3.35
      vertex -0.25 0 3.35
    endloop
  endfacet
  facet normal 0.995178 -0.0980847 0
    outer loop
      vertex -0.25 0 -3.35
      vertex -0.260574 -0.107285 3.35
      vertex -0.260574 -0.107285 -3.35
    endloop
  endfacet
  facet normal 0.956948 -0.290259 0
    outer loop
      vertex -0.29187 -0.210464 3.35
      vertex -0.260574 -0.107285 -3.35
      vertex -0.260574 -0.107285 3.35
    endloop
  endfacet
  facet normal 0.956948 -0.290259 0
    outer loop
      vertex -0.260574 -0.107285 -3.35
      vertex -0.29187 -0.210464 3.35
      vertex -0.29187 -0.210464 -3.35
    endloop
  endfacet
  facet normal 0.881926 -0.471388 0
    outer loop
      vertex -0.342697 -0.305557 3.35
      vertex -0.29187 -0.210464 -3.35
      vertex -0.29187 -0.210464 3.35
    endloop
  endfacet
  facet normal 0.881926 -0.471388 0
    outer loop
      vertex -0.29187 -0.210464 -3.35
      vertex -0.342697 -0.305557 3.35
      vertex -0.342697 -0.305557 -3.35
    endloop
  endfacet
  facet normal 0.772982 -0.634428 0
    outer loop
      vertex -0.411102 -0.388901 3.35
      vertex -0.342697 -0.305557 -3.35
      vertex -0.342697 -0.305557 3.35
    endloop
  endfacet
  facet normal 0.772982 -0.634428 0
    outer loop
      vertex -0.342697 -0.305557 -3.35
      vertex -0.411102 -0.388901 3.35
      vertex -0.411102 -0.388901 -3.35
    endloop
  endfacet
  facet normal 0.634428 -0.772982 0
    outer loop
      vertex -0.494446 -0.457306 -3.35
      vertex -0.411102 -0.388901 3.35
      vertex -0.494446 -0.457306 3.35
    endloop
  endfacet
  facet normal 0.634428 -0.772982 0
    outer loop
      vertex -0.411102 -0.388901 3.35
      vertex -0.494446 -0.457306 -3.35
      vertex -0.411102 -0.388901 -3.35
    endloop
  endfacet
  facet normal 0.471388 -0.881926 0
    outer loop
      vertex -0.589539 -0.508133 -3.35
      vertex -0.494446 -0.457306 3.35
      vertex -0.589539 -0.508133 3.35
    endloop
  endfacet
  facet normal 0.471388 -0.881926 0
    outer loop
      vertex -0.494446 -0.457306 3.35
      vertex -0.589539 -0.508133 -3.35
      vertex -0.494446 -0.457306 -3.35
    endloop
  endfacet
  facet normal 0.411605 -0.911362 0
    outer loop
      vertex -1.90001 -1.09999 -3.35
      vertex -0.589539 -0.508133 3.35
      vertex -1.90001 -1.09999 3.35
    endloop
  endfacet
  facet normal 0.411605 -0.911362 0
    outer loop
      vertex -0.589539 -0.508133 3.35
      vertex -1.90001 -1.09999 -3.35
      vertex -0.589539 -0.508133 -3.35
    endloop
  endfacet
  facet normal 0 -1 0
    outer loop
      vertex -2.85001 -1.09999 -3.35
      vertex -1.90001 -1.09999 3.35
      vertex -2.85001 -1.09999 3.35
    endloop
  endfacet
  facet normal 0 -1 -0
    outer loop
      vertex -1.90001 -1.09999 3.35
      vertex -2.85001 -1.09999 -3.35
      vertex -1.90001 -1.09999 -3.35
    endloop
  endfacet
  facet normal 1 -0 0
    outer loop
      vertex -2.85001 -7.1375 3.35
      vertex -2.85001 -1.09999 -3.35
      vertex -2.85001 -1.09999 3.35
    endloop
  endfacet
  facet normal 1 0 0
    outer loop
      vertex -2.85001 -1.09999 -3.35
      vertex -2.85001 -7.1375 3.35
      vertex -2.85001 -7.1375 -3.35
    endloop
  endfacet
  facet normal 0.995188 -0.0979884 0
    outer loop
      vertex -2.8721 -7.36185 3.35
      vertex -2.85001 -7.1375 -3.35
      vertex -2.85001 -7.1375 3.35
    endloop
  endfacet
  facet normal 0.995188 -0.0979884 0
    outer loop
      vertex -2.85001 -7.1375 -3.35
      vertex -2.8721 -7.36185 3.35
      vertex -2.8721 -7.36185 -3.35
    endloop
  endfacet
  facet normal 0.956929 -0.290321 0
    outer loop
      vertex -2.93755 -7.57758 3.35
      vertex -2.8721 -7.36185 -3.35
      vertex -2.8721 -7.36185 3.35
    endloop
  endfacet
  facet normal 0.956929 -0.290321 0
    outer loop
      vertex -2.8721 -7.36185 -3.35
      vertex -2.93755 -7.57758 3.35
      vertex -2.93755 -7.57758 -3.35
    endloop
  endfacet
  facet normal 0.881942 -0.471357 0
    outer loop
      vertex -3.04381 -7.7764 3.35
      vertex -2.93755 -7.57758 -3.35
      vertex -2.93755 -7.57758 3.35
    endloop
  endfacet
  facet normal 0.881942 -0.471357 0
    outer loop
      vertex -2.93755 -7.57758 -3.35
      vertex -3.04381 -7.7764 3.35
      vertex -3.04381 -7.7764 -3.35
    endloop
  endfacet
  facet normal 0.773053 -0.634341 0
    outer loop
      vertex -3.18681 -7.95067 3.35
      vertex -3.04381 -7.7764 -3.35
      vertex -3.04381 -7.7764 3.35
    endloop
  endfacet
  facet normal 0.773053 -0.634341 0
    outer loop
      vertex -3.04381 -7.7764 -3.35
      vertex -3.18681 -7.95067 3.35
      vertex -3.18681 -7.95067 -3.35
    endloop
  endfacet
  facet normal 0.634394 -0.77301 0
    outer loop
      vertex -3.36108 -8.09369 -3.35
      vertex -3.18681 -7.95067 3.35
      vertex -3.36108 -8.09369 3.35
    endloop
  endfacet
  facet normal 0.634394 -0.77301 0
    outer loop
      vertex -3.18681 -7.95067 3.35
      vertex -3.36108 -8.09369 -3.35
      vertex -3.18681 -7.95067 -3.35
    endloop
  endfacet
  facet normal 0.471339 -0.881952 0
    outer loop
      vertex -3.55991 -8.19995 -3.35
      vertex -3.36108 -8.09369 3.35
      vertex -3.55991 -8.19995 3.35
    endloop
  endfacet
  facet normal 0.471339 -0.881952 0
    outer loop
      vertex -3.36108 -8.09369 3.35
      vertex -3.55991 -8.19995 -3.35
      vertex -3.36108 -8.09369 -3.35
    endloop
  endfacet
  facet normal 0.290334 -0.956925 0
    outer loop
      vertex -3.77563 -8.2654 -3.35
      vertex -3.55991 -8.19995 3.35
      vertex -3.77563 -8.2654 3.35
    endloop
  endfacet
  facet normal 0.290334 -0.956925 0
    outer loop
      vertex -3.55991 -8.19995 3.35
      vertex -3.77563 -8.2654 -3.35
      vertex -3.55991 -8.19995 -3.35
    endloop
  endfacet
  facet normal 0.0979797 -0.995188 0
    outer loop
      vertex -4 -8.28749 -3.35
      vertex -3.77563 -8.2654 3.35
      vertex -4 -8.28749 3.35
    endloop
  endfacet
  facet normal 0.0979797 -0.995188 0
    outer loop
      vertex -3.77563 -8.2654 3.35
      vertex -4 -8.28749 -3.35
      vertex -3.77563 -8.2654 -3.35
    endloop
  endfacet
  facet normal -0.0979884 -0.995188 0
    outer loop
      vertex -4.22435 -8.2654 -3.35
      vertex -4 -8.28749 3.35
      vertex -4.22435 -8.2654 3.35
    endloop
  endfacet
  facet normal -0.0979884 -0.995188 -0
    outer loop
      vertex -4 -8.28749 3.35
      vertex -4.22435 -8.2654 -3.35
      vertex -4 -8.28749 -3.35
    endloop
  endfacet
  facet normal -0.290321 -0.956929 0
    outer loop
      vertex -4.44008 -8.19995 -3.35
      vertex -4.22435 -8.2654 3.35
      vertex -4.44008 -8.19995 3.35
    endloop
  endfacet
  facet normal -0.290321 -0.956929 -0
    outer loop
      vertex -4.22435 -8.2654 3.35
      vertex -4.44008 -8.19995 -3.35
      vertex -4.22435 -8.2654 -3.35
    endloop
  endfacet
  facet normal -0.471357 -0.881942 0
    outer loop
      vertex -4.6389 -8.09369 -3.35
      vertex -4.44008 -8.19995 3.35
      vertex -4.6389 -8.09369 3.35
    endloop
  endfacet
  facet normal -0.471357 -0.881942 -0
    outer loop
      vertex -4.44008 -8.19995 3.35
      vertex -4.6389 -8.09369 -3.35
      vertex -4.44008 -8.19995 -3.35
    endloop
  endfacet
  facet normal -0.634394 -0.77301 0
    outer loop
      vertex -4.81317 -7.95067 -3.35
      vertex -4.6389 -8.09369 3.35
      vertex -4.81317 -7.95067 3.35
    endloop
  endfacet
  facet normal -0.634394 -0.77301 -0
    outer loop
      vertex -4.6389 -8.09369 3.35
      vertex -4.81317 -7.95067 -3.35
      vertex -4.6389 -8.09369 -3.35
    endloop
  endfacet
  facet normal -0.773032 -0.634368 0
    outer loop
      vertex -4.81317 -7.95067 -3.35
      vertex -4.95618 -7.7764 3.35
      vertex -4.95618 -7.7764 -3.35
    endloop
  endfacet
  facet normal -0.773032 -0.634368 0
    outer loop
      vertex -4.95618 -7.7764 3.35
      vertex -4.81317 -7.95067 -3.35
      vertex -4.81317 -7.95067 3.35
    endloop
  endfacet
  facet normal -0.881924 -0.471392 0
    outer loop
      vertex -4.95618 -7.7764 -3.35
      vertex -5.06245 -7.57758 3.35
      vertex -5.06245 -7.57758 -3.35
    endloop
  endfacet
  facet normal -0.881924 -0.471392 0
    outer loop
      vertex -5.06245 -7.57758 3.35
      vertex -4.95618 -7.7764 -3.35
      vertex -4.95618 -7.7764 3.35
    endloop
  endfacet
  facet normal -0.956929 -0.290321 0
    outer loop
      vertex -5.06245 -7.57758 -3.35
      vertex -5.1279 -7.36185 3.35
      vertex -5.1279 -7.36185 -3.35
    endloop
  endfacet
  facet normal -0.956929 -0.290321 0
    outer loop
      vertex -5.1279 -7.36185 3.35
      vertex -5.06245 -7.57758 -3.35
      vertex -5.06245 -7.57758 3.35
    endloop
  endfacet
  facet normal -0.995188 -0.0979884 0
    outer loop
      vertex -5.1279 -7.36185 -3.35
      vertex -5.14999 -7.1375 3.35
      vertex -5.14999 -7.1375 -3.35
    endloop
  endfacet
  facet normal -0.995188 -0.0979884 0
    outer loop
      vertex -5.14999 -7.1375 3.35
      vertex -5.1279 -7.36185 -3.35
      vertex -5.1279 -7.36185 3.35
    endloop
  endfacet
  facet normal -1 0 0
    outer loop
      vertex -5.14999 -7.1375 -3.35
      vertex -5.14999 7.1375 3.35
      vertex -5.14999 7.1375 -3.35
    endloop
  endfacet
  facet normal -1 -0 0
    outer loop
      vertex -5.14999 7.1375 3.35
      vertex -5.14999 -7.1375 -3.35
      vertex -5.14999 -7.1375 3.35
    endloop
  endfacet
  facet normal -0.995188 0.0979884 0
    outer loop
      vertex -5.14999 7.1375 -3.35
      vertex -5.1279 7.36185 3.35
      vertex -5.1279 7.36185 -3.35
    endloop
  endfacet
  facet normal -0.995188 0.0979884 0
    outer loop
      vertex -5.1279 7.36185 3.35
      vertex -5.14999 7.1375 -3.35
      vertex -5.14999 7.1375 3.35
    endloop
  endfacet
  facet normal -0 0 1
    outer loop
      vertex 2.85001 7.1375 3.35
      vertex 5.14999 1.09999 3.35
      vertex 5.14999 7.1375 3.35
    endloop
  endfacet
  facet normal 0 0 1
    outer loop
      vertex 5.14999 1.09999 3.35
      vertex 2.85001 7.1375 3.35
      vertex 5.14999 -1.09999 3.35
    endloop
  endfacet
  facet normal 0 0 1
    outer loop
      vertex 2.85001 7.1375 3.35
      vertex 5.14999 7.1375 3.35
      vertex 5.1279 7.36185 3.35
    endloop
  endfacet
  facet normal 0 0 1
    outer loop
      vertex 2.85001 -7.1375 3.35
      vertex 5.14999 -1.09999 3.35
      vertex 2.85001 7.1375 3.35
    endloop
  endfacet
  facet normal 0 0 1
    outer loop
      vertex 2.85001 7.1375 3.35
      vertex 5.1279 7.36185 3.35
      vertex 5.06245 7.57758 3.35
    endloop
  endfacet
  facet normal 0 0 1
    outer loop
      vertex 5.14999 -1.09999 3.35
      vertex 2.85001 -7.1375 3.35
      vertex 5.14999 -7.1375 3.35
    endloop
  endfacet
  facet normal 0 0 1
    outer loop
      vertex 2.85001 7.1375 3.35
      vertex 5.06245 7.57758 3.35
      vertex 4.95619 7.7764 3.35
    endloop
  endfacet
  facet normal 0 0 1
    outer loop
      vertex 5.14999 -7.1375 3.35
      vertex 2.85001 -7.1375 3.35
      vertex 5.1279 -7.36185 3.35
    endloop
  endfacet
  facet normal 0 0 1
    outer loop
      vertex 2.85001 7.1375 3.35
      vertex 4.95619 7.7764 3.35
      vertex 4.81319 7.95067 3.35
    endloop
  endfacet
  facet normal 0 0 1
    outer loop
      vertex 5.1279 -7.36185 3.35
      vertex 2.85001 -7.1375 3.35
      vertex 5.06245 -7.57758 3.35
    endloop
  endfacet
  facet normal 0 0 1
    outer loop
      vertex 2.85001 7.1375 3.35
      vertex 4.81319 7.95067 3.35
      vertex 4.63892 8.09369 3.35
    endloop
  endfacet
  facet normal 0 0 1
    outer loop
      vertex 5.06245 -7.57758 3.35
      vertex 2.85001 -7.1375 3.35
      vertex 4.95619 -7.7764 3.35
    endloop
  endfacet
  facet normal 0 0 1
    outer loop
      vertex 2.85001 7.1375 3.35
      vertex 4.63892 8.09369 3.35
      vertex 4.44009 8.19995 3.35
    endloop
  endfacet
  facet normal 0 0 1
    outer loop
      vertex 4.95619 -7.7764 3.35
      vertex 2.85001 -7.1375 3.35
      vertex 4.81319 -7.95067 3.35
    endloop
  endfacet
  facet normal 0 0 1
    outer loop
      vertex 2.85001 7.1375 3.35
      vertex 4.44009 8.19995 3.35
      vertex 4.22437 8.2654 3.35
    endloop
  endfacet
  facet normal 0 0 1
    outer loop
      vertex 4.81319 -7.95067 3.35
      vertex 2.85001 -7.1375 3.35
      vertex 4.63892 -8.09369 3.35
    endloop
  endfacet
  facet normal 0 0 1
    outer loop
      vertex 2.85001 7.1375 3.35
      vertex 4.22437 8.2654 3.35
      vertex 4 8.28749 3.35
    endloop
  endfacet
  facet normal 0 0 1
    outer loop
      vertex 4.63892 -8.09369 3.35
      vertex 2.85001 -7.1375 3.35
      vertex 4.44009 -8.19995 3.35
    endloop
  endfacet
  facet normal 0 0 1
    outer loop
      vertex 2.85001 7.1375 3.35
      vertex 4 8.28749 3.35
      vertex 3.77565 8.2654 3.35
    endloop
  endfacet
  facet normal 0 0 1
    outer loop
      vertex 4.44009 -8.19995 3.35
      vertex 2.85001 -7.1375 3.35
      vertex 4.22437 -8.2654 3.35
    endloop
  endfacet
  facet normal 0 0 1
    outer loop
      vertex 2.85001 7.1375 3.35
      vertex 3.77565 8.2654 3.35
      vertex 3.55992 8.19995 3.35
    endloop
  endfacet
  facet normal 0 0 1
    outer loop
      vertex 4.22437 -8.2654 3.35
      vertex 2.85001 -7.1375 3.35
      vertex 4 -8.28749 3.35
    endloop
  endfacet
  facet normal 0 0 1
    outer loop
      vertex 2.85001 7.1375 3.35
      vertex 3.55992 8.19995 3.35
      vertex 3.3611 8.09369 3.35
    endloop
  endfacet
  facet normal 0 0 1
    outer loop
      vertex 4 -8.28749 3.35
      vertex 2.85001 -7.1375 3.35
      vertex 3.77565 -8.2654 3.35
    endloop
  endfacet
  facet normal 0 0 1
    outer loop
      vertex 2.85001 7.1375 3.35
      vertex 3.3611 8.09369 3.35
      vertex 3.18683 7.95067 3.35
    endloop
  endfacet
  facet normal 0 0 1
    outer loop
      vertex 3.77565 -8.2654 3.35
      vertex 2.85001 -7.1375 3.35
      vertex 3.55992 -8.19995 3.35
    endloop
  endfacet
  facet normal 0 0 1
    outer loop
      vertex 2.85001 7.1375 3.35
      vertex 3.18683 7.95067 3.35
      vertex 3.04382 7.7764 3.35
    endloop
  endfacet
  facet normal 0 0 1
    outer loop
      vertex 3.55992 -8.19995 3.35
      vertex 2.85001 -7.1375 3.35
      vertex 3.3611 -8.09369 3.35
    endloop
  endfacet
  facet normal 0 0 1
    outer loop
      vertex 2.85001 7.1375 3.35
      vertex 3.04382 7.7764 3.35
      vertex 2.93755 7.57758 3.35
    endloop
  endfacet
  facet normal 0 0 1
    outer loop
      vertex 3.3611 -8.09369 3.35
      vertex 2.85001 -7.1375 3.35
      vertex 3.18683 -7.95067 3.35
    endloop
  endfacet
  facet normal 0 0 1
    outer loop
      vertex 2.85001 7.1375 3.35
      vertex 2.93755 7.57758 3.35
      vertex 2.8721 7.36185 3.35
    endloop
  endfacet
  facet normal 0 0 1
    outer loop
      vertex 3.18683 -7.95067 3.35
      vertex 2.85001 -7.1375 3.35
      vertex 3.04382 -7.7764 3.35
    endloop
  endfacet
  facet normal 0 0 1
    outer loop
      vertex 3.04382 -7.7764 3.35
      vertex 2.85001 -7.1375 3.35
      vertex 2.93755 -7.57758 3.35
    endloop
  endfacet
  facet normal 0 0 1
    outer loop
      vertex 2.93755 -7.57758 3.35
      vertex 2.85001 -7.1375 3.35
      vertex 2.8721 -7.36185 3.35
    endloop
  endfacet
  facet normal 0 0 1
    outer loop
      vertex 7.73943 0.107285 3.35
      vertex 7.73943 -0.107285 3.35
      vertex 7.75 0 3.35
    endloop
  endfacet
  facet normal 0 0 1
    outer loop
      vertex 7.70813 0.210464 3.35
      vertex 7.73943 -0.107285 3.35
      vertex 7.73943 0.107285 3.35
    endloop
  endfacet
  facet normal 0 0 1
    outer loop
      vertex 7.70813 0.210464 3.35
      vertex 7.70813 -0.210464 3.35
      vertex 7.73943 -0.107285 3.35
    endloop
  endfacet
  facet normal 0 0 1
    outer loop
      vertex 7.6573 0.305557 3.35
      vertex 7.70813 -0.210464 3.35
      vertex 7.70813 0.210464 3.35
    endloop
  endfacet
  facet normal 0 0 1
    outer loop
      vertex 7.6573 0.305557 3.35
      vertex 7.6573 -0.305557 3.35
      vertex 7.70813 -0.210464 3.35
    endloop
  endfacet
  facet normal 0 0 1
    outer loop
      vertex 7.5889 0.388901 3.35
      vertex 7.6573 -0.305557 3.35
      vertex 7.6573 0.305557 3.35
    endloop
  endfacet
  facet normal 0 0 1
    outer loop
      vertex 7.5889 0.388901 3.35
      vertex 7.5889 -0.388901 3.35
      vertex 7.6573 -0.305557 3.35
    endloop
  endfacet
  facet normal 0 0 1
    outer loop
      vertex 7.50555 0.457306 3.35
      vertex 7.5889 -0.388901 3.35
      vertex 7.5889 0.388901 3.35
    endloop
  endfacet
  facet normal 0 0 1
    outer loop
      vertex 7.50555 0.457306 3.35
      vertex 7.50555 -0.457306 3.35
      vertex 7.5889 -0.388901 3.35
    endloop
  endfacet
  facet normal 0 0 1
    outer loop
      vertex 7.41046 0.508133 3.35
      vertex 7.50555 -0.457306 3.35
      vertex 7.50555 0.457306 3.35
    endloop
  endfacet
  facet normal 0 0 1
    outer loop
      vertex 7.41046 0.508133 3.35
      vertex 7.41046 -0.508133 3.35
      vertex 7.50555 -0.457306 3.35
    endloop
  endfacet
  facet normal 0 0 1
    outer loop
      vertex 6.09999 1.09999 3.35
      vertex 7.41046 -0.508133 3.35
      vertex 7.41046 0.508133 3.35
    endloop
  endfacet
  facet normal 0 0 1
    outer loop
      vertex 6.09999 1.09999 3.35
      vertex 6.09999 -1.09999 3.35
      vertex 7.41046 -0.508133 3.35
    endloop
  endfacet
  facet normal -0 0 1
    outer loop
      vertex 5.14999 1.09999 3.35
      vertex 6.09999 -1.09999 3.35
      vertex 6.09999 1.09999 3.35
    endloop
  endfacet
  facet normal 0 0 1
    outer loop
      vertex 6.09999 -1.09999 3.35
      vertex 5.14999 1.09999 3.35
      vertex 5.14999 -1.09999 3.35
    endloop
  endfacet
  facet normal 0 0 -1
    outer loop
      vertex 2.85001 -7.1375 -3.35
      vertex 5.14999 -1.09999 -3.35
      vertex 5.14999 -7.1375 -3.35
    endloop
  endfacet
  facet normal -0 0 -1
    outer loop
      vertex 5.14999 -1.09999 -3.35
      vertex 2.85001 -7.1375 -3.35
      vertex 5.14999 1.09999 -3.35
    endloop
  endfacet
  facet normal 0 0 -1
    outer loop
      vertex 2.85001 -7.1375 -3.35
      vertex 5.14999 -7.1375 -3.35
      vertex 5.1279 -7.36185 -3.35
    endloop
  endfacet
  facet normal 0 0 -1
    outer loop
      vertex 2.85001 7.1375 -3.35
      vertex 5.14999 1.09999 -3.35
      vertex 2.85001 -7.1375 -3.35
    endloop
  endfacet
  facet normal 0 0 -1
    outer loop
      vertex 2.85001 -7.1375 -3.35
      vertex 5.1279 -7.36185 -3.35
      vertex 5.06245 -7.57758 -3.35
    endloop
  endfacet
  facet normal 0 0 -1
    outer loop
      vertex 5.14999 1.09999 -3.35
      vertex 2.85001 7.1375 -3.35
      vertex 5.14999 7.1375 -3.35
    endloop
  endfacet
  facet normal 0 0 -1
    outer loop
      vertex 2.85001 -7.1375 -3.35
      vertex 5.06245 -7.57758 -3.35
      vertex 4.95619 -7.7764 -3.35
    endloop
  endfacet
  facet normal 0 0 -1
    outer loop
      vertex 5.14999 7.1375 -3.35
      vertex 2.85001 7.1375 -3.35
      vertex 5.1279 7.36185 -3.35
    endloop
  endfacet
  facet normal 0 0 -1
    outer loop
      vertex 2.85001 -7.1375 -3.35
      vertex 4.95619 -7.7764 -3.35
      vertex 4.81319 -7.95067 -3.35
    endloop
  endfacet
  facet normal -0 0 -1
    outer loop
      vertex 5.1279 7.36185 -3.35
      vertex 2.85001 7.1375 -3.35
      vertex 5.06245 7.57758 -3.35
    endloop
  endfacet
  facet normal 0 0 -1
    outer loop
      vertex 2.85001 -7.1375 -3.35
      vertex 4.81319 -7.95067 -3.35
      vertex 4.63892 -8.09369 -3.35
    endloop
  endfacet
  facet normal -0 0 -1
    outer loop
      vertex 5.06245 7.57758 -3.35
      vertex 2.85001 7.1375 -3.35
      vertex 4.95619 7.7764 -3.35
    endloop
  endfacet
  facet normal 0 0 -1
    outer loop
      vertex 2.85001 -7.1375 -3.35
      vertex 4.63892 -8.09369 -3.35
      vertex 4.44009 -8.19995 -3.35
    endloop
  endfacet
  facet normal -0 0 -1
    outer loop
      vertex 4.95619 7.7764 -3.35
      vertex 2.85001 7.1375 -3.35
      vertex 4.81319 7.95067 -3.35
    endloop
  endfacet
  facet normal 0 0 -1
    outer loop
      vertex 2.85001 -7.1375 -3.35
      vertex 4.44009 -8.19995 -3.35
      vertex 4.22437 -8.2654 -3.35
    endloop
  endfacet
  facet normal -0 0 -1
    outer loop
      vertex 4.81319 7.95067 -3.35
      vertex 2.85001 7.1375 -3.35
      vertex 4.63892 8.09369 -3.35
    endloop
  endfacet
  facet normal 0 0 -1
    outer loop
      vertex 2.85001 -7.1375 -3.35
      vertex 4.22437 -8.2654 -3.35
      vertex 4 -8.28749 -3.35
    endloop
  endfacet
  facet normal -0 0 -1
    outer loop
      vertex 4.63892 8.09369 -3.35
      vertex 2.85001 7.1375 -3.35
      vertex 4.44009 8.19995 -3.35
    endloop
  endfacet
  facet normal 0 0 -1
    outer loop
      vertex 2.85001 -7.1375 -3.35
      vertex 4 -8.28749 -3.35
      vertex 3.77565 -8.2654 -3.35
    endloop
  endfacet
  facet normal -0 0 -1
    outer loop
      vertex 4.44009 8.19995 -3.35
      vertex 2.85001 7.1375 -3.35
      vertex 4.22437 8.2654 -3.35
    endloop
  endfacet
  facet normal 0 0 -1
    outer loop
      vertex 2.85001 -7.1375 -3.35
      vertex 3.77565 -8.2654 -3.35
      vertex 3.55992 -8.19995 -3.35
    endloop
  endfacet
  facet normal -0 0 -1
    outer loop
      vertex 4.22437 8.2654 -3.35
      vertex 2.85001 7.1375 -3.35
      vertex 4 8.28749 -3.35
    endloop
  endfacet
  facet normal 0 0 -1
    outer loop
      vertex 2.85001 -7.1375 -3.35
      vertex 3.55992 -8.19995 -3.35
      vertex 3.3611 -8.09369 -3.35
    endloop
  endfacet
  facet normal 0 0 -1
    outer loop
      vertex 4 8.28749 -3.35
      vertex 2.85001 7.1375 -3.35
      vertex 3.77565 8.2654 -3.35
    endloop
  endfacet
  facet normal 0 0 -1
    outer loop
      vertex 2.85001 -7.1375 -3.35
      vertex 3.3611 -8.09369 -3.35
      vertex 3.18683 -7.95067 -3.35
    endloop
  endfacet
  facet normal 0 0 -1
    outer loop
      vertex 3.77565 8.2654 -3.35
      vertex 2.85001 7.1375 -3.35
      vertex 3.55992 8.19995 -3.35
    endloop
  endfacet
  facet normal 0 0 -1
    outer loop
      vertex 2.85001 -7.1375 -3.35
      vertex 3.18683 -7.95067 -3.35
      vertex 3.04382 -7.7764 -3.35
    endloop
  endfacet
  facet normal 0 0 -1
    outer loop
      vertex 3.55992 8.19995 -3.35
      vertex 2.85001 7.1375 -3.35
      vertex 3.3611 8.09369 -3.35
    endloop
  endfacet
  facet normal 0 0 -1
    outer loop
      vertex 2.85001 -7.1375 -3.35
      vertex 3.04382 -7.7764 -3.35
      vertex 2.93755 -7.57758 -3.35
    endloop
  endfacet
  facet normal 0 0 -1
    outer loop
      vertex 3.3611 8.09369 -3.35
      vertex 2.85001 7.1375 -3.35
      vertex 3.18683 7.95067 -3.35
    endloop
  endfacet
  facet normal 0 0 -1
    outer loop
      vertex 2.85001 -7.1375 -3.35
      vertex 2.93755 -7.57758 -3.35
      vertex 2.8721 -7.36185 -3.35
    endloop
  endfacet
  facet normal 0 0 -1
    outer loop
      vertex 3.18683 7.95067 -3.35
      vertex 2.85001 7.1375 -3.35
      vertex 3.04382 7.7764 -3.35
    endloop
  endfacet
  facet normal 0 0 -1
    outer loop
      vertex 3.04382 7.7764 -3.35
      vertex 2.85001 7.1375 -3.35
      vertex 2.93755 7.57758 -3.35
    endloop
  endfacet
  facet normal 0 0 -1
    outer loop
      vertex 2.93755 7.57758 -3.35
      vertex 2.85001 7.1375 -3.35
      vertex 2.8721 7.36185 -3.35
    endloop
  endfacet
  facet normal 0 0 -1
    outer loop
      vertex 7.73943 -0.107285 -3.35
      vertex 7.73943 0.107285 -3.35
      vertex 7.75 0 -3.35
    endloop
  endfacet
  facet normal 0 0 -1
    outer loop
      vertex 7.70813 -0.210464 -3.35
      vertex 7.73943 0.107285 -3.35
      vertex 7.73943 -0.107285 -3.35
    endloop
  endfacet
  facet normal 0 0 -1
    outer loop
      vertex 7.70813 -0.210464 -3.35
      vertex 7.70813 0.210464 -3.35
      vertex 7.73943 0.107285 -3.35
    endloop
  endfacet
  facet normal 0 0 -1
    outer loop
      vertex 7.6573 -0.305557 -3.35
      vertex 7.70813 0.210464 -3.35
      vertex 7.70813 -0.210464 -3.35
    endloop
  endfacet
  facet normal 0 0 -1
    outer loop
      vertex 7.6573 -0.305557 -3.35
      vertex 7.6573 0.305557 -3.35
      vertex 7.70813 0.210464 -3.35
    endloop
  endfacet
  facet normal 0 0 -1
    outer loop
      vertex 7.5889 -0.388901 -3.35
      vertex 7.6573 0.305557 -3.35
      vertex 7.6573 -0.305557 -3.35
    endloop
  endfacet
  facet normal 0 0 -1
    outer loop
      vertex 7.5889 -0.388901 -3.35
      vertex 7.5889 0.388901 -3.35
      vertex 7.6573 0.305557 -3.35
    endloop
  endfacet
  facet normal 0 0 -1
    outer loop
      vertex 7.50555 -0.457306 -3.35
      vertex 7.5889 0.388901 -3.35
      vertex 7.5889 -0.388901 -3.35
    endloop
  endfacet
  facet normal 0 0 -1
    outer loop
      vertex 7.50555 -0.457306 -3.35
      vertex 7.50555 0.457306 -3.35
      vertex 7.5889 0.388901 -3.35
    endloop
  endfacet
  facet normal 0 0 -1
    outer loop
      vertex 7.41046 -0.508133 -3.35
      vertex 7.50555 0.457306 -3.35
      vertex 7.50555 -0.457306 -3.35
    endloop
  endfacet
  facet normal 0 0 -1
    outer loop
      vertex 7.41046 -0.508133 -3.35
      vertex 7.41046 0.508133 -3.35
      vertex 7.50555 0.457306 -3.35
    endloop
  endfacet
  facet normal 0 0 -1
    outer loop
      vertex 6.09999 -1.09999 -3.35
      vertex 7.41046 0.508133 -3.35
      vertex 7.41046 -0.508133 -3.35
    endloop
  endfacet
  facet normal 0 0 -1
    outer loop
      vertex 6.09999 -1.09999 -3.35
      vertex 6.09999 1.09999 -3.35
      vertex 7.41046 0.508133 -3.35
    endloop
  endfacet
  facet normal 0 0 -1
    outer loop
      vertex 5.14999 -1.09999 -3.35
      vertex 6.09999 1.09999 -3.35
      vertex 6.09999 -1.09999 -3.35
    endloop
  endfacet
  facet normal -0 0 -1
    outer loop
      vertex 6.09999 1.09999 -3.35
      vertex 5.14999 -1.09999 -3.35
      vertex 5.14999 1.09999 -3.35
    endloop
  endfacet
  facet normal -0.956929 0.290321 0
    outer loop
      vertex 2.8721 7.36185 -3.35
      vertex 2.93755 7.57758 3.35
      vertex 2.93755 7.57758 -3.35
    endloop
  endfacet
  facet normal -0.956929 0.290321 0
    outer loop
      vertex 2.93755 7.57758 3.35
      vertex 2.8721 7.36185 -3.35
      vertex 2.8721 7.36185 3.35
    endloop
  endfacet
  facet normal -0.881924 0.471392 0
    outer loop
      vertex 2.93755 7.57758 -3.35
      vertex 3.04382 7.7764 3.35
      vertex 3.04382 7.7764 -3.35
    endloop
  endfacet
  facet normal -0.881924 0.471392 0
    outer loop
      vertex 3.04382 7.7764 3.35
      vertex 2.93755 7.57758 -3.35
      vertex 2.93755 7.57758 3.35
    endloop
  endfacet
  facet normal -0.773032 0.634368 0
    outer loop
      vertex 3.04382 7.7764 -3.35
      vertex 3.18683 7.95067 3.35
      vertex 3.18683 7.95067 -3.35
    endloop
  endfacet
  facet normal -0.773032 0.634368 0
    outer loop
      vertex 3.18683 7.95067 3.35
      vertex 3.04382 7.7764 -3.35
      vertex 3.04382 7.7764 3.35
    endloop
  endfacet
  facet normal -0.634394 0.77301 0
    outer loop
      vertex 3.3611 8.09369 -3.35
      vertex 3.18683 7.95067 3.35
      vertex 3.3611 8.09369 3.35
    endloop
  endfacet
  facet normal -0.634394 0.77301 0
    outer loop
      vertex 3.18683 7.95067 3.35
      vertex 3.3611 8.09369 -3.35
      vertex 3.18683 7.95067 -3.35
    endloop
  endfacet
  facet normal -0.471357 0.881942 0
    outer loop
      vertex 3.55992 8.19995 -3.35
      vertex 3.3611 8.09369 3.35
      vertex 3.55992 8.19995 3.35
    endloop
  endfacet
  facet normal -0.471357 0.881942 0
    outer loop
      vertex 3.3611 8.09369 3.35
      vertex 3.55992 8.19995 -3.35
      vertex 3.3611 8.09369 -3.35
    endloop
  endfacet
  facet normal -0.290321 0.956929 0
    outer loop
      vertex 3.77565 8.2654 -3.35
      vertex 3.55992 8.19995 3.35
      vertex 3.77565 8.2654 3.35
    endloop
  endfacet
  facet normal -0.290321 0.956929 0
    outer loop
      vertex 3.55992 8.19995 3.35
      vertex 3.77565 8.2654 -3.35
      vertex 3.55992 8.19995 -3.35
    endloop
  endfacet
  facet normal -0.0979884 0.995188 0
    outer loop
      vertex 4 8.28749 -3.35
      vertex 3.77565 8.2654 3.35
      vertex 4 8.28749 3.35
    endloop
  endfacet
  facet normal -0.0979884 0.995188 0
    outer loop
      vertex 3.77565 8.2654 3.35
      vertex 4 8.28749 -3.35
      vertex 3.77565 8.2654 -3.35
    endloop
  endfacet
  facet normal 0.0979797 0.995188 -0
    outer loop
      vertex 4.22437 8.2654 -3.35
      vertex 4 8.28749 3.35
      vertex 4.22437 8.2654 3.35
    endloop
  endfacet
  facet normal 0.0979797 0.995188 0
    outer loop
      vertex 4 8.28749 3.35
      vertex 4.22437 8.2654 -3.35
      vertex 4 8.28749 -3.35
    endloop
  endfacet
  facet normal 0.290334 0.956925 -0
    outer loop
      vertex 4.44009 8.19995 -3.35
      vertex 4.22437 8.2654 3.35
      vertex 4.44009 8.19995 3.35
    endloop
  endfacet
  facet normal 0.290334 0.956925 0
    outer loop
      vertex 4.22437 8.2654 3.35
      vertex 4.44009 8.19995 -3.35
      vertex 4.22437 8.2654 -3.35
    endloop
  endfacet
  facet normal 0.471339 0.881952 -0
    outer loop
      vertex 4.63892 8.09369 -3.35
      vertex 4.44009 8.19995 3.35
      vertex 4.63892 8.09369 3.35
    endloop
  endfacet
  facet normal 0.471339 0.881952 0
    outer loop
      vertex 4.44009 8.19995 3.35
      vertex 4.63892 8.09369 -3.35
      vertex 4.44009 8.19995 -3.35
    endloop
  endfacet
  facet normal 0.634394 0.77301 -0
    outer loop
      vertex 4.81319 7.95067 -3.35
      vertex 4.63892 8.09369 3.35
      vertex 4.81319 7.95067 3.35
    endloop
  endfacet
  facet normal 0.634394 0.77301 0
    outer loop
      vertex 4.63892 8.09369 3.35
      vertex 4.81319 7.95067 -3.35
      vertex 4.63892 8.09369 -3.35
    endloop
  endfacet
  facet normal 0.773053 0.634341 0
    outer loop
      vertex 4.95619 7.7764 3.35
      vertex 4.81319 7.95067 -3.35
      vertex 4.81319 7.95067 3.35
    endloop
  endfacet
  facet normal 0.773053 0.634341 0
    outer loop
      vertex 4.81319 7.95067 -3.35
      vertex 4.95619 7.7764 3.35
      vertex 4.95619 7.7764 -3.35
    endloop
  endfacet
  facet normal 0.881942 0.471357 0
    outer loop
      vertex 5.06245 7.57758 3.35
      vertex 4.95619 7.7764 -3.35
      vertex 4.95619 7.7764 3.35
    endloop
  endfacet
  facet normal 0.881942 0.471357 0
    outer loop
      vertex 4.95619 7.7764 -3.35
      vertex 5.06245 7.57758 3.35
      vertex 5.06245 7.57758 -3.35
    endloop
  endfacet
  facet normal 0.956929 0.290321 0
    outer loop
      vertex 5.1279 7.36185 3.35
      vertex 5.06245 7.57758 -3.35
      vertex 5.06245 7.57758 3.35
    endloop
  endfacet
  facet normal 0.956929 0.290321 0
    outer loop
      vertex 5.06245 7.57758 -3.35
      vertex 5.1279 7.36185 3.35
      vertex 5.1279 7.36185 -3.35
    endloop
  endfacet
  facet normal 0.995188 0.0979884 0
    outer loop
      vertex 5.14999 7.1375 3.35
      vertex 5.1279 7.36185 -3.35
      vertex 5.1279 7.36185 3.35
    endloop
  endfacet
  facet normal 0.995188 0.0979884 0
    outer loop
      vertex 5.1279 7.36185 -3.35
      vertex 5.14999 7.1375 3.35
      vertex 5.14999 7.1375 -3.35
    endloop
  endfacet
  facet normal 1 -0 0
    outer loop
      vertex 5.14999 1.09999 3.35
      vertex 5.14999 7.1375 -3.35
      vertex 5.14999 7.1375 3.35
    endloop
  endfacet
  facet normal 1 0 0
    outer loop
      vertex 5.14999 7.1375 -3.35
      vertex 5.14999 1.09999 3.35
      vertex 5.14999 1.09999 -3.35
    endloop
  endfacet
  facet normal 0 1 -0
    outer loop
      vertex 6.09999 1.09999 -3.35
      vertex 5.14999 1.09999 3.35
      vertex 6.09999 1.09999 3.35
    endloop
  endfacet
  facet normal 0 1 0
    outer loop
      vertex 5.14999 1.09999 3.35
      vertex 6.09999 1.09999 -3.35
      vertex 5.14999 1.09999 -3.35
    endloop
  endfacet
  facet normal 0.411605 0.911362 -0
    outer loop
      vertex 7.41046 0.508133 -3.35
      vertex 6.09999 1.09999 3.35
      vertex 7.41046 0.508133 3.35
    endloop
  endfacet
  facet normal 0.411605 0.911362 0
    outer loop
      vertex 6.09999 1.09999 3.35
      vertex 7.41046 0.508133 -3.35
      vertex 6.09999 1.09999 -3.35
    endloop
  endfacet
  facet normal 0.471399 0.88192 -0
    outer loop
      vertex 7.50555 0.457306 -3.35
      vertex 7.41046 0.508133 3.35
      vertex 7.50555 0.457306 3.35
    endloop
  endfacet
  facet normal 0.471399 0.88192 0
    outer loop
      vertex 7.41046 0.508133 3.35
      vertex 7.50555 0.457306 -3.35
      vertex 7.41046 0.508133 -3.35
    endloop
  endfacet
  facet normal 0.634401 0.773004 -0
    outer loop
      vertex 7.5889 0.388901 -3.35
      vertex 7.50555 0.457306 3.35
      vertex 7.5889 0.388901 3.35
    endloop
  endfacet
  facet normal 0.634401 0.773004 0
    outer loop
      vertex 7.50555 0.457306 3.35
      vertex 7.5889 0.388901 -3.35
      vertex 7.50555 0.457306 -3.35
    endloop
  endfacet
  facet normal 0.773004 0.634401 0
    outer loop
      vertex 7.6573 0.305557 3.35
      vertex 7.5889 0.388901 -3.35
      vertex 7.5889 0.388901 3.35
    endloop
  endfacet
  facet normal 0.773004 0.634401 0
    outer loop
      vertex 7.5889 0.388901 -3.35
      vertex 7.6573 0.305557 3.35
      vertex 7.6573 0.305557 -3.35
    endloop
  endfacet
  facet normal 0.881915 0.471409 0
    outer loop
      vertex 7.70813 0.210464 3.35
      vertex 7.6573 0.305557 -3.35
      vertex 7.6573 0.305557 3.35
    endloop
  endfacet
  facet normal 0.881915 0.471409 0
    outer loop
      vertex 7.6573 0.305557 -3.35
      vertex 7.70813 0.210464 3.35
      vertex 7.70813 0.210464 -3.35
    endloop
  endfacet
  facet normal 0.956938 0.290293 0
    outer loop
      vertex 7.73943 0.107285 3.35
      vertex 7.70813 0.210464 -3.35
      vertex 7.70813 0.210464 3.35
    endloop
  endfacet
  facet normal 0.956938 0.290293 0
    outer loop
      vertex 7.70813 0.210464 -3.35
      vertex 7.73943 0.107285 3.35
      vertex 7.73943 0.107285 -3.35
    endloop
  endfacet
  facet normal 0.995182 0.0980479 0
    outer loop
      vertex 7.75 0 3.35
      vertex 7.73943 0.107285 -3.35
      vertex 7.73943 0.107285 3.35
    endloop
  endfacet
  facet normal 0.995182 0.0980479 0
    outer loop
      vertex 7.73943 0.107285 -3.35
      vertex 7.75 0 3.35
      vertex 7.75 0 -3.35
    endloop
  endfacet
  facet normal 0.995182 -0.0980479 0
    outer loop
      vertex 7.73943 -0.107285 3.35
      vertex 7.75 0 -3.35
      vertex 7.75 0 3.35
    endloop
  endfacet
  facet normal 0.995182 -0.0980479 0
    outer loop
      vertex 7.75 0 -3.35
      vertex 7.73943 -0.107285 3.35
      vertex 7.73943 -0.107285 -3.35
    endloop
  endfacet
  facet normal 0.956938 -0.290293 0
    outer loop
      vertex 7.70813 -0.210464 3.35
      vertex 7.73943 -0.107285 -3.35
      vertex 7.73943 -0.107285 3.35
    endloop
  endfacet
  facet normal 0.956938 -0.290293 0
    outer loop
      vertex 7.73943 -0.107285 -3.35
      vertex 7.70813 -0.210464 3.35
      vertex 7.70813 -0.210464 -3.35
    endloop
  endfacet
  facet normal 0.881915 -0.471409 0
    outer loop
      vertex 7.6573 -0.305557 3.35
      vertex 7.70813 -0.210464 -3.35
      vertex 7.70813 -0.210464 3.35
    endloop
  endfacet
  facet normal 0.881915 -0.471409 0
    outer loop
      vertex 7.70813 -0.210464 -3.35
      vertex 7.6573 -0.305557 3.35
      vertex 7.6573 -0.305557 -3.35
    endloop
  endfacet
  facet normal 0.773004 -0.634401 0
    outer loop
      vertex 7.5889 -0.388901 3.35
      vertex 7.6573 -0.305557 -3.35
      vertex 7.6573 -0.305557 3.35
    endloop
  endfacet
  facet normal 0.773004 -0.634401 0
    outer loop
      vertex 7.6573 -0.305557 -3.35
      vertex 7.5889 -0.388901 3.35
      vertex 7.5889 -0.388901 -3.35
    endloop
  endfacet
  facet normal 0.634401 -0.773004 0
    outer loop
      vertex 7.50555 -0.457306 -3.35
      vertex 7.5889 -0.388901 3.35
      vertex 7.50555 -0.457306 3.35
    endloop
  endfacet
  facet normal 0.634401 -0.773004 0
    outer loop
      vertex 7.5889 -0.388901 3.35
      vertex 7.50555 -0.457306 -3.35
      vertex 7.5889 -0.388901 -3.35
    endloop
  endfacet
  facet normal 0.471399 -0.88192 0
    outer loop
      vertex 7.41046 -0.508133 -3.35
      vertex 7.50555 -0.457306 3.35
      vertex 7.41046 -0.508133 3.35
    endloop
  endfacet
  facet normal 0.471399 -0.88192 0
    outer loop
      vertex 7.50555 -0.457306 3.35
      vertex 7.41046 -0.508133 -3.35
      vertex 7.50555 -0.457306 -3.35
    endloop
  endfacet
  facet normal 0.411605 -0.911362 0
    outer loop
      vertex 6.09999 -1.09999 -3.35
      vertex 7.41046 -0.508133 3.35
      vertex 6.09999 -1.09999 3.35
    endloop
  endfacet
  facet normal 0.411605 -0.911362 0
    outer loop
      vertex 7.41046 -0.508133 3.35
      vertex 6.09999 -1.09999 -3.35
      vertex 7.41046 -0.508133 -3.35
    endloop
  endfacet
  facet normal 0 -1 0
    outer loop
      vertex 5.14999 -1.09999 -3.35
      vertex 6.09999 -1.09999 3.35
      vertex 5.14999 -1.09999 3.35
    endloop
  endfacet
  facet normal 0 -1 -0
    outer loop
      vertex 6.09999 -1.09999 3.35
      vertex 5.14999 -1.09999 -3.35
      vertex 6.09999 -1.09999 -3.35
    endloop
  endfacet
  facet normal 1 -0 0
    outer loop
      vertex 5.14999 -7.1375 3.35
      vertex 5.14999 -1.09999 -3.35
      vertex 5.14999 -1.09999 3.35
    endloop
  endfacet
  facet normal 1 0 0
    outer loop
      vertex 5.14999 -1.09999 -3.35
      vertex 5.14999 -7.1375 3.35
      vertex 5.14999 -7.1375 -3.35
    endloop
  endfacet
  facet normal 0.995188 -0.0979884 0
    outer loop
      vertex 5.1279 -7.36185 3.35
      vertex 5.14999 -7.1375 -3.35
      vertex 5.14999 -7.1375 3.35
    endloop
  endfacet
  facet normal 0.995188 -0.0979884 0
    outer loop
      vertex 5.14999 -7.1375 -3.35
      vertex 5.1279 -7.36185 3.35
      vertex 5.1279 -7.36185 -3.35
    endloop
  endfacet
  facet normal 0.956929 -0.290321 0
    outer loop
      vertex 5.06245 -7.57758 3.35
      vertex 5.1279 -7.36185 -3.35
      vertex 5.1279 -7.36185 3.35
    endloop
  endfacet
  facet normal 0.956929 -0.290321 0
    outer loop
      vertex 5.1279 -7.36185 -3.35
      vertex 5.06245 -7.57758 3.35
      vertex 5.06245 -7.57758 -3.35
    endloop
  endfacet
  facet normal 0.881942 -0.471357 0
    outer loop
      vertex 4.95619 -7.7764 3.35
      vertex 5.06245 -7.57758 -3.35
      vertex 5.06245 -7.57758 3.35
    endloop
  endfacet
  facet normal 0.881942 -0.471357 0
    outer loop
      vertex 5.06245 -7.57758 -3.35
      vertex 4.95619 -7.7764 3.35
      vertex 4.95619 -7.7764 -3.35
    endloop
  endfacet
  facet normal 0.773053 -0.634341 0
    outer loop
      vertex 4.81319 -7.95067 3.35
      vertex 4.95619 -7.7764 -3.35
      vertex 4.95619 -7.7764 3.35
    endloop
  endfacet
  facet normal 0.773053 -0.634341 0
    outer loop
      vertex 4.95619 -7.7764 -3.35
      vertex 4.81319 -7.95067 3.35
      vertex 4.81319 -7.95067 -3.35
    endloop
  endfacet
  facet normal 0.634394 -0.77301 0
    outer loop
      vertex 4.63892 -8.09369 -3.35
      vertex 4.81319 -7.95067 3.35
      vertex 4.63892 -8.09369 3.35
    endloop
  endfacet
  facet normal 0.634394 -0.77301 0
    outer loop
      vertex 4.81319 -7.95067 3.35
      vertex 4.63892 -8.09369 -3.35
      vertex 4.81319 -7.95067 -3.35
    endloop
  endfacet
  facet normal 0.471339 -0.881952 0
    outer loop
      vertex 4.44009 -8.19995 -3.35
      vertex 4.63892 -8.09369 3.35
      vertex 4.44009 -8.19995 3.35
    endloop
  endfacet
  facet normal 0.471339 -0.881952 0
    outer loop
      vertex 4.63892 -8.09369 3.35
      vertex 4.44009 -8.19995 -3.35
      vertex 4.63892 -8.09369 -3.35
    endloop
  endfacet
  facet normal 0.290334 -0.956925 0
    outer loop
      vertex 4.22437 -8.2654 -3.35
      vertex 4.44009 -8.19995 3.35
      vertex 4.22437 -8.2654 3.35
    endloop
  endfacet
  facet normal 0.290334 -0.956925 0
    outer loop
      vertex 4.44009 -8.19995 3.35
      vertex 4.22437 -8.2654 -3.35
      vertex 4.44009 -8.19995 -3.35
    endloop
  endfacet
  facet normal 0.0979797 -0.995188 0
    outer loop
      vertex 4 -8.28749 -3.35
      vertex 4.22437 -8.2654 3.35
      vertex 4 -8.28749 3.35
    endloop
  endfacet
  facet normal 0.0979797 -0.995188 0
    outer loop
      vertex 4.22437 -8.2654 3.35
      vertex 4 -8.28749 -3.35
      vertex 4.22437 -8.2654 -3.35
    endloop
  endfacet
  facet normal -0.0979884 -0.995188 0
    outer loop
      vertex 3.77565 -8.2654 -3.35
      vertex 4 -8.28749 3.35
      vertex 3.77565 -8.2654 3.35
    endloop
  endfacet
  facet normal -0.0979884 -0.995188 -0
    outer loop
      vertex 4 -8.28749 3.35
      vertex 3.77565 -8.2654 -3.35
      vertex 4 -8.28749 -3.35
    endloop
  endfacet
  facet normal -0.290321 -0.956929 0
    outer loop
      vertex 3.55992 -8.19995 -3.35
      vertex 3.77565 -8.2654 3.35
      vertex 3.55992 -8.19995 3.35
    endloop
  endfacet
  facet normal -0.290321 -0.956929 -0
    outer loop
      vertex 3.77565 -8.2654 3.35
      vertex 3.55992 -8.19995 -3.35
      vertex 3.77565 -8.2654 -3.35
    endloop
  endfacet
  facet normal -0.471357 -0.881942 0
    outer loop
      vertex 3.3611 -8.09369 -3.35
      vertex 3.55992 -8.19995 3.35
      vertex 3.3611 -8.09369 3.35
    endloop
  endfacet
  facet normal -0.471357 -0.881942 -0
    outer loop
      vertex 3.55992 -8.19995 3.35
      vertex 3.3611 -8.09369 -3.35
      vertex 3.55992 -8.19995 -3.35
    endloop
  endfacet
  facet normal -0.634394 -0.77301 0
    outer loop
      vertex 3.18683 -7.95067 -3.35
      vertex 3.3611 -8.09369 3.35
      vertex 3.18683 -7.95067 3.35
    endloop
  endfacet
  facet normal -0.634394 -0.77301 -0
    outer loop
      vertex 3.3611 -8.09369 3.35
      vertex 3.18683 -7.95067 -3.35
      vertex 3.3611 -8.09369 -3.35
    endloop
  endfacet
  facet normal -0.773032 -0.634368 0
    outer loop
      vertex 3.18683 -7.95067 -3.35
      vertex 3.04382 -7.7764 3.35
      vertex 3.04382 -7.7764 -3.35
    endloop
  endfacet
  facet normal -0.773032 -0.634368 0
    outer loop
      vertex 3.04382 -7.7764 3.35
      vertex 3.18683 -7.95067 -3.35
      vertex 3.18683 -7.95067 3.35
    endloop
  endfacet
  facet normal -0.881924 -0.471392 0
    outer loop
      vertex 3.04382 -7.7764 -3.35
      vertex 2.93755 -7.57758 3.35
      vertex 2.93755 -7.57758 -3.35
    endloop
  endfacet
  facet normal -0.881924 -0.471392 0
    outer loop
      vertex 2.93755 -7.57758 3.35
      vertex 3.04382 -7.7764 -3.35
      vertex 3.04382 -7.7764 3.35
    endloop
  endfacet
  facet normal -0.956929 -0.290321 0
    outer loop
      vertex 2.93755 -7.57758 -3.35
      vertex 2.8721 -7.36185 3.35
      vertex 2.8721 -7.36185 -3.35
    endloop
  endfacet
  facet normal -0.956929 -0.290321 0
    outer loop
      vertex 2.8721 -7.36185 3.35
      vertex 2.93755 -7.57758 -3.35
      vertex 2.93755 -7.57758 3.35
    endloop
  endfacet
  facet normal -0.995188 -0.0979884 0
    outer loop
      vertex 2.8721 -7.36185 -3.35
      vertex 2.85001 -7.1375 3.35
      vertex 2.85001 -7.1375 -3.35
    endloop
  endfacet
  facet normal -0.995188 -0.0979884 0
    outer loop
      vertex 2.85001 -7.1375 3.35
      vertex 2.8721 -7.36185 -3.35
      vertex 2.8721 -7.36185 3.35
    endloop
  endfacet
  facet normal -1 0 0
    outer loop
      vertex 2.85001 -7.1375 -3.35
      vertex 2.85001 7.1375 3.35
      vertex 2.85001 7.1375 -3.35
    endloop
  endfacet
  facet normal -1 -0 0
    outer loop
      vertex 2.85001 7.1375 3.35
      vertex 2.85001 -7.1375 -3.35
      vertex 2.85001 -7.1375 3.35
    endloop
  endfacet
  facet normal -0.995188 0.0979884 0
    outer loop
      vertex 2.85001 7.1375 -3.35
      vertex 2.8721 7.36185 3.35
      vertex 2.8721 7.36185 -3.35
    endloop
  endfacet
  facet normal -0.995188 0.0979884 0
    outer loop
      vertex 2.8721 7.36185 3.35
      vertex 2.85001 7.1375 -3.35
      vertex 2.85001 7.1375 3.35
    endloop
  endfacet
endsolid OpenSCAD_Model
