solid OpenSCAD_Model
  facet normal 0 0 1
    outer loop
      vertex 7.1279 0.22435 3.35
      vertex 7.1279 -0.224365 3.35
      vertex 7.14999 0 3.35
    endloop
  endfacet
  facet normal 0 0 1
    outer loop
      vertex 7.06245 0.440079 3.35
      vertex 7.1279 -0.224365 3.35
      vertex 7.1279 0.22435 3.35
    endloop
  endfacet
  facet normal 0 0 1
    outer loop
      vertex 7.06245 0.440079 3.35
      vertex 7.06245 -0.440094 3.35
      vertex 7.1279 -0.224365 3.35
    endloop
  endfacet
  facet normal 0 0 1
    outer loop
      vertex 6.95618 0.638901 3.35
      vertex 7.06245 -0.440094 3.35
      vertex 7.06245 0.440079 3.35
    endloop
  endfacet
  facet normal 0 0 1
    outer loop
      vertex 6.95618 0.638901 3.35
      vertex 6.95618 -0.638916 3.35
      vertex 7.06245 -0.440094 3.35
    endloop
  endfacet
  facet normal 0 0 1
    outer loop
      vertex 6.81317 0.813171 3.35
      vertex 6.95618 -0.638916 3.35
      vertex 6.95618 0.638901 3.35
    endloop
  endfacet
  facet normal 0 0 1
    outer loop
      vertex 6.81317 0.813171 3.35
      vertex 6.81317 -0.813187 3.35
      vertex 6.95618 -0.638916 3.35
    endloop
  endfacet
  facet normal 0 0 1
    outer loop
      vertex 6.6389 0.956177 3.35
      vertex 6.81317 -0.813187 3.35
      vertex 6.81317 0.813171 3.35
    endloop
  endfacet
  facet normal 0 0 1
    outer loop
      vertex 6.6389 0.956177 3.35
      vertex 6.6389 -0.956192 3.35
      vertex 6.81317 -0.813187 3.35
    endloop
  endfacet
  facet normal 0 0 1
    outer loop
      vertex 6.44008 1.06245 3.35
      vertex 6.6389 -0.956192 3.35
      vertex 6.6389 0.956177 3.35
    endloop
  endfacet
  facet normal 0 0 1
    outer loop
      vertex 6.44008 1.06245 3.35
      vertex 6.44008 -1.06247 3.35
      vertex 6.6389 -0.956192 3.35
    endloop
  endfacet
  facet normal 0 0 1
    outer loop
      vertex 6.22435 1.1279 3.35
      vertex 6.44008 -1.06247 3.35
      vertex 6.44008 1.06245 3.35
    endloop
  endfacet
  facet normal 0 0 1
    outer loop
      vertex 6.22435 1.1279 3.35
      vertex 6.22435 -1.12791 3.35
      vertex 6.44008 -1.06247 3.35
    endloop
  endfacet
  facet normal 0 0 1
    outer loop
      vertex 6 1.14999 3.35
      vertex 6.22435 -1.12791 3.35
      vertex 6.22435 1.1279 3.35
    endloop
  endfacet
  facet normal 0 0 1
    outer loop
      vertex 6 1.14999 3.35
      vertex 6 -1.15001 3.35
      vertex 6.22435 -1.12791 3.35
    endloop
  endfacet
  facet normal 0 0 1
    outer loop
      vertex 6 1.14999 3.35
      vertex 1.09999 -1.15001 3.35
      vertex 6 -1.15001 3.35
    endloop
  endfacet
  facet normal 0 0 1
    outer loop
      vertex -1.09999 -17.1 3.35
      vertex 1.09999 -17.1 3.35
      vertex 1.09999 -1.15001 3.35
    endloop
  endfacet
  facet normal 0 0 1
    outer loop
      vertex 1.09999 -17.1 3.35
      vertex -1.09999 -17.1 3.35
      vertex 0.508133 -18.4105 3.35
    endloop
  endfacet
  facet normal 0 -0 1
    outer loop
      vertex -0.508133 -18.4105 3.35
      vertex 0.508133 -18.4105 3.35
      vertex -1.09999 -17.1 3.35
    endloop
  endfacet
  facet normal 0 0 1
    outer loop
      vertex 0.508133 -18.4105 3.35
      vertex -0.508133 -18.4105 3.35
      vertex 0.457306 -18.5056 3.35
    endloop
  endfacet
  facet normal 0 0 1
    outer loop
      vertex 0.457306 -18.5056 3.35
      vertex -0.508133 -18.4105 3.35
      vertex 0.388901 -18.5889 3.35
    endloop
  endfacet
  facet normal 0 0 1
    outer loop
      vertex 0.388901 -18.5889 3.35
      vertex -0.508133 -18.4105 3.35
      vertex 0.305557 -18.6573 3.35
    endloop
  endfacet
  facet normal 0 0 1
    outer loop
      vertex 0.305557 -18.6573 3.35
      vertex -0.508133 -18.4105 3.35
      vertex 0.210464 -18.7081 3.35
    endloop
  endfacet
  facet normal 0 0 1
    outer loop
      vertex 0.210464 -18.7081 3.35
      vertex -0.508133 -18.4105 3.35
      vertex 0.107285 -18.7394 3.35
    endloop
  endfacet
  facet normal 0 0 1
    outer loop
      vertex 0.107285 -18.7394 3.35
      vertex -0.508133 -18.4105 3.35
      vertex 0 -18.75 3.35
    endloop
  endfacet
  facet normal 0 0 1
    outer loop
      vertex 0 -18.75 3.35
      vertex -0.508133 -18.4105 3.35
      vertex -0.107285 -18.7394 3.35
    endloop
  endfacet
  facet normal 0 0 1
    outer loop
      vertex -0.107285 -18.7394 3.35
      vertex -0.508133 -18.4105 3.35
      vertex -0.210464 -18.7081 3.35
    endloop
  endfacet
  facet normal 0 0 1
    outer loop
      vertex -0.210464 -18.7081 3.35
      vertex -0.508133 -18.4105 3.35
      vertex -0.305557 -18.6573 3.35
    endloop
  endfacet
  facet normal 0 0 1
    outer loop
      vertex -0.305557 -18.6573 3.35
      vertex -0.508133 -18.4105 3.35
      vertex -0.388901 -18.5889 3.35
    endloop
  endfacet
  facet normal 0 0 1
    outer loop
      vertex -1.09999 -17.1 3.35
      vertex 1.09999 -1.15001 3.35
      vertex -1.09999 -1.15001 3.35
    endloop
  endfacet
  facet normal 0 0 1
    outer loop
      vertex 6 1.14999 3.35
      vertex -1.09999 -1.15001 3.35
      vertex 1.09999 -1.15001 3.35
    endloop
  endfacet
  facet normal -0 0 1
    outer loop
      vertex -6 1.14999 3.35
      vertex -1.09999 -1.15001 3.35
      vertex 6 1.14999 3.35
    endloop
  endfacet
  facet normal 0 0 1
    outer loop
      vertex -6 1.14999 3.35
      vertex -6 -1.15001 3.35
      vertex -1.09999 -1.15001 3.35
    endloop
  endfacet
  facet normal -0 0 1
    outer loop
      vertex -6.22435 1.1279 3.35
      vertex -6 -1.15001 3.35
      vertex -6 1.14999 3.35
    endloop
  endfacet
  facet normal 0 0 1
    outer loop
      vertex -6.22435 1.1279 3.35
      vertex -6.22435 -1.12791 3.35
      vertex -6 -1.15001 3.35
    endloop
  endfacet
  facet normal -0 0 1
    outer loop
      vertex -6.44008 1.06245 3.35
      vertex -6.22435 -1.12791 3.35
      vertex -6.22435 1.1279 3.35
    endloop
  endfacet
  facet normal 0 0 1
    outer loop
      vertex -6.44008 1.06245 3.35
      vertex -6.44008 -1.06247 3.35
      vertex -6.22435 -1.12791 3.35
    endloop
  endfacet
  facet normal -0 0 1
    outer loop
      vertex -6.6389 0.956177 3.35
      vertex -6.44008 -1.06247 3.35
      vertex -6.44008 1.06245 3.35
    endloop
  endfacet
  facet normal 0 0 1
    outer loop
      vertex -6.6389 0.956177 3.35
      vertex -6.6389 -0.956192 3.35
      vertex -6.44008 -1.06247 3.35
    endloop
  endfacet
  facet normal -0 0 1
    outer loop
      vertex -6.81317 0.813171 3.35
      vertex -6.6389 -0.956192 3.35
      vertex -6.6389 0.956177 3.35
    endloop
  endfacet
  facet normal 0 0 1
    outer loop
      vertex -6.81317 0.813171 3.35
      vertex -6.81317 -0.813187 3.35
      vertex -6.6389 -0.956192 3.35
    endloop
  endfacet
  facet normal -0 0 1
    outer loop
      vertex -6.95618 0.638901 3.35
      vertex -6.81317 -0.813187 3.35
      vertex -6.81317 0.813171 3.35
    endloop
  endfacet
  facet normal 0 0 1
    outer loop
      vertex -6.95618 0.638901 3.35
      vertex -6.95618 -0.638916 3.35
      vertex -6.81317 -0.813187 3.35
    endloop
  endfacet
  facet normal -0 0 1
    outer loop
      vertex -7.06245 0.440079 3.35
      vertex -6.95618 -0.638916 3.35
      vertex -6.95618 0.638901 3.35
    endloop
  endfacet
  facet normal 0 0 1
    outer loop
      vertex -7.06245 0.440079 3.35
      vertex -7.06245 -0.440094 3.35
      vertex -6.95618 -0.638916 3.35
    endloop
  endfacet
  facet normal -0 0 1
    outer loop
      vertex -7.1279 0.22435 3.35
      vertex -7.06245 -0.440094 3.35
      vertex -7.06245 0.440079 3.35
    endloop
  endfacet
  facet normal 0 0 1
    outer loop
      vertex -7.1279 0.22435 3.35
      vertex -7.1279 -0.224365 3.35
      vertex -7.06245 -0.440094 3.35
    endloop
  endfacet
  facet normal 0 -0 1
    outer loop
      vertex -7.1279 -0.224365 3.35
      vertex -7.1279 0.22435 3.35
      vertex -7.14999 0 3.35
    endloop
  endfacet
  facet normal 0 0 1
    outer loop
      vertex -0.388901 -18.5889 3.35
      vertex -0.508133 -18.4105 3.35
      vertex -0.457306 -18.5056 3.35
    endloop
  endfacet
  facet normal 0 0 -1
    outer loop
      vertex -1.09999 -17.1 -3.35
      vertex 1.09999 -17.1 -3.35
      vertex 0.508133 -18.4105 -3.35
    endloop
  endfacet
  facet normal 0 0 -1
    outer loop
      vertex 7.1279 -0.224365 -3.35
      vertex 7.1279 0.22435 -3.35
      vertex 7.14999 0 -3.35
    endloop
  endfacet
  facet normal 0 0 -1
    outer loop
      vertex 7.06245 -0.440094 -3.35
      vertex 7.1279 0.22435 -3.35
      vertex 7.1279 -0.224365 -3.35
    endloop
  endfacet
  facet normal 0 0 -1
    outer loop
      vertex 7.06245 -0.440094 -3.35
      vertex 7.06245 0.440079 -3.35
      vertex 7.1279 0.22435 -3.35
    endloop
  endfacet
  facet normal 0 0 -1
    outer loop
      vertex 6.95618 -0.638916 -3.35
      vertex 7.06245 0.440079 -3.35
      vertex 7.06245 -0.440094 -3.35
    endloop
  endfacet
  facet normal 0 0 -1
    outer loop
      vertex 6.95618 -0.638916 -3.35
      vertex 6.95618 0.638901 -3.35
      vertex 7.06245 0.440079 -3.35
    endloop
  endfacet
  facet normal 0 0 -1
    outer loop
      vertex 6.81317 -0.813187 -3.35
      vertex 6.95618 0.638901 -3.35
      vertex 6.95618 -0.638916 -3.35
    endloop
  endfacet
  facet normal 0 0 -1
    outer loop
      vertex 6.81317 -0.813187 -3.35
      vertex 6.81317 0.813171 -3.35
      vertex 6.95618 0.638901 -3.35
    endloop
  endfacet
  facet normal 0 0 -1
    outer loop
      vertex 6.6389 -0.956192 -3.35
      vertex 6.81317 0.813171 -3.35
      vertex 6.81317 -0.813187 -3.35
    endloop
  endfacet
  facet normal 0 0 -1
    outer loop
      vertex 6.6389 -0.956192 -3.35
      vertex 6.6389 0.956177 -3.35
      vertex 6.81317 0.813171 -3.35
    endloop
  endfacet
  facet normal 0 0 -1
    outer loop
      vertex 6.44008 -1.06247 -3.35
      vertex 6.6389 0.956177 -3.35
      vertex 6.6389 -0.956192 -3.35
    endloop
  endfacet
  facet normal 0 0 -1
    outer loop
      vertex 6.44008 -1.06247 -3.35
      vertex 6.44008 1.06245 -3.35
      vertex 6.6389 0.956177 -3.35
    endloop
  endfacet
  facet normal 0 0 -1
    outer loop
      vertex 6.22435 -1.12791 -3.35
      vertex 6.44008 1.06245 -3.35
      vertex 6.44008 -1.06247 -3.35
    endloop
  endfacet
  facet normal 0 0 -1
    outer loop
      vertex 6.22435 -1.12791 -3.35
      vertex 6.22435 1.1279 -3.35
      vertex 6.44008 1.06245 -3.35
    endloop
  endfacet
  facet normal 0 0 -1
    outer loop
      vertex 6 -1.15001 -3.35
      vertex 6.22435 1.1279 -3.35
      vertex 6.22435 -1.12791 -3.35
    endloop
  endfacet
  facet normal 0 0 -1
    outer loop
      vertex 6 -1.15001 -3.35
      vertex 6 1.14999 -3.35
      vertex 6.22435 1.1279 -3.35
    endloop
  endfacet
  facet normal 0 0 -1
    outer loop
      vertex 1.09999 -1.15001 -3.35
      vertex 6 1.14999 -3.35
      vertex 6 -1.15001 -3.35
    endloop
  endfacet
  facet normal 0 0 -1
    outer loop
      vertex -0.508133 -18.4105 -3.35
      vertex 0.508133 -18.4105 -3.35
      vertex 0.457306 -18.5056 -3.35
    endloop
  endfacet
  facet normal 0 0 -1
    outer loop
      vertex -0.508133 -18.4105 -3.35
      vertex 0.457306 -18.5056 -3.35
      vertex 0.388901 -18.5889 -3.35
    endloop
  endfacet
  facet normal 0 0 -1
    outer loop
      vertex -0.508133 -18.4105 -3.35
      vertex 0.388901 -18.5889 -3.35
      vertex 0.305557 -18.6573 -3.35
    endloop
  endfacet
  facet normal 0 0 -1
    outer loop
      vertex -0.508133 -18.4105 -3.35
      vertex 0.305557 -18.6573 -3.35
      vertex 0.210464 -18.7081 -3.35
    endloop
  endfacet
  facet normal 0 0 -1
    outer loop
      vertex -0.508133 -18.4105 -3.35
      vertex 0.210464 -18.7081 -3.35
      vertex 0.107285 -18.7394 -3.35
    endloop
  endfacet
  facet normal 0 0 -1
    outer loop
      vertex -0.508133 -18.4105 -3.35
      vertex 0.107285 -18.7394 -3.35
      vertex 0 -18.75 -3.35
    endloop
  endfacet
  facet normal 0 0 -1
    outer loop
      vertex -0.508133 -18.4105 -3.35
      vertex 0 -18.75 -3.35
      vertex -0.107285 -18.7394 -3.35
    endloop
  endfacet
  facet normal 0 0 -1
    outer loop
      vertex -0.508133 -18.4105 -3.35
      vertex -0.107285 -18.7394 -3.35
      vertex -0.210464 -18.7081 -3.35
    endloop
  endfacet
  facet normal 0 0 -1
    outer loop
      vertex -0.508133 -18.4105 -3.35
      vertex -0.210464 -18.7081 -3.35
      vertex -0.305557 -18.6573 -3.35
    endloop
  endfacet
  facet normal 0 0 -1
    outer loop
      vertex -0.508133 -18.4105 -3.35
      vertex -0.305557 -18.6573 -3.35
      vertex -0.388901 -18.5889 -3.35
    endloop
  endfacet
  facet normal 0 0 -1
    outer loop
      vertex -0.508133 -18.4105 -3.35
      vertex -0.388901 -18.5889 -3.35
      vertex -0.457306 -18.5056 -3.35
    endloop
  endfacet
  facet normal 0 0 -1
    outer loop
      vertex 0.508133 -18.4105 -3.35
      vertex -0.508133 -18.4105 -3.35
      vertex -1.09999 -17.1 -3.35
    endloop
  endfacet
  facet normal 0 0 -1
    outer loop
      vertex 1.09999 -17.1 -3.35
      vertex -1.09999 -17.1 -3.35
      vertex 1.09999 -1.15001 -3.35
    endloop
  endfacet
  facet normal 0 0 -1
    outer loop
      vertex -1.09999 -1.15001 -3.35
      vertex 1.09999 -1.15001 -3.35
      vertex -1.09999 -17.1 -3.35
    endloop
  endfacet
  facet normal 0 0 -1
    outer loop
      vertex -1.09999 -1.15001 -3.35
      vertex 6 1.14999 -3.35
      vertex 1.09999 -1.15001 -3.35
    endloop
  endfacet
  facet normal 0 0 -1
    outer loop
      vertex -6 1.14999 -3.35
      vertex -1.09999 -1.15001 -3.35
      vertex -6 -1.15001 -3.35
    endloop
  endfacet
  facet normal 0 0 -1
    outer loop
      vertex -1.09999 -1.15001 -3.35
      vertex -6 1.14999 -3.35
      vertex 6 1.14999 -3.35
    endloop
  endfacet
  facet normal 0 0 -1
    outer loop
      vertex -6.22435 -1.12791 -3.35
      vertex -6 1.14999 -3.35
      vertex -6 -1.15001 -3.35
    endloop
  endfacet
  facet normal 0 0 -1
    outer loop
      vertex -6.22435 -1.12791 -3.35
      vertex -6.22435 1.1279 -3.35
      vertex -6 1.14999 -3.35
    endloop
  endfacet
  facet normal 0 0 -1
    outer loop
      vertex -6.44008 -1.06247 -3.35
      vertex -6.22435 1.1279 -3.35
      vertex -6.22435 -1.12791 -3.35
    endloop
  endfacet
  facet normal 0 0 -1
    outer loop
      vertex -6.44008 -1.06247 -3.35
      vertex -6.44008 1.06245 -3.35
      vertex -6.22435 1.1279 -3.35
    endloop
  endfacet
  facet normal 0 0 -1
    outer loop
      vertex -6.6389 -0.956192 -3.35
      vertex -6.44008 1.06245 -3.35
      vertex -6.44008 -1.06247 -3.35
    endloop
  endfacet
  facet normal 0 0 -1
    outer loop
      vertex -6.6389 -0.956192 -3.35
      vertex -6.6389 0.956177 -3.35
      vertex -6.44008 1.06245 -3.35
    endloop
  endfacet
  facet normal 0 0 -1
    outer loop
      vertex -6.81317 -0.813187 -3.35
      vertex -6.6389 0.956177 -3.35
      vertex -6.6389 -0.956192 -3.35
    endloop
  endfacet
  facet normal 0 0 -1
    outer loop
      vertex -6.81317 -0.813187 -3.35
      vertex -6.81317 0.813171 -3.35
      vertex -6.6389 0.956177 -3.35
    endloop
  endfacet
  facet normal 0 0 -1
    outer loop
      vertex -6.95618 -0.638916 -3.35
      vertex -6.81317 0.813171 -3.35
      vertex -6.81317 -0.813187 -3.35
    endloop
  endfacet
  facet normal 0 0 -1
    outer loop
      vertex -6.95618 -0.638916 -3.35
      vertex -6.95618 0.638901 -3.35
      vertex -6.81317 0.813171 -3.35
    endloop
  endfacet
  facet normal 0 0 -1
    outer loop
      vertex -7.06245 -0.440094 -3.35
      vertex -6.95618 0.638901 -3.35
      vertex -6.95618 -0.638916 -3.35
    endloop
  endfacet
  facet normal 0 0 -1
    outer loop
      vertex -7.06245 -0.440094 -3.35
      vertex -7.06245 0.440079 -3.35
      vertex -6.95618 0.638901 -3.35
    endloop
  endfacet
  facet normal 0 0 -1
    outer loop
      vertex -7.1279 -0.224365 -3.35
      vertex -7.06245 0.440079 -3.35
      vertex -7.06245 -0.440094 -3.35
    endloop
  endfacet
  facet normal 0 0 -1
    outer loop
      vertex -7.1279 -0.224365 -3.35
      vertex -7.1279 0.22435 -3.35
      vertex -7.06245 0.440079 -3.35
    endloop
  endfacet
  facet normal 0 -0 -1
    outer loop
      vertex -7.1279 0.22435 -3.35
      vertex -7.1279 -0.224365 -3.35
      vertex -7.14999 0 -3.35
    endloop
  endfacet
  facet normal 0.881941 -0.471361 0
    outer loop
      vertex 0.457306 -18.5056 3.35
      vertex 0.508133 -18.4105 -3.35
      vertex 0.508133 -18.4105 3.35
    endloop
  endfacet
  facet normal 0.881941 -0.471361 0
    outer loop
      vertex 0.508133 -18.4105 -3.35
      vertex 0.457306 -18.5056 3.35
      vertex 0.457306 -18.5056 -3.35
    endloop
  endfacet
  facet normal 0.772817 -0.634629 0
    outer loop
      vertex 0.388901 -18.5889 3.35
      vertex 0.457306 -18.5056 -3.35
      vertex 0.457306 -18.5056 3.35
    endloop
  endfacet
  facet normal 0.772817 -0.634629 0
    outer loop
      vertex 0.457306 -18.5056 -3.35
      vertex 0.388901 -18.5889 3.35
      vertex 0.388901 -18.5889 -3.35
    endloop
  endfacet
  facet normal 0.634401 -0.773004 0
    outer loop
      vertex 0.305557 -18.6573 -3.35
      vertex 0.388901 -18.5889 3.35
      vertex 0.305557 -18.6573 3.35
    endloop
  endfacet
  facet normal 0.634401 -0.773004 0
    outer loop
      vertex 0.388901 -18.5889 3.35
      vertex 0.305557 -18.6573 -3.35
      vertex 0.388901 -18.5889 -3.35
    endloop
  endfacet
  facet normal 0.471193 -0.88203 0
    outer loop
      vertex 0.210464 -18.7081 -3.35
      vertex 0.305557 -18.6573 3.35
      vertex 0.210464 -18.7081 3.35
    endloop
  endfacet
  facet normal 0.471193 -0.88203 0
    outer loop
      vertex 0.305557 -18.6573 3.35
      vertex 0.210464 -18.7081 -3.35
      vertex 0.305557 -18.6573 -3.35
    endloop
  endfacet
  facet normal 0.290293 -0.956938 0
    outer loop
      vertex 0.107285 -18.7394 -3.35
      vertex 0.210464 -18.7081 3.35
      vertex 0.107285 -18.7394 3.35
    endloop
  endfacet
  facet normal 0.290293 -0.956938 0
    outer loop
      vertex 0.210464 -18.7081 3.35
      vertex 0.107285 -18.7394 -3.35
      vertex 0.210464 -18.7081 -3.35
    endloop
  endfacet
  facet normal 0.0983235 -0.995155 0
    outer loop
      vertex 0 -18.75 -3.35
      vertex 0.107285 -18.7394 3.35
      vertex 0 -18.75 3.35
    endloop
  endfacet
  facet normal 0.0983235 -0.995155 0
    outer loop
      vertex 0.107285 -18.7394 3.35
      vertex 0 -18.75 -3.35
      vertex 0.107285 -18.7394 -3.35
    endloop
  endfacet
  facet normal -0.0983235 -0.995155 0
    outer loop
      vertex -0.107285 -18.7394 -3.35
      vertex 0 -18.75 3.35
      vertex -0.107285 -18.7394 3.35
    endloop
  endfacet
  facet normal -0.0983235 -0.995155 -0
    outer loop
      vertex 0 -18.75 3.35
      vertex -0.107285 -18.7394 -3.35
      vertex 0 -18.75 -3.35
    endloop
  endfacet
  facet normal -0.290293 -0.956938 0
    outer loop
      vertex -0.210464 -18.7081 -3.35
      vertex -0.107285 -18.7394 3.35
      vertex -0.210464 -18.7081 3.35
    endloop
  endfacet
  facet normal -0.290293 -0.956938 -0
    outer loop
      vertex -0.107285 -18.7394 3.35
      vertex -0.210464 -18.7081 -3.35
      vertex -0.107285 -18.7394 -3.35
    endloop
  endfacet
  facet normal -0.471193 -0.88203 0
    outer loop
      vertex -0.305557 -18.6573 -3.35
      vertex -0.210464 -18.7081 3.35
      vertex -0.305557 -18.6573 3.35
    endloop
  endfacet
  facet normal -0.471193 -0.88203 -0
    outer loop
      vertex -0.210464 -18.7081 3.35
      vertex -0.305557 -18.6573 -3.35
      vertex -0.210464 -18.7081 -3.35
    endloop
  endfacet
  facet normal -0.634401 -0.773004 0
    outer loop
      vertex -0.388901 -18.5889 -3.35
      vertex -0.305557 -18.6573 3.35
      vertex -0.388901 -18.5889 3.35
    endloop
  endfacet
  facet normal -0.634401 -0.773004 -0
    outer loop
      vertex -0.305557 -18.6573 3.35
      vertex -0.388901 -18.5889 -3.35
      vertex -0.305557 -18.6573 -3.35
    endloop
  endfacet
  facet normal -0.772817 -0.634629 0
    outer loop
      vertex -0.388901 -18.5889 -3.35
      vertex -0.457306 -18.5056 3.35
      vertex -0.457306 -18.5056 -3.35
    endloop
  endfacet
  facet normal -0.772817 -0.634629 0
    outer loop
      vertex -0.457306 -18.5056 3.35
      vertex -0.388901 -18.5889 -3.35
      vertex -0.388901 -18.5889 3.35
    endloop
  endfacet
  facet normal -0.881941 -0.471361 0
    outer loop
      vertex -0.457306 -18.5056 -3.35
      vertex -0.508133 -18.4105 3.35
      vertex -0.508133 -18.4105 -3.35
    endloop
  endfacet
  facet normal -0.881941 -0.471361 0
    outer loop
      vertex -0.508133 -18.4105 3.35
      vertex -0.457306 -18.5056 -3.35
      vertex -0.457306 -18.5056 3.35
    endloop
  endfacet
  facet normal -0.911366 -0.411597 0
    outer loop
      vertex -0.508133 -18.4105 -3.35
      vertex -1.09999 -17.1 3.35
      vertex -1.09999 -17.1 -3.35
    endloop
  endfacet
  facet normal -0.911366 -0.411597 0
    outer loop
      vertex -1.09999 -17.1 3.35
      vertex -0.508133 -18.4105 -3.35
      vertex -0.508133 -18.4105 3.35
    endloop
  endfacet
  facet normal -1 0 0
    outer loop
      vertex -1.09999 -17.1 -3.35
      vertex -1.09999 -1.15001 3.35
      vertex -1.09999 -1.15001 -3.35
    endloop
  endfacet
  facet normal -1 -0 0
    outer loop
      vertex -1.09999 -1.15001 3.35
      vertex -1.09999 -17.1 -3.35
      vertex -1.09999 -17.1 3.35
    endloop
  endfacet
  facet normal 0 -1 0
    outer loop
      vertex -6 -1.15001 -3.35
      vertex -1.09999 -1.15001 3.35
      vertex -6 -1.15001 3.35
    endloop
  endfacet
  facet normal 0 -1 -0
    outer loop
      vertex -1.09999 -1.15001 3.35
      vertex -6 -1.15001 -3.35
      vertex -1.09999 -1.15001 -3.35
    endloop
  endfacet
  facet normal -0.0980323 -0.995183 0
    outer loop
      vertex -6.22435 -1.12791 -3.35
      vertex -6 -1.15001 3.35
      vertex -6.22435 -1.12791 3.35
    endloop
  endfacet
  facet normal -0.0980323 -0.995183 -0
    outer loop
      vertex -6 -1.15001 3.35
      vertex -6.22435 -1.12791 -3.35
      vertex -6 -1.15001 -3.35
    endloop
  endfacet
  facet normal -0.290281 -0.956942 0
    outer loop
      vertex -6.44008 -1.06247 -3.35
      vertex -6.22435 -1.12791 3.35
      vertex -6.44008 -1.06247 3.35
    endloop
  endfacet
  facet normal -0.290281 -0.956942 -0
    outer loop
      vertex -6.22435 -1.12791 3.35
      vertex -6.44008 -1.06247 -3.35
      vertex -6.22435 -1.12791 -3.35
    endloop
  endfacet
  facet normal -0.471419 -0.881909 0
    outer loop
      vertex -6.6389 -0.956192 -3.35
      vertex -6.44008 -1.06247 3.35
      vertex -6.6389 -0.956192 3.35
    endloop
  endfacet
  facet normal -0.471419 -0.881909 -0
    outer loop
      vertex -6.44008 -1.06247 3.35
      vertex -6.6389 -0.956192 -3.35
      vertex -6.44008 -1.06247 -3.35
    endloop
  endfacet
  facet normal -0.634354 -0.773042 0
    outer loop
      vertex -6.81317 -0.813187 -3.35
      vertex -6.6389 -0.956192 3.35
      vertex -6.81317 -0.813187 3.35
    endloop
  endfacet
  facet normal -0.634354 -0.773042 -0
    outer loop
      vertex -6.6389 -0.956192 3.35
      vertex -6.81317 -0.813187 -3.35
      vertex -6.6389 -0.956192 -3.35
    endloop
  endfacet
  facet normal -0.773033 -0.634365 0
    outer loop
      vertex -6.81317 -0.813187 -3.35
      vertex -6.95618 -0.638916 3.35
      vertex -6.95618 -0.638916 -3.35
    endloop
  endfacet
  facet normal -0.773033 -0.634365 0
    outer loop
      vertex -6.95618 -0.638916 3.35
      vertex -6.81317 -0.813187 -3.35
      vertex -6.81317 -0.813187 3.35
    endloop
  endfacet
  facet normal -0.881926 -0.471388 0
    outer loop
      vertex -6.95618 -0.638916 -3.35
      vertex -7.06245 -0.440094 3.35
      vertex -7.06245 -0.440094 -3.35
    endloop
  endfacet
  facet normal -0.881926 -0.471388 0
    outer loop
      vertex -7.06245 -0.440094 3.35
      vertex -6.95618 -0.638916 -3.35
      vertex -6.95618 -0.638916 3.35
    endloop
  endfacet
  facet normal -0.956929 -0.290323 0
    outer loop
      vertex -7.06245 -0.440094 -3.35
      vertex -7.1279 -0.224365 3.35
      vertex -7.1279 -0.224365 -3.35
    endloop
  endfacet
  facet normal -0.956929 -0.290323 0
    outer loop
      vertex -7.1279 -0.224365 3.35
      vertex -7.06245 -0.440094 -3.35
      vertex -7.06245 -0.440094 3.35
    endloop
  endfacet
  facet normal -0.995188 -0.0979819 0
    outer loop
      vertex -7.1279 -0.224365 -3.35
      vertex -7.14999 0 3.35
      vertex -7.14999 0 -3.35
    endloop
  endfacet
  facet normal -0.995188 -0.0979819 0
    outer loop
      vertex -7.14999 0 3.35
      vertex -7.1279 -0.224365 -3.35
      vertex -7.1279 -0.224365 3.35
    endloop
  endfacet
  facet normal -0.995188 0.0979884 0
    outer loop
      vertex -7.14999 0 -3.35
      vertex -7.1279 0.22435 3.35
      vertex -7.1279 0.22435 -3.35
    endloop
  endfacet
  facet normal -0.995188 0.0979884 0
    outer loop
      vertex -7.1279 0.22435 3.35
      vertex -7.14999 0 -3.35
      vertex -7.14999 0 3.35
    endloop
  endfacet
  facet normal -0.956929 0.290323 0
    outer loop
      vertex -7.1279 0.22435 -3.35
      vertex -7.06245 0.440079 3.35
      vertex -7.06245 0.440079 -3.35
    endloop
  endfacet
  facet normal -0.956929 0.290323 0
    outer loop
      vertex -7.06245 0.440079 3.35
      vertex -7.1279 0.22435 -3.35
      vertex -7.1279 0.22435 3.35
    endloop
  endfacet
  facet normal -0.881926 0.471388 0
    outer loop
      vertex -7.06245 0.440079 -3.35
      vertex -6.95618 0.638901 3.35
      vertex -6.95618 0.638901 -3.35
    endloop
  endfacet
  facet normal -0.881926 0.471388 0
    outer loop
      vertex -6.95618 0.638901 3.35
      vertex -7.06245 0.440079 -3.35
      vertex -7.06245 0.440079 3.35
    endloop
  endfacet
  facet normal -0.773032 0.634368 0
    outer loop
      vertex -6.95618 0.638901 -3.35
      vertex -6.81317 0.813171 3.35
      vertex -6.81317 0.813171 -3.35
    endloop
  endfacet
  facet normal -0.773032 0.634368 0
    outer loop
      vertex -6.81317 0.813171 3.35
      vertex -6.95618 0.638901 -3.35
      vertex -6.95618 0.638901 3.35
    endloop
  endfacet
  facet normal -0.634357 0.77304 0
    outer loop
      vertex -6.6389 0.956177 -3.35
      vertex -6.81317 0.813171 3.35
      vertex -6.6389 0.956177 3.35
    endloop
  endfacet
  facet normal -0.634357 0.77304 0
    outer loop
      vertex -6.81317 0.813171 3.35
      vertex -6.6389 0.956177 -3.35
      vertex -6.81317 0.813171 -3.35
    endloop
  endfacet
  facet normal -0.471402 0.881919 0
    outer loop
      vertex -6.44008 1.06245 -3.35
      vertex -6.6389 0.956177 3.35
      vertex -6.44008 1.06245 3.35
    endloop
  endfacet
  facet normal -0.471402 0.881919 0
    outer loop
      vertex -6.6389 0.956177 3.35
      vertex -6.44008 1.06245 -3.35
      vertex -6.6389 0.956177 -3.35
    endloop
  endfacet
  facet normal -0.290321 0.956929 0
    outer loop
      vertex -6.22435 1.1279 -3.35
      vertex -6.44008 1.06245 3.35
      vertex -6.22435 1.1279 3.35
    endloop
  endfacet
  facet normal -0.290321 0.956929 0
    outer loop
      vertex -6.44008 1.06245 3.35
      vertex -6.22435 1.1279 -3.35
      vertex -6.44008 1.06245 -3.35
    endloop
  endfacet
  facet normal -0.0979884 0.995188 0
    outer loop
      vertex -6 1.14999 -3.35
      vertex -6.22435 1.1279 3.35
      vertex -6 1.14999 3.35
    endloop
  endfacet
  facet normal -0.0979884 0.995188 0
    outer loop
      vertex -6.22435 1.1279 3.35
      vertex -6 1.14999 -3.35
      vertex -6.22435 1.1279 -3.35
    endloop
  endfacet
  facet normal 0 1 -0
    outer loop
      vertex 6 1.14999 -3.35
      vertex -6 1.14999 3.35
      vertex 6 1.14999 3.35
    endloop
  endfacet
  facet normal 0 1 0
    outer loop
      vertex -6 1.14999 3.35
      vertex 6 1.14999 -3.35
      vertex -6 1.14999 -3.35
    endloop
  endfacet
  facet normal 0.0979884 0.995188 -0
    outer loop
      vertex 6.22435 1.1279 -3.35
      vertex 6 1.14999 3.35
      vertex 6.22435 1.1279 3.35
    endloop
  endfacet
  facet normal 0.0979884 0.995188 0
    outer loop
      vertex 6 1.14999 3.35
      vertex 6.22435 1.1279 -3.35
      vertex 6 1.14999 -3.35
    endloop
  endfacet
  facet normal 0.290321 0.956929 -0
    outer loop
      vertex 6.44008 1.06245 -3.35
      vertex 6.22435 1.1279 3.35
      vertex 6.44008 1.06245 3.35
    endloop
  endfacet
  facet normal 0.290321 0.956929 0
    outer loop
      vertex 6.22435 1.1279 3.35
      vertex 6.44008 1.06245 -3.35
      vertex 6.22435 1.1279 -3.35
    endloop
  endfacet
  facet normal 0.471402 0.881919 -0
    outer loop
      vertex 6.6389 0.956177 -3.35
      vertex 6.44008 1.06245 3.35
      vertex 6.6389 0.956177 3.35
    endloop
  endfacet
  facet normal 0.471402 0.881919 0
    outer loop
      vertex 6.44008 1.06245 3.35
      vertex 6.6389 0.956177 -3.35
      vertex 6.44008 1.06245 -3.35
    endloop
  endfacet
  facet normal 0.634357 0.77304 -0
    outer loop
      vertex 6.81317 0.813171 -3.35
      vertex 6.6389 0.956177 3.35
      vertex 6.81317 0.813171 3.35
    endloop
  endfacet
  facet normal 0.634357 0.77304 0
    outer loop
      vertex 6.6389 0.956177 3.35
      vertex 6.81317 0.813171 -3.35
      vertex 6.6389 0.956177 -3.35
    endloop
  endfacet
  facet normal 0.773032 0.634368 0
    outer loop
      vertex 6.95618 0.638901 3.35
      vertex 6.81317 0.813171 -3.35
      vertex 6.81317 0.813171 3.35
    endloop
  endfacet
  facet normal 0.773032 0.634368 0
    outer loop
      vertex 6.81317 0.813171 -3.35
      vertex 6.95618 0.638901 3.35
      vertex 6.95618 0.638901 -3.35
    endloop
  endfacet
  facet normal 0.881926 0.471388 0
    outer loop
      vertex 7.06245 0.440079 3.35
      vertex 6.95618 0.638901 -3.35
      vertex 6.95618 0.638901 3.35
    endloop
  endfacet
  facet normal 0.881926 0.471388 0
    outer loop
      vertex 6.95618 0.638901 -3.35
      vertex 7.06245 0.440079 3.35
      vertex 7.06245 0.440079 -3.35
    endloop
  endfacet
  facet normal 0.956929 0.290323 0
    outer loop
      vertex 7.1279 0.22435 3.35
      vertex 7.06245 0.440079 -3.35
      vertex 7.06245 0.440079 3.35
    endloop
  endfacet
  facet normal 0.956929 0.290323 0
    outer loop
      vertex 7.06245 0.440079 -3.35
      vertex 7.1279 0.22435 3.35
      vertex 7.1279 0.22435 -3.35
    endloop
  endfacet
  facet normal 0.995188 0.0979884 0
    outer loop
      vertex 7.14999 0 3.35
      vertex 7.1279 0.22435 -3.35
      vertex 7.1279 0.22435 3.35
    endloop
  endfacet
  facet normal 0.995188 0.0979884 0
    outer loop
      vertex 7.1279 0.22435 -3.35
      vertex 7.14999 0 3.35
      vertex 7.14999 0 -3.35
    endloop
  endfacet
  facet normal 0.995188 -0.0979819 0
    outer loop
      vertex 7.1279 -0.224365 3.35
      vertex 7.14999 0 -3.35
      vertex 7.14999 0 3.35
    endloop
  endfacet
  facet normal 0.995188 -0.0979819 0
    outer loop
      vertex 7.14999 0 -3.35
      vertex 7.1279 -0.224365 3.35
      vertex 7.1279 -0.224365 -3.35
    endloop
  endfacet
  facet normal 0.956929 -0.290323 0
    outer loop
      vertex 7.06245 -0.440094 3.35
      vertex 7.1279 -0.224365 -3.35
      vertex 7.1279 -0.224365 3.35
    endloop
  endfacet
  facet normal 0.956929 -0.290323 0
    outer loop
      vertex 7.1279 -0.224365 -3.35
      vertex 7.06245 -0.440094 3.35
      vertex 7.06245 -0.440094 -3.35
    endloop
  endfacet
  facet normal 0.881926 -0.471388 0
    outer loop
      vertex 6.95618 -0.638916 3.35
      vertex 7.06245 -0.440094 -3.35
      vertex 7.06245 -0.440094 3.35
    endloop
  endfacet
  facet normal 0.881926 -0.471388 0
    outer loop
      vertex 7.06245 -0.440094 -3.35
      vertex 6.95618 -0.638916 3.35
      vertex 6.95618 -0.638916 -3.35
    endloop
  endfacet
  facet normal 0.773033 -0.634365 0
    outer loop
      vertex 6.81317 -0.813187 3.35
      vertex 6.95618 -0.638916 -3.35
      vertex 6.95618 -0.638916 3.35
    endloop
  endfacet
  facet normal 0.773033 -0.634365 0
    outer loop
      vertex 6.95618 -0.638916 -3.35
      vertex 6.81317 -0.813187 3.35
      vertex 6.81317 -0.813187 -3.35
    endloop
  endfacet
  facet normal 0.634354 -0.773042 0
    outer loop
      vertex 6.6389 -0.956192 -3.35
      vertex 6.81317 -0.813187 3.35
      vertex 6.6389 -0.956192 3.35
    endloop
  endfacet
  facet normal 0.634354 -0.773042 0
    outer loop
      vertex 6.81317 -0.813187 3.35
      vertex 6.6389 -0.956192 -3.35
      vertex 6.81317 -0.813187 -3.35
    endloop
  endfacet
  facet normal 0.471419 -0.881909 0
    outer loop
      vertex 6.44008 -1.06247 -3.35
      vertex 6.6389 -0.956192 3.35
      vertex 6.44008 -1.06247 3.35
    endloop
  endfacet
  facet normal 0.471419 -0.881909 0
    outer loop
      vertex 6.6389 -0.956192 3.35
      vertex 6.44008 -1.06247 -3.35
      vertex 6.6389 -0.956192 -3.35
    endloop
  endfacet
  facet normal 0.290281 -0.956942 0
    outer loop
      vertex 6.22435 -1.12791 -3.35
      vertex 6.44008 -1.06247 3.35
      vertex 6.22435 -1.12791 3.35
    endloop
  endfacet
  facet normal 0.290281 -0.956942 0
    outer loop
      vertex 6.44008 -1.06247 3.35
      vertex 6.22435 -1.12791 -3.35
      vertex 6.44008 -1.06247 -3.35
    endloop
  endfacet
  facet normal 0.0980323 -0.995183 0
    outer loop
      vertex 6 -1.15001 -3.35
      vertex 6.22435 -1.12791 3.35
      vertex 6 -1.15001 3.35
    endloop
  endfacet
  facet normal 0.0980323 -0.995183 0
    outer loop
      vertex 6.22435 -1.12791 3.35
      vertex 6 -1.15001 -3.35
      vertex 6.22435 -1.12791 -3.35
    endloop
  endfacet
  facet normal 0 -1 0
    outer loop
      vertex 1.09999 -1.15001 -3.35
      vertex 6 -1.15001 3.35
      vertex 1.09999 -1.15001 3.35
    endloop
  endfacet
  facet normal 0 -1 -0
    outer loop
      vertex 6 -1.15001 3.35
      vertex 1.09999 -1.15001 -3.35
      vertex 6 -1.15001 -3.35
    endloop
  endfacet
  facet normal 1 -0 0
    outer loop
      vertex 1.09999 -17.1 3.35
      vertex 1.09999 -1.15001 -3.35
      vertex 1.09999 -1.15001 3.35
    endloop
  endfacet
  facet normal 1 0 0
    outer loop
      vertex 1.09999 -1.15001 -3.35
      vertex 1.09999 -17.1 3.35
      vertex 1.09999 -17.1 -3.35
    endloop
  endfacet
  facet normal 0.911366 -0.411597 0
    outer loop
      vertex 0.508133 -18.4105 3.35
      vertex 1.09999 -17.1 -3.35
      vertex 1.09999 -17.1 3.35
    endloop
  endfacet
  facet normal 0.911366 -0.411597 0
    outer loop
      vertex 1.09999 -17.1 -3.35
      vertex 0.508133 -18.4105 3.35
      vertex 0.508133 -18.4105 -3.35
    endloop
  endfacet
  facet normal 0 0 1
    outer loop
      vertex -2.8721 5.22435 3.35
      vertex -2.8721 4.77563 3.35
      vertex -2.85001 5 3.35
    endloop
  endfacet
  facet normal 0 0 1
    outer loop
      vertex -2.93755 5.44008 3.35
      vertex -2.8721 4.77563 3.35
      vertex -2.8721 5.22435 3.35
    endloop
  endfacet
  facet normal 0 0 1
    outer loop
      vertex -2.93755 5.44008 3.35
      vertex -2.93755 4.55991 3.35
      vertex -2.8721 4.77563 3.35
    endloop
  endfacet
  facet normal 0 0 1
    outer loop
      vertex -3.04382 5.6389 3.35
      vertex -2.93755 4.55991 3.35
      vertex -2.93755 5.44008 3.35
    endloop
  endfacet
  facet normal 0 0 1
    outer loop
      vertex -3.04382 5.6389 3.35
      vertex -3.04382 4.36108 3.35
      vertex -2.93755 4.55991 3.35
    endloop
  endfacet
  facet normal 0 0 1
    outer loop
      vertex -3.18683 5.81317 3.35
      vertex -3.04382 4.36108 3.35
      vertex -3.04382 5.6389 3.35
    endloop
  endfacet
  facet normal 0 0 1
    outer loop
      vertex -3.18683 5.81317 3.35
      vertex -3.18683 4.18681 3.35
      vertex -3.04382 4.36108 3.35
    endloop
  endfacet
  facet normal 0 0 1
    outer loop
      vertex -3.3611 5.95618 3.35
      vertex -3.18683 4.18681 3.35
      vertex -3.18683 5.81317 3.35
    endloop
  endfacet
  facet normal 0 0 1
    outer loop
      vertex -3.3611 5.95618 3.35
      vertex -3.3611 4.04381 3.35
      vertex -3.18683 4.18681 3.35
    endloop
  endfacet
  facet normal 0 0 1
    outer loop
      vertex -3.55992 6.06245 3.35
      vertex -3.3611 4.04381 3.35
      vertex -3.3611 5.95618 3.35
    endloop
  endfacet
  facet normal 0 0 1
    outer loop
      vertex -3.55992 6.06245 3.35
      vertex -3.55992 3.93753 3.35
      vertex -3.3611 4.04381 3.35
    endloop
  endfacet
  facet normal 0 0 1
    outer loop
      vertex -3.77565 6.1279 3.35
      vertex -3.55992 3.93753 3.35
      vertex -3.55992 6.06245 3.35
    endloop
  endfacet
  facet normal 0 0 1
    outer loop
      vertex -3.77565 6.1279 3.35
      vertex -3.77565 3.87209 3.35
      vertex -3.55992 3.93753 3.35
    endloop
  endfacet
  facet normal 0 0 1
    outer loop
      vertex -4 6.14999 3.35
      vertex -3.77565 3.87209 3.35
      vertex -3.77565 6.1279 3.35
    endloop
  endfacet
  facet normal 0 0 1
    outer loop
      vertex -4 6.14999 3.35
      vertex -4 3.84999 3.35
      vertex -3.77565 3.87209 3.35
    endloop
  endfacet
  facet normal 0 0 1
    outer loop
      vertex -4 6.14999 3.35
      vertex -8.90001 3.84999 3.35
      vertex -4 3.84999 3.35
    endloop
  endfacet
  facet normal 0 0 1
    outer loop
      vertex -11.1 -12.1 3.35
      vertex -8.90001 -12.1 3.35
      vertex -8.90001 3.84999 3.35
    endloop
  endfacet
  facet normal 0 0 1
    outer loop
      vertex -8.90001 -12.1 3.35
      vertex -11.1 -12.1 3.35
      vertex -9.49187 -13.4105 3.35
    endloop
  endfacet
  facet normal 0 -0 1
    outer loop
      vertex -10.5081 -13.4105 3.35
      vertex -9.49187 -13.4105 3.35
      vertex -11.1 -12.1 3.35
    endloop
  endfacet
  facet normal 0 0 1
    outer loop
      vertex -9.49187 -13.4105 3.35
      vertex -10.5081 -13.4105 3.35
      vertex -9.54269 -13.5056 3.35
    endloop
  endfacet
  facet normal 0 0 1
    outer loop
      vertex -9.54269 -13.5056 3.35
      vertex -10.5081 -13.4105 3.35
      vertex -9.6111 -13.5889 3.35
    endloop
  endfacet
  facet normal 0 0 1
    outer loop
      vertex -9.6111 -13.5889 3.35
      vertex -10.5081 -13.4105 3.35
      vertex -9.69444 -13.6573 3.35
    endloop
  endfacet
  facet normal 0 0 1
    outer loop
      vertex -9.69444 -13.6573 3.35
      vertex -10.5081 -13.4105 3.35
      vertex -9.78954 -13.7081 3.35
    endloop
  endfacet
  facet normal 0 0 1
    outer loop
      vertex -9.78954 -13.7081 3.35
      vertex -10.5081 -13.4105 3.35
      vertex -9.89272 -13.7394 3.35
    endloop
  endfacet
  facet normal 0 0 1
    outer loop
      vertex -9.89272 -13.7394 3.35
      vertex -10.5081 -13.4105 3.35
      vertex -10 -13.75 3.35
    endloop
  endfacet
  facet normal 0 0 1
    outer loop
      vertex -10 -13.75 3.35
      vertex -10.5081 -13.4105 3.35
      vertex -10.1073 -13.7394 3.35
    endloop
  endfacet
  facet normal 0 0 1
    outer loop
      vertex -10.1073 -13.7394 3.35
      vertex -10.5081 -13.4105 3.35
      vertex -10.2105 -13.7081 3.35
    endloop
  endfacet
  facet normal 0 0 1
    outer loop
      vertex -10.2105 -13.7081 3.35
      vertex -10.5081 -13.4105 3.35
      vertex -10.3056 -13.6573 3.35
    endloop
  endfacet
  facet normal 0 0 1
    outer loop
      vertex -10.3056 -13.6573 3.35
      vertex -10.5081 -13.4105 3.35
      vertex -10.3889 -13.5889 3.35
    endloop
  endfacet
  facet normal 0 0 1
    outer loop
      vertex -11.1 -12.1 3.35
      vertex -8.90001 3.84999 3.35
      vertex -11.1 3.84999 3.35
    endloop
  endfacet
  facet normal 0 0 1
    outer loop
      vertex -4 6.14999 3.35
      vertex -11.1 3.84999 3.35
      vertex -8.90001 3.84999 3.35
    endloop
  endfacet
  facet normal -0 0 1
    outer loop
      vertex -16 6.14999 3.35
      vertex -11.1 3.84999 3.35
      vertex -4 6.14999 3.35
    endloop
  endfacet
  facet normal 0 0 1
    outer loop
      vertex -16 6.14999 3.35
      vertex -16 3.84999 3.35
      vertex -11.1 3.84999 3.35
    endloop
  endfacet
  facet normal -0 0 1
    outer loop
      vertex -16.2243 6.1279 3.35
      vertex -16 3.84999 3.35
      vertex -16 6.14999 3.35
    endloop
  endfacet
  facet normal 0 0 1
    outer loop
      vertex -16.2243 6.1279 3.35
      vertex -16.2243 3.87209 3.35
      vertex -16 3.84999 3.35
    endloop
  endfacet
  facet normal -0 0 1
    outer loop
      vertex -16.4401 6.06245 3.35
      vertex -16.2243 3.87209 3.35
      vertex -16.2243 6.1279 3.35
    endloop
  endfacet
  facet normal 0 0 1
    outer loop
      vertex -16.4401 6.06245 3.35
      vertex -16.4401 3.93753 3.35
      vertex -16.2243 3.87209 3.35
    endloop
  endfacet
  facet normal -0 0 1
    outer loop
      vertex -16.6389 5.95618 3.35
      vertex -16.4401 3.93753 3.35
      vertex -16.4401 6.06245 3.35
    endloop
  endfacet
  facet normal 0 0 1
    outer loop
      vertex -16.6389 5.95618 3.35
      vertex -16.6389 4.04381 3.35
      vertex -16.4401 3.93753 3.35
    endloop
  endfacet
  facet normal -0 0 1
    outer loop
      vertex -16.8132 5.81317 3.35
      vertex -16.6389 4.04381 3.35
      vertex -16.6389 5.95618 3.35
    endloop
  endfacet
  facet normal 0 0 1
    outer loop
      vertex -16.8132 5.81317 3.35
      vertex -16.8132 4.18681 3.35
      vertex -16.6389 4.04381 3.35
    endloop
  endfacet
  facet normal -0 0 1
    outer loop
      vertex -16.9562 5.6389 3.35
      vertex -16.8132 4.18681 3.35
      vertex -16.8132 5.81317 3.35
    endloop
  endfacet
  facet normal 0 0 1
    outer loop
      vertex -16.9562 5.6389 3.35
      vertex -16.9562 4.36108 3.35
      vertex -16.8132 4.18681 3.35
    endloop
  endfacet
  facet normal -0 0 1
    outer loop
      vertex -17.0625 5.44008 3.35
      vertex -16.9562 4.36108 3.35
      vertex -16.9562 5.6389 3.35
    endloop
  endfacet
  facet normal 0 0 1
    outer loop
      vertex -17.0625 5.44008 3.35
      vertex -17.0625 4.55991 3.35
      vertex -16.9562 4.36108 3.35
    endloop
  endfacet
  facet normal -0 0 1
    outer loop
      vertex -17.1279 5.22435 3.35
      vertex -17.0625 4.55991 3.35
      vertex -17.0625 5.44008 3.35
    endloop
  endfacet
  facet normal 0 0 1
    outer loop
      vertex -17.1279 5.22435 3.35
      vertex -17.1279 4.77563 3.35
      vertex -17.0625 4.55991 3.35
    endloop
  endfacet
  facet normal 0 -0 1
    outer loop
      vertex -17.1279 4.77563 3.35
      vertex -17.1279 5.22435 3.35
      vertex -17.15 5 3.35
    endloop
  endfacet
  facet normal 0 0 1
    outer loop
      vertex -10.3889 -13.5889 3.35
      vertex -10.5081 -13.4105 3.35
      vertex -10.4573 -13.5056 3.35
    endloop
  endfacet
  facet normal 0 0 -1
    outer loop
      vertex -11.1 -12.1 -3.35
      vertex -8.90001 -12.1 -3.35
      vertex -9.49187 -13.4105 -3.35
    endloop
  endfacet
  facet normal 0 0 -1
    outer loop
      vertex -2.8721 4.77563 -3.35
      vertex -2.8721 5.22435 -3.35
      vertex -2.85001 5 -3.35
    endloop
  endfacet
  facet normal 0 0 -1
    outer loop
      vertex -2.93755 4.55991 -3.35
      vertex -2.8721 5.22435 -3.35
      vertex -2.8721 4.77563 -3.35
    endloop
  endfacet
  facet normal 0 0 -1
    outer loop
      vertex -2.93755 4.55991 -3.35
      vertex -2.93755 5.44008 -3.35
      vertex -2.8721 5.22435 -3.35
    endloop
  endfacet
  facet normal 0 0 -1
    outer loop
      vertex -3.04382 4.36108 -3.35
      vertex -2.93755 5.44008 -3.35
      vertex -2.93755 4.55991 -3.35
    endloop
  endfacet
  facet normal 0 0 -1
    outer loop
      vertex -3.04382 4.36108 -3.35
      vertex -3.04382 5.6389 -3.35
      vertex -2.93755 5.44008 -3.35
    endloop
  endfacet
  facet normal 0 0 -1
    outer loop
      vertex -3.18683 4.18681 -3.35
      vertex -3.04382 5.6389 -3.35
      vertex -3.04382 4.36108 -3.35
    endloop
  endfacet
  facet normal 0 0 -1
    outer loop
      vertex -3.18683 4.18681 -3.35
      vertex -3.18683 5.81317 -3.35
      vertex -3.04382 5.6389 -3.35
    endloop
  endfacet
  facet normal 0 0 -1
    outer loop
      vertex -3.3611 4.04381 -3.35
      vertex -3.18683 5.81317 -3.35
      vertex -3.18683 4.18681 -3.35
    endloop
  endfacet
  facet normal 0 0 -1
    outer loop
      vertex -3.3611 4.04381 -3.35
      vertex -3.3611 5.95618 -3.35
      vertex -3.18683 5.81317 -3.35
    endloop
  endfacet
  facet normal 0 0 -1
    outer loop
      vertex -3.55992 3.93753 -3.35
      vertex -3.3611 5.95618 -3.35
      vertex -3.3611 4.04381 -3.35
    endloop
  endfacet
  facet normal 0 0 -1
    outer loop
      vertex -3.55992 3.93753 -3.35
      vertex -3.55992 6.06245 -3.35
      vertex -3.3611 5.95618 -3.35
    endloop
  endfacet
  facet normal 0 0 -1
    outer loop
      vertex -3.77565 3.87209 -3.35
      vertex -3.55992 6.06245 -3.35
      vertex -3.55992 3.93753 -3.35
    endloop
  endfacet
  facet normal 0 0 -1
    outer loop
      vertex -3.77565 3.87209 -3.35
      vertex -3.77565 6.1279 -3.35
      vertex -3.55992 6.06245 -3.35
    endloop
  endfacet
  facet normal 0 0 -1
    outer loop
      vertex -4 3.84999 -3.35
      vertex -3.77565 6.1279 -3.35
      vertex -3.77565 3.87209 -3.35
    endloop
  endfacet
  facet normal 0 0 -1
    outer loop
      vertex -4 3.84999 -3.35
      vertex -4 6.14999 -3.35
      vertex -3.77565 6.1279 -3.35
    endloop
  endfacet
  facet normal 0 0 -1
    outer loop
      vertex -8.90001 3.84999 -3.35
      vertex -4 6.14999 -3.35
      vertex -4 3.84999 -3.35
    endloop
  endfacet
  facet normal 0 0 -1
    outer loop
      vertex -10.5081 -13.4105 -3.35
      vertex -9.49187 -13.4105 -3.35
      vertex -9.54269 -13.5056 -3.35
    endloop
  endfacet
  facet normal 0 0 -1
    outer loop
      vertex -10.5081 -13.4105 -3.35
      vertex -9.54269 -13.5056 -3.35
      vertex -9.6111 -13.5889 -3.35
    endloop
  endfacet
  facet normal 0 0 -1
    outer loop
      vertex -10.5081 -13.4105 -3.35
      vertex -9.6111 -13.5889 -3.35
      vertex -9.69444 -13.6573 -3.35
    endloop
  endfacet
  facet normal 0 0 -1
    outer loop
      vertex -10.5081 -13.4105 -3.35
      vertex -9.69444 -13.6573 -3.35
      vertex -9.78954 -13.7081 -3.35
    endloop
  endfacet
  facet normal 0 0 -1
    outer loop
      vertex -10.5081 -13.4105 -3.35
      vertex -9.78954 -13.7081 -3.35
      vertex -9.89272 -13.7394 -3.35
    endloop
  endfacet
  facet normal 0 0 -1
    outer loop
      vertex -10.5081 -13.4105 -3.35
      vertex -9.89272 -13.7394 -3.35
      vertex -10 -13.75 -3.35
    endloop
  endfacet
  facet normal 0 0 -1
    outer loop
      vertex -10.5081 -13.4105 -3.35
      vertex -10 -13.75 -3.35
      vertex -10.1073 -13.7394 -3.35
    endloop
  endfacet
  facet normal 0 0 -1
    outer loop
      vertex -10.5081 -13.4105 -3.35
      vertex -10.1073 -13.7394 -3.35
      vertex -10.2105 -13.7081 -3.35
    endloop
  endfacet
  facet normal 0 0 -1
    outer loop
      vertex -10.5081 -13.4105 -3.35
      vertex -10.2105 -13.7081 -3.35
      vertex -10.3056 -13.6573 -3.35
    endloop
  endfacet
  facet normal 0 0 -1
    outer loop
      vertex -10.5081 -13.4105 -3.35
      vertex -10.3056 -13.6573 -3.35
      vertex -10.3889 -13.5889 -3.35
    endloop
  endfacet
  facet normal 0 0 -1
    outer loop
      vertex -10.5081 -13.4105 -3.35
      vertex -10.3889 -13.5889 -3.35
      vertex -10.4573 -13.5056 -3.35
    endloop
  endfacet
  facet normal 0 0 -1
    outer loop
      vertex -9.49187 -13.4105 -3.35
      vertex -10.5081 -13.4105 -3.35
      vertex -11.1 -12.1 -3.35
    endloop
  endfacet
  facet normal 0 0 -1
    outer loop
      vertex -8.90001 -12.1 -3.35
      vertex -11.1 -12.1 -3.35
      vertex -8.90001 3.84999 -3.35
    endloop
  endfacet
  facet normal 0 0 -1
    outer loop
      vertex -11.1 3.84999 -3.35
      vertex -8.90001 3.84999 -3.35
      vertex -11.1 -12.1 -3.35
    endloop
  endfacet
  facet normal 0 0 -1
    outer loop
      vertex -11.1 3.84999 -3.35
      vertex -4 6.14999 -3.35
      vertex -8.90001 3.84999 -3.35
    endloop
  endfacet
  facet normal 0 0 -1
    outer loop
      vertex -16 6.14999 -3.35
      vertex -11.1 3.84999 -3.35
      vertex -16 3.84999 -3.35
    endloop
  endfacet
  facet normal 0 0 -1
    outer loop
      vertex -11.1 3.84999 -3.35
      vertex -16 6.14999 -3.35
      vertex -4 6.14999 -3.35
    endloop
  endfacet
  facet normal 0 0 -1
    outer loop
      vertex -16.2243 3.87209 -3.35
      vertex -16 6.14999 -3.35
      vertex -16 3.84999 -3.35
    endloop
  endfacet
  facet normal 0 0 -1
    outer loop
      vertex -16.2243 3.87209 -3.35
      vertex -16.2243 6.1279 -3.35
      vertex -16 6.14999 -3.35
    endloop
  endfacet
  facet normal 0 0 -1
    outer loop
      vertex -16.4401 3.93753 -3.35
      vertex -16.2243 6.1279 -3.35
      vertex -16.2243 3.87209 -3.35
    endloop
  endfacet
  facet normal 0 0 -1
    outer loop
      vertex -16.4401 3.93753 -3.35
      vertex -16.4401 6.06245 -3.35
      vertex -16.2243 6.1279 -3.35
    endloop
  endfacet
  facet normal 0 0 -1
    outer loop
      vertex -16.6389 4.04381 -3.35
      vertex -16.4401 6.06245 -3.35
      vertex -16.4401 3.93753 -3.35
    endloop
  endfacet
  facet normal 0 0 -1
    outer loop
      vertex -16.6389 4.04381 -3.35
      vertex -16.6389 5.95618 -3.35
      vertex -16.4401 6.06245 -3.35
    endloop
  endfacet
  facet normal 0 0 -1
    outer loop
      vertex -16.8132 4.18681 -3.35
      vertex -16.6389 5.95618 -3.35
      vertex -16.6389 4.04381 -3.35
    endloop
  endfacet
  facet normal 0 0 -1
    outer loop
      vertex -16.8132 4.18681 -3.35
      vertex -16.8132 5.81317 -3.35
      vertex -16.6389 5.95618 -3.35
    endloop
  endfacet
  facet normal 0 0 -1
    outer loop
      vertex -16.9562 4.36108 -3.35
      vertex -16.8132 5.81317 -3.35
      vertex -16.8132 4.18681 -3.35
    endloop
  endfacet
  facet normal 0 0 -1
    outer loop
      vertex -16.9562 4.36108 -3.35
      vertex -16.9562 5.6389 -3.35
      vertex -16.8132 5.81317 -3.35
    endloop
  endfacet
  facet normal 0 0 -1
    outer loop
      vertex -17.0625 4.55991 -3.35
      vertex -16.9562 5.6389 -3.35
      vertex -16.9562 4.36108 -3.35
    endloop
  endfacet
  facet normal 0 0 -1
    outer loop
      vertex -17.0625 4.55991 -3.35
      vertex -17.0625 5.44008 -3.35
      vertex -16.9562 5.6389 -3.35
    endloop
  endfacet
  facet normal 0 0 -1
    outer loop
      vertex -17.1279 4.77563 -3.35
      vertex -17.0625 5.44008 -3.35
      vertex -17.0625 4.55991 -3.35
    endloop
  endfacet
  facet normal 0 0 -1
    outer loop
      vertex -17.1279 4.77563 -3.35
      vertex -17.1279 5.22435 -3.35
      vertex -17.0625 5.44008 -3.35
    endloop
  endfacet
  facet normal 0 -0 -1
    outer loop
      vertex -17.1279 5.22435 -3.35
      vertex -17.1279 4.77563 -3.35
      vertex -17.15 5 -3.35
    endloop
  endfacet
  facet normal 0.881968 -0.47131 0
    outer loop
      vertex -9.54269 -13.5056 3.35
      vertex -9.49187 -13.4105 -3.35
      vertex -9.49187 -13.4105 3.35
    endloop
  endfacet
  facet normal 0.881968 -0.47131 0
    outer loop
      vertex -9.49187 -13.4105 -3.35
      vertex -9.54269 -13.5056 3.35
      vertex -9.54269 -13.5056 -3.35
    endloop
  endfacet
  facet normal 0.772795 -0.634656 0
    outer loop
      vertex -9.6111 -13.5889 3.35
      vertex -9.54269 -13.5056 -3.35
      vertex -9.54269 -13.5056 3.35
    endloop
  endfacet
  facet normal 0.772795 -0.634656 0
    outer loop
      vertex -9.54269 -13.5056 -3.35
      vertex -9.6111 -13.5889 3.35
      vertex -9.6111 -13.5889 -3.35
    endloop
  endfacet
  facet normal 0.634419 -0.772989 0
    outer loop
      vertex -9.69444 -13.6573 -3.35
      vertex -9.6111 -13.5889 3.35
      vertex -9.69444 -13.6573 3.35
    endloop
  endfacet
  facet normal 0.634419 -0.772989 0
    outer loop
      vertex -9.6111 -13.5889 3.35
      vertex -9.69444 -13.6573 -3.35
      vertex -9.6111 -13.5889 -3.35
    endloop
  endfacet
  facet normal 0.471166 -0.882045 0
    outer loop
      vertex -9.78954 -13.7081 -3.35
      vertex -9.69444 -13.6573 3.35
      vertex -9.78954 -13.7081 3.35
    endloop
  endfacet
  facet normal 0.471166 -0.882045 0
    outer loop
      vertex -9.69444 -13.6573 3.35
      vertex -9.78954 -13.7081 -3.35
      vertex -9.69444 -13.6573 -3.35
    endloop
  endfacet
  facet normal 0.290291 -0.956939 0
    outer loop
      vertex -9.89272 -13.7394 -3.35
      vertex -9.78954 -13.7081 3.35
      vertex -9.89272 -13.7394 3.35
    endloop
  endfacet
  facet normal 0.290291 -0.956939 0
    outer loop
      vertex -9.78954 -13.7081 3.35
      vertex -9.89272 -13.7394 -3.35
      vertex -9.78954 -13.7081 -3.35
    endloop
  endfacet
  facet normal 0.098328 -0.995154 0
    outer loop
      vertex -10 -13.75 -3.35
      vertex -9.89272 -13.7394 3.35
      vertex -10 -13.75 3.35
    endloop
  endfacet
  facet normal 0.098328 -0.995154 0
    outer loop
      vertex -9.89272 -13.7394 3.35
      vertex -10 -13.75 -3.35
      vertex -9.89272 -13.7394 -3.35
    endloop
  endfacet
  facet normal -0.0983099 -0.995156 0
    outer loop
      vertex -10.1073 -13.7394 -3.35
      vertex -10 -13.75 3.35
      vertex -10.1073 -13.7394 3.35
    endloop
  endfacet
  facet normal -0.0983099 -0.995156 -0
    outer loop
      vertex -10 -13.75 3.35
      vertex -10.1073 -13.7394 -3.35
      vertex -10 -13.75 -3.35
    endloop
  endfacet
  facet normal -0.290239 -0.956954 0
    outer loop
      vertex -10.2105 -13.7081 -3.35
      vertex -10.1073 -13.7394 3.35
      vertex -10.2105 -13.7081 3.35
    endloop
  endfacet
  facet normal -0.290239 -0.956954 -0
    outer loop
      vertex -10.1073 -13.7394 3.35
      vertex -10.2105 -13.7081 -3.35
      vertex -10.1073 -13.7394 -3.35
    endloop
  endfacet
  facet normal -0.471166 -0.882045 0
    outer loop
      vertex -10.3056 -13.6573 -3.35
      vertex -10.2105 -13.7081 3.35
      vertex -10.3056 -13.6573 3.35
    endloop
  endfacet
  facet normal -0.471166 -0.882045 -0
    outer loop
      vertex -10.2105 -13.7081 3.35
      vertex -10.3056 -13.6573 -3.35
      vertex -10.2105 -13.7081 -3.35
    endloop
  endfacet
  facet normal -0.634601 -0.77284 0
    outer loop
      vertex -10.3889 -13.5889 -3.35
      vertex -10.3056 -13.6573 3.35
      vertex -10.3889 -13.5889 3.35
    endloop
  endfacet
  facet normal -0.634601 -0.77284 -0
    outer loop
      vertex -10.3056 -13.6573 3.35
      vertex -10.3889 -13.5889 -3.35
      vertex -10.3056 -13.6573 -3.35
    endloop
  endfacet
  facet normal -0.77284 -0.634601 0
    outer loop
      vertex -10.3889 -13.5889 -3.35
      vertex -10.4573 -13.5056 3.35
      vertex -10.4573 -13.5056 -3.35
    endloop
  endfacet
  facet normal -0.77284 -0.634601 0
    outer loop
      vertex -10.4573 -13.5056 3.35
      vertex -10.3889 -13.5889 -3.35
      vertex -10.3889 -13.5889 3.35
    endloop
  endfacet
  facet normal -0.882045 -0.471166 0
    outer loop
      vertex -10.4573 -13.5056 -3.35
      vertex -10.5081 -13.4105 3.35
      vertex -10.5081 -13.4105 -3.35
    endloop
  endfacet
  facet normal -0.882045 -0.471166 0
    outer loop
      vertex -10.5081 -13.4105 3.35
      vertex -10.4573 -13.5056 -3.35
      vertex -10.4573 -13.5056 3.35
    endloop
  endfacet
  facet normal -0.911355 -0.411622 0
    outer loop
      vertex -10.5081 -13.4105 -3.35
      vertex -11.1 -12.1 3.35
      vertex -11.1 -12.1 -3.35
    endloop
  endfacet
  facet normal -0.911355 -0.411622 0
    outer loop
      vertex -11.1 -12.1 3.35
      vertex -10.5081 -13.4105 -3.35
      vertex -10.5081 -13.4105 3.35
    endloop
  endfacet
  facet normal -1 0 0
    outer loop
      vertex -11.1 -12.1 -3.35
      vertex -11.1 3.84999 3.35
      vertex -11.1 3.84999 -3.35
    endloop
  endfacet
  facet normal -1 -0 0
    outer loop
      vertex -11.1 3.84999 3.35
      vertex -11.1 -12.1 -3.35
      vertex -11.1 -12.1 3.35
    endloop
  endfacet
  facet normal 0 -1 0
    outer loop
      vertex -16 3.84999 -3.35
      vertex -11.1 3.84999 3.35
      vertex -16 3.84999 3.35
    endloop
  endfacet
  facet normal 0 -1 -0
    outer loop
      vertex -11.1 3.84999 3.35
      vertex -16 3.84999 -3.35
      vertex -11.1 3.84999 -3.35
    endloop
  endfacet
  facet normal -0.098054 -0.995181 0
    outer loop
      vertex -16.2243 3.87209 -3.35
      vertex -16 3.84999 3.35
      vertex -16.2243 3.87209 3.35
    endloop
  endfacet
  facet normal -0.098054 -0.995181 -0
    outer loop
      vertex -16 3.84999 3.35
      vertex -16.2243 3.87209 -3.35
      vertex -16 3.84999 -3.35
    endloop
  endfacet
  facet normal -0.290194 -0.956968 0
    outer loop
      vertex -16.4401 3.93753 -3.35
      vertex -16.2243 3.87209 3.35
      vertex -16.4401 3.93753 3.35
    endloop
  endfacet
  facet normal -0.290194 -0.956968 -0
    outer loop
      vertex -16.2243 3.87209 3.35
      vertex -16.4401 3.93753 -3.35
      vertex -16.2243 3.87209 -3.35
    endloop
  endfacet
  facet normal -0.471463 -0.881886 0
    outer loop
      vertex -16.6389 4.04381 -3.35
      vertex -16.4401 3.93753 3.35
      vertex -16.6389 4.04381 3.35
    endloop
  endfacet
  facet normal -0.471463 -0.881886 -0
    outer loop
      vertex -16.4401 3.93753 3.35
      vertex -16.6389 4.04381 -3.35
      vertex -16.4401 3.93753 -3.35
    endloop
  endfacet
  facet normal -0.634276 -0.773107 0
    outer loop
      vertex -16.8132 4.18681 -3.35
      vertex -16.6389 4.04381 3.35
      vertex -16.8132 4.18681 3.35
    endloop
  endfacet
  facet normal -0.634276 -0.773107 -0
    outer loop
      vertex -16.6389 4.04381 3.35
      vertex -16.8132 4.18681 -3.35
      vertex -16.6389 4.04381 -3.35
    endloop
  endfacet
  facet normal -0.773053 -0.634341 0
    outer loop
      vertex -16.8132 4.18681 -3.35
      vertex -16.9562 4.36108 3.35
      vertex -16.9562 4.36108 -3.35
    endloop
  endfacet
  facet normal -0.773053 -0.634341 0
    outer loop
      vertex -16.9562 4.36108 3.35
      vertex -16.8132 4.18681 -3.35
      vertex -16.8132 4.18681 3.35
    endloop
  endfacet
  facet normal -0.881879 -0.471477 0
    outer loop
      vertex -16.9562 4.36108 -3.35
      vertex -17.0625 4.55991 3.35
      vertex -17.0625 4.55991 -3.35
    endloop
  endfacet
  facet normal -0.881879 -0.471477 0
    outer loop
      vertex -17.0625 4.55991 3.35
      vertex -16.9562 4.36108 -3.35
      vertex -16.9562 4.36108 3.35
    endloop
  endfacet
  facet normal -0.956987 -0.290131 0
    outer loop
      vertex -17.0625 4.55991 -3.35
      vertex -17.1279 4.77563 3.35
      vertex -17.1279 4.77563 -3.35
    endloop
  endfacet
  facet normal -0.956987 -0.290131 0
    outer loop
      vertex -17.1279 4.77563 3.35
      vertex -17.0625 4.55991 -3.35
      vertex -17.0625 4.55991 3.35
    endloop
  endfacet
  facet normal -0.995184 -0.0980237 0
    outer loop
      vertex -17.1279 4.77563 -3.35
      vertex -17.15 5 3.35
      vertex -17.15 5 -3.35
    endloop
  endfacet
  facet normal -0.995184 -0.0980237 0
    outer loop
      vertex -17.15 5 3.35
      vertex -17.1279 4.77563 -3.35
      vertex -17.1279 4.77563 3.35
    endloop
  endfacet
  facet normal -0.995183 0.0980323 0
    outer loop
      vertex -17.15 5 -3.35
      vertex -17.1279 5.22435 3.35
      vertex -17.1279 5.22435 -3.35
    endloop
  endfacet
  facet normal -0.995183 0.0980323 0
    outer loop
      vertex -17.1279 5.22435 3.35
      vertex -17.15 5 -3.35
      vertex -17.15 5 3.35
    endloop
  endfacet
  facet normal -0.956991 0.290118 0
    outer loop
      vertex -17.1279 5.22435 -3.35
      vertex -17.0625 5.44008 3.35
      vertex -17.0625 5.44008 -3.35
    endloop
  endfacet
  facet normal -0.956991 0.290118 0
    outer loop
      vertex -17.0625 5.44008 3.35
      vertex -17.1279 5.22435 -3.35
      vertex -17.1279 5.22435 3.35
    endloop
  endfacet
  facet normal -0.881869 0.471495 0
    outer loop
      vertex -17.0625 5.44008 -3.35
      vertex -16.9562 5.6389 3.35
      vertex -16.9562 5.6389 -3.35
    endloop
  endfacet
  facet normal -0.881869 0.471495 0
    outer loop
      vertex -16.9562 5.6389 3.35
      vertex -17.0625 5.44008 -3.35
      vertex -17.0625 5.44008 3.35
    endloop
  endfacet
  facet normal -0.773053 0.634341 0
    outer loop
      vertex -16.9562 5.6389 -3.35
      vertex -16.8132 5.81317 3.35
      vertex -16.8132 5.81317 -3.35
    endloop
  endfacet
  facet normal -0.773053 0.634341 0
    outer loop
      vertex -16.8132 5.81317 3.35
      vertex -16.9562 5.6389 -3.35
      vertex -16.9562 5.6389 3.35
    endloop
  endfacet
  facet normal -0.634302 0.773085 0
    outer loop
      vertex -16.6389 5.95618 -3.35
      vertex -16.8132 5.81317 3.35
      vertex -16.6389 5.95618 3.35
    endloop
  endfacet
  facet normal -0.634302 0.773085 0
    outer loop
      vertex -16.8132 5.81317 3.35
      vertex -16.6389 5.95618 -3.35
      vertex -16.8132 5.81317 -3.35
    endloop
  endfacet
  facet normal -0.471428 0.881904 0
    outer loop
      vertex -16.4401 6.06245 -3.35
      vertex -16.6389 5.95618 3.35
      vertex -16.4401 6.06245 3.35
    endloop
  endfacet
  facet normal -0.471428 0.881904 0
    outer loop
      vertex -16.6389 5.95618 3.35
      vertex -16.4401 6.06245 -3.35
      vertex -16.6389 5.95618 -3.35
    endloop
  endfacet
  facet normal -0.290235 0.956955 0
    outer loop
      vertex -16.2243 6.1279 -3.35
      vertex -16.4401 6.06245 3.35
      vertex -16.2243 6.1279 3.35
    endloop
  endfacet
  facet normal -0.290235 0.956955 0
    outer loop
      vertex -16.4401 6.06245 3.35
      vertex -16.2243 6.1279 -3.35
      vertex -16.4401 6.06245 -3.35
    endloop
  endfacet
  facet normal -0.09801 0.995185 0
    outer loop
      vertex -16 6.14999 -3.35
      vertex -16.2243 6.1279 3.35
      vertex -16 6.14999 3.35
    endloop
  endfacet
  facet normal -0.09801 0.995185 0
    outer loop
      vertex -16.2243 6.1279 3.35
      vertex -16 6.14999 -3.35
      vertex -16.2243 6.1279 -3.35
    endloop
  endfacet
  facet normal 0 1 -0
    outer loop
      vertex -4 6.14999 -3.35
      vertex -16 6.14999 3.35
      vertex -4 6.14999 3.35
    endloop
  endfacet
  facet normal 0 1 0
    outer loop
      vertex -16 6.14999 3.35
      vertex -4 6.14999 -3.35
      vertex -16 6.14999 -3.35
    endloop
  endfacet
  facet normal 0.0979884 0.995188 -0
    outer loop
      vertex -3.77565 6.1279 -3.35
      vertex -4 6.14999 3.35
      vertex -3.77565 6.1279 3.35
    endloop
  endfacet
  facet normal 0.0979884 0.995188 0
    outer loop
      vertex -4 6.14999 3.35
      vertex -3.77565 6.1279 -3.35
      vertex -4 6.14999 -3.35
    endloop
  endfacet
  facet normal 0.290321 0.956929 -0
    outer loop
      vertex -3.55992 6.06245 -3.35
      vertex -3.77565 6.1279 3.35
      vertex -3.55992 6.06245 3.35
    endloop
  endfacet
  facet normal 0.290321 0.956929 0
    outer loop
      vertex -3.77565 6.1279 3.35
      vertex -3.55992 6.06245 -3.35
      vertex -3.77565 6.1279 -3.35
    endloop
  endfacet
  facet normal 0.471392 0.881924 -0
    outer loop
      vertex -3.3611 5.95618 -3.35
      vertex -3.55992 6.06245 3.35
      vertex -3.3611 5.95618 3.35
    endloop
  endfacet
  facet normal 0.471392 0.881924 0
    outer loop
      vertex -3.55992 6.06245 3.35
      vertex -3.3611 5.95618 -3.35
      vertex -3.55992 6.06245 -3.35
    endloop
  endfacet
  facet normal 0.634368 0.773032 -0
    outer loop
      vertex -3.18683 5.81317 -3.35
      vertex -3.3611 5.95618 3.35
      vertex -3.18683 5.81317 3.35
    endloop
  endfacet
  facet normal 0.634368 0.773032 0
    outer loop
      vertex -3.3611 5.95618 3.35
      vertex -3.18683 5.81317 -3.35
      vertex -3.3611 5.95618 -3.35
    endloop
  endfacet
  facet normal 0.773032 0.634368 0
    outer loop
      vertex -3.04382 5.6389 3.35
      vertex -3.18683 5.81317 -3.35
      vertex -3.18683 5.81317 3.35
    endloop
  endfacet
  facet normal 0.773032 0.634368 0
    outer loop
      vertex -3.18683 5.81317 -3.35
      vertex -3.04382 5.6389 3.35
      vertex -3.04382 5.6389 -3.35
    endloop
  endfacet
  facet normal 0.881924 0.471392 0
    outer loop
      vertex -2.93755 5.44008 3.35
      vertex -3.04382 5.6389 -3.35
      vertex -3.04382 5.6389 3.35
    endloop
  endfacet
  facet normal 0.881924 0.471392 0
    outer loop
      vertex -3.04382 5.6389 -3.35
      vertex -2.93755 5.44008 3.35
      vertex -2.93755 5.44008 -3.35
    endloop
  endfacet
  facet normal 0.956929 0.290321 0
    outer loop
      vertex -2.8721 5.22435 3.35
      vertex -2.93755 5.44008 -3.35
      vertex -2.93755 5.44008 3.35
    endloop
  endfacet
  facet normal 0.956929 0.290321 0
    outer loop
      vertex -2.93755 5.44008 -3.35
      vertex -2.8721 5.22435 3.35
      vertex -2.8721 5.22435 -3.35
    endloop
  endfacet
  facet normal 0.995188 0.0979884 0
    outer loop
      vertex -2.85001 5 3.35
      vertex -2.8721 5.22435 -3.35
      vertex -2.8721 5.22435 3.35
    endloop
  endfacet
  facet normal 0.995188 0.0979884 0
    outer loop
      vertex -2.8721 5.22435 -3.35
      vertex -2.85001 5 3.35
      vertex -2.85001 5 -3.35
    endloop
  endfacet
  facet normal 0.995188 -0.0979797 0
    outer loop
      vertex -2.8721 4.77563 3.35
      vertex -2.85001 5 -3.35
      vertex -2.85001 5 3.35
    endloop
  endfacet
  facet normal 0.995188 -0.0979797 0
    outer loop
      vertex -2.85001 5 -3.35
      vertex -2.8721 4.77563 3.35
      vertex -2.8721 4.77563 -3.35
    endloop
  endfacet
  facet normal 0.956925 -0.290334 0
    outer loop
      vertex -2.93755 4.55991 3.35
      vertex -2.8721 4.77563 -3.35
      vertex -2.8721 4.77563 3.35
    endloop
  endfacet
  facet normal 0.956925 -0.290334 0
    outer loop
      vertex -2.8721 4.77563 -3.35
      vertex -2.93755 4.55991 3.35
      vertex -2.93755 4.55991 -3.35
    endloop
  endfacet
  facet normal 0.881934 -0.471373 0
    outer loop
      vertex -3.04382 4.36108 3.35
      vertex -2.93755 4.55991 -3.35
      vertex -2.93755 4.55991 3.35
    endloop
  endfacet
  facet normal 0.881934 -0.471373 0
    outer loop
      vertex -2.93755 4.55991 -3.35
      vertex -3.04382 4.36108 3.35
      vertex -3.04382 4.36108 -3.35
    endloop
  endfacet
  facet normal 0.773032 -0.634368 0
    outer loop
      vertex -3.18683 4.18681 3.35
      vertex -3.04382 4.36108 -3.35
      vertex -3.04382 4.36108 3.35
    endloop
  endfacet
  facet normal 0.773032 -0.634368 0
    outer loop
      vertex -3.04382 4.36108 -3.35
      vertex -3.18683 4.18681 3.35
      vertex -3.18683 4.18681 -3.35
    endloop
  endfacet
  facet normal 0.634341 -0.773053 0
    outer loop
      vertex -3.3611 4.04381 -3.35
      vertex -3.18683 4.18681 3.35
      vertex -3.3611 4.04381 3.35
    endloop
  endfacet
  facet normal 0.634341 -0.773053 0
    outer loop
      vertex -3.18683 4.18681 3.35
      vertex -3.3611 4.04381 -3.35
      vertex -3.18683 4.18681 -3.35
    endloop
  endfacet
  facet normal 0.471426 -0.881906 0
    outer loop
      vertex -3.55992 3.93753 -3.35
      vertex -3.3611 4.04381 3.35
      vertex -3.55992 3.93753 3.35
    endloop
  endfacet
  facet normal 0.471426 -0.881906 0
    outer loop
      vertex -3.3611 4.04381 3.35
      vertex -3.55992 3.93753 -3.35
      vertex -3.3611 4.04381 -3.35
    endloop
  endfacet
  facet normal 0.290281 -0.956942 0
    outer loop
      vertex -3.77565 3.87209 -3.35
      vertex -3.55992 3.93753 3.35
      vertex -3.77565 3.87209 3.35
    endloop
  endfacet
  facet normal 0.290281 -0.956942 0
    outer loop
      vertex -3.55992 3.93753 3.35
      vertex -3.77565 3.87209 -3.35
      vertex -3.55992 3.93753 -3.35
    endloop
  endfacet
  facet normal 0.0980323 -0.995183 0
    outer loop
      vertex -4 3.84999 -3.35
      vertex -3.77565 3.87209 3.35
      vertex -4 3.84999 3.35
    endloop
  endfacet
  facet normal 0.0980323 -0.995183 0
    outer loop
      vertex -3.77565 3.87209 3.35
      vertex -4 3.84999 -3.35
      vertex -3.77565 3.87209 -3.35
    endloop
  endfacet
  facet normal 0 -1 0
    outer loop
      vertex -8.90001 3.84999 -3.35
      vertex -4 3.84999 3.35
      vertex -8.90001 3.84999 3.35
    endloop
  endfacet
  facet normal 0 -1 -0
    outer loop
      vertex -4 3.84999 3.35
      vertex -8.90001 3.84999 -3.35
      vertex -4 3.84999 -3.35
    endloop
  endfacet
  facet normal 1 -0 0
    outer loop
      vertex -8.90001 -12.1 3.35
      vertex -8.90001 3.84999 -3.35
      vertex -8.90001 3.84999 3.35
    endloop
  endfacet
  facet normal 1 0 0
    outer loop
      vertex -8.90001 3.84999 -3.35
      vertex -8.90001 -12.1 3.35
      vertex -8.90001 -12.1 -3.35
    endloop
  endfacet
  facet normal 0.911365 -0.411599 0
    outer loop
      vertex -9.49187 -13.4105 3.35
      vertex -8.90001 -12.1 -3.35
      vertex -8.90001 -12.1 3.35
    endloop
  endfacet
  facet normal 0.911365 -0.411599 0
    outer loop
      vertex -8.90001 -12.1 -3.35
      vertex -9.49187 -13.4105 3.35
      vertex -9.49187 -13.4105 -3.35
    endloop
  endfacet
endsolid OpenSCAD_Model
