solid OpenSCAD_Model
  facet normal 0 0 1
    outer loop
      vertex 7.1279 0.22435 3.35
      vertex 7.1279 -0.224365 3.35
      vertex 7.14999 0 3.35
    endloop
  endfacet
  facet normal 0 0 1
    outer loop
      vertex 7.06245 0.440079 3.35
      vertex 7.1279 -0.224365 3.35
      vertex 7.1279 0.22435 3.35
    endloop
  endfacet
  facet normal 0 0 1
    outer loop
      vertex 7.06245 0.440079 3.35
      vertex 7.06245 -0.440094 3.35
      vertex 7.1279 -0.224365 3.35
    endloop
  endfacet
  facet normal 0 0 1
    outer loop
      vertex 6.95618 0.638901 3.35
      vertex 7.06245 -0.440094 3.35
      vertex 7.06245 0.440079 3.35
    endloop
  endfacet
  facet normal 0 0 1
    outer loop
      vertex 6.95618 0.638901 3.35
      vertex 6.95618 -0.638916 3.35
      vertex 7.06245 -0.440094 3.35
    endloop
  endfacet
  facet normal 0 0 1
    outer loop
      vertex 6.81317 0.813171 3.35
      vertex 6.95618 -0.638916 3.35
      vertex 6.95618 0.638901 3.35
    endloop
  endfacet
  facet normal 0 0 1
    outer loop
      vertex 6.81317 0.813171 3.35
      vertex 6.81317 -0.813187 3.35
      vertex 6.95618 -0.638916 3.35
    endloop
  endfacet
  facet normal 0 0 1
    outer loop
      vertex 6.6389 0.956177 3.35
      vertex 6.81317 -0.813187 3.35
      vertex 6.81317 0.813171 3.35
    endloop
  endfacet
  facet normal 0 0 1
    outer loop
      vertex 6.6389 0.956177 3.35
      vertex 6.6389 -0.956192 3.35
      vertex 6.81317 -0.813187 3.35
    endloop
  endfacet
  facet normal 0 0 1
    outer loop
      vertex 6.44008 1.06245 3.35
      vertex 6.6389 -0.956192 3.35
      vertex 6.6389 0.956177 3.35
    endloop
  endfacet
  facet normal 0 0 1
    outer loop
      vertex 6.44008 1.06245 3.35
      vertex 6.44008 -1.06247 3.35
      vertex 6.6389 -0.956192 3.35
    endloop
  endfacet
  facet normal 0 0 1
    outer loop
      vertex 6.22435 1.1279 3.35
      vertex 6.44008 -1.06247 3.35
      vertex 6.44008 1.06245 3.35
    endloop
  endfacet
  facet normal 0 0 1
    outer loop
      vertex 6.22435 1.1279 3.35
      vertex 6.22435 -1.12791 3.35
      vertex 6.44008 -1.06247 3.35
    endloop
  endfacet
  facet normal 0 0 1
    outer loop
      vertex 6 1.14999 3.35
      vertex 6.22435 -1.12791 3.35
      vertex 6.22435 1.1279 3.35
    endloop
  endfacet
  facet normal 0 0 1
    outer loop
      vertex 6 1.14999 3.35
      vertex 6 -1.15001 3.35
      vertex 6.22435 -1.12791 3.35
    endloop
  endfacet
  facet normal 0 0 1
    outer loop
      vertex 6 1.14999 3.35
      vertex 1.14999 -1.15001 3.35
      vertex 6 -1.15001 3.35
    endloop
  endfacet
  facet normal 0 0 1
    outer loop
      vertex -1.14999 -17.15 3.35
      vertex 1.14999 -17.15 3.35
      vertex 1.14999 -1.15001 3.35
    endloop
  endfacet
  facet normal 0 0 1
    outer loop
      vertex 1.14999 -17.15 3.35
      vertex -1.14999 -17.15 3.35
      vertex 0.531219 -18.52 3.35
    endloop
  endfacet
  facet normal 0 -0 1
    outer loop
      vertex -0.531219 -18.52 3.35
      vertex 0.531219 -18.52 3.35
      vertex -1.14999 -17.15 3.35
    endloop
  endfacet
  facet normal 0 0 1
    outer loop
      vertex 0.531219 -18.52 3.35
      vertex -0.531219 -18.52 3.35
      vertex 0.478088 -18.6194 3.35
    endloop
  endfacet
  facet normal 0 0 1
    outer loop
      vertex 0.478088 -18.6194 3.35
      vertex -0.531219 -18.52 3.35
      vertex 0.406586 -18.7066 3.35
    endloop
  endfacet
  facet normal 0 0 1
    outer loop
      vertex 0.406586 -18.7066 3.35
      vertex -0.531219 -18.52 3.35
      vertex 0.319443 -18.7781 3.35
    endloop
  endfacet
  facet normal 0 0 1
    outer loop
      vertex 0.319443 -18.7781 3.35
      vertex -0.531219 -18.52 3.35
      vertex 0.220032 -18.8312 3.35
    endloop
  endfacet
  facet normal 0 0 1
    outer loop
      vertex 0.220032 -18.8312 3.35
      vertex -0.531219 -18.52 3.35
      vertex 0.112167 -18.8639 3.35
    endloop
  endfacet
  facet normal 0 0 1
    outer loop
      vertex 0.112167 -18.8639 3.35
      vertex -0.531219 -18.52 3.35
      vertex 0 -18.875 3.35
    endloop
  endfacet
  facet normal 0 0 1
    outer loop
      vertex 0 -18.875 3.35
      vertex -0.531219 -18.52 3.35
      vertex -0.112167 -18.8639 3.35
    endloop
  endfacet
  facet normal 0 0 1
    outer loop
      vertex -0.112167 -18.8639 3.35
      vertex -0.531219 -18.52 3.35
      vertex -0.220032 -18.8312 3.35
    endloop
  endfacet
  facet normal 0 0 1
    outer loop
      vertex -0.220032 -18.8312 3.35
      vertex -0.531219 -18.52 3.35
      vertex -0.319443 -18.7781 3.35
    endloop
  endfacet
  facet normal 0 0 1
    outer loop
      vertex -0.319443 -18.7781 3.35
      vertex -0.531219 -18.52 3.35
      vertex -0.406586 -18.7066 3.35
    endloop
  endfacet
  facet normal 0 0 1
    outer loop
      vertex -1.14999 -17.15 3.35
      vertex 1.14999 -1.15001 3.35
      vertex -1.14999 -1.15001 3.35
    endloop
  endfacet
  facet normal 0 0 1
    outer loop
      vertex 6 1.14999 3.35
      vertex -1.14999 -1.15001 3.35
      vertex 1.14999 -1.15001 3.35
    endloop
  endfacet
  facet normal -0 0 1
    outer loop
      vertex -6 1.14999 3.35
      vertex -1.14999 -1.15001 3.35
      vertex 6 1.14999 3.35
    endloop
  endfacet
  facet normal 0 0 1
    outer loop
      vertex -6 1.14999 3.35
      vertex -6 -1.15001 3.35
      vertex -1.14999 -1.15001 3.35
    endloop
  endfacet
  facet normal -0 0 1
    outer loop
      vertex -6.22435 1.1279 3.35
      vertex -6 -1.15001 3.35
      vertex -6 1.14999 3.35
    endloop
  endfacet
  facet normal 0 0 1
    outer loop
      vertex -6.22435 1.1279 3.35
      vertex -6.22435 -1.12791 3.35
      vertex -6 -1.15001 3.35
    endloop
  endfacet
  facet normal -0 0 1
    outer loop
      vertex -6.44008 1.06245 3.35
      vertex -6.22435 -1.12791 3.35
      vertex -6.22435 1.1279 3.35
    endloop
  endfacet
  facet normal 0 0 1
    outer loop
      vertex -6.44008 1.06245 3.35
      vertex -6.44008 -1.06247 3.35
      vertex -6.22435 -1.12791 3.35
    endloop
  endfacet
  facet normal -0 0 1
    outer loop
      vertex -6.6389 0.956177 3.35
      vertex -6.44008 -1.06247 3.35
      vertex -6.44008 1.06245 3.35
    endloop
  endfacet
  facet normal 0 0 1
    outer loop
      vertex -6.6389 0.956177 3.35
      vertex -6.6389 -0.956192 3.35
      vertex -6.44008 -1.06247 3.35
    endloop
  endfacet
  facet normal -0 0 1
    outer loop
      vertex -6.81317 0.813171 3.35
      vertex -6.6389 -0.956192 3.35
      vertex -6.6389 0.956177 3.35
    endloop
  endfacet
  facet normal 0 0 1
    outer loop
      vertex -6.81317 0.813171 3.35
      vertex -6.81317 -0.813187 3.35
      vertex -6.6389 -0.956192 3.35
    endloop
  endfacet
  facet normal -0 0 1
    outer loop
      vertex -6.95618 0.638901 3.35
      vertex -6.81317 -0.813187 3.35
      vertex -6.81317 0.813171 3.35
    endloop
  endfacet
  facet normal 0 0 1
    outer loop
      vertex -6.95618 0.638901 3.35
      vertex -6.95618 -0.638916 3.35
      vertex -6.81317 -0.813187 3.35
    endloop
  endfacet
  facet normal -0 0 1
    outer loop
      vertex -7.06245 0.440079 3.35
      vertex -6.95618 -0.638916 3.35
      vertex -6.95618 0.638901 3.35
    endloop
  endfacet
  facet normal 0 0 1
    outer loop
      vertex -7.06245 0.440079 3.35
      vertex -7.06245 -0.440094 3.35
      vertex -6.95618 -0.638916 3.35
    endloop
  endfacet
  facet normal -0 0 1
    outer loop
      vertex -7.1279 0.22435 3.35
      vertex -7.06245 -0.440094 3.35
      vertex -7.06245 0.440079 3.35
    endloop
  endfacet
  facet normal 0 0 1
    outer loop
      vertex -7.1279 0.22435 3.35
      vertex -7.1279 -0.224365 3.35
      vertex -7.06245 -0.440094 3.35
    endloop
  endfacet
  facet normal 0 -0 1
    outer loop
      vertex -7.1279 -0.224365 3.35
      vertex -7.1279 0.22435 3.35
      vertex -7.14999 0 3.35
    endloop
  endfacet
  facet normal 0 0 1
    outer loop
      vertex -0.406586 -18.7066 3.35
      vertex -0.531219 -18.52 3.35
      vertex -0.478088 -18.6194 3.35
    endloop
  endfacet
  facet normal 0 0 -1
    outer loop
      vertex -1.14999 -17.15 -3.35
      vertex 1.14999 -17.15 -3.35
      vertex 0.531219 -18.52 -3.35
    endloop
  endfacet
  facet normal 0 0 -1
    outer loop
      vertex 7.1279 -0.224365 -3.35
      vertex 7.1279 0.22435 -3.35
      vertex 7.14999 0 -3.35
    endloop
  endfacet
  facet normal 0 0 -1
    outer loop
      vertex 7.06245 -0.440094 -3.35
      vertex 7.1279 0.22435 -3.35
      vertex 7.1279 -0.224365 -3.35
    endloop
  endfacet
  facet normal 0 0 -1
    outer loop
      vertex 7.06245 -0.440094 -3.35
      vertex 7.06245 0.440079 -3.35
      vertex 7.1279 0.22435 -3.35
    endloop
  endfacet
  facet normal 0 0 -1
    outer loop
      vertex 6.95618 -0.638916 -3.35
      vertex 7.06245 0.440079 -3.35
      vertex 7.06245 -0.440094 -3.35
    endloop
  endfacet
  facet normal 0 0 -1
    outer loop
      vertex 6.95618 -0.638916 -3.35
      vertex 6.95618 0.638901 -3.35
      vertex 7.06245 0.440079 -3.35
    endloop
  endfacet
  facet normal 0 0 -1
    outer loop
      vertex 6.81317 -0.813187 -3.35
      vertex 6.95618 0.638901 -3.35
      vertex 6.95618 -0.638916 -3.35
    endloop
  endfacet
  facet normal 0 0 -1
    outer loop
      vertex 6.81317 -0.813187 -3.35
      vertex 6.81317 0.813171 -3.35
      vertex 6.95618 0.638901 -3.35
    endloop
  endfacet
  facet normal 0 0 -1
    outer loop
      vertex 6.6389 -0.956192 -3.35
      vertex 6.81317 0.813171 -3.35
      vertex 6.81317 -0.813187 -3.35
    endloop
  endfacet
  facet normal 0 0 -1
    outer loop
      vertex 6.6389 -0.956192 -3.35
      vertex 6.6389 0.956177 -3.35
      vertex 6.81317 0.813171 -3.35
    endloop
  endfacet
  facet normal 0 0 -1
    outer loop
      vertex 6.44008 -1.06247 -3.35
      vertex 6.6389 0.956177 -3.35
      vertex 6.6389 -0.956192 -3.35
    endloop
  endfacet
  facet normal 0 0 -1
    outer loop
      vertex 6.44008 -1.06247 -3.35
      vertex 6.44008 1.06245 -3.35
      vertex 6.6389 0.956177 -3.35
    endloop
  endfacet
  facet normal 0 0 -1
    outer loop
      vertex 6.22435 -1.12791 -3.35
      vertex 6.44008 1.06245 -3.35
      vertex 6.44008 -1.06247 -3.35
    endloop
  endfacet
  facet normal 0 0 -1
    outer loop
      vertex 6.22435 -1.12791 -3.35
      vertex 6.22435 1.1279 -3.35
      vertex 6.44008 1.06245 -3.35
    endloop
  endfacet
  facet normal 0 0 -1
    outer loop
      vertex 6 -1.15001 -3.35
      vertex 6.22435 1.1279 -3.35
      vertex 6.22435 -1.12791 -3.35
    endloop
  endfacet
  facet normal 0 0 -1
    outer loop
      vertex 6 -1.15001 -3.35
      vertex 6 1.14999 -3.35
      vertex 6.22435 1.1279 -3.35
    endloop
  endfacet
  facet normal 0 0 -1
    outer loop
      vertex 1.14999 -1.15001 -3.35
      vertex 6 1.14999 -3.35
      vertex 6 -1.15001 -3.35
    endloop
  endfacet
  facet normal 0 0 -1
    outer loop
      vertex -0.531219 -18.52 -3.35
      vertex 0.531219 -18.52 -3.35
      vertex 0.478088 -18.6194 -3.35
    endloop
  endfacet
  facet normal 0 0 -1
    outer loop
      vertex -0.531219 -18.52 -3.35
      vertex 0.478088 -18.6194 -3.35
      vertex 0.406586 -18.7066 -3.35
    endloop
  endfacet
  facet normal 0 0 -1
    outer loop
      vertex -0.531219 -18.52 -3.35
      vertex 0.406586 -18.7066 -3.35
      vertex 0.319443 -18.7781 -3.35
    endloop
  endfacet
  facet normal 0 0 -1
    outer loop
      vertex -0.531219 -18.52 -3.35
      vertex 0.319443 -18.7781 -3.35
      vertex 0.220032 -18.8312 -3.35
    endloop
  endfacet
  facet normal 0 0 -1
    outer loop
      vertex -0.531219 -18.52 -3.35
      vertex 0.220032 -18.8312 -3.35
      vertex 0.112167 -18.8639 -3.35
    endloop
  endfacet
  facet normal 0 0 -1
    outer loop
      vertex -0.531219 -18.52 -3.35
      vertex 0.112167 -18.8639 -3.35
      vertex 0 -18.875 -3.35
    endloop
  endfacet
  facet normal 0 0 -1
    outer loop
      vertex -0.531219 -18.52 -3.35
      vertex 0 -18.875 -3.35
      vertex -0.112167 -18.8639 -3.35
    endloop
  endfacet
  facet normal 0 0 -1
    outer loop
      vertex -0.531219 -18.52 -3.35
      vertex -0.112167 -18.8639 -3.35
      vertex -0.220032 -18.8312 -3.35
    endloop
  endfacet
  facet normal 0 0 -1
    outer loop
      vertex -0.531219 -18.52 -3.35
      vertex -0.220032 -18.8312 -3.35
      vertex -0.319443 -18.7781 -3.35
    endloop
  endfacet
  facet normal 0 0 -1
    outer loop
      vertex -0.531219 -18.52 -3.35
      vertex -0.319443 -18.7781 -3.35
      vertex -0.406586 -18.7066 -3.35
    endloop
  endfacet
  facet normal 0 0 -1
    outer loop
      vertex -0.531219 -18.52 -3.35
      vertex -0.406586 -18.7066 -3.35
      vertex -0.478088 -18.6194 -3.35
    endloop
  endfacet
  facet normal 0 0 -1
    outer loop
      vertex 0.531219 -18.52 -3.35
      vertex -0.531219 -18.52 -3.35
      vertex -1.14999 -17.15 -3.35
    endloop
  endfacet
  facet normal 0 0 -1
    outer loop
      vertex 1.14999 -17.15 -3.35
      vertex -1.14999 -17.15 -3.35
      vertex 1.14999 -1.15001 -3.35
    endloop
  endfacet
  facet normal 0 0 -1
    outer loop
      vertex -1.14999 -1.15001 -3.35
      vertex 1.14999 -1.15001 -3.35
      vertex -1.14999 -17.15 -3.35
    endloop
  endfacet
  facet normal 0 0 -1
    outer loop
      vertex -1.14999 -1.15001 -3.35
      vertex 6 1.14999 -3.35
      vertex 1.14999 -1.15001 -3.35
    endloop
  endfacet
  facet normal 0 0 -1
    outer loop
      vertex -6 1.14999 -3.35
      vertex -1.14999 -1.15001 -3.35
      vertex -6 -1.15001 -3.35
    endloop
  endfacet
  facet normal 0 0 -1
    outer loop
      vertex -1.14999 -1.15001 -3.35
      vertex -6 1.14999 -3.35
      vertex 6 1.14999 -3.35
    endloop
  endfacet
  facet normal 0 0 -1
    outer loop
      vertex -6.22435 -1.12791 -3.35
      vertex -6 1.14999 -3.35
      vertex -6 -1.15001 -3.35
    endloop
  endfacet
  facet normal 0 0 -1
    outer loop
      vertex -6.22435 -1.12791 -3.35
      vertex -6.22435 1.1279 -3.35
      vertex -6 1.14999 -3.35
    endloop
  endfacet
  facet normal 0 0 -1
    outer loop
      vertex -6.44008 -1.06247 -3.35
      vertex -6.22435 1.1279 -3.35
      vertex -6.22435 -1.12791 -3.35
    endloop
  endfacet
  facet normal 0 0 -1
    outer loop
      vertex -6.44008 -1.06247 -3.35
      vertex -6.44008 1.06245 -3.35
      vertex -6.22435 1.1279 -3.35
    endloop
  endfacet
  facet normal 0 0 -1
    outer loop
      vertex -6.6389 -0.956192 -3.35
      vertex -6.44008 1.06245 -3.35
      vertex -6.44008 -1.06247 -3.35
    endloop
  endfacet
  facet normal 0 0 -1
    outer loop
      vertex -6.6389 -0.956192 -3.35
      vertex -6.6389 0.956177 -3.35
      vertex -6.44008 1.06245 -3.35
    endloop
  endfacet
  facet normal 0 0 -1
    outer loop
      vertex -6.81317 -0.813187 -3.35
      vertex -6.6389 0.956177 -3.35
      vertex -6.6389 -0.956192 -3.35
    endloop
  endfacet
  facet normal 0 0 -1
    outer loop
      vertex -6.81317 -0.813187 -3.35
      vertex -6.81317 0.813171 -3.35
      vertex -6.6389 0.956177 -3.35
    endloop
  endfacet
  facet normal 0 0 -1
    outer loop
      vertex -6.95618 -0.638916 -3.35
      vertex -6.81317 0.813171 -3.35
      vertex -6.81317 -0.813187 -3.35
    endloop
  endfacet
  facet normal 0 0 -1
    outer loop
      vertex -6.95618 -0.638916 -3.35
      vertex -6.95618 0.638901 -3.35
      vertex -6.81317 0.813171 -3.35
    endloop
  endfacet
  facet normal 0 0 -1
    outer loop
      vertex -7.06245 -0.440094 -3.35
      vertex -6.95618 0.638901 -3.35
      vertex -6.95618 -0.638916 -3.35
    endloop
  endfacet
  facet normal 0 0 -1
    outer loop
      vertex -7.06245 -0.440094 -3.35
      vertex -7.06245 0.440079 -3.35
      vertex -6.95618 0.638901 -3.35
    endloop
  endfacet
  facet normal 0 0 -1
    outer loop
      vertex -7.1279 -0.224365 -3.35
      vertex -7.06245 0.440079 -3.35
      vertex -7.06245 -0.440094 -3.35
    endloop
  endfacet
  facet normal 0 0 -1
    outer loop
      vertex -7.1279 -0.224365 -3.35
      vertex -7.1279 0.22435 -3.35
      vertex -7.06245 0.440079 -3.35
    endloop
  endfacet
  facet normal 0 -0 -1
    outer loop
      vertex -7.1279 0.22435 -3.35
      vertex -7.1279 -0.224365 -3.35
      vertex -7.14999 0 -3.35
    endloop
  endfacet
  facet normal 0.881919 -0.471401 0
    outer loop
      vertex 0.478088 -18.6194 3.35
      vertex 0.531219 -18.52 -3.35
      vertex 0.531219 -18.52 3.35
    endloop
  endfacet
  facet normal 0.881919 -0.471401 0
    outer loop
      vertex 0.531219 -18.52 -3.35
      vertex 0.478088 -18.6194 3.35
      vertex 0.478088 -18.6194 -3.35
    endloop
  endfacet
  facet normal 0.773276 -0.634069 0
    outer loop
      vertex 0.406586 -18.7066 3.35
      vertex 0.478088 -18.6194 -3.35
      vertex 0.478088 -18.6194 3.35
    endloop
  endfacet
  facet normal 0.773276 -0.634069 0
    outer loop
      vertex 0.478088 -18.6194 -3.35
      vertex 0.406586 -18.7066 3.35
      vertex 0.406586 -18.7066 -3.35
    endloop
  endfacet
  facet normal 0.634306 -0.773082 0
    outer loop
      vertex 0.319443 -18.7781 -3.35
      vertex 0.406586 -18.7066 3.35
      vertex 0.319443 -18.7781 3.35
    endloop
  endfacet
  facet normal 0.634306 -0.773082 0
    outer loop
      vertex 0.406586 -18.7066 3.35
      vertex 0.319443 -18.7781 -3.35
      vertex 0.406586 -18.7066 -3.35
    endloop
  endfacet
  facet normal 0.471146 -0.882055 0
    outer loop
      vertex 0.220032 -18.8312 -3.35
      vertex 0.319443 -18.7781 3.35
      vertex 0.220032 -18.8312 3.35
    endloop
  endfacet
  facet normal 0.471146 -0.882055 0
    outer loop
      vertex 0.319443 -18.7781 3.35
      vertex 0.220032 -18.8312 -3.35
      vertex 0.319443 -18.7781 -3.35
    endloop
  endfacet
  facet normal 0.290118 -0.956991 0
    outer loop
      vertex 0.112167 -18.8639 -3.35
      vertex 0.220032 -18.8312 3.35
      vertex 0.112167 -18.8639 3.35
    endloop
  endfacet
  facet normal 0.290118 -0.956991 0
    outer loop
      vertex 0.220032 -18.8312 3.35
      vertex 0.112167 -18.8639 -3.35
      vertex 0.220032 -18.8312 -3.35
    endloop
  endfacet
  facet normal 0.0984786 -0.995139 0
    outer loop
      vertex 0 -18.875 -3.35
      vertex 0.112167 -18.8639 3.35
      vertex 0 -18.875 3.35
    endloop
  endfacet
  facet normal 0.0984786 -0.995139 0
    outer loop
      vertex 0.112167 -18.8639 3.35
      vertex 0 -18.875 -3.35
      vertex 0.112167 -18.8639 -3.35
    endloop
  endfacet
  facet normal -0.0984786 -0.995139 0
    outer loop
      vertex -0.112167 -18.8639 -3.35
      vertex 0 -18.875 3.35
      vertex -0.112167 -18.8639 3.35
    endloop
  endfacet
  facet normal -0.0984786 -0.995139 -0
    outer loop
      vertex 0 -18.875 3.35
      vertex -0.112167 -18.8639 -3.35
      vertex 0 -18.875 -3.35
    endloop
  endfacet
  facet normal -0.290118 -0.956991 0
    outer loop
      vertex -0.220032 -18.8312 -3.35
      vertex -0.112167 -18.8639 3.35
      vertex -0.220032 -18.8312 3.35
    endloop
  endfacet
  facet normal -0.290118 -0.956991 -0
    outer loop
      vertex -0.112167 -18.8639 3.35
      vertex -0.220032 -18.8312 -3.35
      vertex -0.112167 -18.8639 -3.35
    endloop
  endfacet
  facet normal -0.471146 -0.882055 0
    outer loop
      vertex -0.319443 -18.7781 -3.35
      vertex -0.220032 -18.8312 3.35
      vertex -0.319443 -18.7781 3.35
    endloop
  endfacet
  facet normal -0.471146 -0.882055 -0
    outer loop
      vertex -0.220032 -18.8312 3.35
      vertex -0.319443 -18.7781 -3.35
      vertex -0.220032 -18.8312 -3.35
    endloop
  endfacet
  facet normal -0.634306 -0.773082 0
    outer loop
      vertex -0.406586 -18.7066 -3.35
      vertex -0.319443 -18.7781 3.35
      vertex -0.406586 -18.7066 3.35
    endloop
  endfacet
  facet normal -0.634306 -0.773082 -0
    outer loop
      vertex -0.319443 -18.7781 3.35
      vertex -0.406586 -18.7066 -3.35
      vertex -0.319443 -18.7781 -3.35
    endloop
  endfacet
  facet normal -0.773276 -0.634069 0
    outer loop
      vertex -0.406586 -18.7066 -3.35
      vertex -0.478088 -18.6194 3.35
      vertex -0.478088 -18.6194 -3.35
    endloop
  endfacet
  facet normal -0.773276 -0.634069 0
    outer loop
      vertex -0.478088 -18.6194 3.35
      vertex -0.406586 -18.7066 -3.35
      vertex -0.406586 -18.7066 3.35
    endloop
  endfacet
  facet normal -0.881919 -0.471401 0
    outer loop
      vertex -0.478088 -18.6194 -3.35
      vertex -0.531219 -18.52 3.35
      vertex -0.531219 -18.52 -3.35
    endloop
  endfacet
  facet normal -0.881919 -0.471401 0
    outer loop
      vertex -0.531219 -18.52 3.35
      vertex -0.478088 -18.6194 -3.35
      vertex -0.478088 -18.6194 3.35
    endloop
  endfacet
  facet normal -0.911355 -0.411621 0
    outer loop
      vertex -0.531219 -18.52 -3.35
      vertex -1.14999 -17.15 3.35
      vertex -1.14999 -17.15 -3.35
    endloop
  endfacet
  facet normal -0.911355 -0.411621 0
    outer loop
      vertex -1.14999 -17.15 3.35
      vertex -0.531219 -18.52 -3.35
      vertex -0.531219 -18.52 3.35
    endloop
  endfacet
  facet normal -1 0 0
    outer loop
      vertex -1.14999 -17.15 -3.35
      vertex -1.14999 -1.15001 3.35
      vertex -1.14999 -1.15001 -3.35
    endloop
  endfacet
  facet normal -1 -0 0
    outer loop
      vertex -1.14999 -1.15001 3.35
      vertex -1.14999 -17.15 -3.35
      vertex -1.14999 -17.15 3.35
    endloop
  endfacet
  facet normal 0 -1 0
    outer loop
      vertex -6 -1.15001 -3.35
      vertex -1.14999 -1.15001 3.35
      vertex -6 -1.15001 3.35
    endloop
  endfacet
  facet normal 0 -1 -0
    outer loop
      vertex -1.14999 -1.15001 3.35
      vertex -6 -1.15001 -3.35
      vertex -1.14999 -1.15001 -3.35
    endloop
  endfacet
  facet normal -0.0980323 -0.995183 0
    outer loop
      vertex -6.22435 -1.12791 -3.35
      vertex -6 -1.15001 3.35
      vertex -6.22435 -1.12791 3.35
    endloop
  endfacet
  facet normal -0.0980323 -0.995183 -0
    outer loop
      vertex -6 -1.15001 3.35
      vertex -6.22435 -1.12791 -3.35
      vertex -6 -1.15001 -3.35
    endloop
  endfacet
  facet normal -0.290281 -0.956942 0
    outer loop
      vertex -6.44008 -1.06247 -3.35
      vertex -6.22435 -1.12791 3.35
      vertex -6.44008 -1.06247 3.35
    endloop
  endfacet
  facet normal -0.290281 -0.956942 -0
    outer loop
      vertex -6.22435 -1.12791 3.35
      vertex -6.44008 -1.06247 -3.35
      vertex -6.22435 -1.12791 -3.35
    endloop
  endfacet
  facet normal -0.471419 -0.881909 0
    outer loop
      vertex -6.6389 -0.956192 -3.35
      vertex -6.44008 -1.06247 3.35
      vertex -6.6389 -0.956192 3.35
    endloop
  endfacet
  facet normal -0.471419 -0.881909 -0
    outer loop
      vertex -6.44008 -1.06247 3.35
      vertex -6.6389 -0.956192 -3.35
      vertex -6.44008 -1.06247 -3.35
    endloop
  endfacet
  facet normal -0.634354 -0.773042 0
    outer loop
      vertex -6.81317 -0.813187 -3.35
      vertex -6.6389 -0.956192 3.35
      vertex -6.81317 -0.813187 3.35
    endloop
  endfacet
  facet normal -0.634354 -0.773042 -0
    outer loop
      vertex -6.6389 -0.956192 3.35
      vertex -6.81317 -0.813187 -3.35
      vertex -6.6389 -0.956192 -3.35
    endloop
  endfacet
  facet normal -0.773033 -0.634365 0
    outer loop
      vertex -6.81317 -0.813187 -3.35
      vertex -6.95618 -0.638916 3.35
      vertex -6.95618 -0.638916 -3.35
    endloop
  endfacet
  facet normal -0.773033 -0.634365 0
    outer loop
      vertex -6.95618 -0.638916 3.35
      vertex -6.81317 -0.813187 -3.35
      vertex -6.81317 -0.813187 3.35
    endloop
  endfacet
  facet normal -0.881926 -0.471388 0
    outer loop
      vertex -6.95618 -0.638916 -3.35
      vertex -7.06245 -0.440094 3.35
      vertex -7.06245 -0.440094 -3.35
    endloop
  endfacet
  facet normal -0.881926 -0.471388 0
    outer loop
      vertex -7.06245 -0.440094 3.35
      vertex -6.95618 -0.638916 -3.35
      vertex -6.95618 -0.638916 3.35
    endloop
  endfacet
  facet normal -0.956929 -0.290323 0
    outer loop
      vertex -7.06245 -0.440094 -3.35
      vertex -7.1279 -0.224365 3.35
      vertex -7.1279 -0.224365 -3.35
    endloop
  endfacet
  facet normal -0.956929 -0.290323 0
    outer loop
      vertex -7.1279 -0.224365 3.35
      vertex -7.06245 -0.440094 -3.35
      vertex -7.06245 -0.440094 3.35
    endloop
  endfacet
  facet normal -0.995188 -0.0979819 0
    outer loop
      vertex -7.1279 -0.224365 -3.35
      vertex -7.14999 0 3.35
      vertex -7.14999 0 -3.35
    endloop
  endfacet
  facet normal -0.995188 -0.0979819 0
    outer loop
      vertex -7.14999 0 3.35
      vertex -7.1279 -0.224365 -3.35
      vertex -7.1279 -0.224365 3.35
    endloop
  endfacet
  facet normal -0.995188 0.0979884 0
    outer loop
      vertex -7.14999 0 -3.35
      vertex -7.1279 0.22435 3.35
      vertex -7.1279 0.22435 -3.35
    endloop
  endfacet
  facet normal -0.995188 0.0979884 0
    outer loop
      vertex -7.1279 0.22435 3.35
      vertex -7.14999 0 -3.35
      vertex -7.14999 0 3.35
    endloop
  endfacet
  facet normal -0.956929 0.290323 0
    outer loop
      vertex -7.1279 0.22435 -3.35
      vertex -7.06245 0.440079 3.35
      vertex -7.06245 0.440079 -3.35
    endloop
  endfacet
  facet normal -0.956929 0.290323 0
    outer loop
      vertex -7.06245 0.440079 3.35
      vertex -7.1279 0.22435 -3.35
      vertex -7.1279 0.22435 3.35
    endloop
  endfacet
  facet normal -0.881926 0.471388 0
    outer loop
      vertex -7.06245 0.440079 -3.35
      vertex -6.95618 0.638901 3.35
      vertex -6.95618 0.638901 -3.35
    endloop
  endfacet
  facet normal -0.881926 0.471388 0
    outer loop
      vertex -6.95618 0.638901 3.35
      vertex -7.06245 0.440079 -3.35
      vertex -7.06245 0.440079 3.35
    endloop
  endfacet
  facet normal -0.773032 0.634368 0
    outer loop
      vertex -6.95618 0.638901 -3.35
      vertex -6.81317 0.813171 3.35
      vertex -6.81317 0.813171 -3.35
    endloop
  endfacet
  facet normal -0.773032 0.634368 0
    outer loop
      vertex -6.81317 0.813171 3.35
      vertex -6.95618 0.638901 -3.35
      vertex -6.95618 0.638901 3.35
    endloop
  endfacet
  facet normal -0.634357 0.77304 0
    outer loop
      vertex -6.6389 0.956177 -3.35
      vertex -6.81317 0.813171 3.35
      vertex -6.6389 0.956177 3.35
    endloop
  endfacet
  facet normal -0.634357 0.77304 0
    outer loop
      vertex -6.81317 0.813171 3.35
      vertex -6.6389 0.956177 -3.35
      vertex -6.81317 0.813171 -3.35
    endloop
  endfacet
  facet normal -0.471402 0.881919 0
    outer loop
      vertex -6.44008 1.06245 -3.35
      vertex -6.6389 0.956177 3.35
      vertex -6.44008 1.06245 3.35
    endloop
  endfacet
  facet normal -0.471402 0.881919 0
    outer loop
      vertex -6.6389 0.956177 3.35
      vertex -6.44008 1.06245 -3.35
      vertex -6.6389 0.956177 -3.35
    endloop
  endfacet
  facet normal -0.290321 0.956929 0
    outer loop
      vertex -6.22435 1.1279 -3.35
      vertex -6.44008 1.06245 3.35
      vertex -6.22435 1.1279 3.35
    endloop
  endfacet
  facet normal -0.290321 0.956929 0
    outer loop
      vertex -6.44008 1.06245 3.35
      vertex -6.22435 1.1279 -3.35
      vertex -6.44008 1.06245 -3.35
    endloop
  endfacet
  facet normal -0.0979884 0.995188 0
    outer loop
      vertex -6 1.14999 -3.35
      vertex -6.22435 1.1279 3.35
      vertex -6 1.14999 3.35
    endloop
  endfacet
  facet normal -0.0979884 0.995188 0
    outer loop
      vertex -6.22435 1.1279 3.35
      vertex -6 1.14999 -3.35
      vertex -6.22435 1.1279 -3.35
    endloop
  endfacet
  facet normal 0 1 -0
    outer loop
      vertex 6 1.14999 -3.35
      vertex -6 1.14999 3.35
      vertex 6 1.14999 3.35
    endloop
  endfacet
  facet normal 0 1 0
    outer loop
      vertex -6 1.14999 3.35
      vertex 6 1.14999 -3.35
      vertex -6 1.14999 -3.35
    endloop
  endfacet
  facet normal 0.0979884 0.995188 -0
    outer loop
      vertex 6.22435 1.1279 -3.35
      vertex 6 1.14999 3.35
      vertex 6.22435 1.1279 3.35
    endloop
  endfacet
  facet normal 0.0979884 0.995188 0
    outer loop
      vertex 6 1.14999 3.35
      vertex 6.22435 1.1279 -3.35
      vertex 6 1.14999 -3.35
    endloop
  endfacet
  facet normal 0.290321 0.956929 -0
    outer loop
      vertex 6.44008 1.06245 -3.35
      vertex 6.22435 1.1279 3.35
      vertex 6.44008 1.06245 3.35
    endloop
  endfacet
  facet normal 0.290321 0.956929 0
    outer loop
      vertex 6.22435 1.1279 3.35
      vertex 6.44008 1.06245 -3.35
      vertex 6.22435 1.1279 -3.35
    endloop
  endfacet
  facet normal 0.471402 0.881919 -0
    outer loop
      vertex 6.6389 0.956177 -3.35
      vertex 6.44008 1.06245 3.35
      vertex 6.6389 0.956177 3.35
    endloop
  endfacet
  facet normal 0.471402 0.881919 0
    outer loop
      vertex 6.44008 1.06245 3.35
      vertex 6.6389 0.956177 -3.35
      vertex 6.44008 1.06245 -3.35
    endloop
  endfacet
  facet normal 0.634357 0.77304 -0
    outer loop
      vertex 6.81317 0.813171 -3.35
      vertex 6.6389 0.956177 3.35
      vertex 6.81317 0.813171 3.35
    endloop
  endfacet
  facet normal 0.634357 0.77304 0
    outer loop
      vertex 6.6389 0.956177 3.35
      vertex 6.81317 0.813171 -3.35
      vertex 6.6389 0.956177 -3.35
    endloop
  endfacet
  facet normal 0.773032 0.634368 0
    outer loop
      vertex 6.95618 0.638901 3.35
      vertex 6.81317 0.813171 -3.35
      vertex 6.81317 0.813171 3.35
    endloop
  endfacet
  facet normal 0.773032 0.634368 0
    outer loop
      vertex 6.81317 0.813171 -3.35
      vertex 6.95618 0.638901 3.35
      vertex 6.95618 0.638901 -3.35
    endloop
  endfacet
  facet normal 0.881926 0.471388 0
    outer loop
      vertex 7.06245 0.440079 3.35
      vertex 6.95618 0.638901 -3.35
      vertex 6.95618 0.638901 3.35
    endloop
  endfacet
  facet normal 0.881926 0.471388 0
    outer loop
      vertex 6.95618 0.638901 -3.35
      vertex 7.06245 0.440079 3.35
      vertex 7.06245 0.440079 -3.35
    endloop
  endfacet
  facet normal 0.956929 0.290323 0
    outer loop
      vertex 7.1279 0.22435 3.35
      vertex 7.06245 0.440079 -3.35
      vertex 7.06245 0.440079 3.35
    endloop
  endfacet
  facet normal 0.956929 0.290323 0
    outer loop
      vertex 7.06245 0.440079 -3.35
      vertex 7.1279 0.22435 3.35
      vertex 7.1279 0.22435 -3.35
    endloop
  endfacet
  facet normal 0.995188 0.0979884 0
    outer loop
      vertex 7.14999 0 3.35
      vertex 7.1279 0.22435 -3.35
      vertex 7.1279 0.22435 3.35
    endloop
  endfacet
  facet normal 0.995188 0.0979884 0
    outer loop
      vertex 7.1279 0.22435 -3.35
      vertex 7.14999 0 3.35
      vertex 7.14999 0 -3.35
    endloop
  endfacet
  facet normal 0.995188 -0.0979819 0
    outer loop
      vertex 7.1279 -0.224365 3.35
      vertex 7.14999 0 -3.35
      vertex 7.14999 0 3.35
    endloop
  endfacet
  facet normal 0.995188 -0.0979819 0
    outer loop
      vertex 7.14999 0 -3.35
      vertex 7.1279 -0.224365 3.35
      vertex 7.1279 -0.224365 -3.35
    endloop
  endfacet
  facet normal 0.956929 -0.290323 0
    outer loop
      vertex 7.06245 -0.440094 3.35
      vertex 7.1279 -0.224365 -3.35
      vertex 7.1279 -0.224365 3.35
    endloop
  endfacet
  facet normal 0.956929 -0.290323 0
    outer loop
      vertex 7.1279 -0.224365 -3.35
      vertex 7.06245 -0.440094 3.35
      vertex 7.06245 -0.440094 -3.35
    endloop
  endfacet
  facet normal 0.881926 -0.471388 0
    outer loop
      vertex 6.95618 -0.638916 3.35
      vertex 7.06245 -0.440094 -3.35
      vertex 7.06245 -0.440094 3.35
    endloop
  endfacet
  facet normal 0.881926 -0.471388 0
    outer loop
      vertex 7.06245 -0.440094 -3.35
      vertex 6.95618 -0.638916 3.35
      vertex 6.95618 -0.638916 -3.35
    endloop
  endfacet
  facet normal 0.773033 -0.634365 0
    outer loop
      vertex 6.81317 -0.813187 3.35
      vertex 6.95618 -0.638916 -3.35
      vertex 6.95618 -0.638916 3.35
    endloop
  endfacet
  facet normal 0.773033 -0.634365 0
    outer loop
      vertex 6.95618 -0.638916 -3.35
      vertex 6.81317 -0.813187 3.35
      vertex 6.81317 -0.813187 -3.35
    endloop
  endfacet
  facet normal 0.634354 -0.773042 0
    outer loop
      vertex 6.6389 -0.956192 -3.35
      vertex 6.81317 -0.813187 3.35
      vertex 6.6389 -0.956192 3.35
    endloop
  endfacet
  facet normal 0.634354 -0.773042 0
    outer loop
      vertex 6.81317 -0.813187 3.35
      vertex 6.6389 -0.956192 -3.35
      vertex 6.81317 -0.813187 -3.35
    endloop
  endfacet
  facet normal 0.471419 -0.881909 0
    outer loop
      vertex 6.44008 -1.06247 -3.35
      vertex 6.6389 -0.956192 3.35
      vertex 6.44008 -1.06247 3.35
    endloop
  endfacet
  facet normal 0.471419 -0.881909 0
    outer loop
      vertex 6.6389 -0.956192 3.35
      vertex 6.44008 -1.06247 -3.35
      vertex 6.6389 -0.956192 -3.35
    endloop
  endfacet
  facet normal 0.290281 -0.956942 0
    outer loop
      vertex 6.22435 -1.12791 -3.35
      vertex 6.44008 -1.06247 3.35
      vertex 6.22435 -1.12791 3.35
    endloop
  endfacet
  facet normal 0.290281 -0.956942 0
    outer loop
      vertex 6.44008 -1.06247 3.35
      vertex 6.22435 -1.12791 -3.35
      vertex 6.44008 -1.06247 -3.35
    endloop
  endfacet
  facet normal 0.0980323 -0.995183 0
    outer loop
      vertex 6 -1.15001 -3.35
      vertex 6.22435 -1.12791 3.35
      vertex 6 -1.15001 3.35
    endloop
  endfacet
  facet normal 0.0980323 -0.995183 0
    outer loop
      vertex 6.22435 -1.12791 3.35
      vertex 6 -1.15001 -3.35
      vertex 6.22435 -1.12791 -3.35
    endloop
  endfacet
  facet normal 0 -1 0
    outer loop
      vertex 1.14999 -1.15001 -3.35
      vertex 6 -1.15001 3.35
      vertex 1.14999 -1.15001 3.35
    endloop
  endfacet
  facet normal 0 -1 -0
    outer loop
      vertex 6 -1.15001 3.35
      vertex 1.14999 -1.15001 -3.35
      vertex 6 -1.15001 -3.35
    endloop
  endfacet
  facet normal 1 -0 0
    outer loop
      vertex 1.14999 -17.15 3.35
      vertex 1.14999 -1.15001 -3.35
      vertex 1.14999 -1.15001 3.35
    endloop
  endfacet
  facet normal 1 0 0
    outer loop
      vertex 1.14999 -1.15001 -3.35
      vertex 1.14999 -17.15 3.35
      vertex 1.14999 -17.15 -3.35
    endloop
  endfacet
  facet normal 0.911355 -0.411621 0
    outer loop
      vertex 0.531219 -18.52 3.35
      vertex 1.14999 -17.15 -3.35
      vertex 1.14999 -17.15 3.35
    endloop
  endfacet
  facet normal 0.911355 -0.411621 0
    outer loop
      vertex 1.14999 -17.15 -3.35
      vertex 0.531219 -18.52 3.35
      vertex 0.531219 -18.52 -3.35
    endloop
  endfacet
  facet normal 0 0 1
    outer loop
      vertex -2.8721 5.22435 3.35
      vertex -2.8721 4.77563 3.35
      vertex -2.85001 5 3.35
    endloop
  endfacet
  facet normal 0 0 1
    outer loop
      vertex -2.93755 5.44008 3.35
      vertex -2.8721 4.77563 3.35
      vertex -2.8721 5.22435 3.35
    endloop
  endfacet
  facet normal 0 0 1
    outer loop
      vertex -2.93755 5.44008 3.35
      vertex -2.93755 4.55991 3.35
      vertex -2.8721 4.77563 3.35
    endloop
  endfacet
  facet normal 0 0 1
    outer loop
      vertex -3.04382 5.6389 3.35
      vertex -2.93755 4.55991 3.35
      vertex -2.93755 5.44008 3.35
    endloop
  endfacet
  facet normal 0 0 1
    outer loop
      vertex -3.04382 5.6389 3.35
      vertex -3.04382 4.36108 3.35
      vertex -2.93755 4.55991 3.35
    endloop
  endfacet
  facet normal 0 0 1
    outer loop
      vertex -3.18683 5.81317 3.35
      vertex -3.04382 4.36108 3.35
      vertex -3.04382 5.6389 3.35
    endloop
  endfacet
  facet normal 0 0 1
    outer loop
      vertex -3.18683 5.81317 3.35
      vertex -3.18683 4.18681 3.35
      vertex -3.04382 4.36108 3.35
    endloop
  endfacet
  facet normal 0 0 1
    outer loop
      vertex -3.3611 5.95618 3.35
      vertex -3.18683 4.18681 3.35
      vertex -3.18683 5.81317 3.35
    endloop
  endfacet
  facet normal 0 0 1
    outer loop
      vertex -3.3611 5.95618 3.35
      vertex -3.3611 4.04381 3.35
      vertex -3.18683 4.18681 3.35
    endloop
  endfacet
  facet normal 0 0 1
    outer loop
      vertex -3.55992 6.06245 3.35
      vertex -3.3611 4.04381 3.35
      vertex -3.3611 5.95618 3.35
    endloop
  endfacet
  facet normal 0 0 1
    outer loop
      vertex -3.55992 6.06245 3.35
      vertex -3.55992 3.93753 3.35
      vertex -3.3611 4.04381 3.35
    endloop
  endfacet
  facet normal 0 0 1
    outer loop
      vertex -3.77565 6.1279 3.35
      vertex -3.55992 3.93753 3.35
      vertex -3.55992 6.06245 3.35
    endloop
  endfacet
  facet normal 0 0 1
    outer loop
      vertex -3.77565 6.1279 3.35
      vertex -3.77565 3.87209 3.35
      vertex -3.55992 3.93753 3.35
    endloop
  endfacet
  facet normal 0 0 1
    outer loop
      vertex -4 6.14999 3.35
      vertex -3.77565 3.87209 3.35
      vertex -3.77565 6.1279 3.35
    endloop
  endfacet
  facet normal 0 0 1
    outer loop
      vertex -4 6.14999 3.35
      vertex -4 3.84999 3.35
      vertex -3.77565 3.87209 3.35
    endloop
  endfacet
  facet normal 0 0 1
    outer loop
      vertex -4 6.14999 3.35
      vertex -8.85001 3.84999 3.35
      vertex -4 3.84999 3.35
    endloop
  endfacet
  facet normal 0 0 1
    outer loop
      vertex -11.15 -12.15 3.35
      vertex -8.85001 -12.15 3.35
      vertex -8.85001 3.84999 3.35
    endloop
  endfacet
  facet normal 0 0 1
    outer loop
      vertex -8.85001 -12.15 3.35
      vertex -11.15 -12.15 3.35
      vertex -9.46878 -13.52 3.35
    endloop
  endfacet
  facet normal 0 -0 1
    outer loop
      vertex -10.5312 -13.52 3.35
      vertex -9.46878 -13.52 3.35
      vertex -11.15 -12.15 3.35
    endloop
  endfacet
  facet normal 0 0 1
    outer loop
      vertex -9.46878 -13.52 3.35
      vertex -10.5312 -13.52 3.35
      vertex -9.52191 -13.6194 3.35
    endloop
  endfacet
  facet normal 0 0 1
    outer loop
      vertex -9.52191 -13.6194 3.35
      vertex -10.5312 -13.52 3.35
      vertex -9.59341 -13.7066 3.35
    endloop
  endfacet
  facet normal 0 0 1
    outer loop
      vertex -9.59341 -13.7066 3.35
      vertex -10.5312 -13.52 3.35
      vertex -9.68056 -13.7781 3.35
    endloop
  endfacet
  facet normal 0 0 1
    outer loop
      vertex -9.68056 -13.7781 3.35
      vertex -10.5312 -13.52 3.35
      vertex -9.77997 -13.8312 3.35
    endloop
  endfacet
  facet normal 0 0 1
    outer loop
      vertex -9.77997 -13.8312 3.35
      vertex -10.5312 -13.52 3.35
      vertex -9.88783 -13.8639 3.35
    endloop
  endfacet
  facet normal 0 0 1
    outer loop
      vertex -9.88783 -13.8639 3.35
      vertex -10.5312 -13.52 3.35
      vertex -10 -13.875 3.35
    endloop
  endfacet
  facet normal 0 0 1
    outer loop
      vertex -10 -13.875 3.35
      vertex -10.5312 -13.52 3.35
      vertex -10.1122 -13.8639 3.35
    endloop
  endfacet
  facet normal 0 0 1
    outer loop
      vertex -10.1122 -13.8639 3.35
      vertex -10.5312 -13.52 3.35
      vertex -10.22 -13.8312 3.35
    endloop
  endfacet
  facet normal 0 0 1
    outer loop
      vertex -10.22 -13.8312 3.35
      vertex -10.5312 -13.52 3.35
      vertex -10.3194 -13.7781 3.35
    endloop
  endfacet
  facet normal 0 0 1
    outer loop
      vertex -10.3194 -13.7781 3.35
      vertex -10.5312 -13.52 3.35
      vertex -10.4066 -13.7066 3.35
    endloop
  endfacet
  facet normal 0 0 1
    outer loop
      vertex -11.15 -12.15 3.35
      vertex -8.85001 3.84999 3.35
      vertex -11.15 3.84999 3.35
    endloop
  endfacet
  facet normal 0 0 1
    outer loop
      vertex -4 6.14999 3.35
      vertex -11.15 3.84999 3.35
      vertex -8.85001 3.84999 3.35
    endloop
  endfacet
  facet normal -0 0 1
    outer loop
      vertex -16 6.14999 3.35
      vertex -11.15 3.84999 3.35
      vertex -4 6.14999 3.35
    endloop
  endfacet
  facet normal 0 0 1
    outer loop
      vertex -16 6.14999 3.35
      vertex -16 3.84999 3.35
      vertex -11.15 3.84999 3.35
    endloop
  endfacet
  facet normal -0 0 1
    outer loop
      vertex -16.2243 6.1279 3.35
      vertex -16 3.84999 3.35
      vertex -16 6.14999 3.35
    endloop
  endfacet
  facet normal 0 0 1
    outer loop
      vertex -16.2243 6.1279 3.35
      vertex -16.2243 3.87209 3.35
      vertex -16 3.84999 3.35
    endloop
  endfacet
  facet normal -0 0 1
    outer loop
      vertex -16.4401 6.06245 3.35
      vertex -16.2243 3.87209 3.35
      vertex -16.2243 6.1279 3.35
    endloop
  endfacet
  facet normal 0 0 1
    outer loop
      vertex -16.4401 6.06245 3.35
      vertex -16.4401 3.93753 3.35
      vertex -16.2243 3.87209 3.35
    endloop
  endfacet
  facet normal -0 0 1
    outer loop
      vertex -16.6389 5.95618 3.35
      vertex -16.4401 3.93753 3.35
      vertex -16.4401 6.06245 3.35
    endloop
  endfacet
  facet normal 0 0 1
    outer loop
      vertex -16.6389 5.95618 3.35
      vertex -16.6389 4.04381 3.35
      vertex -16.4401 3.93753 3.35
    endloop
  endfacet
  facet normal -0 0 1
    outer loop
      vertex -16.8132 5.81317 3.35
      vertex -16.6389 4.04381 3.35
      vertex -16.6389 5.95618 3.35
    endloop
  endfacet
  facet normal 0 0 1
    outer loop
      vertex -16.8132 5.81317 3.35
      vertex -16.8132 4.18681 3.35
      vertex -16.6389 4.04381 3.35
    endloop
  endfacet
  facet normal -0 0 1
    outer loop
      vertex -16.9562 5.6389 3.35
      vertex -16.8132 4.18681 3.35
      vertex -16.8132 5.81317 3.35
    endloop
  endfacet
  facet normal 0 0 1
    outer loop
      vertex -16.9562 5.6389 3.35
      vertex -16.9562 4.36108 3.35
      vertex -16.8132 4.18681 3.35
    endloop
  endfacet
  facet normal -0 0 1
    outer loop
      vertex -17.0625 5.44008 3.35
      vertex -16.9562 4.36108 3.35
      vertex -16.9562 5.6389 3.35
    endloop
  endfacet
  facet normal 0 0 1
    outer loop
      vertex -17.0625 5.44008 3.35
      vertex -17.0625 4.55991 3.35
      vertex -16.9562 4.36108 3.35
    endloop
  endfacet
  facet normal -0 0 1
    outer loop
      vertex -17.1279 5.22435 3.35
      vertex -17.0625 4.55991 3.35
      vertex -17.0625 5.44008 3.35
    endloop
  endfacet
  facet normal 0 0 1
    outer loop
      vertex -17.1279 5.22435 3.35
      vertex -17.1279 4.77563 3.35
      vertex -17.0625 4.55991 3.35
    endloop
  endfacet
  facet normal 0 -0 1
    outer loop
      vertex -17.1279 4.77563 3.35
      vertex -17.1279 5.22435 3.35
      vertex -17.15 5 3.35
    endloop
  endfacet
  facet normal 0 0 1
    outer loop
      vertex -10.4066 -13.7066 3.35
      vertex -10.5312 -13.52 3.35
      vertex -10.4781 -13.6194 3.35
    endloop
  endfacet
  facet normal 0 0 -1
    outer loop
      vertex -11.15 -12.15 -3.35
      vertex -8.85001 -12.15 -3.35
      vertex -9.46878 -13.52 -3.35
    endloop
  endfacet
  facet normal 0 0 -1
    outer loop
      vertex -2.8721 4.77563 -3.35
      vertex -2.8721 5.22435 -3.35
      vertex -2.85001 5 -3.35
    endloop
  endfacet
  facet normal 0 0 -1
    outer loop
      vertex -2.93755 4.55991 -3.35
      vertex -2.8721 5.22435 -3.35
      vertex -2.8721 4.77563 -3.35
    endloop
  endfacet
  facet normal 0 0 -1
    outer loop
      vertex -2.93755 4.55991 -3.35
      vertex -2.93755 5.44008 -3.35
      vertex -2.8721 5.22435 -3.35
    endloop
  endfacet
  facet normal 0 0 -1
    outer loop
      vertex -3.04382 4.36108 -3.35
      vertex -2.93755 5.44008 -3.35
      vertex -2.93755 4.55991 -3.35
    endloop
  endfacet
  facet normal 0 0 -1
    outer loop
      vertex -3.04382 4.36108 -3.35
      vertex -3.04382 5.6389 -3.35
      vertex -2.93755 5.44008 -3.35
    endloop
  endfacet
  facet normal 0 0 -1
    outer loop
      vertex -3.18683 4.18681 -3.35
      vertex -3.04382 5.6389 -3.35
      vertex -3.04382 4.36108 -3.35
    endloop
  endfacet
  facet normal 0 0 -1
    outer loop
      vertex -3.18683 4.18681 -3.35
      vertex -3.18683 5.81317 -3.35
      vertex -3.04382 5.6389 -3.35
    endloop
  endfacet
  facet normal 0 0 -1
    outer loop
      vertex -3.3611 4.04381 -3.35
      vertex -3.18683 5.81317 -3.35
      vertex -3.18683 4.18681 -3.35
    endloop
  endfacet
  facet normal 0 0 -1
    outer loop
      vertex -3.3611 4.04381 -3.35
      vertex -3.3611 5.95618 -3.35
      vertex -3.18683 5.81317 -3.35
    endloop
  endfacet
  facet normal 0 0 -1
    outer loop
      vertex -3.55992 3.93753 -3.35
      vertex -3.3611 5.95618 -3.35
      vertex -3.3611 4.04381 -3.35
    endloop
  endfacet
  facet normal 0 0 -1
    outer loop
      vertex -3.55992 3.93753 -3.35
      vertex -3.55992 6.06245 -3.35
      vertex -3.3611 5.95618 -3.35
    endloop
  endfacet
  facet normal 0 0 -1
    outer loop
      vertex -3.77565 3.87209 -3.35
      vertex -3.55992 6.06245 -3.35
      vertex -3.55992 3.93753 -3.35
    endloop
  endfacet
  facet normal 0 0 -1
    outer loop
      vertex -3.77565 3.87209 -3.35
      vertex -3.77565 6.1279 -3.35
      vertex -3.55992 6.06245 -3.35
    endloop
  endfacet
  facet normal 0 0 -1
    outer loop
      vertex -4 3.84999 -3.35
      vertex -3.77565 6.1279 -3.35
      vertex -3.77565 3.87209 -3.35
    endloop
  endfacet
  facet normal 0 0 -1
    outer loop
      vertex -4 3.84999 -3.35
      vertex -4 6.14999 -3.35
      vertex -3.77565 6.1279 -3.35
    endloop
  endfacet
  facet normal 0 0 -1
    outer loop
      vertex -8.85001 3.84999 -3.35
      vertex -4 6.14999 -3.35
      vertex -4 3.84999 -3.35
    endloop
  endfacet
  facet normal 0 0 -1
    outer loop
      vertex -10.5312 -13.52 -3.35
      vertex -9.46878 -13.52 -3.35
      vertex -9.52191 -13.6194 -3.35
    endloop
  endfacet
  facet normal 0 0 -1
    outer loop
      vertex -10.5312 -13.52 -3.35
      vertex -9.52191 -13.6194 -3.35
      vertex -9.59341 -13.7066 -3.35
    endloop
  endfacet
  facet normal 0 0 -1
    outer loop
      vertex -10.5312 -13.52 -3.35
      vertex -9.59341 -13.7066 -3.35
      vertex -9.68056 -13.7781 -3.35
    endloop
  endfacet
  facet normal 0 0 -1
    outer loop
      vertex -10.5312 -13.52 -3.35
      vertex -9.68056 -13.7781 -3.35
      vertex -9.77997 -13.8312 -3.35
    endloop
  endfacet
  facet normal 0 0 -1
    outer loop
      vertex -10.5312 -13.52 -3.35
      vertex -9.77997 -13.8312 -3.35
      vertex -9.88783 -13.8639 -3.35
    endloop
  endfacet
  facet normal 0 0 -1
    outer loop
      vertex -10.5312 -13.52 -3.35
      vertex -9.88783 -13.8639 -3.35
      vertex -10 -13.875 -3.35
    endloop
  endfacet
  facet normal 0 0 -1
    outer loop
      vertex -10.5312 -13.52 -3.35
      vertex -10 -13.875 -3.35
      vertex -10.1122 -13.8639 -3.35
    endloop
  endfacet
  facet normal 0 0 -1
    outer loop
      vertex -10.5312 -13.52 -3.35
      vertex -10.1122 -13.8639 -3.35
      vertex -10.22 -13.8312 -3.35
    endloop
  endfacet
  facet normal 0 0 -1
    outer loop
      vertex -10.5312 -13.52 -3.35
      vertex -10.22 -13.8312 -3.35
      vertex -10.3194 -13.7781 -3.35
    endloop
  endfacet
  facet normal 0 0 -1
    outer loop
      vertex -10.5312 -13.52 -3.35
      vertex -10.3194 -13.7781 -3.35
      vertex -10.4066 -13.7066 -3.35
    endloop
  endfacet
  facet normal 0 0 -1
    outer loop
      vertex -10.5312 -13.52 -3.35
      vertex -10.4066 -13.7066 -3.35
      vertex -10.4781 -13.6194 -3.35
    endloop
  endfacet
  facet normal 0 0 -1
    outer loop
      vertex -9.46878 -13.52 -3.35
      vertex -10.5312 -13.52 -3.35
      vertex -11.15 -12.15 -3.35
    endloop
  endfacet
  facet normal 0 0 -1
    outer loop
      vertex -8.85001 -12.15 -3.35
      vertex -11.15 -12.15 -3.35
      vertex -8.85001 3.84999 -3.35
    endloop
  endfacet
  facet normal 0 0 -1
    outer loop
      vertex -11.15 3.84999 -3.35
      vertex -8.85001 3.84999 -3.35
      vertex -11.15 -12.15 -3.35
    endloop
  endfacet
  facet normal 0 0 -1
    outer loop
      vertex -11.15 3.84999 -3.35
      vertex -4 6.14999 -3.35
      vertex -8.85001 3.84999 -3.35
    endloop
  endfacet
  facet normal 0 0 -1
    outer loop
      vertex -16 6.14999 -3.35
      vertex -11.15 3.84999 -3.35
      vertex -16 3.84999 -3.35
    endloop
  endfacet
  facet normal 0 0 -1
    outer loop
      vertex -11.15 3.84999 -3.35
      vertex -16 6.14999 -3.35
      vertex -4 6.14999 -3.35
    endloop
  endfacet
  facet normal 0 0 -1
    outer loop
      vertex -16.2243 3.87209 -3.35
      vertex -16 6.14999 -3.35
      vertex -16 3.84999 -3.35
    endloop
  endfacet
  facet normal 0 0 -1
    outer loop
      vertex -16.2243 3.87209 -3.35
      vertex -16.2243 6.1279 -3.35
      vertex -16 6.14999 -3.35
    endloop
  endfacet
  facet normal 0 0 -1
    outer loop
      vertex -16.4401 3.93753 -3.35
      vertex -16.2243 6.1279 -3.35
      vertex -16.2243 3.87209 -3.35
    endloop
  endfacet
  facet normal 0 0 -1
    outer loop
      vertex -16.4401 3.93753 -3.35
      vertex -16.4401 6.06245 -3.35
      vertex -16.2243 6.1279 -3.35
    endloop
  endfacet
  facet normal 0 0 -1
    outer loop
      vertex -16.6389 4.04381 -3.35
      vertex -16.4401 6.06245 -3.35
      vertex -16.4401 3.93753 -3.35
    endloop
  endfacet
  facet normal 0 0 -1
    outer loop
      vertex -16.6389 4.04381 -3.35
      vertex -16.6389 5.95618 -3.35
      vertex -16.4401 6.06245 -3.35
    endloop
  endfacet
  facet normal 0 0 -1
    outer loop
      vertex -16.8132 4.18681 -3.35
      vertex -16.6389 5.95618 -3.35
      vertex -16.6389 4.04381 -3.35
    endloop
  endfacet
  facet normal 0 0 -1
    outer loop
      vertex -16.8132 4.18681 -3.35
      vertex -16.8132 5.81317 -3.35
      vertex -16.6389 5.95618 -3.35
    endloop
  endfacet
  facet normal 0 0 -1
    outer loop
      vertex -16.9562 4.36108 -3.35
      vertex -16.8132 5.81317 -3.35
      vertex -16.8132 4.18681 -3.35
    endloop
  endfacet
  facet normal 0 0 -1
    outer loop
      vertex -16.9562 4.36108 -3.35
      vertex -16.9562 5.6389 -3.35
      vertex -16.8132 5.81317 -3.35
    endloop
  endfacet
  facet normal 0 0 -1
    outer loop
      vertex -17.0625 4.55991 -3.35
      vertex -16.9562 5.6389 -3.35
      vertex -16.9562 4.36108 -3.35
    endloop
  endfacet
  facet normal 0 0 -1
    outer loop
      vertex -17.0625 4.55991 -3.35
      vertex -17.0625 5.44008 -3.35
      vertex -16.9562 5.6389 -3.35
    endloop
  endfacet
  facet normal 0 0 -1
    outer loop
      vertex -17.1279 4.77563 -3.35
      vertex -17.0625 5.44008 -3.35
      vertex -17.0625 4.55991 -3.35
    endloop
  endfacet
  facet normal 0 0 -1
    outer loop
      vertex -17.1279 4.77563 -3.35
      vertex -17.1279 5.22435 -3.35
      vertex -17.0625 5.44008 -3.35
    endloop
  endfacet
  facet normal 0 -0 -1
    outer loop
      vertex -17.1279 5.22435 -3.35
      vertex -17.1279 4.77563 -3.35
      vertex -17.15 5 -3.35
    endloop
  endfacet
  facet normal 0.881923 -0.471394 0
    outer loop
      vertex -9.52191 -13.6194 3.35
      vertex -9.46878 -13.52 -3.35
      vertex -9.46878 -13.52 3.35
    endloop
  endfacet
  facet normal 0.881923 -0.471394 0
    outer loop
      vertex -9.46878 -13.52 -3.35
      vertex -9.52191 -13.6194 3.35
      vertex -9.52191 -13.6194 -3.35
    endloop
  endfacet
  facet normal 0.773285 -0.634058 0
    outer loop
      vertex -9.59341 -13.7066 3.35
      vertex -9.52191 -13.6194 -3.35
      vertex -9.52191 -13.6194 3.35
    endloop
  endfacet
  facet normal 0.773285 -0.634058 0
    outer loop
      vertex -9.52191 -13.6194 -3.35
      vertex -9.59341 -13.7066 3.35
      vertex -9.59341 -13.7066 -3.35
    endloop
  endfacet
  facet normal 0.634276 -0.773107 0
    outer loop
      vertex -9.68056 -13.7781 -3.35
      vertex -9.59341 -13.7066 3.35
      vertex -9.68056 -13.7781 3.35
    endloop
  endfacet
  facet normal 0.634276 -0.773107 0
    outer loop
      vertex -9.59341 -13.7066 3.35
      vertex -9.68056 -13.7781 -3.35
      vertex -9.59341 -13.7066 -3.35
    endloop
  endfacet
  facet normal 0.47115 -0.882053 0
    outer loop
      vertex -9.77997 -13.8312 -3.35
      vertex -9.68056 -13.7781 3.35
      vertex -9.77997 -13.8312 3.35
    endloop
  endfacet
  facet normal 0.47115 -0.882053 0
    outer loop
      vertex -9.68056 -13.7781 3.35
      vertex -9.77997 -13.8312 -3.35
      vertex -9.68056 -13.7781 -3.35
    endloop
  endfacet
  facet normal 0.290131 -0.956987 0
    outer loop
      vertex -9.88783 -13.8639 -3.35
      vertex -9.77997 -13.8312 3.35
      vertex -9.88783 -13.8639 3.35
    endloop
  endfacet
  facet normal 0.290131 -0.956987 0
    outer loop
      vertex -9.77997 -13.8312 3.35
      vertex -9.88783 -13.8639 -3.35
      vertex -9.77997 -13.8312 -3.35
    endloop
  endfacet
  facet normal 0.098476 -0.995139 0
    outer loop
      vertex -10 -13.875 -3.35
      vertex -9.88783 -13.8639 3.35
      vertex -10 -13.875 3.35
    endloop
  endfacet
  facet normal 0.098476 -0.995139 0
    outer loop
      vertex -9.88783 -13.8639 3.35
      vertex -10 -13.875 -3.35
      vertex -9.88783 -13.8639 -3.35
    endloop
  endfacet
  facet normal -0.0984499 -0.995142 0
    outer loop
      vertex -10.1122 -13.8639 -3.35
      vertex -10 -13.875 3.35
      vertex -10.1122 -13.8639 3.35
    endloop
  endfacet
  facet normal -0.0984499 -0.995142 -0
    outer loop
      vertex -10 -13.875 3.35
      vertex -10.1122 -13.8639 -3.35
      vertex -10 -13.875 -3.35
    endloop
  endfacet
  facet normal -0.290278 -0.956942 0
    outer loop
      vertex -10.22 -13.8312 -3.35
      vertex -10.1122 -13.8639 3.35
      vertex -10.22 -13.8312 3.35
    endloop
  endfacet
  facet normal -0.290278 -0.956942 -0
    outer loop
      vertex -10.1122 -13.8639 3.35
      vertex -10.22 -13.8312 -3.35
      vertex -10.1122 -13.8639 -3.35
    endloop
  endfacet
  facet normal -0.471187 -0.882033 0
    outer loop
      vertex -10.3194 -13.7781 -3.35
      vertex -10.22 -13.8312 3.35
      vertex -10.3194 -13.7781 3.35
    endloop
  endfacet
  facet normal -0.471187 -0.882033 -0
    outer loop
      vertex -10.22 -13.8312 3.35
      vertex -10.3194 -13.7781 -3.35
      vertex -10.22 -13.8312 -3.35
    endloop
  endfacet
  facet normal -0.634058 -0.773285 0
    outer loop
      vertex -10.4066 -13.7066 -3.35
      vertex -10.3194 -13.7781 3.35
      vertex -10.4066 -13.7066 3.35
    endloop
  endfacet
  facet normal -0.634058 -0.773285 -0
    outer loop
      vertex -10.3194 -13.7781 3.35
      vertex -10.4066 -13.7066 -3.35
      vertex -10.3194 -13.7781 -3.35
    endloop
  endfacet
  facet normal -0.773285 -0.634058 0
    outer loop
      vertex -10.4066 -13.7066 -3.35
      vertex -10.4781 -13.6194 3.35
      vertex -10.4781 -13.6194 -3.35
    endloop
  endfacet
  facet normal -0.773285 -0.634058 0
    outer loop
      vertex -10.4781 -13.6194 3.35
      vertex -10.4066 -13.7066 -3.35
      vertex -10.4066 -13.7066 3.35
    endloop
  endfacet
  facet normal -0.882033 -0.471187 0
    outer loop
      vertex -10.4781 -13.6194 -3.35
      vertex -10.5312 -13.52 3.35
      vertex -10.5312 -13.52 -3.35
    endloop
  endfacet
  facet normal -0.882033 -0.471187 0
    outer loop
      vertex -10.5312 -13.52 3.35
      vertex -10.4781 -13.6194 -3.35
      vertex -10.4781 -13.6194 3.35
    endloop
  endfacet
  facet normal -0.911348 -0.411637 0
    outer loop
      vertex -10.5312 -13.52 -3.35
      vertex -11.15 -12.15 3.35
      vertex -11.15 -12.15 -3.35
    endloop
  endfacet
  facet normal -0.911348 -0.411637 0
    outer loop
      vertex -11.15 -12.15 3.35
      vertex -10.5312 -13.52 -3.35
      vertex -10.5312 -13.52 3.35
    endloop
  endfacet
  facet normal -1 0 0
    outer loop
      vertex -11.15 -12.15 -3.35
      vertex -11.15 3.84999 3.35
      vertex -11.15 3.84999 -3.35
    endloop
  endfacet
  facet normal -1 -0 0
    outer loop
      vertex -11.15 3.84999 3.35
      vertex -11.15 -12.15 -3.35
      vertex -11.15 -12.15 3.35
    endloop
  endfacet
  facet normal 0 -1 0
    outer loop
      vertex -16 3.84999 -3.35
      vertex -11.15 3.84999 3.35
      vertex -16 3.84999 3.35
    endloop
  endfacet
  facet normal 0 -1 -0
    outer loop
      vertex -11.15 3.84999 3.35
      vertex -16 3.84999 -3.35
      vertex -11.15 3.84999 -3.35
    endloop
  endfacet
  facet normal -0.098054 -0.995181 0
    outer loop
      vertex -16.2243 3.87209 -3.35
      vertex -16 3.84999 3.35
      vertex -16.2243 3.87209 3.35
    endloop
  endfacet
  facet normal -0.098054 -0.995181 -0
    outer loop
      vertex -16 3.84999 3.35
      vertex -16.2243 3.87209 -3.35
      vertex -16 3.84999 -3.35
    endloop
  endfacet
  facet normal -0.290194 -0.956968 0
    outer loop
      vertex -16.4401 3.93753 -3.35
      vertex -16.2243 3.87209 3.35
      vertex -16.4401 3.93753 3.35
    endloop
  endfacet
  facet normal -0.290194 -0.956968 -0
    outer loop
      vertex -16.2243 3.87209 3.35
      vertex -16.4401 3.93753 -3.35
      vertex -16.2243 3.87209 -3.35
    endloop
  endfacet
  facet normal -0.471463 -0.881886 0
    outer loop
      vertex -16.6389 4.04381 -3.35
      vertex -16.4401 3.93753 3.35
      vertex -16.6389 4.04381 3.35
    endloop
  endfacet
  facet normal -0.471463 -0.881886 -0
    outer loop
      vertex -16.4401 3.93753 3.35
      vertex -16.6389 4.04381 -3.35
      vertex -16.4401 3.93753 -3.35
    endloop
  endfacet
  facet normal -0.634276 -0.773107 0
    outer loop
      vertex -16.8132 4.18681 -3.35
      vertex -16.6389 4.04381 3.35
      vertex -16.8132 4.18681 3.35
    endloop
  endfacet
  facet normal -0.634276 -0.773107 -0
    outer loop
      vertex -16.6389 4.04381 3.35
      vertex -16.8132 4.18681 -3.35
      vertex -16.6389 4.04381 -3.35
    endloop
  endfacet
  facet normal -0.773053 -0.634341 0
    outer loop
      vertex -16.8132 4.18681 -3.35
      vertex -16.9562 4.36108 3.35
      vertex -16.9562 4.36108 -3.35
    endloop
  endfacet
  facet normal -0.773053 -0.634341 0
    outer loop
      vertex -16.9562 4.36108 3.35
      vertex -16.8132 4.18681 -3.35
      vertex -16.8132 4.18681 3.35
    endloop
  endfacet
  facet normal -0.881879 -0.471477 0
    outer loop
      vertex -16.9562 4.36108 -3.35
      vertex -17.0625 4.55991 3.35
      vertex -17.0625 4.55991 -3.35
    endloop
  endfacet
  facet normal -0.881879 -0.471477 0
    outer loop
      vertex -17.0625 4.55991 3.35
      vertex -16.9562 4.36108 -3.35
      vertex -16.9562 4.36108 3.35
    endloop
  endfacet
  facet normal -0.956987 -0.290131 0
    outer loop
      vertex -17.0625 4.55991 -3.35
      vertex -17.1279 4.77563 3.35
      vertex -17.1279 4.77563 -3.35
    endloop
  endfacet
  facet normal -0.956987 -0.290131 0
    outer loop
      vertex -17.1279 4.77563 3.35
      vertex -17.0625 4.55991 -3.35
      vertex -17.0625 4.55991 3.35
    endloop
  endfacet
  facet normal -0.995184 -0.0980237 0
    outer loop
      vertex -17.1279 4.77563 -3.35
      vertex -17.15 5 3.35
      vertex -17.15 5 -3.35
    endloop
  endfacet
  facet normal -0.995184 -0.0980237 0
    outer loop
      vertex -17.15 5 3.35
      vertex -17.1279 4.77563 -3.35
      vertex -17.1279 4.77563 3.35
    endloop
  endfacet
  facet normal -0.995183 0.0980323 0
    outer loop
      vertex -17.15 5 -3.35
      vertex -17.1279 5.22435 3.35
      vertex -17.1279 5.22435 -3.35
    endloop
  endfacet
  facet normal -0.995183 0.0980323 0
    outer loop
      vertex -17.1279 5.22435 3.35
      vertex -17.15 5 -3.35
      vertex -17.15 5 3.35
    endloop
  endfacet
  facet normal -0.956991 0.290118 0
    outer loop
      vertex -17.1279 5.22435 -3.35
      vertex -17.0625 5.44008 3.35
      vertex -17.0625 5.44008 -3.35
    endloop
  endfacet
  facet normal -0.956991 0.290118 0
    outer loop
      vertex -17.0625 5.44008 3.35
      vertex -17.1279 5.22435 -3.35
      vertex -17.1279 5.22435 3.35
    endloop
  endfacet
  facet normal -0.881869 0.471495 0
    outer loop
      vertex -17.0625 5.44008 -3.35
      vertex -16.9562 5.6389 3.35
      vertex -16.9562 5.6389 -3.35
    endloop
  endfacet
  facet normal -0.881869 0.471495 0
    outer loop
      vertex -16.9562 5.6389 3.35
      vertex -17.0625 5.44008 -3.35
      vertex -17.0625 5.44008 3.35
    endloop
  endfacet
  facet normal -0.773053 0.634341 0
    outer loop
      vertex -16.9562 5.6389 -3.35
      vertex -16.8132 5.81317 3.35
      vertex -16.8132 5.81317 -3.35
    endloop
  endfacet
  facet normal -0.773053 0.634341 0
    outer loop
      vertex -16.8132 5.81317 3.35
      vertex -16.9562 5.6389 -3.35
      vertex -16.9562 5.6389 3.35
    endloop
  endfacet
  facet normal -0.634302 0.773085 0
    outer loop
      vertex -16.6389 5.95618 -3.35
      vertex -16.8132 5.81317 3.35
      vertex -16.6389 5.95618 3.35
    endloop
  endfacet
  facet normal -0.634302 0.773085 0
    outer loop
      vertex -16.8132 5.81317 3.35
      vertex -16.6389 5.95618 -3.35
      vertex -16.8132 5.81317 -3.35
    endloop
  endfacet
  facet normal -0.471428 0.881904 0
    outer loop
      vertex -16.4401 6.06245 -3.35
      vertex -16.6389 5.95618 3.35
      vertex -16.4401 6.06245 3.35
    endloop
  endfacet
  facet normal -0.471428 0.881904 0
    outer loop
      vertex -16.6389 5.95618 3.35
      vertex -16.4401 6.06245 -3.35
      vertex -16.6389 5.95618 -3.35
    endloop
  endfacet
  facet normal -0.290235 0.956955 0
    outer loop
      vertex -16.2243 6.1279 -3.35
      vertex -16.4401 6.06245 3.35
      vertex -16.2243 6.1279 3.35
    endloop
  endfacet
  facet normal -0.290235 0.956955 0
    outer loop
      vertex -16.4401 6.06245 3.35
      vertex -16.2243 6.1279 -3.35
      vertex -16.4401 6.06245 -3.35
    endloop
  endfacet
  facet normal -0.09801 0.995185 0
    outer loop
      vertex -16 6.14999 -3.35
      vertex -16.2243 6.1279 3.35
      vertex -16 6.14999 3.35
    endloop
  endfacet
  facet normal -0.09801 0.995185 0
    outer loop
      vertex -16.2243 6.1279 3.35
      vertex -16 6.14999 -3.35
      vertex -16.2243 6.1279 -3.35
    endloop
  endfacet
  facet normal 0 1 -0
    outer loop
      vertex -4 6.14999 -3.35
      vertex -16 6.14999 3.35
      vertex -4 6.14999 3.35
    endloop
  endfacet
  facet normal 0 1 0
    outer loop
      vertex -16 6.14999 3.35
      vertex -4 6.14999 -3.35
      vertex -16 6.14999 -3.35
    endloop
  endfacet
  facet normal 0.0979884 0.995188 -0
    outer loop
      vertex -3.77565 6.1279 -3.35
      vertex -4 6.14999 3.35
      vertex -3.77565 6.1279 3.35
    endloop
  endfacet
  facet normal 0.0979884 0.995188 0
    outer loop
      vertex -4 6.14999 3.35
      vertex -3.77565 6.1279 -3.35
      vertex -4 6.14999 -3.35
    endloop
  endfacet
  facet normal 0.290321 0.956929 -0
    outer loop
      vertex -3.55992 6.06245 -3.35
      vertex -3.77565 6.1279 3.35
      vertex -3.55992 6.06245 3.35
    endloop
  endfacet
  facet normal 0.290321 0.956929 0
    outer loop
      vertex -3.77565 6.1279 3.35
      vertex -3.55992 6.06245 -3.35
      vertex -3.77565 6.1279 -3.35
    endloop
  endfacet
  facet normal 0.471392 0.881924 -0
    outer loop
      vertex -3.3611 5.95618 -3.35
      vertex -3.55992 6.06245 3.35
      vertex -3.3611 5.95618 3.35
    endloop
  endfacet
  facet normal 0.471392 0.881924 0
    outer loop
      vertex -3.55992 6.06245 3.35
      vertex -3.3611 5.95618 -3.35
      vertex -3.55992 6.06245 -3.35
    endloop
  endfacet
  facet normal 0.634368 0.773032 -0
    outer loop
      vertex -3.18683 5.81317 -3.35
      vertex -3.3611 5.95618 3.35
      vertex -3.18683 5.81317 3.35
    endloop
  endfacet
  facet normal 0.634368 0.773032 0
    outer loop
      vertex -3.3611 5.95618 3.35
      vertex -3.18683 5.81317 -3.35
      vertex -3.3611 5.95618 -3.35
    endloop
  endfacet
  facet normal 0.773032 0.634368 0
    outer loop
      vertex -3.04382 5.6389 3.35
      vertex -3.18683 5.81317 -3.35
      vertex -3.18683 5.81317 3.35
    endloop
  endfacet
  facet normal 0.773032 0.634368 0
    outer loop
      vertex -3.18683 5.81317 -3.35
      vertex -3.04382 5.6389 3.35
      vertex -3.04382 5.6389 -3.35
    endloop
  endfacet
  facet normal 0.881924 0.471392 0
    outer loop
      vertex -2.93755 5.44008 3.35
      vertex -3.04382 5.6389 -3.35
      vertex -3.04382 5.6389 3.35
    endloop
  endfacet
  facet normal 0.881924 0.471392 0
    outer loop
      vertex -3.04382 5.6389 -3.35
      vertex -2.93755 5.44008 3.35
      vertex -2.93755 5.44008 -3.35
    endloop
  endfacet
  facet normal 0.956929 0.290321 0
    outer loop
      vertex -2.8721 5.22435 3.35
      vertex -2.93755 5.44008 -3.35
      vertex -2.93755 5.44008 3.35
    endloop
  endfacet
  facet normal 0.956929 0.290321 0
    outer loop
      vertex -2.93755 5.44008 -3.35
      vertex -2.8721 5.22435 3.35
      vertex -2.8721 5.22435 -3.35
    endloop
  endfacet
  facet normal 0.995188 0.0979884 0
    outer loop
      vertex -2.85001 5 3.35
      vertex -2.8721 5.22435 -3.35
      vertex -2.8721 5.22435 3.35
    endloop
  endfacet
  facet normal 0.995188 0.0979884 0
    outer loop
      vertex -2.8721 5.22435 -3.35
      vertex -2.85001 5 3.35
      vertex -2.85001 5 -3.35
    endloop
  endfacet
  facet normal 0.995188 -0.0979797 0
    outer loop
      vertex -2.8721 4.77563 3.35
      vertex -2.85001 5 -3.35
      vertex -2.85001 5 3.35
    endloop
  endfacet
  facet normal 0.995188 -0.0979797 0
    outer loop
      vertex -2.85001 5 -3.35
      vertex -2.8721 4.77563 3.35
      vertex -2.8721 4.77563 -3.35
    endloop
  endfacet
  facet normal 0.956925 -0.290334 0
    outer loop
      vertex -2.93755 4.55991 3.35
      vertex -2.8721 4.77563 -3.35
      vertex -2.8721 4.77563 3.35
    endloop
  endfacet
  facet normal 0.956925 -0.290334 0
    outer loop
      vertex -2.8721 4.77563 -3.35
      vertex -2.93755 4.55991 3.35
      vertex -2.93755 4.55991 -3.35
    endloop
  endfacet
  facet normal 0.881934 -0.471373 0
    outer loop
      vertex -3.04382 4.36108 3.35
      vertex -2.93755 4.55991 -3.35
      vertex -2.93755 4.55991 3.35
    endloop
  endfacet
  facet normal 0.881934 -0.471373 0
    outer loop
      vertex -2.93755 4.55991 -3.35
      vertex -3.04382 4.36108 3.35
      vertex -3.04382 4.36108 -3.35
    endloop
  endfacet
  facet normal 0.773032 -0.634368 0
    outer loop
      vertex -3.18683 4.18681 3.35
      vertex -3.04382 4.36108 -3.35
      vertex -3.04382 4.36108 3.35
    endloop
  endfacet
  facet normal 0.773032 -0.634368 0
    outer loop
      vertex -3.04382 4.36108 -3.35
      vertex -3.18683 4.18681 3.35
      vertex -3.18683 4.18681 -3.35
    endloop
  endfacet
  facet normal 0.634341 -0.773053 0
    outer loop
      vertex -3.3611 4.04381 -3.35
      vertex -3.18683 4.18681 3.35
      vertex -3.3611 4.04381 3.35
    endloop
  endfacet
  facet normal 0.634341 -0.773053 0
    outer loop
      vertex -3.18683 4.18681 3.35
      vertex -3.3611 4.04381 -3.35
      vertex -3.18683 4.18681 -3.35
    endloop
  endfacet
  facet normal 0.471426 -0.881906 0
    outer loop
      vertex -3.55992 3.93753 -3.35
      vertex -3.3611 4.04381 3.35
      vertex -3.55992 3.93753 3.35
    endloop
  endfacet
  facet normal 0.471426 -0.881906 0
    outer loop
      vertex -3.3611 4.04381 3.35
      vertex -3.55992 3.93753 -3.35
      vertex -3.3611 4.04381 -3.35
    endloop
  endfacet
  facet normal 0.290281 -0.956942 0
    outer loop
      vertex -3.77565 3.87209 -3.35
      vertex -3.55992 3.93753 3.35
      vertex -3.77565 3.87209 3.35
    endloop
  endfacet
  facet normal 0.290281 -0.956942 0
    outer loop
      vertex -3.55992 3.93753 3.35
      vertex -3.77565 3.87209 -3.35
      vertex -3.55992 3.93753 -3.35
    endloop
  endfacet
  facet normal 0.0980323 -0.995183 0
    outer loop
      vertex -4 3.84999 -3.35
      vertex -3.77565 3.87209 3.35
      vertex -4 3.84999 3.35
    endloop
  endfacet
  facet normal 0.0980323 -0.995183 0
    outer loop
      vertex -3.77565 3.87209 3.35
      vertex -4 3.84999 -3.35
      vertex -3.77565 3.87209 -3.35
    endloop
  endfacet
  facet normal 0 -1 0
    outer loop
      vertex -8.85001 3.84999 -3.35
      vertex -4 3.84999 3.35
      vertex -8.85001 3.84999 3.35
    endloop
  endfacet
  facet normal 0 -1 -0
    outer loop
      vertex -4 3.84999 3.35
      vertex -8.85001 3.84999 -3.35
      vertex -4 3.84999 -3.35
    endloop
  endfacet
  facet normal 1 -0 0
    outer loop
      vertex -8.85001 -12.15 3.35
      vertex -8.85001 3.84999 -3.35
      vertex -8.85001 3.84999 3.35
    endloop
  endfacet
  facet normal 1 0 0
    outer loop
      vertex -8.85001 3.84999 -3.35
      vertex -8.85001 -12.15 3.35
      vertex -8.85001 -12.15 -3.35
    endloop
  endfacet
  facet normal 0.911356 -0.41162 0
    outer loop
      vertex -9.46878 -13.52 3.35
      vertex -8.85001 -12.15 -3.35
      vertex -8.85001 -12.15 3.35
    endloop
  endfacet
  facet normal 0.911356 -0.41162 0
    outer loop
      vertex -8.85001 -12.15 -3.35
      vertex -9.46878 -13.52 3.35
      vertex -9.46878 -13.52 -3.35
    endloop
  endfacet
endsolid OpenSCAD_Model
