solid OpenSCAD_Model
  facet normal -0 0 1
    outer loop
      vertex -5.14999 7.1375 3.35
      vertex -2.85001 1.04999 3.35
      vertex -2.85001 7.1375 3.35
    endloop
  endfacet
  facet normal 0 0 1
    outer loop
      vertex -2.85001 1.04999 3.35
      vertex -5.14999 7.1375 3.35
      vertex -2.85001 -1.04999 3.35
    endloop
  endfacet
  facet normal 0 0 1
    outer loop
      vertex -5.14999 7.1375 3.35
      vertex -2.85001 7.1375 3.35
      vertex -2.8721 7.36185 3.35
    endloop
  endfacet
  facet normal 0 0 1
    outer loop
      vertex -5.14999 -7.1375 3.35
      vertex -2.85001 -1.04999 3.35
      vertex -5.14999 7.1375 3.35
    endloop
  endfacet
  facet normal 0 0 1
    outer loop
      vertex -5.14999 7.1375 3.35
      vertex -2.8721 7.36185 3.35
      vertex -2.93755 7.57758 3.35
    endloop
  endfacet
  facet normal 0 0 1
    outer loop
      vertex -2.85001 -1.04999 3.35
      vertex -5.14999 -7.1375 3.35
      vertex -2.85001 -7.1375 3.35
    endloop
  endfacet
  facet normal 0 0 1
    outer loop
      vertex -5.14999 7.1375 3.35
      vertex -2.93755 7.57758 3.35
      vertex -3.04381 7.7764 3.35
    endloop
  endfacet
  facet normal 0 0 1
    outer loop
      vertex -2.85001 -7.1375 3.35
      vertex -5.14999 -7.1375 3.35
      vertex -2.8721 -7.36185 3.35
    endloop
  endfacet
  facet normal 0 0 1
    outer loop
      vertex -5.14999 7.1375 3.35
      vertex -3.04381 7.7764 3.35
      vertex -3.18681 7.95067 3.35
    endloop
  endfacet
  facet normal 0 0 1
    outer loop
      vertex -2.8721 -7.36185 3.35
      vertex -5.14999 -7.1375 3.35
      vertex -2.93755 -7.57758 3.35
    endloop
  endfacet
  facet normal 0 0 1
    outer loop
      vertex -5.14999 7.1375 3.35
      vertex -3.18681 7.95067 3.35
      vertex -3.36108 8.09369 3.35
    endloop
  endfacet
  facet normal 0 0 1
    outer loop
      vertex -2.93755 -7.57758 3.35
      vertex -5.14999 -7.1375 3.35
      vertex -3.04381 -7.7764 3.35
    endloop
  endfacet
  facet normal 0 0 1
    outer loop
      vertex -5.14999 7.1375 3.35
      vertex -3.36108 8.09369 3.35
      vertex -3.55991 8.19995 3.35
    endloop
  endfacet
  facet normal 0 0 1
    outer loop
      vertex -3.04381 -7.7764 3.35
      vertex -5.14999 -7.1375 3.35
      vertex -3.18681 -7.95067 3.35
    endloop
  endfacet
  facet normal 0 0 1
    outer loop
      vertex -5.14999 7.1375 3.35
      vertex -3.55991 8.19995 3.35
      vertex -3.77563 8.2654 3.35
    endloop
  endfacet
  facet normal 0 0 1
    outer loop
      vertex -3.18681 -7.95067 3.35
      vertex -5.14999 -7.1375 3.35
      vertex -3.36108 -8.09369 3.35
    endloop
  endfacet
  facet normal 0 0 1
    outer loop
      vertex -5.14999 7.1375 3.35
      vertex -3.77563 8.2654 3.35
      vertex -4 8.28749 3.35
    endloop
  endfacet
  facet normal 0 0 1
    outer loop
      vertex -3.36108 -8.09369 3.35
      vertex -5.14999 -7.1375 3.35
      vertex -3.55991 -8.19995 3.35
    endloop
  endfacet
  facet normal 0 0 1
    outer loop
      vertex -5.14999 7.1375 3.35
      vertex -4 8.28749 3.35
      vertex -4.22435 8.2654 3.35
    endloop
  endfacet
  facet normal 0 0 1
    outer loop
      vertex -3.55991 -8.19995 3.35
      vertex -5.14999 -7.1375 3.35
      vertex -3.77563 -8.2654 3.35
    endloop
  endfacet
  facet normal 0 0 1
    outer loop
      vertex -5.14999 7.1375 3.35
      vertex -4.22435 8.2654 3.35
      vertex -4.44008 8.19995 3.35
    endloop
  endfacet
  facet normal 0 0 1
    outer loop
      vertex -3.77563 -8.2654 3.35
      vertex -5.14999 -7.1375 3.35
      vertex -4 -8.28749 3.35
    endloop
  endfacet
  facet normal 0 0 1
    outer loop
      vertex -5.14999 7.1375 3.35
      vertex -4.44008 8.19995 3.35
      vertex -4.6389 8.09369 3.35
    endloop
  endfacet
  facet normal 0 0 1
    outer loop
      vertex -4 -8.28749 3.35
      vertex -5.14999 -7.1375 3.35
      vertex -4.22435 -8.2654 3.35
    endloop
  endfacet
  facet normal 0 0 1
    outer loop
      vertex -5.14999 7.1375 3.35
      vertex -4.6389 8.09369 3.35
      vertex -4.81317 7.95067 3.35
    endloop
  endfacet
  facet normal 0 0 1
    outer loop
      vertex -4.22435 -8.2654 3.35
      vertex -5.14999 -7.1375 3.35
      vertex -4.44008 -8.19995 3.35
    endloop
  endfacet
  facet normal 0 0 1
    outer loop
      vertex -5.14999 7.1375 3.35
      vertex -4.81317 7.95067 3.35
      vertex -4.95618 7.7764 3.35
    endloop
  endfacet
  facet normal 0 0 1
    outer loop
      vertex -4.44008 -8.19995 3.35
      vertex -5.14999 -7.1375 3.35
      vertex -4.6389 -8.09369 3.35
    endloop
  endfacet
  facet normal 0 0 1
    outer loop
      vertex -5.14999 7.1375 3.35
      vertex -4.95618 7.7764 3.35
      vertex -5.06245 7.57758 3.35
    endloop
  endfacet
  facet normal 0 0 1
    outer loop
      vertex -4.6389 -8.09369 3.35
      vertex -5.14999 -7.1375 3.35
      vertex -4.81317 -7.95067 3.35
    endloop
  endfacet
  facet normal 0 0 1
    outer loop
      vertex -5.14999 7.1375 3.35
      vertex -5.06245 7.57758 3.35
      vertex -5.1279 7.36185 3.35
    endloop
  endfacet
  facet normal 0 0 1
    outer loop
      vertex -4.81317 -7.95067 3.35
      vertex -5.14999 -7.1375 3.35
      vertex -4.95618 -7.7764 3.35
    endloop
  endfacet
  facet normal 0 0 1
    outer loop
      vertex -4.95618 -7.7764 3.35
      vertex -5.14999 -7.1375 3.35
      vertex -5.06245 -7.57758 3.35
    endloop
  endfacet
  facet normal 0 0 1
    outer loop
      vertex -5.06245 -7.57758 3.35
      vertex -5.14999 -7.1375 3.35
      vertex -5.1279 -7.36185 3.35
    endloop
  endfacet
  facet normal 0 0 1
    outer loop
      vertex -0.385101 0.102417 3.35
      vertex -0.385101 -0.102417 3.35
      vertex -0.375 0 3.35
    endloop
  endfacet
  facet normal 0 0 1
    outer loop
      vertex -0.414978 0.200897 3.35
      vertex -0.385101 -0.102417 3.35
      vertex -0.385101 0.102417 3.35
    endloop
  endfacet
  facet normal 0 0 1
    outer loop
      vertex -0.414978 0.200897 3.35
      vertex -0.414978 -0.200897 3.35
      vertex -0.385101 -0.102417 3.35
    endloop
  endfacet
  facet normal 0 0 1
    outer loop
      vertex -0.463486 0.291672 3.35
      vertex -0.414978 -0.200897 3.35
      vertex -0.414978 0.200897 3.35
    endloop
  endfacet
  facet normal 0 0 1
    outer loop
      vertex -0.463486 0.291672 3.35
      vertex -0.463486 -0.291672 3.35
      vertex -0.414978 -0.200897 3.35
    endloop
  endfacet
  facet normal 0 0 1
    outer loop
      vertex -0.528778 0.371216 3.35
      vertex -0.463486 -0.291672 3.35
      vertex -0.463486 0.291672 3.35
    endloop
  endfacet
  facet normal 0 0 1
    outer loop
      vertex -0.528778 0.371216 3.35
      vertex -0.528778 -0.371216 3.35
      vertex -0.463486 -0.291672 3.35
    endloop
  endfacet
  facet normal 0 0 1
    outer loop
      vertex -0.608337 0.436508 3.35
      vertex -0.528778 -0.371216 3.35
      vertex -0.528778 0.371216 3.35
    endloop
  endfacet
  facet normal 0 0 1
    outer loop
      vertex -0.608337 0.436508 3.35
      vertex -0.608337 -0.436508 3.35
      vertex -0.528778 -0.371216 3.35
    endloop
  endfacet
  facet normal 0 0 1
    outer loop
      vertex -0.699097 0.485031 3.35
      vertex -0.608337 -0.436508 3.35
      vertex -0.608337 0.436508 3.35
    endloop
  endfacet
  facet normal 0 0 1
    outer loop
      vertex -0.699097 0.485031 3.35
      vertex -0.699097 -0.485031 3.35
      vertex -0.608337 -0.436508 3.35
    endloop
  endfacet
  facet normal 0 0 1
    outer loop
      vertex -1.95001 1.04999 3.35
      vertex -0.699097 -0.485031 3.35
      vertex -0.699097 0.485031 3.35
    endloop
  endfacet
  facet normal 0 0 1
    outer loop
      vertex -1.95001 1.04999 3.35
      vertex -1.95001 -1.04999 3.35
      vertex -0.699097 -0.485031 3.35
    endloop
  endfacet
  facet normal -0 0 1
    outer loop
      vertex -2.85001 1.04999 3.35
      vertex -1.95001 -1.04999 3.35
      vertex -1.95001 1.04999 3.35
    endloop
  endfacet
  facet normal 0 0 1
    outer loop
      vertex -1.95001 -1.04999 3.35
      vertex -2.85001 1.04999 3.35
      vertex -2.85001 -1.04999 3.35
    endloop
  endfacet
  facet normal 0 0 -1
    outer loop
      vertex -5.14999 -7.1375 -3.35
      vertex -2.85001 -1.04999 -3.35
      vertex -2.85001 -7.1375 -3.35
    endloop
  endfacet
  facet normal -0 0 -1
    outer loop
      vertex -2.85001 -1.04999 -3.35
      vertex -5.14999 -7.1375 -3.35
      vertex -2.85001 1.04999 -3.35
    endloop
  endfacet
  facet normal 0 0 -1
    outer loop
      vertex -5.14999 -7.1375 -3.35
      vertex -2.85001 -7.1375 -3.35
      vertex -2.8721 -7.36185 -3.35
    endloop
  endfacet
  facet normal 0 0 -1
    outer loop
      vertex -5.14999 7.1375 -3.35
      vertex -2.85001 1.04999 -3.35
      vertex -5.14999 -7.1375 -3.35
    endloop
  endfacet
  facet normal 0 0 -1
    outer loop
      vertex -5.14999 -7.1375 -3.35
      vertex -2.8721 -7.36185 -3.35
      vertex -2.93755 -7.57758 -3.35
    endloop
  endfacet
  facet normal 0 0 -1
    outer loop
      vertex -2.85001 1.04999 -3.35
      vertex -5.14999 7.1375 -3.35
      vertex -2.85001 7.1375 -3.35
    endloop
  endfacet
  facet normal 0 0 -1
    outer loop
      vertex -5.14999 -7.1375 -3.35
      vertex -2.93755 -7.57758 -3.35
      vertex -3.04381 -7.7764 -3.35
    endloop
  endfacet
  facet normal 0 0 -1
    outer loop
      vertex -2.85001 7.1375 -3.35
      vertex -5.14999 7.1375 -3.35
      vertex -2.8721 7.36185 -3.35
    endloop
  endfacet
  facet normal 0 0 -1
    outer loop
      vertex -5.14999 -7.1375 -3.35
      vertex -3.04381 -7.7764 -3.35
      vertex -3.18681 -7.95067 -3.35
    endloop
  endfacet
  facet normal -0 0 -1
    outer loop
      vertex -2.8721 7.36185 -3.35
      vertex -5.14999 7.1375 -3.35
      vertex -2.93755 7.57758 -3.35
    endloop
  endfacet
  facet normal 0 0 -1
    outer loop
      vertex -5.14999 -7.1375 -3.35
      vertex -3.18681 -7.95067 -3.35
      vertex -3.36108 -8.09369 -3.35
    endloop
  endfacet
  facet normal -0 0 -1
    outer loop
      vertex -2.93755 7.57758 -3.35
      vertex -5.14999 7.1375 -3.35
      vertex -3.04381 7.7764 -3.35
    endloop
  endfacet
  facet normal 0 0 -1
    outer loop
      vertex -5.14999 -7.1375 -3.35
      vertex -3.36108 -8.09369 -3.35
      vertex -3.55991 -8.19995 -3.35
    endloop
  endfacet
  facet normal -0 0 -1
    outer loop
      vertex -3.04381 7.7764 -3.35
      vertex -5.14999 7.1375 -3.35
      vertex -3.18681 7.95067 -3.35
    endloop
  endfacet
  facet normal 0 0 -1
    outer loop
      vertex -5.14999 -7.1375 -3.35
      vertex -3.55991 -8.19995 -3.35
      vertex -3.77563 -8.2654 -3.35
    endloop
  endfacet
  facet normal -0 0 -1
    outer loop
      vertex -3.18681 7.95067 -3.35
      vertex -5.14999 7.1375 -3.35
      vertex -3.36108 8.09369 -3.35
    endloop
  endfacet
  facet normal 0 0 -1
    outer loop
      vertex -5.14999 -7.1375 -3.35
      vertex -3.77563 -8.2654 -3.35
      vertex -4 -8.28749 -3.35
    endloop
  endfacet
  facet normal -0 0 -1
    outer loop
      vertex -3.36108 8.09369 -3.35
      vertex -5.14999 7.1375 -3.35
      vertex -3.55991 8.19995 -3.35
    endloop
  endfacet
  facet normal 0 0 -1
    outer loop
      vertex -5.14999 -7.1375 -3.35
      vertex -4 -8.28749 -3.35
      vertex -4.22435 -8.2654 -3.35
    endloop
  endfacet
  facet normal -0 0 -1
    outer loop
      vertex -3.55991 8.19995 -3.35
      vertex -5.14999 7.1375 -3.35
      vertex -3.77563 8.2654 -3.35
    endloop
  endfacet
  facet normal 0 0 -1
    outer loop
      vertex -5.14999 -7.1375 -3.35
      vertex -4.22435 -8.2654 -3.35
      vertex -4.44008 -8.19995 -3.35
    endloop
  endfacet
  facet normal -0 0 -1
    outer loop
      vertex -3.77563 8.2654 -3.35
      vertex -5.14999 7.1375 -3.35
      vertex -4 8.28749 -3.35
    endloop
  endfacet
  facet normal 0 0 -1
    outer loop
      vertex -5.14999 -7.1375 -3.35
      vertex -4.44008 -8.19995 -3.35
      vertex -4.6389 -8.09369 -3.35
    endloop
  endfacet
  facet normal 0 0 -1
    outer loop
      vertex -4 8.28749 -3.35
      vertex -5.14999 7.1375 -3.35
      vertex -4.22435 8.2654 -3.35
    endloop
  endfacet
  facet normal 0 0 -1
    outer loop
      vertex -5.14999 -7.1375 -3.35
      vertex -4.6389 -8.09369 -3.35
      vertex -4.81317 -7.95067 -3.35
    endloop
  endfacet
  facet normal 0 0 -1
    outer loop
      vertex -4.22435 8.2654 -3.35
      vertex -5.14999 7.1375 -3.35
      vertex -4.44008 8.19995 -3.35
    endloop
  endfacet
  facet normal 0 0 -1
    outer loop
      vertex -5.14999 -7.1375 -3.35
      vertex -4.81317 -7.95067 -3.35
      vertex -4.95618 -7.7764 -3.35
    endloop
  endfacet
  facet normal 0 0 -1
    outer loop
      vertex -4.44008 8.19995 -3.35
      vertex -5.14999 7.1375 -3.35
      vertex -4.6389 8.09369 -3.35
    endloop
  endfacet
  facet normal 0 0 -1
    outer loop
      vertex -5.14999 -7.1375 -3.35
      vertex -4.95618 -7.7764 -3.35
      vertex -5.06245 -7.57758 -3.35
    endloop
  endfacet
  facet normal 0 0 -1
    outer loop
      vertex -4.6389 8.09369 -3.35
      vertex -5.14999 7.1375 -3.35
      vertex -4.81317 7.95067 -3.35
    endloop
  endfacet
  facet normal 0 0 -1
    outer loop
      vertex -5.14999 -7.1375 -3.35
      vertex -5.06245 -7.57758 -3.35
      vertex -5.1279 -7.36185 -3.35
    endloop
  endfacet
  facet normal 0 0 -1
    outer loop
      vertex -4.81317 7.95067 -3.35
      vertex -5.14999 7.1375 -3.35
      vertex -4.95618 7.7764 -3.35
    endloop
  endfacet
  facet normal 0 0 -1
    outer loop
      vertex -4.95618 7.7764 -3.35
      vertex -5.14999 7.1375 -3.35
      vertex -5.06245 7.57758 -3.35
    endloop
  endfacet
  facet normal 0 0 -1
    outer loop
      vertex -5.06245 7.57758 -3.35
      vertex -5.14999 7.1375 -3.35
      vertex -5.1279 7.36185 -3.35
    endloop
  endfacet
  facet normal 0 0 -1
    outer loop
      vertex -0.385101 -0.102417 -3.35
      vertex -0.385101 0.102417 -3.35
      vertex -0.375 0 -3.35
    endloop
  endfacet
  facet normal 0 0 -1
    outer loop
      vertex -0.414978 -0.200897 -3.35
      vertex -0.385101 0.102417 -3.35
      vertex -0.385101 -0.102417 -3.35
    endloop
  endfacet
  facet normal 0 0 -1
    outer loop
      vertex -0.414978 -0.200897 -3.35
      vertex -0.414978 0.200897 -3.35
      vertex -0.385101 0.102417 -3.35
    endloop
  endfacet
  facet normal 0 0 -1
    outer loop
      vertex -0.463486 -0.291672 -3.35
      vertex -0.414978 0.200897 -3.35
      vertex -0.414978 -0.200897 -3.35
    endloop
  endfacet
  facet normal 0 0 -1
    outer loop
      vertex -0.463486 -0.291672 -3.35
      vertex -0.463486 0.291672 -3.35
      vertex -0.414978 0.200897 -3.35
    endloop
  endfacet
  facet normal 0 0 -1
    outer loop
      vertex -0.528778 -0.371216 -3.35
      vertex -0.463486 0.291672 -3.35
      vertex -0.463486 -0.291672 -3.35
    endloop
  endfacet
  facet normal 0 0 -1
    outer loop
      vertex -0.528778 -0.371216 -3.35
      vertex -0.528778 0.371216 -3.35
      vertex -0.463486 0.291672 -3.35
    endloop
  endfacet
  facet normal 0 0 -1
    outer loop
      vertex -0.608337 -0.436508 -3.35
      vertex -0.528778 0.371216 -3.35
      vertex -0.528778 -0.371216 -3.35
    endloop
  endfacet
  facet normal 0 0 -1
    outer loop
      vertex -0.608337 -0.436508 -3.35
      vertex -0.608337 0.436508 -3.35
      vertex -0.528778 0.371216 -3.35
    endloop
  endfacet
  facet normal 0 0 -1
    outer loop
      vertex -0.699097 -0.485031 -3.35
      vertex -0.608337 0.436508 -3.35
      vertex -0.608337 -0.436508 -3.35
    endloop
  endfacet
  facet normal 0 0 -1
    outer loop
      vertex -0.699097 -0.485031 -3.35
      vertex -0.699097 0.485031 -3.35
      vertex -0.608337 0.436508 -3.35
    endloop
  endfacet
  facet normal 0 0 -1
    outer loop
      vertex -1.95001 -1.04999 -3.35
      vertex -0.699097 0.485031 -3.35
      vertex -0.699097 -0.485031 -3.35
    endloop
  endfacet
  facet normal 0 0 -1
    outer loop
      vertex -1.95001 -1.04999 -3.35
      vertex -1.95001 1.04999 -3.35
      vertex -0.699097 0.485031 -3.35
    endloop
  endfacet
  facet normal 0 0 -1
    outer loop
      vertex -2.85001 -1.04999 -3.35
      vertex -1.95001 1.04999 -3.35
      vertex -1.95001 -1.04999 -3.35
    endloop
  endfacet
  facet normal -0 0 -1
    outer loop
      vertex -1.95001 1.04999 -3.35
      vertex -2.85001 -1.04999 -3.35
      vertex -2.85001 1.04999 -3.35
    endloop
  endfacet
  facet normal -0.956929 0.290321 0
    outer loop
      vertex -5.1279 7.36185 -3.35
      vertex -5.06245 7.57758 3.35
      vertex -5.06245 7.57758 -3.35
    endloop
  endfacet
  facet normal -0.956929 0.290321 0
    outer loop
      vertex -5.06245 7.57758 3.35
      vertex -5.1279 7.36185 -3.35
      vertex -5.1279 7.36185 3.35
    endloop
  endfacet
  facet normal -0.881924 0.471392 0
    outer loop
      vertex -5.06245 7.57758 -3.35
      vertex -4.95618 7.7764 3.35
      vertex -4.95618 7.7764 -3.35
    endloop
  endfacet
  facet normal -0.881924 0.471392 0
    outer loop
      vertex -4.95618 7.7764 3.35
      vertex -5.06245 7.57758 -3.35
      vertex -5.06245 7.57758 3.35
    endloop
  endfacet
  facet normal -0.773032 0.634368 0
    outer loop
      vertex -4.95618 7.7764 -3.35
      vertex -4.81317 7.95067 3.35
      vertex -4.81317 7.95067 -3.35
    endloop
  endfacet
  facet normal -0.773032 0.634368 0
    outer loop
      vertex -4.81317 7.95067 3.35
      vertex -4.95618 7.7764 -3.35
      vertex -4.95618 7.7764 3.35
    endloop
  endfacet
  facet normal -0.634394 0.77301 0
    outer loop
      vertex -4.6389 8.09369 -3.35
      vertex -4.81317 7.95067 3.35
      vertex -4.6389 8.09369 3.35
    endloop
  endfacet
  facet normal -0.634394 0.77301 0
    outer loop
      vertex -4.81317 7.95067 3.35
      vertex -4.6389 8.09369 -3.35
      vertex -4.81317 7.95067 -3.35
    endloop
  endfacet
  facet normal -0.471357 0.881942 0
    outer loop
      vertex -4.44008 8.19995 -3.35
      vertex -4.6389 8.09369 3.35
      vertex -4.44008 8.19995 3.35
    endloop
  endfacet
  facet normal -0.471357 0.881942 0
    outer loop
      vertex -4.6389 8.09369 3.35
      vertex -4.44008 8.19995 -3.35
      vertex -4.6389 8.09369 -3.35
    endloop
  endfacet
  facet normal -0.290321 0.956929 0
    outer loop
      vertex -4.22435 8.2654 -3.35
      vertex -4.44008 8.19995 3.35
      vertex -4.22435 8.2654 3.35
    endloop
  endfacet
  facet normal -0.290321 0.956929 0
    outer loop
      vertex -4.44008 8.19995 3.35
      vertex -4.22435 8.2654 -3.35
      vertex -4.44008 8.19995 -3.35
    endloop
  endfacet
  facet normal -0.0979884 0.995188 0
    outer loop
      vertex -4 8.28749 -3.35
      vertex -4.22435 8.2654 3.35
      vertex -4 8.28749 3.35
    endloop
  endfacet
  facet normal -0.0979884 0.995188 0
    outer loop
      vertex -4.22435 8.2654 3.35
      vertex -4 8.28749 -3.35
      vertex -4.22435 8.2654 -3.35
    endloop
  endfacet
  facet normal 0.0979797 0.995188 -0
    outer loop
      vertex -3.77563 8.2654 -3.35
      vertex -4 8.28749 3.35
      vertex -3.77563 8.2654 3.35
    endloop
  endfacet
  facet normal 0.0979797 0.995188 0
    outer loop
      vertex -4 8.28749 3.35
      vertex -3.77563 8.2654 -3.35
      vertex -4 8.28749 -3.35
    endloop
  endfacet
  facet normal 0.290334 0.956925 -0
    outer loop
      vertex -3.55991 8.19995 -3.35
      vertex -3.77563 8.2654 3.35
      vertex -3.55991 8.19995 3.35
    endloop
  endfacet
  facet normal 0.290334 0.956925 0
    outer loop
      vertex -3.77563 8.2654 3.35
      vertex -3.55991 8.19995 -3.35
      vertex -3.77563 8.2654 -3.35
    endloop
  endfacet
  facet normal 0.471339 0.881952 -0
    outer loop
      vertex -3.36108 8.09369 -3.35
      vertex -3.55991 8.19995 3.35
      vertex -3.36108 8.09369 3.35
    endloop
  endfacet
  facet normal 0.471339 0.881952 0
    outer loop
      vertex -3.55991 8.19995 3.35
      vertex -3.36108 8.09369 -3.35
      vertex -3.55991 8.19995 -3.35
    endloop
  endfacet
  facet normal 0.634394 0.77301 -0
    outer loop
      vertex -3.18681 7.95067 -3.35
      vertex -3.36108 8.09369 3.35
      vertex -3.18681 7.95067 3.35
    endloop
  endfacet
  facet normal 0.634394 0.77301 0
    outer loop
      vertex -3.36108 8.09369 3.35
      vertex -3.18681 7.95067 -3.35
      vertex -3.36108 8.09369 -3.35
    endloop
  endfacet
  facet normal 0.773053 0.634341 0
    outer loop
      vertex -3.04381 7.7764 3.35
      vertex -3.18681 7.95067 -3.35
      vertex -3.18681 7.95067 3.35
    endloop
  endfacet
  facet normal 0.773053 0.634341 0
    outer loop
      vertex -3.18681 7.95067 -3.35
      vertex -3.04381 7.7764 3.35
      vertex -3.04381 7.7764 -3.35
    endloop
  endfacet
  facet normal 0.881942 0.471357 0
    outer loop
      vertex -2.93755 7.57758 3.35
      vertex -3.04381 7.7764 -3.35
      vertex -3.04381 7.7764 3.35
    endloop
  endfacet
  facet normal 0.881942 0.471357 0
    outer loop
      vertex -3.04381 7.7764 -3.35
      vertex -2.93755 7.57758 3.35
      vertex -2.93755 7.57758 -3.35
    endloop
  endfacet
  facet normal 0.956929 0.290321 0
    outer loop
      vertex -2.8721 7.36185 3.35
      vertex -2.93755 7.57758 -3.35
      vertex -2.93755 7.57758 3.35
    endloop
  endfacet
  facet normal 0.956929 0.290321 0
    outer loop
      vertex -2.93755 7.57758 -3.35
      vertex -2.8721 7.36185 3.35
      vertex -2.8721 7.36185 -3.35
    endloop
  endfacet
  facet normal 0.995188 0.0979884 0
    outer loop
      vertex -2.85001 7.1375 3.35
      vertex -2.8721 7.36185 -3.35
      vertex -2.8721 7.36185 3.35
    endloop
  endfacet
  facet normal 0.995188 0.0979884 0
    outer loop
      vertex -2.8721 7.36185 -3.35
      vertex -2.85001 7.1375 3.35
      vertex -2.85001 7.1375 -3.35
    endloop
  endfacet
  facet normal 1 -0 0
    outer loop
      vertex -2.85001 1.04999 3.35
      vertex -2.85001 7.1375 -3.35
      vertex -2.85001 7.1375 3.35
    endloop
  endfacet
  facet normal 1 0 0
    outer loop
      vertex -2.85001 7.1375 -3.35
      vertex -2.85001 1.04999 3.35
      vertex -2.85001 1.04999 -3.35
    endloop
  endfacet
  facet normal 0 1 -0
    outer loop
      vertex -1.95001 1.04999 -3.35
      vertex -2.85001 1.04999 3.35
      vertex -1.95001 1.04999 3.35
    endloop
  endfacet
  facet normal 0 1 0
    outer loop
      vertex -2.85001 1.04999 3.35
      vertex -1.95001 1.04999 -3.35
      vertex -2.85001 1.04999 -3.35
    endloop
  endfacet
  facet normal 0.411605 0.911362 -0
    outer loop
      vertex -0.699097 0.485031 -3.35
      vertex -1.95001 1.04999 3.35
      vertex -0.699097 0.485031 3.35
    endloop
  endfacet
  facet normal 0.411605 0.911362 0
    outer loop
      vertex -1.95001 1.04999 3.35
      vertex -0.699097 0.485031 -3.35
      vertex -1.95001 1.04999 -3.35
    endloop
  endfacet
  facet normal 0.471478 0.881878 -0
    outer loop
      vertex -0.608337 0.436508 -3.35
      vertex -0.699097 0.485031 3.35
      vertex -0.608337 0.436508 3.35
    endloop
  endfacet
  facet normal 0.471478 0.881878 0
    outer loop
      vertex -0.699097 0.485031 3.35
      vertex -0.608337 0.436508 -3.35
      vertex -0.699097 0.485031 -3.35
    endloop
  endfacet
  facet normal 0.634391 0.773012 -0
    outer loop
      vertex -0.528778 0.371216 -3.35
      vertex -0.608337 0.436508 3.35
      vertex -0.528778 0.371216 3.35
    endloop
  endfacet
  facet normal 0.634391 0.773012 0
    outer loop
      vertex -0.608337 0.436508 3.35
      vertex -0.528778 0.371216 -3.35
      vertex -0.608337 0.436508 -3.35
    endloop
  endfacet
  facet normal 0.772954 0.634463 0
    outer loop
      vertex -0.463486 0.291672 3.35
      vertex -0.528778 0.371216 -3.35
      vertex -0.528778 0.371216 3.35
    endloop
  endfacet
  facet normal 0.772954 0.634463 0
    outer loop
      vertex -0.528778 0.371216 -3.35
      vertex -0.463486 0.291672 3.35
      vertex -0.463486 0.291672 -3.35
    endloop
  endfacet
  facet normal 0.881971 0.471304 0
    outer loop
      vertex -0.414978 0.200897 3.35
      vertex -0.463486 0.291672 -3.35
      vertex -0.463486 0.291672 3.35
    endloop
  endfacet
  facet normal 0.881971 0.471304 0
    outer loop
      vertex -0.463486 0.291672 -3.35
      vertex -0.414978 0.200897 3.35
      vertex -0.414978 0.200897 -3.35
    endloop
  endfacet
  facet normal 0.956931 0.290315 0
    outer loop
      vertex -0.385101 0.102417 3.35
      vertex -0.414978 0.200897 -3.35
      vertex -0.414978 0.200897 3.35
    endloop
  endfacet
  facet normal 0.956931 0.290315 0
    outer loop
      vertex -0.414978 0.200897 -3.35
      vertex -0.385101 0.102417 3.35
      vertex -0.385101 0.102417 -3.35
    endloop
  endfacet
  facet normal 0.995172 0.09815 0
    outer loop
      vertex -0.375 0 3.35
      vertex -0.385101 0.102417 -3.35
      vertex -0.385101 0.102417 3.35
    endloop
  endfacet
  facet normal 0.995172 0.09815 0
    outer loop
      vertex -0.385101 0.102417 -3.35
      vertex -0.375 0 3.35
      vertex -0.375 0 -3.35
    endloop
  endfacet
  facet normal 0.995172 -0.09815 0
    outer loop
      vertex -0.385101 -0.102417 3.35
      vertex -0.375 0 -3.35
      vertex -0.375 0 3.35
    endloop
  endfacet
  facet normal 0.995172 -0.09815 0
    outer loop
      vertex -0.375 0 -3.35
      vertex -0.385101 -0.102417 3.35
      vertex -0.385101 -0.102417 -3.35
    endloop
  endfacet
  facet normal 0.956931 -0.290315 0
    outer loop
      vertex -0.414978 -0.200897 3.35
      vertex -0.385101 -0.102417 -3.35
      vertex -0.385101 -0.102417 3.35
    endloop
  endfacet
  facet normal 0.956931 -0.290315 0
    outer loop
      vertex -0.385101 -0.102417 -3.35
      vertex -0.414978 -0.200897 3.35
      vertex -0.414978 -0.200897 -3.35
    endloop
  endfacet
  facet normal 0.881971 -0.471304 0
    outer loop
      vertex -0.463486 -0.291672 3.35
      vertex -0.414978 -0.200897 -3.35
      vertex -0.414978 -0.200897 3.35
    endloop
  endfacet
  facet normal 0.881971 -0.471304 0
    outer loop
      vertex -0.414978 -0.200897 -3.35
      vertex -0.463486 -0.291672 3.35
      vertex -0.463486 -0.291672 -3.35
    endloop
  endfacet
  facet normal 0.772954 -0.634463 0
    outer loop
      vertex -0.528778 -0.371216 3.35
      vertex -0.463486 -0.291672 -3.35
      vertex -0.463486 -0.291672 3.35
    endloop
  endfacet
  facet normal 0.772954 -0.634463 0
    outer loop
      vertex -0.463486 -0.291672 -3.35
      vertex -0.528778 -0.371216 3.35
      vertex -0.528778 -0.371216 -3.35
    endloop
  endfacet
  facet normal 0.634391 -0.773012 0
    outer loop
      vertex -0.608337 -0.436508 -3.35
      vertex -0.528778 -0.371216 3.35
      vertex -0.608337 -0.436508 3.35
    endloop
  endfacet
  facet normal 0.634391 -0.773012 0
    outer loop
      vertex -0.528778 -0.371216 3.35
      vertex -0.608337 -0.436508 -3.35
      vertex -0.528778 -0.371216 -3.35
    endloop
  endfacet
  facet normal 0.471478 -0.881878 0
    outer loop
      vertex -0.699097 -0.485031 -3.35
      vertex -0.608337 -0.436508 3.35
      vertex -0.699097 -0.485031 3.35
    endloop
  endfacet
  facet normal 0.471478 -0.881878 0
    outer loop
      vertex -0.608337 -0.436508 3.35
      vertex -0.699097 -0.485031 -3.35
      vertex -0.608337 -0.436508 -3.35
    endloop
  endfacet
  facet normal 0.411605 -0.911362 0
    outer loop
      vertex -1.95001 -1.04999 -3.35
      vertex -0.699097 -0.485031 3.35
      vertex -1.95001 -1.04999 3.35
    endloop
  endfacet
  facet normal 0.411605 -0.911362 0
    outer loop
      vertex -0.699097 -0.485031 3.35
      vertex -1.95001 -1.04999 -3.35
      vertex -0.699097 -0.485031 -3.35
    endloop
  endfacet
  facet normal 0 -1 0
    outer loop
      vertex -2.85001 -1.04999 -3.35
      vertex -1.95001 -1.04999 3.35
      vertex -2.85001 -1.04999 3.35
    endloop
  endfacet
  facet normal 0 -1 -0
    outer loop
      vertex -1.95001 -1.04999 3.35
      vertex -2.85001 -1.04999 -3.35
      vertex -1.95001 -1.04999 -3.35
    endloop
  endfacet
  facet normal 1 -0 0
    outer loop
      vertex -2.85001 -7.1375 3.35
      vertex -2.85001 -1.04999 -3.35
      vertex -2.85001 -1.04999 3.35
    endloop
  endfacet
  facet normal 1 0 0
    outer loop
      vertex -2.85001 -1.04999 -3.35
      vertex -2.85001 -7.1375 3.35
      vertex -2.85001 -7.1375 -3.35
    endloop
  endfacet
  facet normal 0.995188 -0.0979884 0
    outer loop
      vertex -2.8721 -7.36185 3.35
      vertex -2.85001 -7.1375 -3.35
      vertex -2.85001 -7.1375 3.35
    endloop
  endfacet
  facet normal 0.995188 -0.0979884 0
    outer loop
      vertex -2.85001 -7.1375 -3.35
      vertex -2.8721 -7.36185 3.35
      vertex -2.8721 -7.36185 -3.35
    endloop
  endfacet
  facet normal 0.956929 -0.290321 0
    outer loop
      vertex -2.93755 -7.57758 3.35
      vertex -2.8721 -7.36185 -3.35
      vertex -2.8721 -7.36185 3.35
    endloop
  endfacet
  facet normal 0.956929 -0.290321 0
    outer loop
      vertex -2.8721 -7.36185 -3.35
      vertex -2.93755 -7.57758 3.35
      vertex -2.93755 -7.57758 -3.35
    endloop
  endfacet
  facet normal 0.881942 -0.471357 0
    outer loop
      vertex -3.04381 -7.7764 3.35
      vertex -2.93755 -7.57758 -3.35
      vertex -2.93755 -7.57758 3.35
    endloop
  endfacet
  facet normal 0.881942 -0.471357 0
    outer loop
      vertex -2.93755 -7.57758 -3.35
      vertex -3.04381 -7.7764 3.35
      vertex -3.04381 -7.7764 -3.35
    endloop
  endfacet
  facet normal 0.773053 -0.634341 0
    outer loop
      vertex -3.18681 -7.95067 3.35
      vertex -3.04381 -7.7764 -3.35
      vertex -3.04381 -7.7764 3.35
    endloop
  endfacet
  facet normal 0.773053 -0.634341 0
    outer loop
      vertex -3.04381 -7.7764 -3.35
      vertex -3.18681 -7.95067 3.35
      vertex -3.18681 -7.95067 -3.35
    endloop
  endfacet
  facet normal 0.634394 -0.77301 0
    outer loop
      vertex -3.36108 -8.09369 -3.35
      vertex -3.18681 -7.95067 3.35
      vertex -3.36108 -8.09369 3.35
    endloop
  endfacet
  facet normal 0.634394 -0.77301 0
    outer loop
      vertex -3.18681 -7.95067 3.35
      vertex -3.36108 -8.09369 -3.35
      vertex -3.18681 -7.95067 -3.35
    endloop
  endfacet
  facet normal 0.471339 -0.881952 0
    outer loop
      vertex -3.55991 -8.19995 -3.35
      vertex -3.36108 -8.09369 3.35
      vertex -3.55991 -8.19995 3.35
    endloop
  endfacet
  facet normal 0.471339 -0.881952 0
    outer loop
      vertex -3.36108 -8.09369 3.35
      vertex -3.55991 -8.19995 -3.35
      vertex -3.36108 -8.09369 -3.35
    endloop
  endfacet
  facet normal 0.290334 -0.956925 0
    outer loop
      vertex -3.77563 -8.2654 -3.35
      vertex -3.55991 -8.19995 3.35
      vertex -3.77563 -8.2654 3.35
    endloop
  endfacet
  facet normal 0.290334 -0.956925 0
    outer loop
      vertex -3.55991 -8.19995 3.35
      vertex -3.77563 -8.2654 -3.35
      vertex -3.55991 -8.19995 -3.35
    endloop
  endfacet
  facet normal 0.0979797 -0.995188 0
    outer loop
      vertex -4 -8.28749 -3.35
      vertex -3.77563 -8.2654 3.35
      vertex -4 -8.28749 3.35
    endloop
  endfacet
  facet normal 0.0979797 -0.995188 0
    outer loop
      vertex -3.77563 -8.2654 3.35
      vertex -4 -8.28749 -3.35
      vertex -3.77563 -8.2654 -3.35
    endloop
  endfacet
  facet normal -0.0979884 -0.995188 0
    outer loop
      vertex -4.22435 -8.2654 -3.35
      vertex -4 -8.28749 3.35
      vertex -4.22435 -8.2654 3.35
    endloop
  endfacet
  facet normal -0.0979884 -0.995188 -0
    outer loop
      vertex -4 -8.28749 3.35
      vertex -4.22435 -8.2654 -3.35
      vertex -4 -8.28749 -3.35
    endloop
  endfacet
  facet normal -0.290321 -0.956929 0
    outer loop
      vertex -4.44008 -8.19995 -3.35
      vertex -4.22435 -8.2654 3.35
      vertex -4.44008 -8.19995 3.35
    endloop
  endfacet
  facet normal -0.290321 -0.956929 -0
    outer loop
      vertex -4.22435 -8.2654 3.35
      vertex -4.44008 -8.19995 -3.35
      vertex -4.22435 -8.2654 -3.35
    endloop
  endfacet
  facet normal -0.471357 -0.881942 0
    outer loop
      vertex -4.6389 -8.09369 -3.35
      vertex -4.44008 -8.19995 3.35
      vertex -4.6389 -8.09369 3.35
    endloop
  endfacet
  facet normal -0.471357 -0.881942 -0
    outer loop
      vertex -4.44008 -8.19995 3.35
      vertex -4.6389 -8.09369 -3.35
      vertex -4.44008 -8.19995 -3.35
    endloop
  endfacet
  facet normal -0.634394 -0.77301 0
    outer loop
      vertex -4.81317 -7.95067 -3.35
      vertex -4.6389 -8.09369 3.35
      vertex -4.81317 -7.95067 3.35
    endloop
  endfacet
  facet normal -0.634394 -0.77301 -0
    outer loop
      vertex -4.6389 -8.09369 3.35
      vertex -4.81317 -7.95067 -3.35
      vertex -4.6389 -8.09369 -3.35
    endloop
  endfacet
  facet normal -0.773032 -0.634368 0
    outer loop
      vertex -4.81317 -7.95067 -3.35
      vertex -4.95618 -7.7764 3.35
      vertex -4.95618 -7.7764 -3.35
    endloop
  endfacet
  facet normal -0.773032 -0.634368 0
    outer loop
      vertex -4.95618 -7.7764 3.35
      vertex -4.81317 -7.95067 -3.35
      vertex -4.81317 -7.95067 3.35
    endloop
  endfacet
  facet normal -0.881924 -0.471392 0
    outer loop
      vertex -4.95618 -7.7764 -3.35
      vertex -5.06245 -7.57758 3.35
      vertex -5.06245 -7.57758 -3.35
    endloop
  endfacet
  facet normal -0.881924 -0.471392 0
    outer loop
      vertex -5.06245 -7.57758 3.35
      vertex -4.95618 -7.7764 -3.35
      vertex -4.95618 -7.7764 3.35
    endloop
  endfacet
  facet normal -0.956929 -0.290321 0
    outer loop
      vertex -5.06245 -7.57758 -3.35
      vertex -5.1279 -7.36185 3.35
      vertex -5.1279 -7.36185 -3.35
    endloop
  endfacet
  facet normal -0.956929 -0.290321 0
    outer loop
      vertex -5.1279 -7.36185 3.35
      vertex -5.06245 -7.57758 -3.35
      vertex -5.06245 -7.57758 3.35
    endloop
  endfacet
  facet normal -0.995188 -0.0979884 0
    outer loop
      vertex -5.1279 -7.36185 -3.35
      vertex -5.14999 -7.1375 3.35
      vertex -5.14999 -7.1375 -3.35
    endloop
  endfacet
  facet normal -0.995188 -0.0979884 0
    outer loop
      vertex -5.14999 -7.1375 3.35
      vertex -5.1279 -7.36185 -3.35
      vertex -5.1279 -7.36185 3.35
    endloop
  endfacet
  facet normal -1 0 0
    outer loop
      vertex -5.14999 -7.1375 -3.35
      vertex -5.14999 7.1375 3.35
      vertex -5.14999 7.1375 -3.35
    endloop
  endfacet
  facet normal -1 -0 0
    outer loop
      vertex -5.14999 7.1375 3.35
      vertex -5.14999 -7.1375 -3.35
      vertex -5.14999 -7.1375 3.35
    endloop
  endfacet
  facet normal -0.995188 0.0979884 0
    outer loop
      vertex -5.14999 7.1375 -3.35
      vertex -5.1279 7.36185 3.35
      vertex -5.1279 7.36185 -3.35
    endloop
  endfacet
  facet normal -0.995188 0.0979884 0
    outer loop
      vertex -5.1279 7.36185 3.35
      vertex -5.14999 7.1375 -3.35
      vertex -5.14999 7.1375 3.35
    endloop
  endfacet
  facet normal -0 0 1
    outer loop
      vertex 2.85001 7.1375 3.35
      vertex 5.14999 1.04999 3.35
      vertex 5.14999 7.1375 3.35
    endloop
  endfacet
  facet normal 0 0 1
    outer loop
      vertex 5.14999 1.04999 3.35
      vertex 2.85001 7.1375 3.35
      vertex 5.14999 -1.04999 3.35
    endloop
  endfacet
  facet normal 0 0 1
    outer loop
      vertex 2.85001 7.1375 3.35
      vertex 5.14999 7.1375 3.35
      vertex 5.1279 7.36185 3.35
    endloop
  endfacet
  facet normal 0 0 1
    outer loop
      vertex 2.85001 -7.1375 3.35
      vertex 5.14999 -1.04999 3.35
      vertex 2.85001 7.1375 3.35
    endloop
  endfacet
  facet normal 0 0 1
    outer loop
      vertex 2.85001 7.1375 3.35
      vertex 5.1279 7.36185 3.35
      vertex 5.06245 7.57758 3.35
    endloop
  endfacet
  facet normal 0 0 1
    outer loop
      vertex 5.14999 -1.04999 3.35
      vertex 2.85001 -7.1375 3.35
      vertex 5.14999 -7.1375 3.35
    endloop
  endfacet
  facet normal 0 0 1
    outer loop
      vertex 2.85001 7.1375 3.35
      vertex 5.06245 7.57758 3.35
      vertex 4.95619 7.7764 3.35
    endloop
  endfacet
  facet normal 0 0 1
    outer loop
      vertex 5.14999 -7.1375 3.35
      vertex 2.85001 -7.1375 3.35
      vertex 5.1279 -7.36185 3.35
    endloop
  endfacet
  facet normal 0 0 1
    outer loop
      vertex 2.85001 7.1375 3.35
      vertex 4.95619 7.7764 3.35
      vertex 4.81319 7.95067 3.35
    endloop
  endfacet
  facet normal 0 0 1
    outer loop
      vertex 5.1279 -7.36185 3.35
      vertex 2.85001 -7.1375 3.35
      vertex 5.06245 -7.57758 3.35
    endloop
  endfacet
  facet normal 0 0 1
    outer loop
      vertex 2.85001 7.1375 3.35
      vertex 4.81319 7.95067 3.35
      vertex 4.63892 8.09369 3.35
    endloop
  endfacet
  facet normal 0 0 1
    outer loop
      vertex 5.06245 -7.57758 3.35
      vertex 2.85001 -7.1375 3.35
      vertex 4.95619 -7.7764 3.35
    endloop
  endfacet
  facet normal 0 0 1
    outer loop
      vertex 2.85001 7.1375 3.35
      vertex 4.63892 8.09369 3.35
      vertex 4.44009 8.19995 3.35
    endloop
  endfacet
  facet normal 0 0 1
    outer loop
      vertex 4.95619 -7.7764 3.35
      vertex 2.85001 -7.1375 3.35
      vertex 4.81319 -7.95067 3.35
    endloop
  endfacet
  facet normal 0 0 1
    outer loop
      vertex 2.85001 7.1375 3.35
      vertex 4.44009 8.19995 3.35
      vertex 4.22437 8.2654 3.35
    endloop
  endfacet
  facet normal 0 0 1
    outer loop
      vertex 4.81319 -7.95067 3.35
      vertex 2.85001 -7.1375 3.35
      vertex 4.63892 -8.09369 3.35
    endloop
  endfacet
  facet normal 0 0 1
    outer loop
      vertex 2.85001 7.1375 3.35
      vertex 4.22437 8.2654 3.35
      vertex 4 8.28749 3.35
    endloop
  endfacet
  facet normal 0 0 1
    outer loop
      vertex 4.63892 -8.09369 3.35
      vertex 2.85001 -7.1375 3.35
      vertex 4.44009 -8.19995 3.35
    endloop
  endfacet
  facet normal 0 0 1
    outer loop
      vertex 2.85001 7.1375 3.35
      vertex 4 8.28749 3.35
      vertex 3.77565 8.2654 3.35
    endloop
  endfacet
  facet normal 0 0 1
    outer loop
      vertex 4.44009 -8.19995 3.35
      vertex 2.85001 -7.1375 3.35
      vertex 4.22437 -8.2654 3.35
    endloop
  endfacet
  facet normal 0 0 1
    outer loop
      vertex 2.85001 7.1375 3.35
      vertex 3.77565 8.2654 3.35
      vertex 3.55992 8.19995 3.35
    endloop
  endfacet
  facet normal 0 0 1
    outer loop
      vertex 4.22437 -8.2654 3.35
      vertex 2.85001 -7.1375 3.35
      vertex 4 -8.28749 3.35
    endloop
  endfacet
  facet normal 0 0 1
    outer loop
      vertex 2.85001 7.1375 3.35
      vertex 3.55992 8.19995 3.35
      vertex 3.3611 8.09369 3.35
    endloop
  endfacet
  facet normal 0 0 1
    outer loop
      vertex 4 -8.28749 3.35
      vertex 2.85001 -7.1375 3.35
      vertex 3.77565 -8.2654 3.35
    endloop
  endfacet
  facet normal 0 0 1
    outer loop
      vertex 2.85001 7.1375 3.35
      vertex 3.3611 8.09369 3.35
      vertex 3.18683 7.95067 3.35
    endloop
  endfacet
  facet normal 0 0 1
    outer loop
      vertex 3.77565 -8.2654 3.35
      vertex 2.85001 -7.1375 3.35
      vertex 3.55992 -8.19995 3.35
    endloop
  endfacet
  facet normal 0 0 1
    outer loop
      vertex 2.85001 7.1375 3.35
      vertex 3.18683 7.95067 3.35
      vertex 3.04382 7.7764 3.35
    endloop
  endfacet
  facet normal 0 0 1
    outer loop
      vertex 3.55992 -8.19995 3.35
      vertex 2.85001 -7.1375 3.35
      vertex 3.3611 -8.09369 3.35
    endloop
  endfacet
  facet normal 0 0 1
    outer loop
      vertex 2.85001 7.1375 3.35
      vertex 3.04382 7.7764 3.35
      vertex 2.93755 7.57758 3.35
    endloop
  endfacet
  facet normal 0 0 1
    outer loop
      vertex 3.3611 -8.09369 3.35
      vertex 2.85001 -7.1375 3.35
      vertex 3.18683 -7.95067 3.35
    endloop
  endfacet
  facet normal 0 0 1
    outer loop
      vertex 2.85001 7.1375 3.35
      vertex 2.93755 7.57758 3.35
      vertex 2.8721 7.36185 3.35
    endloop
  endfacet
  facet normal 0 0 1
    outer loop
      vertex 3.18683 -7.95067 3.35
      vertex 2.85001 -7.1375 3.35
      vertex 3.04382 -7.7764 3.35
    endloop
  endfacet
  facet normal 0 0 1
    outer loop
      vertex 3.04382 -7.7764 3.35
      vertex 2.85001 -7.1375 3.35
      vertex 2.93755 -7.57758 3.35
    endloop
  endfacet
  facet normal 0 0 1
    outer loop
      vertex 2.93755 -7.57758 3.35
      vertex 2.85001 -7.1375 3.35
      vertex 2.8721 -7.36185 3.35
    endloop
  endfacet
  facet normal 0 0 1
    outer loop
      vertex 7.6149 0.102417 3.35
      vertex 7.6149 -0.102417 3.35
      vertex 7.625 0 3.35
    endloop
  endfacet
  facet normal 0 0 1
    outer loop
      vertex 7.58502 0.200897 3.35
      vertex 7.6149 -0.102417 3.35
      vertex 7.6149 0.102417 3.35
    endloop
  endfacet
  facet normal 0 0 1
    outer loop
      vertex 7.58502 0.200897 3.35
      vertex 7.58502 -0.200897 3.35
      vertex 7.6149 -0.102417 3.35
    endloop
  endfacet
  facet normal 0 0 1
    outer loop
      vertex 7.53651 0.291672 3.35
      vertex 7.58502 -0.200897 3.35
      vertex 7.58502 0.200897 3.35
    endloop
  endfacet
  facet normal 0 0 1
    outer loop
      vertex 7.53651 0.291672 3.35
      vertex 7.53651 -0.291672 3.35
      vertex 7.58502 -0.200897 3.35
    endloop
  endfacet
  facet normal 0 0 1
    outer loop
      vertex 7.47122 0.371216 3.35
      vertex 7.53651 -0.291672 3.35
      vertex 7.53651 0.291672 3.35
    endloop
  endfacet
  facet normal 0 0 1
    outer loop
      vertex 7.47122 0.371216 3.35
      vertex 7.47122 -0.371216 3.35
      vertex 7.53651 -0.291672 3.35
    endloop
  endfacet
  facet normal 0 0 1
    outer loop
      vertex 7.39166 0.436508 3.35
      vertex 7.47122 -0.371216 3.35
      vertex 7.47122 0.371216 3.35
    endloop
  endfacet
  facet normal 0 0 1
    outer loop
      vertex 7.39166 0.436508 3.35
      vertex 7.39166 -0.436508 3.35
      vertex 7.47122 -0.371216 3.35
    endloop
  endfacet
  facet normal 0 0 1
    outer loop
      vertex 7.3009 0.485031 3.35
      vertex 7.39166 -0.436508 3.35
      vertex 7.39166 0.436508 3.35
    endloop
  endfacet
  facet normal 0 0 1
    outer loop
      vertex 7.3009 0.485031 3.35
      vertex 7.3009 -0.485031 3.35
      vertex 7.39166 -0.436508 3.35
    endloop
  endfacet
  facet normal 0 0 1
    outer loop
      vertex 6.04999 1.04999 3.35
      vertex 7.3009 -0.485031 3.35
      vertex 7.3009 0.485031 3.35
    endloop
  endfacet
  facet normal 0 0 1
    outer loop
      vertex 6.04999 1.04999 3.35
      vertex 6.04999 -1.04999 3.35
      vertex 7.3009 -0.485031 3.35
    endloop
  endfacet
  facet normal -0 0 1
    outer loop
      vertex 5.14999 1.04999 3.35
      vertex 6.04999 -1.04999 3.35
      vertex 6.04999 1.04999 3.35
    endloop
  endfacet
  facet normal 0 0 1
    outer loop
      vertex 6.04999 -1.04999 3.35
      vertex 5.14999 1.04999 3.35
      vertex 5.14999 -1.04999 3.35
    endloop
  endfacet
  facet normal 0 0 -1
    outer loop
      vertex 2.85001 -7.1375 -3.35
      vertex 5.14999 -1.04999 -3.35
      vertex 5.14999 -7.1375 -3.35
    endloop
  endfacet
  facet normal -0 0 -1
    outer loop
      vertex 5.14999 -1.04999 -3.35
      vertex 2.85001 -7.1375 -3.35
      vertex 5.14999 1.04999 -3.35
    endloop
  endfacet
  facet normal 0 0 -1
    outer loop
      vertex 2.85001 -7.1375 -3.35
      vertex 5.14999 -7.1375 -3.35
      vertex 5.1279 -7.36185 -3.35
    endloop
  endfacet
  facet normal 0 0 -1
    outer loop
      vertex 2.85001 7.1375 -3.35
      vertex 5.14999 1.04999 -3.35
      vertex 2.85001 -7.1375 -3.35
    endloop
  endfacet
  facet normal 0 0 -1
    outer loop
      vertex 2.85001 -7.1375 -3.35
      vertex 5.1279 -7.36185 -3.35
      vertex 5.06245 -7.57758 -3.35
    endloop
  endfacet
  facet normal 0 0 -1
    outer loop
      vertex 5.14999 1.04999 -3.35
      vertex 2.85001 7.1375 -3.35
      vertex 5.14999 7.1375 -3.35
    endloop
  endfacet
  facet normal 0 0 -1
    outer loop
      vertex 2.85001 -7.1375 -3.35
      vertex 5.06245 -7.57758 -3.35
      vertex 4.95619 -7.7764 -3.35
    endloop
  endfacet
  facet normal 0 0 -1
    outer loop
      vertex 5.14999 7.1375 -3.35
      vertex 2.85001 7.1375 -3.35
      vertex 5.1279 7.36185 -3.35
    endloop
  endfacet
  facet normal 0 0 -1
    outer loop
      vertex 2.85001 -7.1375 -3.35
      vertex 4.95619 -7.7764 -3.35
      vertex 4.81319 -7.95067 -3.35
    endloop
  endfacet
  facet normal -0 0 -1
    outer loop
      vertex 5.1279 7.36185 -3.35
      vertex 2.85001 7.1375 -3.35
      vertex 5.06245 7.57758 -3.35
    endloop
  endfacet
  facet normal 0 0 -1
    outer loop
      vertex 2.85001 -7.1375 -3.35
      vertex 4.81319 -7.95067 -3.35
      vertex 4.63892 -8.09369 -3.35
    endloop
  endfacet
  facet normal -0 0 -1
    outer loop
      vertex 5.06245 7.57758 -3.35
      vertex 2.85001 7.1375 -3.35
      vertex 4.95619 7.7764 -3.35
    endloop
  endfacet
  facet normal 0 0 -1
    outer loop
      vertex 2.85001 -7.1375 -3.35
      vertex 4.63892 -8.09369 -3.35
      vertex 4.44009 -8.19995 -3.35
    endloop
  endfacet
  facet normal -0 0 -1
    outer loop
      vertex 4.95619 7.7764 -3.35
      vertex 2.85001 7.1375 -3.35
      vertex 4.81319 7.95067 -3.35
    endloop
  endfacet
  facet normal 0 0 -1
    outer loop
      vertex 2.85001 -7.1375 -3.35
      vertex 4.44009 -8.19995 -3.35
      vertex 4.22437 -8.2654 -3.35
    endloop
  endfacet
  facet normal -0 0 -1
    outer loop
      vertex 4.81319 7.95067 -3.35
      vertex 2.85001 7.1375 -3.35
      vertex 4.63892 8.09369 -3.35
    endloop
  endfacet
  facet normal 0 0 -1
    outer loop
      vertex 2.85001 -7.1375 -3.35
      vertex 4.22437 -8.2654 -3.35
      vertex 4 -8.28749 -3.35
    endloop
  endfacet
  facet normal -0 0 -1
    outer loop
      vertex 4.63892 8.09369 -3.35
      vertex 2.85001 7.1375 -3.35
      vertex 4.44009 8.19995 -3.35
    endloop
  endfacet
  facet normal 0 0 -1
    outer loop
      vertex 2.85001 -7.1375 -3.35
      vertex 4 -8.28749 -3.35
      vertex 3.77565 -8.2654 -3.35
    endloop
  endfacet
  facet normal -0 0 -1
    outer loop
      vertex 4.44009 8.19995 -3.35
      vertex 2.85001 7.1375 -3.35
      vertex 4.22437 8.2654 -3.35
    endloop
  endfacet
  facet normal 0 0 -1
    outer loop
      vertex 2.85001 -7.1375 -3.35
      vertex 3.77565 -8.2654 -3.35
      vertex 3.55992 -8.19995 -3.35
    endloop
  endfacet
  facet normal -0 0 -1
    outer loop
      vertex 4.22437 8.2654 -3.35
      vertex 2.85001 7.1375 -3.35
      vertex 4 8.28749 -3.35
    endloop
  endfacet
  facet normal 0 0 -1
    outer loop
      vertex 2.85001 -7.1375 -3.35
      vertex 3.55992 -8.19995 -3.35
      vertex 3.3611 -8.09369 -3.35
    endloop
  endfacet
  facet normal 0 0 -1
    outer loop
      vertex 4 8.28749 -3.35
      vertex 2.85001 7.1375 -3.35
      vertex 3.77565 8.2654 -3.35
    endloop
  endfacet
  facet normal 0 0 -1
    outer loop
      vertex 2.85001 -7.1375 -3.35
      vertex 3.3611 -8.09369 -3.35
      vertex 3.18683 -7.95067 -3.35
    endloop
  endfacet
  facet normal 0 0 -1
    outer loop
      vertex 3.77565 8.2654 -3.35
      vertex 2.85001 7.1375 -3.35
      vertex 3.55992 8.19995 -3.35
    endloop
  endfacet
  facet normal 0 0 -1
    outer loop
      vertex 2.85001 -7.1375 -3.35
      vertex 3.18683 -7.95067 -3.35
      vertex 3.04382 -7.7764 -3.35
    endloop
  endfacet
  facet normal 0 0 -1
    outer loop
      vertex 3.55992 8.19995 -3.35
      vertex 2.85001 7.1375 -3.35
      vertex 3.3611 8.09369 -3.35
    endloop
  endfacet
  facet normal 0 0 -1
    outer loop
      vertex 2.85001 -7.1375 -3.35
      vertex 3.04382 -7.7764 -3.35
      vertex 2.93755 -7.57758 -3.35
    endloop
  endfacet
  facet normal 0 0 -1
    outer loop
      vertex 3.3611 8.09369 -3.35
      vertex 2.85001 7.1375 -3.35
      vertex 3.18683 7.95067 -3.35
    endloop
  endfacet
  facet normal 0 0 -1
    outer loop
      vertex 2.85001 -7.1375 -3.35
      vertex 2.93755 -7.57758 -3.35
      vertex 2.8721 -7.36185 -3.35
    endloop
  endfacet
  facet normal 0 0 -1
    outer loop
      vertex 3.18683 7.95067 -3.35
      vertex 2.85001 7.1375 -3.35
      vertex 3.04382 7.7764 -3.35
    endloop
  endfacet
  facet normal 0 0 -1
    outer loop
      vertex 3.04382 7.7764 -3.35
      vertex 2.85001 7.1375 -3.35
      vertex 2.93755 7.57758 -3.35
    endloop
  endfacet
  facet normal 0 0 -1
    outer loop
      vertex 2.93755 7.57758 -3.35
      vertex 2.85001 7.1375 -3.35
      vertex 2.8721 7.36185 -3.35
    endloop
  endfacet
  facet normal 0 0 -1
    outer loop
      vertex 7.6149 -0.102417 -3.35
      vertex 7.6149 0.102417 -3.35
      vertex 7.625 0 -3.35
    endloop
  endfacet
  facet normal 0 0 -1
    outer loop
      vertex 7.58502 -0.200897 -3.35
      vertex 7.6149 0.102417 -3.35
      vertex 7.6149 -0.102417 -3.35
    endloop
  endfacet
  facet normal 0 0 -1
    outer loop
      vertex 7.58502 -0.200897 -3.35
      vertex 7.58502 0.200897 -3.35
      vertex 7.6149 0.102417 -3.35
    endloop
  endfacet
  facet normal 0 0 -1
    outer loop
      vertex 7.53651 -0.291672 -3.35
      vertex 7.58502 0.200897 -3.35
      vertex 7.58502 -0.200897 -3.35
    endloop
  endfacet
  facet normal 0 0 -1
    outer loop
      vertex 7.53651 -0.291672 -3.35
      vertex 7.53651 0.291672 -3.35
      vertex 7.58502 0.200897 -3.35
    endloop
  endfacet
  facet normal 0 0 -1
    outer loop
      vertex 7.47122 -0.371216 -3.35
      vertex 7.53651 0.291672 -3.35
      vertex 7.53651 -0.291672 -3.35
    endloop
  endfacet
  facet normal 0 0 -1
    outer loop
      vertex 7.47122 -0.371216 -3.35
      vertex 7.47122 0.371216 -3.35
      vertex 7.53651 0.291672 -3.35
    endloop
  endfacet
  facet normal 0 0 -1
    outer loop
      vertex 7.39166 -0.436508 -3.35
      vertex 7.47122 0.371216 -3.35
      vertex 7.47122 -0.371216 -3.35
    endloop
  endfacet
  facet normal 0 0 -1
    outer loop
      vertex 7.39166 -0.436508 -3.35
      vertex 7.39166 0.436508 -3.35
      vertex 7.47122 0.371216 -3.35
    endloop
  endfacet
  facet normal 0 0 -1
    outer loop
      vertex 7.3009 -0.485031 -3.35
      vertex 7.39166 0.436508 -3.35
      vertex 7.39166 -0.436508 -3.35
    endloop
  endfacet
  facet normal 0 0 -1
    outer loop
      vertex 7.3009 -0.485031 -3.35
      vertex 7.3009 0.485031 -3.35
      vertex 7.39166 0.436508 -3.35
    endloop
  endfacet
  facet normal 0 0 -1
    outer loop
      vertex 6.04999 -1.04999 -3.35
      vertex 7.3009 0.485031 -3.35
      vertex 7.3009 -0.485031 -3.35
    endloop
  endfacet
  facet normal 0 0 -1
    outer loop
      vertex 6.04999 -1.04999 -3.35
      vertex 6.04999 1.04999 -3.35
      vertex 7.3009 0.485031 -3.35
    endloop
  endfacet
  facet normal 0 0 -1
    outer loop
      vertex 5.14999 -1.04999 -3.35
      vertex 6.04999 1.04999 -3.35
      vertex 6.04999 -1.04999 -3.35
    endloop
  endfacet
  facet normal -0 0 -1
    outer loop
      vertex 6.04999 1.04999 -3.35
      vertex 5.14999 -1.04999 -3.35
      vertex 5.14999 1.04999 -3.35
    endloop
  endfacet
  facet normal -0.956929 0.290321 0
    outer loop
      vertex 2.8721 7.36185 -3.35
      vertex 2.93755 7.57758 3.35
      vertex 2.93755 7.57758 -3.35
    endloop
  endfacet
  facet normal -0.956929 0.290321 0
    outer loop
      vertex 2.93755 7.57758 3.35
      vertex 2.8721 7.36185 -3.35
      vertex 2.8721 7.36185 3.35
    endloop
  endfacet
  facet normal -0.881924 0.471392 0
    outer loop
      vertex 2.93755 7.57758 -3.35
      vertex 3.04382 7.7764 3.35
      vertex 3.04382 7.7764 -3.35
    endloop
  endfacet
  facet normal -0.881924 0.471392 0
    outer loop
      vertex 3.04382 7.7764 3.35
      vertex 2.93755 7.57758 -3.35
      vertex 2.93755 7.57758 3.35
    endloop
  endfacet
  facet normal -0.773032 0.634368 0
    outer loop
      vertex 3.04382 7.7764 -3.35
      vertex 3.18683 7.95067 3.35
      vertex 3.18683 7.95067 -3.35
    endloop
  endfacet
  facet normal -0.773032 0.634368 0
    outer loop
      vertex 3.18683 7.95067 3.35
      vertex 3.04382 7.7764 -3.35
      vertex 3.04382 7.7764 3.35
    endloop
  endfacet
  facet normal -0.634394 0.77301 0
    outer loop
      vertex 3.3611 8.09369 -3.35
      vertex 3.18683 7.95067 3.35
      vertex 3.3611 8.09369 3.35
    endloop
  endfacet
  facet normal -0.634394 0.77301 0
    outer loop
      vertex 3.18683 7.95067 3.35
      vertex 3.3611 8.09369 -3.35
      vertex 3.18683 7.95067 -3.35
    endloop
  endfacet
  facet normal -0.471357 0.881942 0
    outer loop
      vertex 3.55992 8.19995 -3.35
      vertex 3.3611 8.09369 3.35
      vertex 3.55992 8.19995 3.35
    endloop
  endfacet
  facet normal -0.471357 0.881942 0
    outer loop
      vertex 3.3611 8.09369 3.35
      vertex 3.55992 8.19995 -3.35
      vertex 3.3611 8.09369 -3.35
    endloop
  endfacet
  facet normal -0.290321 0.956929 0
    outer loop
      vertex 3.77565 8.2654 -3.35
      vertex 3.55992 8.19995 3.35
      vertex 3.77565 8.2654 3.35
    endloop
  endfacet
  facet normal -0.290321 0.956929 0
    outer loop
      vertex 3.55992 8.19995 3.35
      vertex 3.77565 8.2654 -3.35
      vertex 3.55992 8.19995 -3.35
    endloop
  endfacet
  facet normal -0.0979884 0.995188 0
    outer loop
      vertex 4 8.28749 -3.35
      vertex 3.77565 8.2654 3.35
      vertex 4 8.28749 3.35
    endloop
  endfacet
  facet normal -0.0979884 0.995188 0
    outer loop
      vertex 3.77565 8.2654 3.35
      vertex 4 8.28749 -3.35
      vertex 3.77565 8.2654 -3.35
    endloop
  endfacet
  facet normal 0.0979797 0.995188 -0
    outer loop
      vertex 4.22437 8.2654 -3.35
      vertex 4 8.28749 3.35
      vertex 4.22437 8.2654 3.35
    endloop
  endfacet
  facet normal 0.0979797 0.995188 0
    outer loop
      vertex 4 8.28749 3.35
      vertex 4.22437 8.2654 -3.35
      vertex 4 8.28749 -3.35
    endloop
  endfacet
  facet normal 0.290334 0.956925 -0
    outer loop
      vertex 4.44009 8.19995 -3.35
      vertex 4.22437 8.2654 3.35
      vertex 4.44009 8.19995 3.35
    endloop
  endfacet
  facet normal 0.290334 0.956925 0
    outer loop
      vertex 4.22437 8.2654 3.35
      vertex 4.44009 8.19995 -3.35
      vertex 4.22437 8.2654 -3.35
    endloop
  endfacet
  facet normal 0.471339 0.881952 -0
    outer loop
      vertex 4.63892 8.09369 -3.35
      vertex 4.44009 8.19995 3.35
      vertex 4.63892 8.09369 3.35
    endloop
  endfacet
  facet normal 0.471339 0.881952 0
    outer loop
      vertex 4.44009 8.19995 3.35
      vertex 4.63892 8.09369 -3.35
      vertex 4.44009 8.19995 -3.35
    endloop
  endfacet
  facet normal 0.634394 0.77301 -0
    outer loop
      vertex 4.81319 7.95067 -3.35
      vertex 4.63892 8.09369 3.35
      vertex 4.81319 7.95067 3.35
    endloop
  endfacet
  facet normal 0.634394 0.77301 0
    outer loop
      vertex 4.63892 8.09369 3.35
      vertex 4.81319 7.95067 -3.35
      vertex 4.63892 8.09369 -3.35
    endloop
  endfacet
  facet normal 0.773053 0.634341 0
    outer loop
      vertex 4.95619 7.7764 3.35
      vertex 4.81319 7.95067 -3.35
      vertex 4.81319 7.95067 3.35
    endloop
  endfacet
  facet normal 0.773053 0.634341 0
    outer loop
      vertex 4.81319 7.95067 -3.35
      vertex 4.95619 7.7764 3.35
      vertex 4.95619 7.7764 -3.35
    endloop
  endfacet
  facet normal 0.881942 0.471357 0
    outer loop
      vertex 5.06245 7.57758 3.35
      vertex 4.95619 7.7764 -3.35
      vertex 4.95619 7.7764 3.35
    endloop
  endfacet
  facet normal 0.881942 0.471357 0
    outer loop
      vertex 4.95619 7.7764 -3.35
      vertex 5.06245 7.57758 3.35
      vertex 5.06245 7.57758 -3.35
    endloop
  endfacet
  facet normal 0.956929 0.290321 0
    outer loop
      vertex 5.1279 7.36185 3.35
      vertex 5.06245 7.57758 -3.35
      vertex 5.06245 7.57758 3.35
    endloop
  endfacet
  facet normal 0.956929 0.290321 0
    outer loop
      vertex 5.06245 7.57758 -3.35
      vertex 5.1279 7.36185 3.35
      vertex 5.1279 7.36185 -3.35
    endloop
  endfacet
  facet normal 0.995188 0.0979884 0
    outer loop
      vertex 5.14999 7.1375 3.35
      vertex 5.1279 7.36185 -3.35
      vertex 5.1279 7.36185 3.35
    endloop
  endfacet
  facet normal 0.995188 0.0979884 0
    outer loop
      vertex 5.1279 7.36185 -3.35
      vertex 5.14999 7.1375 3.35
      vertex 5.14999 7.1375 -3.35
    endloop
  endfacet
  facet normal 1 -0 0
    outer loop
      vertex 5.14999 1.04999 3.35
      vertex 5.14999 7.1375 -3.35
      vertex 5.14999 7.1375 3.35
    endloop
  endfacet
  facet normal 1 0 0
    outer loop
      vertex 5.14999 7.1375 -3.35
      vertex 5.14999 1.04999 3.35
      vertex 5.14999 1.04999 -3.35
    endloop
  endfacet
  facet normal 0 1 -0
    outer loop
      vertex 6.04999 1.04999 -3.35
      vertex 5.14999 1.04999 3.35
      vertex 6.04999 1.04999 3.35
    endloop
  endfacet
  facet normal 0 1 0
    outer loop
      vertex 5.14999 1.04999 3.35
      vertex 6.04999 1.04999 -3.35
      vertex 5.14999 1.04999 -3.35
    endloop
  endfacet
  facet normal 0.411606 0.911362 -0
    outer loop
      vertex 7.3009 0.485031 -3.35
      vertex 6.04999 1.04999 3.35
      vertex 7.3009 0.485031 3.35
    endloop
  endfacet
  facet normal 0.411606 0.911362 0
    outer loop
      vertex 6.04999 1.04999 3.35
      vertex 7.3009 0.485031 -3.35
      vertex 6.04999 1.04999 -3.35
    endloop
  endfacet
  facet normal 0.471478 0.881878 -0
    outer loop
      vertex 7.39166 0.436508 -3.35
      vertex 7.3009 0.485031 3.35
      vertex 7.39166 0.436508 3.35
    endloop
  endfacet
  facet normal 0.471478 0.881878 0
    outer loop
      vertex 7.3009 0.485031 3.35
      vertex 7.39166 0.436508 -3.35
      vertex 7.3009 0.485031 -3.35
    endloop
  endfacet
  facet normal 0.634386 0.773016 -0
    outer loop
      vertex 7.47122 0.371216 -3.35
      vertex 7.39166 0.436508 3.35
      vertex 7.47122 0.371216 3.35
    endloop
  endfacet
  facet normal 0.634386 0.773016 0
    outer loop
      vertex 7.39166 0.436508 3.35
      vertex 7.47122 0.371216 -3.35
      vertex 7.39166 0.436508 -3.35
    endloop
  endfacet
  facet normal 0.772963 0.634451 0
    outer loop
      vertex 7.53651 0.291672 3.35
      vertex 7.47122 0.371216 -3.35
      vertex 7.47122 0.371216 3.35
    endloop
  endfacet
  facet normal 0.772963 0.634451 0
    outer loop
      vertex 7.47122 0.371216 -3.35
      vertex 7.53651 0.291672 3.35
      vertex 7.53651 0.291672 -3.35
    endloop
  endfacet
  facet normal 0.881963 0.471319 0
    outer loop
      vertex 7.58502 0.200897 3.35
      vertex 7.53651 0.291672 -3.35
      vertex 7.53651 0.291672 3.35
    endloop
  endfacet
  facet normal 0.881963 0.471319 0
    outer loop
      vertex 7.53651 0.291672 -3.35
      vertex 7.58502 0.200897 3.35
      vertex 7.58502 0.200897 -3.35
    endloop
  endfacet
  facet normal 0.956923 0.290342 0
    outer loop
      vertex 7.6149 0.102417 3.35
      vertex 7.58502 0.200897 -3.35
      vertex 7.58502 0.200897 3.35
    endloop
  endfacet
  facet normal 0.956923 0.290342 0
    outer loop
      vertex 7.58502 0.200897 -3.35
      vertex 7.6149 0.102417 3.35
      vertex 7.6149 0.102417 -3.35
    endloop
  endfacet
  facet normal 0.995173 0.0981404 0
    outer loop
      vertex 7.625 0 3.35
      vertex 7.6149 0.102417 -3.35
      vertex 7.6149 0.102417 3.35
    endloop
  endfacet
  facet normal 0.995173 0.0981404 0
    outer loop
      vertex 7.6149 0.102417 -3.35
      vertex 7.625 0 3.35
      vertex 7.625 0 -3.35
    endloop
  endfacet
  facet normal 0.995173 -0.0981404 0
    outer loop
      vertex 7.6149 -0.102417 3.35
      vertex 7.625 0 -3.35
      vertex 7.625 0 3.35
    endloop
  endfacet
  facet normal 0.995173 -0.0981404 0
    outer loop
      vertex 7.625 0 -3.35
      vertex 7.6149 -0.102417 3.35
      vertex 7.6149 -0.102417 -3.35
    endloop
  endfacet
  facet normal 0.956923 -0.290342 0
    outer loop
      vertex 7.58502 -0.200897 3.35
      vertex 7.6149 -0.102417 -3.35
      vertex 7.6149 -0.102417 3.35
    endloop
  endfacet
  facet normal 0.956923 -0.290342 0
    outer loop
      vertex 7.6149 -0.102417 -3.35
      vertex 7.58502 -0.200897 3.35
      vertex 7.58502 -0.200897 -3.35
    endloop
  endfacet
  facet normal 0.881963 -0.471319 0
    outer loop
      vertex 7.53651 -0.291672 3.35
      vertex 7.58502 -0.200897 -3.35
      vertex 7.58502 -0.200897 3.35
    endloop
  endfacet
  facet normal 0.881963 -0.471319 0
    outer loop
      vertex 7.58502 -0.200897 -3.35
      vertex 7.53651 -0.291672 3.35
      vertex 7.53651 -0.291672 -3.35
    endloop
  endfacet
  facet normal 0.772963 -0.634451 0
    outer loop
      vertex 7.47122 -0.371216 3.35
      vertex 7.53651 -0.291672 -3.35
      vertex 7.53651 -0.291672 3.35
    endloop
  endfacet
  facet normal 0.772963 -0.634451 0
    outer loop
      vertex 7.53651 -0.291672 -3.35
      vertex 7.47122 -0.371216 3.35
      vertex 7.47122 -0.371216 -3.35
    endloop
  endfacet
  facet normal 0.634386 -0.773016 0
    outer loop
      vertex 7.39166 -0.436508 -3.35
      vertex 7.47122 -0.371216 3.35
      vertex 7.39166 -0.436508 3.35
    endloop
  endfacet
  facet normal 0.634386 -0.773016 0
    outer loop
      vertex 7.47122 -0.371216 3.35
      vertex 7.39166 -0.436508 -3.35
      vertex 7.47122 -0.371216 -3.35
    endloop
  endfacet
  facet normal 0.471478 -0.881878 0
    outer loop
      vertex 7.3009 -0.485031 -3.35
      vertex 7.39166 -0.436508 3.35
      vertex 7.3009 -0.485031 3.35
    endloop
  endfacet
  facet normal 0.471478 -0.881878 0
    outer loop
      vertex 7.39166 -0.436508 3.35
      vertex 7.3009 -0.485031 -3.35
      vertex 7.39166 -0.436508 -3.35
    endloop
  endfacet
  facet normal 0.411606 -0.911362 0
    outer loop
      vertex 6.04999 -1.04999 -3.35
      vertex 7.3009 -0.485031 3.35
      vertex 6.04999 -1.04999 3.35
    endloop
  endfacet
  facet normal 0.411606 -0.911362 0
    outer loop
      vertex 7.3009 -0.485031 3.35
      vertex 6.04999 -1.04999 -3.35
      vertex 7.3009 -0.485031 -3.35
    endloop
  endfacet
  facet normal 0 -1 0
    outer loop
      vertex 5.14999 -1.04999 -3.35
      vertex 6.04999 -1.04999 3.35
      vertex 5.14999 -1.04999 3.35
    endloop
  endfacet
  facet normal 0 -1 -0
    outer loop
      vertex 6.04999 -1.04999 3.35
      vertex 5.14999 -1.04999 -3.35
      vertex 6.04999 -1.04999 -3.35
    endloop
  endfacet
  facet normal 1 -0 0
    outer loop
      vertex 5.14999 -7.1375 3.35
      vertex 5.14999 -1.04999 -3.35
      vertex 5.14999 -1.04999 3.35
    endloop
  endfacet
  facet normal 1 0 0
    outer loop
      vertex 5.14999 -1.04999 -3.35
      vertex 5.14999 -7.1375 3.35
      vertex 5.14999 -7.1375 -3.35
    endloop
  endfacet
  facet normal 0.995188 -0.0979884 0
    outer loop
      vertex 5.1279 -7.36185 3.35
      vertex 5.14999 -7.1375 -3.35
      vertex 5.14999 -7.1375 3.35
    endloop
  endfacet
  facet normal 0.995188 -0.0979884 0
    outer loop
      vertex 5.14999 -7.1375 -3.35
      vertex 5.1279 -7.36185 3.35
      vertex 5.1279 -7.36185 -3.35
    endloop
  endfacet
  facet normal 0.956929 -0.290321 0
    outer loop
      vertex 5.06245 -7.57758 3.35
      vertex 5.1279 -7.36185 -3.35
      vertex 5.1279 -7.36185 3.35
    endloop
  endfacet
  facet normal 0.956929 -0.290321 0
    outer loop
      vertex 5.1279 -7.36185 -3.35
      vertex 5.06245 -7.57758 3.35
      vertex 5.06245 -7.57758 -3.35
    endloop
  endfacet
  facet normal 0.881942 -0.471357 0
    outer loop
      vertex 4.95619 -7.7764 3.35
      vertex 5.06245 -7.57758 -3.35
      vertex 5.06245 -7.57758 3.35
    endloop
  endfacet
  facet normal 0.881942 -0.471357 0
    outer loop
      vertex 5.06245 -7.57758 -3.35
      vertex 4.95619 -7.7764 3.35
      vertex 4.95619 -7.7764 -3.35
    endloop
  endfacet
  facet normal 0.773053 -0.634341 0
    outer loop
      vertex 4.81319 -7.95067 3.35
      vertex 4.95619 -7.7764 -3.35
      vertex 4.95619 -7.7764 3.35
    endloop
  endfacet
  facet normal 0.773053 -0.634341 0
    outer loop
      vertex 4.95619 -7.7764 -3.35
      vertex 4.81319 -7.95067 3.35
      vertex 4.81319 -7.95067 -3.35
    endloop
  endfacet
  facet normal 0.634394 -0.77301 0
    outer loop
      vertex 4.63892 -8.09369 -3.35
      vertex 4.81319 -7.95067 3.35
      vertex 4.63892 -8.09369 3.35
    endloop
  endfacet
  facet normal 0.634394 -0.77301 0
    outer loop
      vertex 4.81319 -7.95067 3.35
      vertex 4.63892 -8.09369 -3.35
      vertex 4.81319 -7.95067 -3.35
    endloop
  endfacet
  facet normal 0.471339 -0.881952 0
    outer loop
      vertex 4.44009 -8.19995 -3.35
      vertex 4.63892 -8.09369 3.35
      vertex 4.44009 -8.19995 3.35
    endloop
  endfacet
  facet normal 0.471339 -0.881952 0
    outer loop
      vertex 4.63892 -8.09369 3.35
      vertex 4.44009 -8.19995 -3.35
      vertex 4.63892 -8.09369 -3.35
    endloop
  endfacet
  facet normal 0.290334 -0.956925 0
    outer loop
      vertex 4.22437 -8.2654 -3.35
      vertex 4.44009 -8.19995 3.35
      vertex 4.22437 -8.2654 3.35
    endloop
  endfacet
  facet normal 0.290334 -0.956925 0
    outer loop
      vertex 4.44009 -8.19995 3.35
      vertex 4.22437 -8.2654 -3.35
      vertex 4.44009 -8.19995 -3.35
    endloop
  endfacet
  facet normal 0.0979797 -0.995188 0
    outer loop
      vertex 4 -8.28749 -3.35
      vertex 4.22437 -8.2654 3.35
      vertex 4 -8.28749 3.35
    endloop
  endfacet
  facet normal 0.0979797 -0.995188 0
    outer loop
      vertex 4.22437 -8.2654 3.35
      vertex 4 -8.28749 -3.35
      vertex 4.22437 -8.2654 -3.35
    endloop
  endfacet
  facet normal -0.0979884 -0.995188 0
    outer loop
      vertex 3.77565 -8.2654 -3.35
      vertex 4 -8.28749 3.35
      vertex 3.77565 -8.2654 3.35
    endloop
  endfacet
  facet normal -0.0979884 -0.995188 -0
    outer loop
      vertex 4 -8.28749 3.35
      vertex 3.77565 -8.2654 -3.35
      vertex 4 -8.28749 -3.35
    endloop
  endfacet
  facet normal -0.290321 -0.956929 0
    outer loop
      vertex 3.55992 -8.19995 -3.35
      vertex 3.77565 -8.2654 3.35
      vertex 3.55992 -8.19995 3.35
    endloop
  endfacet
  facet normal -0.290321 -0.956929 -0
    outer loop
      vertex 3.77565 -8.2654 3.35
      vertex 3.55992 -8.19995 -3.35
      vertex 3.77565 -8.2654 -3.35
    endloop
  endfacet
  facet normal -0.471357 -0.881942 0
    outer loop
      vertex 3.3611 -8.09369 -3.35
      vertex 3.55992 -8.19995 3.35
      vertex 3.3611 -8.09369 3.35
    endloop
  endfacet
  facet normal -0.471357 -0.881942 -0
    outer loop
      vertex 3.55992 -8.19995 3.35
      vertex 3.3611 -8.09369 -3.35
      vertex 3.55992 -8.19995 -3.35
    endloop
  endfacet
  facet normal -0.634394 -0.77301 0
    outer loop
      vertex 3.18683 -7.95067 -3.35
      vertex 3.3611 -8.09369 3.35
      vertex 3.18683 -7.95067 3.35
    endloop
  endfacet
  facet normal -0.634394 -0.77301 -0
    outer loop
      vertex 3.3611 -8.09369 3.35
      vertex 3.18683 -7.95067 -3.35
      vertex 3.3611 -8.09369 -3.35
    endloop
  endfacet
  facet normal -0.773032 -0.634368 0
    outer loop
      vertex 3.18683 -7.95067 -3.35
      vertex 3.04382 -7.7764 3.35
      vertex 3.04382 -7.7764 -3.35
    endloop
  endfacet
  facet normal -0.773032 -0.634368 0
    outer loop
      vertex 3.04382 -7.7764 3.35
      vertex 3.18683 -7.95067 -3.35
      vertex 3.18683 -7.95067 3.35
    endloop
  endfacet
  facet normal -0.881924 -0.471392 0
    outer loop
      vertex 3.04382 -7.7764 -3.35
      vertex 2.93755 -7.57758 3.35
      vertex 2.93755 -7.57758 -3.35
    endloop
  endfacet
  facet normal -0.881924 -0.471392 0
    outer loop
      vertex 2.93755 -7.57758 3.35
      vertex 3.04382 -7.7764 -3.35
      vertex 3.04382 -7.7764 3.35
    endloop
  endfacet
  facet normal -0.956929 -0.290321 0
    outer loop
      vertex 2.93755 -7.57758 -3.35
      vertex 2.8721 -7.36185 3.35
      vertex 2.8721 -7.36185 -3.35
    endloop
  endfacet
  facet normal -0.956929 -0.290321 0
    outer loop
      vertex 2.8721 -7.36185 3.35
      vertex 2.93755 -7.57758 -3.35
      vertex 2.93755 -7.57758 3.35
    endloop
  endfacet
  facet normal -0.995188 -0.0979884 0
    outer loop
      vertex 2.8721 -7.36185 -3.35
      vertex 2.85001 -7.1375 3.35
      vertex 2.85001 -7.1375 -3.35
    endloop
  endfacet
  facet normal -0.995188 -0.0979884 0
    outer loop
      vertex 2.85001 -7.1375 3.35
      vertex 2.8721 -7.36185 -3.35
      vertex 2.8721 -7.36185 3.35
    endloop
  endfacet
  facet normal -1 0 0
    outer loop
      vertex 2.85001 -7.1375 -3.35
      vertex 2.85001 7.1375 3.35
      vertex 2.85001 7.1375 -3.35
    endloop
  endfacet
  facet normal -1 -0 0
    outer loop
      vertex 2.85001 7.1375 3.35
      vertex 2.85001 -7.1375 -3.35
      vertex 2.85001 -7.1375 3.35
    endloop
  endfacet
  facet normal -0.995188 0.0979884 0
    outer loop
      vertex 2.85001 7.1375 -3.35
      vertex 2.8721 7.36185 3.35
      vertex 2.8721 7.36185 -3.35
    endloop
  endfacet
  facet normal -0.995188 0.0979884 0
    outer loop
      vertex 2.8721 7.36185 3.35
      vertex 2.85001 7.1375 -3.35
      vertex 2.85001 7.1375 3.35
    endloop
  endfacet
endsolid OpenSCAD_Model
